G04 #@! TF.GenerationSoftware,KiCad,Pcbnew,(5.0.1)-4*
G04 #@! TF.CreationDate,2020-04-30T15:13:55+02:00*
G04 #@! TF.ProjectId,freqcounter,66726571636F756E7465722E6B696361,1*
G04 #@! TF.SameCoordinates,Original*
G04 #@! TF.FileFunction,Copper,L2,Bot,Signal*
G04 #@! TF.FilePolarity,Positive*
%FSLAX46Y46*%
G04 Gerber Fmt 4.6, Leading zero omitted, Abs format (unit mm)*
G04 Created by KiCad (PCBNEW (5.0.1)-4) date 30/04/2020 15:13:55*
%MOMM*%
%LPD*%
G01*
G04 APERTURE LIST*
G04 #@! TA.AperFunction,ComponentPad*
%ADD10O,1.700000X1.700000*%
G04 #@! TD*
G04 #@! TA.AperFunction,ComponentPad*
%ADD11R,1.700000X1.700000*%
G04 #@! TD*
G04 #@! TA.AperFunction,ViaPad*
%ADD12C,1.016000*%
G04 #@! TD*
G04 #@! TA.AperFunction,Conductor*
%ADD13C,0.508000*%
G04 #@! TD*
G04 #@! TA.AperFunction,Conductor*
%ADD14C,1.016000*%
G04 #@! TD*
G04 #@! TA.AperFunction,Conductor*
%ADD15C,0.254000*%
G04 #@! TD*
G04 APERTURE END LIST*
D10*
G04 #@! TO.P,J1,1*
G04 #@! TO.N,MCLR*
X124460000Y-90170000D03*
G04 #@! TO.P,J1,2*
G04 #@! TO.N,5V*
X124460000Y-92710000D03*
G04 #@! TO.P,J1,3*
G04 #@! TO.N,GND*
X124460000Y-95250000D03*
G04 #@! TO.P,J1,4*
G04 #@! TO.N,ICSPDAT*
X124460000Y-97790000D03*
G04 #@! TO.P,J1,5*
G04 #@! TO.N,ICSPCLK*
X124460000Y-100330000D03*
G04 #@! TD*
G04 #@! TO.P,J15,8*
G04 #@! TO.N,GND*
X124460000Y-67310000D03*
G04 #@! TO.P,J15,7*
G04 #@! TO.N,P0*
X124460000Y-69850000D03*
G04 #@! TO.P,J15,6*
G04 #@! TO.N,P1*
X124460000Y-72390000D03*
G04 #@! TO.P,J15,5*
G04 #@! TO.N,P2*
X124460000Y-74930000D03*
G04 #@! TO.P,J15,4*
G04 #@! TO.N,P3*
X124460000Y-77470000D03*
G04 #@! TO.P,J15,3*
G04 #@! TO.N,ICSPCLK*
X124460000Y-80010000D03*
G04 #@! TO.P,J15,2*
G04 #@! TO.N,ICSPDAT*
X124460000Y-82550000D03*
G04 #@! TO.P,J15,1*
G04 #@! TO.N,5V*
X124460000Y-85090000D03*
G04 #@! TD*
G04 #@! TO.P,J3,6*
G04 #@! TO.N,Vin*
X144780000Y-105410000D03*
G04 #@! TO.P,J3,5*
G04 #@! TO.N,GND*
X142240000Y-105410000D03*
G04 #@! TO.P,J3,4*
X139700000Y-105410000D03*
G04 #@! TO.P,J3,3*
G04 #@! TO.N,5V*
X137160000Y-105410000D03*
G04 #@! TO.P,J3,2*
G04 #@! TO.N,3.3V*
X134620000Y-105410000D03*
G04 #@! TO.P,J3,1*
G04 #@! TO.N,Reset*
X132080000Y-105410000D03*
G04 #@! TD*
G04 #@! TO.P,J9,8*
G04 #@! TO.N,ARD_RX*
X162560000Y-59690000D03*
G04 #@! TO.P,J9,7*
G04 #@! TO.N,ARD_TX*
X160020000Y-59690000D03*
G04 #@! TO.P,J9,6*
G04 #@! TO.N,Net-(J8-Pad6)*
X157480000Y-59690000D03*
G04 #@! TO.P,J9,5*
G04 #@! TO.N,Net-(J8-Pad5)*
X154940000Y-59690000D03*
G04 #@! TO.P,J9,4*
G04 #@! TO.N,Net-(J8-Pad4)*
X152400000Y-59690000D03*
G04 #@! TO.P,J9,3*
G04 #@! TO.N,Net-(J8-Pad3)*
X149860000Y-59690000D03*
G04 #@! TO.P,J9,2*
G04 #@! TO.N,Net-(J8-Pad2)*
X147320000Y-59690000D03*
G04 #@! TO.P,J9,1*
G04 #@! TO.N,Net-(J8-Pad1)*
X144780000Y-59690000D03*
G04 #@! TD*
G04 #@! TO.P,J4,8*
G04 #@! TO.N,Net-(J4-Pad8)*
X140716000Y-59690000D03*
G04 #@! TO.P,J4,7*
G04 #@! TO.N,Net-(J4-Pad7)*
X138176000Y-59690000D03*
G04 #@! TO.P,J4,6*
G04 #@! TO.N,Net-(J4-Pad6)*
X135636000Y-59690000D03*
G04 #@! TO.P,J4,5*
G04 #@! TO.N,Net-(J4-Pad5)*
X133096000Y-59690000D03*
G04 #@! TO.P,J4,4*
G04 #@! TO.N,Net-(J4-Pad4)*
X130556000Y-59690000D03*
G04 #@! TO.P,J4,3*
G04 #@! TO.N,Net-(J4-Pad3)*
X128016000Y-59690000D03*
G04 #@! TO.P,J4,2*
G04 #@! TO.N,GND*
X125476000Y-59690000D03*
G04 #@! TO.P,J4,1*
G04 #@! TO.N,Net-(J4-Pad1)*
X122936000Y-59690000D03*
G04 #@! TD*
G04 #@! TO.P,J2,6*
G04 #@! TO.N,Vin*
X144780000Y-107950000D03*
G04 #@! TO.P,J2,5*
G04 #@! TO.N,GND*
X142240000Y-107950000D03*
G04 #@! TO.P,J2,4*
X139700000Y-107950000D03*
G04 #@! TO.P,J2,3*
G04 #@! TO.N,5V*
X137160000Y-107950000D03*
G04 #@! TO.P,J2,2*
G04 #@! TO.N,3.3V*
X134620000Y-107950000D03*
G04 #@! TO.P,J2,1*
G04 #@! TO.N,Reset*
X132080000Y-107950000D03*
G04 #@! TD*
G04 #@! TO.P,J7,1*
G04 #@! TO.N,Net-(J6-Pad1)*
X149860000Y-107950000D03*
G04 #@! TO.P,J7,2*
G04 #@! TO.N,Net-(J6-Pad2)*
X152400000Y-107950000D03*
G04 #@! TO.P,J7,3*
G04 #@! TO.N,Net-(J6-Pad3)*
X154940000Y-107950000D03*
G04 #@! TO.P,J7,4*
G04 #@! TO.N,Net-(J6-Pad4)*
X157480000Y-107950000D03*
G04 #@! TO.P,J7,5*
G04 #@! TO.N,SDA*
X160020000Y-107950000D03*
G04 #@! TO.P,J7,6*
G04 #@! TO.N,SCL*
X162560000Y-107950000D03*
G04 #@! TD*
D11*
G04 #@! TO.P,J10,1*
G04 #@! TO.N,INPUT_A*
X160020000Y-97790000D03*
D10*
G04 #@! TO.P,J10,2*
G04 #@! TO.N,GND*
X160020000Y-100330000D03*
G04 #@! TD*
G04 #@! TO.P,J11,2*
G04 #@! TO.N,GND*
X160020000Y-92710000D03*
D11*
G04 #@! TO.P,J11,1*
G04 #@! TO.N,INPUT_B*
X160020000Y-90170000D03*
G04 #@! TD*
G04 #@! TO.P,J12,1*
G04 #@! TO.N,INPUT_ZCD*
X160020000Y-82550000D03*
D10*
G04 #@! TO.P,J12,2*
G04 #@! TO.N,GND*
X160020000Y-85090000D03*
G04 #@! TD*
D11*
G04 #@! TO.P,J13,1*
G04 #@! TO.N,SCL*
X160020000Y-67310000D03*
D10*
G04 #@! TO.P,J13,2*
G04 #@! TO.N,SDA*
X160020000Y-69850000D03*
G04 #@! TO.P,J13,3*
G04 #@! TO.N,5V*
X160020000Y-72390000D03*
G04 #@! TO.P,J13,4*
G04 #@! TO.N,GND*
X160020000Y-74930000D03*
G04 #@! TD*
G04 #@! TO.P,J14,4*
G04 #@! TO.N,GND*
X152400000Y-74930000D03*
G04 #@! TO.P,J14,3*
G04 #@! TO.N,5V*
X152400000Y-72390000D03*
G04 #@! TO.P,J14,2*
G04 #@! TO.N,SDA*
X152400000Y-69850000D03*
D11*
G04 #@! TO.P,J14,1*
G04 #@! TO.N,SCL*
X152400000Y-67310000D03*
G04 #@! TD*
D10*
G04 #@! TO.P,J5,1*
G04 #@! TO.N,Net-(J4-Pad1)*
X124460000Y-62230000D03*
G04 #@! TO.P,J5,2*
G04 #@! TO.N,GND*
X127000000Y-62230000D03*
G04 #@! TO.P,J5,3*
G04 #@! TO.N,Net-(J4-Pad3)*
X129540000Y-62230000D03*
G04 #@! TO.P,J5,4*
G04 #@! TO.N,Net-(J4-Pad4)*
X132080000Y-62230000D03*
G04 #@! TO.P,J5,5*
G04 #@! TO.N,Net-(J4-Pad5)*
X134620000Y-62230000D03*
G04 #@! TO.P,J5,6*
G04 #@! TO.N,Net-(J4-Pad6)*
X137160000Y-62230000D03*
G04 #@! TO.P,J5,7*
G04 #@! TO.N,Net-(J4-Pad7)*
X139700000Y-62230000D03*
G04 #@! TO.P,J5,8*
G04 #@! TO.N,Net-(J4-Pad8)*
X142240000Y-62230000D03*
G04 #@! TD*
G04 #@! TO.P,J6,1*
G04 #@! TO.N,Net-(J6-Pad1)*
X149860000Y-105410000D03*
G04 #@! TO.P,J6,2*
G04 #@! TO.N,Net-(J6-Pad2)*
X152400000Y-105410000D03*
G04 #@! TO.P,J6,3*
G04 #@! TO.N,Net-(J6-Pad3)*
X154940000Y-105410000D03*
G04 #@! TO.P,J6,4*
G04 #@! TO.N,Net-(J6-Pad4)*
X157480000Y-105410000D03*
G04 #@! TO.P,J6,5*
G04 #@! TO.N,SDA*
X160020000Y-105410000D03*
G04 #@! TO.P,J6,6*
G04 #@! TO.N,SCL*
X162560000Y-105410000D03*
G04 #@! TD*
G04 #@! TO.P,J8,8*
G04 #@! TO.N,ARD_RX*
X162560000Y-62230000D03*
G04 #@! TO.P,J8,7*
G04 #@! TO.N,ARD_TX*
X160020000Y-62230000D03*
G04 #@! TO.P,J8,6*
G04 #@! TO.N,Net-(J8-Pad6)*
X157480000Y-62230000D03*
G04 #@! TO.P,J8,5*
G04 #@! TO.N,Net-(J8-Pad5)*
X154940000Y-62230000D03*
G04 #@! TO.P,J8,4*
G04 #@! TO.N,Net-(J8-Pad4)*
X152400000Y-62230000D03*
G04 #@! TO.P,J8,3*
G04 #@! TO.N,Net-(J8-Pad3)*
X149860000Y-62230000D03*
G04 #@! TO.P,J8,2*
G04 #@! TO.N,Net-(J8-Pad2)*
X147320000Y-62230000D03*
G04 #@! TO.P,J8,1*
G04 #@! TO.N,Net-(J8-Pad1)*
X144780000Y-62230000D03*
G04 #@! TD*
D12*
G04 #@! TO.N,GND*
X135890000Y-92075000D03*
X137160000Y-92075000D03*
X137405000Y-87240000D03*
X136525000Y-86360000D03*
G04 #@! TO.N,MCLR*
X129540000Y-89535000D03*
X140970000Y-83185000D03*
G04 #@! TO.N,5V*
X139455000Y-72698000D03*
X139455000Y-71281570D03*
X143002000Y-72644000D03*
X143510022Y-71754996D03*
G04 #@! TO.N,Earth*
X154940000Y-80010000D03*
G04 #@! TO.N,3.3V*
X134620000Y-101600000D03*
X139700000Y-101600000D03*
G04 #@! TO.N,SCL*
X163830000Y-67310000D03*
G04 #@! TO.N,Net-(R1-Pad2)*
X145415012Y-74295000D03*
X137160000Y-74378432D03*
G04 #@! TD*
D13*
G04 #@! TO.N,MCLR*
X129540000Y-89535000D02*
X135890000Y-83185000D01*
X140251580Y-83185000D02*
X140970000Y-83185000D01*
X135890000Y-83185000D02*
X140251580Y-83185000D01*
D14*
G04 #@! TO.N,5V*
X142948000Y-72698000D02*
X143002000Y-72644000D01*
X139455000Y-72698000D02*
X142948000Y-72698000D01*
X143510022Y-71754996D02*
X139928426Y-71754996D01*
X139928426Y-71754996D02*
X139455000Y-71281570D01*
G04 #@! TO.N,3.3V*
X134620000Y-101600000D02*
X139700000Y-101600000D01*
D13*
G04 #@! TO.N,SCL*
X163830000Y-67310000D02*
X160020000Y-67310000D01*
G04 #@! TO.N,Net-(R1-Pad2)*
X145415012Y-74295000D02*
X137243432Y-74295000D01*
X137243432Y-74295000D02*
X137160000Y-74378432D01*
G04 #@! TD*
D15*
G04 #@! TO.N,GND*
G36*
X166557787Y-57904065D02*
X166722920Y-57999405D01*
X166845488Y-58145477D01*
X166921555Y-58354465D01*
X166930001Y-58451007D01*
X166930000Y-109157881D01*
X166885935Y-109407787D01*
X166790596Y-109572919D01*
X166644524Y-109695488D01*
X166435532Y-109771555D01*
X166339004Y-109780000D01*
X121982119Y-109780000D01*
X121732213Y-109735935D01*
X121567081Y-109640596D01*
X121444512Y-109494524D01*
X121368445Y-109285532D01*
X121360000Y-109189004D01*
X121360000Y-105410000D01*
X130565908Y-105410000D01*
X130681161Y-105989418D01*
X131009375Y-106480625D01*
X131307761Y-106680000D01*
X131009375Y-106879375D01*
X130681161Y-107370582D01*
X130565908Y-107950000D01*
X130681161Y-108529418D01*
X131009375Y-109020625D01*
X131500582Y-109348839D01*
X131933744Y-109435000D01*
X132226256Y-109435000D01*
X132659418Y-109348839D01*
X133150625Y-109020625D01*
X133350000Y-108722239D01*
X133549375Y-109020625D01*
X134040582Y-109348839D01*
X134473744Y-109435000D01*
X134766256Y-109435000D01*
X135199418Y-109348839D01*
X135690625Y-109020625D01*
X135890000Y-108722239D01*
X136089375Y-109020625D01*
X136580582Y-109348839D01*
X137013744Y-109435000D01*
X137306256Y-109435000D01*
X137739418Y-109348839D01*
X138230625Y-109020625D01*
X138443843Y-108701522D01*
X138504817Y-108831358D01*
X138933076Y-109221645D01*
X139343110Y-109391476D01*
X139573000Y-109270155D01*
X139573000Y-108077000D01*
X139827000Y-108077000D01*
X139827000Y-109270155D01*
X140056890Y-109391476D01*
X140466924Y-109221645D01*
X140895183Y-108831358D01*
X140970000Y-108672046D01*
X141044817Y-108831358D01*
X141473076Y-109221645D01*
X141883110Y-109391476D01*
X142113000Y-109270155D01*
X142113000Y-108077000D01*
X139827000Y-108077000D01*
X139573000Y-108077000D01*
X139553000Y-108077000D01*
X139553000Y-107823000D01*
X139573000Y-107823000D01*
X139573000Y-105537000D01*
X139827000Y-105537000D01*
X139827000Y-107823000D01*
X142113000Y-107823000D01*
X142113000Y-105537000D01*
X139827000Y-105537000D01*
X139573000Y-105537000D01*
X139553000Y-105537000D01*
X139553000Y-105283000D01*
X139573000Y-105283000D01*
X139573000Y-104089845D01*
X139827000Y-104089845D01*
X139827000Y-105283000D01*
X142113000Y-105283000D01*
X142113000Y-104089845D01*
X142367000Y-104089845D01*
X142367000Y-105283000D01*
X142387000Y-105283000D01*
X142387000Y-105537000D01*
X142367000Y-105537000D01*
X142367000Y-107823000D01*
X142387000Y-107823000D01*
X142387000Y-108077000D01*
X142367000Y-108077000D01*
X142367000Y-109270155D01*
X142596890Y-109391476D01*
X143006924Y-109221645D01*
X143435183Y-108831358D01*
X143496157Y-108701522D01*
X143709375Y-109020625D01*
X144200582Y-109348839D01*
X144633744Y-109435000D01*
X144926256Y-109435000D01*
X145359418Y-109348839D01*
X145850625Y-109020625D01*
X146178839Y-108529418D01*
X146294092Y-107950000D01*
X146178839Y-107370582D01*
X145850625Y-106879375D01*
X145552239Y-106680000D01*
X145850625Y-106480625D01*
X146178839Y-105989418D01*
X146294092Y-105410000D01*
X148345908Y-105410000D01*
X148461161Y-105989418D01*
X148789375Y-106480625D01*
X149087761Y-106680000D01*
X148789375Y-106879375D01*
X148461161Y-107370582D01*
X148345908Y-107950000D01*
X148461161Y-108529418D01*
X148789375Y-109020625D01*
X149280582Y-109348839D01*
X149713744Y-109435000D01*
X150006256Y-109435000D01*
X150439418Y-109348839D01*
X150930625Y-109020625D01*
X151130000Y-108722239D01*
X151329375Y-109020625D01*
X151820582Y-109348839D01*
X152253744Y-109435000D01*
X152546256Y-109435000D01*
X152979418Y-109348839D01*
X153470625Y-109020625D01*
X153670000Y-108722239D01*
X153869375Y-109020625D01*
X154360582Y-109348839D01*
X154793744Y-109435000D01*
X155086256Y-109435000D01*
X155519418Y-109348839D01*
X156010625Y-109020625D01*
X156210000Y-108722239D01*
X156409375Y-109020625D01*
X156900582Y-109348839D01*
X157333744Y-109435000D01*
X157626256Y-109435000D01*
X158059418Y-109348839D01*
X158550625Y-109020625D01*
X158750000Y-108722239D01*
X158949375Y-109020625D01*
X159440582Y-109348839D01*
X159873744Y-109435000D01*
X160166256Y-109435000D01*
X160599418Y-109348839D01*
X161090625Y-109020625D01*
X161290000Y-108722239D01*
X161489375Y-109020625D01*
X161980582Y-109348839D01*
X162413744Y-109435000D01*
X162706256Y-109435000D01*
X163139418Y-109348839D01*
X163630625Y-109020625D01*
X163958839Y-108529418D01*
X164074092Y-107950000D01*
X163958839Y-107370582D01*
X163630625Y-106879375D01*
X163332239Y-106680000D01*
X163630625Y-106480625D01*
X163958839Y-105989418D01*
X164074092Y-105410000D01*
X163958839Y-104830582D01*
X163630625Y-104339375D01*
X163139418Y-104011161D01*
X162706256Y-103925000D01*
X162413744Y-103925000D01*
X161980582Y-104011161D01*
X161489375Y-104339375D01*
X161290000Y-104637761D01*
X161090625Y-104339375D01*
X160599418Y-104011161D01*
X160166256Y-103925000D01*
X159873744Y-103925000D01*
X159440582Y-104011161D01*
X158949375Y-104339375D01*
X158750000Y-104637761D01*
X158550625Y-104339375D01*
X158059418Y-104011161D01*
X157626256Y-103925000D01*
X157333744Y-103925000D01*
X156900582Y-104011161D01*
X156409375Y-104339375D01*
X156210000Y-104637761D01*
X156010625Y-104339375D01*
X155519418Y-104011161D01*
X155086256Y-103925000D01*
X154793744Y-103925000D01*
X154360582Y-104011161D01*
X153869375Y-104339375D01*
X153670000Y-104637761D01*
X153470625Y-104339375D01*
X152979418Y-104011161D01*
X152546256Y-103925000D01*
X152253744Y-103925000D01*
X151820582Y-104011161D01*
X151329375Y-104339375D01*
X151130000Y-104637761D01*
X150930625Y-104339375D01*
X150439418Y-104011161D01*
X150006256Y-103925000D01*
X149713744Y-103925000D01*
X149280582Y-104011161D01*
X148789375Y-104339375D01*
X148461161Y-104830582D01*
X148345908Y-105410000D01*
X146294092Y-105410000D01*
X146178839Y-104830582D01*
X145850625Y-104339375D01*
X145359418Y-104011161D01*
X144926256Y-103925000D01*
X144633744Y-103925000D01*
X144200582Y-104011161D01*
X143709375Y-104339375D01*
X143496157Y-104658478D01*
X143435183Y-104528642D01*
X143006924Y-104138355D01*
X142596890Y-103968524D01*
X142367000Y-104089845D01*
X142113000Y-104089845D01*
X141883110Y-103968524D01*
X141473076Y-104138355D01*
X141044817Y-104528642D01*
X140970000Y-104687954D01*
X140895183Y-104528642D01*
X140466924Y-104138355D01*
X140056890Y-103968524D01*
X139827000Y-104089845D01*
X139573000Y-104089845D01*
X139343110Y-103968524D01*
X138933076Y-104138355D01*
X138504817Y-104528642D01*
X138443843Y-104658478D01*
X138230625Y-104339375D01*
X137739418Y-104011161D01*
X137306256Y-103925000D01*
X137013744Y-103925000D01*
X136580582Y-104011161D01*
X136089375Y-104339375D01*
X135890000Y-104637761D01*
X135690625Y-104339375D01*
X135199418Y-104011161D01*
X134766256Y-103925000D01*
X134473744Y-103925000D01*
X134040582Y-104011161D01*
X133549375Y-104339375D01*
X133350000Y-104637761D01*
X133150625Y-104339375D01*
X132659418Y-104011161D01*
X132226256Y-103925000D01*
X131933744Y-103925000D01*
X131500582Y-104011161D01*
X131009375Y-104339375D01*
X130681161Y-104830582D01*
X130565908Y-105410000D01*
X121360000Y-105410000D01*
X121360000Y-97790000D01*
X122945908Y-97790000D01*
X123061161Y-98369418D01*
X123389375Y-98860625D01*
X123687761Y-99060000D01*
X123389375Y-99259375D01*
X123061161Y-99750582D01*
X122945908Y-100330000D01*
X123061161Y-100909418D01*
X123389375Y-101400625D01*
X123880582Y-101728839D01*
X124313744Y-101815000D01*
X124606256Y-101815000D01*
X125039418Y-101728839D01*
X125232239Y-101600000D01*
X133454608Y-101600000D01*
X133477000Y-101712572D01*
X133477000Y-101827357D01*
X133520926Y-101933404D01*
X133543318Y-102045976D01*
X133607084Y-102141409D01*
X133651011Y-102247458D01*
X133732177Y-102328624D01*
X133795943Y-102424057D01*
X133891376Y-102487823D01*
X133972542Y-102568989D01*
X134078591Y-102612916D01*
X134174024Y-102676682D01*
X134286595Y-102699074D01*
X134392643Y-102743000D01*
X139927357Y-102743000D01*
X140033405Y-102699074D01*
X140145976Y-102676682D01*
X140241409Y-102612916D01*
X140347458Y-102568989D01*
X140428624Y-102487823D01*
X140524057Y-102424057D01*
X140587823Y-102328624D01*
X140668989Y-102247458D01*
X140712916Y-102141409D01*
X140776682Y-102045976D01*
X140799074Y-101933404D01*
X140843000Y-101827357D01*
X140843000Y-101712572D01*
X140865392Y-101600000D01*
X140843000Y-101487428D01*
X140843000Y-101372643D01*
X140799074Y-101266596D01*
X140776682Y-101154024D01*
X140712916Y-101058591D01*
X140668989Y-100952542D01*
X140587823Y-100871376D01*
X140524057Y-100775943D01*
X140428624Y-100712177D01*
X140403337Y-100686890D01*
X158578524Y-100686890D01*
X158748355Y-101096924D01*
X159138642Y-101525183D01*
X159663108Y-101771486D01*
X159893000Y-101650819D01*
X159893000Y-100457000D01*
X160147000Y-100457000D01*
X160147000Y-101650819D01*
X160376892Y-101771486D01*
X160901358Y-101525183D01*
X161291645Y-101096924D01*
X161461476Y-100686890D01*
X161340155Y-100457000D01*
X160147000Y-100457000D01*
X159893000Y-100457000D01*
X158699845Y-100457000D01*
X158578524Y-100686890D01*
X140403337Y-100686890D01*
X140347458Y-100631011D01*
X140241409Y-100587084D01*
X140145976Y-100523318D01*
X140033405Y-100500926D01*
X139927357Y-100457000D01*
X134392643Y-100457000D01*
X134286595Y-100500926D01*
X134174024Y-100523318D01*
X134078591Y-100587084D01*
X133972542Y-100631011D01*
X133891376Y-100712177D01*
X133795943Y-100775943D01*
X133732177Y-100871376D01*
X133651011Y-100952542D01*
X133607084Y-101058591D01*
X133543318Y-101154024D01*
X133520926Y-101266596D01*
X133477000Y-101372643D01*
X133477000Y-101487428D01*
X133454608Y-101600000D01*
X125232239Y-101600000D01*
X125530625Y-101400625D01*
X125858839Y-100909418D01*
X125974092Y-100330000D01*
X125858839Y-99750582D01*
X125530625Y-99259375D01*
X125232239Y-99060000D01*
X125530625Y-98860625D01*
X125858839Y-98369418D01*
X125974092Y-97790000D01*
X125858839Y-97210582D01*
X125678042Y-96940000D01*
X158522560Y-96940000D01*
X158522560Y-98640000D01*
X158571843Y-98887765D01*
X158712191Y-99097809D01*
X158922235Y-99238157D01*
X159025708Y-99258739D01*
X158748355Y-99563076D01*
X158578524Y-99973110D01*
X158699845Y-100203000D01*
X159893000Y-100203000D01*
X159893000Y-100183000D01*
X160147000Y-100183000D01*
X160147000Y-100203000D01*
X161340155Y-100203000D01*
X161461476Y-99973110D01*
X161291645Y-99563076D01*
X161014292Y-99258739D01*
X161117765Y-99238157D01*
X161327809Y-99097809D01*
X161468157Y-98887765D01*
X161517440Y-98640000D01*
X161517440Y-96940000D01*
X161468157Y-96692235D01*
X161327809Y-96482191D01*
X161117765Y-96341843D01*
X160870000Y-96292560D01*
X159170000Y-96292560D01*
X158922235Y-96341843D01*
X158712191Y-96482191D01*
X158571843Y-96692235D01*
X158522560Y-96940000D01*
X125678042Y-96940000D01*
X125530625Y-96719375D01*
X125211522Y-96506157D01*
X125341358Y-96445183D01*
X125731645Y-96016924D01*
X125901476Y-95606890D01*
X125780155Y-95377000D01*
X124587000Y-95377000D01*
X124587000Y-95397000D01*
X124333000Y-95397000D01*
X124333000Y-95377000D01*
X123139845Y-95377000D01*
X123018524Y-95606890D01*
X123188355Y-96016924D01*
X123578642Y-96445183D01*
X123708478Y-96506157D01*
X123389375Y-96719375D01*
X123061161Y-97210582D01*
X122945908Y-97790000D01*
X121360000Y-97790000D01*
X121360000Y-90170000D01*
X122945908Y-90170000D01*
X123061161Y-90749418D01*
X123389375Y-91240625D01*
X123687761Y-91440000D01*
X123389375Y-91639375D01*
X123061161Y-92130582D01*
X122945908Y-92710000D01*
X123061161Y-93289418D01*
X123389375Y-93780625D01*
X123708478Y-93993843D01*
X123578642Y-94054817D01*
X123188355Y-94483076D01*
X123018524Y-94893110D01*
X123139845Y-95123000D01*
X124333000Y-95123000D01*
X124333000Y-95103000D01*
X124587000Y-95103000D01*
X124587000Y-95123000D01*
X125780155Y-95123000D01*
X125901476Y-94893110D01*
X125731645Y-94483076D01*
X125341358Y-94054817D01*
X125211522Y-93993843D01*
X125530625Y-93780625D01*
X125858839Y-93289418D01*
X125903102Y-93066890D01*
X158578524Y-93066890D01*
X158748355Y-93476924D01*
X159138642Y-93905183D01*
X159663108Y-94151486D01*
X159893000Y-94030819D01*
X159893000Y-92837000D01*
X160147000Y-92837000D01*
X160147000Y-94030819D01*
X160376892Y-94151486D01*
X160901358Y-93905183D01*
X161291645Y-93476924D01*
X161461476Y-93066890D01*
X161340155Y-92837000D01*
X160147000Y-92837000D01*
X159893000Y-92837000D01*
X158699845Y-92837000D01*
X158578524Y-93066890D01*
X125903102Y-93066890D01*
X125974092Y-92710000D01*
X125858839Y-92130582D01*
X125530625Y-91639375D01*
X125232239Y-91440000D01*
X125530625Y-91240625D01*
X125858839Y-90749418D01*
X125974092Y-90170000D01*
X125858839Y-89590582D01*
X125669786Y-89307643D01*
X128397000Y-89307643D01*
X128397000Y-89762357D01*
X128571011Y-90182458D01*
X128892542Y-90503989D01*
X129312643Y-90678000D01*
X129767357Y-90678000D01*
X130187458Y-90503989D01*
X130508989Y-90182458D01*
X130683000Y-89762357D01*
X130683000Y-89649235D01*
X131012235Y-89320000D01*
X158522560Y-89320000D01*
X158522560Y-91020000D01*
X158571843Y-91267765D01*
X158712191Y-91477809D01*
X158922235Y-91618157D01*
X159025708Y-91638739D01*
X158748355Y-91943076D01*
X158578524Y-92353110D01*
X158699845Y-92583000D01*
X159893000Y-92583000D01*
X159893000Y-92563000D01*
X160147000Y-92563000D01*
X160147000Y-92583000D01*
X161340155Y-92583000D01*
X161461476Y-92353110D01*
X161291645Y-91943076D01*
X161014292Y-91638739D01*
X161117765Y-91618157D01*
X161327809Y-91477809D01*
X161468157Y-91267765D01*
X161517440Y-91020000D01*
X161517440Y-89320000D01*
X161468157Y-89072235D01*
X161327809Y-88862191D01*
X161117765Y-88721843D01*
X160870000Y-88672560D01*
X159170000Y-88672560D01*
X158922235Y-88721843D01*
X158712191Y-88862191D01*
X158571843Y-89072235D01*
X158522560Y-89320000D01*
X131012235Y-89320000D01*
X134885345Y-85446890D01*
X158578524Y-85446890D01*
X158748355Y-85856924D01*
X159138642Y-86285183D01*
X159663108Y-86531486D01*
X159893000Y-86410819D01*
X159893000Y-85217000D01*
X160147000Y-85217000D01*
X160147000Y-86410819D01*
X160376892Y-86531486D01*
X160901358Y-86285183D01*
X161291645Y-85856924D01*
X161461476Y-85446890D01*
X161340155Y-85217000D01*
X160147000Y-85217000D01*
X159893000Y-85217000D01*
X158699845Y-85217000D01*
X158578524Y-85446890D01*
X134885345Y-85446890D01*
X136258236Y-84074000D01*
X140242553Y-84074000D01*
X140322542Y-84153989D01*
X140742643Y-84328000D01*
X141197357Y-84328000D01*
X141617458Y-84153989D01*
X141938989Y-83832458D01*
X142113000Y-83412357D01*
X142113000Y-82957643D01*
X141938989Y-82537542D01*
X141617458Y-82216011D01*
X141197357Y-82042000D01*
X140742643Y-82042000D01*
X140322542Y-82216011D01*
X140242553Y-82296000D01*
X135977554Y-82296000D01*
X135889999Y-82278584D01*
X135802444Y-82296000D01*
X135543130Y-82347581D01*
X135249067Y-82544067D01*
X135199471Y-82618293D01*
X129425765Y-88392000D01*
X129312643Y-88392000D01*
X128892542Y-88566011D01*
X128571011Y-88887542D01*
X128397000Y-89307643D01*
X125669786Y-89307643D01*
X125530625Y-89099375D01*
X125039418Y-88771161D01*
X124606256Y-88685000D01*
X124313744Y-88685000D01*
X123880582Y-88771161D01*
X123389375Y-89099375D01*
X123061161Y-89590582D01*
X122945908Y-90170000D01*
X121360000Y-90170000D01*
X121360000Y-69850000D01*
X122945908Y-69850000D01*
X123061161Y-70429418D01*
X123389375Y-70920625D01*
X123687761Y-71120000D01*
X123389375Y-71319375D01*
X123061161Y-71810582D01*
X122945908Y-72390000D01*
X123061161Y-72969418D01*
X123389375Y-73460625D01*
X123687761Y-73660000D01*
X123389375Y-73859375D01*
X123061161Y-74350582D01*
X122945908Y-74930000D01*
X123061161Y-75509418D01*
X123389375Y-76000625D01*
X123687761Y-76200000D01*
X123389375Y-76399375D01*
X123061161Y-76890582D01*
X122945908Y-77470000D01*
X123061161Y-78049418D01*
X123389375Y-78540625D01*
X123687761Y-78740000D01*
X123389375Y-78939375D01*
X123061161Y-79430582D01*
X122945908Y-80010000D01*
X123061161Y-80589418D01*
X123389375Y-81080625D01*
X123687761Y-81280000D01*
X123389375Y-81479375D01*
X123061161Y-81970582D01*
X122945908Y-82550000D01*
X123061161Y-83129418D01*
X123389375Y-83620625D01*
X123687761Y-83820000D01*
X123389375Y-84019375D01*
X123061161Y-84510582D01*
X122945908Y-85090000D01*
X123061161Y-85669418D01*
X123389375Y-86160625D01*
X123880582Y-86488839D01*
X124313744Y-86575000D01*
X124606256Y-86575000D01*
X125039418Y-86488839D01*
X125530625Y-86160625D01*
X125858839Y-85669418D01*
X125974092Y-85090000D01*
X125858839Y-84510582D01*
X125530625Y-84019375D01*
X125232239Y-83820000D01*
X125530625Y-83620625D01*
X125858839Y-83129418D01*
X125974092Y-82550000D01*
X125858839Y-81970582D01*
X125678042Y-81700000D01*
X158522560Y-81700000D01*
X158522560Y-83400000D01*
X158571843Y-83647765D01*
X158712191Y-83857809D01*
X158922235Y-83998157D01*
X159025708Y-84018739D01*
X158748355Y-84323076D01*
X158578524Y-84733110D01*
X158699845Y-84963000D01*
X159893000Y-84963000D01*
X159893000Y-84943000D01*
X160147000Y-84943000D01*
X160147000Y-84963000D01*
X161340155Y-84963000D01*
X161461476Y-84733110D01*
X161291645Y-84323076D01*
X161014292Y-84018739D01*
X161117765Y-83998157D01*
X161327809Y-83857809D01*
X161468157Y-83647765D01*
X161517440Y-83400000D01*
X161517440Y-81700000D01*
X161468157Y-81452235D01*
X161327809Y-81242191D01*
X161117765Y-81101843D01*
X160870000Y-81052560D01*
X159170000Y-81052560D01*
X158922235Y-81101843D01*
X158712191Y-81242191D01*
X158571843Y-81452235D01*
X158522560Y-81700000D01*
X125678042Y-81700000D01*
X125530625Y-81479375D01*
X125232239Y-81280000D01*
X125530625Y-81080625D01*
X125858839Y-80589418D01*
X125974092Y-80010000D01*
X125928869Y-79782643D01*
X153797000Y-79782643D01*
X153797000Y-80237357D01*
X153971011Y-80657458D01*
X154292542Y-80978989D01*
X154712643Y-81153000D01*
X155167357Y-81153000D01*
X155587458Y-80978989D01*
X155908989Y-80657458D01*
X156083000Y-80237357D01*
X156083000Y-79782643D01*
X155908989Y-79362542D01*
X155587458Y-79041011D01*
X155167357Y-78867000D01*
X154712643Y-78867000D01*
X154292542Y-79041011D01*
X153971011Y-79362542D01*
X153797000Y-79782643D01*
X125928869Y-79782643D01*
X125858839Y-79430582D01*
X125530625Y-78939375D01*
X125232239Y-78740000D01*
X125530625Y-78540625D01*
X125858839Y-78049418D01*
X125974092Y-77470000D01*
X125858839Y-76890582D01*
X125530625Y-76399375D01*
X125232239Y-76200000D01*
X125530625Y-76000625D01*
X125858839Y-75509418D01*
X125974092Y-74930000D01*
X125858839Y-74350582D01*
X125725533Y-74151075D01*
X136017000Y-74151075D01*
X136017000Y-74605789D01*
X136191011Y-75025890D01*
X136512542Y-75347421D01*
X136932643Y-75521432D01*
X137387357Y-75521432D01*
X137807458Y-75347421D01*
X137970879Y-75184000D01*
X144687565Y-75184000D01*
X144767554Y-75263989D01*
X145187655Y-75438000D01*
X145642369Y-75438000D01*
X146007181Y-75286890D01*
X150958524Y-75286890D01*
X151128355Y-75696924D01*
X151518642Y-76125183D01*
X152043108Y-76371486D01*
X152273000Y-76250819D01*
X152273000Y-75057000D01*
X152527000Y-75057000D01*
X152527000Y-76250819D01*
X152756892Y-76371486D01*
X153281358Y-76125183D01*
X153671645Y-75696924D01*
X153841476Y-75286890D01*
X158578524Y-75286890D01*
X158748355Y-75696924D01*
X159138642Y-76125183D01*
X159663108Y-76371486D01*
X159893000Y-76250819D01*
X159893000Y-75057000D01*
X160147000Y-75057000D01*
X160147000Y-76250819D01*
X160376892Y-76371486D01*
X160901358Y-76125183D01*
X161291645Y-75696924D01*
X161461476Y-75286890D01*
X161340155Y-75057000D01*
X160147000Y-75057000D01*
X159893000Y-75057000D01*
X158699845Y-75057000D01*
X158578524Y-75286890D01*
X153841476Y-75286890D01*
X153720155Y-75057000D01*
X152527000Y-75057000D01*
X152273000Y-75057000D01*
X151079845Y-75057000D01*
X150958524Y-75286890D01*
X146007181Y-75286890D01*
X146062470Y-75263989D01*
X146384001Y-74942458D01*
X146558012Y-74522357D01*
X146558012Y-74067643D01*
X146384001Y-73647542D01*
X146062470Y-73326011D01*
X145642369Y-73152000D01*
X145187655Y-73152000D01*
X144767554Y-73326011D01*
X144687565Y-73406000D01*
X143856447Y-73406000D01*
X143970989Y-73291458D01*
X144014916Y-73185407D01*
X144078682Y-73089976D01*
X144101074Y-72977404D01*
X144145000Y-72871357D01*
X144145000Y-72756572D01*
X144150943Y-72726693D01*
X144157480Y-72723985D01*
X144238646Y-72642819D01*
X144334079Y-72579053D01*
X144397845Y-72483620D01*
X144479011Y-72402454D01*
X144522938Y-72296405D01*
X144586704Y-72200972D01*
X144609096Y-72088400D01*
X144653022Y-71982353D01*
X144653022Y-71867568D01*
X144675414Y-71754996D01*
X144653022Y-71642424D01*
X144653022Y-71527639D01*
X144609096Y-71421592D01*
X144586704Y-71309020D01*
X144522938Y-71213587D01*
X144479011Y-71107538D01*
X144397845Y-71026372D01*
X144334079Y-70930939D01*
X144238646Y-70867173D01*
X144157480Y-70786007D01*
X144051431Y-70742080D01*
X143955998Y-70678314D01*
X143843427Y-70655922D01*
X143737379Y-70611996D01*
X140401873Y-70611996D01*
X140102458Y-70312581D01*
X139996405Y-70268652D01*
X139900976Y-70204889D01*
X139788408Y-70182498D01*
X139682357Y-70138570D01*
X139567571Y-70138570D01*
X139455000Y-70116178D01*
X139342429Y-70138570D01*
X139227643Y-70138570D01*
X139121592Y-70182498D01*
X139009024Y-70204889D01*
X138913595Y-70268652D01*
X138807542Y-70312581D01*
X138726372Y-70393751D01*
X138630944Y-70457514D01*
X138567181Y-70552942D01*
X138486011Y-70634112D01*
X138442082Y-70740165D01*
X138378319Y-70835594D01*
X138355928Y-70948162D01*
X138312000Y-71054213D01*
X138312000Y-71168999D01*
X138289608Y-71281570D01*
X138312000Y-71394141D01*
X138312000Y-71508927D01*
X138355928Y-71614978D01*
X138378319Y-71727546D01*
X138442082Y-71822975D01*
X138486011Y-71929028D01*
X138546768Y-71989785D01*
X138486011Y-72050542D01*
X138442084Y-72156591D01*
X138378318Y-72252024D01*
X138355926Y-72364596D01*
X138312000Y-72470643D01*
X138312000Y-72585428D01*
X138289608Y-72698000D01*
X138312000Y-72810572D01*
X138312000Y-72925357D01*
X138355926Y-73031404D01*
X138378318Y-73143976D01*
X138442084Y-73239409D01*
X138486011Y-73345458D01*
X138546553Y-73406000D01*
X137799146Y-73406000D01*
X137387357Y-73235432D01*
X136932643Y-73235432D01*
X136512542Y-73409443D01*
X136191011Y-73730974D01*
X136017000Y-74151075D01*
X125725533Y-74151075D01*
X125530625Y-73859375D01*
X125232239Y-73660000D01*
X125530625Y-73460625D01*
X125858839Y-72969418D01*
X125974092Y-72390000D01*
X125858839Y-71810582D01*
X125530625Y-71319375D01*
X125232239Y-71120000D01*
X125530625Y-70920625D01*
X125858839Y-70429418D01*
X125974092Y-69850000D01*
X150885908Y-69850000D01*
X151001161Y-70429418D01*
X151329375Y-70920625D01*
X151627761Y-71120000D01*
X151329375Y-71319375D01*
X151001161Y-71810582D01*
X150885908Y-72390000D01*
X151001161Y-72969418D01*
X151329375Y-73460625D01*
X151648478Y-73673843D01*
X151518642Y-73734817D01*
X151128355Y-74163076D01*
X150958524Y-74573110D01*
X151079845Y-74803000D01*
X152273000Y-74803000D01*
X152273000Y-74783000D01*
X152527000Y-74783000D01*
X152527000Y-74803000D01*
X153720155Y-74803000D01*
X153841476Y-74573110D01*
X153671645Y-74163076D01*
X153281358Y-73734817D01*
X153151522Y-73673843D01*
X153470625Y-73460625D01*
X153798839Y-72969418D01*
X153914092Y-72390000D01*
X153798839Y-71810582D01*
X153470625Y-71319375D01*
X153172239Y-71120000D01*
X153470625Y-70920625D01*
X153798839Y-70429418D01*
X153914092Y-69850000D01*
X158505908Y-69850000D01*
X158621161Y-70429418D01*
X158949375Y-70920625D01*
X159247761Y-71120000D01*
X158949375Y-71319375D01*
X158621161Y-71810582D01*
X158505908Y-72390000D01*
X158621161Y-72969418D01*
X158949375Y-73460625D01*
X159268478Y-73673843D01*
X159138642Y-73734817D01*
X158748355Y-74163076D01*
X158578524Y-74573110D01*
X158699845Y-74803000D01*
X159893000Y-74803000D01*
X159893000Y-74783000D01*
X160147000Y-74783000D01*
X160147000Y-74803000D01*
X161340155Y-74803000D01*
X161461476Y-74573110D01*
X161291645Y-74163076D01*
X160901358Y-73734817D01*
X160771522Y-73673843D01*
X161090625Y-73460625D01*
X161418839Y-72969418D01*
X161534092Y-72390000D01*
X161418839Y-71810582D01*
X161090625Y-71319375D01*
X160792239Y-71120000D01*
X161090625Y-70920625D01*
X161418839Y-70429418D01*
X161534092Y-69850000D01*
X161418839Y-69270582D01*
X161090625Y-68779375D01*
X161072381Y-68767184D01*
X161117765Y-68758157D01*
X161327809Y-68617809D01*
X161468157Y-68407765D01*
X161509682Y-68199000D01*
X163102553Y-68199000D01*
X163182542Y-68278989D01*
X163602643Y-68453000D01*
X164057357Y-68453000D01*
X164477458Y-68278989D01*
X164798989Y-67957458D01*
X164973000Y-67537357D01*
X164973000Y-67082643D01*
X164798989Y-66662542D01*
X164477458Y-66341011D01*
X164057357Y-66167000D01*
X163602643Y-66167000D01*
X163182542Y-66341011D01*
X163102553Y-66421000D01*
X161509682Y-66421000D01*
X161468157Y-66212235D01*
X161327809Y-66002191D01*
X161117765Y-65861843D01*
X160870000Y-65812560D01*
X159170000Y-65812560D01*
X158922235Y-65861843D01*
X158712191Y-66002191D01*
X158571843Y-66212235D01*
X158522560Y-66460000D01*
X158522560Y-68160000D01*
X158571843Y-68407765D01*
X158712191Y-68617809D01*
X158922235Y-68758157D01*
X158967619Y-68767184D01*
X158949375Y-68779375D01*
X158621161Y-69270582D01*
X158505908Y-69850000D01*
X153914092Y-69850000D01*
X153798839Y-69270582D01*
X153470625Y-68779375D01*
X153452381Y-68767184D01*
X153497765Y-68758157D01*
X153707809Y-68617809D01*
X153848157Y-68407765D01*
X153897440Y-68160000D01*
X153897440Y-66460000D01*
X153848157Y-66212235D01*
X153707809Y-66002191D01*
X153497765Y-65861843D01*
X153250000Y-65812560D01*
X151550000Y-65812560D01*
X151302235Y-65861843D01*
X151092191Y-66002191D01*
X150951843Y-66212235D01*
X150902560Y-66460000D01*
X150902560Y-68160000D01*
X150951843Y-68407765D01*
X151092191Y-68617809D01*
X151302235Y-68758157D01*
X151347619Y-68767184D01*
X151329375Y-68779375D01*
X151001161Y-69270582D01*
X150885908Y-69850000D01*
X125974092Y-69850000D01*
X125858839Y-69270582D01*
X125530625Y-68779375D01*
X125211522Y-68566157D01*
X125341358Y-68505183D01*
X125731645Y-68076924D01*
X125901476Y-67666890D01*
X125780155Y-67437000D01*
X124587000Y-67437000D01*
X124587000Y-67457000D01*
X124333000Y-67457000D01*
X124333000Y-67437000D01*
X123139845Y-67437000D01*
X123018524Y-67666890D01*
X123188355Y-68076924D01*
X123578642Y-68505183D01*
X123708478Y-68566157D01*
X123389375Y-68779375D01*
X123061161Y-69270582D01*
X122945908Y-69850000D01*
X121360000Y-69850000D01*
X121360000Y-66953110D01*
X123018524Y-66953110D01*
X123139845Y-67183000D01*
X124333000Y-67183000D01*
X124333000Y-65989181D01*
X124587000Y-65989181D01*
X124587000Y-67183000D01*
X125780155Y-67183000D01*
X125901476Y-66953110D01*
X125731645Y-66543076D01*
X125341358Y-66114817D01*
X124816892Y-65868514D01*
X124587000Y-65989181D01*
X124333000Y-65989181D01*
X124103108Y-65868514D01*
X123578642Y-66114817D01*
X123188355Y-66543076D01*
X123018524Y-66953110D01*
X121360000Y-66953110D01*
X121360000Y-59690000D01*
X121421908Y-59690000D01*
X121537161Y-60269418D01*
X121865375Y-60760625D01*
X122356582Y-61088839D01*
X122789744Y-61175000D01*
X123082256Y-61175000D01*
X123486259Y-61094639D01*
X123389375Y-61159375D01*
X123061161Y-61650582D01*
X122945908Y-62230000D01*
X123061161Y-62809418D01*
X123389375Y-63300625D01*
X123880582Y-63628839D01*
X124313744Y-63715000D01*
X124606256Y-63715000D01*
X125039418Y-63628839D01*
X125530625Y-63300625D01*
X125743843Y-62981522D01*
X125804817Y-63111358D01*
X126233076Y-63501645D01*
X126643110Y-63671476D01*
X126873000Y-63550155D01*
X126873000Y-62357000D01*
X126853000Y-62357000D01*
X126853000Y-62103000D01*
X126873000Y-62103000D01*
X126873000Y-62083000D01*
X127127000Y-62083000D01*
X127127000Y-62103000D01*
X127147000Y-62103000D01*
X127147000Y-62357000D01*
X127127000Y-62357000D01*
X127127000Y-63550155D01*
X127356890Y-63671476D01*
X127766924Y-63501645D01*
X128195183Y-63111358D01*
X128256157Y-62981522D01*
X128469375Y-63300625D01*
X128960582Y-63628839D01*
X129393744Y-63715000D01*
X129686256Y-63715000D01*
X130119418Y-63628839D01*
X130610625Y-63300625D01*
X130810000Y-63002239D01*
X131009375Y-63300625D01*
X131500582Y-63628839D01*
X131933744Y-63715000D01*
X132226256Y-63715000D01*
X132659418Y-63628839D01*
X133150625Y-63300625D01*
X133350000Y-63002239D01*
X133549375Y-63300625D01*
X134040582Y-63628839D01*
X134473744Y-63715000D01*
X134766256Y-63715000D01*
X135199418Y-63628839D01*
X135690625Y-63300625D01*
X135890000Y-63002239D01*
X136089375Y-63300625D01*
X136580582Y-63628839D01*
X137013744Y-63715000D01*
X137306256Y-63715000D01*
X137739418Y-63628839D01*
X138230625Y-63300625D01*
X138430000Y-63002239D01*
X138629375Y-63300625D01*
X139120582Y-63628839D01*
X139553744Y-63715000D01*
X139846256Y-63715000D01*
X140279418Y-63628839D01*
X140770625Y-63300625D01*
X140970000Y-63002239D01*
X141169375Y-63300625D01*
X141660582Y-63628839D01*
X142093744Y-63715000D01*
X142386256Y-63715000D01*
X142819418Y-63628839D01*
X143310625Y-63300625D01*
X143510000Y-63002239D01*
X143709375Y-63300625D01*
X144200582Y-63628839D01*
X144633744Y-63715000D01*
X144926256Y-63715000D01*
X145359418Y-63628839D01*
X145850625Y-63300625D01*
X146050000Y-63002239D01*
X146249375Y-63300625D01*
X146740582Y-63628839D01*
X147173744Y-63715000D01*
X147466256Y-63715000D01*
X147899418Y-63628839D01*
X148390625Y-63300625D01*
X148590000Y-63002239D01*
X148789375Y-63300625D01*
X149280582Y-63628839D01*
X149713744Y-63715000D01*
X150006256Y-63715000D01*
X150439418Y-63628839D01*
X150930625Y-63300625D01*
X151130000Y-63002239D01*
X151329375Y-63300625D01*
X151820582Y-63628839D01*
X152253744Y-63715000D01*
X152546256Y-63715000D01*
X152979418Y-63628839D01*
X153470625Y-63300625D01*
X153670000Y-63002239D01*
X153869375Y-63300625D01*
X154360582Y-63628839D01*
X154793744Y-63715000D01*
X155086256Y-63715000D01*
X155519418Y-63628839D01*
X156010625Y-63300625D01*
X156210000Y-63002239D01*
X156409375Y-63300625D01*
X156900582Y-63628839D01*
X157333744Y-63715000D01*
X157626256Y-63715000D01*
X158059418Y-63628839D01*
X158550625Y-63300625D01*
X158750000Y-63002239D01*
X158949375Y-63300625D01*
X159440582Y-63628839D01*
X159873744Y-63715000D01*
X160166256Y-63715000D01*
X160599418Y-63628839D01*
X161090625Y-63300625D01*
X161290000Y-63002239D01*
X161489375Y-63300625D01*
X161980582Y-63628839D01*
X162413744Y-63715000D01*
X162706256Y-63715000D01*
X163139418Y-63628839D01*
X163630625Y-63300625D01*
X163958839Y-62809418D01*
X164074092Y-62230000D01*
X163958839Y-61650582D01*
X163630625Y-61159375D01*
X163332239Y-60960000D01*
X163630625Y-60760625D01*
X163958839Y-60269418D01*
X164074092Y-59690000D01*
X163958839Y-59110582D01*
X163630625Y-58619375D01*
X163139418Y-58291161D01*
X162706256Y-58205000D01*
X162413744Y-58205000D01*
X161980582Y-58291161D01*
X161489375Y-58619375D01*
X161290000Y-58917761D01*
X161090625Y-58619375D01*
X160599418Y-58291161D01*
X160166256Y-58205000D01*
X159873744Y-58205000D01*
X159440582Y-58291161D01*
X158949375Y-58619375D01*
X158750000Y-58917761D01*
X158550625Y-58619375D01*
X158059418Y-58291161D01*
X157626256Y-58205000D01*
X157333744Y-58205000D01*
X156900582Y-58291161D01*
X156409375Y-58619375D01*
X156210000Y-58917761D01*
X156010625Y-58619375D01*
X155519418Y-58291161D01*
X155086256Y-58205000D01*
X154793744Y-58205000D01*
X154360582Y-58291161D01*
X153869375Y-58619375D01*
X153670000Y-58917761D01*
X153470625Y-58619375D01*
X152979418Y-58291161D01*
X152546256Y-58205000D01*
X152253744Y-58205000D01*
X151820582Y-58291161D01*
X151329375Y-58619375D01*
X151130000Y-58917761D01*
X150930625Y-58619375D01*
X150439418Y-58291161D01*
X150006256Y-58205000D01*
X149713744Y-58205000D01*
X149280582Y-58291161D01*
X148789375Y-58619375D01*
X148590000Y-58917761D01*
X148390625Y-58619375D01*
X147899418Y-58291161D01*
X147466256Y-58205000D01*
X147173744Y-58205000D01*
X146740582Y-58291161D01*
X146249375Y-58619375D01*
X146050000Y-58917761D01*
X145850625Y-58619375D01*
X145359418Y-58291161D01*
X144926256Y-58205000D01*
X144633744Y-58205000D01*
X144200582Y-58291161D01*
X143709375Y-58619375D01*
X143381161Y-59110582D01*
X143265908Y-59690000D01*
X143381161Y-60269418D01*
X143709375Y-60760625D01*
X144007761Y-60960000D01*
X143709375Y-61159375D01*
X143510000Y-61457761D01*
X143310625Y-61159375D01*
X142819418Y-60831161D01*
X142386256Y-60745000D01*
X142093744Y-60745000D01*
X141689741Y-60825361D01*
X141786625Y-60760625D01*
X142114839Y-60269418D01*
X142230092Y-59690000D01*
X142114839Y-59110582D01*
X141786625Y-58619375D01*
X141295418Y-58291161D01*
X140862256Y-58205000D01*
X140569744Y-58205000D01*
X140136582Y-58291161D01*
X139645375Y-58619375D01*
X139446000Y-58917761D01*
X139246625Y-58619375D01*
X138755418Y-58291161D01*
X138322256Y-58205000D01*
X138029744Y-58205000D01*
X137596582Y-58291161D01*
X137105375Y-58619375D01*
X136906000Y-58917761D01*
X136706625Y-58619375D01*
X136215418Y-58291161D01*
X135782256Y-58205000D01*
X135489744Y-58205000D01*
X135056582Y-58291161D01*
X134565375Y-58619375D01*
X134366000Y-58917761D01*
X134166625Y-58619375D01*
X133675418Y-58291161D01*
X133242256Y-58205000D01*
X132949744Y-58205000D01*
X132516582Y-58291161D01*
X132025375Y-58619375D01*
X131826000Y-58917761D01*
X131626625Y-58619375D01*
X131135418Y-58291161D01*
X130702256Y-58205000D01*
X130409744Y-58205000D01*
X129976582Y-58291161D01*
X129485375Y-58619375D01*
X129286000Y-58917761D01*
X129086625Y-58619375D01*
X128595418Y-58291161D01*
X128162256Y-58205000D01*
X127869744Y-58205000D01*
X127436582Y-58291161D01*
X126945375Y-58619375D01*
X126732157Y-58938478D01*
X126671183Y-58808642D01*
X126242924Y-58418355D01*
X125832890Y-58248524D01*
X125603000Y-58369845D01*
X125603000Y-59563000D01*
X125623000Y-59563000D01*
X125623000Y-59817000D01*
X125603000Y-59817000D01*
X125603000Y-59837000D01*
X125349000Y-59837000D01*
X125349000Y-59817000D01*
X125329000Y-59817000D01*
X125329000Y-59563000D01*
X125349000Y-59563000D01*
X125349000Y-58369845D01*
X125119110Y-58248524D01*
X124709076Y-58418355D01*
X124280817Y-58808642D01*
X124219843Y-58938478D01*
X124006625Y-58619375D01*
X123515418Y-58291161D01*
X123082256Y-58205000D01*
X122789744Y-58205000D01*
X122356582Y-58291161D01*
X121865375Y-58619375D01*
X121537161Y-59110582D01*
X121421908Y-59690000D01*
X121360000Y-59690000D01*
X121360000Y-58482119D01*
X121404065Y-58232213D01*
X121499405Y-58067080D01*
X121645477Y-57944512D01*
X121854465Y-57868445D01*
X121950996Y-57860000D01*
X166307881Y-57860000D01*
X166557787Y-57904065D01*
X166557787Y-57904065D01*
G37*
X166557787Y-57904065D02*
X166722920Y-57999405D01*
X166845488Y-58145477D01*
X166921555Y-58354465D01*
X166930001Y-58451007D01*
X166930000Y-109157881D01*
X166885935Y-109407787D01*
X166790596Y-109572919D01*
X166644524Y-109695488D01*
X166435532Y-109771555D01*
X166339004Y-109780000D01*
X121982119Y-109780000D01*
X121732213Y-109735935D01*
X121567081Y-109640596D01*
X121444512Y-109494524D01*
X121368445Y-109285532D01*
X121360000Y-109189004D01*
X121360000Y-105410000D01*
X130565908Y-105410000D01*
X130681161Y-105989418D01*
X131009375Y-106480625D01*
X131307761Y-106680000D01*
X131009375Y-106879375D01*
X130681161Y-107370582D01*
X130565908Y-107950000D01*
X130681161Y-108529418D01*
X131009375Y-109020625D01*
X131500582Y-109348839D01*
X131933744Y-109435000D01*
X132226256Y-109435000D01*
X132659418Y-109348839D01*
X133150625Y-109020625D01*
X133350000Y-108722239D01*
X133549375Y-109020625D01*
X134040582Y-109348839D01*
X134473744Y-109435000D01*
X134766256Y-109435000D01*
X135199418Y-109348839D01*
X135690625Y-109020625D01*
X135890000Y-108722239D01*
X136089375Y-109020625D01*
X136580582Y-109348839D01*
X137013744Y-109435000D01*
X137306256Y-109435000D01*
X137739418Y-109348839D01*
X138230625Y-109020625D01*
X138443843Y-108701522D01*
X138504817Y-108831358D01*
X138933076Y-109221645D01*
X139343110Y-109391476D01*
X139573000Y-109270155D01*
X139573000Y-108077000D01*
X139827000Y-108077000D01*
X139827000Y-109270155D01*
X140056890Y-109391476D01*
X140466924Y-109221645D01*
X140895183Y-108831358D01*
X140970000Y-108672046D01*
X141044817Y-108831358D01*
X141473076Y-109221645D01*
X141883110Y-109391476D01*
X142113000Y-109270155D01*
X142113000Y-108077000D01*
X139827000Y-108077000D01*
X139573000Y-108077000D01*
X139553000Y-108077000D01*
X139553000Y-107823000D01*
X139573000Y-107823000D01*
X139573000Y-105537000D01*
X139827000Y-105537000D01*
X139827000Y-107823000D01*
X142113000Y-107823000D01*
X142113000Y-105537000D01*
X139827000Y-105537000D01*
X139573000Y-105537000D01*
X139553000Y-105537000D01*
X139553000Y-105283000D01*
X139573000Y-105283000D01*
X139573000Y-104089845D01*
X139827000Y-104089845D01*
X139827000Y-105283000D01*
X142113000Y-105283000D01*
X142113000Y-104089845D01*
X142367000Y-104089845D01*
X142367000Y-105283000D01*
X142387000Y-105283000D01*
X142387000Y-105537000D01*
X142367000Y-105537000D01*
X142367000Y-107823000D01*
X142387000Y-107823000D01*
X142387000Y-108077000D01*
X142367000Y-108077000D01*
X142367000Y-109270155D01*
X142596890Y-109391476D01*
X143006924Y-109221645D01*
X143435183Y-108831358D01*
X143496157Y-108701522D01*
X143709375Y-109020625D01*
X144200582Y-109348839D01*
X144633744Y-109435000D01*
X144926256Y-109435000D01*
X145359418Y-109348839D01*
X145850625Y-109020625D01*
X146178839Y-108529418D01*
X146294092Y-107950000D01*
X146178839Y-107370582D01*
X145850625Y-106879375D01*
X145552239Y-106680000D01*
X145850625Y-106480625D01*
X146178839Y-105989418D01*
X146294092Y-105410000D01*
X148345908Y-105410000D01*
X148461161Y-105989418D01*
X148789375Y-106480625D01*
X149087761Y-106680000D01*
X148789375Y-106879375D01*
X148461161Y-107370582D01*
X148345908Y-107950000D01*
X148461161Y-108529418D01*
X148789375Y-109020625D01*
X149280582Y-109348839D01*
X149713744Y-109435000D01*
X150006256Y-109435000D01*
X150439418Y-109348839D01*
X150930625Y-109020625D01*
X151130000Y-108722239D01*
X151329375Y-109020625D01*
X151820582Y-109348839D01*
X152253744Y-109435000D01*
X152546256Y-109435000D01*
X152979418Y-109348839D01*
X153470625Y-109020625D01*
X153670000Y-108722239D01*
X153869375Y-109020625D01*
X154360582Y-109348839D01*
X154793744Y-109435000D01*
X155086256Y-109435000D01*
X155519418Y-109348839D01*
X156010625Y-109020625D01*
X156210000Y-108722239D01*
X156409375Y-109020625D01*
X156900582Y-109348839D01*
X157333744Y-109435000D01*
X157626256Y-109435000D01*
X158059418Y-109348839D01*
X158550625Y-109020625D01*
X158750000Y-108722239D01*
X158949375Y-109020625D01*
X159440582Y-109348839D01*
X159873744Y-109435000D01*
X160166256Y-109435000D01*
X160599418Y-109348839D01*
X161090625Y-109020625D01*
X161290000Y-108722239D01*
X161489375Y-109020625D01*
X161980582Y-109348839D01*
X162413744Y-109435000D01*
X162706256Y-109435000D01*
X163139418Y-109348839D01*
X163630625Y-109020625D01*
X163958839Y-108529418D01*
X164074092Y-107950000D01*
X163958839Y-107370582D01*
X163630625Y-106879375D01*
X163332239Y-106680000D01*
X163630625Y-106480625D01*
X163958839Y-105989418D01*
X164074092Y-105410000D01*
X163958839Y-104830582D01*
X163630625Y-104339375D01*
X163139418Y-104011161D01*
X162706256Y-103925000D01*
X162413744Y-103925000D01*
X161980582Y-104011161D01*
X161489375Y-104339375D01*
X161290000Y-104637761D01*
X161090625Y-104339375D01*
X160599418Y-104011161D01*
X160166256Y-103925000D01*
X159873744Y-103925000D01*
X159440582Y-104011161D01*
X158949375Y-104339375D01*
X158750000Y-104637761D01*
X158550625Y-104339375D01*
X158059418Y-104011161D01*
X157626256Y-103925000D01*
X157333744Y-103925000D01*
X156900582Y-104011161D01*
X156409375Y-104339375D01*
X156210000Y-104637761D01*
X156010625Y-104339375D01*
X155519418Y-104011161D01*
X155086256Y-103925000D01*
X154793744Y-103925000D01*
X154360582Y-104011161D01*
X153869375Y-104339375D01*
X153670000Y-104637761D01*
X153470625Y-104339375D01*
X152979418Y-104011161D01*
X152546256Y-103925000D01*
X152253744Y-103925000D01*
X151820582Y-104011161D01*
X151329375Y-104339375D01*
X151130000Y-104637761D01*
X150930625Y-104339375D01*
X150439418Y-104011161D01*
X150006256Y-103925000D01*
X149713744Y-103925000D01*
X149280582Y-104011161D01*
X148789375Y-104339375D01*
X148461161Y-104830582D01*
X148345908Y-105410000D01*
X146294092Y-105410000D01*
X146178839Y-104830582D01*
X145850625Y-104339375D01*
X145359418Y-104011161D01*
X144926256Y-103925000D01*
X144633744Y-103925000D01*
X144200582Y-104011161D01*
X143709375Y-104339375D01*
X143496157Y-104658478D01*
X143435183Y-104528642D01*
X143006924Y-104138355D01*
X142596890Y-103968524D01*
X142367000Y-104089845D01*
X142113000Y-104089845D01*
X141883110Y-103968524D01*
X141473076Y-104138355D01*
X141044817Y-104528642D01*
X140970000Y-104687954D01*
X140895183Y-104528642D01*
X140466924Y-104138355D01*
X140056890Y-103968524D01*
X139827000Y-104089845D01*
X139573000Y-104089845D01*
X139343110Y-103968524D01*
X138933076Y-104138355D01*
X138504817Y-104528642D01*
X138443843Y-104658478D01*
X138230625Y-104339375D01*
X137739418Y-104011161D01*
X137306256Y-103925000D01*
X137013744Y-103925000D01*
X136580582Y-104011161D01*
X136089375Y-104339375D01*
X135890000Y-104637761D01*
X135690625Y-104339375D01*
X135199418Y-104011161D01*
X134766256Y-103925000D01*
X134473744Y-103925000D01*
X134040582Y-104011161D01*
X133549375Y-104339375D01*
X133350000Y-104637761D01*
X133150625Y-104339375D01*
X132659418Y-104011161D01*
X132226256Y-103925000D01*
X131933744Y-103925000D01*
X131500582Y-104011161D01*
X131009375Y-104339375D01*
X130681161Y-104830582D01*
X130565908Y-105410000D01*
X121360000Y-105410000D01*
X121360000Y-97790000D01*
X122945908Y-97790000D01*
X123061161Y-98369418D01*
X123389375Y-98860625D01*
X123687761Y-99060000D01*
X123389375Y-99259375D01*
X123061161Y-99750582D01*
X122945908Y-100330000D01*
X123061161Y-100909418D01*
X123389375Y-101400625D01*
X123880582Y-101728839D01*
X124313744Y-101815000D01*
X124606256Y-101815000D01*
X125039418Y-101728839D01*
X125232239Y-101600000D01*
X133454608Y-101600000D01*
X133477000Y-101712572D01*
X133477000Y-101827357D01*
X133520926Y-101933404D01*
X133543318Y-102045976D01*
X133607084Y-102141409D01*
X133651011Y-102247458D01*
X133732177Y-102328624D01*
X133795943Y-102424057D01*
X133891376Y-102487823D01*
X133972542Y-102568989D01*
X134078591Y-102612916D01*
X134174024Y-102676682D01*
X134286595Y-102699074D01*
X134392643Y-102743000D01*
X139927357Y-102743000D01*
X140033405Y-102699074D01*
X140145976Y-102676682D01*
X140241409Y-102612916D01*
X140347458Y-102568989D01*
X140428624Y-102487823D01*
X140524057Y-102424057D01*
X140587823Y-102328624D01*
X140668989Y-102247458D01*
X140712916Y-102141409D01*
X140776682Y-102045976D01*
X140799074Y-101933404D01*
X140843000Y-101827357D01*
X140843000Y-101712572D01*
X140865392Y-101600000D01*
X140843000Y-101487428D01*
X140843000Y-101372643D01*
X140799074Y-101266596D01*
X140776682Y-101154024D01*
X140712916Y-101058591D01*
X140668989Y-100952542D01*
X140587823Y-100871376D01*
X140524057Y-100775943D01*
X140428624Y-100712177D01*
X140403337Y-100686890D01*
X158578524Y-100686890D01*
X158748355Y-101096924D01*
X159138642Y-101525183D01*
X159663108Y-101771486D01*
X159893000Y-101650819D01*
X159893000Y-100457000D01*
X160147000Y-100457000D01*
X160147000Y-101650819D01*
X160376892Y-101771486D01*
X160901358Y-101525183D01*
X161291645Y-101096924D01*
X161461476Y-100686890D01*
X161340155Y-100457000D01*
X160147000Y-100457000D01*
X159893000Y-100457000D01*
X158699845Y-100457000D01*
X158578524Y-100686890D01*
X140403337Y-100686890D01*
X140347458Y-100631011D01*
X140241409Y-100587084D01*
X140145976Y-100523318D01*
X140033405Y-100500926D01*
X139927357Y-100457000D01*
X134392643Y-100457000D01*
X134286595Y-100500926D01*
X134174024Y-100523318D01*
X134078591Y-100587084D01*
X133972542Y-100631011D01*
X133891376Y-100712177D01*
X133795943Y-100775943D01*
X133732177Y-100871376D01*
X133651011Y-100952542D01*
X133607084Y-101058591D01*
X133543318Y-101154024D01*
X133520926Y-101266596D01*
X133477000Y-101372643D01*
X133477000Y-101487428D01*
X133454608Y-101600000D01*
X125232239Y-101600000D01*
X125530625Y-101400625D01*
X125858839Y-100909418D01*
X125974092Y-100330000D01*
X125858839Y-99750582D01*
X125530625Y-99259375D01*
X125232239Y-99060000D01*
X125530625Y-98860625D01*
X125858839Y-98369418D01*
X125974092Y-97790000D01*
X125858839Y-97210582D01*
X125678042Y-96940000D01*
X158522560Y-96940000D01*
X158522560Y-98640000D01*
X158571843Y-98887765D01*
X158712191Y-99097809D01*
X158922235Y-99238157D01*
X159025708Y-99258739D01*
X158748355Y-99563076D01*
X158578524Y-99973110D01*
X158699845Y-100203000D01*
X159893000Y-100203000D01*
X159893000Y-100183000D01*
X160147000Y-100183000D01*
X160147000Y-100203000D01*
X161340155Y-100203000D01*
X161461476Y-99973110D01*
X161291645Y-99563076D01*
X161014292Y-99258739D01*
X161117765Y-99238157D01*
X161327809Y-99097809D01*
X161468157Y-98887765D01*
X161517440Y-98640000D01*
X161517440Y-96940000D01*
X161468157Y-96692235D01*
X161327809Y-96482191D01*
X161117765Y-96341843D01*
X160870000Y-96292560D01*
X159170000Y-96292560D01*
X158922235Y-96341843D01*
X158712191Y-96482191D01*
X158571843Y-96692235D01*
X158522560Y-96940000D01*
X125678042Y-96940000D01*
X125530625Y-96719375D01*
X125211522Y-96506157D01*
X125341358Y-96445183D01*
X125731645Y-96016924D01*
X125901476Y-95606890D01*
X125780155Y-95377000D01*
X124587000Y-95377000D01*
X124587000Y-95397000D01*
X124333000Y-95397000D01*
X124333000Y-95377000D01*
X123139845Y-95377000D01*
X123018524Y-95606890D01*
X123188355Y-96016924D01*
X123578642Y-96445183D01*
X123708478Y-96506157D01*
X123389375Y-96719375D01*
X123061161Y-97210582D01*
X122945908Y-97790000D01*
X121360000Y-97790000D01*
X121360000Y-90170000D01*
X122945908Y-90170000D01*
X123061161Y-90749418D01*
X123389375Y-91240625D01*
X123687761Y-91440000D01*
X123389375Y-91639375D01*
X123061161Y-92130582D01*
X122945908Y-92710000D01*
X123061161Y-93289418D01*
X123389375Y-93780625D01*
X123708478Y-93993843D01*
X123578642Y-94054817D01*
X123188355Y-94483076D01*
X123018524Y-94893110D01*
X123139845Y-95123000D01*
X124333000Y-95123000D01*
X124333000Y-95103000D01*
X124587000Y-95103000D01*
X124587000Y-95123000D01*
X125780155Y-95123000D01*
X125901476Y-94893110D01*
X125731645Y-94483076D01*
X125341358Y-94054817D01*
X125211522Y-93993843D01*
X125530625Y-93780625D01*
X125858839Y-93289418D01*
X125903102Y-93066890D01*
X158578524Y-93066890D01*
X158748355Y-93476924D01*
X159138642Y-93905183D01*
X159663108Y-94151486D01*
X159893000Y-94030819D01*
X159893000Y-92837000D01*
X160147000Y-92837000D01*
X160147000Y-94030819D01*
X160376892Y-94151486D01*
X160901358Y-93905183D01*
X161291645Y-93476924D01*
X161461476Y-93066890D01*
X161340155Y-92837000D01*
X160147000Y-92837000D01*
X159893000Y-92837000D01*
X158699845Y-92837000D01*
X158578524Y-93066890D01*
X125903102Y-93066890D01*
X125974092Y-92710000D01*
X125858839Y-92130582D01*
X125530625Y-91639375D01*
X125232239Y-91440000D01*
X125530625Y-91240625D01*
X125858839Y-90749418D01*
X125974092Y-90170000D01*
X125858839Y-89590582D01*
X125669786Y-89307643D01*
X128397000Y-89307643D01*
X128397000Y-89762357D01*
X128571011Y-90182458D01*
X128892542Y-90503989D01*
X129312643Y-90678000D01*
X129767357Y-90678000D01*
X130187458Y-90503989D01*
X130508989Y-90182458D01*
X130683000Y-89762357D01*
X130683000Y-89649235D01*
X131012235Y-89320000D01*
X158522560Y-89320000D01*
X158522560Y-91020000D01*
X158571843Y-91267765D01*
X158712191Y-91477809D01*
X158922235Y-91618157D01*
X159025708Y-91638739D01*
X158748355Y-91943076D01*
X158578524Y-92353110D01*
X158699845Y-92583000D01*
X159893000Y-92583000D01*
X159893000Y-92563000D01*
X160147000Y-92563000D01*
X160147000Y-92583000D01*
X161340155Y-92583000D01*
X161461476Y-92353110D01*
X161291645Y-91943076D01*
X161014292Y-91638739D01*
X161117765Y-91618157D01*
X161327809Y-91477809D01*
X161468157Y-91267765D01*
X161517440Y-91020000D01*
X161517440Y-89320000D01*
X161468157Y-89072235D01*
X161327809Y-88862191D01*
X161117765Y-88721843D01*
X160870000Y-88672560D01*
X159170000Y-88672560D01*
X158922235Y-88721843D01*
X158712191Y-88862191D01*
X158571843Y-89072235D01*
X158522560Y-89320000D01*
X131012235Y-89320000D01*
X134885345Y-85446890D01*
X158578524Y-85446890D01*
X158748355Y-85856924D01*
X159138642Y-86285183D01*
X159663108Y-86531486D01*
X159893000Y-86410819D01*
X159893000Y-85217000D01*
X160147000Y-85217000D01*
X160147000Y-86410819D01*
X160376892Y-86531486D01*
X160901358Y-86285183D01*
X161291645Y-85856924D01*
X161461476Y-85446890D01*
X161340155Y-85217000D01*
X160147000Y-85217000D01*
X159893000Y-85217000D01*
X158699845Y-85217000D01*
X158578524Y-85446890D01*
X134885345Y-85446890D01*
X136258236Y-84074000D01*
X140242553Y-84074000D01*
X140322542Y-84153989D01*
X140742643Y-84328000D01*
X141197357Y-84328000D01*
X141617458Y-84153989D01*
X141938989Y-83832458D01*
X142113000Y-83412357D01*
X142113000Y-82957643D01*
X141938989Y-82537542D01*
X141617458Y-82216011D01*
X141197357Y-82042000D01*
X140742643Y-82042000D01*
X140322542Y-82216011D01*
X140242553Y-82296000D01*
X135977554Y-82296000D01*
X135889999Y-82278584D01*
X135802444Y-82296000D01*
X135543130Y-82347581D01*
X135249067Y-82544067D01*
X135199471Y-82618293D01*
X129425765Y-88392000D01*
X129312643Y-88392000D01*
X128892542Y-88566011D01*
X128571011Y-88887542D01*
X128397000Y-89307643D01*
X125669786Y-89307643D01*
X125530625Y-89099375D01*
X125039418Y-88771161D01*
X124606256Y-88685000D01*
X124313744Y-88685000D01*
X123880582Y-88771161D01*
X123389375Y-89099375D01*
X123061161Y-89590582D01*
X122945908Y-90170000D01*
X121360000Y-90170000D01*
X121360000Y-69850000D01*
X122945908Y-69850000D01*
X123061161Y-70429418D01*
X123389375Y-70920625D01*
X123687761Y-71120000D01*
X123389375Y-71319375D01*
X123061161Y-71810582D01*
X122945908Y-72390000D01*
X123061161Y-72969418D01*
X123389375Y-73460625D01*
X123687761Y-73660000D01*
X123389375Y-73859375D01*
X123061161Y-74350582D01*
X122945908Y-74930000D01*
X123061161Y-75509418D01*
X123389375Y-76000625D01*
X123687761Y-76200000D01*
X123389375Y-76399375D01*
X123061161Y-76890582D01*
X122945908Y-77470000D01*
X123061161Y-78049418D01*
X123389375Y-78540625D01*
X123687761Y-78740000D01*
X123389375Y-78939375D01*
X123061161Y-79430582D01*
X122945908Y-80010000D01*
X123061161Y-80589418D01*
X123389375Y-81080625D01*
X123687761Y-81280000D01*
X123389375Y-81479375D01*
X123061161Y-81970582D01*
X122945908Y-82550000D01*
X123061161Y-83129418D01*
X123389375Y-83620625D01*
X123687761Y-83820000D01*
X123389375Y-84019375D01*
X123061161Y-84510582D01*
X122945908Y-85090000D01*
X123061161Y-85669418D01*
X123389375Y-86160625D01*
X123880582Y-86488839D01*
X124313744Y-86575000D01*
X124606256Y-86575000D01*
X125039418Y-86488839D01*
X125530625Y-86160625D01*
X125858839Y-85669418D01*
X125974092Y-85090000D01*
X125858839Y-84510582D01*
X125530625Y-84019375D01*
X125232239Y-83820000D01*
X125530625Y-83620625D01*
X125858839Y-83129418D01*
X125974092Y-82550000D01*
X125858839Y-81970582D01*
X125678042Y-81700000D01*
X158522560Y-81700000D01*
X158522560Y-83400000D01*
X158571843Y-83647765D01*
X158712191Y-83857809D01*
X158922235Y-83998157D01*
X159025708Y-84018739D01*
X158748355Y-84323076D01*
X158578524Y-84733110D01*
X158699845Y-84963000D01*
X159893000Y-84963000D01*
X159893000Y-84943000D01*
X160147000Y-84943000D01*
X160147000Y-84963000D01*
X161340155Y-84963000D01*
X161461476Y-84733110D01*
X161291645Y-84323076D01*
X161014292Y-84018739D01*
X161117765Y-83998157D01*
X161327809Y-83857809D01*
X161468157Y-83647765D01*
X161517440Y-83400000D01*
X161517440Y-81700000D01*
X161468157Y-81452235D01*
X161327809Y-81242191D01*
X161117765Y-81101843D01*
X160870000Y-81052560D01*
X159170000Y-81052560D01*
X158922235Y-81101843D01*
X158712191Y-81242191D01*
X158571843Y-81452235D01*
X158522560Y-81700000D01*
X125678042Y-81700000D01*
X125530625Y-81479375D01*
X125232239Y-81280000D01*
X125530625Y-81080625D01*
X125858839Y-80589418D01*
X125974092Y-80010000D01*
X125928869Y-79782643D01*
X153797000Y-79782643D01*
X153797000Y-80237357D01*
X153971011Y-80657458D01*
X154292542Y-80978989D01*
X154712643Y-81153000D01*
X155167357Y-81153000D01*
X155587458Y-80978989D01*
X155908989Y-80657458D01*
X156083000Y-80237357D01*
X156083000Y-79782643D01*
X155908989Y-79362542D01*
X155587458Y-79041011D01*
X155167357Y-78867000D01*
X154712643Y-78867000D01*
X154292542Y-79041011D01*
X153971011Y-79362542D01*
X153797000Y-79782643D01*
X125928869Y-79782643D01*
X125858839Y-79430582D01*
X125530625Y-78939375D01*
X125232239Y-78740000D01*
X125530625Y-78540625D01*
X125858839Y-78049418D01*
X125974092Y-77470000D01*
X125858839Y-76890582D01*
X125530625Y-76399375D01*
X125232239Y-76200000D01*
X125530625Y-76000625D01*
X125858839Y-75509418D01*
X125974092Y-74930000D01*
X125858839Y-74350582D01*
X125725533Y-74151075D01*
X136017000Y-74151075D01*
X136017000Y-74605789D01*
X136191011Y-75025890D01*
X136512542Y-75347421D01*
X136932643Y-75521432D01*
X137387357Y-75521432D01*
X137807458Y-75347421D01*
X137970879Y-75184000D01*
X144687565Y-75184000D01*
X144767554Y-75263989D01*
X145187655Y-75438000D01*
X145642369Y-75438000D01*
X146007181Y-75286890D01*
X150958524Y-75286890D01*
X151128355Y-75696924D01*
X151518642Y-76125183D01*
X152043108Y-76371486D01*
X152273000Y-76250819D01*
X152273000Y-75057000D01*
X152527000Y-75057000D01*
X152527000Y-76250819D01*
X152756892Y-76371486D01*
X153281358Y-76125183D01*
X153671645Y-75696924D01*
X153841476Y-75286890D01*
X158578524Y-75286890D01*
X158748355Y-75696924D01*
X159138642Y-76125183D01*
X159663108Y-76371486D01*
X159893000Y-76250819D01*
X159893000Y-75057000D01*
X160147000Y-75057000D01*
X160147000Y-76250819D01*
X160376892Y-76371486D01*
X160901358Y-76125183D01*
X161291645Y-75696924D01*
X161461476Y-75286890D01*
X161340155Y-75057000D01*
X160147000Y-75057000D01*
X159893000Y-75057000D01*
X158699845Y-75057000D01*
X158578524Y-75286890D01*
X153841476Y-75286890D01*
X153720155Y-75057000D01*
X152527000Y-75057000D01*
X152273000Y-75057000D01*
X151079845Y-75057000D01*
X150958524Y-75286890D01*
X146007181Y-75286890D01*
X146062470Y-75263989D01*
X146384001Y-74942458D01*
X146558012Y-74522357D01*
X146558012Y-74067643D01*
X146384001Y-73647542D01*
X146062470Y-73326011D01*
X145642369Y-73152000D01*
X145187655Y-73152000D01*
X144767554Y-73326011D01*
X144687565Y-73406000D01*
X143856447Y-73406000D01*
X143970989Y-73291458D01*
X144014916Y-73185407D01*
X144078682Y-73089976D01*
X144101074Y-72977404D01*
X144145000Y-72871357D01*
X144145000Y-72756572D01*
X144150943Y-72726693D01*
X144157480Y-72723985D01*
X144238646Y-72642819D01*
X144334079Y-72579053D01*
X144397845Y-72483620D01*
X144479011Y-72402454D01*
X144522938Y-72296405D01*
X144586704Y-72200972D01*
X144609096Y-72088400D01*
X144653022Y-71982353D01*
X144653022Y-71867568D01*
X144675414Y-71754996D01*
X144653022Y-71642424D01*
X144653022Y-71527639D01*
X144609096Y-71421592D01*
X144586704Y-71309020D01*
X144522938Y-71213587D01*
X144479011Y-71107538D01*
X144397845Y-71026372D01*
X144334079Y-70930939D01*
X144238646Y-70867173D01*
X144157480Y-70786007D01*
X144051431Y-70742080D01*
X143955998Y-70678314D01*
X143843427Y-70655922D01*
X143737379Y-70611996D01*
X140401873Y-70611996D01*
X140102458Y-70312581D01*
X139996405Y-70268652D01*
X139900976Y-70204889D01*
X139788408Y-70182498D01*
X139682357Y-70138570D01*
X139567571Y-70138570D01*
X139455000Y-70116178D01*
X139342429Y-70138570D01*
X139227643Y-70138570D01*
X139121592Y-70182498D01*
X139009024Y-70204889D01*
X138913595Y-70268652D01*
X138807542Y-70312581D01*
X138726372Y-70393751D01*
X138630944Y-70457514D01*
X138567181Y-70552942D01*
X138486011Y-70634112D01*
X138442082Y-70740165D01*
X138378319Y-70835594D01*
X138355928Y-70948162D01*
X138312000Y-71054213D01*
X138312000Y-71168999D01*
X138289608Y-71281570D01*
X138312000Y-71394141D01*
X138312000Y-71508927D01*
X138355928Y-71614978D01*
X138378319Y-71727546D01*
X138442082Y-71822975D01*
X138486011Y-71929028D01*
X138546768Y-71989785D01*
X138486011Y-72050542D01*
X138442084Y-72156591D01*
X138378318Y-72252024D01*
X138355926Y-72364596D01*
X138312000Y-72470643D01*
X138312000Y-72585428D01*
X138289608Y-72698000D01*
X138312000Y-72810572D01*
X138312000Y-72925357D01*
X138355926Y-73031404D01*
X138378318Y-73143976D01*
X138442084Y-73239409D01*
X138486011Y-73345458D01*
X138546553Y-73406000D01*
X137799146Y-73406000D01*
X137387357Y-73235432D01*
X136932643Y-73235432D01*
X136512542Y-73409443D01*
X136191011Y-73730974D01*
X136017000Y-74151075D01*
X125725533Y-74151075D01*
X125530625Y-73859375D01*
X125232239Y-73660000D01*
X125530625Y-73460625D01*
X125858839Y-72969418D01*
X125974092Y-72390000D01*
X125858839Y-71810582D01*
X125530625Y-71319375D01*
X125232239Y-71120000D01*
X125530625Y-70920625D01*
X125858839Y-70429418D01*
X125974092Y-69850000D01*
X150885908Y-69850000D01*
X151001161Y-70429418D01*
X151329375Y-70920625D01*
X151627761Y-71120000D01*
X151329375Y-71319375D01*
X151001161Y-71810582D01*
X150885908Y-72390000D01*
X151001161Y-72969418D01*
X151329375Y-73460625D01*
X151648478Y-73673843D01*
X151518642Y-73734817D01*
X151128355Y-74163076D01*
X150958524Y-74573110D01*
X151079845Y-74803000D01*
X152273000Y-74803000D01*
X152273000Y-74783000D01*
X152527000Y-74783000D01*
X152527000Y-74803000D01*
X153720155Y-74803000D01*
X153841476Y-74573110D01*
X153671645Y-74163076D01*
X153281358Y-73734817D01*
X153151522Y-73673843D01*
X153470625Y-73460625D01*
X153798839Y-72969418D01*
X153914092Y-72390000D01*
X153798839Y-71810582D01*
X153470625Y-71319375D01*
X153172239Y-71120000D01*
X153470625Y-70920625D01*
X153798839Y-70429418D01*
X153914092Y-69850000D01*
X158505908Y-69850000D01*
X158621161Y-70429418D01*
X158949375Y-70920625D01*
X159247761Y-71120000D01*
X158949375Y-71319375D01*
X158621161Y-71810582D01*
X158505908Y-72390000D01*
X158621161Y-72969418D01*
X158949375Y-73460625D01*
X159268478Y-73673843D01*
X159138642Y-73734817D01*
X158748355Y-74163076D01*
X158578524Y-74573110D01*
X158699845Y-74803000D01*
X159893000Y-74803000D01*
X159893000Y-74783000D01*
X160147000Y-74783000D01*
X160147000Y-74803000D01*
X161340155Y-74803000D01*
X161461476Y-74573110D01*
X161291645Y-74163076D01*
X160901358Y-73734817D01*
X160771522Y-73673843D01*
X161090625Y-73460625D01*
X161418839Y-72969418D01*
X161534092Y-72390000D01*
X161418839Y-71810582D01*
X161090625Y-71319375D01*
X160792239Y-71120000D01*
X161090625Y-70920625D01*
X161418839Y-70429418D01*
X161534092Y-69850000D01*
X161418839Y-69270582D01*
X161090625Y-68779375D01*
X161072381Y-68767184D01*
X161117765Y-68758157D01*
X161327809Y-68617809D01*
X161468157Y-68407765D01*
X161509682Y-68199000D01*
X163102553Y-68199000D01*
X163182542Y-68278989D01*
X163602643Y-68453000D01*
X164057357Y-68453000D01*
X164477458Y-68278989D01*
X164798989Y-67957458D01*
X164973000Y-67537357D01*
X164973000Y-67082643D01*
X164798989Y-66662542D01*
X164477458Y-66341011D01*
X164057357Y-66167000D01*
X163602643Y-66167000D01*
X163182542Y-66341011D01*
X163102553Y-66421000D01*
X161509682Y-66421000D01*
X161468157Y-66212235D01*
X161327809Y-66002191D01*
X161117765Y-65861843D01*
X160870000Y-65812560D01*
X159170000Y-65812560D01*
X158922235Y-65861843D01*
X158712191Y-66002191D01*
X158571843Y-66212235D01*
X158522560Y-66460000D01*
X158522560Y-68160000D01*
X158571843Y-68407765D01*
X158712191Y-68617809D01*
X158922235Y-68758157D01*
X158967619Y-68767184D01*
X158949375Y-68779375D01*
X158621161Y-69270582D01*
X158505908Y-69850000D01*
X153914092Y-69850000D01*
X153798839Y-69270582D01*
X153470625Y-68779375D01*
X153452381Y-68767184D01*
X153497765Y-68758157D01*
X153707809Y-68617809D01*
X153848157Y-68407765D01*
X153897440Y-68160000D01*
X153897440Y-66460000D01*
X153848157Y-66212235D01*
X153707809Y-66002191D01*
X153497765Y-65861843D01*
X153250000Y-65812560D01*
X151550000Y-65812560D01*
X151302235Y-65861843D01*
X151092191Y-66002191D01*
X150951843Y-66212235D01*
X150902560Y-66460000D01*
X150902560Y-68160000D01*
X150951843Y-68407765D01*
X151092191Y-68617809D01*
X151302235Y-68758157D01*
X151347619Y-68767184D01*
X151329375Y-68779375D01*
X151001161Y-69270582D01*
X150885908Y-69850000D01*
X125974092Y-69850000D01*
X125858839Y-69270582D01*
X125530625Y-68779375D01*
X125211522Y-68566157D01*
X125341358Y-68505183D01*
X125731645Y-68076924D01*
X125901476Y-67666890D01*
X125780155Y-67437000D01*
X124587000Y-67437000D01*
X124587000Y-67457000D01*
X124333000Y-67457000D01*
X124333000Y-67437000D01*
X123139845Y-67437000D01*
X123018524Y-67666890D01*
X123188355Y-68076924D01*
X123578642Y-68505183D01*
X123708478Y-68566157D01*
X123389375Y-68779375D01*
X123061161Y-69270582D01*
X122945908Y-69850000D01*
X121360000Y-69850000D01*
X121360000Y-66953110D01*
X123018524Y-66953110D01*
X123139845Y-67183000D01*
X124333000Y-67183000D01*
X124333000Y-65989181D01*
X124587000Y-65989181D01*
X124587000Y-67183000D01*
X125780155Y-67183000D01*
X125901476Y-66953110D01*
X125731645Y-66543076D01*
X125341358Y-66114817D01*
X124816892Y-65868514D01*
X124587000Y-65989181D01*
X124333000Y-65989181D01*
X124103108Y-65868514D01*
X123578642Y-66114817D01*
X123188355Y-66543076D01*
X123018524Y-66953110D01*
X121360000Y-66953110D01*
X121360000Y-59690000D01*
X121421908Y-59690000D01*
X121537161Y-60269418D01*
X121865375Y-60760625D01*
X122356582Y-61088839D01*
X122789744Y-61175000D01*
X123082256Y-61175000D01*
X123486259Y-61094639D01*
X123389375Y-61159375D01*
X123061161Y-61650582D01*
X122945908Y-62230000D01*
X123061161Y-62809418D01*
X123389375Y-63300625D01*
X123880582Y-63628839D01*
X124313744Y-63715000D01*
X124606256Y-63715000D01*
X125039418Y-63628839D01*
X125530625Y-63300625D01*
X125743843Y-62981522D01*
X125804817Y-63111358D01*
X126233076Y-63501645D01*
X126643110Y-63671476D01*
X126873000Y-63550155D01*
X126873000Y-62357000D01*
X126853000Y-62357000D01*
X126853000Y-62103000D01*
X126873000Y-62103000D01*
X126873000Y-62083000D01*
X127127000Y-62083000D01*
X127127000Y-62103000D01*
X127147000Y-62103000D01*
X127147000Y-62357000D01*
X127127000Y-62357000D01*
X127127000Y-63550155D01*
X127356890Y-63671476D01*
X127766924Y-63501645D01*
X128195183Y-63111358D01*
X128256157Y-62981522D01*
X128469375Y-63300625D01*
X128960582Y-63628839D01*
X129393744Y-63715000D01*
X129686256Y-63715000D01*
X130119418Y-63628839D01*
X130610625Y-63300625D01*
X130810000Y-63002239D01*
X131009375Y-63300625D01*
X131500582Y-63628839D01*
X131933744Y-63715000D01*
X132226256Y-63715000D01*
X132659418Y-63628839D01*
X133150625Y-63300625D01*
X133350000Y-63002239D01*
X133549375Y-63300625D01*
X134040582Y-63628839D01*
X134473744Y-63715000D01*
X134766256Y-63715000D01*
X135199418Y-63628839D01*
X135690625Y-63300625D01*
X135890000Y-63002239D01*
X136089375Y-63300625D01*
X136580582Y-63628839D01*
X137013744Y-63715000D01*
X137306256Y-63715000D01*
X137739418Y-63628839D01*
X138230625Y-63300625D01*
X138430000Y-63002239D01*
X138629375Y-63300625D01*
X139120582Y-63628839D01*
X139553744Y-63715000D01*
X139846256Y-63715000D01*
X140279418Y-63628839D01*
X140770625Y-63300625D01*
X140970000Y-63002239D01*
X141169375Y-63300625D01*
X141660582Y-63628839D01*
X142093744Y-63715000D01*
X142386256Y-63715000D01*
X142819418Y-63628839D01*
X143310625Y-63300625D01*
X143510000Y-63002239D01*
X143709375Y-63300625D01*
X144200582Y-63628839D01*
X144633744Y-63715000D01*
X144926256Y-63715000D01*
X145359418Y-63628839D01*
X145850625Y-63300625D01*
X146050000Y-63002239D01*
X146249375Y-63300625D01*
X146740582Y-63628839D01*
X147173744Y-63715000D01*
X147466256Y-63715000D01*
X147899418Y-63628839D01*
X148390625Y-63300625D01*
X148590000Y-63002239D01*
X148789375Y-63300625D01*
X149280582Y-63628839D01*
X149713744Y-63715000D01*
X150006256Y-63715000D01*
X150439418Y-63628839D01*
X150930625Y-63300625D01*
X151130000Y-63002239D01*
X151329375Y-63300625D01*
X151820582Y-63628839D01*
X152253744Y-63715000D01*
X152546256Y-63715000D01*
X152979418Y-63628839D01*
X153470625Y-63300625D01*
X153670000Y-63002239D01*
X153869375Y-63300625D01*
X154360582Y-63628839D01*
X154793744Y-63715000D01*
X155086256Y-63715000D01*
X155519418Y-63628839D01*
X156010625Y-63300625D01*
X156210000Y-63002239D01*
X156409375Y-63300625D01*
X156900582Y-63628839D01*
X157333744Y-63715000D01*
X157626256Y-63715000D01*
X158059418Y-63628839D01*
X158550625Y-63300625D01*
X158750000Y-63002239D01*
X158949375Y-63300625D01*
X159440582Y-63628839D01*
X159873744Y-63715000D01*
X160166256Y-63715000D01*
X160599418Y-63628839D01*
X161090625Y-63300625D01*
X161290000Y-63002239D01*
X161489375Y-63300625D01*
X161980582Y-63628839D01*
X162413744Y-63715000D01*
X162706256Y-63715000D01*
X163139418Y-63628839D01*
X163630625Y-63300625D01*
X163958839Y-62809418D01*
X164074092Y-62230000D01*
X163958839Y-61650582D01*
X163630625Y-61159375D01*
X163332239Y-60960000D01*
X163630625Y-60760625D01*
X163958839Y-60269418D01*
X164074092Y-59690000D01*
X163958839Y-59110582D01*
X163630625Y-58619375D01*
X163139418Y-58291161D01*
X162706256Y-58205000D01*
X162413744Y-58205000D01*
X161980582Y-58291161D01*
X161489375Y-58619375D01*
X161290000Y-58917761D01*
X161090625Y-58619375D01*
X160599418Y-58291161D01*
X160166256Y-58205000D01*
X159873744Y-58205000D01*
X159440582Y-58291161D01*
X158949375Y-58619375D01*
X158750000Y-58917761D01*
X158550625Y-58619375D01*
X158059418Y-58291161D01*
X157626256Y-58205000D01*
X157333744Y-58205000D01*
X156900582Y-58291161D01*
X156409375Y-58619375D01*
X156210000Y-58917761D01*
X156010625Y-58619375D01*
X155519418Y-58291161D01*
X155086256Y-58205000D01*
X154793744Y-58205000D01*
X154360582Y-58291161D01*
X153869375Y-58619375D01*
X153670000Y-58917761D01*
X153470625Y-58619375D01*
X152979418Y-58291161D01*
X152546256Y-58205000D01*
X152253744Y-58205000D01*
X151820582Y-58291161D01*
X151329375Y-58619375D01*
X151130000Y-58917761D01*
X150930625Y-58619375D01*
X150439418Y-58291161D01*
X150006256Y-58205000D01*
X149713744Y-58205000D01*
X149280582Y-58291161D01*
X148789375Y-58619375D01*
X148590000Y-58917761D01*
X148390625Y-58619375D01*
X147899418Y-58291161D01*
X147466256Y-58205000D01*
X147173744Y-58205000D01*
X146740582Y-58291161D01*
X146249375Y-58619375D01*
X146050000Y-58917761D01*
X145850625Y-58619375D01*
X145359418Y-58291161D01*
X144926256Y-58205000D01*
X144633744Y-58205000D01*
X144200582Y-58291161D01*
X143709375Y-58619375D01*
X143381161Y-59110582D01*
X143265908Y-59690000D01*
X143381161Y-60269418D01*
X143709375Y-60760625D01*
X144007761Y-60960000D01*
X143709375Y-61159375D01*
X143510000Y-61457761D01*
X143310625Y-61159375D01*
X142819418Y-60831161D01*
X142386256Y-60745000D01*
X142093744Y-60745000D01*
X141689741Y-60825361D01*
X141786625Y-60760625D01*
X142114839Y-60269418D01*
X142230092Y-59690000D01*
X142114839Y-59110582D01*
X141786625Y-58619375D01*
X141295418Y-58291161D01*
X140862256Y-58205000D01*
X140569744Y-58205000D01*
X140136582Y-58291161D01*
X139645375Y-58619375D01*
X139446000Y-58917761D01*
X139246625Y-58619375D01*
X138755418Y-58291161D01*
X138322256Y-58205000D01*
X138029744Y-58205000D01*
X137596582Y-58291161D01*
X137105375Y-58619375D01*
X136906000Y-58917761D01*
X136706625Y-58619375D01*
X136215418Y-58291161D01*
X135782256Y-58205000D01*
X135489744Y-58205000D01*
X135056582Y-58291161D01*
X134565375Y-58619375D01*
X134366000Y-58917761D01*
X134166625Y-58619375D01*
X133675418Y-58291161D01*
X133242256Y-58205000D01*
X132949744Y-58205000D01*
X132516582Y-58291161D01*
X132025375Y-58619375D01*
X131826000Y-58917761D01*
X131626625Y-58619375D01*
X131135418Y-58291161D01*
X130702256Y-58205000D01*
X130409744Y-58205000D01*
X129976582Y-58291161D01*
X129485375Y-58619375D01*
X129286000Y-58917761D01*
X129086625Y-58619375D01*
X128595418Y-58291161D01*
X128162256Y-58205000D01*
X127869744Y-58205000D01*
X127436582Y-58291161D01*
X126945375Y-58619375D01*
X126732157Y-58938478D01*
X126671183Y-58808642D01*
X126242924Y-58418355D01*
X125832890Y-58248524D01*
X125603000Y-58369845D01*
X125603000Y-59563000D01*
X125623000Y-59563000D01*
X125623000Y-59817000D01*
X125603000Y-59817000D01*
X125603000Y-59837000D01*
X125349000Y-59837000D01*
X125349000Y-59817000D01*
X125329000Y-59817000D01*
X125329000Y-59563000D01*
X125349000Y-59563000D01*
X125349000Y-58369845D01*
X125119110Y-58248524D01*
X124709076Y-58418355D01*
X124280817Y-58808642D01*
X124219843Y-58938478D01*
X124006625Y-58619375D01*
X123515418Y-58291161D01*
X123082256Y-58205000D01*
X122789744Y-58205000D01*
X122356582Y-58291161D01*
X121865375Y-58619375D01*
X121537161Y-59110582D01*
X121421908Y-59690000D01*
X121360000Y-59690000D01*
X121360000Y-58482119D01*
X121404065Y-58232213D01*
X121499405Y-58067080D01*
X121645477Y-57944512D01*
X121854465Y-57868445D01*
X121950996Y-57860000D01*
X166307881Y-57860000D01*
X166557787Y-57904065D01*
G04 #@! TD*
M02*
