M48
;DRILL file {KiCad (5.0.1)-4} date 30/04/2020 20:25:39
;FORMAT={-:-/ absolute / inch / decimal}
FMAT,2
INCH,TZ
T1C0.0157
T2C0.0160
T3C0.0394
%
G90
G05
M72
T1
X5.875Y-3.875
X5.9654Y-3.775
X5.976Y-3.6
X6.025Y-3.2404
X6.075Y-3.25
X6.125Y-3.2404
T2
X5.1Y-3.525
X5.3Y-4.
X5.35Y-3.625
X5.375Y-3.4
X5.4Y-2.9283
X5.4Y-3.625
X5.4096Y-3.4346
X5.4904Y-2.8064
X5.4904Y-2.8621
X5.5Y-4.
X5.55Y-3.275
X5.63Y-2.86
X5.65Y-2.825
X5.725Y-2.925
X6.45Y-2.65
T3
X5.7Y-2.35
X5.8Y-2.35
X5.9Y-2.35
X6.Y-2.35
X6.1Y-2.35
X6.2Y-2.35
X6.3Y-2.35
X6.4Y-2.35
X5.9Y-4.25
X6.Y-4.25
X6.1Y-4.25
X6.2Y-4.25
X6.3Y-4.25
X6.4Y-4.25
X4.9Y-2.65
X4.9Y-2.75
X4.9Y-2.85
X4.9Y-2.95
X4.9Y-3.05
X4.9Y-3.15
X4.9Y-3.25
X4.9Y-3.35
X4.84Y-2.35
X4.94Y-2.35
X5.04Y-2.35
X5.14Y-2.35
X5.24Y-2.35
X5.34Y-2.35
X5.44Y-2.35
X5.54Y-2.35
X5.2Y-4.25
X5.3Y-4.25
X5.4Y-4.25
X5.5Y-4.25
X5.6Y-4.25
X5.7Y-4.25
X5.2Y-4.15
X5.3Y-4.15
X5.4Y-4.15
X5.5Y-4.15
X5.6Y-4.15
X5.7Y-4.15
X4.9Y-3.55
X4.9Y-3.65
X4.9Y-3.75
X4.9Y-3.85
X4.9Y-3.95
X6.Y-2.65
X6.Y-2.75
X6.Y-2.85
X6.Y-2.95
X6.3Y-2.65
X6.3Y-2.75
X6.3Y-2.85
X6.3Y-2.95
X6.3Y-3.85
X6.3Y-3.95
X5.7Y-2.45
X5.8Y-2.45
X5.9Y-2.45
X6.Y-2.45
X6.1Y-2.45
X6.2Y-2.45
X6.3Y-2.45
X6.4Y-2.45
X4.9Y-2.45
X5.Y-2.45
X5.1Y-2.45
X5.2Y-2.45
X5.3Y-2.45
X5.4Y-2.45
X5.5Y-2.45
X5.6Y-2.45
X6.3Y-3.55
X6.3Y-3.65
X6.3Y-3.25
X6.3Y-3.35
X5.9Y-4.15
X6.Y-4.15
X6.1Y-4.15
X6.2Y-4.15
X6.3Y-4.15
X6.4Y-4.15
T0
M30
