G04 #@! TF.GenerationSoftware,KiCad,Pcbnew,(5.0.1)-4*
G04 #@! TF.CreationDate,2020-04-30T20:25:35+02:00*
G04 #@! TF.ProjectId,freqcounter,66726571636F756E7465722E6B696361,1*
G04 #@! TF.SameCoordinates,Original*
G04 #@! TF.FileFunction,Legend,Top*
G04 #@! TF.FilePolarity,Positive*
%FSLAX46Y46*%
G04 Gerber Fmt 4.6, Leading zero omitted, Abs format (unit mm)*
G04 Created by KiCad (PCBNEW (5.0.1)-4) date 30/04/2020 20:25:35*
%MOMM*%
%LPD*%
G01*
G04 APERTURE LIST*
%ADD10C,0.203200*%
%ADD11C,0.150000*%
%ADD12C,0.120000*%
G04 APERTURE END LIST*
D10*
X163055904Y-99822000D02*
X162959142Y-99773619D01*
X162813999Y-99773619D01*
X162668857Y-99822000D01*
X162572095Y-99918761D01*
X162523714Y-100015523D01*
X162475333Y-100209047D01*
X162475333Y-100354190D01*
X162523714Y-100547714D01*
X162572095Y-100644476D01*
X162668857Y-100741238D01*
X162813999Y-100789619D01*
X162910761Y-100789619D01*
X163055904Y-100741238D01*
X163104285Y-100692857D01*
X163104285Y-100354190D01*
X162910761Y-100354190D01*
X163539714Y-100789619D02*
X163539714Y-99773619D01*
X164120285Y-100789619D01*
X164120285Y-99773619D01*
X164604095Y-100789619D02*
X164604095Y-99773619D01*
X164845999Y-99773619D01*
X164991142Y-99822000D01*
X165087904Y-99918761D01*
X165136285Y-100015523D01*
X165184666Y-100209047D01*
X165184666Y-100354190D01*
X165136285Y-100547714D01*
X165087904Y-100644476D01*
X164991142Y-100741238D01*
X164845999Y-100789619D01*
X164604095Y-100789619D01*
X163055904Y-92202000D02*
X162959142Y-92153619D01*
X162813999Y-92153619D01*
X162668857Y-92202000D01*
X162572095Y-92298761D01*
X162523714Y-92395523D01*
X162475333Y-92589047D01*
X162475333Y-92734190D01*
X162523714Y-92927714D01*
X162572095Y-93024476D01*
X162668857Y-93121238D01*
X162813999Y-93169619D01*
X162910761Y-93169619D01*
X163055904Y-93121238D01*
X163104285Y-93072857D01*
X163104285Y-92734190D01*
X162910761Y-92734190D01*
X163539714Y-93169619D02*
X163539714Y-92153619D01*
X164120285Y-93169619D01*
X164120285Y-92153619D01*
X164604095Y-93169619D02*
X164604095Y-92153619D01*
X164845999Y-92153619D01*
X164991142Y-92202000D01*
X165087904Y-92298761D01*
X165136285Y-92395523D01*
X165184666Y-92589047D01*
X165184666Y-92734190D01*
X165136285Y-92927714D01*
X165087904Y-93024476D01*
X164991142Y-93121238D01*
X164845999Y-93169619D01*
X164604095Y-93169619D01*
X163055904Y-84582000D02*
X162959142Y-84533619D01*
X162813999Y-84533619D01*
X162668857Y-84582000D01*
X162572095Y-84678761D01*
X162523714Y-84775523D01*
X162475333Y-84969047D01*
X162475333Y-85114190D01*
X162523714Y-85307714D01*
X162572095Y-85404476D01*
X162668857Y-85501238D01*
X162813999Y-85549619D01*
X162910761Y-85549619D01*
X163055904Y-85501238D01*
X163104285Y-85452857D01*
X163104285Y-85114190D01*
X162910761Y-85114190D01*
X163539714Y-85549619D02*
X163539714Y-84533619D01*
X164120285Y-85549619D01*
X164120285Y-84533619D01*
X164604095Y-85549619D02*
X164604095Y-84533619D01*
X164845999Y-84533619D01*
X164991142Y-84582000D01*
X165087904Y-84678761D01*
X165136285Y-84775523D01*
X165184666Y-84969047D01*
X165184666Y-85114190D01*
X165136285Y-85307714D01*
X165087904Y-85404476D01*
X164991142Y-85501238D01*
X164845999Y-85549619D01*
X164604095Y-85549619D01*
X162420904Y-74422000D02*
X162324142Y-74373619D01*
X162178999Y-74373619D01*
X162033857Y-74422000D01*
X161937095Y-74518761D01*
X161888714Y-74615523D01*
X161840333Y-74809047D01*
X161840333Y-74954190D01*
X161888714Y-75147714D01*
X161937095Y-75244476D01*
X162033857Y-75341238D01*
X162178999Y-75389619D01*
X162275761Y-75389619D01*
X162420904Y-75341238D01*
X162469285Y-75292857D01*
X162469285Y-74954190D01*
X162275761Y-74954190D01*
X162904714Y-75389619D02*
X162904714Y-74373619D01*
X163485285Y-75389619D01*
X163485285Y-74373619D01*
X163969095Y-75389619D02*
X163969095Y-74373619D01*
X164210999Y-74373619D01*
X164356142Y-74422000D01*
X164452904Y-74518761D01*
X164501285Y-74615523D01*
X164549666Y-74809047D01*
X164549666Y-74954190D01*
X164501285Y-75147714D01*
X164452904Y-75244476D01*
X164356142Y-75341238D01*
X164210999Y-75389619D01*
X163969095Y-75389619D01*
X163001476Y-71833619D02*
X162517666Y-71833619D01*
X162469285Y-72317428D01*
X162517666Y-72269047D01*
X162614428Y-72220666D01*
X162856333Y-72220666D01*
X162953095Y-72269047D01*
X163001476Y-72317428D01*
X163049857Y-72414190D01*
X163049857Y-72656095D01*
X163001476Y-72752857D01*
X162953095Y-72801238D01*
X162856333Y-72849619D01*
X162614428Y-72849619D01*
X162517666Y-72801238D01*
X162469285Y-72752857D01*
X163340142Y-71833619D02*
X163678809Y-72849619D01*
X164017476Y-71833619D01*
X161961285Y-70261238D02*
X162106428Y-70309619D01*
X162348333Y-70309619D01*
X162445095Y-70261238D01*
X162493476Y-70212857D01*
X162541857Y-70116095D01*
X162541857Y-70019333D01*
X162493476Y-69922571D01*
X162445095Y-69874190D01*
X162348333Y-69825809D01*
X162154809Y-69777428D01*
X162058047Y-69729047D01*
X162009666Y-69680666D01*
X161961285Y-69583904D01*
X161961285Y-69487142D01*
X162009666Y-69390380D01*
X162058047Y-69342000D01*
X162154809Y-69293619D01*
X162396714Y-69293619D01*
X162541857Y-69342000D01*
X162977285Y-70309619D02*
X162977285Y-69293619D01*
X163219190Y-69293619D01*
X163364333Y-69342000D01*
X163461095Y-69438761D01*
X163509476Y-69535523D01*
X163557857Y-69729047D01*
X163557857Y-69874190D01*
X163509476Y-70067714D01*
X163461095Y-70164476D01*
X163364333Y-70261238D01*
X163219190Y-70309619D01*
X162977285Y-70309619D01*
X163944904Y-70019333D02*
X164428714Y-70019333D01*
X163848142Y-70309619D02*
X164186809Y-69293619D01*
X164525476Y-70309619D01*
X161985476Y-67721238D02*
X162130619Y-67769619D01*
X162372523Y-67769619D01*
X162469285Y-67721238D01*
X162517666Y-67672857D01*
X162566047Y-67576095D01*
X162566047Y-67479333D01*
X162517666Y-67382571D01*
X162469285Y-67334190D01*
X162372523Y-67285809D01*
X162179000Y-67237428D01*
X162082238Y-67189047D01*
X162033857Y-67140666D01*
X161985476Y-67043904D01*
X161985476Y-66947142D01*
X162033857Y-66850380D01*
X162082238Y-66802000D01*
X162179000Y-66753619D01*
X162420904Y-66753619D01*
X162566047Y-66802000D01*
X163582047Y-67672857D02*
X163533666Y-67721238D01*
X163388523Y-67769619D01*
X163291761Y-67769619D01*
X163146619Y-67721238D01*
X163049857Y-67624476D01*
X163001476Y-67527714D01*
X162953095Y-67334190D01*
X162953095Y-67189047D01*
X163001476Y-66995523D01*
X163049857Y-66898761D01*
X163146619Y-66802000D01*
X163291761Y-66753619D01*
X163388523Y-66753619D01*
X163533666Y-66802000D01*
X163582047Y-66850380D01*
X164501285Y-67769619D02*
X164017476Y-67769619D01*
X164017476Y-66753619D01*
X126885095Y-80469619D02*
X126885095Y-79453619D01*
X127272142Y-79453619D01*
X127368904Y-79502000D01*
X127417285Y-79550380D01*
X127465666Y-79647142D01*
X127465666Y-79792285D01*
X127417285Y-79889047D01*
X127368904Y-79937428D01*
X127272142Y-79985809D01*
X126885095Y-79985809D01*
X128336523Y-79792285D02*
X128336523Y-80469619D01*
X128094619Y-79405238D02*
X127852714Y-80130952D01*
X128481666Y-80130952D01*
X126885095Y-83009619D02*
X126885095Y-81993619D01*
X127272142Y-81993619D01*
X127368904Y-82042000D01*
X127417285Y-82090380D01*
X127465666Y-82187142D01*
X127465666Y-82332285D01*
X127417285Y-82429047D01*
X127368904Y-82477428D01*
X127272142Y-82525809D01*
X126885095Y-82525809D01*
X128384904Y-81993619D02*
X127901095Y-81993619D01*
X127852714Y-82477428D01*
X127901095Y-82429047D01*
X127997857Y-82380666D01*
X128239761Y-82380666D01*
X128336523Y-82429047D01*
X128384904Y-82477428D01*
X128433285Y-82574190D01*
X128433285Y-82816095D01*
X128384904Y-82912857D01*
X128336523Y-82961238D01*
X128239761Y-83009619D01*
X127997857Y-83009619D01*
X127901095Y-82961238D01*
X127852714Y-82912857D01*
X126885095Y-75389619D02*
X126885095Y-74373619D01*
X127272142Y-74373619D01*
X127368904Y-74422000D01*
X127417285Y-74470380D01*
X127465666Y-74567142D01*
X127465666Y-74712285D01*
X127417285Y-74809047D01*
X127368904Y-74857428D01*
X127272142Y-74905809D01*
X126885095Y-74905809D01*
X127852714Y-74470380D02*
X127901095Y-74422000D01*
X127997857Y-74373619D01*
X128239761Y-74373619D01*
X128336523Y-74422000D01*
X128384904Y-74470380D01*
X128433285Y-74567142D01*
X128433285Y-74663904D01*
X128384904Y-74809047D01*
X127804333Y-75389619D01*
X128433285Y-75389619D01*
X126885095Y-77929619D02*
X126885095Y-76913619D01*
X127272142Y-76913619D01*
X127368904Y-76962000D01*
X127417285Y-77010380D01*
X127465666Y-77107142D01*
X127465666Y-77252285D01*
X127417285Y-77349047D01*
X127368904Y-77397428D01*
X127272142Y-77445809D01*
X126885095Y-77445809D01*
X127804333Y-76913619D02*
X128433285Y-76913619D01*
X128094619Y-77300666D01*
X128239761Y-77300666D01*
X128336523Y-77349047D01*
X128384904Y-77397428D01*
X128433285Y-77494190D01*
X128433285Y-77736095D01*
X128384904Y-77832857D01*
X128336523Y-77881238D01*
X128239761Y-77929619D01*
X127949476Y-77929619D01*
X127852714Y-77881238D01*
X127804333Y-77832857D01*
X126885095Y-70309619D02*
X126885095Y-69293619D01*
X127272142Y-69293619D01*
X127368904Y-69342000D01*
X127417285Y-69390380D01*
X127465666Y-69487142D01*
X127465666Y-69632285D01*
X127417285Y-69729047D01*
X127368904Y-69777428D01*
X127272142Y-69825809D01*
X126885095Y-69825809D01*
X128094619Y-69293619D02*
X128191380Y-69293619D01*
X128288142Y-69342000D01*
X128336523Y-69390380D01*
X128384904Y-69487142D01*
X128433285Y-69680666D01*
X128433285Y-69922571D01*
X128384904Y-70116095D01*
X128336523Y-70212857D01*
X128288142Y-70261238D01*
X128191380Y-70309619D01*
X128094619Y-70309619D01*
X127997857Y-70261238D01*
X127949476Y-70212857D01*
X127901095Y-70116095D01*
X127852714Y-69922571D01*
X127852714Y-69680666D01*
X127901095Y-69487142D01*
X127949476Y-69390380D01*
X127997857Y-69342000D01*
X128094619Y-69293619D01*
X126885095Y-72849619D02*
X126885095Y-71833619D01*
X127272142Y-71833619D01*
X127368904Y-71882000D01*
X127417285Y-71930380D01*
X127465666Y-72027142D01*
X127465666Y-72172285D01*
X127417285Y-72269047D01*
X127368904Y-72317428D01*
X127272142Y-72365809D01*
X126885095Y-72365809D01*
X128433285Y-72849619D02*
X127852714Y-72849619D01*
X128143000Y-72849619D02*
X128143000Y-71833619D01*
X128046238Y-71978761D01*
X127949476Y-72075523D01*
X127852714Y-72123904D01*
X126280333Y-84533619D02*
X126619000Y-85549619D01*
X126957666Y-84533619D01*
X127296333Y-85549619D02*
X127296333Y-84533619D01*
X127538238Y-84533619D01*
X127683380Y-84582000D01*
X127780142Y-84678761D01*
X127828523Y-84775523D01*
X127876904Y-84969047D01*
X127876904Y-85114190D01*
X127828523Y-85307714D01*
X127780142Y-85404476D01*
X127683380Y-85501238D01*
X127538238Y-85549619D01*
X127296333Y-85549619D01*
X128312333Y-85549619D02*
X128312333Y-84533619D01*
X128554238Y-84533619D01*
X128699380Y-84582000D01*
X128796142Y-84678761D01*
X128844523Y-84775523D01*
X128892904Y-84969047D01*
X128892904Y-85114190D01*
X128844523Y-85307714D01*
X128796142Y-85404476D01*
X128699380Y-85501238D01*
X128554238Y-85549619D01*
X128312333Y-85549619D01*
X126860904Y-66802000D02*
X126764142Y-66753619D01*
X126618999Y-66753619D01*
X126473857Y-66802000D01*
X126377095Y-66898761D01*
X126328714Y-66995523D01*
X126280333Y-67189047D01*
X126280333Y-67334190D01*
X126328714Y-67527714D01*
X126377095Y-67624476D01*
X126473857Y-67721238D01*
X126618999Y-67769619D01*
X126715761Y-67769619D01*
X126860904Y-67721238D01*
X126909285Y-67672857D01*
X126909285Y-67334190D01*
X126715761Y-67334190D01*
X127344714Y-67769619D02*
X127344714Y-66753619D01*
X127925285Y-67769619D01*
X127925285Y-66753619D01*
X128409095Y-67769619D02*
X128409095Y-66753619D01*
X128650999Y-66753619D01*
X128796142Y-66802000D01*
X128892904Y-66898761D01*
X128941285Y-66995523D01*
X128989666Y-67189047D01*
X128989666Y-67334190D01*
X128941285Y-67527714D01*
X128892904Y-67624476D01*
X128796142Y-67721238D01*
X128650999Y-67769619D01*
X128409095Y-67769619D01*
X126504095Y-90629619D02*
X126504095Y-89613619D01*
X126842761Y-90339333D01*
X127181428Y-89613619D01*
X127181428Y-90629619D01*
X128245809Y-90532857D02*
X128197428Y-90581238D01*
X128052285Y-90629619D01*
X127955523Y-90629619D01*
X127810380Y-90581238D01*
X127713619Y-90484476D01*
X127665238Y-90387714D01*
X127616857Y-90194190D01*
X127616857Y-90049047D01*
X127665238Y-89855523D01*
X127713619Y-89758761D01*
X127810380Y-89662000D01*
X127955523Y-89613619D01*
X128052285Y-89613619D01*
X128197428Y-89662000D01*
X128245809Y-89710380D01*
X129165047Y-90629619D02*
X128681238Y-90629619D01*
X128681238Y-89613619D01*
X130084285Y-90629619D02*
X129745619Y-90145809D01*
X129503714Y-90629619D02*
X129503714Y-89613619D01*
X129890761Y-89613619D01*
X129987523Y-89662000D01*
X130035904Y-89710380D01*
X130084285Y-89807142D01*
X130084285Y-89952285D01*
X130035904Y-90049047D01*
X129987523Y-90097428D01*
X129890761Y-90145809D01*
X129503714Y-90145809D01*
X127030238Y-100692857D02*
X126981857Y-100741238D01*
X126836714Y-100789619D01*
X126739952Y-100789619D01*
X126594809Y-100741238D01*
X126498047Y-100644476D01*
X126449666Y-100547714D01*
X126401285Y-100354190D01*
X126401285Y-100209047D01*
X126449666Y-100015523D01*
X126498047Y-99918761D01*
X126594809Y-99822000D01*
X126739952Y-99773619D01*
X126836714Y-99773619D01*
X126981857Y-99822000D01*
X127030238Y-99870380D01*
X127949476Y-100789619D02*
X127465666Y-100789619D01*
X127465666Y-99773619D01*
X128288142Y-100789619D02*
X128288142Y-99773619D01*
X128868714Y-100789619D02*
X128433285Y-100209047D01*
X128868714Y-99773619D02*
X128288142Y-100354190D01*
X126546428Y-98249619D02*
X126546428Y-97233619D01*
X126788333Y-97233619D01*
X126933476Y-97282000D01*
X127030238Y-97378761D01*
X127078619Y-97475523D01*
X127126999Y-97669047D01*
X127126999Y-97814190D01*
X127078619Y-98007714D01*
X127030238Y-98104476D01*
X126933476Y-98201238D01*
X126788333Y-98249619D01*
X126546428Y-98249619D01*
X127514047Y-97959333D02*
X127997857Y-97959333D01*
X127417285Y-98249619D02*
X127755952Y-97233619D01*
X128094619Y-98249619D01*
X128288142Y-97233619D02*
X128868714Y-97233619D01*
X128578428Y-98249619D02*
X128578428Y-97233619D01*
X126860904Y-94742000D02*
X126764142Y-94693619D01*
X126618999Y-94693619D01*
X126473857Y-94742000D01*
X126377095Y-94838761D01*
X126328714Y-94935523D01*
X126280333Y-95129047D01*
X126280333Y-95274190D01*
X126328714Y-95467714D01*
X126377095Y-95564476D01*
X126473857Y-95661238D01*
X126618999Y-95709619D01*
X126715761Y-95709619D01*
X126860904Y-95661238D01*
X126909285Y-95612857D01*
X126909285Y-95274190D01*
X126715761Y-95274190D01*
X127344714Y-95709619D02*
X127344714Y-94693619D01*
X127925285Y-95709619D01*
X127925285Y-94693619D01*
X128409095Y-95709619D02*
X128409095Y-94693619D01*
X128650999Y-94693619D01*
X128796142Y-94742000D01*
X128892904Y-94838761D01*
X128941285Y-94935523D01*
X128989666Y-95129047D01*
X128989666Y-95274190D01*
X128941285Y-95467714D01*
X128892904Y-95564476D01*
X128796142Y-95661238D01*
X128650999Y-95709619D01*
X128409095Y-95709619D01*
X126280333Y-92153619D02*
X126619000Y-93169619D01*
X126957666Y-92153619D01*
X127296333Y-93169619D02*
X127296333Y-92153619D01*
X127538238Y-92153619D01*
X127683380Y-92202000D01*
X127780142Y-92298761D01*
X127828523Y-92395523D01*
X127876904Y-92589047D01*
X127876904Y-92734190D01*
X127828523Y-92927714D01*
X127780142Y-93024476D01*
X127683380Y-93121238D01*
X127538238Y-93169619D01*
X127296333Y-93169619D01*
X128312333Y-93169619D02*
X128312333Y-92153619D01*
X128554238Y-92153619D01*
X128699380Y-92202000D01*
X128796142Y-92298761D01*
X128844523Y-92395523D01*
X128892904Y-92589047D01*
X128892904Y-92734190D01*
X128844523Y-92927714D01*
X128796142Y-93024476D01*
X128699380Y-93121238D01*
X128554238Y-93169619D01*
X128312333Y-93169619D01*
D11*
G04 #@! TO.C,U2*
X149987000Y-94742000D02*
X148463000Y-94742000D01*
X149987000Y-89408000D02*
X148463000Y-89408000D01*
X147320000Y-93218000D02*
X147320000Y-90932000D01*
X151130000Y-93218000D02*
X151130000Y-90932000D01*
X148225000Y-92375000D02*
X148225000Y-91775000D01*
X150225000Y-92375000D02*
X150225000Y-91775000D01*
X149425000Y-93375000D02*
X149025000Y-93375000D01*
X149025000Y-90775000D02*
X149425000Y-90775000D01*
D12*
G04 #@! TO.C,R4*
X151055000Y-79748748D02*
X151055000Y-80271252D01*
X152475000Y-79748748D02*
X152475000Y-80271252D01*
G04 #@! TO.C,J1*
X123130000Y-101660000D02*
X125790000Y-101660000D01*
X123130000Y-91440000D02*
X123130000Y-101660000D01*
X125790000Y-91440000D02*
X125790000Y-101660000D01*
X123130000Y-91440000D02*
X125790000Y-91440000D01*
X123130000Y-90170000D02*
X123130000Y-88840000D01*
X123130000Y-88840000D02*
X124460000Y-88840000D01*
D11*
G04 #@! TO.C,U1*
X142305000Y-87855000D02*
X142305000Y-87605000D01*
X134555000Y-87855000D02*
X134555000Y-87520000D01*
X134555000Y-74705000D02*
X134555000Y-75040000D01*
X142305000Y-74705000D02*
X142305000Y-75040000D01*
X142305000Y-87855000D02*
X134555000Y-87855000D01*
X142305000Y-74705000D02*
X134555000Y-74705000D01*
X142305000Y-87605000D02*
X144105000Y-87605000D01*
D12*
G04 #@! TO.C,C1*
X138168748Y-90095000D02*
X138691252Y-90095000D01*
X138168748Y-91515000D02*
X138691252Y-91515000D01*
G04 #@! TO.C,C2*
X138168748Y-88190000D02*
X138691252Y-88190000D01*
X138168748Y-89610000D02*
X138691252Y-89610000D01*
G04 #@! TO.C,C3*
X153595000Y-79748748D02*
X153595000Y-80271252D01*
X155015000Y-79748748D02*
X155015000Y-80271252D01*
G04 #@! TO.C,C4*
X149486252Y-86285000D02*
X148963748Y-86285000D01*
X149486252Y-87705000D02*
X148963748Y-87705000D01*
G04 #@! TO.C,C5*
X149486252Y-97865000D02*
X148963748Y-97865000D01*
X149486252Y-96445000D02*
X148963748Y-96445000D01*
G04 #@! TO.C,J10*
X158690000Y-101660000D02*
X161350000Y-101660000D01*
X158690000Y-99060000D02*
X158690000Y-101660000D01*
X161350000Y-99060000D02*
X161350000Y-101660000D01*
X158690000Y-99060000D02*
X161350000Y-99060000D01*
X158690000Y-97790000D02*
X158690000Y-96460000D01*
X158690000Y-96460000D02*
X160020000Y-96460000D01*
G04 #@! TO.C,J11*
X158690000Y-88840000D02*
X160020000Y-88840000D01*
X158690000Y-90170000D02*
X158690000Y-88840000D01*
X158690000Y-91440000D02*
X161350000Y-91440000D01*
X161350000Y-91440000D02*
X161350000Y-94040000D01*
X158690000Y-91440000D02*
X158690000Y-94040000D01*
X158690000Y-94040000D02*
X161350000Y-94040000D01*
G04 #@! TO.C,J12*
X158690000Y-86420000D02*
X161350000Y-86420000D01*
X158690000Y-83820000D02*
X158690000Y-86420000D01*
X161350000Y-83820000D02*
X161350000Y-86420000D01*
X158690000Y-83820000D02*
X161350000Y-83820000D01*
X158690000Y-82550000D02*
X158690000Y-81220000D01*
X158690000Y-81220000D02*
X160020000Y-81220000D01*
G04 #@! TO.C,J13*
X158690000Y-76260000D02*
X161350000Y-76260000D01*
X158690000Y-68580000D02*
X158690000Y-76260000D01*
X161350000Y-68580000D02*
X161350000Y-76260000D01*
X158690000Y-68580000D02*
X161350000Y-68580000D01*
X158690000Y-67310000D02*
X158690000Y-65980000D01*
X158690000Y-65980000D02*
X160020000Y-65980000D01*
G04 #@! TO.C,J14*
X151070000Y-65980000D02*
X152400000Y-65980000D01*
X151070000Y-67310000D02*
X151070000Y-65980000D01*
X151070000Y-68580000D02*
X153730000Y-68580000D01*
X153730000Y-68580000D02*
X153730000Y-76260000D01*
X151070000Y-68580000D02*
X151070000Y-76260000D01*
X151070000Y-76260000D02*
X153730000Y-76260000D01*
G04 #@! TO.C,R1*
X160281252Y-78030000D02*
X159758748Y-78030000D01*
X160281252Y-79450000D02*
X159758748Y-79450000D01*
G04 #@! TO.C,R2*
X135906252Y-67385000D02*
X135383748Y-67385000D01*
X135906252Y-65965000D02*
X135383748Y-65965000D01*
G04 #@! TO.C,R3*
X145975000Y-79001252D02*
X145975000Y-78478748D01*
X147395000Y-79001252D02*
X147395000Y-78478748D01*
G04 #@! TO.C,R5*
X144070000Y-71136252D02*
X144070000Y-70613748D01*
X145490000Y-71136252D02*
X145490000Y-70613748D01*
G04 #@! TO.C,R6*
X148030000Y-71136252D02*
X148030000Y-70613748D01*
X146610000Y-71136252D02*
X146610000Y-70613748D01*
G04 #@! TO.C,D1*
X148082000Y-82042000D02*
X148082000Y-78142000D01*
X150368000Y-82042000D02*
X150368000Y-78142000D01*
X148209000Y-82042000D02*
X150209000Y-82042000D01*
G04 #@! TO.C,U2*
D11*
X151954895Y-93964276D02*
X152612876Y-93964276D01*
X152690285Y-93925571D01*
X152728990Y-93886866D01*
X152767695Y-93809457D01*
X152767695Y-93654638D01*
X152728990Y-93577228D01*
X152690285Y-93538523D01*
X152612876Y-93499819D01*
X151954895Y-93499819D01*
X152032304Y-93151476D02*
X151993600Y-93112771D01*
X151954895Y-93035361D01*
X151954895Y-92841838D01*
X151993600Y-92764428D01*
X152032304Y-92725723D01*
X152109714Y-92687019D01*
X152187123Y-92687019D01*
X152303238Y-92725723D01*
X152767695Y-93190180D01*
X152767695Y-92687019D01*
G04 #@! TO.C,R4*
X152217380Y-83351666D02*
X151741190Y-83685000D01*
X152217380Y-83923095D02*
X151217380Y-83923095D01*
X151217380Y-83542142D01*
X151264999Y-83446904D01*
X151312619Y-83399285D01*
X151407857Y-83351666D01*
X151550714Y-83351666D01*
X151645952Y-83399285D01*
X151693571Y-83446904D01*
X151741190Y-83542142D01*
X151741190Y-83923095D01*
X151550714Y-82494523D02*
X152217380Y-82494523D01*
X151169761Y-82732619D02*
X151884047Y-82970714D01*
X151884047Y-82351666D01*
G04 #@! TO.C,J1*
D10*
X122379619Y-99531714D02*
X121363619Y-99531714D01*
X122282857Y-98467333D02*
X122331238Y-98515714D01*
X122379619Y-98660857D01*
X122379619Y-98757619D01*
X122331238Y-98902761D01*
X122234476Y-98999523D01*
X122137714Y-99047904D01*
X121944190Y-99096285D01*
X121799047Y-99096285D01*
X121605523Y-99047904D01*
X121508761Y-98999523D01*
X121411999Y-98902761D01*
X121363619Y-98757619D01*
X121363619Y-98660857D01*
X121411999Y-98515714D01*
X121460380Y-98467333D01*
X122331238Y-98080285D02*
X122379619Y-97935142D01*
X122379619Y-97693238D01*
X122331238Y-97596476D01*
X122282857Y-97548095D01*
X122186095Y-97499714D01*
X122089333Y-97499714D01*
X121992571Y-97548095D01*
X121944190Y-97596476D01*
X121895809Y-97693238D01*
X121847428Y-97886761D01*
X121799047Y-97983523D01*
X121750666Y-98031904D01*
X121653904Y-98080285D01*
X121557142Y-98080285D01*
X121460380Y-98031904D01*
X121411999Y-97983523D01*
X121363619Y-97886761D01*
X121363619Y-97644857D01*
X121411999Y-97499714D01*
X122379619Y-97064285D02*
X121363619Y-97064285D01*
X121363619Y-96677238D01*
X121411999Y-96580476D01*
X121460380Y-96532095D01*
X121557142Y-96483714D01*
X121702285Y-96483714D01*
X121799047Y-96532095D01*
X121847428Y-96580476D01*
X121895809Y-96677238D01*
X121895809Y-97064285D01*
X122379619Y-95274190D02*
X121363619Y-95274190D01*
X121363619Y-94887142D01*
X121412000Y-94790380D01*
X121460380Y-94741999D01*
X121557142Y-94693619D01*
X121702285Y-94693619D01*
X121799047Y-94741999D01*
X121847428Y-94790380D01*
X121895809Y-94887142D01*
X121895809Y-95274190D01*
X122379619Y-94258190D02*
X121363619Y-94258190D01*
X122282857Y-93193809D02*
X122331238Y-93242190D01*
X122379619Y-93387333D01*
X122379619Y-93484095D01*
X122331238Y-93629238D01*
X122234476Y-93725999D01*
X122137714Y-93774380D01*
X121944190Y-93822761D01*
X121799047Y-93822761D01*
X121605523Y-93774380D01*
X121508761Y-93725999D01*
X121412000Y-93629238D01*
X121363619Y-93484095D01*
X121363619Y-93387333D01*
X121412000Y-93242190D01*
X121460380Y-93193809D01*
X122379619Y-92758380D02*
X121363619Y-92758380D01*
X122379619Y-92177809D02*
X121799047Y-92613238D01*
X121363619Y-92177809D02*
X121944190Y-92758380D01*
X122379619Y-91742380D02*
X121363619Y-91742380D01*
X121363619Y-91403714D02*
X121363619Y-90823142D01*
X122379619Y-91113428D02*
X121363619Y-91113428D01*
G04 #@! TO.C,J15*
X122379619Y-78746047D02*
X121363619Y-78746047D01*
X121363619Y-78359000D01*
X121411999Y-78262238D01*
X121460380Y-78213857D01*
X121557142Y-78165476D01*
X121702285Y-78165476D01*
X121799047Y-78213857D01*
X121847428Y-78262238D01*
X121895809Y-78359000D01*
X121895809Y-78746047D01*
X122089333Y-77778428D02*
X122089333Y-77294619D01*
X122379619Y-77875190D02*
X121363619Y-77536523D01*
X122379619Y-77197857D01*
X122379619Y-76278619D02*
X121895809Y-76617285D01*
X122379619Y-76859190D02*
X121363619Y-76859190D01*
X121363619Y-76472142D01*
X121411999Y-76375380D01*
X121460380Y-76327000D01*
X121557142Y-76278619D01*
X121702285Y-76278619D01*
X121799047Y-76327000D01*
X121847428Y-76375380D01*
X121895809Y-76472142D01*
X121895809Y-76859190D01*
X122089333Y-75891571D02*
X122089333Y-75407761D01*
X122379619Y-75988333D02*
X121363619Y-75649666D01*
X122379619Y-75311000D01*
X122379619Y-74488523D02*
X122379619Y-74972333D01*
X121363619Y-74972333D01*
X121847428Y-74149857D02*
X121847428Y-73811190D01*
X122379619Y-73666047D02*
X122379619Y-74149857D01*
X121363619Y-74149857D01*
X121363619Y-73666047D01*
X122379619Y-72746809D02*
X122379619Y-73230619D01*
X121363619Y-73230619D01*
G04 #@! TO.C,J3*
D11*
X133239523Y-103036666D02*
X133715714Y-103036666D01*
X133144285Y-103322380D02*
X133477619Y-102322380D01*
X133810952Y-103322380D01*
X134144285Y-103322380D02*
X134144285Y-102655714D01*
X134144285Y-102846190D02*
X134191904Y-102750952D01*
X134239523Y-102703333D01*
X134334761Y-102655714D01*
X134429999Y-102655714D01*
X135191904Y-103322380D02*
X135191904Y-102322380D01*
X135191904Y-103274761D02*
X135096666Y-103322380D01*
X134906190Y-103322380D01*
X134810952Y-103274761D01*
X134763333Y-103227142D01*
X134715714Y-103131904D01*
X134715714Y-102846190D01*
X134763333Y-102750952D01*
X134810952Y-102703333D01*
X134906190Y-102655714D01*
X135096666Y-102655714D01*
X135191904Y-102703333D01*
X136096666Y-102655714D02*
X136096666Y-103322380D01*
X135668095Y-102655714D02*
X135668095Y-103179523D01*
X135715714Y-103274761D01*
X135810952Y-103322380D01*
X135953809Y-103322380D01*
X136049047Y-103274761D01*
X136096666Y-103227142D01*
X136572857Y-103322380D02*
X136572857Y-102655714D01*
X136572857Y-102322380D02*
X136525238Y-102370000D01*
X136572857Y-102417619D01*
X136620476Y-102370000D01*
X136572857Y-102322380D01*
X136572857Y-102417619D01*
X137049047Y-102655714D02*
X137049047Y-103322380D01*
X137049047Y-102750952D02*
X137096666Y-102703333D01*
X137191904Y-102655714D01*
X137334761Y-102655714D01*
X137429999Y-102703333D01*
X137477619Y-102798571D01*
X137477619Y-103322380D01*
X138096666Y-103322380D02*
X138001428Y-103274761D01*
X137953809Y-103227142D01*
X137906190Y-103131904D01*
X137906190Y-102846190D01*
X137953809Y-102750952D01*
X138001428Y-102703333D01*
X138096666Y-102655714D01*
X138239523Y-102655714D01*
X138334761Y-102703333D01*
X138382380Y-102750952D01*
X138429999Y-102846190D01*
X138429999Y-103131904D01*
X138382380Y-103227142D01*
X138334761Y-103274761D01*
X138239523Y-103322380D01*
X138096666Y-103322380D01*
X138620476Y-103417619D02*
X139382380Y-103417619D01*
X139620476Y-103322380D02*
X139620476Y-102322380D01*
X140001428Y-102322380D01*
X140096666Y-102370000D01*
X140144285Y-102417619D01*
X140191904Y-102512857D01*
X140191904Y-102655714D01*
X140144285Y-102750952D01*
X140096666Y-102798571D01*
X140001428Y-102846190D01*
X139620476Y-102846190D01*
X140763333Y-103322380D02*
X140668095Y-103274761D01*
X140620476Y-103227142D01*
X140572857Y-103131904D01*
X140572857Y-102846190D01*
X140620476Y-102750952D01*
X140668095Y-102703333D01*
X140763333Y-102655714D01*
X140906190Y-102655714D01*
X141001428Y-102703333D01*
X141049047Y-102750952D01*
X141096666Y-102846190D01*
X141096666Y-103131904D01*
X141049047Y-103227142D01*
X141001428Y-103274761D01*
X140906190Y-103322380D01*
X140763333Y-103322380D01*
X141429999Y-102655714D02*
X141620476Y-103322380D01*
X141810952Y-102846190D01*
X142001428Y-103322380D01*
X142191904Y-102655714D01*
X142953809Y-103274761D02*
X142858571Y-103322380D01*
X142668095Y-103322380D01*
X142572857Y-103274761D01*
X142525238Y-103179523D01*
X142525238Y-102798571D01*
X142572857Y-102703333D01*
X142668095Y-102655714D01*
X142858571Y-102655714D01*
X142953809Y-102703333D01*
X143001428Y-102798571D01*
X143001428Y-102893809D01*
X142525238Y-102989047D01*
X143429999Y-103322380D02*
X143429999Y-102655714D01*
X143429999Y-102846190D02*
X143477619Y-102750952D01*
X143525238Y-102703333D01*
X143620476Y-102655714D01*
X143715714Y-102655714D01*
G04 #@! TO.C,U1*
X137668095Y-88232380D02*
X137668095Y-89041904D01*
X137715714Y-89137142D01*
X137763333Y-89184761D01*
X137858571Y-89232380D01*
X138049047Y-89232380D01*
X138144285Y-89184761D01*
X138191904Y-89137142D01*
X138239523Y-89041904D01*
X138239523Y-88232380D01*
X139239523Y-89232380D02*
X138668095Y-89232380D01*
X138953809Y-89232380D02*
X138953809Y-88232380D01*
X138858571Y-88375238D01*
X138763333Y-88470476D01*
X138668095Y-88518095D01*
G04 #@! TO.C,C1*
X135088333Y-91162142D02*
X135040714Y-91209761D01*
X134897857Y-91257380D01*
X134802619Y-91257380D01*
X134659761Y-91209761D01*
X134564523Y-91114523D01*
X134516904Y-91019285D01*
X134469285Y-90828809D01*
X134469285Y-90685952D01*
X134516904Y-90495476D01*
X134564523Y-90400238D01*
X134659761Y-90305000D01*
X134802619Y-90257380D01*
X134897857Y-90257380D01*
X135040714Y-90305000D01*
X135088333Y-90352619D01*
X136040714Y-91257380D02*
X135469285Y-91257380D01*
X135754999Y-91257380D02*
X135754999Y-90257380D01*
X135659761Y-90400238D01*
X135564523Y-90495476D01*
X135469285Y-90543095D01*
G04 #@! TO.C,C2*
X135088333Y-89257142D02*
X135040714Y-89304761D01*
X134897857Y-89352380D01*
X134802619Y-89352380D01*
X134659761Y-89304761D01*
X134564523Y-89209523D01*
X134516904Y-89114285D01*
X134469285Y-88923809D01*
X134469285Y-88780952D01*
X134516904Y-88590476D01*
X134564523Y-88495238D01*
X134659761Y-88400000D01*
X134802619Y-88352380D01*
X134897857Y-88352380D01*
X135040714Y-88400000D01*
X135088333Y-88447619D01*
X135469285Y-88447619D02*
X135516904Y-88400000D01*
X135612142Y-88352380D01*
X135850238Y-88352380D01*
X135945476Y-88400000D01*
X135993095Y-88447619D01*
X136040714Y-88542857D01*
X136040714Y-88638095D01*
X135993095Y-88780952D01*
X135421666Y-89352380D01*
X136040714Y-89352380D01*
G04 #@! TO.C,C3*
X154662142Y-83986666D02*
X154709761Y-84034285D01*
X154757380Y-84177142D01*
X154757380Y-84272380D01*
X154709761Y-84415238D01*
X154614523Y-84510476D01*
X154519285Y-84558095D01*
X154328809Y-84605714D01*
X154185952Y-84605714D01*
X153995476Y-84558095D01*
X153900238Y-84510476D01*
X153804999Y-84415238D01*
X153757380Y-84272380D01*
X153757380Y-84177142D01*
X153804999Y-84034285D01*
X153852619Y-83986666D01*
X153757380Y-83653333D02*
X153757380Y-83034285D01*
X154138333Y-83367619D01*
X154138333Y-83224761D01*
X154185952Y-83129523D01*
X154233571Y-83081904D01*
X154328809Y-83034285D01*
X154566904Y-83034285D01*
X154662142Y-83081904D01*
X154709761Y-83129523D01*
X154757380Y-83224761D01*
X154757380Y-83510476D01*
X154709761Y-83605714D01*
X154662142Y-83653333D01*
G04 #@! TO.C,C4*
X152757142Y-87161666D02*
X152804761Y-87209285D01*
X152852380Y-87352142D01*
X152852380Y-87447380D01*
X152804761Y-87590238D01*
X152709523Y-87685476D01*
X152614285Y-87733095D01*
X152423809Y-87780714D01*
X152280952Y-87780714D01*
X152090476Y-87733095D01*
X151995238Y-87685476D01*
X151899999Y-87590238D01*
X151852380Y-87447380D01*
X151852380Y-87352142D01*
X151899999Y-87209285D01*
X151947619Y-87161666D01*
X152185714Y-86304523D02*
X152852380Y-86304523D01*
X151804761Y-86542619D02*
X152519047Y-86780714D01*
X152519047Y-86161666D01*
G04 #@! TO.C,C5*
X152757142Y-97321666D02*
X152804761Y-97369285D01*
X152852380Y-97512142D01*
X152852380Y-97607380D01*
X152804761Y-97750238D01*
X152709523Y-97845476D01*
X152614285Y-97893095D01*
X152423809Y-97940714D01*
X152280952Y-97940714D01*
X152090476Y-97893095D01*
X151995238Y-97845476D01*
X151899999Y-97750238D01*
X151852380Y-97607380D01*
X151852380Y-97512142D01*
X151899999Y-97369285D01*
X151947619Y-97321666D01*
X151852380Y-96416904D02*
X151852380Y-96893095D01*
X152328571Y-96940714D01*
X152280952Y-96893095D01*
X152233333Y-96797857D01*
X152233333Y-96559761D01*
X152280952Y-96464523D01*
X152328571Y-96416904D01*
X152423809Y-96369285D01*
X152661904Y-96369285D01*
X152757142Y-96416904D01*
X152804761Y-96464523D01*
X152852380Y-96559761D01*
X152852380Y-96797857D01*
X152804761Y-96893095D01*
X152757142Y-96940714D01*
G04 #@! TO.C,J10*
D10*
X157939619Y-101841904D02*
X156923619Y-101841904D01*
X157939619Y-101358095D02*
X156923619Y-101358095D01*
X157939619Y-100777523D01*
X156923619Y-100777523D01*
X157939619Y-100293714D02*
X156923619Y-100293714D01*
X156923619Y-99906666D01*
X156971999Y-99809904D01*
X157020380Y-99761523D01*
X157117142Y-99713142D01*
X157262285Y-99713142D01*
X157359047Y-99761523D01*
X157407428Y-99809904D01*
X157455809Y-99906666D01*
X157455809Y-100293714D01*
X156923619Y-99277714D02*
X157746095Y-99277714D01*
X157842857Y-99229333D01*
X157891238Y-99180952D01*
X157939619Y-99084190D01*
X157939619Y-98890666D01*
X157891238Y-98793904D01*
X157842857Y-98745523D01*
X157746095Y-98697142D01*
X156923619Y-98697142D01*
X156923619Y-98358476D02*
X156923619Y-97777904D01*
X157939619Y-98068190D02*
X156923619Y-98068190D01*
X158036380Y-97681142D02*
X158036380Y-96907047D01*
X157649333Y-96713523D02*
X157649333Y-96229714D01*
X157939619Y-96810285D02*
X156923619Y-96471619D01*
X157939619Y-96132952D01*
G04 #@! TO.C,J11*
X157939619Y-94294476D02*
X156923619Y-94294476D01*
X157939619Y-93810666D02*
X156923619Y-93810666D01*
X157939619Y-93230095D01*
X156923619Y-93230095D01*
X157939619Y-92746285D02*
X156923619Y-92746285D01*
X156923619Y-92359238D01*
X156971999Y-92262476D01*
X157020380Y-92214095D01*
X157117142Y-92165714D01*
X157262285Y-92165714D01*
X157359047Y-92214095D01*
X157407428Y-92262476D01*
X157455809Y-92359238D01*
X157455809Y-92746285D01*
X156923619Y-91730285D02*
X157746095Y-91730285D01*
X157842857Y-91681904D01*
X157891238Y-91633523D01*
X157939619Y-91536761D01*
X157939619Y-91343238D01*
X157891238Y-91246476D01*
X157842857Y-91198095D01*
X157746095Y-91149714D01*
X156923619Y-91149714D01*
X156923619Y-90811047D02*
X156923619Y-90230476D01*
X157939619Y-90520761D02*
X156923619Y-90520761D01*
X158036380Y-90133714D02*
X158036380Y-89359619D01*
X157407428Y-88779047D02*
X157455809Y-88633904D01*
X157504190Y-88585523D01*
X157600952Y-88537142D01*
X157746095Y-88537142D01*
X157842857Y-88585523D01*
X157891238Y-88633904D01*
X157939619Y-88730666D01*
X157939619Y-89117714D01*
X156923619Y-89117714D01*
X156923619Y-88779047D01*
X156972000Y-88682285D01*
X157020380Y-88633904D01*
X157117142Y-88585523D01*
X157213904Y-88585523D01*
X157310666Y-88633904D01*
X157359047Y-88682285D01*
X157407428Y-88779047D01*
X157407428Y-89117714D01*
G04 #@! TO.C,J12*
X157939619Y-87666285D02*
X156923619Y-87666285D01*
X157939619Y-87182476D02*
X156923619Y-87182476D01*
X157939619Y-86601904D01*
X156923619Y-86601904D01*
X157939619Y-86118095D02*
X156923619Y-86118095D01*
X156923619Y-85731047D01*
X156971999Y-85634285D01*
X157020380Y-85585904D01*
X157117142Y-85537523D01*
X157262285Y-85537523D01*
X157359047Y-85585904D01*
X157407428Y-85634285D01*
X157455809Y-85731047D01*
X157455809Y-86118095D01*
X156923619Y-85102095D02*
X157746095Y-85102095D01*
X157842857Y-85053714D01*
X157891238Y-85005333D01*
X157939619Y-84908571D01*
X157939619Y-84715047D01*
X157891238Y-84618285D01*
X157842857Y-84569904D01*
X157746095Y-84521523D01*
X156923619Y-84521523D01*
X156923619Y-84182857D02*
X156923619Y-83602285D01*
X157939619Y-83892571D02*
X156923619Y-83892571D01*
X158036380Y-83505523D02*
X158036380Y-82731428D01*
X156923619Y-82586285D02*
X156923619Y-81908952D01*
X157939619Y-82586285D01*
X157939619Y-81908952D01*
X157842857Y-80941333D02*
X157891238Y-80989714D01*
X157939619Y-81134857D01*
X157939619Y-81231619D01*
X157891238Y-81376761D01*
X157794476Y-81473523D01*
X157697714Y-81521904D01*
X157504190Y-81570285D01*
X157359047Y-81570285D01*
X157165523Y-81521904D01*
X157068761Y-81473523D01*
X156972000Y-81376761D01*
X156923619Y-81231619D01*
X156923619Y-81134857D01*
X156972000Y-80989714D01*
X157020380Y-80941333D01*
X157939619Y-80505904D02*
X156923619Y-80505904D01*
X156923619Y-80264000D01*
X156972000Y-80118857D01*
X157068761Y-80022095D01*
X157165523Y-79973714D01*
X157359047Y-79925333D01*
X157504190Y-79925333D01*
X157697714Y-79973714D01*
X157794476Y-80022095D01*
X157891238Y-80118857D01*
X157939619Y-80264000D01*
X157939619Y-80505904D01*
G04 #@! TO.C,J13*
X157939619Y-72982666D02*
X156923619Y-72982666D01*
X157020380Y-72547238D02*
X156971999Y-72498857D01*
X156923619Y-72402095D01*
X156923619Y-72160190D01*
X156971999Y-72063428D01*
X157020380Y-72015047D01*
X157117142Y-71966666D01*
X157213904Y-71966666D01*
X157359047Y-72015047D01*
X157939619Y-72595619D01*
X157939619Y-71966666D01*
X157842857Y-70950666D02*
X157891238Y-70999047D01*
X157939619Y-71144190D01*
X157939619Y-71240952D01*
X157891238Y-71386095D01*
X157794476Y-71482857D01*
X157697714Y-71531238D01*
X157504190Y-71579619D01*
X157359047Y-71579619D01*
X157165523Y-71531238D01*
X157068761Y-71482857D01*
X156971999Y-71386095D01*
X156923619Y-71240952D01*
X156923619Y-71144190D01*
X156972000Y-70999047D01*
X157020380Y-70950666D01*
X158036380Y-70757142D02*
X158036380Y-69983047D01*
X157939619Y-69208952D02*
X157939619Y-69789523D01*
X157939619Y-69499238D02*
X156923619Y-69499238D01*
X157068761Y-69596000D01*
X157165523Y-69692761D01*
X157213904Y-69789523D01*
G04 #@! TO.C,J14*
X150319619Y-72982666D02*
X149303619Y-72982666D01*
X149400380Y-72547238D02*
X149351999Y-72498857D01*
X149303619Y-72402095D01*
X149303619Y-72160190D01*
X149351999Y-72063428D01*
X149400380Y-72015047D01*
X149497142Y-71966666D01*
X149593904Y-71966666D01*
X149739047Y-72015047D01*
X150319619Y-72595619D01*
X150319619Y-71966666D01*
X150222857Y-70950666D02*
X150271238Y-70999047D01*
X150319619Y-71144190D01*
X150319619Y-71240952D01*
X150271238Y-71386095D01*
X150174476Y-71482857D01*
X150077714Y-71531238D01*
X149884190Y-71579619D01*
X149739047Y-71579619D01*
X149545523Y-71531238D01*
X149448761Y-71482857D01*
X149351999Y-71386095D01*
X149303619Y-71240952D01*
X149303619Y-71144190D01*
X149352000Y-70999047D01*
X149400380Y-70950666D01*
X150416380Y-70757142D02*
X150416380Y-69983047D01*
X149400380Y-69789523D02*
X149352000Y-69741142D01*
X149303619Y-69644380D01*
X149303619Y-69402476D01*
X149352000Y-69305714D01*
X149400380Y-69257333D01*
X149497142Y-69208952D01*
X149593904Y-69208952D01*
X149739047Y-69257333D01*
X150319619Y-69837904D01*
X150319619Y-69208952D01*
G04 #@! TO.C,R1*
D11*
X157313333Y-79192380D02*
X156979999Y-78716190D01*
X156741904Y-79192380D02*
X156741904Y-78192380D01*
X157122857Y-78192380D01*
X157218095Y-78240000D01*
X157265714Y-78287619D01*
X157313333Y-78382857D01*
X157313333Y-78525714D01*
X157265714Y-78620952D01*
X157218095Y-78668571D01*
X157122857Y-78716190D01*
X156741904Y-78716190D01*
X158265714Y-79192380D02*
X157694285Y-79192380D01*
X157979999Y-79192380D02*
X157979999Y-78192380D01*
X157884761Y-78335238D01*
X157789523Y-78430476D01*
X157694285Y-78478095D01*
G04 #@! TO.C,R2*
X132548333Y-67127380D02*
X132214999Y-66651190D01*
X131976904Y-67127380D02*
X131976904Y-66127380D01*
X132357857Y-66127380D01*
X132453095Y-66175000D01*
X132500714Y-66222619D01*
X132548333Y-66317857D01*
X132548333Y-66460714D01*
X132500714Y-66555952D01*
X132453095Y-66603571D01*
X132357857Y-66651190D01*
X131976904Y-66651190D01*
X132929285Y-66222619D02*
X132976904Y-66175000D01*
X133072142Y-66127380D01*
X133310238Y-66127380D01*
X133405476Y-66175000D01*
X133453095Y-66222619D01*
X133500714Y-66317857D01*
X133500714Y-66413095D01*
X133453095Y-66555952D01*
X132881666Y-67127380D01*
X133500714Y-67127380D01*
G04 #@! TO.C,R3*
X147137380Y-82081666D02*
X146661190Y-82415000D01*
X147137380Y-82653095D02*
X146137380Y-82653095D01*
X146137380Y-82272142D01*
X146184999Y-82176904D01*
X146232619Y-82129285D01*
X146327857Y-82081666D01*
X146470714Y-82081666D01*
X146565952Y-82129285D01*
X146613571Y-82176904D01*
X146661190Y-82272142D01*
X146661190Y-82653095D01*
X146137380Y-81748333D02*
X146137380Y-81129285D01*
X146518333Y-81462619D01*
X146518333Y-81319761D01*
X146565952Y-81224523D01*
X146613571Y-81176904D01*
X146708809Y-81129285D01*
X146946904Y-81129285D01*
X147042142Y-81176904D01*
X147089761Y-81224523D01*
X147137380Y-81319761D01*
X147137380Y-81605476D01*
X147089761Y-81700714D01*
X147042142Y-81748333D01*
G04 #@! TO.C,R5*
X145232380Y-68111666D02*
X144756190Y-68445000D01*
X145232380Y-68683095D02*
X144232380Y-68683095D01*
X144232380Y-68302142D01*
X144279999Y-68206904D01*
X144327619Y-68159285D01*
X144422857Y-68111666D01*
X144565714Y-68111666D01*
X144660952Y-68159285D01*
X144708571Y-68206904D01*
X144756190Y-68302142D01*
X144756190Y-68683095D01*
X144232380Y-67206904D02*
X144232380Y-67683095D01*
X144708571Y-67730714D01*
X144660952Y-67683095D01*
X144613333Y-67587857D01*
X144613333Y-67349761D01*
X144660952Y-67254523D01*
X144708571Y-67206904D01*
X144803809Y-67159285D01*
X145041904Y-67159285D01*
X145137142Y-67206904D01*
X145184761Y-67254523D01*
X145232380Y-67349761D01*
X145232380Y-67587857D01*
X145184761Y-67683095D01*
X145137142Y-67730714D01*
G04 #@! TO.C,R6*
X147772380Y-68111666D02*
X147296190Y-68445000D01*
X147772380Y-68683095D02*
X146772380Y-68683095D01*
X146772380Y-68302142D01*
X146819999Y-68206904D01*
X146867619Y-68159285D01*
X146962857Y-68111666D01*
X147105714Y-68111666D01*
X147200952Y-68159285D01*
X147248571Y-68206904D01*
X147296190Y-68302142D01*
X147296190Y-68683095D01*
X146772380Y-67254523D02*
X146772380Y-67445000D01*
X146820000Y-67540238D01*
X146867619Y-67587857D01*
X147010476Y-67683095D01*
X147200952Y-67730714D01*
X147581904Y-67730714D01*
X147677142Y-67683095D01*
X147724761Y-67635476D01*
X147772380Y-67540238D01*
X147772380Y-67349761D01*
X147724761Y-67254523D01*
X147677142Y-67206904D01*
X147581904Y-67159285D01*
X147343809Y-67159285D01*
X147248571Y-67206904D01*
X147200952Y-67254523D01*
X147153333Y-67349761D01*
X147153333Y-67540238D01*
X147200952Y-67635476D01*
X147248571Y-67683095D01*
X147343809Y-67730714D01*
G04 #@! TO.C,J6*
X148820476Y-103036666D02*
X149296666Y-103036666D01*
X148725238Y-103322380D02*
X149058571Y-102322380D01*
X149391904Y-103322380D01*
X149725238Y-102655714D02*
X149725238Y-103322380D01*
X149725238Y-102750952D02*
X149772857Y-102703333D01*
X149868095Y-102655714D01*
X150010952Y-102655714D01*
X150106190Y-102703333D01*
X150153809Y-102798571D01*
X150153809Y-103322380D01*
X151058571Y-103322380D02*
X151058571Y-102798571D01*
X151010952Y-102703333D01*
X150915714Y-102655714D01*
X150725238Y-102655714D01*
X150629999Y-102703333D01*
X151058571Y-103274761D02*
X150963333Y-103322380D01*
X150725238Y-103322380D01*
X150629999Y-103274761D01*
X150582380Y-103179523D01*
X150582380Y-103084285D01*
X150629999Y-102989047D01*
X150725238Y-102941428D01*
X150963333Y-102941428D01*
X151058571Y-102893809D01*
X151677619Y-103322380D02*
X151582380Y-103274761D01*
X151534761Y-103179523D01*
X151534761Y-102322380D01*
X152201428Y-103322380D02*
X152106190Y-103274761D01*
X152058571Y-103227142D01*
X152010952Y-103131904D01*
X152010952Y-102846190D01*
X152058571Y-102750952D01*
X152106190Y-102703333D01*
X152201428Y-102655714D01*
X152344285Y-102655714D01*
X152439523Y-102703333D01*
X152487142Y-102750952D01*
X152534761Y-102846190D01*
X152534761Y-103131904D01*
X152487142Y-103227142D01*
X152439523Y-103274761D01*
X152344285Y-103322380D01*
X152201428Y-103322380D01*
X153391904Y-102655714D02*
X153391904Y-103465238D01*
X153344285Y-103560476D01*
X153296666Y-103608095D01*
X153201428Y-103655714D01*
X153058571Y-103655714D01*
X152963333Y-103608095D01*
X153391904Y-103274761D02*
X153296666Y-103322380D01*
X153106190Y-103322380D01*
X153010952Y-103274761D01*
X152963333Y-103227142D01*
X152915714Y-103131904D01*
X152915714Y-102846190D01*
X152963333Y-102750952D01*
X153010952Y-102703333D01*
X153106190Y-102655714D01*
X153296666Y-102655714D01*
X153391904Y-102703333D01*
G04 #@! TO.C,D1*
X149677380Y-83923095D02*
X148677380Y-83923095D01*
X148677380Y-83685000D01*
X148724999Y-83542142D01*
X148820238Y-83446904D01*
X148915476Y-83399285D01*
X149105952Y-83351666D01*
X149248809Y-83351666D01*
X149439285Y-83399285D01*
X149534523Y-83446904D01*
X149629761Y-83542142D01*
X149677380Y-83685000D01*
X149677380Y-83923095D01*
X149677380Y-82399285D02*
X149677380Y-82970714D01*
X149677380Y-82685000D02*
X148677380Y-82685000D01*
X148820238Y-82780238D01*
X148915476Y-82875476D01*
X148963095Y-82970714D01*
G04 #@! TD*
M02*
