G04 #@! TF.GenerationSoftware,KiCad,Pcbnew,(5.0.1)-4*
G04 #@! TF.CreationDate,2020-04-30T20:25:35+02:00*
G04 #@! TF.ProjectId,freqcounter,66726571636F756E7465722E6B696361,1*
G04 #@! TF.SameCoordinates,Original*
G04 #@! TF.FileFunction,Paste,Top*
G04 #@! TF.FilePolarity,Positive*
%FSLAX46Y46*%
G04 Gerber Fmt 4.6, Leading zero omitted, Abs format (unit mm)*
G04 Created by KiCad (PCBNEW (5.0.1)-4) date 30/04/2020 20:25:35*
%MOMM*%
%LPD*%
G01*
G04 APERTURE LIST*
%ADD10R,1.200000X1.600000*%
%ADD11R,1.100000X1.400000*%
%ADD12C,0.100000*%
%ADD13C,1.150000*%
%ADD14R,1.950000X0.600000*%
%ADD15R,2.032000X1.270000*%
G04 APERTURE END LIST*
D10*
G04 #@! TO.C,U2*
X147825000Y-90075000D03*
X147825000Y-94075000D03*
X150625000Y-94075000D03*
X150625000Y-90075000D03*
D11*
X148375000Y-93175000D03*
X148375000Y-90975000D03*
X150075000Y-90975000D03*
X150075000Y-93175000D03*
G04 #@! TD*
D12*
G04 #@! TO.C,R4*
G36*
X152239505Y-80461204D02*
X152263773Y-80464804D01*
X152287572Y-80470765D01*
X152310671Y-80479030D01*
X152332850Y-80489520D01*
X152353893Y-80502132D01*
X152373599Y-80516747D01*
X152391777Y-80533223D01*
X152408253Y-80551401D01*
X152422868Y-80571107D01*
X152435480Y-80592150D01*
X152445970Y-80614329D01*
X152454235Y-80637428D01*
X152460196Y-80661227D01*
X152463796Y-80685495D01*
X152465000Y-80709999D01*
X152465000Y-81360001D01*
X152463796Y-81384505D01*
X152460196Y-81408773D01*
X152454235Y-81432572D01*
X152445970Y-81455671D01*
X152435480Y-81477850D01*
X152422868Y-81498893D01*
X152408253Y-81518599D01*
X152391777Y-81536777D01*
X152373599Y-81553253D01*
X152353893Y-81567868D01*
X152332850Y-81580480D01*
X152310671Y-81590970D01*
X152287572Y-81599235D01*
X152263773Y-81605196D01*
X152239505Y-81608796D01*
X152215001Y-81610000D01*
X151314999Y-81610000D01*
X151290495Y-81608796D01*
X151266227Y-81605196D01*
X151242428Y-81599235D01*
X151219329Y-81590970D01*
X151197150Y-81580480D01*
X151176107Y-81567868D01*
X151156401Y-81553253D01*
X151138223Y-81536777D01*
X151121747Y-81518599D01*
X151107132Y-81498893D01*
X151094520Y-81477850D01*
X151084030Y-81455671D01*
X151075765Y-81432572D01*
X151069804Y-81408773D01*
X151066204Y-81384505D01*
X151065000Y-81360001D01*
X151065000Y-80709999D01*
X151066204Y-80685495D01*
X151069804Y-80661227D01*
X151075765Y-80637428D01*
X151084030Y-80614329D01*
X151094520Y-80592150D01*
X151107132Y-80571107D01*
X151121747Y-80551401D01*
X151138223Y-80533223D01*
X151156401Y-80516747D01*
X151176107Y-80502132D01*
X151197150Y-80489520D01*
X151219329Y-80479030D01*
X151242428Y-80470765D01*
X151266227Y-80464804D01*
X151290495Y-80461204D01*
X151314999Y-80460000D01*
X152215001Y-80460000D01*
X152239505Y-80461204D01*
X152239505Y-80461204D01*
G37*
D13*
X151765000Y-81035000D03*
D12*
G36*
X152239505Y-78411204D02*
X152263773Y-78414804D01*
X152287572Y-78420765D01*
X152310671Y-78429030D01*
X152332850Y-78439520D01*
X152353893Y-78452132D01*
X152373599Y-78466747D01*
X152391777Y-78483223D01*
X152408253Y-78501401D01*
X152422868Y-78521107D01*
X152435480Y-78542150D01*
X152445970Y-78564329D01*
X152454235Y-78587428D01*
X152460196Y-78611227D01*
X152463796Y-78635495D01*
X152465000Y-78659999D01*
X152465000Y-79310001D01*
X152463796Y-79334505D01*
X152460196Y-79358773D01*
X152454235Y-79382572D01*
X152445970Y-79405671D01*
X152435480Y-79427850D01*
X152422868Y-79448893D01*
X152408253Y-79468599D01*
X152391777Y-79486777D01*
X152373599Y-79503253D01*
X152353893Y-79517868D01*
X152332850Y-79530480D01*
X152310671Y-79540970D01*
X152287572Y-79549235D01*
X152263773Y-79555196D01*
X152239505Y-79558796D01*
X152215001Y-79560000D01*
X151314999Y-79560000D01*
X151290495Y-79558796D01*
X151266227Y-79555196D01*
X151242428Y-79549235D01*
X151219329Y-79540970D01*
X151197150Y-79530480D01*
X151176107Y-79517868D01*
X151156401Y-79503253D01*
X151138223Y-79486777D01*
X151121747Y-79468599D01*
X151107132Y-79448893D01*
X151094520Y-79427850D01*
X151084030Y-79405671D01*
X151075765Y-79382572D01*
X151069804Y-79358773D01*
X151066204Y-79334505D01*
X151065000Y-79310001D01*
X151065000Y-78659999D01*
X151066204Y-78635495D01*
X151069804Y-78611227D01*
X151075765Y-78587428D01*
X151084030Y-78564329D01*
X151094520Y-78542150D01*
X151107132Y-78521107D01*
X151121747Y-78501401D01*
X151138223Y-78483223D01*
X151156401Y-78466747D01*
X151176107Y-78452132D01*
X151197150Y-78439520D01*
X151219329Y-78429030D01*
X151242428Y-78420765D01*
X151266227Y-78414804D01*
X151290495Y-78411204D01*
X151314999Y-78410000D01*
X152215001Y-78410000D01*
X152239505Y-78411204D01*
X152239505Y-78411204D01*
G37*
D13*
X151765000Y-78985000D03*
G04 #@! TD*
D14*
G04 #@! TO.C,U1*
X143130000Y-86995000D03*
X143130000Y-85725000D03*
X143130000Y-84455000D03*
X143130000Y-83185000D03*
X143130000Y-81915000D03*
X143130000Y-80645000D03*
X143130000Y-79375000D03*
X143130000Y-78105000D03*
X143130000Y-76835000D03*
X143130000Y-75565000D03*
X133730000Y-75565000D03*
X133730000Y-76835000D03*
X133730000Y-78105000D03*
X133730000Y-79375000D03*
X133730000Y-80645000D03*
X133730000Y-81915000D03*
X133730000Y-83185000D03*
X133730000Y-84455000D03*
X133730000Y-85725000D03*
X133730000Y-86995000D03*
G04 #@! TD*
D12*
G04 #@! TO.C,C1*
G36*
X137754505Y-90106204D02*
X137778773Y-90109804D01*
X137802572Y-90115765D01*
X137825671Y-90124030D01*
X137847850Y-90134520D01*
X137868893Y-90147132D01*
X137888599Y-90161747D01*
X137906777Y-90178223D01*
X137923253Y-90196401D01*
X137937868Y-90216107D01*
X137950480Y-90237150D01*
X137960970Y-90259329D01*
X137969235Y-90282428D01*
X137975196Y-90306227D01*
X137978796Y-90330495D01*
X137980000Y-90354999D01*
X137980000Y-91255001D01*
X137978796Y-91279505D01*
X137975196Y-91303773D01*
X137969235Y-91327572D01*
X137960970Y-91350671D01*
X137950480Y-91372850D01*
X137937868Y-91393893D01*
X137923253Y-91413599D01*
X137906777Y-91431777D01*
X137888599Y-91448253D01*
X137868893Y-91462868D01*
X137847850Y-91475480D01*
X137825671Y-91485970D01*
X137802572Y-91494235D01*
X137778773Y-91500196D01*
X137754505Y-91503796D01*
X137730001Y-91505000D01*
X137079999Y-91505000D01*
X137055495Y-91503796D01*
X137031227Y-91500196D01*
X137007428Y-91494235D01*
X136984329Y-91485970D01*
X136962150Y-91475480D01*
X136941107Y-91462868D01*
X136921401Y-91448253D01*
X136903223Y-91431777D01*
X136886747Y-91413599D01*
X136872132Y-91393893D01*
X136859520Y-91372850D01*
X136849030Y-91350671D01*
X136840765Y-91327572D01*
X136834804Y-91303773D01*
X136831204Y-91279505D01*
X136830000Y-91255001D01*
X136830000Y-90354999D01*
X136831204Y-90330495D01*
X136834804Y-90306227D01*
X136840765Y-90282428D01*
X136849030Y-90259329D01*
X136859520Y-90237150D01*
X136872132Y-90216107D01*
X136886747Y-90196401D01*
X136903223Y-90178223D01*
X136921401Y-90161747D01*
X136941107Y-90147132D01*
X136962150Y-90134520D01*
X136984329Y-90124030D01*
X137007428Y-90115765D01*
X137031227Y-90109804D01*
X137055495Y-90106204D01*
X137079999Y-90105000D01*
X137730001Y-90105000D01*
X137754505Y-90106204D01*
X137754505Y-90106204D01*
G37*
D13*
X137405000Y-90805000D03*
D12*
G36*
X139804505Y-90106204D02*
X139828773Y-90109804D01*
X139852572Y-90115765D01*
X139875671Y-90124030D01*
X139897850Y-90134520D01*
X139918893Y-90147132D01*
X139938599Y-90161747D01*
X139956777Y-90178223D01*
X139973253Y-90196401D01*
X139987868Y-90216107D01*
X140000480Y-90237150D01*
X140010970Y-90259329D01*
X140019235Y-90282428D01*
X140025196Y-90306227D01*
X140028796Y-90330495D01*
X140030000Y-90354999D01*
X140030000Y-91255001D01*
X140028796Y-91279505D01*
X140025196Y-91303773D01*
X140019235Y-91327572D01*
X140010970Y-91350671D01*
X140000480Y-91372850D01*
X139987868Y-91393893D01*
X139973253Y-91413599D01*
X139956777Y-91431777D01*
X139938599Y-91448253D01*
X139918893Y-91462868D01*
X139897850Y-91475480D01*
X139875671Y-91485970D01*
X139852572Y-91494235D01*
X139828773Y-91500196D01*
X139804505Y-91503796D01*
X139780001Y-91505000D01*
X139129999Y-91505000D01*
X139105495Y-91503796D01*
X139081227Y-91500196D01*
X139057428Y-91494235D01*
X139034329Y-91485970D01*
X139012150Y-91475480D01*
X138991107Y-91462868D01*
X138971401Y-91448253D01*
X138953223Y-91431777D01*
X138936747Y-91413599D01*
X138922132Y-91393893D01*
X138909520Y-91372850D01*
X138899030Y-91350671D01*
X138890765Y-91327572D01*
X138884804Y-91303773D01*
X138881204Y-91279505D01*
X138880000Y-91255001D01*
X138880000Y-90354999D01*
X138881204Y-90330495D01*
X138884804Y-90306227D01*
X138890765Y-90282428D01*
X138899030Y-90259329D01*
X138909520Y-90237150D01*
X138922132Y-90216107D01*
X138936747Y-90196401D01*
X138953223Y-90178223D01*
X138971401Y-90161747D01*
X138991107Y-90147132D01*
X139012150Y-90134520D01*
X139034329Y-90124030D01*
X139057428Y-90115765D01*
X139081227Y-90109804D01*
X139105495Y-90106204D01*
X139129999Y-90105000D01*
X139780001Y-90105000D01*
X139804505Y-90106204D01*
X139804505Y-90106204D01*
G37*
D13*
X139455000Y-90805000D03*
G04 #@! TD*
D12*
G04 #@! TO.C,C2*
G36*
X137754505Y-88201204D02*
X137778773Y-88204804D01*
X137802572Y-88210765D01*
X137825671Y-88219030D01*
X137847850Y-88229520D01*
X137868893Y-88242132D01*
X137888599Y-88256747D01*
X137906777Y-88273223D01*
X137923253Y-88291401D01*
X137937868Y-88311107D01*
X137950480Y-88332150D01*
X137960970Y-88354329D01*
X137969235Y-88377428D01*
X137975196Y-88401227D01*
X137978796Y-88425495D01*
X137980000Y-88449999D01*
X137980000Y-89350001D01*
X137978796Y-89374505D01*
X137975196Y-89398773D01*
X137969235Y-89422572D01*
X137960970Y-89445671D01*
X137950480Y-89467850D01*
X137937868Y-89488893D01*
X137923253Y-89508599D01*
X137906777Y-89526777D01*
X137888599Y-89543253D01*
X137868893Y-89557868D01*
X137847850Y-89570480D01*
X137825671Y-89580970D01*
X137802572Y-89589235D01*
X137778773Y-89595196D01*
X137754505Y-89598796D01*
X137730001Y-89600000D01*
X137079999Y-89600000D01*
X137055495Y-89598796D01*
X137031227Y-89595196D01*
X137007428Y-89589235D01*
X136984329Y-89580970D01*
X136962150Y-89570480D01*
X136941107Y-89557868D01*
X136921401Y-89543253D01*
X136903223Y-89526777D01*
X136886747Y-89508599D01*
X136872132Y-89488893D01*
X136859520Y-89467850D01*
X136849030Y-89445671D01*
X136840765Y-89422572D01*
X136834804Y-89398773D01*
X136831204Y-89374505D01*
X136830000Y-89350001D01*
X136830000Y-88449999D01*
X136831204Y-88425495D01*
X136834804Y-88401227D01*
X136840765Y-88377428D01*
X136849030Y-88354329D01*
X136859520Y-88332150D01*
X136872132Y-88311107D01*
X136886747Y-88291401D01*
X136903223Y-88273223D01*
X136921401Y-88256747D01*
X136941107Y-88242132D01*
X136962150Y-88229520D01*
X136984329Y-88219030D01*
X137007428Y-88210765D01*
X137031227Y-88204804D01*
X137055495Y-88201204D01*
X137079999Y-88200000D01*
X137730001Y-88200000D01*
X137754505Y-88201204D01*
X137754505Y-88201204D01*
G37*
D13*
X137405000Y-88900000D03*
D12*
G36*
X139804505Y-88201204D02*
X139828773Y-88204804D01*
X139852572Y-88210765D01*
X139875671Y-88219030D01*
X139897850Y-88229520D01*
X139918893Y-88242132D01*
X139938599Y-88256747D01*
X139956777Y-88273223D01*
X139973253Y-88291401D01*
X139987868Y-88311107D01*
X140000480Y-88332150D01*
X140010970Y-88354329D01*
X140019235Y-88377428D01*
X140025196Y-88401227D01*
X140028796Y-88425495D01*
X140030000Y-88449999D01*
X140030000Y-89350001D01*
X140028796Y-89374505D01*
X140025196Y-89398773D01*
X140019235Y-89422572D01*
X140010970Y-89445671D01*
X140000480Y-89467850D01*
X139987868Y-89488893D01*
X139973253Y-89508599D01*
X139956777Y-89526777D01*
X139938599Y-89543253D01*
X139918893Y-89557868D01*
X139897850Y-89570480D01*
X139875671Y-89580970D01*
X139852572Y-89589235D01*
X139828773Y-89595196D01*
X139804505Y-89598796D01*
X139780001Y-89600000D01*
X139129999Y-89600000D01*
X139105495Y-89598796D01*
X139081227Y-89595196D01*
X139057428Y-89589235D01*
X139034329Y-89580970D01*
X139012150Y-89570480D01*
X138991107Y-89557868D01*
X138971401Y-89543253D01*
X138953223Y-89526777D01*
X138936747Y-89508599D01*
X138922132Y-89488893D01*
X138909520Y-89467850D01*
X138899030Y-89445671D01*
X138890765Y-89422572D01*
X138884804Y-89398773D01*
X138881204Y-89374505D01*
X138880000Y-89350001D01*
X138880000Y-88449999D01*
X138881204Y-88425495D01*
X138884804Y-88401227D01*
X138890765Y-88377428D01*
X138899030Y-88354329D01*
X138909520Y-88332150D01*
X138922132Y-88311107D01*
X138936747Y-88291401D01*
X138953223Y-88273223D01*
X138971401Y-88256747D01*
X138991107Y-88242132D01*
X139012150Y-88229520D01*
X139034329Y-88219030D01*
X139057428Y-88210765D01*
X139081227Y-88204804D01*
X139105495Y-88201204D01*
X139129999Y-88200000D01*
X139780001Y-88200000D01*
X139804505Y-88201204D01*
X139804505Y-88201204D01*
G37*
D13*
X139455000Y-88900000D03*
G04 #@! TD*
D12*
G04 #@! TO.C,C3*
G36*
X154779505Y-80461204D02*
X154803773Y-80464804D01*
X154827572Y-80470765D01*
X154850671Y-80479030D01*
X154872850Y-80489520D01*
X154893893Y-80502132D01*
X154913599Y-80516747D01*
X154931777Y-80533223D01*
X154948253Y-80551401D01*
X154962868Y-80571107D01*
X154975480Y-80592150D01*
X154985970Y-80614329D01*
X154994235Y-80637428D01*
X155000196Y-80661227D01*
X155003796Y-80685495D01*
X155005000Y-80709999D01*
X155005000Y-81360001D01*
X155003796Y-81384505D01*
X155000196Y-81408773D01*
X154994235Y-81432572D01*
X154985970Y-81455671D01*
X154975480Y-81477850D01*
X154962868Y-81498893D01*
X154948253Y-81518599D01*
X154931777Y-81536777D01*
X154913599Y-81553253D01*
X154893893Y-81567868D01*
X154872850Y-81580480D01*
X154850671Y-81590970D01*
X154827572Y-81599235D01*
X154803773Y-81605196D01*
X154779505Y-81608796D01*
X154755001Y-81610000D01*
X153854999Y-81610000D01*
X153830495Y-81608796D01*
X153806227Y-81605196D01*
X153782428Y-81599235D01*
X153759329Y-81590970D01*
X153737150Y-81580480D01*
X153716107Y-81567868D01*
X153696401Y-81553253D01*
X153678223Y-81536777D01*
X153661747Y-81518599D01*
X153647132Y-81498893D01*
X153634520Y-81477850D01*
X153624030Y-81455671D01*
X153615765Y-81432572D01*
X153609804Y-81408773D01*
X153606204Y-81384505D01*
X153605000Y-81360001D01*
X153605000Y-80709999D01*
X153606204Y-80685495D01*
X153609804Y-80661227D01*
X153615765Y-80637428D01*
X153624030Y-80614329D01*
X153634520Y-80592150D01*
X153647132Y-80571107D01*
X153661747Y-80551401D01*
X153678223Y-80533223D01*
X153696401Y-80516747D01*
X153716107Y-80502132D01*
X153737150Y-80489520D01*
X153759329Y-80479030D01*
X153782428Y-80470765D01*
X153806227Y-80464804D01*
X153830495Y-80461204D01*
X153854999Y-80460000D01*
X154755001Y-80460000D01*
X154779505Y-80461204D01*
X154779505Y-80461204D01*
G37*
D13*
X154305000Y-81035000D03*
D12*
G36*
X154779505Y-78411204D02*
X154803773Y-78414804D01*
X154827572Y-78420765D01*
X154850671Y-78429030D01*
X154872850Y-78439520D01*
X154893893Y-78452132D01*
X154913599Y-78466747D01*
X154931777Y-78483223D01*
X154948253Y-78501401D01*
X154962868Y-78521107D01*
X154975480Y-78542150D01*
X154985970Y-78564329D01*
X154994235Y-78587428D01*
X155000196Y-78611227D01*
X155003796Y-78635495D01*
X155005000Y-78659999D01*
X155005000Y-79310001D01*
X155003796Y-79334505D01*
X155000196Y-79358773D01*
X154994235Y-79382572D01*
X154985970Y-79405671D01*
X154975480Y-79427850D01*
X154962868Y-79448893D01*
X154948253Y-79468599D01*
X154931777Y-79486777D01*
X154913599Y-79503253D01*
X154893893Y-79517868D01*
X154872850Y-79530480D01*
X154850671Y-79540970D01*
X154827572Y-79549235D01*
X154803773Y-79555196D01*
X154779505Y-79558796D01*
X154755001Y-79560000D01*
X153854999Y-79560000D01*
X153830495Y-79558796D01*
X153806227Y-79555196D01*
X153782428Y-79549235D01*
X153759329Y-79540970D01*
X153737150Y-79530480D01*
X153716107Y-79517868D01*
X153696401Y-79503253D01*
X153678223Y-79486777D01*
X153661747Y-79468599D01*
X153647132Y-79448893D01*
X153634520Y-79427850D01*
X153624030Y-79405671D01*
X153615765Y-79382572D01*
X153609804Y-79358773D01*
X153606204Y-79334505D01*
X153605000Y-79310001D01*
X153605000Y-78659999D01*
X153606204Y-78635495D01*
X153609804Y-78611227D01*
X153615765Y-78587428D01*
X153624030Y-78564329D01*
X153634520Y-78542150D01*
X153647132Y-78521107D01*
X153661747Y-78501401D01*
X153678223Y-78483223D01*
X153696401Y-78466747D01*
X153716107Y-78452132D01*
X153737150Y-78439520D01*
X153759329Y-78429030D01*
X153782428Y-78420765D01*
X153806227Y-78414804D01*
X153830495Y-78411204D01*
X153854999Y-78410000D01*
X154755001Y-78410000D01*
X154779505Y-78411204D01*
X154779505Y-78411204D01*
G37*
D13*
X154305000Y-78985000D03*
G04 #@! TD*
D12*
G04 #@! TO.C,C4*
G36*
X148549505Y-86296204D02*
X148573773Y-86299804D01*
X148597572Y-86305765D01*
X148620671Y-86314030D01*
X148642850Y-86324520D01*
X148663893Y-86337132D01*
X148683599Y-86351747D01*
X148701777Y-86368223D01*
X148718253Y-86386401D01*
X148732868Y-86406107D01*
X148745480Y-86427150D01*
X148755970Y-86449329D01*
X148764235Y-86472428D01*
X148770196Y-86496227D01*
X148773796Y-86520495D01*
X148775000Y-86544999D01*
X148775000Y-87445001D01*
X148773796Y-87469505D01*
X148770196Y-87493773D01*
X148764235Y-87517572D01*
X148755970Y-87540671D01*
X148745480Y-87562850D01*
X148732868Y-87583893D01*
X148718253Y-87603599D01*
X148701777Y-87621777D01*
X148683599Y-87638253D01*
X148663893Y-87652868D01*
X148642850Y-87665480D01*
X148620671Y-87675970D01*
X148597572Y-87684235D01*
X148573773Y-87690196D01*
X148549505Y-87693796D01*
X148525001Y-87695000D01*
X147874999Y-87695000D01*
X147850495Y-87693796D01*
X147826227Y-87690196D01*
X147802428Y-87684235D01*
X147779329Y-87675970D01*
X147757150Y-87665480D01*
X147736107Y-87652868D01*
X147716401Y-87638253D01*
X147698223Y-87621777D01*
X147681747Y-87603599D01*
X147667132Y-87583893D01*
X147654520Y-87562850D01*
X147644030Y-87540671D01*
X147635765Y-87517572D01*
X147629804Y-87493773D01*
X147626204Y-87469505D01*
X147625000Y-87445001D01*
X147625000Y-86544999D01*
X147626204Y-86520495D01*
X147629804Y-86496227D01*
X147635765Y-86472428D01*
X147644030Y-86449329D01*
X147654520Y-86427150D01*
X147667132Y-86406107D01*
X147681747Y-86386401D01*
X147698223Y-86368223D01*
X147716401Y-86351747D01*
X147736107Y-86337132D01*
X147757150Y-86324520D01*
X147779329Y-86314030D01*
X147802428Y-86305765D01*
X147826227Y-86299804D01*
X147850495Y-86296204D01*
X147874999Y-86295000D01*
X148525001Y-86295000D01*
X148549505Y-86296204D01*
X148549505Y-86296204D01*
G37*
D13*
X148200000Y-86995000D03*
D12*
G36*
X150599505Y-86296204D02*
X150623773Y-86299804D01*
X150647572Y-86305765D01*
X150670671Y-86314030D01*
X150692850Y-86324520D01*
X150713893Y-86337132D01*
X150733599Y-86351747D01*
X150751777Y-86368223D01*
X150768253Y-86386401D01*
X150782868Y-86406107D01*
X150795480Y-86427150D01*
X150805970Y-86449329D01*
X150814235Y-86472428D01*
X150820196Y-86496227D01*
X150823796Y-86520495D01*
X150825000Y-86544999D01*
X150825000Y-87445001D01*
X150823796Y-87469505D01*
X150820196Y-87493773D01*
X150814235Y-87517572D01*
X150805970Y-87540671D01*
X150795480Y-87562850D01*
X150782868Y-87583893D01*
X150768253Y-87603599D01*
X150751777Y-87621777D01*
X150733599Y-87638253D01*
X150713893Y-87652868D01*
X150692850Y-87665480D01*
X150670671Y-87675970D01*
X150647572Y-87684235D01*
X150623773Y-87690196D01*
X150599505Y-87693796D01*
X150575001Y-87695000D01*
X149924999Y-87695000D01*
X149900495Y-87693796D01*
X149876227Y-87690196D01*
X149852428Y-87684235D01*
X149829329Y-87675970D01*
X149807150Y-87665480D01*
X149786107Y-87652868D01*
X149766401Y-87638253D01*
X149748223Y-87621777D01*
X149731747Y-87603599D01*
X149717132Y-87583893D01*
X149704520Y-87562850D01*
X149694030Y-87540671D01*
X149685765Y-87517572D01*
X149679804Y-87493773D01*
X149676204Y-87469505D01*
X149675000Y-87445001D01*
X149675000Y-86544999D01*
X149676204Y-86520495D01*
X149679804Y-86496227D01*
X149685765Y-86472428D01*
X149694030Y-86449329D01*
X149704520Y-86427150D01*
X149717132Y-86406107D01*
X149731747Y-86386401D01*
X149748223Y-86368223D01*
X149766401Y-86351747D01*
X149786107Y-86337132D01*
X149807150Y-86324520D01*
X149829329Y-86314030D01*
X149852428Y-86305765D01*
X149876227Y-86299804D01*
X149900495Y-86296204D01*
X149924999Y-86295000D01*
X150575001Y-86295000D01*
X150599505Y-86296204D01*
X150599505Y-86296204D01*
G37*
D13*
X150250000Y-86995000D03*
G04 #@! TD*
D12*
G04 #@! TO.C,C5*
G36*
X150599505Y-96456204D02*
X150623773Y-96459804D01*
X150647572Y-96465765D01*
X150670671Y-96474030D01*
X150692850Y-96484520D01*
X150713893Y-96497132D01*
X150733599Y-96511747D01*
X150751777Y-96528223D01*
X150768253Y-96546401D01*
X150782868Y-96566107D01*
X150795480Y-96587150D01*
X150805970Y-96609329D01*
X150814235Y-96632428D01*
X150820196Y-96656227D01*
X150823796Y-96680495D01*
X150825000Y-96704999D01*
X150825000Y-97605001D01*
X150823796Y-97629505D01*
X150820196Y-97653773D01*
X150814235Y-97677572D01*
X150805970Y-97700671D01*
X150795480Y-97722850D01*
X150782868Y-97743893D01*
X150768253Y-97763599D01*
X150751777Y-97781777D01*
X150733599Y-97798253D01*
X150713893Y-97812868D01*
X150692850Y-97825480D01*
X150670671Y-97835970D01*
X150647572Y-97844235D01*
X150623773Y-97850196D01*
X150599505Y-97853796D01*
X150575001Y-97855000D01*
X149924999Y-97855000D01*
X149900495Y-97853796D01*
X149876227Y-97850196D01*
X149852428Y-97844235D01*
X149829329Y-97835970D01*
X149807150Y-97825480D01*
X149786107Y-97812868D01*
X149766401Y-97798253D01*
X149748223Y-97781777D01*
X149731747Y-97763599D01*
X149717132Y-97743893D01*
X149704520Y-97722850D01*
X149694030Y-97700671D01*
X149685765Y-97677572D01*
X149679804Y-97653773D01*
X149676204Y-97629505D01*
X149675000Y-97605001D01*
X149675000Y-96704999D01*
X149676204Y-96680495D01*
X149679804Y-96656227D01*
X149685765Y-96632428D01*
X149694030Y-96609329D01*
X149704520Y-96587150D01*
X149717132Y-96566107D01*
X149731747Y-96546401D01*
X149748223Y-96528223D01*
X149766401Y-96511747D01*
X149786107Y-96497132D01*
X149807150Y-96484520D01*
X149829329Y-96474030D01*
X149852428Y-96465765D01*
X149876227Y-96459804D01*
X149900495Y-96456204D01*
X149924999Y-96455000D01*
X150575001Y-96455000D01*
X150599505Y-96456204D01*
X150599505Y-96456204D01*
G37*
D13*
X150250000Y-97155000D03*
D12*
G36*
X148549505Y-96456204D02*
X148573773Y-96459804D01*
X148597572Y-96465765D01*
X148620671Y-96474030D01*
X148642850Y-96484520D01*
X148663893Y-96497132D01*
X148683599Y-96511747D01*
X148701777Y-96528223D01*
X148718253Y-96546401D01*
X148732868Y-96566107D01*
X148745480Y-96587150D01*
X148755970Y-96609329D01*
X148764235Y-96632428D01*
X148770196Y-96656227D01*
X148773796Y-96680495D01*
X148775000Y-96704999D01*
X148775000Y-97605001D01*
X148773796Y-97629505D01*
X148770196Y-97653773D01*
X148764235Y-97677572D01*
X148755970Y-97700671D01*
X148745480Y-97722850D01*
X148732868Y-97743893D01*
X148718253Y-97763599D01*
X148701777Y-97781777D01*
X148683599Y-97798253D01*
X148663893Y-97812868D01*
X148642850Y-97825480D01*
X148620671Y-97835970D01*
X148597572Y-97844235D01*
X148573773Y-97850196D01*
X148549505Y-97853796D01*
X148525001Y-97855000D01*
X147874999Y-97855000D01*
X147850495Y-97853796D01*
X147826227Y-97850196D01*
X147802428Y-97844235D01*
X147779329Y-97835970D01*
X147757150Y-97825480D01*
X147736107Y-97812868D01*
X147716401Y-97798253D01*
X147698223Y-97781777D01*
X147681747Y-97763599D01*
X147667132Y-97743893D01*
X147654520Y-97722850D01*
X147644030Y-97700671D01*
X147635765Y-97677572D01*
X147629804Y-97653773D01*
X147626204Y-97629505D01*
X147625000Y-97605001D01*
X147625000Y-96704999D01*
X147626204Y-96680495D01*
X147629804Y-96656227D01*
X147635765Y-96632428D01*
X147644030Y-96609329D01*
X147654520Y-96587150D01*
X147667132Y-96566107D01*
X147681747Y-96546401D01*
X147698223Y-96528223D01*
X147716401Y-96511747D01*
X147736107Y-96497132D01*
X147757150Y-96484520D01*
X147779329Y-96474030D01*
X147802428Y-96465765D01*
X147826227Y-96459804D01*
X147850495Y-96456204D01*
X147874999Y-96455000D01*
X148525001Y-96455000D01*
X148549505Y-96456204D01*
X148549505Y-96456204D01*
G37*
D13*
X148200000Y-97155000D03*
G04 #@! TD*
D12*
G04 #@! TO.C,R1*
G36*
X159344505Y-78041204D02*
X159368773Y-78044804D01*
X159392572Y-78050765D01*
X159415671Y-78059030D01*
X159437850Y-78069520D01*
X159458893Y-78082132D01*
X159478599Y-78096747D01*
X159496777Y-78113223D01*
X159513253Y-78131401D01*
X159527868Y-78151107D01*
X159540480Y-78172150D01*
X159550970Y-78194329D01*
X159559235Y-78217428D01*
X159565196Y-78241227D01*
X159568796Y-78265495D01*
X159570000Y-78289999D01*
X159570000Y-79190001D01*
X159568796Y-79214505D01*
X159565196Y-79238773D01*
X159559235Y-79262572D01*
X159550970Y-79285671D01*
X159540480Y-79307850D01*
X159527868Y-79328893D01*
X159513253Y-79348599D01*
X159496777Y-79366777D01*
X159478599Y-79383253D01*
X159458893Y-79397868D01*
X159437850Y-79410480D01*
X159415671Y-79420970D01*
X159392572Y-79429235D01*
X159368773Y-79435196D01*
X159344505Y-79438796D01*
X159320001Y-79440000D01*
X158669999Y-79440000D01*
X158645495Y-79438796D01*
X158621227Y-79435196D01*
X158597428Y-79429235D01*
X158574329Y-79420970D01*
X158552150Y-79410480D01*
X158531107Y-79397868D01*
X158511401Y-79383253D01*
X158493223Y-79366777D01*
X158476747Y-79348599D01*
X158462132Y-79328893D01*
X158449520Y-79307850D01*
X158439030Y-79285671D01*
X158430765Y-79262572D01*
X158424804Y-79238773D01*
X158421204Y-79214505D01*
X158420000Y-79190001D01*
X158420000Y-78289999D01*
X158421204Y-78265495D01*
X158424804Y-78241227D01*
X158430765Y-78217428D01*
X158439030Y-78194329D01*
X158449520Y-78172150D01*
X158462132Y-78151107D01*
X158476747Y-78131401D01*
X158493223Y-78113223D01*
X158511401Y-78096747D01*
X158531107Y-78082132D01*
X158552150Y-78069520D01*
X158574329Y-78059030D01*
X158597428Y-78050765D01*
X158621227Y-78044804D01*
X158645495Y-78041204D01*
X158669999Y-78040000D01*
X159320001Y-78040000D01*
X159344505Y-78041204D01*
X159344505Y-78041204D01*
G37*
D13*
X158995000Y-78740000D03*
D12*
G36*
X161394505Y-78041204D02*
X161418773Y-78044804D01*
X161442572Y-78050765D01*
X161465671Y-78059030D01*
X161487850Y-78069520D01*
X161508893Y-78082132D01*
X161528599Y-78096747D01*
X161546777Y-78113223D01*
X161563253Y-78131401D01*
X161577868Y-78151107D01*
X161590480Y-78172150D01*
X161600970Y-78194329D01*
X161609235Y-78217428D01*
X161615196Y-78241227D01*
X161618796Y-78265495D01*
X161620000Y-78289999D01*
X161620000Y-79190001D01*
X161618796Y-79214505D01*
X161615196Y-79238773D01*
X161609235Y-79262572D01*
X161600970Y-79285671D01*
X161590480Y-79307850D01*
X161577868Y-79328893D01*
X161563253Y-79348599D01*
X161546777Y-79366777D01*
X161528599Y-79383253D01*
X161508893Y-79397868D01*
X161487850Y-79410480D01*
X161465671Y-79420970D01*
X161442572Y-79429235D01*
X161418773Y-79435196D01*
X161394505Y-79438796D01*
X161370001Y-79440000D01*
X160719999Y-79440000D01*
X160695495Y-79438796D01*
X160671227Y-79435196D01*
X160647428Y-79429235D01*
X160624329Y-79420970D01*
X160602150Y-79410480D01*
X160581107Y-79397868D01*
X160561401Y-79383253D01*
X160543223Y-79366777D01*
X160526747Y-79348599D01*
X160512132Y-79328893D01*
X160499520Y-79307850D01*
X160489030Y-79285671D01*
X160480765Y-79262572D01*
X160474804Y-79238773D01*
X160471204Y-79214505D01*
X160470000Y-79190001D01*
X160470000Y-78289999D01*
X160471204Y-78265495D01*
X160474804Y-78241227D01*
X160480765Y-78217428D01*
X160489030Y-78194329D01*
X160499520Y-78172150D01*
X160512132Y-78151107D01*
X160526747Y-78131401D01*
X160543223Y-78113223D01*
X160561401Y-78096747D01*
X160581107Y-78082132D01*
X160602150Y-78069520D01*
X160624329Y-78059030D01*
X160647428Y-78050765D01*
X160671227Y-78044804D01*
X160695495Y-78041204D01*
X160719999Y-78040000D01*
X161370001Y-78040000D01*
X161394505Y-78041204D01*
X161394505Y-78041204D01*
G37*
D13*
X161045000Y-78740000D03*
G04 #@! TD*
D12*
G04 #@! TO.C,R2*
G36*
X137019505Y-65976204D02*
X137043773Y-65979804D01*
X137067572Y-65985765D01*
X137090671Y-65994030D01*
X137112850Y-66004520D01*
X137133893Y-66017132D01*
X137153599Y-66031747D01*
X137171777Y-66048223D01*
X137188253Y-66066401D01*
X137202868Y-66086107D01*
X137215480Y-66107150D01*
X137225970Y-66129329D01*
X137234235Y-66152428D01*
X137240196Y-66176227D01*
X137243796Y-66200495D01*
X137245000Y-66224999D01*
X137245000Y-67125001D01*
X137243796Y-67149505D01*
X137240196Y-67173773D01*
X137234235Y-67197572D01*
X137225970Y-67220671D01*
X137215480Y-67242850D01*
X137202868Y-67263893D01*
X137188253Y-67283599D01*
X137171777Y-67301777D01*
X137153599Y-67318253D01*
X137133893Y-67332868D01*
X137112850Y-67345480D01*
X137090671Y-67355970D01*
X137067572Y-67364235D01*
X137043773Y-67370196D01*
X137019505Y-67373796D01*
X136995001Y-67375000D01*
X136344999Y-67375000D01*
X136320495Y-67373796D01*
X136296227Y-67370196D01*
X136272428Y-67364235D01*
X136249329Y-67355970D01*
X136227150Y-67345480D01*
X136206107Y-67332868D01*
X136186401Y-67318253D01*
X136168223Y-67301777D01*
X136151747Y-67283599D01*
X136137132Y-67263893D01*
X136124520Y-67242850D01*
X136114030Y-67220671D01*
X136105765Y-67197572D01*
X136099804Y-67173773D01*
X136096204Y-67149505D01*
X136095000Y-67125001D01*
X136095000Y-66224999D01*
X136096204Y-66200495D01*
X136099804Y-66176227D01*
X136105765Y-66152428D01*
X136114030Y-66129329D01*
X136124520Y-66107150D01*
X136137132Y-66086107D01*
X136151747Y-66066401D01*
X136168223Y-66048223D01*
X136186401Y-66031747D01*
X136206107Y-66017132D01*
X136227150Y-66004520D01*
X136249329Y-65994030D01*
X136272428Y-65985765D01*
X136296227Y-65979804D01*
X136320495Y-65976204D01*
X136344999Y-65975000D01*
X136995001Y-65975000D01*
X137019505Y-65976204D01*
X137019505Y-65976204D01*
G37*
D13*
X136670000Y-66675000D03*
D12*
G36*
X134969505Y-65976204D02*
X134993773Y-65979804D01*
X135017572Y-65985765D01*
X135040671Y-65994030D01*
X135062850Y-66004520D01*
X135083893Y-66017132D01*
X135103599Y-66031747D01*
X135121777Y-66048223D01*
X135138253Y-66066401D01*
X135152868Y-66086107D01*
X135165480Y-66107150D01*
X135175970Y-66129329D01*
X135184235Y-66152428D01*
X135190196Y-66176227D01*
X135193796Y-66200495D01*
X135195000Y-66224999D01*
X135195000Y-67125001D01*
X135193796Y-67149505D01*
X135190196Y-67173773D01*
X135184235Y-67197572D01*
X135175970Y-67220671D01*
X135165480Y-67242850D01*
X135152868Y-67263893D01*
X135138253Y-67283599D01*
X135121777Y-67301777D01*
X135103599Y-67318253D01*
X135083893Y-67332868D01*
X135062850Y-67345480D01*
X135040671Y-67355970D01*
X135017572Y-67364235D01*
X134993773Y-67370196D01*
X134969505Y-67373796D01*
X134945001Y-67375000D01*
X134294999Y-67375000D01*
X134270495Y-67373796D01*
X134246227Y-67370196D01*
X134222428Y-67364235D01*
X134199329Y-67355970D01*
X134177150Y-67345480D01*
X134156107Y-67332868D01*
X134136401Y-67318253D01*
X134118223Y-67301777D01*
X134101747Y-67283599D01*
X134087132Y-67263893D01*
X134074520Y-67242850D01*
X134064030Y-67220671D01*
X134055765Y-67197572D01*
X134049804Y-67173773D01*
X134046204Y-67149505D01*
X134045000Y-67125001D01*
X134045000Y-66224999D01*
X134046204Y-66200495D01*
X134049804Y-66176227D01*
X134055765Y-66152428D01*
X134064030Y-66129329D01*
X134074520Y-66107150D01*
X134087132Y-66086107D01*
X134101747Y-66066401D01*
X134118223Y-66048223D01*
X134136401Y-66031747D01*
X134156107Y-66017132D01*
X134177150Y-66004520D01*
X134199329Y-65994030D01*
X134222428Y-65985765D01*
X134246227Y-65979804D01*
X134270495Y-65976204D01*
X134294999Y-65975000D01*
X134945001Y-65975000D01*
X134969505Y-65976204D01*
X134969505Y-65976204D01*
G37*
D13*
X134620000Y-66675000D03*
G04 #@! TD*
D12*
G04 #@! TO.C,R3*
G36*
X147159505Y-79191204D02*
X147183773Y-79194804D01*
X147207572Y-79200765D01*
X147230671Y-79209030D01*
X147252850Y-79219520D01*
X147273893Y-79232132D01*
X147293599Y-79246747D01*
X147311777Y-79263223D01*
X147328253Y-79281401D01*
X147342868Y-79301107D01*
X147355480Y-79322150D01*
X147365970Y-79344329D01*
X147374235Y-79367428D01*
X147380196Y-79391227D01*
X147383796Y-79415495D01*
X147385000Y-79439999D01*
X147385000Y-80090001D01*
X147383796Y-80114505D01*
X147380196Y-80138773D01*
X147374235Y-80162572D01*
X147365970Y-80185671D01*
X147355480Y-80207850D01*
X147342868Y-80228893D01*
X147328253Y-80248599D01*
X147311777Y-80266777D01*
X147293599Y-80283253D01*
X147273893Y-80297868D01*
X147252850Y-80310480D01*
X147230671Y-80320970D01*
X147207572Y-80329235D01*
X147183773Y-80335196D01*
X147159505Y-80338796D01*
X147135001Y-80340000D01*
X146234999Y-80340000D01*
X146210495Y-80338796D01*
X146186227Y-80335196D01*
X146162428Y-80329235D01*
X146139329Y-80320970D01*
X146117150Y-80310480D01*
X146096107Y-80297868D01*
X146076401Y-80283253D01*
X146058223Y-80266777D01*
X146041747Y-80248599D01*
X146027132Y-80228893D01*
X146014520Y-80207850D01*
X146004030Y-80185671D01*
X145995765Y-80162572D01*
X145989804Y-80138773D01*
X145986204Y-80114505D01*
X145985000Y-80090001D01*
X145985000Y-79439999D01*
X145986204Y-79415495D01*
X145989804Y-79391227D01*
X145995765Y-79367428D01*
X146004030Y-79344329D01*
X146014520Y-79322150D01*
X146027132Y-79301107D01*
X146041747Y-79281401D01*
X146058223Y-79263223D01*
X146076401Y-79246747D01*
X146096107Y-79232132D01*
X146117150Y-79219520D01*
X146139329Y-79209030D01*
X146162428Y-79200765D01*
X146186227Y-79194804D01*
X146210495Y-79191204D01*
X146234999Y-79190000D01*
X147135001Y-79190000D01*
X147159505Y-79191204D01*
X147159505Y-79191204D01*
G37*
D13*
X146685000Y-79765000D03*
D12*
G36*
X147159505Y-77141204D02*
X147183773Y-77144804D01*
X147207572Y-77150765D01*
X147230671Y-77159030D01*
X147252850Y-77169520D01*
X147273893Y-77182132D01*
X147293599Y-77196747D01*
X147311777Y-77213223D01*
X147328253Y-77231401D01*
X147342868Y-77251107D01*
X147355480Y-77272150D01*
X147365970Y-77294329D01*
X147374235Y-77317428D01*
X147380196Y-77341227D01*
X147383796Y-77365495D01*
X147385000Y-77389999D01*
X147385000Y-78040001D01*
X147383796Y-78064505D01*
X147380196Y-78088773D01*
X147374235Y-78112572D01*
X147365970Y-78135671D01*
X147355480Y-78157850D01*
X147342868Y-78178893D01*
X147328253Y-78198599D01*
X147311777Y-78216777D01*
X147293599Y-78233253D01*
X147273893Y-78247868D01*
X147252850Y-78260480D01*
X147230671Y-78270970D01*
X147207572Y-78279235D01*
X147183773Y-78285196D01*
X147159505Y-78288796D01*
X147135001Y-78290000D01*
X146234999Y-78290000D01*
X146210495Y-78288796D01*
X146186227Y-78285196D01*
X146162428Y-78279235D01*
X146139329Y-78270970D01*
X146117150Y-78260480D01*
X146096107Y-78247868D01*
X146076401Y-78233253D01*
X146058223Y-78216777D01*
X146041747Y-78198599D01*
X146027132Y-78178893D01*
X146014520Y-78157850D01*
X146004030Y-78135671D01*
X145995765Y-78112572D01*
X145989804Y-78088773D01*
X145986204Y-78064505D01*
X145985000Y-78040001D01*
X145985000Y-77389999D01*
X145986204Y-77365495D01*
X145989804Y-77341227D01*
X145995765Y-77317428D01*
X146004030Y-77294329D01*
X146014520Y-77272150D01*
X146027132Y-77251107D01*
X146041747Y-77231401D01*
X146058223Y-77213223D01*
X146076401Y-77196747D01*
X146096107Y-77182132D01*
X146117150Y-77169520D01*
X146139329Y-77159030D01*
X146162428Y-77150765D01*
X146186227Y-77144804D01*
X146210495Y-77141204D01*
X146234999Y-77140000D01*
X147135001Y-77140000D01*
X147159505Y-77141204D01*
X147159505Y-77141204D01*
G37*
D13*
X146685000Y-77715000D03*
G04 #@! TD*
D12*
G04 #@! TO.C,R5*
G36*
X145254505Y-71326204D02*
X145278773Y-71329804D01*
X145302572Y-71335765D01*
X145325671Y-71344030D01*
X145347850Y-71354520D01*
X145368893Y-71367132D01*
X145388599Y-71381747D01*
X145406777Y-71398223D01*
X145423253Y-71416401D01*
X145437868Y-71436107D01*
X145450480Y-71457150D01*
X145460970Y-71479329D01*
X145469235Y-71502428D01*
X145475196Y-71526227D01*
X145478796Y-71550495D01*
X145480000Y-71574999D01*
X145480000Y-72225001D01*
X145478796Y-72249505D01*
X145475196Y-72273773D01*
X145469235Y-72297572D01*
X145460970Y-72320671D01*
X145450480Y-72342850D01*
X145437868Y-72363893D01*
X145423253Y-72383599D01*
X145406777Y-72401777D01*
X145388599Y-72418253D01*
X145368893Y-72432868D01*
X145347850Y-72445480D01*
X145325671Y-72455970D01*
X145302572Y-72464235D01*
X145278773Y-72470196D01*
X145254505Y-72473796D01*
X145230001Y-72475000D01*
X144329999Y-72475000D01*
X144305495Y-72473796D01*
X144281227Y-72470196D01*
X144257428Y-72464235D01*
X144234329Y-72455970D01*
X144212150Y-72445480D01*
X144191107Y-72432868D01*
X144171401Y-72418253D01*
X144153223Y-72401777D01*
X144136747Y-72383599D01*
X144122132Y-72363893D01*
X144109520Y-72342850D01*
X144099030Y-72320671D01*
X144090765Y-72297572D01*
X144084804Y-72273773D01*
X144081204Y-72249505D01*
X144080000Y-72225001D01*
X144080000Y-71574999D01*
X144081204Y-71550495D01*
X144084804Y-71526227D01*
X144090765Y-71502428D01*
X144099030Y-71479329D01*
X144109520Y-71457150D01*
X144122132Y-71436107D01*
X144136747Y-71416401D01*
X144153223Y-71398223D01*
X144171401Y-71381747D01*
X144191107Y-71367132D01*
X144212150Y-71354520D01*
X144234329Y-71344030D01*
X144257428Y-71335765D01*
X144281227Y-71329804D01*
X144305495Y-71326204D01*
X144329999Y-71325000D01*
X145230001Y-71325000D01*
X145254505Y-71326204D01*
X145254505Y-71326204D01*
G37*
D13*
X144780000Y-71900000D03*
D12*
G36*
X145254505Y-69276204D02*
X145278773Y-69279804D01*
X145302572Y-69285765D01*
X145325671Y-69294030D01*
X145347850Y-69304520D01*
X145368893Y-69317132D01*
X145388599Y-69331747D01*
X145406777Y-69348223D01*
X145423253Y-69366401D01*
X145437868Y-69386107D01*
X145450480Y-69407150D01*
X145460970Y-69429329D01*
X145469235Y-69452428D01*
X145475196Y-69476227D01*
X145478796Y-69500495D01*
X145480000Y-69524999D01*
X145480000Y-70175001D01*
X145478796Y-70199505D01*
X145475196Y-70223773D01*
X145469235Y-70247572D01*
X145460970Y-70270671D01*
X145450480Y-70292850D01*
X145437868Y-70313893D01*
X145423253Y-70333599D01*
X145406777Y-70351777D01*
X145388599Y-70368253D01*
X145368893Y-70382868D01*
X145347850Y-70395480D01*
X145325671Y-70405970D01*
X145302572Y-70414235D01*
X145278773Y-70420196D01*
X145254505Y-70423796D01*
X145230001Y-70425000D01*
X144329999Y-70425000D01*
X144305495Y-70423796D01*
X144281227Y-70420196D01*
X144257428Y-70414235D01*
X144234329Y-70405970D01*
X144212150Y-70395480D01*
X144191107Y-70382868D01*
X144171401Y-70368253D01*
X144153223Y-70351777D01*
X144136747Y-70333599D01*
X144122132Y-70313893D01*
X144109520Y-70292850D01*
X144099030Y-70270671D01*
X144090765Y-70247572D01*
X144084804Y-70223773D01*
X144081204Y-70199505D01*
X144080000Y-70175001D01*
X144080000Y-69524999D01*
X144081204Y-69500495D01*
X144084804Y-69476227D01*
X144090765Y-69452428D01*
X144099030Y-69429329D01*
X144109520Y-69407150D01*
X144122132Y-69386107D01*
X144136747Y-69366401D01*
X144153223Y-69348223D01*
X144171401Y-69331747D01*
X144191107Y-69317132D01*
X144212150Y-69304520D01*
X144234329Y-69294030D01*
X144257428Y-69285765D01*
X144281227Y-69279804D01*
X144305495Y-69276204D01*
X144329999Y-69275000D01*
X145230001Y-69275000D01*
X145254505Y-69276204D01*
X145254505Y-69276204D01*
G37*
D13*
X144780000Y-69850000D03*
G04 #@! TD*
D12*
G04 #@! TO.C,R6*
G36*
X147794505Y-69276204D02*
X147818773Y-69279804D01*
X147842572Y-69285765D01*
X147865671Y-69294030D01*
X147887850Y-69304520D01*
X147908893Y-69317132D01*
X147928599Y-69331747D01*
X147946777Y-69348223D01*
X147963253Y-69366401D01*
X147977868Y-69386107D01*
X147990480Y-69407150D01*
X148000970Y-69429329D01*
X148009235Y-69452428D01*
X148015196Y-69476227D01*
X148018796Y-69500495D01*
X148020000Y-69524999D01*
X148020000Y-70175001D01*
X148018796Y-70199505D01*
X148015196Y-70223773D01*
X148009235Y-70247572D01*
X148000970Y-70270671D01*
X147990480Y-70292850D01*
X147977868Y-70313893D01*
X147963253Y-70333599D01*
X147946777Y-70351777D01*
X147928599Y-70368253D01*
X147908893Y-70382868D01*
X147887850Y-70395480D01*
X147865671Y-70405970D01*
X147842572Y-70414235D01*
X147818773Y-70420196D01*
X147794505Y-70423796D01*
X147770001Y-70425000D01*
X146869999Y-70425000D01*
X146845495Y-70423796D01*
X146821227Y-70420196D01*
X146797428Y-70414235D01*
X146774329Y-70405970D01*
X146752150Y-70395480D01*
X146731107Y-70382868D01*
X146711401Y-70368253D01*
X146693223Y-70351777D01*
X146676747Y-70333599D01*
X146662132Y-70313893D01*
X146649520Y-70292850D01*
X146639030Y-70270671D01*
X146630765Y-70247572D01*
X146624804Y-70223773D01*
X146621204Y-70199505D01*
X146620000Y-70175001D01*
X146620000Y-69524999D01*
X146621204Y-69500495D01*
X146624804Y-69476227D01*
X146630765Y-69452428D01*
X146639030Y-69429329D01*
X146649520Y-69407150D01*
X146662132Y-69386107D01*
X146676747Y-69366401D01*
X146693223Y-69348223D01*
X146711401Y-69331747D01*
X146731107Y-69317132D01*
X146752150Y-69304520D01*
X146774329Y-69294030D01*
X146797428Y-69285765D01*
X146821227Y-69279804D01*
X146845495Y-69276204D01*
X146869999Y-69275000D01*
X147770001Y-69275000D01*
X147794505Y-69276204D01*
X147794505Y-69276204D01*
G37*
D13*
X147320000Y-69850000D03*
D12*
G36*
X147794505Y-71326204D02*
X147818773Y-71329804D01*
X147842572Y-71335765D01*
X147865671Y-71344030D01*
X147887850Y-71354520D01*
X147908893Y-71367132D01*
X147928599Y-71381747D01*
X147946777Y-71398223D01*
X147963253Y-71416401D01*
X147977868Y-71436107D01*
X147990480Y-71457150D01*
X148000970Y-71479329D01*
X148009235Y-71502428D01*
X148015196Y-71526227D01*
X148018796Y-71550495D01*
X148020000Y-71574999D01*
X148020000Y-72225001D01*
X148018796Y-72249505D01*
X148015196Y-72273773D01*
X148009235Y-72297572D01*
X148000970Y-72320671D01*
X147990480Y-72342850D01*
X147977868Y-72363893D01*
X147963253Y-72383599D01*
X147946777Y-72401777D01*
X147928599Y-72418253D01*
X147908893Y-72432868D01*
X147887850Y-72445480D01*
X147865671Y-72455970D01*
X147842572Y-72464235D01*
X147818773Y-72470196D01*
X147794505Y-72473796D01*
X147770001Y-72475000D01*
X146869999Y-72475000D01*
X146845495Y-72473796D01*
X146821227Y-72470196D01*
X146797428Y-72464235D01*
X146774329Y-72455970D01*
X146752150Y-72445480D01*
X146731107Y-72432868D01*
X146711401Y-72418253D01*
X146693223Y-72401777D01*
X146676747Y-72383599D01*
X146662132Y-72363893D01*
X146649520Y-72342850D01*
X146639030Y-72320671D01*
X146630765Y-72297572D01*
X146624804Y-72273773D01*
X146621204Y-72249505D01*
X146620000Y-72225001D01*
X146620000Y-71574999D01*
X146621204Y-71550495D01*
X146624804Y-71526227D01*
X146630765Y-71502428D01*
X146639030Y-71479329D01*
X146649520Y-71457150D01*
X146662132Y-71436107D01*
X146676747Y-71416401D01*
X146693223Y-71398223D01*
X146711401Y-71381747D01*
X146731107Y-71367132D01*
X146752150Y-71354520D01*
X146774329Y-71344030D01*
X146797428Y-71335765D01*
X146821227Y-71329804D01*
X146845495Y-71326204D01*
X146869999Y-71325000D01*
X147770001Y-71325000D01*
X147794505Y-71326204D01*
X147794505Y-71326204D01*
G37*
D13*
X147320000Y-71900000D03*
G04 #@! TD*
D15*
G04 #@! TO.C,D1*
X149225000Y-77470000D03*
X149225000Y-81280000D03*
G04 #@! TD*
M02*
