G04 #@! TF.GenerationSoftware,KiCad,Pcbnew,(5.0.1)-4*
G04 #@! TF.CreationDate,2020-04-30T15:13:55+02:00*
G04 #@! TF.ProjectId,freqcounter,66726571636F756E7465722E6B696361,1*
G04 #@! TF.SameCoordinates,Original*
G04 #@! TF.FileFunction,Copper,L1,Top,Signal*
G04 #@! TF.FilePolarity,Positive*
%FSLAX46Y46*%
G04 Gerber Fmt 4.6, Leading zero omitted, Abs format (unit mm)*
G04 Created by KiCad (PCBNEW (5.0.1)-4) date 30/04/2020 15:13:55*
%MOMM*%
%LPD*%
G01*
G04 APERTURE LIST*
G04 #@! TA.AperFunction,ComponentPad*
%ADD10O,1.700000X1.700000*%
G04 #@! TD*
G04 #@! TA.AperFunction,SMDPad,CuDef*
%ADD11R,1.950000X0.600000*%
G04 #@! TD*
G04 #@! TA.AperFunction,Conductor*
%ADD12C,0.100000*%
G04 #@! TD*
G04 #@! TA.AperFunction,SMDPad,CuDef*
%ADD13C,1.150000*%
G04 #@! TD*
G04 #@! TA.AperFunction,SMDPad,CuDef*
%ADD14R,0.900000X1.200000*%
G04 #@! TD*
G04 #@! TA.AperFunction,ComponentPad*
%ADD15R,1.700000X1.700000*%
G04 #@! TD*
G04 #@! TA.AperFunction,SMDPad,CuDef*
%ADD16R,1.000000X1.400000*%
G04 #@! TD*
G04 #@! TA.AperFunction,ViaPad*
%ADD17C,1.016000*%
G04 #@! TD*
G04 #@! TA.AperFunction,Conductor*
%ADD18C,1.016000*%
G04 #@! TD*
G04 #@! TA.AperFunction,Conductor*
%ADD19C,0.508000*%
G04 #@! TD*
G04 #@! TA.AperFunction,Conductor*
%ADD20C,0.635000*%
G04 #@! TD*
G04 APERTURE END LIST*
D10*
G04 #@! TO.P,J1,1*
G04 #@! TO.N,MCLR*
X124460000Y-90170000D03*
G04 #@! TO.P,J1,2*
G04 #@! TO.N,5V*
X124460000Y-92710000D03*
G04 #@! TO.P,J1,3*
G04 #@! TO.N,GND*
X124460000Y-95250000D03*
G04 #@! TO.P,J1,4*
G04 #@! TO.N,ICSPDAT*
X124460000Y-97790000D03*
G04 #@! TO.P,J1,5*
G04 #@! TO.N,ICSPCLK*
X124460000Y-100330000D03*
G04 #@! TD*
G04 #@! TO.P,J15,8*
G04 #@! TO.N,GND*
X124460000Y-67310000D03*
G04 #@! TO.P,J15,7*
G04 #@! TO.N,P0*
X124460000Y-69850000D03*
G04 #@! TO.P,J15,6*
G04 #@! TO.N,P1*
X124460000Y-72390000D03*
G04 #@! TO.P,J15,5*
G04 #@! TO.N,P2*
X124460000Y-74930000D03*
G04 #@! TO.P,J15,4*
G04 #@! TO.N,P3*
X124460000Y-77470000D03*
G04 #@! TO.P,J15,3*
G04 #@! TO.N,ICSPCLK*
X124460000Y-80010000D03*
G04 #@! TO.P,J15,2*
G04 #@! TO.N,ICSPDAT*
X124460000Y-82550000D03*
G04 #@! TO.P,J15,1*
G04 #@! TO.N,5V*
X124460000Y-85090000D03*
G04 #@! TD*
G04 #@! TO.P,J3,6*
G04 #@! TO.N,Vin*
X144780000Y-105410000D03*
G04 #@! TO.P,J3,5*
G04 #@! TO.N,GND*
X142240000Y-105410000D03*
G04 #@! TO.P,J3,4*
X139700000Y-105410000D03*
G04 #@! TO.P,J3,3*
G04 #@! TO.N,5V*
X137160000Y-105410000D03*
G04 #@! TO.P,J3,2*
G04 #@! TO.N,3.3V*
X134620000Y-105410000D03*
G04 #@! TO.P,J3,1*
G04 #@! TO.N,Reset*
X132080000Y-105410000D03*
G04 #@! TD*
G04 #@! TO.P,J9,8*
G04 #@! TO.N,ARD_RX*
X162560000Y-59690000D03*
G04 #@! TO.P,J9,7*
G04 #@! TO.N,ARD_TX*
X160020000Y-59690000D03*
G04 #@! TO.P,J9,6*
G04 #@! TO.N,Net-(J8-Pad6)*
X157480000Y-59690000D03*
G04 #@! TO.P,J9,5*
G04 #@! TO.N,Net-(J8-Pad5)*
X154940000Y-59690000D03*
G04 #@! TO.P,J9,4*
G04 #@! TO.N,Net-(J8-Pad4)*
X152400000Y-59690000D03*
G04 #@! TO.P,J9,3*
G04 #@! TO.N,Net-(J8-Pad3)*
X149860000Y-59690000D03*
G04 #@! TO.P,J9,2*
G04 #@! TO.N,Net-(J8-Pad2)*
X147320000Y-59690000D03*
G04 #@! TO.P,J9,1*
G04 #@! TO.N,Net-(J8-Pad1)*
X144780000Y-59690000D03*
G04 #@! TD*
G04 #@! TO.P,J4,8*
G04 #@! TO.N,Net-(J4-Pad8)*
X140716000Y-59690000D03*
G04 #@! TO.P,J4,7*
G04 #@! TO.N,Net-(J4-Pad7)*
X138176000Y-59690000D03*
G04 #@! TO.P,J4,6*
G04 #@! TO.N,Net-(J4-Pad6)*
X135636000Y-59690000D03*
G04 #@! TO.P,J4,5*
G04 #@! TO.N,Net-(J4-Pad5)*
X133096000Y-59690000D03*
G04 #@! TO.P,J4,4*
G04 #@! TO.N,Net-(J4-Pad4)*
X130556000Y-59690000D03*
G04 #@! TO.P,J4,3*
G04 #@! TO.N,Net-(J4-Pad3)*
X128016000Y-59690000D03*
G04 #@! TO.P,J4,2*
G04 #@! TO.N,GND*
X125476000Y-59690000D03*
G04 #@! TO.P,J4,1*
G04 #@! TO.N,Net-(J4-Pad1)*
X122936000Y-59690000D03*
G04 #@! TD*
G04 #@! TO.P,J2,6*
G04 #@! TO.N,Vin*
X144780000Y-107950000D03*
G04 #@! TO.P,J2,5*
G04 #@! TO.N,GND*
X142240000Y-107950000D03*
G04 #@! TO.P,J2,4*
X139700000Y-107950000D03*
G04 #@! TO.P,J2,3*
G04 #@! TO.N,5V*
X137160000Y-107950000D03*
G04 #@! TO.P,J2,2*
G04 #@! TO.N,3.3V*
X134620000Y-107950000D03*
G04 #@! TO.P,J2,1*
G04 #@! TO.N,Reset*
X132080000Y-107950000D03*
G04 #@! TD*
G04 #@! TO.P,J7,1*
G04 #@! TO.N,Net-(J6-Pad1)*
X149860000Y-107950000D03*
G04 #@! TO.P,J7,2*
G04 #@! TO.N,Net-(J6-Pad2)*
X152400000Y-107950000D03*
G04 #@! TO.P,J7,3*
G04 #@! TO.N,Net-(J6-Pad3)*
X154940000Y-107950000D03*
G04 #@! TO.P,J7,4*
G04 #@! TO.N,Net-(J6-Pad4)*
X157480000Y-107950000D03*
G04 #@! TO.P,J7,5*
G04 #@! TO.N,SDA*
X160020000Y-107950000D03*
G04 #@! TO.P,J7,6*
G04 #@! TO.N,SCL*
X162560000Y-107950000D03*
G04 #@! TD*
D11*
G04 #@! TO.P,U1,1*
G04 #@! TO.N,5V*
X143130000Y-86995000D03*
G04 #@! TO.P,U1,2*
G04 #@! TO.N,32MHz*
X143130000Y-85725000D03*
G04 #@! TO.P,U1,3*
G04 #@! TO.N,Net-(U1-Pad3)*
X143130000Y-84455000D03*
G04 #@! TO.P,U1,4*
G04 #@! TO.N,MCLR*
X143130000Y-83185000D03*
G04 #@! TO.P,U1,5*
G04 #@! TO.N,INPUT_A*
X143130000Y-81915000D03*
G04 #@! TO.P,U1,6*
G04 #@! TO.N,INPUT_B*
X143130000Y-80645000D03*
G04 #@! TO.P,U1,7*
G04 #@! TO.N,Net-(C3-Pad1)*
X143130000Y-79375000D03*
G04 #@! TO.P,U1,8*
G04 #@! TO.N,Net-(R3-Pad1)*
X143130000Y-78105000D03*
G04 #@! TO.P,U1,9*
G04 #@! TO.N,SDA*
X143130000Y-76835000D03*
G04 #@! TO.P,U1,10*
G04 #@! TO.N,SCL*
X143130000Y-75565000D03*
G04 #@! TO.P,U1,11*
G04 #@! TO.N,ARD_RX*
X133730000Y-75565000D03*
G04 #@! TO.P,U1,12*
G04 #@! TO.N,Net-(R2-Pad2)*
X133730000Y-76835000D03*
G04 #@! TO.P,U1,13*
G04 #@! TO.N,P0*
X133730000Y-78105000D03*
G04 #@! TO.P,U1,14*
G04 #@! TO.N,P1*
X133730000Y-79375000D03*
G04 #@! TO.P,U1,15*
G04 #@! TO.N,P2*
X133730000Y-80645000D03*
G04 #@! TO.P,U1,16*
G04 #@! TO.N,P3*
X133730000Y-81915000D03*
G04 #@! TO.P,U1,17*
G04 #@! TO.N,Net-(R1-Pad2)*
X133730000Y-83185000D03*
G04 #@! TO.P,U1,18*
G04 #@! TO.N,ICSPCLK*
X133730000Y-84455000D03*
G04 #@! TO.P,U1,19*
G04 #@! TO.N,ICSPDAT*
X133730000Y-85725000D03*
G04 #@! TO.P,U1,20*
G04 #@! TO.N,GND*
X133730000Y-86995000D03*
G04 #@! TD*
D12*
G04 #@! TO.N,GND*
G04 #@! TO.C,C1*
G36*
X137754505Y-90106204D02*
X137778773Y-90109804D01*
X137802572Y-90115765D01*
X137825671Y-90124030D01*
X137847850Y-90134520D01*
X137868893Y-90147132D01*
X137888599Y-90161747D01*
X137906777Y-90178223D01*
X137923253Y-90196401D01*
X137937868Y-90216107D01*
X137950480Y-90237150D01*
X137960970Y-90259329D01*
X137969235Y-90282428D01*
X137975196Y-90306227D01*
X137978796Y-90330495D01*
X137980000Y-90354999D01*
X137980000Y-91255001D01*
X137978796Y-91279505D01*
X137975196Y-91303773D01*
X137969235Y-91327572D01*
X137960970Y-91350671D01*
X137950480Y-91372850D01*
X137937868Y-91393893D01*
X137923253Y-91413599D01*
X137906777Y-91431777D01*
X137888599Y-91448253D01*
X137868893Y-91462868D01*
X137847850Y-91475480D01*
X137825671Y-91485970D01*
X137802572Y-91494235D01*
X137778773Y-91500196D01*
X137754505Y-91503796D01*
X137730001Y-91505000D01*
X137079999Y-91505000D01*
X137055495Y-91503796D01*
X137031227Y-91500196D01*
X137007428Y-91494235D01*
X136984329Y-91485970D01*
X136962150Y-91475480D01*
X136941107Y-91462868D01*
X136921401Y-91448253D01*
X136903223Y-91431777D01*
X136886747Y-91413599D01*
X136872132Y-91393893D01*
X136859520Y-91372850D01*
X136849030Y-91350671D01*
X136840765Y-91327572D01*
X136834804Y-91303773D01*
X136831204Y-91279505D01*
X136830000Y-91255001D01*
X136830000Y-90354999D01*
X136831204Y-90330495D01*
X136834804Y-90306227D01*
X136840765Y-90282428D01*
X136849030Y-90259329D01*
X136859520Y-90237150D01*
X136872132Y-90216107D01*
X136886747Y-90196401D01*
X136903223Y-90178223D01*
X136921401Y-90161747D01*
X136941107Y-90147132D01*
X136962150Y-90134520D01*
X136984329Y-90124030D01*
X137007428Y-90115765D01*
X137031227Y-90109804D01*
X137055495Y-90106204D01*
X137079999Y-90105000D01*
X137730001Y-90105000D01*
X137754505Y-90106204D01*
X137754505Y-90106204D01*
G37*
D13*
G04 #@! TD*
G04 #@! TO.P,C1,1*
G04 #@! TO.N,GND*
X137405000Y-90805000D03*
D12*
G04 #@! TO.N,5V*
G04 #@! TO.C,C1*
G36*
X139804505Y-90106204D02*
X139828773Y-90109804D01*
X139852572Y-90115765D01*
X139875671Y-90124030D01*
X139897850Y-90134520D01*
X139918893Y-90147132D01*
X139938599Y-90161747D01*
X139956777Y-90178223D01*
X139973253Y-90196401D01*
X139987868Y-90216107D01*
X140000480Y-90237150D01*
X140010970Y-90259329D01*
X140019235Y-90282428D01*
X140025196Y-90306227D01*
X140028796Y-90330495D01*
X140030000Y-90354999D01*
X140030000Y-91255001D01*
X140028796Y-91279505D01*
X140025196Y-91303773D01*
X140019235Y-91327572D01*
X140010970Y-91350671D01*
X140000480Y-91372850D01*
X139987868Y-91393893D01*
X139973253Y-91413599D01*
X139956777Y-91431777D01*
X139938599Y-91448253D01*
X139918893Y-91462868D01*
X139897850Y-91475480D01*
X139875671Y-91485970D01*
X139852572Y-91494235D01*
X139828773Y-91500196D01*
X139804505Y-91503796D01*
X139780001Y-91505000D01*
X139129999Y-91505000D01*
X139105495Y-91503796D01*
X139081227Y-91500196D01*
X139057428Y-91494235D01*
X139034329Y-91485970D01*
X139012150Y-91475480D01*
X138991107Y-91462868D01*
X138971401Y-91448253D01*
X138953223Y-91431777D01*
X138936747Y-91413599D01*
X138922132Y-91393893D01*
X138909520Y-91372850D01*
X138899030Y-91350671D01*
X138890765Y-91327572D01*
X138884804Y-91303773D01*
X138881204Y-91279505D01*
X138880000Y-91255001D01*
X138880000Y-90354999D01*
X138881204Y-90330495D01*
X138884804Y-90306227D01*
X138890765Y-90282428D01*
X138899030Y-90259329D01*
X138909520Y-90237150D01*
X138922132Y-90216107D01*
X138936747Y-90196401D01*
X138953223Y-90178223D01*
X138971401Y-90161747D01*
X138991107Y-90147132D01*
X139012150Y-90134520D01*
X139034329Y-90124030D01*
X139057428Y-90115765D01*
X139081227Y-90109804D01*
X139105495Y-90106204D01*
X139129999Y-90105000D01*
X139780001Y-90105000D01*
X139804505Y-90106204D01*
X139804505Y-90106204D01*
G37*
D13*
G04 #@! TD*
G04 #@! TO.P,C1,2*
G04 #@! TO.N,5V*
X139455000Y-90805000D03*
D12*
G04 #@! TO.N,GND*
G04 #@! TO.C,C2*
G36*
X137754505Y-88201204D02*
X137778773Y-88204804D01*
X137802572Y-88210765D01*
X137825671Y-88219030D01*
X137847850Y-88229520D01*
X137868893Y-88242132D01*
X137888599Y-88256747D01*
X137906777Y-88273223D01*
X137923253Y-88291401D01*
X137937868Y-88311107D01*
X137950480Y-88332150D01*
X137960970Y-88354329D01*
X137969235Y-88377428D01*
X137975196Y-88401227D01*
X137978796Y-88425495D01*
X137980000Y-88449999D01*
X137980000Y-89350001D01*
X137978796Y-89374505D01*
X137975196Y-89398773D01*
X137969235Y-89422572D01*
X137960970Y-89445671D01*
X137950480Y-89467850D01*
X137937868Y-89488893D01*
X137923253Y-89508599D01*
X137906777Y-89526777D01*
X137888599Y-89543253D01*
X137868893Y-89557868D01*
X137847850Y-89570480D01*
X137825671Y-89580970D01*
X137802572Y-89589235D01*
X137778773Y-89595196D01*
X137754505Y-89598796D01*
X137730001Y-89600000D01*
X137079999Y-89600000D01*
X137055495Y-89598796D01*
X137031227Y-89595196D01*
X137007428Y-89589235D01*
X136984329Y-89580970D01*
X136962150Y-89570480D01*
X136941107Y-89557868D01*
X136921401Y-89543253D01*
X136903223Y-89526777D01*
X136886747Y-89508599D01*
X136872132Y-89488893D01*
X136859520Y-89467850D01*
X136849030Y-89445671D01*
X136840765Y-89422572D01*
X136834804Y-89398773D01*
X136831204Y-89374505D01*
X136830000Y-89350001D01*
X136830000Y-88449999D01*
X136831204Y-88425495D01*
X136834804Y-88401227D01*
X136840765Y-88377428D01*
X136849030Y-88354329D01*
X136859520Y-88332150D01*
X136872132Y-88311107D01*
X136886747Y-88291401D01*
X136903223Y-88273223D01*
X136921401Y-88256747D01*
X136941107Y-88242132D01*
X136962150Y-88229520D01*
X136984329Y-88219030D01*
X137007428Y-88210765D01*
X137031227Y-88204804D01*
X137055495Y-88201204D01*
X137079999Y-88200000D01*
X137730001Y-88200000D01*
X137754505Y-88201204D01*
X137754505Y-88201204D01*
G37*
D13*
G04 #@! TD*
G04 #@! TO.P,C2,1*
G04 #@! TO.N,GND*
X137405000Y-88900000D03*
D12*
G04 #@! TO.N,5V*
G04 #@! TO.C,C2*
G36*
X139804505Y-88201204D02*
X139828773Y-88204804D01*
X139852572Y-88210765D01*
X139875671Y-88219030D01*
X139897850Y-88229520D01*
X139918893Y-88242132D01*
X139938599Y-88256747D01*
X139956777Y-88273223D01*
X139973253Y-88291401D01*
X139987868Y-88311107D01*
X140000480Y-88332150D01*
X140010970Y-88354329D01*
X140019235Y-88377428D01*
X140025196Y-88401227D01*
X140028796Y-88425495D01*
X140030000Y-88449999D01*
X140030000Y-89350001D01*
X140028796Y-89374505D01*
X140025196Y-89398773D01*
X140019235Y-89422572D01*
X140010970Y-89445671D01*
X140000480Y-89467850D01*
X139987868Y-89488893D01*
X139973253Y-89508599D01*
X139956777Y-89526777D01*
X139938599Y-89543253D01*
X139918893Y-89557868D01*
X139897850Y-89570480D01*
X139875671Y-89580970D01*
X139852572Y-89589235D01*
X139828773Y-89595196D01*
X139804505Y-89598796D01*
X139780001Y-89600000D01*
X139129999Y-89600000D01*
X139105495Y-89598796D01*
X139081227Y-89595196D01*
X139057428Y-89589235D01*
X139034329Y-89580970D01*
X139012150Y-89570480D01*
X138991107Y-89557868D01*
X138971401Y-89543253D01*
X138953223Y-89526777D01*
X138936747Y-89508599D01*
X138922132Y-89488893D01*
X138909520Y-89467850D01*
X138899030Y-89445671D01*
X138890765Y-89422572D01*
X138884804Y-89398773D01*
X138881204Y-89374505D01*
X138880000Y-89350001D01*
X138880000Y-88449999D01*
X138881204Y-88425495D01*
X138884804Y-88401227D01*
X138890765Y-88377428D01*
X138899030Y-88354329D01*
X138909520Y-88332150D01*
X138922132Y-88311107D01*
X138936747Y-88291401D01*
X138953223Y-88273223D01*
X138971401Y-88256747D01*
X138991107Y-88242132D01*
X139012150Y-88229520D01*
X139034329Y-88219030D01*
X139057428Y-88210765D01*
X139081227Y-88204804D01*
X139105495Y-88201204D01*
X139129999Y-88200000D01*
X139780001Y-88200000D01*
X139804505Y-88201204D01*
X139804505Y-88201204D01*
G37*
D13*
G04 #@! TD*
G04 #@! TO.P,C2,2*
G04 #@! TO.N,5V*
X139455000Y-88900000D03*
D12*
G04 #@! TO.N,Earth*
G04 #@! TO.C,C3*
G36*
X153774505Y-79311204D02*
X153798773Y-79314804D01*
X153822572Y-79320765D01*
X153845671Y-79329030D01*
X153867850Y-79339520D01*
X153888893Y-79352132D01*
X153908599Y-79366747D01*
X153926777Y-79383223D01*
X153943253Y-79401401D01*
X153957868Y-79421107D01*
X153970480Y-79442150D01*
X153980970Y-79464329D01*
X153989235Y-79487428D01*
X153995196Y-79511227D01*
X153998796Y-79535495D01*
X154000000Y-79559999D01*
X154000000Y-80460001D01*
X153998796Y-80484505D01*
X153995196Y-80508773D01*
X153989235Y-80532572D01*
X153980970Y-80555671D01*
X153970480Y-80577850D01*
X153957868Y-80598893D01*
X153943253Y-80618599D01*
X153926777Y-80636777D01*
X153908599Y-80653253D01*
X153888893Y-80667868D01*
X153867850Y-80680480D01*
X153845671Y-80690970D01*
X153822572Y-80699235D01*
X153798773Y-80705196D01*
X153774505Y-80708796D01*
X153750001Y-80710000D01*
X153099999Y-80710000D01*
X153075495Y-80708796D01*
X153051227Y-80705196D01*
X153027428Y-80699235D01*
X153004329Y-80690970D01*
X152982150Y-80680480D01*
X152961107Y-80667868D01*
X152941401Y-80653253D01*
X152923223Y-80636777D01*
X152906747Y-80618599D01*
X152892132Y-80598893D01*
X152879520Y-80577850D01*
X152869030Y-80555671D01*
X152860765Y-80532572D01*
X152854804Y-80508773D01*
X152851204Y-80484505D01*
X152850000Y-80460001D01*
X152850000Y-79559999D01*
X152851204Y-79535495D01*
X152854804Y-79511227D01*
X152860765Y-79487428D01*
X152869030Y-79464329D01*
X152879520Y-79442150D01*
X152892132Y-79421107D01*
X152906747Y-79401401D01*
X152923223Y-79383223D01*
X152941401Y-79366747D01*
X152961107Y-79352132D01*
X152982150Y-79339520D01*
X153004329Y-79329030D01*
X153027428Y-79320765D01*
X153051227Y-79314804D01*
X153075495Y-79311204D01*
X153099999Y-79310000D01*
X153750001Y-79310000D01*
X153774505Y-79311204D01*
X153774505Y-79311204D01*
G37*
D13*
G04 #@! TD*
G04 #@! TO.P,C3,2*
G04 #@! TO.N,Earth*
X153425000Y-80010000D03*
D12*
G04 #@! TO.N,Net-(C3-Pad1)*
G04 #@! TO.C,C3*
G36*
X151724505Y-79311204D02*
X151748773Y-79314804D01*
X151772572Y-79320765D01*
X151795671Y-79329030D01*
X151817850Y-79339520D01*
X151838893Y-79352132D01*
X151858599Y-79366747D01*
X151876777Y-79383223D01*
X151893253Y-79401401D01*
X151907868Y-79421107D01*
X151920480Y-79442150D01*
X151930970Y-79464329D01*
X151939235Y-79487428D01*
X151945196Y-79511227D01*
X151948796Y-79535495D01*
X151950000Y-79559999D01*
X151950000Y-80460001D01*
X151948796Y-80484505D01*
X151945196Y-80508773D01*
X151939235Y-80532572D01*
X151930970Y-80555671D01*
X151920480Y-80577850D01*
X151907868Y-80598893D01*
X151893253Y-80618599D01*
X151876777Y-80636777D01*
X151858599Y-80653253D01*
X151838893Y-80667868D01*
X151817850Y-80680480D01*
X151795671Y-80690970D01*
X151772572Y-80699235D01*
X151748773Y-80705196D01*
X151724505Y-80708796D01*
X151700001Y-80710000D01*
X151049999Y-80710000D01*
X151025495Y-80708796D01*
X151001227Y-80705196D01*
X150977428Y-80699235D01*
X150954329Y-80690970D01*
X150932150Y-80680480D01*
X150911107Y-80667868D01*
X150891401Y-80653253D01*
X150873223Y-80636777D01*
X150856747Y-80618599D01*
X150842132Y-80598893D01*
X150829520Y-80577850D01*
X150819030Y-80555671D01*
X150810765Y-80532572D01*
X150804804Y-80508773D01*
X150801204Y-80484505D01*
X150800000Y-80460001D01*
X150800000Y-79559999D01*
X150801204Y-79535495D01*
X150804804Y-79511227D01*
X150810765Y-79487428D01*
X150819030Y-79464329D01*
X150829520Y-79442150D01*
X150842132Y-79421107D01*
X150856747Y-79401401D01*
X150873223Y-79383223D01*
X150891401Y-79366747D01*
X150911107Y-79352132D01*
X150932150Y-79339520D01*
X150954329Y-79329030D01*
X150977428Y-79320765D01*
X151001227Y-79314804D01*
X151025495Y-79311204D01*
X151049999Y-79310000D01*
X151700001Y-79310000D01*
X151724505Y-79311204D01*
X151724505Y-79311204D01*
G37*
D13*
G04 #@! TD*
G04 #@! TO.P,C3,1*
G04 #@! TO.N,Net-(C3-Pad1)*
X151375000Y-80010000D03*
D12*
G04 #@! TO.N,32MHz*
G04 #@! TO.C,C4*
G36*
X148549505Y-86296204D02*
X148573773Y-86299804D01*
X148597572Y-86305765D01*
X148620671Y-86314030D01*
X148642850Y-86324520D01*
X148663893Y-86337132D01*
X148683599Y-86351747D01*
X148701777Y-86368223D01*
X148718253Y-86386401D01*
X148732868Y-86406107D01*
X148745480Y-86427150D01*
X148755970Y-86449329D01*
X148764235Y-86472428D01*
X148770196Y-86496227D01*
X148773796Y-86520495D01*
X148775000Y-86544999D01*
X148775000Y-87445001D01*
X148773796Y-87469505D01*
X148770196Y-87493773D01*
X148764235Y-87517572D01*
X148755970Y-87540671D01*
X148745480Y-87562850D01*
X148732868Y-87583893D01*
X148718253Y-87603599D01*
X148701777Y-87621777D01*
X148683599Y-87638253D01*
X148663893Y-87652868D01*
X148642850Y-87665480D01*
X148620671Y-87675970D01*
X148597572Y-87684235D01*
X148573773Y-87690196D01*
X148549505Y-87693796D01*
X148525001Y-87695000D01*
X147874999Y-87695000D01*
X147850495Y-87693796D01*
X147826227Y-87690196D01*
X147802428Y-87684235D01*
X147779329Y-87675970D01*
X147757150Y-87665480D01*
X147736107Y-87652868D01*
X147716401Y-87638253D01*
X147698223Y-87621777D01*
X147681747Y-87603599D01*
X147667132Y-87583893D01*
X147654520Y-87562850D01*
X147644030Y-87540671D01*
X147635765Y-87517572D01*
X147629804Y-87493773D01*
X147626204Y-87469505D01*
X147625000Y-87445001D01*
X147625000Y-86544999D01*
X147626204Y-86520495D01*
X147629804Y-86496227D01*
X147635765Y-86472428D01*
X147644030Y-86449329D01*
X147654520Y-86427150D01*
X147667132Y-86406107D01*
X147681747Y-86386401D01*
X147698223Y-86368223D01*
X147716401Y-86351747D01*
X147736107Y-86337132D01*
X147757150Y-86324520D01*
X147779329Y-86314030D01*
X147802428Y-86305765D01*
X147826227Y-86299804D01*
X147850495Y-86296204D01*
X147874999Y-86295000D01*
X148525001Y-86295000D01*
X148549505Y-86296204D01*
X148549505Y-86296204D01*
G37*
D13*
G04 #@! TD*
G04 #@! TO.P,C4,2*
G04 #@! TO.N,32MHz*
X148200000Y-86995000D03*
D12*
G04 #@! TO.N,Net-(C4-Pad1)*
G04 #@! TO.C,C4*
G36*
X150599505Y-86296204D02*
X150623773Y-86299804D01*
X150647572Y-86305765D01*
X150670671Y-86314030D01*
X150692850Y-86324520D01*
X150713893Y-86337132D01*
X150733599Y-86351747D01*
X150751777Y-86368223D01*
X150768253Y-86386401D01*
X150782868Y-86406107D01*
X150795480Y-86427150D01*
X150805970Y-86449329D01*
X150814235Y-86472428D01*
X150820196Y-86496227D01*
X150823796Y-86520495D01*
X150825000Y-86544999D01*
X150825000Y-87445001D01*
X150823796Y-87469505D01*
X150820196Y-87493773D01*
X150814235Y-87517572D01*
X150805970Y-87540671D01*
X150795480Y-87562850D01*
X150782868Y-87583893D01*
X150768253Y-87603599D01*
X150751777Y-87621777D01*
X150733599Y-87638253D01*
X150713893Y-87652868D01*
X150692850Y-87665480D01*
X150670671Y-87675970D01*
X150647572Y-87684235D01*
X150623773Y-87690196D01*
X150599505Y-87693796D01*
X150575001Y-87695000D01*
X149924999Y-87695000D01*
X149900495Y-87693796D01*
X149876227Y-87690196D01*
X149852428Y-87684235D01*
X149829329Y-87675970D01*
X149807150Y-87665480D01*
X149786107Y-87652868D01*
X149766401Y-87638253D01*
X149748223Y-87621777D01*
X149731747Y-87603599D01*
X149717132Y-87583893D01*
X149704520Y-87562850D01*
X149694030Y-87540671D01*
X149685765Y-87517572D01*
X149679804Y-87493773D01*
X149676204Y-87469505D01*
X149675000Y-87445001D01*
X149675000Y-86544999D01*
X149676204Y-86520495D01*
X149679804Y-86496227D01*
X149685765Y-86472428D01*
X149694030Y-86449329D01*
X149704520Y-86427150D01*
X149717132Y-86406107D01*
X149731747Y-86386401D01*
X149748223Y-86368223D01*
X149766401Y-86351747D01*
X149786107Y-86337132D01*
X149807150Y-86324520D01*
X149829329Y-86314030D01*
X149852428Y-86305765D01*
X149876227Y-86299804D01*
X149900495Y-86296204D01*
X149924999Y-86295000D01*
X150575001Y-86295000D01*
X150599505Y-86296204D01*
X150599505Y-86296204D01*
G37*
D13*
G04 #@! TD*
G04 #@! TO.P,C4,1*
G04 #@! TO.N,Net-(C4-Pad1)*
X150250000Y-86995000D03*
D12*
G04 #@! TO.N,GND*
G04 #@! TO.C,C5*
G36*
X150599505Y-96456204D02*
X150623773Y-96459804D01*
X150647572Y-96465765D01*
X150670671Y-96474030D01*
X150692850Y-96484520D01*
X150713893Y-96497132D01*
X150733599Y-96511747D01*
X150751777Y-96528223D01*
X150768253Y-96546401D01*
X150782868Y-96566107D01*
X150795480Y-96587150D01*
X150805970Y-96609329D01*
X150814235Y-96632428D01*
X150820196Y-96656227D01*
X150823796Y-96680495D01*
X150825000Y-96704999D01*
X150825000Y-97605001D01*
X150823796Y-97629505D01*
X150820196Y-97653773D01*
X150814235Y-97677572D01*
X150805970Y-97700671D01*
X150795480Y-97722850D01*
X150782868Y-97743893D01*
X150768253Y-97763599D01*
X150751777Y-97781777D01*
X150733599Y-97798253D01*
X150713893Y-97812868D01*
X150692850Y-97825480D01*
X150670671Y-97835970D01*
X150647572Y-97844235D01*
X150623773Y-97850196D01*
X150599505Y-97853796D01*
X150575001Y-97855000D01*
X149924999Y-97855000D01*
X149900495Y-97853796D01*
X149876227Y-97850196D01*
X149852428Y-97844235D01*
X149829329Y-97835970D01*
X149807150Y-97825480D01*
X149786107Y-97812868D01*
X149766401Y-97798253D01*
X149748223Y-97781777D01*
X149731747Y-97763599D01*
X149717132Y-97743893D01*
X149704520Y-97722850D01*
X149694030Y-97700671D01*
X149685765Y-97677572D01*
X149679804Y-97653773D01*
X149676204Y-97629505D01*
X149675000Y-97605001D01*
X149675000Y-96704999D01*
X149676204Y-96680495D01*
X149679804Y-96656227D01*
X149685765Y-96632428D01*
X149694030Y-96609329D01*
X149704520Y-96587150D01*
X149717132Y-96566107D01*
X149731747Y-96546401D01*
X149748223Y-96528223D01*
X149766401Y-96511747D01*
X149786107Y-96497132D01*
X149807150Y-96484520D01*
X149829329Y-96474030D01*
X149852428Y-96465765D01*
X149876227Y-96459804D01*
X149900495Y-96456204D01*
X149924999Y-96455000D01*
X150575001Y-96455000D01*
X150599505Y-96456204D01*
X150599505Y-96456204D01*
G37*
D13*
G04 #@! TD*
G04 #@! TO.P,C5,1*
G04 #@! TO.N,GND*
X150250000Y-97155000D03*
D12*
G04 #@! TO.N,3.3V*
G04 #@! TO.C,C5*
G36*
X148549505Y-96456204D02*
X148573773Y-96459804D01*
X148597572Y-96465765D01*
X148620671Y-96474030D01*
X148642850Y-96484520D01*
X148663893Y-96497132D01*
X148683599Y-96511747D01*
X148701777Y-96528223D01*
X148718253Y-96546401D01*
X148732868Y-96566107D01*
X148745480Y-96587150D01*
X148755970Y-96609329D01*
X148764235Y-96632428D01*
X148770196Y-96656227D01*
X148773796Y-96680495D01*
X148775000Y-96704999D01*
X148775000Y-97605001D01*
X148773796Y-97629505D01*
X148770196Y-97653773D01*
X148764235Y-97677572D01*
X148755970Y-97700671D01*
X148745480Y-97722850D01*
X148732868Y-97743893D01*
X148718253Y-97763599D01*
X148701777Y-97781777D01*
X148683599Y-97798253D01*
X148663893Y-97812868D01*
X148642850Y-97825480D01*
X148620671Y-97835970D01*
X148597572Y-97844235D01*
X148573773Y-97850196D01*
X148549505Y-97853796D01*
X148525001Y-97855000D01*
X147874999Y-97855000D01*
X147850495Y-97853796D01*
X147826227Y-97850196D01*
X147802428Y-97844235D01*
X147779329Y-97835970D01*
X147757150Y-97825480D01*
X147736107Y-97812868D01*
X147716401Y-97798253D01*
X147698223Y-97781777D01*
X147681747Y-97763599D01*
X147667132Y-97743893D01*
X147654520Y-97722850D01*
X147644030Y-97700671D01*
X147635765Y-97677572D01*
X147629804Y-97653773D01*
X147626204Y-97629505D01*
X147625000Y-97605001D01*
X147625000Y-96704999D01*
X147626204Y-96680495D01*
X147629804Y-96656227D01*
X147635765Y-96632428D01*
X147644030Y-96609329D01*
X147654520Y-96587150D01*
X147667132Y-96566107D01*
X147681747Y-96546401D01*
X147698223Y-96528223D01*
X147716401Y-96511747D01*
X147736107Y-96497132D01*
X147757150Y-96484520D01*
X147779329Y-96474030D01*
X147802428Y-96465765D01*
X147826227Y-96459804D01*
X147850495Y-96456204D01*
X147874999Y-96455000D01*
X148525001Y-96455000D01*
X148549505Y-96456204D01*
X148549505Y-96456204D01*
G37*
D13*
G04 #@! TD*
G04 #@! TO.P,C5,2*
G04 #@! TO.N,3.3V*
X148200000Y-97155000D03*
D14*
G04 #@! TO.P,D1,1*
G04 #@! TO.N,Net-(C3-Pad1)*
X148970000Y-78740000D03*
G04 #@! TO.P,D1,2*
G04 #@! TO.N,Net-(D1-Pad2)*
X145670000Y-78740000D03*
G04 #@! TD*
D15*
G04 #@! TO.P,J10,1*
G04 #@! TO.N,INPUT_A*
X160020000Y-97790000D03*
D10*
G04 #@! TO.P,J10,2*
G04 #@! TO.N,GND*
X160020000Y-100330000D03*
G04 #@! TD*
G04 #@! TO.P,J11,2*
G04 #@! TO.N,GND*
X160020000Y-92710000D03*
D15*
G04 #@! TO.P,J11,1*
G04 #@! TO.N,INPUT_B*
X160020000Y-90170000D03*
G04 #@! TD*
G04 #@! TO.P,J12,1*
G04 #@! TO.N,INPUT_ZCD*
X160020000Y-82550000D03*
D10*
G04 #@! TO.P,J12,2*
G04 #@! TO.N,GND*
X160020000Y-85090000D03*
G04 #@! TD*
D15*
G04 #@! TO.P,J13,1*
G04 #@! TO.N,SCL*
X160020000Y-67310000D03*
D10*
G04 #@! TO.P,J13,2*
G04 #@! TO.N,SDA*
X160020000Y-69850000D03*
G04 #@! TO.P,J13,3*
G04 #@! TO.N,5V*
X160020000Y-72390000D03*
G04 #@! TO.P,J13,4*
G04 #@! TO.N,GND*
X160020000Y-74930000D03*
G04 #@! TD*
G04 #@! TO.P,J14,4*
G04 #@! TO.N,GND*
X152400000Y-74930000D03*
G04 #@! TO.P,J14,3*
G04 #@! TO.N,5V*
X152400000Y-72390000D03*
G04 #@! TO.P,J14,2*
G04 #@! TO.N,SDA*
X152400000Y-69850000D03*
D15*
G04 #@! TO.P,J14,1*
G04 #@! TO.N,SCL*
X152400000Y-67310000D03*
G04 #@! TD*
D12*
G04 #@! TO.N,Net-(R1-Pad2)*
G04 #@! TO.C,R1*
G36*
X159344505Y-78041204D02*
X159368773Y-78044804D01*
X159392572Y-78050765D01*
X159415671Y-78059030D01*
X159437850Y-78069520D01*
X159458893Y-78082132D01*
X159478599Y-78096747D01*
X159496777Y-78113223D01*
X159513253Y-78131401D01*
X159527868Y-78151107D01*
X159540480Y-78172150D01*
X159550970Y-78194329D01*
X159559235Y-78217428D01*
X159565196Y-78241227D01*
X159568796Y-78265495D01*
X159570000Y-78289999D01*
X159570000Y-79190001D01*
X159568796Y-79214505D01*
X159565196Y-79238773D01*
X159559235Y-79262572D01*
X159550970Y-79285671D01*
X159540480Y-79307850D01*
X159527868Y-79328893D01*
X159513253Y-79348599D01*
X159496777Y-79366777D01*
X159478599Y-79383253D01*
X159458893Y-79397868D01*
X159437850Y-79410480D01*
X159415671Y-79420970D01*
X159392572Y-79429235D01*
X159368773Y-79435196D01*
X159344505Y-79438796D01*
X159320001Y-79440000D01*
X158669999Y-79440000D01*
X158645495Y-79438796D01*
X158621227Y-79435196D01*
X158597428Y-79429235D01*
X158574329Y-79420970D01*
X158552150Y-79410480D01*
X158531107Y-79397868D01*
X158511401Y-79383253D01*
X158493223Y-79366777D01*
X158476747Y-79348599D01*
X158462132Y-79328893D01*
X158449520Y-79307850D01*
X158439030Y-79285671D01*
X158430765Y-79262572D01*
X158424804Y-79238773D01*
X158421204Y-79214505D01*
X158420000Y-79190001D01*
X158420000Y-78289999D01*
X158421204Y-78265495D01*
X158424804Y-78241227D01*
X158430765Y-78217428D01*
X158439030Y-78194329D01*
X158449520Y-78172150D01*
X158462132Y-78151107D01*
X158476747Y-78131401D01*
X158493223Y-78113223D01*
X158511401Y-78096747D01*
X158531107Y-78082132D01*
X158552150Y-78069520D01*
X158574329Y-78059030D01*
X158597428Y-78050765D01*
X158621227Y-78044804D01*
X158645495Y-78041204D01*
X158669999Y-78040000D01*
X159320001Y-78040000D01*
X159344505Y-78041204D01*
X159344505Y-78041204D01*
G37*
D13*
G04 #@! TD*
G04 #@! TO.P,R1,2*
G04 #@! TO.N,Net-(R1-Pad2)*
X158995000Y-78740000D03*
D12*
G04 #@! TO.N,INPUT_ZCD*
G04 #@! TO.C,R1*
G36*
X161394505Y-78041204D02*
X161418773Y-78044804D01*
X161442572Y-78050765D01*
X161465671Y-78059030D01*
X161487850Y-78069520D01*
X161508893Y-78082132D01*
X161528599Y-78096747D01*
X161546777Y-78113223D01*
X161563253Y-78131401D01*
X161577868Y-78151107D01*
X161590480Y-78172150D01*
X161600970Y-78194329D01*
X161609235Y-78217428D01*
X161615196Y-78241227D01*
X161618796Y-78265495D01*
X161620000Y-78289999D01*
X161620000Y-79190001D01*
X161618796Y-79214505D01*
X161615196Y-79238773D01*
X161609235Y-79262572D01*
X161600970Y-79285671D01*
X161590480Y-79307850D01*
X161577868Y-79328893D01*
X161563253Y-79348599D01*
X161546777Y-79366777D01*
X161528599Y-79383253D01*
X161508893Y-79397868D01*
X161487850Y-79410480D01*
X161465671Y-79420970D01*
X161442572Y-79429235D01*
X161418773Y-79435196D01*
X161394505Y-79438796D01*
X161370001Y-79440000D01*
X160719999Y-79440000D01*
X160695495Y-79438796D01*
X160671227Y-79435196D01*
X160647428Y-79429235D01*
X160624329Y-79420970D01*
X160602150Y-79410480D01*
X160581107Y-79397868D01*
X160561401Y-79383253D01*
X160543223Y-79366777D01*
X160526747Y-79348599D01*
X160512132Y-79328893D01*
X160499520Y-79307850D01*
X160489030Y-79285671D01*
X160480765Y-79262572D01*
X160474804Y-79238773D01*
X160471204Y-79214505D01*
X160470000Y-79190001D01*
X160470000Y-78289999D01*
X160471204Y-78265495D01*
X160474804Y-78241227D01*
X160480765Y-78217428D01*
X160489030Y-78194329D01*
X160499520Y-78172150D01*
X160512132Y-78151107D01*
X160526747Y-78131401D01*
X160543223Y-78113223D01*
X160561401Y-78096747D01*
X160581107Y-78082132D01*
X160602150Y-78069520D01*
X160624329Y-78059030D01*
X160647428Y-78050765D01*
X160671227Y-78044804D01*
X160695495Y-78041204D01*
X160719999Y-78040000D01*
X161370001Y-78040000D01*
X161394505Y-78041204D01*
X161394505Y-78041204D01*
G37*
D13*
G04 #@! TD*
G04 #@! TO.P,R1,1*
G04 #@! TO.N,INPUT_ZCD*
X161045000Y-78740000D03*
D12*
G04 #@! TO.N,ARD_TX*
G04 #@! TO.C,R2*
G36*
X137019505Y-65976204D02*
X137043773Y-65979804D01*
X137067572Y-65985765D01*
X137090671Y-65994030D01*
X137112850Y-66004520D01*
X137133893Y-66017132D01*
X137153599Y-66031747D01*
X137171777Y-66048223D01*
X137188253Y-66066401D01*
X137202868Y-66086107D01*
X137215480Y-66107150D01*
X137225970Y-66129329D01*
X137234235Y-66152428D01*
X137240196Y-66176227D01*
X137243796Y-66200495D01*
X137245000Y-66224999D01*
X137245000Y-67125001D01*
X137243796Y-67149505D01*
X137240196Y-67173773D01*
X137234235Y-67197572D01*
X137225970Y-67220671D01*
X137215480Y-67242850D01*
X137202868Y-67263893D01*
X137188253Y-67283599D01*
X137171777Y-67301777D01*
X137153599Y-67318253D01*
X137133893Y-67332868D01*
X137112850Y-67345480D01*
X137090671Y-67355970D01*
X137067572Y-67364235D01*
X137043773Y-67370196D01*
X137019505Y-67373796D01*
X136995001Y-67375000D01*
X136344999Y-67375000D01*
X136320495Y-67373796D01*
X136296227Y-67370196D01*
X136272428Y-67364235D01*
X136249329Y-67355970D01*
X136227150Y-67345480D01*
X136206107Y-67332868D01*
X136186401Y-67318253D01*
X136168223Y-67301777D01*
X136151747Y-67283599D01*
X136137132Y-67263893D01*
X136124520Y-67242850D01*
X136114030Y-67220671D01*
X136105765Y-67197572D01*
X136099804Y-67173773D01*
X136096204Y-67149505D01*
X136095000Y-67125001D01*
X136095000Y-66224999D01*
X136096204Y-66200495D01*
X136099804Y-66176227D01*
X136105765Y-66152428D01*
X136114030Y-66129329D01*
X136124520Y-66107150D01*
X136137132Y-66086107D01*
X136151747Y-66066401D01*
X136168223Y-66048223D01*
X136186401Y-66031747D01*
X136206107Y-66017132D01*
X136227150Y-66004520D01*
X136249329Y-65994030D01*
X136272428Y-65985765D01*
X136296227Y-65979804D01*
X136320495Y-65976204D01*
X136344999Y-65975000D01*
X136995001Y-65975000D01*
X137019505Y-65976204D01*
X137019505Y-65976204D01*
G37*
D13*
G04 #@! TD*
G04 #@! TO.P,R2,1*
G04 #@! TO.N,ARD_TX*
X136670000Y-66675000D03*
D12*
G04 #@! TO.N,Net-(R2-Pad2)*
G04 #@! TO.C,R2*
G36*
X134969505Y-65976204D02*
X134993773Y-65979804D01*
X135017572Y-65985765D01*
X135040671Y-65994030D01*
X135062850Y-66004520D01*
X135083893Y-66017132D01*
X135103599Y-66031747D01*
X135121777Y-66048223D01*
X135138253Y-66066401D01*
X135152868Y-66086107D01*
X135165480Y-66107150D01*
X135175970Y-66129329D01*
X135184235Y-66152428D01*
X135190196Y-66176227D01*
X135193796Y-66200495D01*
X135195000Y-66224999D01*
X135195000Y-67125001D01*
X135193796Y-67149505D01*
X135190196Y-67173773D01*
X135184235Y-67197572D01*
X135175970Y-67220671D01*
X135165480Y-67242850D01*
X135152868Y-67263893D01*
X135138253Y-67283599D01*
X135121777Y-67301777D01*
X135103599Y-67318253D01*
X135083893Y-67332868D01*
X135062850Y-67345480D01*
X135040671Y-67355970D01*
X135017572Y-67364235D01*
X134993773Y-67370196D01*
X134969505Y-67373796D01*
X134945001Y-67375000D01*
X134294999Y-67375000D01*
X134270495Y-67373796D01*
X134246227Y-67370196D01*
X134222428Y-67364235D01*
X134199329Y-67355970D01*
X134177150Y-67345480D01*
X134156107Y-67332868D01*
X134136401Y-67318253D01*
X134118223Y-67301777D01*
X134101747Y-67283599D01*
X134087132Y-67263893D01*
X134074520Y-67242850D01*
X134064030Y-67220671D01*
X134055765Y-67197572D01*
X134049804Y-67173773D01*
X134046204Y-67149505D01*
X134045000Y-67125001D01*
X134045000Y-66224999D01*
X134046204Y-66200495D01*
X134049804Y-66176227D01*
X134055765Y-66152428D01*
X134064030Y-66129329D01*
X134074520Y-66107150D01*
X134087132Y-66086107D01*
X134101747Y-66066401D01*
X134118223Y-66048223D01*
X134136401Y-66031747D01*
X134156107Y-66017132D01*
X134177150Y-66004520D01*
X134199329Y-65994030D01*
X134222428Y-65985765D01*
X134246227Y-65979804D01*
X134270495Y-65976204D01*
X134294999Y-65975000D01*
X134945001Y-65975000D01*
X134969505Y-65976204D01*
X134969505Y-65976204D01*
G37*
D13*
G04 #@! TD*
G04 #@! TO.P,R2,2*
G04 #@! TO.N,Net-(R2-Pad2)*
X134620000Y-66675000D03*
D12*
G04 #@! TO.N,Net-(R3-Pad1)*
G04 #@! TO.C,R3*
G36*
X146254505Y-75501204D02*
X146278773Y-75504804D01*
X146302572Y-75510765D01*
X146325671Y-75519030D01*
X146347850Y-75529520D01*
X146368893Y-75542132D01*
X146388599Y-75556747D01*
X146406777Y-75573223D01*
X146423253Y-75591401D01*
X146437868Y-75611107D01*
X146450480Y-75632150D01*
X146460970Y-75654329D01*
X146469235Y-75677428D01*
X146475196Y-75701227D01*
X146478796Y-75725495D01*
X146480000Y-75749999D01*
X146480000Y-76650001D01*
X146478796Y-76674505D01*
X146475196Y-76698773D01*
X146469235Y-76722572D01*
X146460970Y-76745671D01*
X146450480Y-76767850D01*
X146437868Y-76788893D01*
X146423253Y-76808599D01*
X146406777Y-76826777D01*
X146388599Y-76843253D01*
X146368893Y-76857868D01*
X146347850Y-76870480D01*
X146325671Y-76880970D01*
X146302572Y-76889235D01*
X146278773Y-76895196D01*
X146254505Y-76898796D01*
X146230001Y-76900000D01*
X145579999Y-76900000D01*
X145555495Y-76898796D01*
X145531227Y-76895196D01*
X145507428Y-76889235D01*
X145484329Y-76880970D01*
X145462150Y-76870480D01*
X145441107Y-76857868D01*
X145421401Y-76843253D01*
X145403223Y-76826777D01*
X145386747Y-76808599D01*
X145372132Y-76788893D01*
X145359520Y-76767850D01*
X145349030Y-76745671D01*
X145340765Y-76722572D01*
X145334804Y-76698773D01*
X145331204Y-76674505D01*
X145330000Y-76650001D01*
X145330000Y-75749999D01*
X145331204Y-75725495D01*
X145334804Y-75701227D01*
X145340765Y-75677428D01*
X145349030Y-75654329D01*
X145359520Y-75632150D01*
X145372132Y-75611107D01*
X145386747Y-75591401D01*
X145403223Y-75573223D01*
X145421401Y-75556747D01*
X145441107Y-75542132D01*
X145462150Y-75529520D01*
X145484329Y-75519030D01*
X145507428Y-75510765D01*
X145531227Y-75504804D01*
X145555495Y-75501204D01*
X145579999Y-75500000D01*
X146230001Y-75500000D01*
X146254505Y-75501204D01*
X146254505Y-75501204D01*
G37*
D13*
G04 #@! TD*
G04 #@! TO.P,R3,1*
G04 #@! TO.N,Net-(R3-Pad1)*
X145905000Y-76200000D03*
D12*
G04 #@! TO.N,Net-(D1-Pad2)*
G04 #@! TO.C,R3*
G36*
X148304505Y-75501204D02*
X148328773Y-75504804D01*
X148352572Y-75510765D01*
X148375671Y-75519030D01*
X148397850Y-75529520D01*
X148418893Y-75542132D01*
X148438599Y-75556747D01*
X148456777Y-75573223D01*
X148473253Y-75591401D01*
X148487868Y-75611107D01*
X148500480Y-75632150D01*
X148510970Y-75654329D01*
X148519235Y-75677428D01*
X148525196Y-75701227D01*
X148528796Y-75725495D01*
X148530000Y-75749999D01*
X148530000Y-76650001D01*
X148528796Y-76674505D01*
X148525196Y-76698773D01*
X148519235Y-76722572D01*
X148510970Y-76745671D01*
X148500480Y-76767850D01*
X148487868Y-76788893D01*
X148473253Y-76808599D01*
X148456777Y-76826777D01*
X148438599Y-76843253D01*
X148418893Y-76857868D01*
X148397850Y-76870480D01*
X148375671Y-76880970D01*
X148352572Y-76889235D01*
X148328773Y-76895196D01*
X148304505Y-76898796D01*
X148280001Y-76900000D01*
X147629999Y-76900000D01*
X147605495Y-76898796D01*
X147581227Y-76895196D01*
X147557428Y-76889235D01*
X147534329Y-76880970D01*
X147512150Y-76870480D01*
X147491107Y-76857868D01*
X147471401Y-76843253D01*
X147453223Y-76826777D01*
X147436747Y-76808599D01*
X147422132Y-76788893D01*
X147409520Y-76767850D01*
X147399030Y-76745671D01*
X147390765Y-76722572D01*
X147384804Y-76698773D01*
X147381204Y-76674505D01*
X147380000Y-76650001D01*
X147380000Y-75749999D01*
X147381204Y-75725495D01*
X147384804Y-75701227D01*
X147390765Y-75677428D01*
X147399030Y-75654329D01*
X147409520Y-75632150D01*
X147422132Y-75611107D01*
X147436747Y-75591401D01*
X147453223Y-75573223D01*
X147471401Y-75556747D01*
X147491107Y-75542132D01*
X147512150Y-75529520D01*
X147534329Y-75519030D01*
X147557428Y-75510765D01*
X147581227Y-75504804D01*
X147605495Y-75501204D01*
X147629999Y-75500000D01*
X148280001Y-75500000D01*
X148304505Y-75501204D01*
X148304505Y-75501204D01*
G37*
D13*
G04 #@! TD*
G04 #@! TO.P,R3,2*
G04 #@! TO.N,Net-(D1-Pad2)*
X147955000Y-76200000D03*
D12*
G04 #@! TO.N,Net-(C3-Pad1)*
G04 #@! TO.C,R4*
G36*
X153774505Y-77406204D02*
X153798773Y-77409804D01*
X153822572Y-77415765D01*
X153845671Y-77424030D01*
X153867850Y-77434520D01*
X153888893Y-77447132D01*
X153908599Y-77461747D01*
X153926777Y-77478223D01*
X153943253Y-77496401D01*
X153957868Y-77516107D01*
X153970480Y-77537150D01*
X153980970Y-77559329D01*
X153989235Y-77582428D01*
X153995196Y-77606227D01*
X153998796Y-77630495D01*
X154000000Y-77654999D01*
X154000000Y-78555001D01*
X153998796Y-78579505D01*
X153995196Y-78603773D01*
X153989235Y-78627572D01*
X153980970Y-78650671D01*
X153970480Y-78672850D01*
X153957868Y-78693893D01*
X153943253Y-78713599D01*
X153926777Y-78731777D01*
X153908599Y-78748253D01*
X153888893Y-78762868D01*
X153867850Y-78775480D01*
X153845671Y-78785970D01*
X153822572Y-78794235D01*
X153798773Y-78800196D01*
X153774505Y-78803796D01*
X153750001Y-78805000D01*
X153099999Y-78805000D01*
X153075495Y-78803796D01*
X153051227Y-78800196D01*
X153027428Y-78794235D01*
X153004329Y-78785970D01*
X152982150Y-78775480D01*
X152961107Y-78762868D01*
X152941401Y-78748253D01*
X152923223Y-78731777D01*
X152906747Y-78713599D01*
X152892132Y-78693893D01*
X152879520Y-78672850D01*
X152869030Y-78650671D01*
X152860765Y-78627572D01*
X152854804Y-78603773D01*
X152851204Y-78579505D01*
X152850000Y-78555001D01*
X152850000Y-77654999D01*
X152851204Y-77630495D01*
X152854804Y-77606227D01*
X152860765Y-77582428D01*
X152869030Y-77559329D01*
X152879520Y-77537150D01*
X152892132Y-77516107D01*
X152906747Y-77496401D01*
X152923223Y-77478223D01*
X152941401Y-77461747D01*
X152961107Y-77447132D01*
X152982150Y-77434520D01*
X153004329Y-77424030D01*
X153027428Y-77415765D01*
X153051227Y-77409804D01*
X153075495Y-77406204D01*
X153099999Y-77405000D01*
X153750001Y-77405000D01*
X153774505Y-77406204D01*
X153774505Y-77406204D01*
G37*
D13*
G04 #@! TD*
G04 #@! TO.P,R4,2*
G04 #@! TO.N,Net-(C3-Pad1)*
X153425000Y-78105000D03*
D12*
G04 #@! TO.N,Net-(D1-Pad2)*
G04 #@! TO.C,R4*
G36*
X151724505Y-77406204D02*
X151748773Y-77409804D01*
X151772572Y-77415765D01*
X151795671Y-77424030D01*
X151817850Y-77434520D01*
X151838893Y-77447132D01*
X151858599Y-77461747D01*
X151876777Y-77478223D01*
X151893253Y-77496401D01*
X151907868Y-77516107D01*
X151920480Y-77537150D01*
X151930970Y-77559329D01*
X151939235Y-77582428D01*
X151945196Y-77606227D01*
X151948796Y-77630495D01*
X151950000Y-77654999D01*
X151950000Y-78555001D01*
X151948796Y-78579505D01*
X151945196Y-78603773D01*
X151939235Y-78627572D01*
X151930970Y-78650671D01*
X151920480Y-78672850D01*
X151907868Y-78693893D01*
X151893253Y-78713599D01*
X151876777Y-78731777D01*
X151858599Y-78748253D01*
X151838893Y-78762868D01*
X151817850Y-78775480D01*
X151795671Y-78785970D01*
X151772572Y-78794235D01*
X151748773Y-78800196D01*
X151724505Y-78803796D01*
X151700001Y-78805000D01*
X151049999Y-78805000D01*
X151025495Y-78803796D01*
X151001227Y-78800196D01*
X150977428Y-78794235D01*
X150954329Y-78785970D01*
X150932150Y-78775480D01*
X150911107Y-78762868D01*
X150891401Y-78748253D01*
X150873223Y-78731777D01*
X150856747Y-78713599D01*
X150842132Y-78693893D01*
X150829520Y-78672850D01*
X150819030Y-78650671D01*
X150810765Y-78627572D01*
X150804804Y-78603773D01*
X150801204Y-78579505D01*
X150800000Y-78555001D01*
X150800000Y-77654999D01*
X150801204Y-77630495D01*
X150804804Y-77606227D01*
X150810765Y-77582428D01*
X150819030Y-77559329D01*
X150829520Y-77537150D01*
X150842132Y-77516107D01*
X150856747Y-77496401D01*
X150873223Y-77478223D01*
X150891401Y-77461747D01*
X150911107Y-77447132D01*
X150932150Y-77434520D01*
X150954329Y-77424030D01*
X150977428Y-77415765D01*
X151001227Y-77409804D01*
X151025495Y-77406204D01*
X151049999Y-77405000D01*
X151700001Y-77405000D01*
X151724505Y-77406204D01*
X151724505Y-77406204D01*
G37*
D13*
G04 #@! TD*
G04 #@! TO.P,R4,1*
G04 #@! TO.N,Net-(D1-Pad2)*
X151375000Y-78105000D03*
D16*
G04 #@! TO.P,U2,3*
G04 #@! TO.N,Net-(C4-Pad1)*
X147855000Y-89980000D03*
G04 #@! TO.P,U2,4*
G04 #@! TO.N,3.3V*
X147955000Y-93980000D03*
G04 #@! TO.P,U2,1*
G04 #@! TO.N,Net-(U2-Pad1)*
X150555000Y-93980000D03*
G04 #@! TO.P,U2,2*
G04 #@! TO.N,GND*
X150555000Y-89980000D03*
G04 #@! TD*
D12*
G04 #@! TO.N,5V*
G04 #@! TO.C,R5*
G36*
X145254505Y-71326204D02*
X145278773Y-71329804D01*
X145302572Y-71335765D01*
X145325671Y-71344030D01*
X145347850Y-71354520D01*
X145368893Y-71367132D01*
X145388599Y-71381747D01*
X145406777Y-71398223D01*
X145423253Y-71416401D01*
X145437868Y-71436107D01*
X145450480Y-71457150D01*
X145460970Y-71479329D01*
X145469235Y-71502428D01*
X145475196Y-71526227D01*
X145478796Y-71550495D01*
X145480000Y-71574999D01*
X145480000Y-72225001D01*
X145478796Y-72249505D01*
X145475196Y-72273773D01*
X145469235Y-72297572D01*
X145460970Y-72320671D01*
X145450480Y-72342850D01*
X145437868Y-72363893D01*
X145423253Y-72383599D01*
X145406777Y-72401777D01*
X145388599Y-72418253D01*
X145368893Y-72432868D01*
X145347850Y-72445480D01*
X145325671Y-72455970D01*
X145302572Y-72464235D01*
X145278773Y-72470196D01*
X145254505Y-72473796D01*
X145230001Y-72475000D01*
X144329999Y-72475000D01*
X144305495Y-72473796D01*
X144281227Y-72470196D01*
X144257428Y-72464235D01*
X144234329Y-72455970D01*
X144212150Y-72445480D01*
X144191107Y-72432868D01*
X144171401Y-72418253D01*
X144153223Y-72401777D01*
X144136747Y-72383599D01*
X144122132Y-72363893D01*
X144109520Y-72342850D01*
X144099030Y-72320671D01*
X144090765Y-72297572D01*
X144084804Y-72273773D01*
X144081204Y-72249505D01*
X144080000Y-72225001D01*
X144080000Y-71574999D01*
X144081204Y-71550495D01*
X144084804Y-71526227D01*
X144090765Y-71502428D01*
X144099030Y-71479329D01*
X144109520Y-71457150D01*
X144122132Y-71436107D01*
X144136747Y-71416401D01*
X144153223Y-71398223D01*
X144171401Y-71381747D01*
X144191107Y-71367132D01*
X144212150Y-71354520D01*
X144234329Y-71344030D01*
X144257428Y-71335765D01*
X144281227Y-71329804D01*
X144305495Y-71326204D01*
X144329999Y-71325000D01*
X145230001Y-71325000D01*
X145254505Y-71326204D01*
X145254505Y-71326204D01*
G37*
D13*
G04 #@! TD*
G04 #@! TO.P,R5,1*
G04 #@! TO.N,5V*
X144780000Y-71900000D03*
D12*
G04 #@! TO.N,SCL*
G04 #@! TO.C,R5*
G36*
X145254505Y-69276204D02*
X145278773Y-69279804D01*
X145302572Y-69285765D01*
X145325671Y-69294030D01*
X145347850Y-69304520D01*
X145368893Y-69317132D01*
X145388599Y-69331747D01*
X145406777Y-69348223D01*
X145423253Y-69366401D01*
X145437868Y-69386107D01*
X145450480Y-69407150D01*
X145460970Y-69429329D01*
X145469235Y-69452428D01*
X145475196Y-69476227D01*
X145478796Y-69500495D01*
X145480000Y-69524999D01*
X145480000Y-70175001D01*
X145478796Y-70199505D01*
X145475196Y-70223773D01*
X145469235Y-70247572D01*
X145460970Y-70270671D01*
X145450480Y-70292850D01*
X145437868Y-70313893D01*
X145423253Y-70333599D01*
X145406777Y-70351777D01*
X145388599Y-70368253D01*
X145368893Y-70382868D01*
X145347850Y-70395480D01*
X145325671Y-70405970D01*
X145302572Y-70414235D01*
X145278773Y-70420196D01*
X145254505Y-70423796D01*
X145230001Y-70425000D01*
X144329999Y-70425000D01*
X144305495Y-70423796D01*
X144281227Y-70420196D01*
X144257428Y-70414235D01*
X144234329Y-70405970D01*
X144212150Y-70395480D01*
X144191107Y-70382868D01*
X144171401Y-70368253D01*
X144153223Y-70351777D01*
X144136747Y-70333599D01*
X144122132Y-70313893D01*
X144109520Y-70292850D01*
X144099030Y-70270671D01*
X144090765Y-70247572D01*
X144084804Y-70223773D01*
X144081204Y-70199505D01*
X144080000Y-70175001D01*
X144080000Y-69524999D01*
X144081204Y-69500495D01*
X144084804Y-69476227D01*
X144090765Y-69452428D01*
X144099030Y-69429329D01*
X144109520Y-69407150D01*
X144122132Y-69386107D01*
X144136747Y-69366401D01*
X144153223Y-69348223D01*
X144171401Y-69331747D01*
X144191107Y-69317132D01*
X144212150Y-69304520D01*
X144234329Y-69294030D01*
X144257428Y-69285765D01*
X144281227Y-69279804D01*
X144305495Y-69276204D01*
X144329999Y-69275000D01*
X145230001Y-69275000D01*
X145254505Y-69276204D01*
X145254505Y-69276204D01*
G37*
D13*
G04 #@! TD*
G04 #@! TO.P,R5,2*
G04 #@! TO.N,SCL*
X144780000Y-69850000D03*
D12*
G04 #@! TO.N,SDA*
G04 #@! TO.C,R6*
G36*
X147794505Y-69276204D02*
X147818773Y-69279804D01*
X147842572Y-69285765D01*
X147865671Y-69294030D01*
X147887850Y-69304520D01*
X147908893Y-69317132D01*
X147928599Y-69331747D01*
X147946777Y-69348223D01*
X147963253Y-69366401D01*
X147977868Y-69386107D01*
X147990480Y-69407150D01*
X148000970Y-69429329D01*
X148009235Y-69452428D01*
X148015196Y-69476227D01*
X148018796Y-69500495D01*
X148020000Y-69524999D01*
X148020000Y-70175001D01*
X148018796Y-70199505D01*
X148015196Y-70223773D01*
X148009235Y-70247572D01*
X148000970Y-70270671D01*
X147990480Y-70292850D01*
X147977868Y-70313893D01*
X147963253Y-70333599D01*
X147946777Y-70351777D01*
X147928599Y-70368253D01*
X147908893Y-70382868D01*
X147887850Y-70395480D01*
X147865671Y-70405970D01*
X147842572Y-70414235D01*
X147818773Y-70420196D01*
X147794505Y-70423796D01*
X147770001Y-70425000D01*
X146869999Y-70425000D01*
X146845495Y-70423796D01*
X146821227Y-70420196D01*
X146797428Y-70414235D01*
X146774329Y-70405970D01*
X146752150Y-70395480D01*
X146731107Y-70382868D01*
X146711401Y-70368253D01*
X146693223Y-70351777D01*
X146676747Y-70333599D01*
X146662132Y-70313893D01*
X146649520Y-70292850D01*
X146639030Y-70270671D01*
X146630765Y-70247572D01*
X146624804Y-70223773D01*
X146621204Y-70199505D01*
X146620000Y-70175001D01*
X146620000Y-69524999D01*
X146621204Y-69500495D01*
X146624804Y-69476227D01*
X146630765Y-69452428D01*
X146639030Y-69429329D01*
X146649520Y-69407150D01*
X146662132Y-69386107D01*
X146676747Y-69366401D01*
X146693223Y-69348223D01*
X146711401Y-69331747D01*
X146731107Y-69317132D01*
X146752150Y-69304520D01*
X146774329Y-69294030D01*
X146797428Y-69285765D01*
X146821227Y-69279804D01*
X146845495Y-69276204D01*
X146869999Y-69275000D01*
X147770001Y-69275000D01*
X147794505Y-69276204D01*
X147794505Y-69276204D01*
G37*
D13*
G04 #@! TD*
G04 #@! TO.P,R6,2*
G04 #@! TO.N,SDA*
X147320000Y-69850000D03*
D12*
G04 #@! TO.N,5V*
G04 #@! TO.C,R6*
G36*
X147794505Y-71326204D02*
X147818773Y-71329804D01*
X147842572Y-71335765D01*
X147865671Y-71344030D01*
X147887850Y-71354520D01*
X147908893Y-71367132D01*
X147928599Y-71381747D01*
X147946777Y-71398223D01*
X147963253Y-71416401D01*
X147977868Y-71436107D01*
X147990480Y-71457150D01*
X148000970Y-71479329D01*
X148009235Y-71502428D01*
X148015196Y-71526227D01*
X148018796Y-71550495D01*
X148020000Y-71574999D01*
X148020000Y-72225001D01*
X148018796Y-72249505D01*
X148015196Y-72273773D01*
X148009235Y-72297572D01*
X148000970Y-72320671D01*
X147990480Y-72342850D01*
X147977868Y-72363893D01*
X147963253Y-72383599D01*
X147946777Y-72401777D01*
X147928599Y-72418253D01*
X147908893Y-72432868D01*
X147887850Y-72445480D01*
X147865671Y-72455970D01*
X147842572Y-72464235D01*
X147818773Y-72470196D01*
X147794505Y-72473796D01*
X147770001Y-72475000D01*
X146869999Y-72475000D01*
X146845495Y-72473796D01*
X146821227Y-72470196D01*
X146797428Y-72464235D01*
X146774329Y-72455970D01*
X146752150Y-72445480D01*
X146731107Y-72432868D01*
X146711401Y-72418253D01*
X146693223Y-72401777D01*
X146676747Y-72383599D01*
X146662132Y-72363893D01*
X146649520Y-72342850D01*
X146639030Y-72320671D01*
X146630765Y-72297572D01*
X146624804Y-72273773D01*
X146621204Y-72249505D01*
X146620000Y-72225001D01*
X146620000Y-71574999D01*
X146621204Y-71550495D01*
X146624804Y-71526227D01*
X146630765Y-71502428D01*
X146639030Y-71479329D01*
X146649520Y-71457150D01*
X146662132Y-71436107D01*
X146676747Y-71416401D01*
X146693223Y-71398223D01*
X146711401Y-71381747D01*
X146731107Y-71367132D01*
X146752150Y-71354520D01*
X146774329Y-71344030D01*
X146797428Y-71335765D01*
X146821227Y-71329804D01*
X146845495Y-71326204D01*
X146869999Y-71325000D01*
X147770001Y-71325000D01*
X147794505Y-71326204D01*
X147794505Y-71326204D01*
G37*
D13*
G04 #@! TD*
G04 #@! TO.P,R6,1*
G04 #@! TO.N,5V*
X147320000Y-71900000D03*
D10*
G04 #@! TO.P,J5,1*
G04 #@! TO.N,Net-(J4-Pad1)*
X124460000Y-62230000D03*
G04 #@! TO.P,J5,2*
G04 #@! TO.N,GND*
X127000000Y-62230000D03*
G04 #@! TO.P,J5,3*
G04 #@! TO.N,Net-(J4-Pad3)*
X129540000Y-62230000D03*
G04 #@! TO.P,J5,4*
G04 #@! TO.N,Net-(J4-Pad4)*
X132080000Y-62230000D03*
G04 #@! TO.P,J5,5*
G04 #@! TO.N,Net-(J4-Pad5)*
X134620000Y-62230000D03*
G04 #@! TO.P,J5,6*
G04 #@! TO.N,Net-(J4-Pad6)*
X137160000Y-62230000D03*
G04 #@! TO.P,J5,7*
G04 #@! TO.N,Net-(J4-Pad7)*
X139700000Y-62230000D03*
G04 #@! TO.P,J5,8*
G04 #@! TO.N,Net-(J4-Pad8)*
X142240000Y-62230000D03*
G04 #@! TD*
G04 #@! TO.P,J6,1*
G04 #@! TO.N,Net-(J6-Pad1)*
X149860000Y-105410000D03*
G04 #@! TO.P,J6,2*
G04 #@! TO.N,Net-(J6-Pad2)*
X152400000Y-105410000D03*
G04 #@! TO.P,J6,3*
G04 #@! TO.N,Net-(J6-Pad3)*
X154940000Y-105410000D03*
G04 #@! TO.P,J6,4*
G04 #@! TO.N,Net-(J6-Pad4)*
X157480000Y-105410000D03*
G04 #@! TO.P,J6,5*
G04 #@! TO.N,SDA*
X160020000Y-105410000D03*
G04 #@! TO.P,J6,6*
G04 #@! TO.N,SCL*
X162560000Y-105410000D03*
G04 #@! TD*
G04 #@! TO.P,J8,8*
G04 #@! TO.N,ARD_RX*
X162560000Y-62230000D03*
G04 #@! TO.P,J8,7*
G04 #@! TO.N,ARD_TX*
X160020000Y-62230000D03*
G04 #@! TO.P,J8,6*
G04 #@! TO.N,Net-(J8-Pad6)*
X157480000Y-62230000D03*
G04 #@! TO.P,J8,5*
G04 #@! TO.N,Net-(J8-Pad5)*
X154940000Y-62230000D03*
G04 #@! TO.P,J8,4*
G04 #@! TO.N,Net-(J8-Pad4)*
X152400000Y-62230000D03*
G04 #@! TO.P,J8,3*
G04 #@! TO.N,Net-(J8-Pad3)*
X149860000Y-62230000D03*
G04 #@! TO.P,J8,2*
G04 #@! TO.N,Net-(J8-Pad2)*
X147320000Y-62230000D03*
G04 #@! TO.P,J8,1*
G04 #@! TO.N,Net-(J8-Pad1)*
X144780000Y-62230000D03*
G04 #@! TD*
D17*
G04 #@! TO.N,GND*
X135890000Y-92075000D03*
X137160000Y-92075000D03*
X137405000Y-87240000D03*
X136525000Y-86360000D03*
G04 #@! TO.N,MCLR*
X129540000Y-89535000D03*
X140970000Y-83185000D03*
G04 #@! TO.N,5V*
X139455000Y-72698000D03*
X139455000Y-71281570D03*
X143002000Y-72644000D03*
X143510022Y-71754996D03*
G04 #@! TO.N,Earth*
X154940000Y-80010000D03*
G04 #@! TO.N,3.3V*
X134620000Y-101600000D03*
X139700000Y-101600000D03*
G04 #@! TO.N,SCL*
X163830000Y-67310000D03*
G04 #@! TO.N,Net-(R1-Pad2)*
X145415012Y-74295000D03*
X137160000Y-74378432D03*
G04 #@! TD*
D18*
G04 #@! TO.N,GND*
X135500000Y-86995000D02*
X137405000Y-88900000D01*
X133730000Y-86995000D02*
X135500000Y-86995000D01*
X137405000Y-88900000D02*
X137405000Y-90805000D01*
X125476000Y-60706000D02*
X127000000Y-62230000D01*
X125476000Y-59690000D02*
X125476000Y-60706000D01*
X160020000Y-74930000D02*
X152400000Y-74930000D01*
X139700000Y-107950000D02*
X139700000Y-105410000D01*
X142240000Y-107950000D02*
X142240000Y-105410000D01*
X150555000Y-90180000D02*
X150555000Y-89980000D01*
X150250000Y-97155000D02*
X151892000Y-95513000D01*
X151892000Y-91517000D02*
X150555000Y-90180000D01*
X151892000Y-95513000D02*
X151892000Y-91517000D01*
D19*
X137405000Y-90805000D02*
X137160000Y-90805000D01*
X137160000Y-90805000D02*
X135890000Y-92075000D01*
X135500000Y-86995000D02*
X135890000Y-86995000D01*
D18*
X137405000Y-87240000D02*
X137405000Y-88900000D01*
X136525000Y-86360000D02*
X135890000Y-86995000D01*
X135890000Y-92075000D02*
X137160000Y-92075000D01*
X137160000Y-91050000D02*
X137405000Y-90805000D01*
X137160000Y-92075000D02*
X137160000Y-91050000D01*
X136915000Y-91050000D02*
X137160000Y-91050000D01*
X135890000Y-92075000D02*
X136915000Y-91050000D01*
X137405000Y-87240000D02*
X136525000Y-86360000D01*
X150250000Y-97400000D02*
X150250000Y-97155000D01*
X142240000Y-105410000D02*
X150250000Y-97400000D01*
X139700000Y-107950000D02*
X142240000Y-107950000D01*
D19*
G04 #@! TO.N,Net-(C3-Pad1)*
X151375000Y-80010000D02*
X151520000Y-80010000D01*
X148012000Y-78740000D02*
X148970000Y-78740000D01*
X146957999Y-79794001D02*
X148012000Y-78740000D01*
X143549001Y-79794001D02*
X146957999Y-79794001D01*
X143130000Y-79375000D02*
X143549001Y-79794001D01*
X150105000Y-78740000D02*
X151375000Y-80010000D01*
X148970000Y-78740000D02*
X150105000Y-78740000D01*
X153280000Y-78105000D02*
X151375000Y-80010000D01*
X153425000Y-78105000D02*
X153280000Y-78105000D01*
G04 #@! TO.N,MCLR*
X128905000Y-90170000D02*
X129032001Y-90042999D01*
X129032001Y-90042999D02*
X129540000Y-89535000D01*
X124460000Y-90170000D02*
X128905000Y-90170000D01*
X143130000Y-83185000D02*
X140970000Y-83185000D01*
D18*
G04 #@! TO.N,5V*
X160020000Y-72390000D02*
X152400000Y-72390000D01*
D19*
X123155999Y-86394001D02*
X123610001Y-85939999D01*
X123155999Y-91405999D02*
X123155999Y-86394001D01*
X123610001Y-85939999D02*
X124460000Y-85090000D01*
X124460000Y-92710000D02*
X123155999Y-91405999D01*
D20*
G04 #@! TO.N,Net-(J4-Pad1)*
X122936000Y-60706000D02*
X124460000Y-62230000D01*
X122936000Y-59690000D02*
X122936000Y-60706000D01*
G04 #@! TO.N,Net-(J6-Pad1)*
X149860000Y-107950000D02*
X149860000Y-105410000D01*
D19*
G04 #@! TO.N,INPUT_A*
X153670000Y-91440000D02*
X160020000Y-97790000D01*
X153670000Y-87630000D02*
X153670000Y-91440000D01*
X143130000Y-81915000D02*
X147955000Y-81915000D01*
X147955000Y-81915000D02*
X153670000Y-87630000D01*
G04 #@! TO.N,INPUT_B*
X158115000Y-90170000D02*
X160020000Y-90170000D01*
X143130000Y-80645000D02*
X148590000Y-80645000D01*
X148590000Y-80645000D02*
X158115000Y-90170000D01*
D18*
G04 #@! TO.N,5V*
X137160000Y-107950000D02*
X137160000Y-105410000D01*
X139455000Y-90805000D02*
X139455000Y-88900000D01*
X143130000Y-86995000D02*
X141360000Y-86995000D01*
X127000000Y-87630000D02*
X124460000Y-85090000D01*
X129434682Y-87630000D02*
X127000000Y-87630000D01*
X137160000Y-105410000D02*
X137160000Y-95355318D01*
X139455000Y-93060318D02*
X139455000Y-90805000D01*
X138430000Y-94085318D02*
X135890000Y-94085318D01*
X135890000Y-94085318D02*
X129434682Y-87630000D01*
X138430000Y-94085318D02*
X139455000Y-93060318D01*
X137160000Y-95355318D02*
X135890000Y-94085318D01*
X137160000Y-95355318D02*
X138430000Y-94085318D01*
D19*
X144635000Y-71755000D02*
X144780000Y-71900000D01*
X139455000Y-73025000D02*
X139455000Y-72698000D01*
D18*
X139455000Y-73025000D02*
X139455000Y-71281570D01*
X143256000Y-72390000D02*
X143002000Y-72644000D01*
X152400000Y-72390000D02*
X143256000Y-72390000D01*
X143510022Y-72135978D02*
X143002000Y-72644000D01*
X143510022Y-71754996D02*
X143510022Y-72135978D01*
X140090000Y-87630000D02*
X139455000Y-86995000D01*
X139455000Y-86995000D02*
X139455000Y-73025000D01*
X139455000Y-88900000D02*
X139455000Y-86995000D01*
X140725000Y-87630000D02*
X139455000Y-88900000D01*
X140725000Y-87630000D02*
X140090000Y-87630000D01*
X141360000Y-86995000D02*
X140725000Y-87630000D01*
D19*
G04 #@! TO.N,Earth*
X153425000Y-80010000D02*
X154940000Y-80010000D01*
G04 #@! TO.N,32MHz*
X146930000Y-85725000D02*
X148200000Y-86995000D01*
X143130000Y-85725000D02*
X146930000Y-85725000D01*
G04 #@! TO.N,Net-(C4-Pad1)*
X150250000Y-87585000D02*
X147855000Y-89980000D01*
X150250000Y-86995000D02*
X150250000Y-87585000D01*
D18*
G04 #@! TO.N,3.3V*
X134620000Y-107950000D02*
X134620000Y-105410000D01*
X134620000Y-105410000D02*
X134620000Y-101600000D01*
X143755000Y-101600000D02*
X148200000Y-97155000D01*
X139700000Y-101600000D02*
X143755000Y-101600000D01*
X147955000Y-96910000D02*
X148200000Y-97155000D01*
X147955000Y-93980000D02*
X147955000Y-96910000D01*
D19*
G04 #@! TO.N,Net-(D1-Pad2)*
X145670000Y-78485000D02*
X147955000Y-76200000D01*
X145670000Y-78740000D02*
X145670000Y-78485000D01*
X149470000Y-76200000D02*
X147955000Y-76200000D01*
X151375000Y-78105000D02*
X149470000Y-76200000D01*
G04 #@! TO.N,ICSPDAT*
X127635000Y-85725000D02*
X124460000Y-82550000D01*
X133730000Y-85725000D02*
X127635000Y-85725000D01*
X123610001Y-83399999D02*
X124460000Y-82550000D01*
X122301000Y-84709000D02*
X123610001Y-83399999D01*
X124460000Y-97790000D02*
X122301000Y-95631000D01*
X122301000Y-95631000D02*
X122301000Y-84709000D01*
G04 #@! TO.N,ICSPCLK*
X128905000Y-84455000D02*
X124460000Y-80010000D01*
X133730000Y-84455000D02*
X128905000Y-84455000D01*
X123610001Y-80859999D02*
X124460000Y-80010000D01*
X121539000Y-82931000D02*
X123610001Y-80859999D01*
X124460000Y-100330000D02*
X121539000Y-97409000D01*
X121539000Y-97409000D02*
X121539000Y-82931000D01*
D20*
G04 #@! TO.N,Vin*
X144780000Y-107950000D02*
X144780000Y-105410000D01*
G04 #@! TO.N,Reset*
X132080000Y-107950000D02*
X132080000Y-105410000D01*
G04 #@! TO.N,Net-(J4-Pad3)*
X128016000Y-60706000D02*
X129540000Y-62230000D01*
X128016000Y-59690000D02*
X128016000Y-60706000D01*
G04 #@! TO.N,Net-(J4-Pad4)*
X130556000Y-60706000D02*
X132080000Y-62230000D01*
X130556000Y-59690000D02*
X130556000Y-60706000D01*
G04 #@! TO.N,Net-(J4-Pad5)*
X133096000Y-60706000D02*
X134620000Y-62230000D01*
X133096000Y-59690000D02*
X133096000Y-60706000D01*
G04 #@! TO.N,Net-(J4-Pad6)*
X135636000Y-60706000D02*
X137160000Y-62230000D01*
X135636000Y-59690000D02*
X135636000Y-60706000D01*
G04 #@! TO.N,Net-(J4-Pad7)*
X138176000Y-60706000D02*
X139700000Y-62230000D01*
X138176000Y-59690000D02*
X138176000Y-60706000D01*
G04 #@! TO.N,Net-(J4-Pad8)*
X140716000Y-60706000D02*
X142240000Y-62230000D01*
X140716000Y-59690000D02*
X140716000Y-60706000D01*
G04 #@! TO.N,Net-(J6-Pad2)*
X152400000Y-107950000D02*
X152400000Y-105410000D01*
G04 #@! TO.N,Net-(J6-Pad3)*
X154940000Y-107950000D02*
X154940000Y-105410000D01*
G04 #@! TO.N,Net-(J6-Pad4)*
X157480000Y-107950000D02*
X157480000Y-105410000D01*
G04 #@! TO.N,SDA*
X160020000Y-107950000D02*
X160020000Y-105410000D01*
D18*
X160020000Y-69850000D02*
X152400000Y-69850000D01*
D19*
X147320000Y-69850000D02*
X152400000Y-69850000D01*
X163195000Y-73025000D02*
X160020000Y-69850000D01*
X163195000Y-100965000D02*
X163195000Y-73025000D01*
X160020000Y-105410000D02*
X160020000Y-104140000D01*
X160020000Y-104140000D02*
X163195000Y-100965000D01*
X161255999Y-66005999D02*
X161925000Y-66675000D01*
X146084001Y-66005999D02*
X161255999Y-66005999D01*
X140970000Y-71120000D02*
X146084001Y-66005999D01*
X140970000Y-75350000D02*
X140970000Y-71120000D01*
X142455000Y-76835000D02*
X140970000Y-75350000D01*
X143130000Y-76835000D02*
X142455000Y-76835000D01*
X160869999Y-69000001D02*
X160020000Y-69850000D01*
X161925000Y-66675000D02*
X161925000Y-67945000D01*
X161925000Y-67945000D02*
X160869999Y-69000001D01*
D20*
G04 #@! TO.N,SCL*
X162560000Y-107950000D02*
X162560000Y-105410000D01*
D18*
X160020000Y-67310000D02*
X152400000Y-67310000D01*
D19*
X162560000Y-105410000D02*
X162560000Y-104140000D01*
X162560000Y-104140000D02*
X162560000Y-103505000D01*
X162560000Y-103505000D02*
X164465000Y-101600000D01*
X164465000Y-101600000D02*
X164465000Y-67945000D01*
X164465000Y-67945000D02*
X163830000Y-67310000D01*
X143510000Y-69850000D02*
X144780000Y-69850000D01*
X146050000Y-67310000D02*
X152400000Y-67310000D01*
X144780000Y-69850000D02*
X144780000Y-68580000D01*
X144780000Y-68580000D02*
X146050000Y-67310000D01*
X143510000Y-69850000D02*
X144780000Y-68580000D01*
X143356238Y-69850000D02*
X143510000Y-69850000D01*
X143130000Y-74757000D02*
X141912979Y-73539979D01*
X141912979Y-71293259D02*
X143356238Y-69850000D01*
X141912979Y-73539979D02*
X141912979Y-71293259D01*
X143130000Y-75565000D02*
X143130000Y-74757000D01*
D20*
G04 #@! TO.N,Net-(J8-Pad1)*
X144780000Y-62230000D02*
X144780000Y-59690000D01*
G04 #@! TO.N,Net-(J8-Pad2)*
X147320000Y-62230000D02*
X147320000Y-59690000D01*
G04 #@! TO.N,Net-(J8-Pad3)*
X149860000Y-62230000D02*
X149860000Y-59690000D01*
G04 #@! TO.N,Net-(J8-Pad4)*
X152400000Y-62230000D02*
X152400000Y-59690000D01*
G04 #@! TO.N,Net-(J8-Pad5)*
X154940000Y-62230000D02*
X154940000Y-59690000D01*
G04 #@! TO.N,Net-(J8-Pad6)*
X157480000Y-62230000D02*
X157480000Y-59690000D01*
G04 #@! TO.N,ARD_RX*
X162560000Y-59690000D02*
X162560000Y-62230000D01*
D19*
X133730000Y-74757000D02*
X143336000Y-65151000D01*
X133730000Y-75565000D02*
X133730000Y-74757000D01*
X159639000Y-65151000D02*
X162560000Y-62230000D01*
X143336000Y-65151000D02*
X159639000Y-65151000D01*
D20*
G04 #@! TO.N,ARD_TX*
X160020000Y-62230000D02*
X160020000Y-59690000D01*
D19*
X137345000Y-66675000D02*
X139758000Y-64262000D01*
X136670000Y-66675000D02*
X137345000Y-66675000D01*
X157988000Y-64262000D02*
X160020000Y-62230000D01*
X139758000Y-64262000D02*
X157988000Y-64262000D01*
G04 #@! TO.N,INPUT_ZCD*
X161045000Y-81525000D02*
X160020000Y-82550000D01*
X161045000Y-78740000D02*
X161045000Y-81525000D01*
G04 #@! TO.N,P0*
X128143000Y-73533000D02*
X124460000Y-69850000D01*
X133730000Y-78105000D02*
X132247000Y-78105000D01*
X128143000Y-74001000D02*
X128143000Y-73533000D01*
X132247000Y-78105000D02*
X128143000Y-74001000D01*
G04 #@! TO.N,P1*
X131445000Y-79375000D02*
X124460000Y-72390000D01*
X133730000Y-79375000D02*
X131445000Y-79375000D01*
G04 #@! TO.N,P2*
X130175000Y-80645000D02*
X124460000Y-74930000D01*
X133730000Y-80645000D02*
X130175000Y-80645000D01*
G04 #@! TO.N,P3*
X128905000Y-81915000D02*
X124460000Y-77470000D01*
X133730000Y-81915000D02*
X128905000Y-81915000D01*
G04 #@! TO.N,Net-(R1-Pad2)*
X137160000Y-75096852D02*
X137160000Y-74378432D01*
X137160000Y-80430000D02*
X137160000Y-75096852D01*
X134405000Y-83185000D02*
X137160000Y-80430000D01*
X133730000Y-83185000D02*
X134405000Y-83185000D01*
X156489001Y-76234001D02*
X158995000Y-78740000D01*
X151164001Y-76234001D02*
X156489001Y-76234001D01*
X145415012Y-74295000D02*
X149225000Y-74295000D01*
X149225000Y-74295000D02*
X151164001Y-76234001D01*
G04 #@! TO.N,Net-(R2-Pad2)*
X131445000Y-69850000D02*
X134620000Y-66675000D01*
X131445000Y-75565000D02*
X131445000Y-69850000D01*
X133730000Y-76835000D02*
X132715000Y-76835000D01*
X132715000Y-76835000D02*
X131445000Y-75565000D01*
G04 #@! TO.N,Net-(R3-Pad1)*
X144000000Y-78105000D02*
X145905000Y-76200000D01*
X143130000Y-78105000D02*
X144000000Y-78105000D01*
G04 #@! TD*
M02*
