G04 #@! TF.GenerationSoftware,KiCad,Pcbnew,(5.0.1)-4*
G04 #@! TF.CreationDate,2020-05-01T14:19:44+02:00*
G04 #@! TF.ProjectId,freqcounter,66726571636F756E7465722E6B696361,1*
G04 #@! TF.SameCoordinates,Original*
G04 #@! TF.FileFunction,Soldermask,Bot*
G04 #@! TF.FilePolarity,Negative*
%FSLAX46Y46*%
G04 Gerber Fmt 4.6, Leading zero omitted, Abs format (unit mm)*
G04 Created by KiCad (PCBNEW (5.0.1)-4) date 01/05/2020 14:19:44*
%MOMM*%
%LPD*%
G01*
G04 APERTURE LIST*
%ADD10C,0.100000*%
G04 APERTURE END LIST*
D10*
G36*
X157590443Y-107055519D02*
X157656627Y-107062037D01*
X157769853Y-107096384D01*
X157826467Y-107113557D01*
X157965087Y-107187652D01*
X157982991Y-107197222D01*
X158018729Y-107226552D01*
X158120186Y-107309814D01*
X158203448Y-107411271D01*
X158232778Y-107447009D01*
X158232779Y-107447011D01*
X158316443Y-107603533D01*
X158316443Y-107603534D01*
X158367963Y-107773373D01*
X158385359Y-107950000D01*
X158367963Y-108126627D01*
X158333616Y-108239853D01*
X158316443Y-108296467D01*
X158242348Y-108435087D01*
X158232778Y-108452991D01*
X158203448Y-108488729D01*
X158120186Y-108590186D01*
X158018729Y-108673448D01*
X157982991Y-108702778D01*
X157982989Y-108702779D01*
X157826467Y-108786443D01*
X157769853Y-108803616D01*
X157656627Y-108837963D01*
X157590442Y-108844482D01*
X157524260Y-108851000D01*
X157435740Y-108851000D01*
X157369558Y-108844482D01*
X157303373Y-108837963D01*
X157190147Y-108803616D01*
X157133533Y-108786443D01*
X156977011Y-108702779D01*
X156977009Y-108702778D01*
X156941271Y-108673448D01*
X156839814Y-108590186D01*
X156756552Y-108488729D01*
X156727222Y-108452991D01*
X156717652Y-108435087D01*
X156643557Y-108296467D01*
X156626384Y-108239853D01*
X156592037Y-108126627D01*
X156574641Y-107950000D01*
X156592037Y-107773373D01*
X156643557Y-107603534D01*
X156643557Y-107603533D01*
X156727221Y-107447011D01*
X156727222Y-107447009D01*
X156756552Y-107411271D01*
X156839814Y-107309814D01*
X156941271Y-107226552D01*
X156977009Y-107197222D01*
X156994913Y-107187652D01*
X157133533Y-107113557D01*
X157190147Y-107096384D01*
X157303373Y-107062037D01*
X157369557Y-107055519D01*
X157435740Y-107049000D01*
X157524260Y-107049000D01*
X157590443Y-107055519D01*
X157590443Y-107055519D01*
G37*
G36*
X160130443Y-107055519D02*
X160196627Y-107062037D01*
X160309853Y-107096384D01*
X160366467Y-107113557D01*
X160505087Y-107187652D01*
X160522991Y-107197222D01*
X160558729Y-107226552D01*
X160660186Y-107309814D01*
X160743448Y-107411271D01*
X160772778Y-107447009D01*
X160772779Y-107447011D01*
X160856443Y-107603533D01*
X160856443Y-107603534D01*
X160907963Y-107773373D01*
X160925359Y-107950000D01*
X160907963Y-108126627D01*
X160873616Y-108239853D01*
X160856443Y-108296467D01*
X160782348Y-108435087D01*
X160772778Y-108452991D01*
X160743448Y-108488729D01*
X160660186Y-108590186D01*
X160558729Y-108673448D01*
X160522991Y-108702778D01*
X160522989Y-108702779D01*
X160366467Y-108786443D01*
X160309853Y-108803616D01*
X160196627Y-108837963D01*
X160130442Y-108844482D01*
X160064260Y-108851000D01*
X159975740Y-108851000D01*
X159909558Y-108844482D01*
X159843373Y-108837963D01*
X159730147Y-108803616D01*
X159673533Y-108786443D01*
X159517011Y-108702779D01*
X159517009Y-108702778D01*
X159481271Y-108673448D01*
X159379814Y-108590186D01*
X159296552Y-108488729D01*
X159267222Y-108452991D01*
X159257652Y-108435087D01*
X159183557Y-108296467D01*
X159166384Y-108239853D01*
X159132037Y-108126627D01*
X159114641Y-107950000D01*
X159132037Y-107773373D01*
X159183557Y-107603534D01*
X159183557Y-107603533D01*
X159267221Y-107447011D01*
X159267222Y-107447009D01*
X159296552Y-107411271D01*
X159379814Y-107309814D01*
X159481271Y-107226552D01*
X159517009Y-107197222D01*
X159534913Y-107187652D01*
X159673533Y-107113557D01*
X159730147Y-107096384D01*
X159843373Y-107062037D01*
X159909557Y-107055519D01*
X159975740Y-107049000D01*
X160064260Y-107049000D01*
X160130443Y-107055519D01*
X160130443Y-107055519D01*
G37*
G36*
X162670443Y-107055519D02*
X162736627Y-107062037D01*
X162849853Y-107096384D01*
X162906467Y-107113557D01*
X163045087Y-107187652D01*
X163062991Y-107197222D01*
X163098729Y-107226552D01*
X163200186Y-107309814D01*
X163283448Y-107411271D01*
X163312778Y-107447009D01*
X163312779Y-107447011D01*
X163396443Y-107603533D01*
X163396443Y-107603534D01*
X163447963Y-107773373D01*
X163465359Y-107950000D01*
X163447963Y-108126627D01*
X163413616Y-108239853D01*
X163396443Y-108296467D01*
X163322348Y-108435087D01*
X163312778Y-108452991D01*
X163283448Y-108488729D01*
X163200186Y-108590186D01*
X163098729Y-108673448D01*
X163062991Y-108702778D01*
X163062989Y-108702779D01*
X162906467Y-108786443D01*
X162849853Y-108803616D01*
X162736627Y-108837963D01*
X162670442Y-108844482D01*
X162604260Y-108851000D01*
X162515740Y-108851000D01*
X162449558Y-108844482D01*
X162383373Y-108837963D01*
X162270147Y-108803616D01*
X162213533Y-108786443D01*
X162057011Y-108702779D01*
X162057009Y-108702778D01*
X162021271Y-108673448D01*
X161919814Y-108590186D01*
X161836552Y-108488729D01*
X161807222Y-108452991D01*
X161797652Y-108435087D01*
X161723557Y-108296467D01*
X161706384Y-108239853D01*
X161672037Y-108126627D01*
X161654641Y-107950000D01*
X161672037Y-107773373D01*
X161723557Y-107603534D01*
X161723557Y-107603533D01*
X161807221Y-107447011D01*
X161807222Y-107447009D01*
X161836552Y-107411271D01*
X161919814Y-107309814D01*
X162021271Y-107226552D01*
X162057009Y-107197222D01*
X162074913Y-107187652D01*
X162213533Y-107113557D01*
X162270147Y-107096384D01*
X162383373Y-107062037D01*
X162449557Y-107055519D01*
X162515740Y-107049000D01*
X162604260Y-107049000D01*
X162670443Y-107055519D01*
X162670443Y-107055519D01*
G37*
G36*
X144890443Y-107055519D02*
X144956627Y-107062037D01*
X145069853Y-107096384D01*
X145126467Y-107113557D01*
X145265087Y-107187652D01*
X145282991Y-107197222D01*
X145318729Y-107226552D01*
X145420186Y-107309814D01*
X145503448Y-107411271D01*
X145532778Y-107447009D01*
X145532779Y-107447011D01*
X145616443Y-107603533D01*
X145616443Y-107603534D01*
X145667963Y-107773373D01*
X145685359Y-107950000D01*
X145667963Y-108126627D01*
X145633616Y-108239853D01*
X145616443Y-108296467D01*
X145542348Y-108435087D01*
X145532778Y-108452991D01*
X145503448Y-108488729D01*
X145420186Y-108590186D01*
X145318729Y-108673448D01*
X145282991Y-108702778D01*
X145282989Y-108702779D01*
X145126467Y-108786443D01*
X145069853Y-108803616D01*
X144956627Y-108837963D01*
X144890442Y-108844482D01*
X144824260Y-108851000D01*
X144735740Y-108851000D01*
X144669558Y-108844482D01*
X144603373Y-108837963D01*
X144490147Y-108803616D01*
X144433533Y-108786443D01*
X144277011Y-108702779D01*
X144277009Y-108702778D01*
X144241271Y-108673448D01*
X144139814Y-108590186D01*
X144056552Y-108488729D01*
X144027222Y-108452991D01*
X144017652Y-108435087D01*
X143943557Y-108296467D01*
X143926384Y-108239853D01*
X143892037Y-108126627D01*
X143874641Y-107950000D01*
X143892037Y-107773373D01*
X143943557Y-107603534D01*
X143943557Y-107603533D01*
X144027221Y-107447011D01*
X144027222Y-107447009D01*
X144056552Y-107411271D01*
X144139814Y-107309814D01*
X144241271Y-107226552D01*
X144277009Y-107197222D01*
X144294913Y-107187652D01*
X144433533Y-107113557D01*
X144490147Y-107096384D01*
X144603373Y-107062037D01*
X144669557Y-107055519D01*
X144735740Y-107049000D01*
X144824260Y-107049000D01*
X144890443Y-107055519D01*
X144890443Y-107055519D01*
G37*
G36*
X142350443Y-107055519D02*
X142416627Y-107062037D01*
X142529853Y-107096384D01*
X142586467Y-107113557D01*
X142725087Y-107187652D01*
X142742991Y-107197222D01*
X142778729Y-107226552D01*
X142880186Y-107309814D01*
X142963448Y-107411271D01*
X142992778Y-107447009D01*
X142992779Y-107447011D01*
X143076443Y-107603533D01*
X143076443Y-107603534D01*
X143127963Y-107773373D01*
X143145359Y-107950000D01*
X143127963Y-108126627D01*
X143093616Y-108239853D01*
X143076443Y-108296467D01*
X143002348Y-108435087D01*
X142992778Y-108452991D01*
X142963448Y-108488729D01*
X142880186Y-108590186D01*
X142778729Y-108673448D01*
X142742991Y-108702778D01*
X142742989Y-108702779D01*
X142586467Y-108786443D01*
X142529853Y-108803616D01*
X142416627Y-108837963D01*
X142350442Y-108844482D01*
X142284260Y-108851000D01*
X142195740Y-108851000D01*
X142129558Y-108844482D01*
X142063373Y-108837963D01*
X141950147Y-108803616D01*
X141893533Y-108786443D01*
X141737011Y-108702779D01*
X141737009Y-108702778D01*
X141701271Y-108673448D01*
X141599814Y-108590186D01*
X141516552Y-108488729D01*
X141487222Y-108452991D01*
X141477652Y-108435087D01*
X141403557Y-108296467D01*
X141386384Y-108239853D01*
X141352037Y-108126627D01*
X141334641Y-107950000D01*
X141352037Y-107773373D01*
X141403557Y-107603534D01*
X141403557Y-107603533D01*
X141487221Y-107447011D01*
X141487222Y-107447009D01*
X141516552Y-107411271D01*
X141599814Y-107309814D01*
X141701271Y-107226552D01*
X141737009Y-107197222D01*
X141754913Y-107187652D01*
X141893533Y-107113557D01*
X141950147Y-107096384D01*
X142063373Y-107062037D01*
X142129557Y-107055519D01*
X142195740Y-107049000D01*
X142284260Y-107049000D01*
X142350443Y-107055519D01*
X142350443Y-107055519D01*
G37*
G36*
X139810443Y-107055519D02*
X139876627Y-107062037D01*
X139989853Y-107096384D01*
X140046467Y-107113557D01*
X140185087Y-107187652D01*
X140202991Y-107197222D01*
X140238729Y-107226552D01*
X140340186Y-107309814D01*
X140423448Y-107411271D01*
X140452778Y-107447009D01*
X140452779Y-107447011D01*
X140536443Y-107603533D01*
X140536443Y-107603534D01*
X140587963Y-107773373D01*
X140605359Y-107950000D01*
X140587963Y-108126627D01*
X140553616Y-108239853D01*
X140536443Y-108296467D01*
X140462348Y-108435087D01*
X140452778Y-108452991D01*
X140423448Y-108488729D01*
X140340186Y-108590186D01*
X140238729Y-108673448D01*
X140202991Y-108702778D01*
X140202989Y-108702779D01*
X140046467Y-108786443D01*
X139989853Y-108803616D01*
X139876627Y-108837963D01*
X139810442Y-108844482D01*
X139744260Y-108851000D01*
X139655740Y-108851000D01*
X139589558Y-108844482D01*
X139523373Y-108837963D01*
X139410147Y-108803616D01*
X139353533Y-108786443D01*
X139197011Y-108702779D01*
X139197009Y-108702778D01*
X139161271Y-108673448D01*
X139059814Y-108590186D01*
X138976552Y-108488729D01*
X138947222Y-108452991D01*
X138937652Y-108435087D01*
X138863557Y-108296467D01*
X138846384Y-108239853D01*
X138812037Y-108126627D01*
X138794641Y-107950000D01*
X138812037Y-107773373D01*
X138863557Y-107603534D01*
X138863557Y-107603533D01*
X138947221Y-107447011D01*
X138947222Y-107447009D01*
X138976552Y-107411271D01*
X139059814Y-107309814D01*
X139161271Y-107226552D01*
X139197009Y-107197222D01*
X139214913Y-107187652D01*
X139353533Y-107113557D01*
X139410147Y-107096384D01*
X139523373Y-107062037D01*
X139589557Y-107055519D01*
X139655740Y-107049000D01*
X139744260Y-107049000D01*
X139810443Y-107055519D01*
X139810443Y-107055519D01*
G37*
G36*
X137270443Y-107055519D02*
X137336627Y-107062037D01*
X137449853Y-107096384D01*
X137506467Y-107113557D01*
X137645087Y-107187652D01*
X137662991Y-107197222D01*
X137698729Y-107226552D01*
X137800186Y-107309814D01*
X137883448Y-107411271D01*
X137912778Y-107447009D01*
X137912779Y-107447011D01*
X137996443Y-107603533D01*
X137996443Y-107603534D01*
X138047963Y-107773373D01*
X138065359Y-107950000D01*
X138047963Y-108126627D01*
X138013616Y-108239853D01*
X137996443Y-108296467D01*
X137922348Y-108435087D01*
X137912778Y-108452991D01*
X137883448Y-108488729D01*
X137800186Y-108590186D01*
X137698729Y-108673448D01*
X137662991Y-108702778D01*
X137662989Y-108702779D01*
X137506467Y-108786443D01*
X137449853Y-108803616D01*
X137336627Y-108837963D01*
X137270442Y-108844482D01*
X137204260Y-108851000D01*
X137115740Y-108851000D01*
X137049558Y-108844482D01*
X136983373Y-108837963D01*
X136870147Y-108803616D01*
X136813533Y-108786443D01*
X136657011Y-108702779D01*
X136657009Y-108702778D01*
X136621271Y-108673448D01*
X136519814Y-108590186D01*
X136436552Y-108488729D01*
X136407222Y-108452991D01*
X136397652Y-108435087D01*
X136323557Y-108296467D01*
X136306384Y-108239853D01*
X136272037Y-108126627D01*
X136254641Y-107950000D01*
X136272037Y-107773373D01*
X136323557Y-107603534D01*
X136323557Y-107603533D01*
X136407221Y-107447011D01*
X136407222Y-107447009D01*
X136436552Y-107411271D01*
X136519814Y-107309814D01*
X136621271Y-107226552D01*
X136657009Y-107197222D01*
X136674913Y-107187652D01*
X136813533Y-107113557D01*
X136870147Y-107096384D01*
X136983373Y-107062037D01*
X137049557Y-107055519D01*
X137115740Y-107049000D01*
X137204260Y-107049000D01*
X137270443Y-107055519D01*
X137270443Y-107055519D01*
G37*
G36*
X134730443Y-107055519D02*
X134796627Y-107062037D01*
X134909853Y-107096384D01*
X134966467Y-107113557D01*
X135105087Y-107187652D01*
X135122991Y-107197222D01*
X135158729Y-107226552D01*
X135260186Y-107309814D01*
X135343448Y-107411271D01*
X135372778Y-107447009D01*
X135372779Y-107447011D01*
X135456443Y-107603533D01*
X135456443Y-107603534D01*
X135507963Y-107773373D01*
X135525359Y-107950000D01*
X135507963Y-108126627D01*
X135473616Y-108239853D01*
X135456443Y-108296467D01*
X135382348Y-108435087D01*
X135372778Y-108452991D01*
X135343448Y-108488729D01*
X135260186Y-108590186D01*
X135158729Y-108673448D01*
X135122991Y-108702778D01*
X135122989Y-108702779D01*
X134966467Y-108786443D01*
X134909853Y-108803616D01*
X134796627Y-108837963D01*
X134730442Y-108844482D01*
X134664260Y-108851000D01*
X134575740Y-108851000D01*
X134509558Y-108844482D01*
X134443373Y-108837963D01*
X134330147Y-108803616D01*
X134273533Y-108786443D01*
X134117011Y-108702779D01*
X134117009Y-108702778D01*
X134081271Y-108673448D01*
X133979814Y-108590186D01*
X133896552Y-108488729D01*
X133867222Y-108452991D01*
X133857652Y-108435087D01*
X133783557Y-108296467D01*
X133766384Y-108239853D01*
X133732037Y-108126627D01*
X133714641Y-107950000D01*
X133732037Y-107773373D01*
X133783557Y-107603534D01*
X133783557Y-107603533D01*
X133867221Y-107447011D01*
X133867222Y-107447009D01*
X133896552Y-107411271D01*
X133979814Y-107309814D01*
X134081271Y-107226552D01*
X134117009Y-107197222D01*
X134134913Y-107187652D01*
X134273533Y-107113557D01*
X134330147Y-107096384D01*
X134443373Y-107062037D01*
X134509557Y-107055519D01*
X134575740Y-107049000D01*
X134664260Y-107049000D01*
X134730443Y-107055519D01*
X134730443Y-107055519D01*
G37*
G36*
X132190443Y-107055519D02*
X132256627Y-107062037D01*
X132369853Y-107096384D01*
X132426467Y-107113557D01*
X132565087Y-107187652D01*
X132582991Y-107197222D01*
X132618729Y-107226552D01*
X132720186Y-107309814D01*
X132803448Y-107411271D01*
X132832778Y-107447009D01*
X132832779Y-107447011D01*
X132916443Y-107603533D01*
X132916443Y-107603534D01*
X132967963Y-107773373D01*
X132985359Y-107950000D01*
X132967963Y-108126627D01*
X132933616Y-108239853D01*
X132916443Y-108296467D01*
X132842348Y-108435087D01*
X132832778Y-108452991D01*
X132803448Y-108488729D01*
X132720186Y-108590186D01*
X132618729Y-108673448D01*
X132582991Y-108702778D01*
X132582989Y-108702779D01*
X132426467Y-108786443D01*
X132369853Y-108803616D01*
X132256627Y-108837963D01*
X132190442Y-108844482D01*
X132124260Y-108851000D01*
X132035740Y-108851000D01*
X131969558Y-108844482D01*
X131903373Y-108837963D01*
X131790147Y-108803616D01*
X131733533Y-108786443D01*
X131577011Y-108702779D01*
X131577009Y-108702778D01*
X131541271Y-108673448D01*
X131439814Y-108590186D01*
X131356552Y-108488729D01*
X131327222Y-108452991D01*
X131317652Y-108435087D01*
X131243557Y-108296467D01*
X131226384Y-108239853D01*
X131192037Y-108126627D01*
X131174641Y-107950000D01*
X131192037Y-107773373D01*
X131243557Y-107603534D01*
X131243557Y-107603533D01*
X131327221Y-107447011D01*
X131327222Y-107447009D01*
X131356552Y-107411271D01*
X131439814Y-107309814D01*
X131541271Y-107226552D01*
X131577009Y-107197222D01*
X131594913Y-107187652D01*
X131733533Y-107113557D01*
X131790147Y-107096384D01*
X131903373Y-107062037D01*
X131969557Y-107055519D01*
X132035740Y-107049000D01*
X132124260Y-107049000D01*
X132190443Y-107055519D01*
X132190443Y-107055519D01*
G37*
G36*
X149970443Y-107055519D02*
X150036627Y-107062037D01*
X150149853Y-107096384D01*
X150206467Y-107113557D01*
X150345087Y-107187652D01*
X150362991Y-107197222D01*
X150398729Y-107226552D01*
X150500186Y-107309814D01*
X150583448Y-107411271D01*
X150612778Y-107447009D01*
X150612779Y-107447011D01*
X150696443Y-107603533D01*
X150696443Y-107603534D01*
X150747963Y-107773373D01*
X150765359Y-107950000D01*
X150747963Y-108126627D01*
X150713616Y-108239853D01*
X150696443Y-108296467D01*
X150622348Y-108435087D01*
X150612778Y-108452991D01*
X150583448Y-108488729D01*
X150500186Y-108590186D01*
X150398729Y-108673448D01*
X150362991Y-108702778D01*
X150362989Y-108702779D01*
X150206467Y-108786443D01*
X150149853Y-108803616D01*
X150036627Y-108837963D01*
X149970442Y-108844482D01*
X149904260Y-108851000D01*
X149815740Y-108851000D01*
X149749558Y-108844482D01*
X149683373Y-108837963D01*
X149570147Y-108803616D01*
X149513533Y-108786443D01*
X149357011Y-108702779D01*
X149357009Y-108702778D01*
X149321271Y-108673448D01*
X149219814Y-108590186D01*
X149136552Y-108488729D01*
X149107222Y-108452991D01*
X149097652Y-108435087D01*
X149023557Y-108296467D01*
X149006384Y-108239853D01*
X148972037Y-108126627D01*
X148954641Y-107950000D01*
X148972037Y-107773373D01*
X149023557Y-107603534D01*
X149023557Y-107603533D01*
X149107221Y-107447011D01*
X149107222Y-107447009D01*
X149136552Y-107411271D01*
X149219814Y-107309814D01*
X149321271Y-107226552D01*
X149357009Y-107197222D01*
X149374913Y-107187652D01*
X149513533Y-107113557D01*
X149570147Y-107096384D01*
X149683373Y-107062037D01*
X149749557Y-107055519D01*
X149815740Y-107049000D01*
X149904260Y-107049000D01*
X149970443Y-107055519D01*
X149970443Y-107055519D01*
G37*
G36*
X152510443Y-107055519D02*
X152576627Y-107062037D01*
X152689853Y-107096384D01*
X152746467Y-107113557D01*
X152885087Y-107187652D01*
X152902991Y-107197222D01*
X152938729Y-107226552D01*
X153040186Y-107309814D01*
X153123448Y-107411271D01*
X153152778Y-107447009D01*
X153152779Y-107447011D01*
X153236443Y-107603533D01*
X153236443Y-107603534D01*
X153287963Y-107773373D01*
X153305359Y-107950000D01*
X153287963Y-108126627D01*
X153253616Y-108239853D01*
X153236443Y-108296467D01*
X153162348Y-108435087D01*
X153152778Y-108452991D01*
X153123448Y-108488729D01*
X153040186Y-108590186D01*
X152938729Y-108673448D01*
X152902991Y-108702778D01*
X152902989Y-108702779D01*
X152746467Y-108786443D01*
X152689853Y-108803616D01*
X152576627Y-108837963D01*
X152510442Y-108844482D01*
X152444260Y-108851000D01*
X152355740Y-108851000D01*
X152289558Y-108844482D01*
X152223373Y-108837963D01*
X152110147Y-108803616D01*
X152053533Y-108786443D01*
X151897011Y-108702779D01*
X151897009Y-108702778D01*
X151861271Y-108673448D01*
X151759814Y-108590186D01*
X151676552Y-108488729D01*
X151647222Y-108452991D01*
X151637652Y-108435087D01*
X151563557Y-108296467D01*
X151546384Y-108239853D01*
X151512037Y-108126627D01*
X151494641Y-107950000D01*
X151512037Y-107773373D01*
X151563557Y-107603534D01*
X151563557Y-107603533D01*
X151647221Y-107447011D01*
X151647222Y-107447009D01*
X151676552Y-107411271D01*
X151759814Y-107309814D01*
X151861271Y-107226552D01*
X151897009Y-107197222D01*
X151914913Y-107187652D01*
X152053533Y-107113557D01*
X152110147Y-107096384D01*
X152223373Y-107062037D01*
X152289557Y-107055519D01*
X152355740Y-107049000D01*
X152444260Y-107049000D01*
X152510443Y-107055519D01*
X152510443Y-107055519D01*
G37*
G36*
X155050443Y-107055519D02*
X155116627Y-107062037D01*
X155229853Y-107096384D01*
X155286467Y-107113557D01*
X155425087Y-107187652D01*
X155442991Y-107197222D01*
X155478729Y-107226552D01*
X155580186Y-107309814D01*
X155663448Y-107411271D01*
X155692778Y-107447009D01*
X155692779Y-107447011D01*
X155776443Y-107603533D01*
X155776443Y-107603534D01*
X155827963Y-107773373D01*
X155845359Y-107950000D01*
X155827963Y-108126627D01*
X155793616Y-108239853D01*
X155776443Y-108296467D01*
X155702348Y-108435087D01*
X155692778Y-108452991D01*
X155663448Y-108488729D01*
X155580186Y-108590186D01*
X155478729Y-108673448D01*
X155442991Y-108702778D01*
X155442989Y-108702779D01*
X155286467Y-108786443D01*
X155229853Y-108803616D01*
X155116627Y-108837963D01*
X155050442Y-108844482D01*
X154984260Y-108851000D01*
X154895740Y-108851000D01*
X154829558Y-108844482D01*
X154763373Y-108837963D01*
X154650147Y-108803616D01*
X154593533Y-108786443D01*
X154437011Y-108702779D01*
X154437009Y-108702778D01*
X154401271Y-108673448D01*
X154299814Y-108590186D01*
X154216552Y-108488729D01*
X154187222Y-108452991D01*
X154177652Y-108435087D01*
X154103557Y-108296467D01*
X154086384Y-108239853D01*
X154052037Y-108126627D01*
X154034641Y-107950000D01*
X154052037Y-107773373D01*
X154103557Y-107603534D01*
X154103557Y-107603533D01*
X154187221Y-107447011D01*
X154187222Y-107447009D01*
X154216552Y-107411271D01*
X154299814Y-107309814D01*
X154401271Y-107226552D01*
X154437009Y-107197222D01*
X154454913Y-107187652D01*
X154593533Y-107113557D01*
X154650147Y-107096384D01*
X154763373Y-107062037D01*
X154829557Y-107055519D01*
X154895740Y-107049000D01*
X154984260Y-107049000D01*
X155050443Y-107055519D01*
X155050443Y-107055519D01*
G37*
G36*
X144890442Y-104515518D02*
X144956627Y-104522037D01*
X145069853Y-104556384D01*
X145126467Y-104573557D01*
X145265087Y-104647652D01*
X145282991Y-104657222D01*
X145318729Y-104686552D01*
X145420186Y-104769814D01*
X145503448Y-104871271D01*
X145532778Y-104907009D01*
X145532779Y-104907011D01*
X145616443Y-105063533D01*
X145616443Y-105063534D01*
X145667963Y-105233373D01*
X145685359Y-105410000D01*
X145667963Y-105586627D01*
X145633616Y-105699853D01*
X145616443Y-105756467D01*
X145542348Y-105895087D01*
X145532778Y-105912991D01*
X145503448Y-105948729D01*
X145420186Y-106050186D01*
X145318729Y-106133448D01*
X145282991Y-106162778D01*
X145282989Y-106162779D01*
X145126467Y-106246443D01*
X145069853Y-106263616D01*
X144956627Y-106297963D01*
X144890443Y-106304481D01*
X144824260Y-106311000D01*
X144735740Y-106311000D01*
X144669557Y-106304481D01*
X144603373Y-106297963D01*
X144490147Y-106263616D01*
X144433533Y-106246443D01*
X144277011Y-106162779D01*
X144277009Y-106162778D01*
X144241271Y-106133448D01*
X144139814Y-106050186D01*
X144056552Y-105948729D01*
X144027222Y-105912991D01*
X144017652Y-105895087D01*
X143943557Y-105756467D01*
X143926384Y-105699853D01*
X143892037Y-105586627D01*
X143874641Y-105410000D01*
X143892037Y-105233373D01*
X143943557Y-105063534D01*
X143943557Y-105063533D01*
X144027221Y-104907011D01*
X144027222Y-104907009D01*
X144056552Y-104871271D01*
X144139814Y-104769814D01*
X144241271Y-104686552D01*
X144277009Y-104657222D01*
X144294913Y-104647652D01*
X144433533Y-104573557D01*
X144490147Y-104556384D01*
X144603373Y-104522037D01*
X144669557Y-104515519D01*
X144735740Y-104509000D01*
X144824260Y-104509000D01*
X144890442Y-104515518D01*
X144890442Y-104515518D01*
G37*
G36*
X160130442Y-104515518D02*
X160196627Y-104522037D01*
X160309853Y-104556384D01*
X160366467Y-104573557D01*
X160505087Y-104647652D01*
X160522991Y-104657222D01*
X160558729Y-104686552D01*
X160660186Y-104769814D01*
X160743448Y-104871271D01*
X160772778Y-104907009D01*
X160772779Y-104907011D01*
X160856443Y-105063533D01*
X160856443Y-105063534D01*
X160907963Y-105233373D01*
X160925359Y-105410000D01*
X160907963Y-105586627D01*
X160873616Y-105699853D01*
X160856443Y-105756467D01*
X160782348Y-105895087D01*
X160772778Y-105912991D01*
X160743448Y-105948729D01*
X160660186Y-106050186D01*
X160558729Y-106133448D01*
X160522991Y-106162778D01*
X160522989Y-106162779D01*
X160366467Y-106246443D01*
X160309853Y-106263616D01*
X160196627Y-106297963D01*
X160130443Y-106304481D01*
X160064260Y-106311000D01*
X159975740Y-106311000D01*
X159909557Y-106304481D01*
X159843373Y-106297963D01*
X159730147Y-106263616D01*
X159673533Y-106246443D01*
X159517011Y-106162779D01*
X159517009Y-106162778D01*
X159481271Y-106133448D01*
X159379814Y-106050186D01*
X159296552Y-105948729D01*
X159267222Y-105912991D01*
X159257652Y-105895087D01*
X159183557Y-105756467D01*
X159166384Y-105699853D01*
X159132037Y-105586627D01*
X159114641Y-105410000D01*
X159132037Y-105233373D01*
X159183557Y-105063534D01*
X159183557Y-105063533D01*
X159267221Y-104907011D01*
X159267222Y-104907009D01*
X159296552Y-104871271D01*
X159379814Y-104769814D01*
X159481271Y-104686552D01*
X159517009Y-104657222D01*
X159534913Y-104647652D01*
X159673533Y-104573557D01*
X159730147Y-104556384D01*
X159843373Y-104522037D01*
X159909557Y-104515519D01*
X159975740Y-104509000D01*
X160064260Y-104509000D01*
X160130442Y-104515518D01*
X160130442Y-104515518D01*
G37*
G36*
X142350442Y-104515518D02*
X142416627Y-104522037D01*
X142529853Y-104556384D01*
X142586467Y-104573557D01*
X142725087Y-104647652D01*
X142742991Y-104657222D01*
X142778729Y-104686552D01*
X142880186Y-104769814D01*
X142963448Y-104871271D01*
X142992778Y-104907009D01*
X142992779Y-104907011D01*
X143076443Y-105063533D01*
X143076443Y-105063534D01*
X143127963Y-105233373D01*
X143145359Y-105410000D01*
X143127963Y-105586627D01*
X143093616Y-105699853D01*
X143076443Y-105756467D01*
X143002348Y-105895087D01*
X142992778Y-105912991D01*
X142963448Y-105948729D01*
X142880186Y-106050186D01*
X142778729Y-106133448D01*
X142742991Y-106162778D01*
X142742989Y-106162779D01*
X142586467Y-106246443D01*
X142529853Y-106263616D01*
X142416627Y-106297963D01*
X142350443Y-106304481D01*
X142284260Y-106311000D01*
X142195740Y-106311000D01*
X142129557Y-106304481D01*
X142063373Y-106297963D01*
X141950147Y-106263616D01*
X141893533Y-106246443D01*
X141737011Y-106162779D01*
X141737009Y-106162778D01*
X141701271Y-106133448D01*
X141599814Y-106050186D01*
X141516552Y-105948729D01*
X141487222Y-105912991D01*
X141477652Y-105895087D01*
X141403557Y-105756467D01*
X141386384Y-105699853D01*
X141352037Y-105586627D01*
X141334641Y-105410000D01*
X141352037Y-105233373D01*
X141403557Y-105063534D01*
X141403557Y-105063533D01*
X141487221Y-104907011D01*
X141487222Y-104907009D01*
X141516552Y-104871271D01*
X141599814Y-104769814D01*
X141701271Y-104686552D01*
X141737009Y-104657222D01*
X141754913Y-104647652D01*
X141893533Y-104573557D01*
X141950147Y-104556384D01*
X142063373Y-104522037D01*
X142129557Y-104515519D01*
X142195740Y-104509000D01*
X142284260Y-104509000D01*
X142350442Y-104515518D01*
X142350442Y-104515518D01*
G37*
G36*
X139810442Y-104515518D02*
X139876627Y-104522037D01*
X139989853Y-104556384D01*
X140046467Y-104573557D01*
X140185087Y-104647652D01*
X140202991Y-104657222D01*
X140238729Y-104686552D01*
X140340186Y-104769814D01*
X140423448Y-104871271D01*
X140452778Y-104907009D01*
X140452779Y-104907011D01*
X140536443Y-105063533D01*
X140536443Y-105063534D01*
X140587963Y-105233373D01*
X140605359Y-105410000D01*
X140587963Y-105586627D01*
X140553616Y-105699853D01*
X140536443Y-105756467D01*
X140462348Y-105895087D01*
X140452778Y-105912991D01*
X140423448Y-105948729D01*
X140340186Y-106050186D01*
X140238729Y-106133448D01*
X140202991Y-106162778D01*
X140202989Y-106162779D01*
X140046467Y-106246443D01*
X139989853Y-106263616D01*
X139876627Y-106297963D01*
X139810443Y-106304481D01*
X139744260Y-106311000D01*
X139655740Y-106311000D01*
X139589557Y-106304481D01*
X139523373Y-106297963D01*
X139410147Y-106263616D01*
X139353533Y-106246443D01*
X139197011Y-106162779D01*
X139197009Y-106162778D01*
X139161271Y-106133448D01*
X139059814Y-106050186D01*
X138976552Y-105948729D01*
X138947222Y-105912991D01*
X138937652Y-105895087D01*
X138863557Y-105756467D01*
X138846384Y-105699853D01*
X138812037Y-105586627D01*
X138794641Y-105410000D01*
X138812037Y-105233373D01*
X138863557Y-105063534D01*
X138863557Y-105063533D01*
X138947221Y-104907011D01*
X138947222Y-104907009D01*
X138976552Y-104871271D01*
X139059814Y-104769814D01*
X139161271Y-104686552D01*
X139197009Y-104657222D01*
X139214913Y-104647652D01*
X139353533Y-104573557D01*
X139410147Y-104556384D01*
X139523373Y-104522037D01*
X139589557Y-104515519D01*
X139655740Y-104509000D01*
X139744260Y-104509000D01*
X139810442Y-104515518D01*
X139810442Y-104515518D01*
G37*
G36*
X137270442Y-104515518D02*
X137336627Y-104522037D01*
X137449853Y-104556384D01*
X137506467Y-104573557D01*
X137645087Y-104647652D01*
X137662991Y-104657222D01*
X137698729Y-104686552D01*
X137800186Y-104769814D01*
X137883448Y-104871271D01*
X137912778Y-104907009D01*
X137912779Y-104907011D01*
X137996443Y-105063533D01*
X137996443Y-105063534D01*
X138047963Y-105233373D01*
X138065359Y-105410000D01*
X138047963Y-105586627D01*
X138013616Y-105699853D01*
X137996443Y-105756467D01*
X137922348Y-105895087D01*
X137912778Y-105912991D01*
X137883448Y-105948729D01*
X137800186Y-106050186D01*
X137698729Y-106133448D01*
X137662991Y-106162778D01*
X137662989Y-106162779D01*
X137506467Y-106246443D01*
X137449853Y-106263616D01*
X137336627Y-106297963D01*
X137270443Y-106304481D01*
X137204260Y-106311000D01*
X137115740Y-106311000D01*
X137049557Y-106304481D01*
X136983373Y-106297963D01*
X136870147Y-106263616D01*
X136813533Y-106246443D01*
X136657011Y-106162779D01*
X136657009Y-106162778D01*
X136621271Y-106133448D01*
X136519814Y-106050186D01*
X136436552Y-105948729D01*
X136407222Y-105912991D01*
X136397652Y-105895087D01*
X136323557Y-105756467D01*
X136306384Y-105699853D01*
X136272037Y-105586627D01*
X136254641Y-105410000D01*
X136272037Y-105233373D01*
X136323557Y-105063534D01*
X136323557Y-105063533D01*
X136407221Y-104907011D01*
X136407222Y-104907009D01*
X136436552Y-104871271D01*
X136519814Y-104769814D01*
X136621271Y-104686552D01*
X136657009Y-104657222D01*
X136674913Y-104647652D01*
X136813533Y-104573557D01*
X136870147Y-104556384D01*
X136983373Y-104522037D01*
X137049557Y-104515519D01*
X137115740Y-104509000D01*
X137204260Y-104509000D01*
X137270442Y-104515518D01*
X137270442Y-104515518D01*
G37*
G36*
X134730442Y-104515518D02*
X134796627Y-104522037D01*
X134909853Y-104556384D01*
X134966467Y-104573557D01*
X135105087Y-104647652D01*
X135122991Y-104657222D01*
X135158729Y-104686552D01*
X135260186Y-104769814D01*
X135343448Y-104871271D01*
X135372778Y-104907009D01*
X135372779Y-104907011D01*
X135456443Y-105063533D01*
X135456443Y-105063534D01*
X135507963Y-105233373D01*
X135525359Y-105410000D01*
X135507963Y-105586627D01*
X135473616Y-105699853D01*
X135456443Y-105756467D01*
X135382348Y-105895087D01*
X135372778Y-105912991D01*
X135343448Y-105948729D01*
X135260186Y-106050186D01*
X135158729Y-106133448D01*
X135122991Y-106162778D01*
X135122989Y-106162779D01*
X134966467Y-106246443D01*
X134909853Y-106263616D01*
X134796627Y-106297963D01*
X134730443Y-106304481D01*
X134664260Y-106311000D01*
X134575740Y-106311000D01*
X134509557Y-106304481D01*
X134443373Y-106297963D01*
X134330147Y-106263616D01*
X134273533Y-106246443D01*
X134117011Y-106162779D01*
X134117009Y-106162778D01*
X134081271Y-106133448D01*
X133979814Y-106050186D01*
X133896552Y-105948729D01*
X133867222Y-105912991D01*
X133857652Y-105895087D01*
X133783557Y-105756467D01*
X133766384Y-105699853D01*
X133732037Y-105586627D01*
X133714641Y-105410000D01*
X133732037Y-105233373D01*
X133783557Y-105063534D01*
X133783557Y-105063533D01*
X133867221Y-104907011D01*
X133867222Y-104907009D01*
X133896552Y-104871271D01*
X133979814Y-104769814D01*
X134081271Y-104686552D01*
X134117009Y-104657222D01*
X134134913Y-104647652D01*
X134273533Y-104573557D01*
X134330147Y-104556384D01*
X134443373Y-104522037D01*
X134509557Y-104515519D01*
X134575740Y-104509000D01*
X134664260Y-104509000D01*
X134730442Y-104515518D01*
X134730442Y-104515518D01*
G37*
G36*
X157590442Y-104515518D02*
X157656627Y-104522037D01*
X157769853Y-104556384D01*
X157826467Y-104573557D01*
X157965087Y-104647652D01*
X157982991Y-104657222D01*
X158018729Y-104686552D01*
X158120186Y-104769814D01*
X158203448Y-104871271D01*
X158232778Y-104907009D01*
X158232779Y-104907011D01*
X158316443Y-105063533D01*
X158316443Y-105063534D01*
X158367963Y-105233373D01*
X158385359Y-105410000D01*
X158367963Y-105586627D01*
X158333616Y-105699853D01*
X158316443Y-105756467D01*
X158242348Y-105895087D01*
X158232778Y-105912991D01*
X158203448Y-105948729D01*
X158120186Y-106050186D01*
X158018729Y-106133448D01*
X157982991Y-106162778D01*
X157982989Y-106162779D01*
X157826467Y-106246443D01*
X157769853Y-106263616D01*
X157656627Y-106297963D01*
X157590443Y-106304481D01*
X157524260Y-106311000D01*
X157435740Y-106311000D01*
X157369557Y-106304481D01*
X157303373Y-106297963D01*
X157190147Y-106263616D01*
X157133533Y-106246443D01*
X156977011Y-106162779D01*
X156977009Y-106162778D01*
X156941271Y-106133448D01*
X156839814Y-106050186D01*
X156756552Y-105948729D01*
X156727222Y-105912991D01*
X156717652Y-105895087D01*
X156643557Y-105756467D01*
X156626384Y-105699853D01*
X156592037Y-105586627D01*
X156574641Y-105410000D01*
X156592037Y-105233373D01*
X156643557Y-105063534D01*
X156643557Y-105063533D01*
X156727221Y-104907011D01*
X156727222Y-104907009D01*
X156756552Y-104871271D01*
X156839814Y-104769814D01*
X156941271Y-104686552D01*
X156977009Y-104657222D01*
X156994913Y-104647652D01*
X157133533Y-104573557D01*
X157190147Y-104556384D01*
X157303373Y-104522037D01*
X157369557Y-104515519D01*
X157435740Y-104509000D01*
X157524260Y-104509000D01*
X157590442Y-104515518D01*
X157590442Y-104515518D01*
G37*
G36*
X162670442Y-104515518D02*
X162736627Y-104522037D01*
X162849853Y-104556384D01*
X162906467Y-104573557D01*
X163045087Y-104647652D01*
X163062991Y-104657222D01*
X163098729Y-104686552D01*
X163200186Y-104769814D01*
X163283448Y-104871271D01*
X163312778Y-104907009D01*
X163312779Y-104907011D01*
X163396443Y-105063533D01*
X163396443Y-105063534D01*
X163447963Y-105233373D01*
X163465359Y-105410000D01*
X163447963Y-105586627D01*
X163413616Y-105699853D01*
X163396443Y-105756467D01*
X163322348Y-105895087D01*
X163312778Y-105912991D01*
X163283448Y-105948729D01*
X163200186Y-106050186D01*
X163098729Y-106133448D01*
X163062991Y-106162778D01*
X163062989Y-106162779D01*
X162906467Y-106246443D01*
X162849853Y-106263616D01*
X162736627Y-106297963D01*
X162670443Y-106304481D01*
X162604260Y-106311000D01*
X162515740Y-106311000D01*
X162449557Y-106304481D01*
X162383373Y-106297963D01*
X162270147Y-106263616D01*
X162213533Y-106246443D01*
X162057011Y-106162779D01*
X162057009Y-106162778D01*
X162021271Y-106133448D01*
X161919814Y-106050186D01*
X161836552Y-105948729D01*
X161807222Y-105912991D01*
X161797652Y-105895087D01*
X161723557Y-105756467D01*
X161706384Y-105699853D01*
X161672037Y-105586627D01*
X161654641Y-105410000D01*
X161672037Y-105233373D01*
X161723557Y-105063534D01*
X161723557Y-105063533D01*
X161807221Y-104907011D01*
X161807222Y-104907009D01*
X161836552Y-104871271D01*
X161919814Y-104769814D01*
X162021271Y-104686552D01*
X162057009Y-104657222D01*
X162074913Y-104647652D01*
X162213533Y-104573557D01*
X162270147Y-104556384D01*
X162383373Y-104522037D01*
X162449557Y-104515519D01*
X162515740Y-104509000D01*
X162604260Y-104509000D01*
X162670442Y-104515518D01*
X162670442Y-104515518D01*
G37*
G36*
X149970442Y-104515518D02*
X150036627Y-104522037D01*
X150149853Y-104556384D01*
X150206467Y-104573557D01*
X150345087Y-104647652D01*
X150362991Y-104657222D01*
X150398729Y-104686552D01*
X150500186Y-104769814D01*
X150583448Y-104871271D01*
X150612778Y-104907009D01*
X150612779Y-104907011D01*
X150696443Y-105063533D01*
X150696443Y-105063534D01*
X150747963Y-105233373D01*
X150765359Y-105410000D01*
X150747963Y-105586627D01*
X150713616Y-105699853D01*
X150696443Y-105756467D01*
X150622348Y-105895087D01*
X150612778Y-105912991D01*
X150583448Y-105948729D01*
X150500186Y-106050186D01*
X150398729Y-106133448D01*
X150362991Y-106162778D01*
X150362989Y-106162779D01*
X150206467Y-106246443D01*
X150149853Y-106263616D01*
X150036627Y-106297963D01*
X149970443Y-106304481D01*
X149904260Y-106311000D01*
X149815740Y-106311000D01*
X149749557Y-106304481D01*
X149683373Y-106297963D01*
X149570147Y-106263616D01*
X149513533Y-106246443D01*
X149357011Y-106162779D01*
X149357009Y-106162778D01*
X149321271Y-106133448D01*
X149219814Y-106050186D01*
X149136552Y-105948729D01*
X149107222Y-105912991D01*
X149097652Y-105895087D01*
X149023557Y-105756467D01*
X149006384Y-105699853D01*
X148972037Y-105586627D01*
X148954641Y-105410000D01*
X148972037Y-105233373D01*
X149023557Y-105063534D01*
X149023557Y-105063533D01*
X149107221Y-104907011D01*
X149107222Y-104907009D01*
X149136552Y-104871271D01*
X149219814Y-104769814D01*
X149321271Y-104686552D01*
X149357009Y-104657222D01*
X149374913Y-104647652D01*
X149513533Y-104573557D01*
X149570147Y-104556384D01*
X149683373Y-104522037D01*
X149749557Y-104515519D01*
X149815740Y-104509000D01*
X149904260Y-104509000D01*
X149970442Y-104515518D01*
X149970442Y-104515518D01*
G37*
G36*
X152510442Y-104515518D02*
X152576627Y-104522037D01*
X152689853Y-104556384D01*
X152746467Y-104573557D01*
X152885087Y-104647652D01*
X152902991Y-104657222D01*
X152938729Y-104686552D01*
X153040186Y-104769814D01*
X153123448Y-104871271D01*
X153152778Y-104907009D01*
X153152779Y-104907011D01*
X153236443Y-105063533D01*
X153236443Y-105063534D01*
X153287963Y-105233373D01*
X153305359Y-105410000D01*
X153287963Y-105586627D01*
X153253616Y-105699853D01*
X153236443Y-105756467D01*
X153162348Y-105895087D01*
X153152778Y-105912991D01*
X153123448Y-105948729D01*
X153040186Y-106050186D01*
X152938729Y-106133448D01*
X152902991Y-106162778D01*
X152902989Y-106162779D01*
X152746467Y-106246443D01*
X152689853Y-106263616D01*
X152576627Y-106297963D01*
X152510443Y-106304481D01*
X152444260Y-106311000D01*
X152355740Y-106311000D01*
X152289557Y-106304481D01*
X152223373Y-106297963D01*
X152110147Y-106263616D01*
X152053533Y-106246443D01*
X151897011Y-106162779D01*
X151897009Y-106162778D01*
X151861271Y-106133448D01*
X151759814Y-106050186D01*
X151676552Y-105948729D01*
X151647222Y-105912991D01*
X151637652Y-105895087D01*
X151563557Y-105756467D01*
X151546384Y-105699853D01*
X151512037Y-105586627D01*
X151494641Y-105410000D01*
X151512037Y-105233373D01*
X151563557Y-105063534D01*
X151563557Y-105063533D01*
X151647221Y-104907011D01*
X151647222Y-104907009D01*
X151676552Y-104871271D01*
X151759814Y-104769814D01*
X151861271Y-104686552D01*
X151897009Y-104657222D01*
X151914913Y-104647652D01*
X152053533Y-104573557D01*
X152110147Y-104556384D01*
X152223373Y-104522037D01*
X152289557Y-104515519D01*
X152355740Y-104509000D01*
X152444260Y-104509000D01*
X152510442Y-104515518D01*
X152510442Y-104515518D01*
G37*
G36*
X155050442Y-104515518D02*
X155116627Y-104522037D01*
X155229853Y-104556384D01*
X155286467Y-104573557D01*
X155425087Y-104647652D01*
X155442991Y-104657222D01*
X155478729Y-104686552D01*
X155580186Y-104769814D01*
X155663448Y-104871271D01*
X155692778Y-104907009D01*
X155692779Y-104907011D01*
X155776443Y-105063533D01*
X155776443Y-105063534D01*
X155827963Y-105233373D01*
X155845359Y-105410000D01*
X155827963Y-105586627D01*
X155793616Y-105699853D01*
X155776443Y-105756467D01*
X155702348Y-105895087D01*
X155692778Y-105912991D01*
X155663448Y-105948729D01*
X155580186Y-106050186D01*
X155478729Y-106133448D01*
X155442991Y-106162778D01*
X155442989Y-106162779D01*
X155286467Y-106246443D01*
X155229853Y-106263616D01*
X155116627Y-106297963D01*
X155050443Y-106304481D01*
X154984260Y-106311000D01*
X154895740Y-106311000D01*
X154829557Y-106304481D01*
X154763373Y-106297963D01*
X154650147Y-106263616D01*
X154593533Y-106246443D01*
X154437011Y-106162779D01*
X154437009Y-106162778D01*
X154401271Y-106133448D01*
X154299814Y-106050186D01*
X154216552Y-105948729D01*
X154187222Y-105912991D01*
X154177652Y-105895087D01*
X154103557Y-105756467D01*
X154086384Y-105699853D01*
X154052037Y-105586627D01*
X154034641Y-105410000D01*
X154052037Y-105233373D01*
X154103557Y-105063534D01*
X154103557Y-105063533D01*
X154187221Y-104907011D01*
X154187222Y-104907009D01*
X154216552Y-104871271D01*
X154299814Y-104769814D01*
X154401271Y-104686552D01*
X154437009Y-104657222D01*
X154454913Y-104647652D01*
X154593533Y-104573557D01*
X154650147Y-104556384D01*
X154763373Y-104522037D01*
X154829557Y-104515519D01*
X154895740Y-104509000D01*
X154984260Y-104509000D01*
X155050442Y-104515518D01*
X155050442Y-104515518D01*
G37*
G36*
X132190442Y-104515518D02*
X132256627Y-104522037D01*
X132369853Y-104556384D01*
X132426467Y-104573557D01*
X132565087Y-104647652D01*
X132582991Y-104657222D01*
X132618729Y-104686552D01*
X132720186Y-104769814D01*
X132803448Y-104871271D01*
X132832778Y-104907009D01*
X132832779Y-104907011D01*
X132916443Y-105063533D01*
X132916443Y-105063534D01*
X132967963Y-105233373D01*
X132985359Y-105410000D01*
X132967963Y-105586627D01*
X132933616Y-105699853D01*
X132916443Y-105756467D01*
X132842348Y-105895087D01*
X132832778Y-105912991D01*
X132803448Y-105948729D01*
X132720186Y-106050186D01*
X132618729Y-106133448D01*
X132582991Y-106162778D01*
X132582989Y-106162779D01*
X132426467Y-106246443D01*
X132369853Y-106263616D01*
X132256627Y-106297963D01*
X132190443Y-106304481D01*
X132124260Y-106311000D01*
X132035740Y-106311000D01*
X131969557Y-106304481D01*
X131903373Y-106297963D01*
X131790147Y-106263616D01*
X131733533Y-106246443D01*
X131577011Y-106162779D01*
X131577009Y-106162778D01*
X131541271Y-106133448D01*
X131439814Y-106050186D01*
X131356552Y-105948729D01*
X131327222Y-105912991D01*
X131317652Y-105895087D01*
X131243557Y-105756467D01*
X131226384Y-105699853D01*
X131192037Y-105586627D01*
X131174641Y-105410000D01*
X131192037Y-105233373D01*
X131243557Y-105063534D01*
X131243557Y-105063533D01*
X131327221Y-104907011D01*
X131327222Y-104907009D01*
X131356552Y-104871271D01*
X131439814Y-104769814D01*
X131541271Y-104686552D01*
X131577009Y-104657222D01*
X131594913Y-104647652D01*
X131733533Y-104573557D01*
X131790147Y-104556384D01*
X131903373Y-104522037D01*
X131969557Y-104515519D01*
X132035740Y-104509000D01*
X132124260Y-104509000D01*
X132190442Y-104515518D01*
X132190442Y-104515518D01*
G37*
G36*
X160130442Y-99435518D02*
X160196627Y-99442037D01*
X160309853Y-99476384D01*
X160366467Y-99493557D01*
X160505087Y-99567652D01*
X160522991Y-99577222D01*
X160558729Y-99606552D01*
X160660186Y-99689814D01*
X160743448Y-99791271D01*
X160772778Y-99827009D01*
X160772779Y-99827011D01*
X160856443Y-99983533D01*
X160856443Y-99983534D01*
X160907963Y-100153373D01*
X160925359Y-100330000D01*
X160907963Y-100506627D01*
X160873616Y-100619853D01*
X160856443Y-100676467D01*
X160782348Y-100815087D01*
X160772778Y-100832991D01*
X160743448Y-100868729D01*
X160660186Y-100970186D01*
X160558729Y-101053448D01*
X160522991Y-101082778D01*
X160522989Y-101082779D01*
X160366467Y-101166443D01*
X160309853Y-101183616D01*
X160196627Y-101217963D01*
X160130442Y-101224482D01*
X160064260Y-101231000D01*
X159975740Y-101231000D01*
X159909557Y-101224481D01*
X159843373Y-101217963D01*
X159730147Y-101183616D01*
X159673533Y-101166443D01*
X159517011Y-101082779D01*
X159517009Y-101082778D01*
X159481271Y-101053448D01*
X159379814Y-100970186D01*
X159296552Y-100868729D01*
X159267222Y-100832991D01*
X159257652Y-100815087D01*
X159183557Y-100676467D01*
X159166384Y-100619853D01*
X159132037Y-100506627D01*
X159114641Y-100330000D01*
X159132037Y-100153373D01*
X159183557Y-99983534D01*
X159183557Y-99983533D01*
X159267221Y-99827011D01*
X159267222Y-99827009D01*
X159296552Y-99791271D01*
X159379814Y-99689814D01*
X159481271Y-99606552D01*
X159517009Y-99577222D01*
X159534913Y-99567652D01*
X159673533Y-99493557D01*
X159730147Y-99476384D01*
X159843373Y-99442037D01*
X159909557Y-99435519D01*
X159975740Y-99429000D01*
X160064260Y-99429000D01*
X160130442Y-99435518D01*
X160130442Y-99435518D01*
G37*
G36*
X124570442Y-99435518D02*
X124636627Y-99442037D01*
X124749853Y-99476384D01*
X124806467Y-99493557D01*
X124945087Y-99567652D01*
X124962991Y-99577222D01*
X124998729Y-99606552D01*
X125100186Y-99689814D01*
X125183448Y-99791271D01*
X125212778Y-99827009D01*
X125212779Y-99827011D01*
X125296443Y-99983533D01*
X125296443Y-99983534D01*
X125347963Y-100153373D01*
X125365359Y-100330000D01*
X125347963Y-100506627D01*
X125313616Y-100619853D01*
X125296443Y-100676467D01*
X125222348Y-100815087D01*
X125212778Y-100832991D01*
X125183448Y-100868729D01*
X125100186Y-100970186D01*
X124998729Y-101053448D01*
X124962991Y-101082778D01*
X124962989Y-101082779D01*
X124806467Y-101166443D01*
X124749853Y-101183616D01*
X124636627Y-101217963D01*
X124570442Y-101224482D01*
X124504260Y-101231000D01*
X124415740Y-101231000D01*
X124349557Y-101224481D01*
X124283373Y-101217963D01*
X124170147Y-101183616D01*
X124113533Y-101166443D01*
X123957011Y-101082779D01*
X123957009Y-101082778D01*
X123921271Y-101053448D01*
X123819814Y-100970186D01*
X123736552Y-100868729D01*
X123707222Y-100832991D01*
X123697652Y-100815087D01*
X123623557Y-100676467D01*
X123606384Y-100619853D01*
X123572037Y-100506627D01*
X123554641Y-100330000D01*
X123572037Y-100153373D01*
X123623557Y-99983534D01*
X123623557Y-99983533D01*
X123707221Y-99827011D01*
X123707222Y-99827009D01*
X123736552Y-99791271D01*
X123819814Y-99689814D01*
X123921271Y-99606552D01*
X123957009Y-99577222D01*
X123974913Y-99567652D01*
X124113533Y-99493557D01*
X124170147Y-99476384D01*
X124283373Y-99442037D01*
X124349557Y-99435519D01*
X124415740Y-99429000D01*
X124504260Y-99429000D01*
X124570442Y-99435518D01*
X124570442Y-99435518D01*
G37*
G36*
X160921000Y-98691000D02*
X159119000Y-98691000D01*
X159119000Y-96889000D01*
X160921000Y-96889000D01*
X160921000Y-98691000D01*
X160921000Y-98691000D01*
G37*
G36*
X124570443Y-96895519D02*
X124636627Y-96902037D01*
X124749853Y-96936384D01*
X124806467Y-96953557D01*
X124945087Y-97027652D01*
X124962991Y-97037222D01*
X124998729Y-97066552D01*
X125100186Y-97149814D01*
X125183448Y-97251271D01*
X125212778Y-97287009D01*
X125212779Y-97287011D01*
X125296443Y-97443533D01*
X125296443Y-97443534D01*
X125347963Y-97613373D01*
X125365359Y-97790000D01*
X125347963Y-97966627D01*
X125313616Y-98079853D01*
X125296443Y-98136467D01*
X125222348Y-98275087D01*
X125212778Y-98292991D01*
X125183448Y-98328729D01*
X125100186Y-98430186D01*
X124998729Y-98513448D01*
X124962991Y-98542778D01*
X124962989Y-98542779D01*
X124806467Y-98626443D01*
X124749853Y-98643616D01*
X124636627Y-98677963D01*
X124570443Y-98684481D01*
X124504260Y-98691000D01*
X124415740Y-98691000D01*
X124349558Y-98684482D01*
X124283373Y-98677963D01*
X124170147Y-98643616D01*
X124113533Y-98626443D01*
X123957011Y-98542779D01*
X123957009Y-98542778D01*
X123921271Y-98513448D01*
X123819814Y-98430186D01*
X123736552Y-98328729D01*
X123707222Y-98292991D01*
X123697652Y-98275087D01*
X123623557Y-98136467D01*
X123606384Y-98079853D01*
X123572037Y-97966627D01*
X123554641Y-97790000D01*
X123572037Y-97613373D01*
X123623557Y-97443534D01*
X123623557Y-97443533D01*
X123707221Y-97287011D01*
X123707222Y-97287009D01*
X123736552Y-97251271D01*
X123819814Y-97149814D01*
X123921271Y-97066552D01*
X123957009Y-97037222D01*
X123974913Y-97027652D01*
X124113533Y-96953557D01*
X124170147Y-96936384D01*
X124283373Y-96902037D01*
X124349557Y-96895519D01*
X124415740Y-96889000D01*
X124504260Y-96889000D01*
X124570443Y-96895519D01*
X124570443Y-96895519D01*
G37*
G36*
X124570443Y-94355519D02*
X124636627Y-94362037D01*
X124749853Y-94396384D01*
X124806467Y-94413557D01*
X124945087Y-94487652D01*
X124962991Y-94497222D01*
X124998729Y-94526552D01*
X125100186Y-94609814D01*
X125183448Y-94711271D01*
X125212778Y-94747009D01*
X125212779Y-94747011D01*
X125296443Y-94903533D01*
X125296443Y-94903534D01*
X125347963Y-95073373D01*
X125365359Y-95250000D01*
X125347963Y-95426627D01*
X125313616Y-95539853D01*
X125296443Y-95596467D01*
X125222348Y-95735087D01*
X125212778Y-95752991D01*
X125183448Y-95788729D01*
X125100186Y-95890186D01*
X124998729Y-95973448D01*
X124962991Y-96002778D01*
X124962989Y-96002779D01*
X124806467Y-96086443D01*
X124749853Y-96103616D01*
X124636627Y-96137963D01*
X124570443Y-96144481D01*
X124504260Y-96151000D01*
X124415740Y-96151000D01*
X124349557Y-96144481D01*
X124283373Y-96137963D01*
X124170147Y-96103616D01*
X124113533Y-96086443D01*
X123957011Y-96002779D01*
X123957009Y-96002778D01*
X123921271Y-95973448D01*
X123819814Y-95890186D01*
X123736552Y-95788729D01*
X123707222Y-95752991D01*
X123697652Y-95735087D01*
X123623557Y-95596467D01*
X123606384Y-95539853D01*
X123572037Y-95426627D01*
X123554641Y-95250000D01*
X123572037Y-95073373D01*
X123623557Y-94903534D01*
X123623557Y-94903533D01*
X123707221Y-94747011D01*
X123707222Y-94747009D01*
X123736552Y-94711271D01*
X123819814Y-94609814D01*
X123921271Y-94526552D01*
X123957009Y-94497222D01*
X123974913Y-94487652D01*
X124113533Y-94413557D01*
X124170147Y-94396384D01*
X124283373Y-94362037D01*
X124349558Y-94355518D01*
X124415740Y-94349000D01*
X124504260Y-94349000D01*
X124570443Y-94355519D01*
X124570443Y-94355519D01*
G37*
G36*
X160130442Y-91815518D02*
X160196627Y-91822037D01*
X160309853Y-91856384D01*
X160366467Y-91873557D01*
X160505087Y-91947652D01*
X160522991Y-91957222D01*
X160558729Y-91986552D01*
X160660186Y-92069814D01*
X160743448Y-92171271D01*
X160772778Y-92207009D01*
X160772779Y-92207011D01*
X160856443Y-92363533D01*
X160856443Y-92363534D01*
X160907963Y-92533373D01*
X160925359Y-92710000D01*
X160907963Y-92886627D01*
X160873616Y-92999853D01*
X160856443Y-93056467D01*
X160782348Y-93195087D01*
X160772778Y-93212991D01*
X160743448Y-93248729D01*
X160660186Y-93350186D01*
X160558729Y-93433448D01*
X160522991Y-93462778D01*
X160522989Y-93462779D01*
X160366467Y-93546443D01*
X160309853Y-93563616D01*
X160196627Y-93597963D01*
X160130443Y-93604481D01*
X160064260Y-93611000D01*
X159975740Y-93611000D01*
X159909557Y-93604481D01*
X159843373Y-93597963D01*
X159730147Y-93563616D01*
X159673533Y-93546443D01*
X159517011Y-93462779D01*
X159517009Y-93462778D01*
X159481271Y-93433448D01*
X159379814Y-93350186D01*
X159296552Y-93248729D01*
X159267222Y-93212991D01*
X159257652Y-93195087D01*
X159183557Y-93056467D01*
X159166384Y-92999853D01*
X159132037Y-92886627D01*
X159114641Y-92710000D01*
X159132037Y-92533373D01*
X159183557Y-92363534D01*
X159183557Y-92363533D01*
X159267221Y-92207011D01*
X159267222Y-92207009D01*
X159296552Y-92171271D01*
X159379814Y-92069814D01*
X159481271Y-91986552D01*
X159517009Y-91957222D01*
X159534913Y-91947652D01*
X159673533Y-91873557D01*
X159730147Y-91856384D01*
X159843373Y-91822037D01*
X159909557Y-91815519D01*
X159975740Y-91809000D01*
X160064260Y-91809000D01*
X160130442Y-91815518D01*
X160130442Y-91815518D01*
G37*
G36*
X124570442Y-91815518D02*
X124636627Y-91822037D01*
X124749853Y-91856384D01*
X124806467Y-91873557D01*
X124945087Y-91947652D01*
X124962991Y-91957222D01*
X124998729Y-91986552D01*
X125100186Y-92069814D01*
X125183448Y-92171271D01*
X125212778Y-92207009D01*
X125212779Y-92207011D01*
X125296443Y-92363533D01*
X125296443Y-92363534D01*
X125347963Y-92533373D01*
X125365359Y-92710000D01*
X125347963Y-92886627D01*
X125313616Y-92999853D01*
X125296443Y-93056467D01*
X125222348Y-93195087D01*
X125212778Y-93212991D01*
X125183448Y-93248729D01*
X125100186Y-93350186D01*
X124998729Y-93433448D01*
X124962991Y-93462778D01*
X124962989Y-93462779D01*
X124806467Y-93546443D01*
X124749853Y-93563616D01*
X124636627Y-93597963D01*
X124570443Y-93604481D01*
X124504260Y-93611000D01*
X124415740Y-93611000D01*
X124349557Y-93604481D01*
X124283373Y-93597963D01*
X124170147Y-93563616D01*
X124113533Y-93546443D01*
X123957011Y-93462779D01*
X123957009Y-93462778D01*
X123921271Y-93433448D01*
X123819814Y-93350186D01*
X123736552Y-93248729D01*
X123707222Y-93212991D01*
X123697652Y-93195087D01*
X123623557Y-93056467D01*
X123606384Y-92999853D01*
X123572037Y-92886627D01*
X123554641Y-92710000D01*
X123572037Y-92533373D01*
X123623557Y-92363534D01*
X123623557Y-92363533D01*
X123707221Y-92207011D01*
X123707222Y-92207009D01*
X123736552Y-92171271D01*
X123819814Y-92069814D01*
X123921271Y-91986552D01*
X123957009Y-91957222D01*
X123974913Y-91947652D01*
X124113533Y-91873557D01*
X124170147Y-91856384D01*
X124283373Y-91822037D01*
X124349558Y-91815518D01*
X124415740Y-91809000D01*
X124504260Y-91809000D01*
X124570442Y-91815518D01*
X124570442Y-91815518D01*
G37*
G36*
X124570442Y-89275518D02*
X124636627Y-89282037D01*
X124749853Y-89316384D01*
X124806467Y-89333557D01*
X124945087Y-89407652D01*
X124962991Y-89417222D01*
X124998729Y-89446552D01*
X125100186Y-89529814D01*
X125183448Y-89631271D01*
X125212778Y-89667009D01*
X125212779Y-89667011D01*
X125296443Y-89823533D01*
X125296443Y-89823534D01*
X125347963Y-89993373D01*
X125365359Y-90170000D01*
X125347963Y-90346627D01*
X125313616Y-90459853D01*
X125296443Y-90516467D01*
X125222348Y-90655087D01*
X125212778Y-90672991D01*
X125183448Y-90708729D01*
X125100186Y-90810186D01*
X124998729Y-90893448D01*
X124962991Y-90922778D01*
X124962989Y-90922779D01*
X124806467Y-91006443D01*
X124749853Y-91023616D01*
X124636627Y-91057963D01*
X124570443Y-91064481D01*
X124504260Y-91071000D01*
X124415740Y-91071000D01*
X124349557Y-91064481D01*
X124283373Y-91057963D01*
X124170147Y-91023616D01*
X124113533Y-91006443D01*
X123957011Y-90922779D01*
X123957009Y-90922778D01*
X123921271Y-90893448D01*
X123819814Y-90810186D01*
X123736552Y-90708729D01*
X123707222Y-90672991D01*
X123697652Y-90655087D01*
X123623557Y-90516467D01*
X123606384Y-90459853D01*
X123572037Y-90346627D01*
X123554641Y-90170000D01*
X123572037Y-89993373D01*
X123623557Y-89823534D01*
X123623557Y-89823533D01*
X123707221Y-89667011D01*
X123707222Y-89667009D01*
X123736552Y-89631271D01*
X123819814Y-89529814D01*
X123921271Y-89446552D01*
X123957009Y-89417222D01*
X123974913Y-89407652D01*
X124113533Y-89333557D01*
X124170147Y-89316384D01*
X124283373Y-89282037D01*
X124349558Y-89275518D01*
X124415740Y-89269000D01*
X124504260Y-89269000D01*
X124570442Y-89275518D01*
X124570442Y-89275518D01*
G37*
G36*
X147430442Y-89275518D02*
X147496627Y-89282037D01*
X147609853Y-89316384D01*
X147666467Y-89333557D01*
X147805087Y-89407652D01*
X147822991Y-89417222D01*
X147858729Y-89446552D01*
X147960186Y-89529814D01*
X148043448Y-89631271D01*
X148072778Y-89667009D01*
X148072779Y-89667011D01*
X148156443Y-89823533D01*
X148156443Y-89823534D01*
X148207963Y-89993373D01*
X148225359Y-90170000D01*
X148207963Y-90346627D01*
X148173616Y-90459853D01*
X148156443Y-90516467D01*
X148082348Y-90655087D01*
X148072778Y-90672991D01*
X148043448Y-90708729D01*
X147960186Y-90810186D01*
X147858729Y-90893448D01*
X147822991Y-90922778D01*
X147822989Y-90922779D01*
X147666467Y-91006443D01*
X147609853Y-91023616D01*
X147496627Y-91057963D01*
X147430443Y-91064481D01*
X147364260Y-91071000D01*
X147275740Y-91071000D01*
X147209557Y-91064481D01*
X147143373Y-91057963D01*
X147030147Y-91023616D01*
X146973533Y-91006443D01*
X146817011Y-90922779D01*
X146817009Y-90922778D01*
X146781271Y-90893448D01*
X146679814Y-90810186D01*
X146596552Y-90708729D01*
X146567222Y-90672991D01*
X146557652Y-90655087D01*
X146483557Y-90516467D01*
X146466384Y-90459853D01*
X146432037Y-90346627D01*
X146414641Y-90170000D01*
X146432037Y-89993373D01*
X146483557Y-89823534D01*
X146483557Y-89823533D01*
X146567221Y-89667011D01*
X146567222Y-89667009D01*
X146596552Y-89631271D01*
X146679814Y-89529814D01*
X146781271Y-89446552D01*
X146817009Y-89417222D01*
X146834913Y-89407652D01*
X146973533Y-89333557D01*
X147030147Y-89316384D01*
X147143373Y-89282037D01*
X147209558Y-89275518D01*
X147275740Y-89269000D01*
X147364260Y-89269000D01*
X147430442Y-89275518D01*
X147430442Y-89275518D01*
G37*
G36*
X149970442Y-89275518D02*
X150036627Y-89282037D01*
X150149853Y-89316384D01*
X150206467Y-89333557D01*
X150345087Y-89407652D01*
X150362991Y-89417222D01*
X150398729Y-89446552D01*
X150500186Y-89529814D01*
X150583448Y-89631271D01*
X150612778Y-89667009D01*
X150612779Y-89667011D01*
X150696443Y-89823533D01*
X150696443Y-89823534D01*
X150747963Y-89993373D01*
X150765359Y-90170000D01*
X150747963Y-90346627D01*
X150713616Y-90459853D01*
X150696443Y-90516467D01*
X150622348Y-90655087D01*
X150612778Y-90672991D01*
X150583448Y-90708729D01*
X150500186Y-90810186D01*
X150398729Y-90893448D01*
X150362991Y-90922778D01*
X150362989Y-90922779D01*
X150206467Y-91006443D01*
X150149853Y-91023616D01*
X150036627Y-91057963D01*
X149970442Y-91064482D01*
X149904260Y-91071000D01*
X149815740Y-91071000D01*
X149749557Y-91064481D01*
X149683373Y-91057963D01*
X149570147Y-91023616D01*
X149513533Y-91006443D01*
X149357011Y-90922779D01*
X149357009Y-90922778D01*
X149321271Y-90893448D01*
X149219814Y-90810186D01*
X149136552Y-90708729D01*
X149107222Y-90672991D01*
X149097652Y-90655087D01*
X149023557Y-90516467D01*
X149006384Y-90459853D01*
X148972037Y-90346627D01*
X148954641Y-90170000D01*
X148972037Y-89993373D01*
X149023557Y-89823534D01*
X149023557Y-89823533D01*
X149107221Y-89667011D01*
X149107222Y-89667009D01*
X149136552Y-89631271D01*
X149219814Y-89529814D01*
X149321271Y-89446552D01*
X149357009Y-89417222D01*
X149374913Y-89407652D01*
X149513533Y-89333557D01*
X149570147Y-89316384D01*
X149683373Y-89282037D01*
X149749558Y-89275518D01*
X149815740Y-89269000D01*
X149904260Y-89269000D01*
X149970442Y-89275518D01*
X149970442Y-89275518D01*
G37*
G36*
X160921000Y-91071000D02*
X159119000Y-91071000D01*
X159119000Y-89269000D01*
X160921000Y-89269000D01*
X160921000Y-91071000D01*
X160921000Y-91071000D01*
G37*
G36*
X147430443Y-86735519D02*
X147496627Y-86742037D01*
X147609853Y-86776384D01*
X147666467Y-86793557D01*
X147805087Y-86867652D01*
X147822991Y-86877222D01*
X147858729Y-86906552D01*
X147960186Y-86989814D01*
X148043448Y-87091271D01*
X148072778Y-87127009D01*
X148072779Y-87127011D01*
X148156443Y-87283533D01*
X148156443Y-87283534D01*
X148207963Y-87453373D01*
X148225359Y-87630000D01*
X148207963Y-87806627D01*
X148173616Y-87919853D01*
X148156443Y-87976467D01*
X148082348Y-88115087D01*
X148072778Y-88132991D01*
X148043448Y-88168729D01*
X147960186Y-88270186D01*
X147858729Y-88353448D01*
X147822991Y-88382778D01*
X147822989Y-88382779D01*
X147666467Y-88466443D01*
X147609853Y-88483616D01*
X147496627Y-88517963D01*
X147430443Y-88524481D01*
X147364260Y-88531000D01*
X147275740Y-88531000D01*
X147209557Y-88524481D01*
X147143373Y-88517963D01*
X147030147Y-88483616D01*
X146973533Y-88466443D01*
X146817011Y-88382779D01*
X146817009Y-88382778D01*
X146781271Y-88353448D01*
X146679814Y-88270186D01*
X146596552Y-88168729D01*
X146567222Y-88132991D01*
X146557652Y-88115087D01*
X146483557Y-87976467D01*
X146466384Y-87919853D01*
X146432037Y-87806627D01*
X146414641Y-87630000D01*
X146432037Y-87453373D01*
X146483557Y-87283534D01*
X146483557Y-87283533D01*
X146567221Y-87127011D01*
X146567222Y-87127009D01*
X146596552Y-87091271D01*
X146679814Y-86989814D01*
X146781271Y-86906552D01*
X146817009Y-86877222D01*
X146834913Y-86867652D01*
X146973533Y-86793557D01*
X147030147Y-86776384D01*
X147143373Y-86742037D01*
X147209557Y-86735519D01*
X147275740Y-86729000D01*
X147364260Y-86729000D01*
X147430443Y-86735519D01*
X147430443Y-86735519D01*
G37*
G36*
X149970443Y-86735519D02*
X150036627Y-86742037D01*
X150149853Y-86776384D01*
X150206467Y-86793557D01*
X150345087Y-86867652D01*
X150362991Y-86877222D01*
X150398729Y-86906552D01*
X150500186Y-86989814D01*
X150583448Y-87091271D01*
X150612778Y-87127009D01*
X150612779Y-87127011D01*
X150696443Y-87283533D01*
X150696443Y-87283534D01*
X150747963Y-87453373D01*
X150765359Y-87630000D01*
X150747963Y-87806627D01*
X150713616Y-87919853D01*
X150696443Y-87976467D01*
X150622348Y-88115087D01*
X150612778Y-88132991D01*
X150583448Y-88168729D01*
X150500186Y-88270186D01*
X150398729Y-88353448D01*
X150362991Y-88382778D01*
X150362989Y-88382779D01*
X150206467Y-88466443D01*
X150149853Y-88483616D01*
X150036627Y-88517963D01*
X149970443Y-88524481D01*
X149904260Y-88531000D01*
X149815740Y-88531000D01*
X149749557Y-88524481D01*
X149683373Y-88517963D01*
X149570147Y-88483616D01*
X149513533Y-88466443D01*
X149357011Y-88382779D01*
X149357009Y-88382778D01*
X149321271Y-88353448D01*
X149219814Y-88270186D01*
X149136552Y-88168729D01*
X149107222Y-88132991D01*
X149097652Y-88115087D01*
X149023557Y-87976467D01*
X149006384Y-87919853D01*
X148972037Y-87806627D01*
X148954641Y-87630000D01*
X148972037Y-87453373D01*
X149023557Y-87283534D01*
X149023557Y-87283533D01*
X149107221Y-87127011D01*
X149107222Y-87127009D01*
X149136552Y-87091271D01*
X149219814Y-86989814D01*
X149321271Y-86906552D01*
X149357009Y-86877222D01*
X149374913Y-86867652D01*
X149513533Y-86793557D01*
X149570147Y-86776384D01*
X149683373Y-86742037D01*
X149749557Y-86735519D01*
X149815740Y-86729000D01*
X149904260Y-86729000D01*
X149970443Y-86735519D01*
X149970443Y-86735519D01*
G37*
G36*
X160130442Y-84195518D02*
X160196627Y-84202037D01*
X160309853Y-84236384D01*
X160366467Y-84253557D01*
X160505087Y-84327652D01*
X160522991Y-84337222D01*
X160558729Y-84366552D01*
X160660186Y-84449814D01*
X160743448Y-84551271D01*
X160772778Y-84587009D01*
X160772779Y-84587011D01*
X160856443Y-84743533D01*
X160856443Y-84743534D01*
X160907963Y-84913373D01*
X160925359Y-85090000D01*
X160907963Y-85266627D01*
X160873616Y-85379853D01*
X160856443Y-85436467D01*
X160782348Y-85575087D01*
X160772778Y-85592991D01*
X160743448Y-85628729D01*
X160660186Y-85730186D01*
X160558729Y-85813448D01*
X160522991Y-85842778D01*
X160522989Y-85842779D01*
X160366467Y-85926443D01*
X160309853Y-85943616D01*
X160196627Y-85977963D01*
X160130443Y-85984481D01*
X160064260Y-85991000D01*
X159975740Y-85991000D01*
X159909557Y-85984481D01*
X159843373Y-85977963D01*
X159730147Y-85943616D01*
X159673533Y-85926443D01*
X159517011Y-85842779D01*
X159517009Y-85842778D01*
X159481271Y-85813448D01*
X159379814Y-85730186D01*
X159296552Y-85628729D01*
X159267222Y-85592991D01*
X159257652Y-85575087D01*
X159183557Y-85436467D01*
X159166384Y-85379853D01*
X159132037Y-85266627D01*
X159114641Y-85090000D01*
X159132037Y-84913373D01*
X159183557Y-84743534D01*
X159183557Y-84743533D01*
X159267221Y-84587011D01*
X159267222Y-84587009D01*
X159296552Y-84551271D01*
X159379814Y-84449814D01*
X159481271Y-84366552D01*
X159517009Y-84337222D01*
X159534913Y-84327652D01*
X159673533Y-84253557D01*
X159730147Y-84236384D01*
X159843373Y-84202037D01*
X159909558Y-84195518D01*
X159975740Y-84189000D01*
X160064260Y-84189000D01*
X160130442Y-84195518D01*
X160130442Y-84195518D01*
G37*
G36*
X124570442Y-84195518D02*
X124636627Y-84202037D01*
X124749853Y-84236384D01*
X124806467Y-84253557D01*
X124945087Y-84327652D01*
X124962991Y-84337222D01*
X124998729Y-84366552D01*
X125100186Y-84449814D01*
X125183448Y-84551271D01*
X125212778Y-84587009D01*
X125212779Y-84587011D01*
X125296443Y-84743533D01*
X125296443Y-84743534D01*
X125347963Y-84913373D01*
X125365359Y-85090000D01*
X125347963Y-85266627D01*
X125313616Y-85379853D01*
X125296443Y-85436467D01*
X125222348Y-85575087D01*
X125212778Y-85592991D01*
X125183448Y-85628729D01*
X125100186Y-85730186D01*
X124998729Y-85813448D01*
X124962991Y-85842778D01*
X124962989Y-85842779D01*
X124806467Y-85926443D01*
X124749853Y-85943616D01*
X124636627Y-85977963D01*
X124570443Y-85984481D01*
X124504260Y-85991000D01*
X124415740Y-85991000D01*
X124349557Y-85984481D01*
X124283373Y-85977963D01*
X124170147Y-85943616D01*
X124113533Y-85926443D01*
X123957011Y-85842779D01*
X123957009Y-85842778D01*
X123921271Y-85813448D01*
X123819814Y-85730186D01*
X123736552Y-85628729D01*
X123707222Y-85592991D01*
X123697652Y-85575087D01*
X123623557Y-85436467D01*
X123606384Y-85379853D01*
X123572037Y-85266627D01*
X123554641Y-85090000D01*
X123572037Y-84913373D01*
X123623557Y-84743534D01*
X123623557Y-84743533D01*
X123707221Y-84587011D01*
X123707222Y-84587009D01*
X123736552Y-84551271D01*
X123819814Y-84449814D01*
X123921271Y-84366552D01*
X123957009Y-84337222D01*
X123974913Y-84327652D01*
X124113533Y-84253557D01*
X124170147Y-84236384D01*
X124283373Y-84202037D01*
X124349558Y-84195518D01*
X124415740Y-84189000D01*
X124504260Y-84189000D01*
X124570442Y-84195518D01*
X124570442Y-84195518D01*
G37*
G36*
X124570442Y-81655518D02*
X124636627Y-81662037D01*
X124749853Y-81696384D01*
X124806467Y-81713557D01*
X124945087Y-81787652D01*
X124962991Y-81797222D01*
X124998729Y-81826552D01*
X125100186Y-81909814D01*
X125183448Y-82011271D01*
X125212778Y-82047009D01*
X125212779Y-82047011D01*
X125296443Y-82203533D01*
X125296443Y-82203534D01*
X125347963Y-82373373D01*
X125365359Y-82550000D01*
X125347963Y-82726627D01*
X125313616Y-82839853D01*
X125296443Y-82896467D01*
X125222348Y-83035087D01*
X125212778Y-83052991D01*
X125183448Y-83088729D01*
X125100186Y-83190186D01*
X124998729Y-83273448D01*
X124962991Y-83302778D01*
X124962989Y-83302779D01*
X124806467Y-83386443D01*
X124749853Y-83403616D01*
X124636627Y-83437963D01*
X124570443Y-83444481D01*
X124504260Y-83451000D01*
X124415740Y-83451000D01*
X124349557Y-83444481D01*
X124283373Y-83437963D01*
X124170147Y-83403616D01*
X124113533Y-83386443D01*
X123957011Y-83302779D01*
X123957009Y-83302778D01*
X123921271Y-83273448D01*
X123819814Y-83190186D01*
X123736552Y-83088729D01*
X123707222Y-83052991D01*
X123697652Y-83035087D01*
X123623557Y-82896467D01*
X123606384Y-82839853D01*
X123572037Y-82726627D01*
X123554641Y-82550000D01*
X123572037Y-82373373D01*
X123623557Y-82203534D01*
X123623557Y-82203533D01*
X123707221Y-82047011D01*
X123707222Y-82047009D01*
X123736552Y-82011271D01*
X123819814Y-81909814D01*
X123921271Y-81826552D01*
X123957009Y-81797222D01*
X123974913Y-81787652D01*
X124113533Y-81713557D01*
X124170147Y-81696384D01*
X124283373Y-81662037D01*
X124349558Y-81655518D01*
X124415740Y-81649000D01*
X124504260Y-81649000D01*
X124570442Y-81655518D01*
X124570442Y-81655518D01*
G37*
G36*
X160921000Y-83451000D02*
X159119000Y-83451000D01*
X159119000Y-81649000D01*
X160921000Y-81649000D01*
X160921000Y-83451000D01*
X160921000Y-83451000D01*
G37*
G36*
X124570443Y-79115519D02*
X124636627Y-79122037D01*
X124749853Y-79156384D01*
X124806467Y-79173557D01*
X124945087Y-79247652D01*
X124962991Y-79257222D01*
X124998729Y-79286552D01*
X125100186Y-79369814D01*
X125183448Y-79471271D01*
X125212778Y-79507009D01*
X125212779Y-79507011D01*
X125296443Y-79663533D01*
X125296443Y-79663534D01*
X125347963Y-79833373D01*
X125365359Y-80010000D01*
X125347963Y-80186627D01*
X125313616Y-80299853D01*
X125296443Y-80356467D01*
X125222348Y-80495087D01*
X125212778Y-80512991D01*
X125183448Y-80548729D01*
X125100186Y-80650186D01*
X124998729Y-80733448D01*
X124962991Y-80762778D01*
X124962989Y-80762779D01*
X124806467Y-80846443D01*
X124749853Y-80863616D01*
X124636627Y-80897963D01*
X124570442Y-80904482D01*
X124504260Y-80911000D01*
X124415740Y-80911000D01*
X124349558Y-80904482D01*
X124283373Y-80897963D01*
X124170147Y-80863616D01*
X124113533Y-80846443D01*
X123957011Y-80762779D01*
X123957009Y-80762778D01*
X123921271Y-80733448D01*
X123819814Y-80650186D01*
X123736552Y-80548729D01*
X123707222Y-80512991D01*
X123697652Y-80495087D01*
X123623557Y-80356467D01*
X123606384Y-80299853D01*
X123572037Y-80186627D01*
X123554641Y-80010000D01*
X123572037Y-79833373D01*
X123623557Y-79663534D01*
X123623557Y-79663533D01*
X123707221Y-79507011D01*
X123707222Y-79507009D01*
X123736552Y-79471271D01*
X123819814Y-79369814D01*
X123921271Y-79286552D01*
X123957009Y-79257222D01*
X123974913Y-79247652D01*
X124113533Y-79173557D01*
X124170147Y-79156384D01*
X124283373Y-79122037D01*
X124349557Y-79115519D01*
X124415740Y-79109000D01*
X124504260Y-79109000D01*
X124570443Y-79115519D01*
X124570443Y-79115519D01*
G37*
G36*
X124570442Y-76575518D02*
X124636627Y-76582037D01*
X124749853Y-76616384D01*
X124806467Y-76633557D01*
X124945087Y-76707652D01*
X124962991Y-76717222D01*
X124998729Y-76746552D01*
X125100186Y-76829814D01*
X125183448Y-76931271D01*
X125212778Y-76967009D01*
X125212779Y-76967011D01*
X125296443Y-77123533D01*
X125296443Y-77123534D01*
X125347963Y-77293373D01*
X125365359Y-77470000D01*
X125347963Y-77646627D01*
X125313616Y-77759853D01*
X125296443Y-77816467D01*
X125222348Y-77955087D01*
X125212778Y-77972991D01*
X125183448Y-78008729D01*
X125100186Y-78110186D01*
X124998729Y-78193448D01*
X124962991Y-78222778D01*
X124962989Y-78222779D01*
X124806467Y-78306443D01*
X124749853Y-78323616D01*
X124636627Y-78357963D01*
X124570442Y-78364482D01*
X124504260Y-78371000D01*
X124415740Y-78371000D01*
X124349558Y-78364482D01*
X124283373Y-78357963D01*
X124170147Y-78323616D01*
X124113533Y-78306443D01*
X123957011Y-78222779D01*
X123957009Y-78222778D01*
X123921271Y-78193448D01*
X123819814Y-78110186D01*
X123736552Y-78008729D01*
X123707222Y-77972991D01*
X123697652Y-77955087D01*
X123623557Y-77816467D01*
X123606384Y-77759853D01*
X123572037Y-77646627D01*
X123554641Y-77470000D01*
X123572037Y-77293373D01*
X123623557Y-77123534D01*
X123623557Y-77123533D01*
X123707221Y-76967011D01*
X123707222Y-76967009D01*
X123736552Y-76931271D01*
X123819814Y-76829814D01*
X123921271Y-76746552D01*
X123957009Y-76717222D01*
X123974913Y-76707652D01*
X124113533Y-76633557D01*
X124170147Y-76616384D01*
X124283373Y-76582037D01*
X124349558Y-76575518D01*
X124415740Y-76569000D01*
X124504260Y-76569000D01*
X124570442Y-76575518D01*
X124570442Y-76575518D01*
G37*
G36*
X124570442Y-74035518D02*
X124636627Y-74042037D01*
X124749853Y-74076384D01*
X124806467Y-74093557D01*
X124945087Y-74167652D01*
X124962991Y-74177222D01*
X124998729Y-74206552D01*
X125100186Y-74289814D01*
X125183448Y-74391271D01*
X125212778Y-74427009D01*
X125212779Y-74427011D01*
X125296443Y-74583533D01*
X125296443Y-74583534D01*
X125347963Y-74753373D01*
X125365359Y-74930000D01*
X125347963Y-75106627D01*
X125313616Y-75219853D01*
X125296443Y-75276467D01*
X125222348Y-75415087D01*
X125212778Y-75432991D01*
X125183448Y-75468729D01*
X125100186Y-75570186D01*
X124998729Y-75653448D01*
X124962991Y-75682778D01*
X124962989Y-75682779D01*
X124806467Y-75766443D01*
X124749853Y-75783616D01*
X124636627Y-75817963D01*
X124570443Y-75824481D01*
X124504260Y-75831000D01*
X124415740Y-75831000D01*
X124349557Y-75824481D01*
X124283373Y-75817963D01*
X124170147Y-75783616D01*
X124113533Y-75766443D01*
X123957011Y-75682779D01*
X123957009Y-75682778D01*
X123921271Y-75653448D01*
X123819814Y-75570186D01*
X123736552Y-75468729D01*
X123707222Y-75432991D01*
X123697652Y-75415087D01*
X123623557Y-75276467D01*
X123606384Y-75219853D01*
X123572037Y-75106627D01*
X123554641Y-74930000D01*
X123572037Y-74753373D01*
X123623557Y-74583534D01*
X123623557Y-74583533D01*
X123707221Y-74427011D01*
X123707222Y-74427009D01*
X123736552Y-74391271D01*
X123819814Y-74289814D01*
X123921271Y-74206552D01*
X123957009Y-74177222D01*
X123974913Y-74167652D01*
X124113533Y-74093557D01*
X124170147Y-74076384D01*
X124283373Y-74042037D01*
X124349558Y-74035518D01*
X124415740Y-74029000D01*
X124504260Y-74029000D01*
X124570442Y-74035518D01*
X124570442Y-74035518D01*
G37*
G36*
X160130442Y-74035518D02*
X160196627Y-74042037D01*
X160309853Y-74076384D01*
X160366467Y-74093557D01*
X160505087Y-74167652D01*
X160522991Y-74177222D01*
X160558729Y-74206552D01*
X160660186Y-74289814D01*
X160743448Y-74391271D01*
X160772778Y-74427009D01*
X160772779Y-74427011D01*
X160856443Y-74583533D01*
X160856443Y-74583534D01*
X160907963Y-74753373D01*
X160925359Y-74930000D01*
X160907963Y-75106627D01*
X160873616Y-75219853D01*
X160856443Y-75276467D01*
X160782348Y-75415087D01*
X160772778Y-75432991D01*
X160743448Y-75468729D01*
X160660186Y-75570186D01*
X160558729Y-75653448D01*
X160522991Y-75682778D01*
X160522989Y-75682779D01*
X160366467Y-75766443D01*
X160309853Y-75783616D01*
X160196627Y-75817963D01*
X160130443Y-75824481D01*
X160064260Y-75831000D01*
X159975740Y-75831000D01*
X159909557Y-75824481D01*
X159843373Y-75817963D01*
X159730147Y-75783616D01*
X159673533Y-75766443D01*
X159517011Y-75682779D01*
X159517009Y-75682778D01*
X159481271Y-75653448D01*
X159379814Y-75570186D01*
X159296552Y-75468729D01*
X159267222Y-75432991D01*
X159257652Y-75415087D01*
X159183557Y-75276467D01*
X159166384Y-75219853D01*
X159132037Y-75106627D01*
X159114641Y-74930000D01*
X159132037Y-74753373D01*
X159183557Y-74583534D01*
X159183557Y-74583533D01*
X159267221Y-74427011D01*
X159267222Y-74427009D01*
X159296552Y-74391271D01*
X159379814Y-74289814D01*
X159481271Y-74206552D01*
X159517009Y-74177222D01*
X159534913Y-74167652D01*
X159673533Y-74093557D01*
X159730147Y-74076384D01*
X159843373Y-74042037D01*
X159909558Y-74035518D01*
X159975740Y-74029000D01*
X160064260Y-74029000D01*
X160130442Y-74035518D01*
X160130442Y-74035518D01*
G37*
G36*
X152510442Y-74035518D02*
X152576627Y-74042037D01*
X152689853Y-74076384D01*
X152746467Y-74093557D01*
X152885087Y-74167652D01*
X152902991Y-74177222D01*
X152938729Y-74206552D01*
X153040186Y-74289814D01*
X153123448Y-74391271D01*
X153152778Y-74427009D01*
X153152779Y-74427011D01*
X153236443Y-74583533D01*
X153236443Y-74583534D01*
X153287963Y-74753373D01*
X153305359Y-74930000D01*
X153287963Y-75106627D01*
X153253616Y-75219853D01*
X153236443Y-75276467D01*
X153162348Y-75415087D01*
X153152778Y-75432991D01*
X153123448Y-75468729D01*
X153040186Y-75570186D01*
X152938729Y-75653448D01*
X152902991Y-75682778D01*
X152902989Y-75682779D01*
X152746467Y-75766443D01*
X152689853Y-75783616D01*
X152576627Y-75817963D01*
X152510443Y-75824481D01*
X152444260Y-75831000D01*
X152355740Y-75831000D01*
X152289557Y-75824481D01*
X152223373Y-75817963D01*
X152110147Y-75783616D01*
X152053533Y-75766443D01*
X151897011Y-75682779D01*
X151897009Y-75682778D01*
X151861271Y-75653448D01*
X151759814Y-75570186D01*
X151676552Y-75468729D01*
X151647222Y-75432991D01*
X151637652Y-75415087D01*
X151563557Y-75276467D01*
X151546384Y-75219853D01*
X151512037Y-75106627D01*
X151494641Y-74930000D01*
X151512037Y-74753373D01*
X151563557Y-74583534D01*
X151563557Y-74583533D01*
X151647221Y-74427011D01*
X151647222Y-74427009D01*
X151676552Y-74391271D01*
X151759814Y-74289814D01*
X151861271Y-74206552D01*
X151897009Y-74177222D01*
X151914913Y-74167652D01*
X152053533Y-74093557D01*
X152110147Y-74076384D01*
X152223373Y-74042037D01*
X152289558Y-74035518D01*
X152355740Y-74029000D01*
X152444260Y-74029000D01*
X152510442Y-74035518D01*
X152510442Y-74035518D01*
G37*
G36*
X124570442Y-71495518D02*
X124636627Y-71502037D01*
X124749853Y-71536384D01*
X124806467Y-71553557D01*
X124945087Y-71627652D01*
X124962991Y-71637222D01*
X124998729Y-71666552D01*
X125100186Y-71749814D01*
X125183448Y-71851271D01*
X125212778Y-71887009D01*
X125212779Y-71887011D01*
X125296443Y-72043533D01*
X125296443Y-72043534D01*
X125347963Y-72213373D01*
X125365359Y-72390000D01*
X125347963Y-72566627D01*
X125313616Y-72679853D01*
X125296443Y-72736467D01*
X125222348Y-72875087D01*
X125212778Y-72892991D01*
X125183448Y-72928729D01*
X125100186Y-73030186D01*
X124998729Y-73113448D01*
X124962991Y-73142778D01*
X124962989Y-73142779D01*
X124806467Y-73226443D01*
X124749853Y-73243616D01*
X124636627Y-73277963D01*
X124570443Y-73284481D01*
X124504260Y-73291000D01*
X124415740Y-73291000D01*
X124349557Y-73284481D01*
X124283373Y-73277963D01*
X124170147Y-73243616D01*
X124113533Y-73226443D01*
X123957011Y-73142779D01*
X123957009Y-73142778D01*
X123921271Y-73113448D01*
X123819814Y-73030186D01*
X123736552Y-72928729D01*
X123707222Y-72892991D01*
X123697652Y-72875087D01*
X123623557Y-72736467D01*
X123606384Y-72679853D01*
X123572037Y-72566627D01*
X123554641Y-72390000D01*
X123572037Y-72213373D01*
X123623557Y-72043534D01*
X123623557Y-72043533D01*
X123707221Y-71887011D01*
X123707222Y-71887009D01*
X123736552Y-71851271D01*
X123819814Y-71749814D01*
X123921271Y-71666552D01*
X123957009Y-71637222D01*
X123974913Y-71627652D01*
X124113533Y-71553557D01*
X124170147Y-71536384D01*
X124283373Y-71502037D01*
X124349558Y-71495518D01*
X124415740Y-71489000D01*
X124504260Y-71489000D01*
X124570442Y-71495518D01*
X124570442Y-71495518D01*
G37*
G36*
X152510442Y-71495518D02*
X152576627Y-71502037D01*
X152689853Y-71536384D01*
X152746467Y-71553557D01*
X152885087Y-71627652D01*
X152902991Y-71637222D01*
X152938729Y-71666552D01*
X153040186Y-71749814D01*
X153123448Y-71851271D01*
X153152778Y-71887009D01*
X153152779Y-71887011D01*
X153236443Y-72043533D01*
X153236443Y-72043534D01*
X153287963Y-72213373D01*
X153305359Y-72390000D01*
X153287963Y-72566627D01*
X153253616Y-72679853D01*
X153236443Y-72736467D01*
X153162348Y-72875087D01*
X153152778Y-72892991D01*
X153123448Y-72928729D01*
X153040186Y-73030186D01*
X152938729Y-73113448D01*
X152902991Y-73142778D01*
X152902989Y-73142779D01*
X152746467Y-73226443D01*
X152689853Y-73243616D01*
X152576627Y-73277963D01*
X152510443Y-73284481D01*
X152444260Y-73291000D01*
X152355740Y-73291000D01*
X152289557Y-73284481D01*
X152223373Y-73277963D01*
X152110147Y-73243616D01*
X152053533Y-73226443D01*
X151897011Y-73142779D01*
X151897009Y-73142778D01*
X151861271Y-73113448D01*
X151759814Y-73030186D01*
X151676552Y-72928729D01*
X151647222Y-72892991D01*
X151637652Y-72875087D01*
X151563557Y-72736467D01*
X151546384Y-72679853D01*
X151512037Y-72566627D01*
X151494641Y-72390000D01*
X151512037Y-72213373D01*
X151563557Y-72043534D01*
X151563557Y-72043533D01*
X151647221Y-71887011D01*
X151647222Y-71887009D01*
X151676552Y-71851271D01*
X151759814Y-71749814D01*
X151861271Y-71666552D01*
X151897009Y-71637222D01*
X151914913Y-71627652D01*
X152053533Y-71553557D01*
X152110147Y-71536384D01*
X152223373Y-71502037D01*
X152289558Y-71495518D01*
X152355740Y-71489000D01*
X152444260Y-71489000D01*
X152510442Y-71495518D01*
X152510442Y-71495518D01*
G37*
G36*
X160130442Y-71495518D02*
X160196627Y-71502037D01*
X160309853Y-71536384D01*
X160366467Y-71553557D01*
X160505087Y-71627652D01*
X160522991Y-71637222D01*
X160558729Y-71666552D01*
X160660186Y-71749814D01*
X160743448Y-71851271D01*
X160772778Y-71887009D01*
X160772779Y-71887011D01*
X160856443Y-72043533D01*
X160856443Y-72043534D01*
X160907963Y-72213373D01*
X160925359Y-72390000D01*
X160907963Y-72566627D01*
X160873616Y-72679853D01*
X160856443Y-72736467D01*
X160782348Y-72875087D01*
X160772778Y-72892991D01*
X160743448Y-72928729D01*
X160660186Y-73030186D01*
X160558729Y-73113448D01*
X160522991Y-73142778D01*
X160522989Y-73142779D01*
X160366467Y-73226443D01*
X160309853Y-73243616D01*
X160196627Y-73277963D01*
X160130443Y-73284481D01*
X160064260Y-73291000D01*
X159975740Y-73291000D01*
X159909557Y-73284481D01*
X159843373Y-73277963D01*
X159730147Y-73243616D01*
X159673533Y-73226443D01*
X159517011Y-73142779D01*
X159517009Y-73142778D01*
X159481271Y-73113448D01*
X159379814Y-73030186D01*
X159296552Y-72928729D01*
X159267222Y-72892991D01*
X159257652Y-72875087D01*
X159183557Y-72736467D01*
X159166384Y-72679853D01*
X159132037Y-72566627D01*
X159114641Y-72390000D01*
X159132037Y-72213373D01*
X159183557Y-72043534D01*
X159183557Y-72043533D01*
X159267221Y-71887011D01*
X159267222Y-71887009D01*
X159296552Y-71851271D01*
X159379814Y-71749814D01*
X159481271Y-71666552D01*
X159517009Y-71637222D01*
X159534913Y-71627652D01*
X159673533Y-71553557D01*
X159730147Y-71536384D01*
X159843373Y-71502037D01*
X159909558Y-71495518D01*
X159975740Y-71489000D01*
X160064260Y-71489000D01*
X160130442Y-71495518D01*
X160130442Y-71495518D01*
G37*
G36*
X152510442Y-68955518D02*
X152576627Y-68962037D01*
X152689853Y-68996384D01*
X152746467Y-69013557D01*
X152885087Y-69087652D01*
X152902991Y-69097222D01*
X152938729Y-69126552D01*
X153040186Y-69209814D01*
X153123448Y-69311271D01*
X153152778Y-69347009D01*
X153152779Y-69347011D01*
X153236443Y-69503533D01*
X153236443Y-69503534D01*
X153287963Y-69673373D01*
X153305359Y-69850000D01*
X153287963Y-70026627D01*
X153253616Y-70139853D01*
X153236443Y-70196467D01*
X153162348Y-70335087D01*
X153152778Y-70352991D01*
X153123448Y-70388729D01*
X153040186Y-70490186D01*
X152938729Y-70573448D01*
X152902991Y-70602778D01*
X152902989Y-70602779D01*
X152746467Y-70686443D01*
X152689853Y-70703616D01*
X152576627Y-70737963D01*
X152510442Y-70744482D01*
X152444260Y-70751000D01*
X152355740Y-70751000D01*
X152289558Y-70744482D01*
X152223373Y-70737963D01*
X152110147Y-70703616D01*
X152053533Y-70686443D01*
X151897011Y-70602779D01*
X151897009Y-70602778D01*
X151861271Y-70573448D01*
X151759814Y-70490186D01*
X151676552Y-70388729D01*
X151647222Y-70352991D01*
X151637652Y-70335087D01*
X151563557Y-70196467D01*
X151546384Y-70139853D01*
X151512037Y-70026627D01*
X151494641Y-69850000D01*
X151512037Y-69673373D01*
X151563557Y-69503534D01*
X151563557Y-69503533D01*
X151647221Y-69347011D01*
X151647222Y-69347009D01*
X151676552Y-69311271D01*
X151759814Y-69209814D01*
X151861271Y-69126552D01*
X151897009Y-69097222D01*
X151914913Y-69087652D01*
X152053533Y-69013557D01*
X152110147Y-68996384D01*
X152223373Y-68962037D01*
X152289558Y-68955518D01*
X152355740Y-68949000D01*
X152444260Y-68949000D01*
X152510442Y-68955518D01*
X152510442Y-68955518D01*
G37*
G36*
X124570442Y-68955518D02*
X124636627Y-68962037D01*
X124749853Y-68996384D01*
X124806467Y-69013557D01*
X124945087Y-69087652D01*
X124962991Y-69097222D01*
X124998729Y-69126552D01*
X125100186Y-69209814D01*
X125183448Y-69311271D01*
X125212778Y-69347009D01*
X125212779Y-69347011D01*
X125296443Y-69503533D01*
X125296443Y-69503534D01*
X125347963Y-69673373D01*
X125365359Y-69850000D01*
X125347963Y-70026627D01*
X125313616Y-70139853D01*
X125296443Y-70196467D01*
X125222348Y-70335087D01*
X125212778Y-70352991D01*
X125183448Y-70388729D01*
X125100186Y-70490186D01*
X124998729Y-70573448D01*
X124962991Y-70602778D01*
X124962989Y-70602779D01*
X124806467Y-70686443D01*
X124749853Y-70703616D01*
X124636627Y-70737963D01*
X124570442Y-70744482D01*
X124504260Y-70751000D01*
X124415740Y-70751000D01*
X124349558Y-70744482D01*
X124283373Y-70737963D01*
X124170147Y-70703616D01*
X124113533Y-70686443D01*
X123957011Y-70602779D01*
X123957009Y-70602778D01*
X123921271Y-70573448D01*
X123819814Y-70490186D01*
X123736552Y-70388729D01*
X123707222Y-70352991D01*
X123697652Y-70335087D01*
X123623557Y-70196467D01*
X123606384Y-70139853D01*
X123572037Y-70026627D01*
X123554641Y-69850000D01*
X123572037Y-69673373D01*
X123623557Y-69503534D01*
X123623557Y-69503533D01*
X123707221Y-69347011D01*
X123707222Y-69347009D01*
X123736552Y-69311271D01*
X123819814Y-69209814D01*
X123921271Y-69126552D01*
X123957009Y-69097222D01*
X123974913Y-69087652D01*
X124113533Y-69013557D01*
X124170147Y-68996384D01*
X124283373Y-68962037D01*
X124349558Y-68955518D01*
X124415740Y-68949000D01*
X124504260Y-68949000D01*
X124570442Y-68955518D01*
X124570442Y-68955518D01*
G37*
G36*
X160130442Y-68955518D02*
X160196627Y-68962037D01*
X160309853Y-68996384D01*
X160366467Y-69013557D01*
X160505087Y-69087652D01*
X160522991Y-69097222D01*
X160558729Y-69126552D01*
X160660186Y-69209814D01*
X160743448Y-69311271D01*
X160772778Y-69347009D01*
X160772779Y-69347011D01*
X160856443Y-69503533D01*
X160856443Y-69503534D01*
X160907963Y-69673373D01*
X160925359Y-69850000D01*
X160907963Y-70026627D01*
X160873616Y-70139853D01*
X160856443Y-70196467D01*
X160782348Y-70335087D01*
X160772778Y-70352991D01*
X160743448Y-70388729D01*
X160660186Y-70490186D01*
X160558729Y-70573448D01*
X160522991Y-70602778D01*
X160522989Y-70602779D01*
X160366467Y-70686443D01*
X160309853Y-70703616D01*
X160196627Y-70737963D01*
X160130442Y-70744482D01*
X160064260Y-70751000D01*
X159975740Y-70751000D01*
X159909558Y-70744482D01*
X159843373Y-70737963D01*
X159730147Y-70703616D01*
X159673533Y-70686443D01*
X159517011Y-70602779D01*
X159517009Y-70602778D01*
X159481271Y-70573448D01*
X159379814Y-70490186D01*
X159296552Y-70388729D01*
X159267222Y-70352991D01*
X159257652Y-70335087D01*
X159183557Y-70196467D01*
X159166384Y-70139853D01*
X159132037Y-70026627D01*
X159114641Y-69850000D01*
X159132037Y-69673373D01*
X159183557Y-69503534D01*
X159183557Y-69503533D01*
X159267221Y-69347011D01*
X159267222Y-69347009D01*
X159296552Y-69311271D01*
X159379814Y-69209814D01*
X159481271Y-69126552D01*
X159517009Y-69097222D01*
X159534913Y-69087652D01*
X159673533Y-69013557D01*
X159730147Y-68996384D01*
X159843373Y-68962037D01*
X159909558Y-68955518D01*
X159975740Y-68949000D01*
X160064260Y-68949000D01*
X160130442Y-68955518D01*
X160130442Y-68955518D01*
G37*
G36*
X124570442Y-66415518D02*
X124636627Y-66422037D01*
X124749853Y-66456384D01*
X124806467Y-66473557D01*
X124945087Y-66547652D01*
X124962991Y-66557222D01*
X124998729Y-66586552D01*
X125100186Y-66669814D01*
X125183448Y-66771271D01*
X125212778Y-66807009D01*
X125212779Y-66807011D01*
X125296443Y-66963533D01*
X125296443Y-66963534D01*
X125347963Y-67133373D01*
X125365359Y-67310000D01*
X125347963Y-67486627D01*
X125313616Y-67599853D01*
X125296443Y-67656467D01*
X125222348Y-67795087D01*
X125212778Y-67812991D01*
X125183448Y-67848729D01*
X125100186Y-67950186D01*
X124998729Y-68033448D01*
X124962991Y-68062778D01*
X124962989Y-68062779D01*
X124806467Y-68146443D01*
X124749853Y-68163616D01*
X124636627Y-68197963D01*
X124570443Y-68204481D01*
X124504260Y-68211000D01*
X124415740Y-68211000D01*
X124349557Y-68204481D01*
X124283373Y-68197963D01*
X124170147Y-68163616D01*
X124113533Y-68146443D01*
X123957011Y-68062779D01*
X123957009Y-68062778D01*
X123921271Y-68033448D01*
X123819814Y-67950186D01*
X123736552Y-67848729D01*
X123707222Y-67812991D01*
X123697652Y-67795087D01*
X123623557Y-67656467D01*
X123606384Y-67599853D01*
X123572037Y-67486627D01*
X123554641Y-67310000D01*
X123572037Y-67133373D01*
X123623557Y-66963534D01*
X123623557Y-66963533D01*
X123707221Y-66807011D01*
X123707222Y-66807009D01*
X123736552Y-66771271D01*
X123819814Y-66669814D01*
X123921271Y-66586552D01*
X123957009Y-66557222D01*
X123974913Y-66547652D01*
X124113533Y-66473557D01*
X124170147Y-66456384D01*
X124283373Y-66422037D01*
X124349558Y-66415518D01*
X124415740Y-66409000D01*
X124504260Y-66409000D01*
X124570442Y-66415518D01*
X124570442Y-66415518D01*
G37*
G36*
X160921000Y-68211000D02*
X159119000Y-68211000D01*
X159119000Y-66409000D01*
X160921000Y-66409000D01*
X160921000Y-68211000D01*
X160921000Y-68211000D01*
G37*
G36*
X153301000Y-68211000D02*
X151499000Y-68211000D01*
X151499000Y-66409000D01*
X153301000Y-66409000D01*
X153301000Y-68211000D01*
X153301000Y-68211000D01*
G37*
G36*
X157590443Y-61335519D02*
X157656627Y-61342037D01*
X157769853Y-61376384D01*
X157826467Y-61393557D01*
X157965087Y-61467652D01*
X157982991Y-61477222D01*
X158018729Y-61506552D01*
X158120186Y-61589814D01*
X158203448Y-61691271D01*
X158232778Y-61727009D01*
X158232779Y-61727011D01*
X158316443Y-61883533D01*
X158316443Y-61883534D01*
X158367963Y-62053373D01*
X158385359Y-62230000D01*
X158367963Y-62406627D01*
X158333616Y-62519853D01*
X158316443Y-62576467D01*
X158242348Y-62715087D01*
X158232778Y-62732991D01*
X158203448Y-62768729D01*
X158120186Y-62870186D01*
X158018729Y-62953448D01*
X157982991Y-62982778D01*
X157982989Y-62982779D01*
X157826467Y-63066443D01*
X157769853Y-63083616D01*
X157656627Y-63117963D01*
X157590442Y-63124482D01*
X157524260Y-63131000D01*
X157435740Y-63131000D01*
X157369558Y-63124482D01*
X157303373Y-63117963D01*
X157190147Y-63083616D01*
X157133533Y-63066443D01*
X156977011Y-62982779D01*
X156977009Y-62982778D01*
X156941271Y-62953448D01*
X156839814Y-62870186D01*
X156756552Y-62768729D01*
X156727222Y-62732991D01*
X156717652Y-62715087D01*
X156643557Y-62576467D01*
X156626384Y-62519853D01*
X156592037Y-62406627D01*
X156574641Y-62230000D01*
X156592037Y-62053373D01*
X156643557Y-61883534D01*
X156643557Y-61883533D01*
X156727221Y-61727011D01*
X156727222Y-61727009D01*
X156756552Y-61691271D01*
X156839814Y-61589814D01*
X156941271Y-61506552D01*
X156977009Y-61477222D01*
X156994913Y-61467652D01*
X157133533Y-61393557D01*
X157190147Y-61376384D01*
X157303373Y-61342037D01*
X157369557Y-61335519D01*
X157435740Y-61329000D01*
X157524260Y-61329000D01*
X157590443Y-61335519D01*
X157590443Y-61335519D01*
G37*
G36*
X124570443Y-61335519D02*
X124636627Y-61342037D01*
X124749853Y-61376384D01*
X124806467Y-61393557D01*
X124945087Y-61467652D01*
X124962991Y-61477222D01*
X124998729Y-61506552D01*
X125100186Y-61589814D01*
X125183448Y-61691271D01*
X125212778Y-61727009D01*
X125212779Y-61727011D01*
X125296443Y-61883533D01*
X125296443Y-61883534D01*
X125347963Y-62053373D01*
X125365359Y-62230000D01*
X125347963Y-62406627D01*
X125313616Y-62519853D01*
X125296443Y-62576467D01*
X125222348Y-62715087D01*
X125212778Y-62732991D01*
X125183448Y-62768729D01*
X125100186Y-62870186D01*
X124998729Y-62953448D01*
X124962991Y-62982778D01*
X124962989Y-62982779D01*
X124806467Y-63066443D01*
X124749853Y-63083616D01*
X124636627Y-63117963D01*
X124570442Y-63124482D01*
X124504260Y-63131000D01*
X124415740Y-63131000D01*
X124349558Y-63124482D01*
X124283373Y-63117963D01*
X124170147Y-63083616D01*
X124113533Y-63066443D01*
X123957011Y-62982779D01*
X123957009Y-62982778D01*
X123921271Y-62953448D01*
X123819814Y-62870186D01*
X123736552Y-62768729D01*
X123707222Y-62732991D01*
X123697652Y-62715087D01*
X123623557Y-62576467D01*
X123606384Y-62519853D01*
X123572037Y-62406627D01*
X123554641Y-62230000D01*
X123572037Y-62053373D01*
X123623557Y-61883534D01*
X123623557Y-61883533D01*
X123707221Y-61727011D01*
X123707222Y-61727009D01*
X123736552Y-61691271D01*
X123819814Y-61589814D01*
X123921271Y-61506552D01*
X123957009Y-61477222D01*
X123974913Y-61467652D01*
X124113533Y-61393557D01*
X124170147Y-61376384D01*
X124283373Y-61342037D01*
X124349557Y-61335519D01*
X124415740Y-61329000D01*
X124504260Y-61329000D01*
X124570443Y-61335519D01*
X124570443Y-61335519D01*
G37*
G36*
X160130443Y-61335519D02*
X160196627Y-61342037D01*
X160309853Y-61376384D01*
X160366467Y-61393557D01*
X160505087Y-61467652D01*
X160522991Y-61477222D01*
X160558729Y-61506552D01*
X160660186Y-61589814D01*
X160743448Y-61691271D01*
X160772778Y-61727009D01*
X160772779Y-61727011D01*
X160856443Y-61883533D01*
X160856443Y-61883534D01*
X160907963Y-62053373D01*
X160925359Y-62230000D01*
X160907963Y-62406627D01*
X160873616Y-62519853D01*
X160856443Y-62576467D01*
X160782348Y-62715087D01*
X160772778Y-62732991D01*
X160743448Y-62768729D01*
X160660186Y-62870186D01*
X160558729Y-62953448D01*
X160522991Y-62982778D01*
X160522989Y-62982779D01*
X160366467Y-63066443D01*
X160309853Y-63083616D01*
X160196627Y-63117963D01*
X160130442Y-63124482D01*
X160064260Y-63131000D01*
X159975740Y-63131000D01*
X159909558Y-63124482D01*
X159843373Y-63117963D01*
X159730147Y-63083616D01*
X159673533Y-63066443D01*
X159517011Y-62982779D01*
X159517009Y-62982778D01*
X159481271Y-62953448D01*
X159379814Y-62870186D01*
X159296552Y-62768729D01*
X159267222Y-62732991D01*
X159257652Y-62715087D01*
X159183557Y-62576467D01*
X159166384Y-62519853D01*
X159132037Y-62406627D01*
X159114641Y-62230000D01*
X159132037Y-62053373D01*
X159183557Y-61883534D01*
X159183557Y-61883533D01*
X159267221Y-61727011D01*
X159267222Y-61727009D01*
X159296552Y-61691271D01*
X159379814Y-61589814D01*
X159481271Y-61506552D01*
X159517009Y-61477222D01*
X159534913Y-61467652D01*
X159673533Y-61393557D01*
X159730147Y-61376384D01*
X159843373Y-61342037D01*
X159909557Y-61335519D01*
X159975740Y-61329000D01*
X160064260Y-61329000D01*
X160130443Y-61335519D01*
X160130443Y-61335519D01*
G37*
G36*
X162670443Y-61335519D02*
X162736627Y-61342037D01*
X162849853Y-61376384D01*
X162906467Y-61393557D01*
X163045087Y-61467652D01*
X163062991Y-61477222D01*
X163098729Y-61506552D01*
X163200186Y-61589814D01*
X163283448Y-61691271D01*
X163312778Y-61727009D01*
X163312779Y-61727011D01*
X163396443Y-61883533D01*
X163396443Y-61883534D01*
X163447963Y-62053373D01*
X163465359Y-62230000D01*
X163447963Y-62406627D01*
X163413616Y-62519853D01*
X163396443Y-62576467D01*
X163322348Y-62715087D01*
X163312778Y-62732991D01*
X163283448Y-62768729D01*
X163200186Y-62870186D01*
X163098729Y-62953448D01*
X163062991Y-62982778D01*
X163062989Y-62982779D01*
X162906467Y-63066443D01*
X162849853Y-63083616D01*
X162736627Y-63117963D01*
X162670442Y-63124482D01*
X162604260Y-63131000D01*
X162515740Y-63131000D01*
X162449558Y-63124482D01*
X162383373Y-63117963D01*
X162270147Y-63083616D01*
X162213533Y-63066443D01*
X162057011Y-62982779D01*
X162057009Y-62982778D01*
X162021271Y-62953448D01*
X161919814Y-62870186D01*
X161836552Y-62768729D01*
X161807222Y-62732991D01*
X161797652Y-62715087D01*
X161723557Y-62576467D01*
X161706384Y-62519853D01*
X161672037Y-62406627D01*
X161654641Y-62230000D01*
X161672037Y-62053373D01*
X161723557Y-61883534D01*
X161723557Y-61883533D01*
X161807221Y-61727011D01*
X161807222Y-61727009D01*
X161836552Y-61691271D01*
X161919814Y-61589814D01*
X162021271Y-61506552D01*
X162057009Y-61477222D01*
X162074913Y-61467652D01*
X162213533Y-61393557D01*
X162270147Y-61376384D01*
X162383373Y-61342037D01*
X162449557Y-61335519D01*
X162515740Y-61329000D01*
X162604260Y-61329000D01*
X162670443Y-61335519D01*
X162670443Y-61335519D01*
G37*
G36*
X142350443Y-61335519D02*
X142416627Y-61342037D01*
X142529853Y-61376384D01*
X142586467Y-61393557D01*
X142725087Y-61467652D01*
X142742991Y-61477222D01*
X142778729Y-61506552D01*
X142880186Y-61589814D01*
X142963448Y-61691271D01*
X142992778Y-61727009D01*
X142992779Y-61727011D01*
X143076443Y-61883533D01*
X143076443Y-61883534D01*
X143127963Y-62053373D01*
X143145359Y-62230000D01*
X143127963Y-62406627D01*
X143093616Y-62519853D01*
X143076443Y-62576467D01*
X143002348Y-62715087D01*
X142992778Y-62732991D01*
X142963448Y-62768729D01*
X142880186Y-62870186D01*
X142778729Y-62953448D01*
X142742991Y-62982778D01*
X142742989Y-62982779D01*
X142586467Y-63066443D01*
X142529853Y-63083616D01*
X142416627Y-63117963D01*
X142350442Y-63124482D01*
X142284260Y-63131000D01*
X142195740Y-63131000D01*
X142129558Y-63124482D01*
X142063373Y-63117963D01*
X141950147Y-63083616D01*
X141893533Y-63066443D01*
X141737011Y-62982779D01*
X141737009Y-62982778D01*
X141701271Y-62953448D01*
X141599814Y-62870186D01*
X141516552Y-62768729D01*
X141487222Y-62732991D01*
X141477652Y-62715087D01*
X141403557Y-62576467D01*
X141386384Y-62519853D01*
X141352037Y-62406627D01*
X141334641Y-62230000D01*
X141352037Y-62053373D01*
X141403557Y-61883534D01*
X141403557Y-61883533D01*
X141487221Y-61727011D01*
X141487222Y-61727009D01*
X141516552Y-61691271D01*
X141599814Y-61589814D01*
X141701271Y-61506552D01*
X141737009Y-61477222D01*
X141754913Y-61467652D01*
X141893533Y-61393557D01*
X141950147Y-61376384D01*
X142063373Y-61342037D01*
X142129557Y-61335519D01*
X142195740Y-61329000D01*
X142284260Y-61329000D01*
X142350443Y-61335519D01*
X142350443Y-61335519D01*
G37*
G36*
X155050443Y-61335519D02*
X155116627Y-61342037D01*
X155229853Y-61376384D01*
X155286467Y-61393557D01*
X155425087Y-61467652D01*
X155442991Y-61477222D01*
X155478729Y-61506552D01*
X155580186Y-61589814D01*
X155663448Y-61691271D01*
X155692778Y-61727009D01*
X155692779Y-61727011D01*
X155776443Y-61883533D01*
X155776443Y-61883534D01*
X155827963Y-62053373D01*
X155845359Y-62230000D01*
X155827963Y-62406627D01*
X155793616Y-62519853D01*
X155776443Y-62576467D01*
X155702348Y-62715087D01*
X155692778Y-62732991D01*
X155663448Y-62768729D01*
X155580186Y-62870186D01*
X155478729Y-62953448D01*
X155442991Y-62982778D01*
X155442989Y-62982779D01*
X155286467Y-63066443D01*
X155229853Y-63083616D01*
X155116627Y-63117963D01*
X155050442Y-63124482D01*
X154984260Y-63131000D01*
X154895740Y-63131000D01*
X154829558Y-63124482D01*
X154763373Y-63117963D01*
X154650147Y-63083616D01*
X154593533Y-63066443D01*
X154437011Y-62982779D01*
X154437009Y-62982778D01*
X154401271Y-62953448D01*
X154299814Y-62870186D01*
X154216552Y-62768729D01*
X154187222Y-62732991D01*
X154177652Y-62715087D01*
X154103557Y-62576467D01*
X154086384Y-62519853D01*
X154052037Y-62406627D01*
X154034641Y-62230000D01*
X154052037Y-62053373D01*
X154103557Y-61883534D01*
X154103557Y-61883533D01*
X154187221Y-61727011D01*
X154187222Y-61727009D01*
X154216552Y-61691271D01*
X154299814Y-61589814D01*
X154401271Y-61506552D01*
X154437009Y-61477222D01*
X154454913Y-61467652D01*
X154593533Y-61393557D01*
X154650147Y-61376384D01*
X154763373Y-61342037D01*
X154829557Y-61335519D01*
X154895740Y-61329000D01*
X154984260Y-61329000D01*
X155050443Y-61335519D01*
X155050443Y-61335519D01*
G37*
G36*
X152510443Y-61335519D02*
X152576627Y-61342037D01*
X152689853Y-61376384D01*
X152746467Y-61393557D01*
X152885087Y-61467652D01*
X152902991Y-61477222D01*
X152938729Y-61506552D01*
X153040186Y-61589814D01*
X153123448Y-61691271D01*
X153152778Y-61727009D01*
X153152779Y-61727011D01*
X153236443Y-61883533D01*
X153236443Y-61883534D01*
X153287963Y-62053373D01*
X153305359Y-62230000D01*
X153287963Y-62406627D01*
X153253616Y-62519853D01*
X153236443Y-62576467D01*
X153162348Y-62715087D01*
X153152778Y-62732991D01*
X153123448Y-62768729D01*
X153040186Y-62870186D01*
X152938729Y-62953448D01*
X152902991Y-62982778D01*
X152902989Y-62982779D01*
X152746467Y-63066443D01*
X152689853Y-63083616D01*
X152576627Y-63117963D01*
X152510442Y-63124482D01*
X152444260Y-63131000D01*
X152355740Y-63131000D01*
X152289558Y-63124482D01*
X152223373Y-63117963D01*
X152110147Y-63083616D01*
X152053533Y-63066443D01*
X151897011Y-62982779D01*
X151897009Y-62982778D01*
X151861271Y-62953448D01*
X151759814Y-62870186D01*
X151676552Y-62768729D01*
X151647222Y-62732991D01*
X151637652Y-62715087D01*
X151563557Y-62576467D01*
X151546384Y-62519853D01*
X151512037Y-62406627D01*
X151494641Y-62230000D01*
X151512037Y-62053373D01*
X151563557Y-61883534D01*
X151563557Y-61883533D01*
X151647221Y-61727011D01*
X151647222Y-61727009D01*
X151676552Y-61691271D01*
X151759814Y-61589814D01*
X151861271Y-61506552D01*
X151897009Y-61477222D01*
X151914913Y-61467652D01*
X152053533Y-61393557D01*
X152110147Y-61376384D01*
X152223373Y-61342037D01*
X152289557Y-61335519D01*
X152355740Y-61329000D01*
X152444260Y-61329000D01*
X152510443Y-61335519D01*
X152510443Y-61335519D01*
G37*
G36*
X149970443Y-61335519D02*
X150036627Y-61342037D01*
X150149853Y-61376384D01*
X150206467Y-61393557D01*
X150345087Y-61467652D01*
X150362991Y-61477222D01*
X150398729Y-61506552D01*
X150500186Y-61589814D01*
X150583448Y-61691271D01*
X150612778Y-61727009D01*
X150612779Y-61727011D01*
X150696443Y-61883533D01*
X150696443Y-61883534D01*
X150747963Y-62053373D01*
X150765359Y-62230000D01*
X150747963Y-62406627D01*
X150713616Y-62519853D01*
X150696443Y-62576467D01*
X150622348Y-62715087D01*
X150612778Y-62732991D01*
X150583448Y-62768729D01*
X150500186Y-62870186D01*
X150398729Y-62953448D01*
X150362991Y-62982778D01*
X150362989Y-62982779D01*
X150206467Y-63066443D01*
X150149853Y-63083616D01*
X150036627Y-63117963D01*
X149970442Y-63124482D01*
X149904260Y-63131000D01*
X149815740Y-63131000D01*
X149749558Y-63124482D01*
X149683373Y-63117963D01*
X149570147Y-63083616D01*
X149513533Y-63066443D01*
X149357011Y-62982779D01*
X149357009Y-62982778D01*
X149321271Y-62953448D01*
X149219814Y-62870186D01*
X149136552Y-62768729D01*
X149107222Y-62732991D01*
X149097652Y-62715087D01*
X149023557Y-62576467D01*
X149006384Y-62519853D01*
X148972037Y-62406627D01*
X148954641Y-62230000D01*
X148972037Y-62053373D01*
X149023557Y-61883534D01*
X149023557Y-61883533D01*
X149107221Y-61727011D01*
X149107222Y-61727009D01*
X149136552Y-61691271D01*
X149219814Y-61589814D01*
X149321271Y-61506552D01*
X149357009Y-61477222D01*
X149374913Y-61467652D01*
X149513533Y-61393557D01*
X149570147Y-61376384D01*
X149683373Y-61342037D01*
X149749557Y-61335519D01*
X149815740Y-61329000D01*
X149904260Y-61329000D01*
X149970443Y-61335519D01*
X149970443Y-61335519D01*
G37*
G36*
X144890443Y-61335519D02*
X144956627Y-61342037D01*
X145069853Y-61376384D01*
X145126467Y-61393557D01*
X145265087Y-61467652D01*
X145282991Y-61477222D01*
X145318729Y-61506552D01*
X145420186Y-61589814D01*
X145503448Y-61691271D01*
X145532778Y-61727009D01*
X145532779Y-61727011D01*
X145616443Y-61883533D01*
X145616443Y-61883534D01*
X145667963Y-62053373D01*
X145685359Y-62230000D01*
X145667963Y-62406627D01*
X145633616Y-62519853D01*
X145616443Y-62576467D01*
X145542348Y-62715087D01*
X145532778Y-62732991D01*
X145503448Y-62768729D01*
X145420186Y-62870186D01*
X145318729Y-62953448D01*
X145282991Y-62982778D01*
X145282989Y-62982779D01*
X145126467Y-63066443D01*
X145069853Y-63083616D01*
X144956627Y-63117963D01*
X144890442Y-63124482D01*
X144824260Y-63131000D01*
X144735740Y-63131000D01*
X144669558Y-63124482D01*
X144603373Y-63117963D01*
X144490147Y-63083616D01*
X144433533Y-63066443D01*
X144277011Y-62982779D01*
X144277009Y-62982778D01*
X144241271Y-62953448D01*
X144139814Y-62870186D01*
X144056552Y-62768729D01*
X144027222Y-62732991D01*
X144017652Y-62715087D01*
X143943557Y-62576467D01*
X143926384Y-62519853D01*
X143892037Y-62406627D01*
X143874641Y-62230000D01*
X143892037Y-62053373D01*
X143943557Y-61883534D01*
X143943557Y-61883533D01*
X144027221Y-61727011D01*
X144027222Y-61727009D01*
X144056552Y-61691271D01*
X144139814Y-61589814D01*
X144241271Y-61506552D01*
X144277009Y-61477222D01*
X144294913Y-61467652D01*
X144433533Y-61393557D01*
X144490147Y-61376384D01*
X144603373Y-61342037D01*
X144669557Y-61335519D01*
X144735740Y-61329000D01*
X144824260Y-61329000D01*
X144890443Y-61335519D01*
X144890443Y-61335519D01*
G37*
G36*
X127110443Y-61335519D02*
X127176627Y-61342037D01*
X127289853Y-61376384D01*
X127346467Y-61393557D01*
X127485087Y-61467652D01*
X127502991Y-61477222D01*
X127538729Y-61506552D01*
X127640186Y-61589814D01*
X127723448Y-61691271D01*
X127752778Y-61727009D01*
X127752779Y-61727011D01*
X127836443Y-61883533D01*
X127836443Y-61883534D01*
X127887963Y-62053373D01*
X127905359Y-62230000D01*
X127887963Y-62406627D01*
X127853616Y-62519853D01*
X127836443Y-62576467D01*
X127762348Y-62715087D01*
X127752778Y-62732991D01*
X127723448Y-62768729D01*
X127640186Y-62870186D01*
X127538729Y-62953448D01*
X127502991Y-62982778D01*
X127502989Y-62982779D01*
X127346467Y-63066443D01*
X127289853Y-63083616D01*
X127176627Y-63117963D01*
X127110442Y-63124482D01*
X127044260Y-63131000D01*
X126955740Y-63131000D01*
X126889558Y-63124482D01*
X126823373Y-63117963D01*
X126710147Y-63083616D01*
X126653533Y-63066443D01*
X126497011Y-62982779D01*
X126497009Y-62982778D01*
X126461271Y-62953448D01*
X126359814Y-62870186D01*
X126276552Y-62768729D01*
X126247222Y-62732991D01*
X126237652Y-62715087D01*
X126163557Y-62576467D01*
X126146384Y-62519853D01*
X126112037Y-62406627D01*
X126094641Y-62230000D01*
X126112037Y-62053373D01*
X126163557Y-61883534D01*
X126163557Y-61883533D01*
X126247221Y-61727011D01*
X126247222Y-61727009D01*
X126276552Y-61691271D01*
X126359814Y-61589814D01*
X126461271Y-61506552D01*
X126497009Y-61477222D01*
X126514913Y-61467652D01*
X126653533Y-61393557D01*
X126710147Y-61376384D01*
X126823373Y-61342037D01*
X126889557Y-61335519D01*
X126955740Y-61329000D01*
X127044260Y-61329000D01*
X127110443Y-61335519D01*
X127110443Y-61335519D01*
G37*
G36*
X129650443Y-61335519D02*
X129716627Y-61342037D01*
X129829853Y-61376384D01*
X129886467Y-61393557D01*
X130025087Y-61467652D01*
X130042991Y-61477222D01*
X130078729Y-61506552D01*
X130180186Y-61589814D01*
X130263448Y-61691271D01*
X130292778Y-61727009D01*
X130292779Y-61727011D01*
X130376443Y-61883533D01*
X130376443Y-61883534D01*
X130427963Y-62053373D01*
X130445359Y-62230000D01*
X130427963Y-62406627D01*
X130393616Y-62519853D01*
X130376443Y-62576467D01*
X130302348Y-62715087D01*
X130292778Y-62732991D01*
X130263448Y-62768729D01*
X130180186Y-62870186D01*
X130078729Y-62953448D01*
X130042991Y-62982778D01*
X130042989Y-62982779D01*
X129886467Y-63066443D01*
X129829853Y-63083616D01*
X129716627Y-63117963D01*
X129650442Y-63124482D01*
X129584260Y-63131000D01*
X129495740Y-63131000D01*
X129429558Y-63124482D01*
X129363373Y-63117963D01*
X129250147Y-63083616D01*
X129193533Y-63066443D01*
X129037011Y-62982779D01*
X129037009Y-62982778D01*
X129001271Y-62953448D01*
X128899814Y-62870186D01*
X128816552Y-62768729D01*
X128787222Y-62732991D01*
X128777652Y-62715087D01*
X128703557Y-62576467D01*
X128686384Y-62519853D01*
X128652037Y-62406627D01*
X128634641Y-62230000D01*
X128652037Y-62053373D01*
X128703557Y-61883534D01*
X128703557Y-61883533D01*
X128787221Y-61727011D01*
X128787222Y-61727009D01*
X128816552Y-61691271D01*
X128899814Y-61589814D01*
X129001271Y-61506552D01*
X129037009Y-61477222D01*
X129054913Y-61467652D01*
X129193533Y-61393557D01*
X129250147Y-61376384D01*
X129363373Y-61342037D01*
X129429557Y-61335519D01*
X129495740Y-61329000D01*
X129584260Y-61329000D01*
X129650443Y-61335519D01*
X129650443Y-61335519D01*
G37*
G36*
X132190443Y-61335519D02*
X132256627Y-61342037D01*
X132369853Y-61376384D01*
X132426467Y-61393557D01*
X132565087Y-61467652D01*
X132582991Y-61477222D01*
X132618729Y-61506552D01*
X132720186Y-61589814D01*
X132803448Y-61691271D01*
X132832778Y-61727009D01*
X132832779Y-61727011D01*
X132916443Y-61883533D01*
X132916443Y-61883534D01*
X132967963Y-62053373D01*
X132985359Y-62230000D01*
X132967963Y-62406627D01*
X132933616Y-62519853D01*
X132916443Y-62576467D01*
X132842348Y-62715087D01*
X132832778Y-62732991D01*
X132803448Y-62768729D01*
X132720186Y-62870186D01*
X132618729Y-62953448D01*
X132582991Y-62982778D01*
X132582989Y-62982779D01*
X132426467Y-63066443D01*
X132369853Y-63083616D01*
X132256627Y-63117963D01*
X132190442Y-63124482D01*
X132124260Y-63131000D01*
X132035740Y-63131000D01*
X131969558Y-63124482D01*
X131903373Y-63117963D01*
X131790147Y-63083616D01*
X131733533Y-63066443D01*
X131577011Y-62982779D01*
X131577009Y-62982778D01*
X131541271Y-62953448D01*
X131439814Y-62870186D01*
X131356552Y-62768729D01*
X131327222Y-62732991D01*
X131317652Y-62715087D01*
X131243557Y-62576467D01*
X131226384Y-62519853D01*
X131192037Y-62406627D01*
X131174641Y-62230000D01*
X131192037Y-62053373D01*
X131243557Y-61883534D01*
X131243557Y-61883533D01*
X131327221Y-61727011D01*
X131327222Y-61727009D01*
X131356552Y-61691271D01*
X131439814Y-61589814D01*
X131541271Y-61506552D01*
X131577009Y-61477222D01*
X131594913Y-61467652D01*
X131733533Y-61393557D01*
X131790147Y-61376384D01*
X131903373Y-61342037D01*
X131969557Y-61335519D01*
X132035740Y-61329000D01*
X132124260Y-61329000D01*
X132190443Y-61335519D01*
X132190443Y-61335519D01*
G37*
G36*
X134730443Y-61335519D02*
X134796627Y-61342037D01*
X134909853Y-61376384D01*
X134966467Y-61393557D01*
X135105087Y-61467652D01*
X135122991Y-61477222D01*
X135158729Y-61506552D01*
X135260186Y-61589814D01*
X135343448Y-61691271D01*
X135372778Y-61727009D01*
X135372779Y-61727011D01*
X135456443Y-61883533D01*
X135456443Y-61883534D01*
X135507963Y-62053373D01*
X135525359Y-62230000D01*
X135507963Y-62406627D01*
X135473616Y-62519853D01*
X135456443Y-62576467D01*
X135382348Y-62715087D01*
X135372778Y-62732991D01*
X135343448Y-62768729D01*
X135260186Y-62870186D01*
X135158729Y-62953448D01*
X135122991Y-62982778D01*
X135122989Y-62982779D01*
X134966467Y-63066443D01*
X134909853Y-63083616D01*
X134796627Y-63117963D01*
X134730442Y-63124482D01*
X134664260Y-63131000D01*
X134575740Y-63131000D01*
X134509558Y-63124482D01*
X134443373Y-63117963D01*
X134330147Y-63083616D01*
X134273533Y-63066443D01*
X134117011Y-62982779D01*
X134117009Y-62982778D01*
X134081271Y-62953448D01*
X133979814Y-62870186D01*
X133896552Y-62768729D01*
X133867222Y-62732991D01*
X133857652Y-62715087D01*
X133783557Y-62576467D01*
X133766384Y-62519853D01*
X133732037Y-62406627D01*
X133714641Y-62230000D01*
X133732037Y-62053373D01*
X133783557Y-61883534D01*
X133783557Y-61883533D01*
X133867221Y-61727011D01*
X133867222Y-61727009D01*
X133896552Y-61691271D01*
X133979814Y-61589814D01*
X134081271Y-61506552D01*
X134117009Y-61477222D01*
X134134913Y-61467652D01*
X134273533Y-61393557D01*
X134330147Y-61376384D01*
X134443373Y-61342037D01*
X134509557Y-61335519D01*
X134575740Y-61329000D01*
X134664260Y-61329000D01*
X134730443Y-61335519D01*
X134730443Y-61335519D01*
G37*
G36*
X137270443Y-61335519D02*
X137336627Y-61342037D01*
X137449853Y-61376384D01*
X137506467Y-61393557D01*
X137645087Y-61467652D01*
X137662991Y-61477222D01*
X137698729Y-61506552D01*
X137800186Y-61589814D01*
X137883448Y-61691271D01*
X137912778Y-61727009D01*
X137912779Y-61727011D01*
X137996443Y-61883533D01*
X137996443Y-61883534D01*
X138047963Y-62053373D01*
X138065359Y-62230000D01*
X138047963Y-62406627D01*
X138013616Y-62519853D01*
X137996443Y-62576467D01*
X137922348Y-62715087D01*
X137912778Y-62732991D01*
X137883448Y-62768729D01*
X137800186Y-62870186D01*
X137698729Y-62953448D01*
X137662991Y-62982778D01*
X137662989Y-62982779D01*
X137506467Y-63066443D01*
X137449853Y-63083616D01*
X137336627Y-63117963D01*
X137270442Y-63124482D01*
X137204260Y-63131000D01*
X137115740Y-63131000D01*
X137049558Y-63124482D01*
X136983373Y-63117963D01*
X136870147Y-63083616D01*
X136813533Y-63066443D01*
X136657011Y-62982779D01*
X136657009Y-62982778D01*
X136621271Y-62953448D01*
X136519814Y-62870186D01*
X136436552Y-62768729D01*
X136407222Y-62732991D01*
X136397652Y-62715087D01*
X136323557Y-62576467D01*
X136306384Y-62519853D01*
X136272037Y-62406627D01*
X136254641Y-62230000D01*
X136272037Y-62053373D01*
X136323557Y-61883534D01*
X136323557Y-61883533D01*
X136407221Y-61727011D01*
X136407222Y-61727009D01*
X136436552Y-61691271D01*
X136519814Y-61589814D01*
X136621271Y-61506552D01*
X136657009Y-61477222D01*
X136674913Y-61467652D01*
X136813533Y-61393557D01*
X136870147Y-61376384D01*
X136983373Y-61342037D01*
X137049557Y-61335519D01*
X137115740Y-61329000D01*
X137204260Y-61329000D01*
X137270443Y-61335519D01*
X137270443Y-61335519D01*
G37*
G36*
X139810443Y-61335519D02*
X139876627Y-61342037D01*
X139989853Y-61376384D01*
X140046467Y-61393557D01*
X140185087Y-61467652D01*
X140202991Y-61477222D01*
X140238729Y-61506552D01*
X140340186Y-61589814D01*
X140423448Y-61691271D01*
X140452778Y-61727009D01*
X140452779Y-61727011D01*
X140536443Y-61883533D01*
X140536443Y-61883534D01*
X140587963Y-62053373D01*
X140605359Y-62230000D01*
X140587963Y-62406627D01*
X140553616Y-62519853D01*
X140536443Y-62576467D01*
X140462348Y-62715087D01*
X140452778Y-62732991D01*
X140423448Y-62768729D01*
X140340186Y-62870186D01*
X140238729Y-62953448D01*
X140202991Y-62982778D01*
X140202989Y-62982779D01*
X140046467Y-63066443D01*
X139989853Y-63083616D01*
X139876627Y-63117963D01*
X139810442Y-63124482D01*
X139744260Y-63131000D01*
X139655740Y-63131000D01*
X139589558Y-63124482D01*
X139523373Y-63117963D01*
X139410147Y-63083616D01*
X139353533Y-63066443D01*
X139197011Y-62982779D01*
X139197009Y-62982778D01*
X139161271Y-62953448D01*
X139059814Y-62870186D01*
X138976552Y-62768729D01*
X138947222Y-62732991D01*
X138937652Y-62715087D01*
X138863557Y-62576467D01*
X138846384Y-62519853D01*
X138812037Y-62406627D01*
X138794641Y-62230000D01*
X138812037Y-62053373D01*
X138863557Y-61883534D01*
X138863557Y-61883533D01*
X138947221Y-61727011D01*
X138947222Y-61727009D01*
X138976552Y-61691271D01*
X139059814Y-61589814D01*
X139161271Y-61506552D01*
X139197009Y-61477222D01*
X139214913Y-61467652D01*
X139353533Y-61393557D01*
X139410147Y-61376384D01*
X139523373Y-61342037D01*
X139589557Y-61335519D01*
X139655740Y-61329000D01*
X139744260Y-61329000D01*
X139810443Y-61335519D01*
X139810443Y-61335519D01*
G37*
G36*
X147430443Y-61335519D02*
X147496627Y-61342037D01*
X147609853Y-61376384D01*
X147666467Y-61393557D01*
X147805087Y-61467652D01*
X147822991Y-61477222D01*
X147858729Y-61506552D01*
X147960186Y-61589814D01*
X148043448Y-61691271D01*
X148072778Y-61727009D01*
X148072779Y-61727011D01*
X148156443Y-61883533D01*
X148156443Y-61883534D01*
X148207963Y-62053373D01*
X148225359Y-62230000D01*
X148207963Y-62406627D01*
X148173616Y-62519853D01*
X148156443Y-62576467D01*
X148082348Y-62715087D01*
X148072778Y-62732991D01*
X148043448Y-62768729D01*
X147960186Y-62870186D01*
X147858729Y-62953448D01*
X147822991Y-62982778D01*
X147822989Y-62982779D01*
X147666467Y-63066443D01*
X147609853Y-63083616D01*
X147496627Y-63117963D01*
X147430442Y-63124482D01*
X147364260Y-63131000D01*
X147275740Y-63131000D01*
X147209558Y-63124482D01*
X147143373Y-63117963D01*
X147030147Y-63083616D01*
X146973533Y-63066443D01*
X146817011Y-62982779D01*
X146817009Y-62982778D01*
X146781271Y-62953448D01*
X146679814Y-62870186D01*
X146596552Y-62768729D01*
X146567222Y-62732991D01*
X146557652Y-62715087D01*
X146483557Y-62576467D01*
X146466384Y-62519853D01*
X146432037Y-62406627D01*
X146414641Y-62230000D01*
X146432037Y-62053373D01*
X146483557Y-61883534D01*
X146483557Y-61883533D01*
X146567221Y-61727011D01*
X146567222Y-61727009D01*
X146596552Y-61691271D01*
X146679814Y-61589814D01*
X146781271Y-61506552D01*
X146817009Y-61477222D01*
X146834913Y-61467652D01*
X146973533Y-61393557D01*
X147030147Y-61376384D01*
X147143373Y-61342037D01*
X147209557Y-61335519D01*
X147275740Y-61329000D01*
X147364260Y-61329000D01*
X147430443Y-61335519D01*
X147430443Y-61335519D01*
G37*
G36*
X123046443Y-58795519D02*
X123112627Y-58802037D01*
X123225853Y-58836384D01*
X123282467Y-58853557D01*
X123421087Y-58927652D01*
X123438991Y-58937222D01*
X123474729Y-58966552D01*
X123576186Y-59049814D01*
X123659448Y-59151271D01*
X123688778Y-59187009D01*
X123688779Y-59187011D01*
X123772443Y-59343533D01*
X123772443Y-59343534D01*
X123823963Y-59513373D01*
X123841359Y-59690000D01*
X123823963Y-59866627D01*
X123789616Y-59979853D01*
X123772443Y-60036467D01*
X123698348Y-60175087D01*
X123688778Y-60192991D01*
X123659448Y-60228729D01*
X123576186Y-60330186D01*
X123474729Y-60413448D01*
X123438991Y-60442778D01*
X123438989Y-60442779D01*
X123282467Y-60526443D01*
X123225853Y-60543616D01*
X123112627Y-60577963D01*
X123046443Y-60584481D01*
X122980260Y-60591000D01*
X122891740Y-60591000D01*
X122825557Y-60584481D01*
X122759373Y-60577963D01*
X122646147Y-60543616D01*
X122589533Y-60526443D01*
X122433011Y-60442779D01*
X122433009Y-60442778D01*
X122397271Y-60413448D01*
X122295814Y-60330186D01*
X122212552Y-60228729D01*
X122183222Y-60192991D01*
X122173652Y-60175087D01*
X122099557Y-60036467D01*
X122082384Y-59979853D01*
X122048037Y-59866627D01*
X122030641Y-59690000D01*
X122048037Y-59513373D01*
X122099557Y-59343534D01*
X122099557Y-59343533D01*
X122183221Y-59187011D01*
X122183222Y-59187009D01*
X122212552Y-59151271D01*
X122295814Y-59049814D01*
X122397271Y-58966552D01*
X122433009Y-58937222D01*
X122450913Y-58927652D01*
X122589533Y-58853557D01*
X122646147Y-58836384D01*
X122759373Y-58802037D01*
X122825557Y-58795519D01*
X122891740Y-58789000D01*
X122980260Y-58789000D01*
X123046443Y-58795519D01*
X123046443Y-58795519D01*
G37*
G36*
X135746443Y-58795519D02*
X135812627Y-58802037D01*
X135925853Y-58836384D01*
X135982467Y-58853557D01*
X136121087Y-58927652D01*
X136138991Y-58937222D01*
X136174729Y-58966552D01*
X136276186Y-59049814D01*
X136359448Y-59151271D01*
X136388778Y-59187009D01*
X136388779Y-59187011D01*
X136472443Y-59343533D01*
X136472443Y-59343534D01*
X136523963Y-59513373D01*
X136541359Y-59690000D01*
X136523963Y-59866627D01*
X136489616Y-59979853D01*
X136472443Y-60036467D01*
X136398348Y-60175087D01*
X136388778Y-60192991D01*
X136359448Y-60228729D01*
X136276186Y-60330186D01*
X136174729Y-60413448D01*
X136138991Y-60442778D01*
X136138989Y-60442779D01*
X135982467Y-60526443D01*
X135925853Y-60543616D01*
X135812627Y-60577963D01*
X135746443Y-60584481D01*
X135680260Y-60591000D01*
X135591740Y-60591000D01*
X135525557Y-60584481D01*
X135459373Y-60577963D01*
X135346147Y-60543616D01*
X135289533Y-60526443D01*
X135133011Y-60442779D01*
X135133009Y-60442778D01*
X135097271Y-60413448D01*
X134995814Y-60330186D01*
X134912552Y-60228729D01*
X134883222Y-60192991D01*
X134873652Y-60175087D01*
X134799557Y-60036467D01*
X134782384Y-59979853D01*
X134748037Y-59866627D01*
X134730641Y-59690000D01*
X134748037Y-59513373D01*
X134799557Y-59343534D01*
X134799557Y-59343533D01*
X134883221Y-59187011D01*
X134883222Y-59187009D01*
X134912552Y-59151271D01*
X134995814Y-59049814D01*
X135097271Y-58966552D01*
X135133009Y-58937222D01*
X135150913Y-58927652D01*
X135289533Y-58853557D01*
X135346147Y-58836384D01*
X135459373Y-58802037D01*
X135525557Y-58795519D01*
X135591740Y-58789000D01*
X135680260Y-58789000D01*
X135746443Y-58795519D01*
X135746443Y-58795519D01*
G37*
G36*
X138286443Y-58795519D02*
X138352627Y-58802037D01*
X138465853Y-58836384D01*
X138522467Y-58853557D01*
X138661087Y-58927652D01*
X138678991Y-58937222D01*
X138714729Y-58966552D01*
X138816186Y-59049814D01*
X138899448Y-59151271D01*
X138928778Y-59187009D01*
X138928779Y-59187011D01*
X139012443Y-59343533D01*
X139012443Y-59343534D01*
X139063963Y-59513373D01*
X139081359Y-59690000D01*
X139063963Y-59866627D01*
X139029616Y-59979853D01*
X139012443Y-60036467D01*
X138938348Y-60175087D01*
X138928778Y-60192991D01*
X138899448Y-60228729D01*
X138816186Y-60330186D01*
X138714729Y-60413448D01*
X138678991Y-60442778D01*
X138678989Y-60442779D01*
X138522467Y-60526443D01*
X138465853Y-60543616D01*
X138352627Y-60577963D01*
X138286443Y-60584481D01*
X138220260Y-60591000D01*
X138131740Y-60591000D01*
X138065557Y-60584481D01*
X137999373Y-60577963D01*
X137886147Y-60543616D01*
X137829533Y-60526443D01*
X137673011Y-60442779D01*
X137673009Y-60442778D01*
X137637271Y-60413448D01*
X137535814Y-60330186D01*
X137452552Y-60228729D01*
X137423222Y-60192991D01*
X137413652Y-60175087D01*
X137339557Y-60036467D01*
X137322384Y-59979853D01*
X137288037Y-59866627D01*
X137270641Y-59690000D01*
X137288037Y-59513373D01*
X137339557Y-59343534D01*
X137339557Y-59343533D01*
X137423221Y-59187011D01*
X137423222Y-59187009D01*
X137452552Y-59151271D01*
X137535814Y-59049814D01*
X137637271Y-58966552D01*
X137673009Y-58937222D01*
X137690913Y-58927652D01*
X137829533Y-58853557D01*
X137886147Y-58836384D01*
X137999373Y-58802037D01*
X138065557Y-58795519D01*
X138131740Y-58789000D01*
X138220260Y-58789000D01*
X138286443Y-58795519D01*
X138286443Y-58795519D01*
G37*
G36*
X140826443Y-58795519D02*
X140892627Y-58802037D01*
X141005853Y-58836384D01*
X141062467Y-58853557D01*
X141201087Y-58927652D01*
X141218991Y-58937222D01*
X141254729Y-58966552D01*
X141356186Y-59049814D01*
X141439448Y-59151271D01*
X141468778Y-59187009D01*
X141468779Y-59187011D01*
X141552443Y-59343533D01*
X141552443Y-59343534D01*
X141603963Y-59513373D01*
X141621359Y-59690000D01*
X141603963Y-59866627D01*
X141569616Y-59979853D01*
X141552443Y-60036467D01*
X141478348Y-60175087D01*
X141468778Y-60192991D01*
X141439448Y-60228729D01*
X141356186Y-60330186D01*
X141254729Y-60413448D01*
X141218991Y-60442778D01*
X141218989Y-60442779D01*
X141062467Y-60526443D01*
X141005853Y-60543616D01*
X140892627Y-60577963D01*
X140826443Y-60584481D01*
X140760260Y-60591000D01*
X140671740Y-60591000D01*
X140605557Y-60584481D01*
X140539373Y-60577963D01*
X140426147Y-60543616D01*
X140369533Y-60526443D01*
X140213011Y-60442779D01*
X140213009Y-60442778D01*
X140177271Y-60413448D01*
X140075814Y-60330186D01*
X139992552Y-60228729D01*
X139963222Y-60192991D01*
X139953652Y-60175087D01*
X139879557Y-60036467D01*
X139862384Y-59979853D01*
X139828037Y-59866627D01*
X139810641Y-59690000D01*
X139828037Y-59513373D01*
X139879557Y-59343534D01*
X139879557Y-59343533D01*
X139963221Y-59187011D01*
X139963222Y-59187009D01*
X139992552Y-59151271D01*
X140075814Y-59049814D01*
X140177271Y-58966552D01*
X140213009Y-58937222D01*
X140230913Y-58927652D01*
X140369533Y-58853557D01*
X140426147Y-58836384D01*
X140539373Y-58802037D01*
X140605557Y-58795519D01*
X140671740Y-58789000D01*
X140760260Y-58789000D01*
X140826443Y-58795519D01*
X140826443Y-58795519D01*
G37*
G36*
X144890443Y-58795519D02*
X144956627Y-58802037D01*
X145069853Y-58836384D01*
X145126467Y-58853557D01*
X145265087Y-58927652D01*
X145282991Y-58937222D01*
X145318729Y-58966552D01*
X145420186Y-59049814D01*
X145503448Y-59151271D01*
X145532778Y-59187009D01*
X145532779Y-59187011D01*
X145616443Y-59343533D01*
X145616443Y-59343534D01*
X145667963Y-59513373D01*
X145685359Y-59690000D01*
X145667963Y-59866627D01*
X145633616Y-59979853D01*
X145616443Y-60036467D01*
X145542348Y-60175087D01*
X145532778Y-60192991D01*
X145503448Y-60228729D01*
X145420186Y-60330186D01*
X145318729Y-60413448D01*
X145282991Y-60442778D01*
X145282989Y-60442779D01*
X145126467Y-60526443D01*
X145069853Y-60543616D01*
X144956627Y-60577963D01*
X144890443Y-60584481D01*
X144824260Y-60591000D01*
X144735740Y-60591000D01*
X144669557Y-60584481D01*
X144603373Y-60577963D01*
X144490147Y-60543616D01*
X144433533Y-60526443D01*
X144277011Y-60442779D01*
X144277009Y-60442778D01*
X144241271Y-60413448D01*
X144139814Y-60330186D01*
X144056552Y-60228729D01*
X144027222Y-60192991D01*
X144017652Y-60175087D01*
X143943557Y-60036467D01*
X143926384Y-59979853D01*
X143892037Y-59866627D01*
X143874641Y-59690000D01*
X143892037Y-59513373D01*
X143943557Y-59343534D01*
X143943557Y-59343533D01*
X144027221Y-59187011D01*
X144027222Y-59187009D01*
X144056552Y-59151271D01*
X144139814Y-59049814D01*
X144241271Y-58966552D01*
X144277009Y-58937222D01*
X144294913Y-58927652D01*
X144433533Y-58853557D01*
X144490147Y-58836384D01*
X144603373Y-58802037D01*
X144669557Y-58795519D01*
X144735740Y-58789000D01*
X144824260Y-58789000D01*
X144890443Y-58795519D01*
X144890443Y-58795519D01*
G37*
G36*
X147430443Y-58795519D02*
X147496627Y-58802037D01*
X147609853Y-58836384D01*
X147666467Y-58853557D01*
X147805087Y-58927652D01*
X147822991Y-58937222D01*
X147858729Y-58966552D01*
X147960186Y-59049814D01*
X148043448Y-59151271D01*
X148072778Y-59187009D01*
X148072779Y-59187011D01*
X148156443Y-59343533D01*
X148156443Y-59343534D01*
X148207963Y-59513373D01*
X148225359Y-59690000D01*
X148207963Y-59866627D01*
X148173616Y-59979853D01*
X148156443Y-60036467D01*
X148082348Y-60175087D01*
X148072778Y-60192991D01*
X148043448Y-60228729D01*
X147960186Y-60330186D01*
X147858729Y-60413448D01*
X147822991Y-60442778D01*
X147822989Y-60442779D01*
X147666467Y-60526443D01*
X147609853Y-60543616D01*
X147496627Y-60577963D01*
X147430443Y-60584481D01*
X147364260Y-60591000D01*
X147275740Y-60591000D01*
X147209557Y-60584481D01*
X147143373Y-60577963D01*
X147030147Y-60543616D01*
X146973533Y-60526443D01*
X146817011Y-60442779D01*
X146817009Y-60442778D01*
X146781271Y-60413448D01*
X146679814Y-60330186D01*
X146596552Y-60228729D01*
X146567222Y-60192991D01*
X146557652Y-60175087D01*
X146483557Y-60036467D01*
X146466384Y-59979853D01*
X146432037Y-59866627D01*
X146414641Y-59690000D01*
X146432037Y-59513373D01*
X146483557Y-59343534D01*
X146483557Y-59343533D01*
X146567221Y-59187011D01*
X146567222Y-59187009D01*
X146596552Y-59151271D01*
X146679814Y-59049814D01*
X146781271Y-58966552D01*
X146817009Y-58937222D01*
X146834913Y-58927652D01*
X146973533Y-58853557D01*
X147030147Y-58836384D01*
X147143373Y-58802037D01*
X147209557Y-58795519D01*
X147275740Y-58789000D01*
X147364260Y-58789000D01*
X147430443Y-58795519D01*
X147430443Y-58795519D01*
G37*
G36*
X149970443Y-58795519D02*
X150036627Y-58802037D01*
X150149853Y-58836384D01*
X150206467Y-58853557D01*
X150345087Y-58927652D01*
X150362991Y-58937222D01*
X150398729Y-58966552D01*
X150500186Y-59049814D01*
X150583448Y-59151271D01*
X150612778Y-59187009D01*
X150612779Y-59187011D01*
X150696443Y-59343533D01*
X150696443Y-59343534D01*
X150747963Y-59513373D01*
X150765359Y-59690000D01*
X150747963Y-59866627D01*
X150713616Y-59979853D01*
X150696443Y-60036467D01*
X150622348Y-60175087D01*
X150612778Y-60192991D01*
X150583448Y-60228729D01*
X150500186Y-60330186D01*
X150398729Y-60413448D01*
X150362991Y-60442778D01*
X150362989Y-60442779D01*
X150206467Y-60526443D01*
X150149853Y-60543616D01*
X150036627Y-60577963D01*
X149970443Y-60584481D01*
X149904260Y-60591000D01*
X149815740Y-60591000D01*
X149749557Y-60584481D01*
X149683373Y-60577963D01*
X149570147Y-60543616D01*
X149513533Y-60526443D01*
X149357011Y-60442779D01*
X149357009Y-60442778D01*
X149321271Y-60413448D01*
X149219814Y-60330186D01*
X149136552Y-60228729D01*
X149107222Y-60192991D01*
X149097652Y-60175087D01*
X149023557Y-60036467D01*
X149006384Y-59979853D01*
X148972037Y-59866627D01*
X148954641Y-59690000D01*
X148972037Y-59513373D01*
X149023557Y-59343534D01*
X149023557Y-59343533D01*
X149107221Y-59187011D01*
X149107222Y-59187009D01*
X149136552Y-59151271D01*
X149219814Y-59049814D01*
X149321271Y-58966552D01*
X149357009Y-58937222D01*
X149374913Y-58927652D01*
X149513533Y-58853557D01*
X149570147Y-58836384D01*
X149683373Y-58802037D01*
X149749557Y-58795519D01*
X149815740Y-58789000D01*
X149904260Y-58789000D01*
X149970443Y-58795519D01*
X149970443Y-58795519D01*
G37*
G36*
X152510443Y-58795519D02*
X152576627Y-58802037D01*
X152689853Y-58836384D01*
X152746467Y-58853557D01*
X152885087Y-58927652D01*
X152902991Y-58937222D01*
X152938729Y-58966552D01*
X153040186Y-59049814D01*
X153123448Y-59151271D01*
X153152778Y-59187009D01*
X153152779Y-59187011D01*
X153236443Y-59343533D01*
X153236443Y-59343534D01*
X153287963Y-59513373D01*
X153305359Y-59690000D01*
X153287963Y-59866627D01*
X153253616Y-59979853D01*
X153236443Y-60036467D01*
X153162348Y-60175087D01*
X153152778Y-60192991D01*
X153123448Y-60228729D01*
X153040186Y-60330186D01*
X152938729Y-60413448D01*
X152902991Y-60442778D01*
X152902989Y-60442779D01*
X152746467Y-60526443D01*
X152689853Y-60543616D01*
X152576627Y-60577963D01*
X152510443Y-60584481D01*
X152444260Y-60591000D01*
X152355740Y-60591000D01*
X152289557Y-60584481D01*
X152223373Y-60577963D01*
X152110147Y-60543616D01*
X152053533Y-60526443D01*
X151897011Y-60442779D01*
X151897009Y-60442778D01*
X151861271Y-60413448D01*
X151759814Y-60330186D01*
X151676552Y-60228729D01*
X151647222Y-60192991D01*
X151637652Y-60175087D01*
X151563557Y-60036467D01*
X151546384Y-59979853D01*
X151512037Y-59866627D01*
X151494641Y-59690000D01*
X151512037Y-59513373D01*
X151563557Y-59343534D01*
X151563557Y-59343533D01*
X151647221Y-59187011D01*
X151647222Y-59187009D01*
X151676552Y-59151271D01*
X151759814Y-59049814D01*
X151861271Y-58966552D01*
X151897009Y-58937222D01*
X151914913Y-58927652D01*
X152053533Y-58853557D01*
X152110147Y-58836384D01*
X152223373Y-58802037D01*
X152289557Y-58795519D01*
X152355740Y-58789000D01*
X152444260Y-58789000D01*
X152510443Y-58795519D01*
X152510443Y-58795519D01*
G37*
G36*
X155050443Y-58795519D02*
X155116627Y-58802037D01*
X155229853Y-58836384D01*
X155286467Y-58853557D01*
X155425087Y-58927652D01*
X155442991Y-58937222D01*
X155478729Y-58966552D01*
X155580186Y-59049814D01*
X155663448Y-59151271D01*
X155692778Y-59187009D01*
X155692779Y-59187011D01*
X155776443Y-59343533D01*
X155776443Y-59343534D01*
X155827963Y-59513373D01*
X155845359Y-59690000D01*
X155827963Y-59866627D01*
X155793616Y-59979853D01*
X155776443Y-60036467D01*
X155702348Y-60175087D01*
X155692778Y-60192991D01*
X155663448Y-60228729D01*
X155580186Y-60330186D01*
X155478729Y-60413448D01*
X155442991Y-60442778D01*
X155442989Y-60442779D01*
X155286467Y-60526443D01*
X155229853Y-60543616D01*
X155116627Y-60577963D01*
X155050443Y-60584481D01*
X154984260Y-60591000D01*
X154895740Y-60591000D01*
X154829557Y-60584481D01*
X154763373Y-60577963D01*
X154650147Y-60543616D01*
X154593533Y-60526443D01*
X154437011Y-60442779D01*
X154437009Y-60442778D01*
X154401271Y-60413448D01*
X154299814Y-60330186D01*
X154216552Y-60228729D01*
X154187222Y-60192991D01*
X154177652Y-60175087D01*
X154103557Y-60036467D01*
X154086384Y-59979853D01*
X154052037Y-59866627D01*
X154034641Y-59690000D01*
X154052037Y-59513373D01*
X154103557Y-59343534D01*
X154103557Y-59343533D01*
X154187221Y-59187011D01*
X154187222Y-59187009D01*
X154216552Y-59151271D01*
X154299814Y-59049814D01*
X154401271Y-58966552D01*
X154437009Y-58937222D01*
X154454913Y-58927652D01*
X154593533Y-58853557D01*
X154650147Y-58836384D01*
X154763373Y-58802037D01*
X154829557Y-58795519D01*
X154895740Y-58789000D01*
X154984260Y-58789000D01*
X155050443Y-58795519D01*
X155050443Y-58795519D01*
G37*
G36*
X157590443Y-58795519D02*
X157656627Y-58802037D01*
X157769853Y-58836384D01*
X157826467Y-58853557D01*
X157965087Y-58927652D01*
X157982991Y-58937222D01*
X158018729Y-58966552D01*
X158120186Y-59049814D01*
X158203448Y-59151271D01*
X158232778Y-59187009D01*
X158232779Y-59187011D01*
X158316443Y-59343533D01*
X158316443Y-59343534D01*
X158367963Y-59513373D01*
X158385359Y-59690000D01*
X158367963Y-59866627D01*
X158333616Y-59979853D01*
X158316443Y-60036467D01*
X158242348Y-60175087D01*
X158232778Y-60192991D01*
X158203448Y-60228729D01*
X158120186Y-60330186D01*
X158018729Y-60413448D01*
X157982991Y-60442778D01*
X157982989Y-60442779D01*
X157826467Y-60526443D01*
X157769853Y-60543616D01*
X157656627Y-60577963D01*
X157590443Y-60584481D01*
X157524260Y-60591000D01*
X157435740Y-60591000D01*
X157369557Y-60584481D01*
X157303373Y-60577963D01*
X157190147Y-60543616D01*
X157133533Y-60526443D01*
X156977011Y-60442779D01*
X156977009Y-60442778D01*
X156941271Y-60413448D01*
X156839814Y-60330186D01*
X156756552Y-60228729D01*
X156727222Y-60192991D01*
X156717652Y-60175087D01*
X156643557Y-60036467D01*
X156626384Y-59979853D01*
X156592037Y-59866627D01*
X156574641Y-59690000D01*
X156592037Y-59513373D01*
X156643557Y-59343534D01*
X156643557Y-59343533D01*
X156727221Y-59187011D01*
X156727222Y-59187009D01*
X156756552Y-59151271D01*
X156839814Y-59049814D01*
X156941271Y-58966552D01*
X156977009Y-58937222D01*
X156994913Y-58927652D01*
X157133533Y-58853557D01*
X157190147Y-58836384D01*
X157303373Y-58802037D01*
X157369557Y-58795519D01*
X157435740Y-58789000D01*
X157524260Y-58789000D01*
X157590443Y-58795519D01*
X157590443Y-58795519D01*
G37*
G36*
X160130443Y-58795519D02*
X160196627Y-58802037D01*
X160309853Y-58836384D01*
X160366467Y-58853557D01*
X160505087Y-58927652D01*
X160522991Y-58937222D01*
X160558729Y-58966552D01*
X160660186Y-59049814D01*
X160743448Y-59151271D01*
X160772778Y-59187009D01*
X160772779Y-59187011D01*
X160856443Y-59343533D01*
X160856443Y-59343534D01*
X160907963Y-59513373D01*
X160925359Y-59690000D01*
X160907963Y-59866627D01*
X160873616Y-59979853D01*
X160856443Y-60036467D01*
X160782348Y-60175087D01*
X160772778Y-60192991D01*
X160743448Y-60228729D01*
X160660186Y-60330186D01*
X160558729Y-60413448D01*
X160522991Y-60442778D01*
X160522989Y-60442779D01*
X160366467Y-60526443D01*
X160309853Y-60543616D01*
X160196627Y-60577963D01*
X160130443Y-60584481D01*
X160064260Y-60591000D01*
X159975740Y-60591000D01*
X159909557Y-60584481D01*
X159843373Y-60577963D01*
X159730147Y-60543616D01*
X159673533Y-60526443D01*
X159517011Y-60442779D01*
X159517009Y-60442778D01*
X159481271Y-60413448D01*
X159379814Y-60330186D01*
X159296552Y-60228729D01*
X159267222Y-60192991D01*
X159257652Y-60175087D01*
X159183557Y-60036467D01*
X159166384Y-59979853D01*
X159132037Y-59866627D01*
X159114641Y-59690000D01*
X159132037Y-59513373D01*
X159183557Y-59343534D01*
X159183557Y-59343533D01*
X159267221Y-59187011D01*
X159267222Y-59187009D01*
X159296552Y-59151271D01*
X159379814Y-59049814D01*
X159481271Y-58966552D01*
X159517009Y-58937222D01*
X159534913Y-58927652D01*
X159673533Y-58853557D01*
X159730147Y-58836384D01*
X159843373Y-58802037D01*
X159909557Y-58795519D01*
X159975740Y-58789000D01*
X160064260Y-58789000D01*
X160130443Y-58795519D01*
X160130443Y-58795519D01*
G37*
G36*
X162670443Y-58795519D02*
X162736627Y-58802037D01*
X162849853Y-58836384D01*
X162906467Y-58853557D01*
X163045087Y-58927652D01*
X163062991Y-58937222D01*
X163098729Y-58966552D01*
X163200186Y-59049814D01*
X163283448Y-59151271D01*
X163312778Y-59187009D01*
X163312779Y-59187011D01*
X163396443Y-59343533D01*
X163396443Y-59343534D01*
X163447963Y-59513373D01*
X163465359Y-59690000D01*
X163447963Y-59866627D01*
X163413616Y-59979853D01*
X163396443Y-60036467D01*
X163322348Y-60175087D01*
X163312778Y-60192991D01*
X163283448Y-60228729D01*
X163200186Y-60330186D01*
X163098729Y-60413448D01*
X163062991Y-60442778D01*
X163062989Y-60442779D01*
X162906467Y-60526443D01*
X162849853Y-60543616D01*
X162736627Y-60577963D01*
X162670443Y-60584481D01*
X162604260Y-60591000D01*
X162515740Y-60591000D01*
X162449557Y-60584481D01*
X162383373Y-60577963D01*
X162270147Y-60543616D01*
X162213533Y-60526443D01*
X162057011Y-60442779D01*
X162057009Y-60442778D01*
X162021271Y-60413448D01*
X161919814Y-60330186D01*
X161836552Y-60228729D01*
X161807222Y-60192991D01*
X161797652Y-60175087D01*
X161723557Y-60036467D01*
X161706384Y-59979853D01*
X161672037Y-59866627D01*
X161654641Y-59690000D01*
X161672037Y-59513373D01*
X161723557Y-59343534D01*
X161723557Y-59343533D01*
X161807221Y-59187011D01*
X161807222Y-59187009D01*
X161836552Y-59151271D01*
X161919814Y-59049814D01*
X162021271Y-58966552D01*
X162057009Y-58937222D01*
X162074913Y-58927652D01*
X162213533Y-58853557D01*
X162270147Y-58836384D01*
X162383373Y-58802037D01*
X162449557Y-58795519D01*
X162515740Y-58789000D01*
X162604260Y-58789000D01*
X162670443Y-58795519D01*
X162670443Y-58795519D01*
G37*
G36*
X130666443Y-58795519D02*
X130732627Y-58802037D01*
X130845853Y-58836384D01*
X130902467Y-58853557D01*
X131041087Y-58927652D01*
X131058991Y-58937222D01*
X131094729Y-58966552D01*
X131196186Y-59049814D01*
X131279448Y-59151271D01*
X131308778Y-59187009D01*
X131308779Y-59187011D01*
X131392443Y-59343533D01*
X131392443Y-59343534D01*
X131443963Y-59513373D01*
X131461359Y-59690000D01*
X131443963Y-59866627D01*
X131409616Y-59979853D01*
X131392443Y-60036467D01*
X131318348Y-60175087D01*
X131308778Y-60192991D01*
X131279448Y-60228729D01*
X131196186Y-60330186D01*
X131094729Y-60413448D01*
X131058991Y-60442778D01*
X131058989Y-60442779D01*
X130902467Y-60526443D01*
X130845853Y-60543616D01*
X130732627Y-60577963D01*
X130666443Y-60584481D01*
X130600260Y-60591000D01*
X130511740Y-60591000D01*
X130445557Y-60584481D01*
X130379373Y-60577963D01*
X130266147Y-60543616D01*
X130209533Y-60526443D01*
X130053011Y-60442779D01*
X130053009Y-60442778D01*
X130017271Y-60413448D01*
X129915814Y-60330186D01*
X129832552Y-60228729D01*
X129803222Y-60192991D01*
X129793652Y-60175087D01*
X129719557Y-60036467D01*
X129702384Y-59979853D01*
X129668037Y-59866627D01*
X129650641Y-59690000D01*
X129668037Y-59513373D01*
X129719557Y-59343534D01*
X129719557Y-59343533D01*
X129803221Y-59187011D01*
X129803222Y-59187009D01*
X129832552Y-59151271D01*
X129915814Y-59049814D01*
X130017271Y-58966552D01*
X130053009Y-58937222D01*
X130070913Y-58927652D01*
X130209533Y-58853557D01*
X130266147Y-58836384D01*
X130379373Y-58802037D01*
X130445557Y-58795519D01*
X130511740Y-58789000D01*
X130600260Y-58789000D01*
X130666443Y-58795519D01*
X130666443Y-58795519D01*
G37*
G36*
X128126443Y-58795519D02*
X128192627Y-58802037D01*
X128305853Y-58836384D01*
X128362467Y-58853557D01*
X128501087Y-58927652D01*
X128518991Y-58937222D01*
X128554729Y-58966552D01*
X128656186Y-59049814D01*
X128739448Y-59151271D01*
X128768778Y-59187009D01*
X128768779Y-59187011D01*
X128852443Y-59343533D01*
X128852443Y-59343534D01*
X128903963Y-59513373D01*
X128921359Y-59690000D01*
X128903963Y-59866627D01*
X128869616Y-59979853D01*
X128852443Y-60036467D01*
X128778348Y-60175087D01*
X128768778Y-60192991D01*
X128739448Y-60228729D01*
X128656186Y-60330186D01*
X128554729Y-60413448D01*
X128518991Y-60442778D01*
X128518989Y-60442779D01*
X128362467Y-60526443D01*
X128305853Y-60543616D01*
X128192627Y-60577963D01*
X128126443Y-60584481D01*
X128060260Y-60591000D01*
X127971740Y-60591000D01*
X127905557Y-60584481D01*
X127839373Y-60577963D01*
X127726147Y-60543616D01*
X127669533Y-60526443D01*
X127513011Y-60442779D01*
X127513009Y-60442778D01*
X127477271Y-60413448D01*
X127375814Y-60330186D01*
X127292552Y-60228729D01*
X127263222Y-60192991D01*
X127253652Y-60175087D01*
X127179557Y-60036467D01*
X127162384Y-59979853D01*
X127128037Y-59866627D01*
X127110641Y-59690000D01*
X127128037Y-59513373D01*
X127179557Y-59343534D01*
X127179557Y-59343533D01*
X127263221Y-59187011D01*
X127263222Y-59187009D01*
X127292552Y-59151271D01*
X127375814Y-59049814D01*
X127477271Y-58966552D01*
X127513009Y-58937222D01*
X127530913Y-58927652D01*
X127669533Y-58853557D01*
X127726147Y-58836384D01*
X127839373Y-58802037D01*
X127905557Y-58795519D01*
X127971740Y-58789000D01*
X128060260Y-58789000D01*
X128126443Y-58795519D01*
X128126443Y-58795519D01*
G37*
G36*
X125586443Y-58795519D02*
X125652627Y-58802037D01*
X125765853Y-58836384D01*
X125822467Y-58853557D01*
X125961087Y-58927652D01*
X125978991Y-58937222D01*
X126014729Y-58966552D01*
X126116186Y-59049814D01*
X126199448Y-59151271D01*
X126228778Y-59187009D01*
X126228779Y-59187011D01*
X126312443Y-59343533D01*
X126312443Y-59343534D01*
X126363963Y-59513373D01*
X126381359Y-59690000D01*
X126363963Y-59866627D01*
X126329616Y-59979853D01*
X126312443Y-60036467D01*
X126238348Y-60175087D01*
X126228778Y-60192991D01*
X126199448Y-60228729D01*
X126116186Y-60330186D01*
X126014729Y-60413448D01*
X125978991Y-60442778D01*
X125978989Y-60442779D01*
X125822467Y-60526443D01*
X125765853Y-60543616D01*
X125652627Y-60577963D01*
X125586443Y-60584481D01*
X125520260Y-60591000D01*
X125431740Y-60591000D01*
X125365557Y-60584481D01*
X125299373Y-60577963D01*
X125186147Y-60543616D01*
X125129533Y-60526443D01*
X124973011Y-60442779D01*
X124973009Y-60442778D01*
X124937271Y-60413448D01*
X124835814Y-60330186D01*
X124752552Y-60228729D01*
X124723222Y-60192991D01*
X124713652Y-60175087D01*
X124639557Y-60036467D01*
X124622384Y-59979853D01*
X124588037Y-59866627D01*
X124570641Y-59690000D01*
X124588037Y-59513373D01*
X124639557Y-59343534D01*
X124639557Y-59343533D01*
X124723221Y-59187011D01*
X124723222Y-59187009D01*
X124752552Y-59151271D01*
X124835814Y-59049814D01*
X124937271Y-58966552D01*
X124973009Y-58937222D01*
X124990913Y-58927652D01*
X125129533Y-58853557D01*
X125186147Y-58836384D01*
X125299373Y-58802037D01*
X125365557Y-58795519D01*
X125431740Y-58789000D01*
X125520260Y-58789000D01*
X125586443Y-58795519D01*
X125586443Y-58795519D01*
G37*
G36*
X133206443Y-58795519D02*
X133272627Y-58802037D01*
X133385853Y-58836384D01*
X133442467Y-58853557D01*
X133581087Y-58927652D01*
X133598991Y-58937222D01*
X133634729Y-58966552D01*
X133736186Y-59049814D01*
X133819448Y-59151271D01*
X133848778Y-59187009D01*
X133848779Y-59187011D01*
X133932443Y-59343533D01*
X133932443Y-59343534D01*
X133983963Y-59513373D01*
X134001359Y-59690000D01*
X133983963Y-59866627D01*
X133949616Y-59979853D01*
X133932443Y-60036467D01*
X133858348Y-60175087D01*
X133848778Y-60192991D01*
X133819448Y-60228729D01*
X133736186Y-60330186D01*
X133634729Y-60413448D01*
X133598991Y-60442778D01*
X133598989Y-60442779D01*
X133442467Y-60526443D01*
X133385853Y-60543616D01*
X133272627Y-60577963D01*
X133206443Y-60584481D01*
X133140260Y-60591000D01*
X133051740Y-60591000D01*
X132985557Y-60584481D01*
X132919373Y-60577963D01*
X132806147Y-60543616D01*
X132749533Y-60526443D01*
X132593011Y-60442779D01*
X132593009Y-60442778D01*
X132557271Y-60413448D01*
X132455814Y-60330186D01*
X132372552Y-60228729D01*
X132343222Y-60192991D01*
X132333652Y-60175087D01*
X132259557Y-60036467D01*
X132242384Y-59979853D01*
X132208037Y-59866627D01*
X132190641Y-59690000D01*
X132208037Y-59513373D01*
X132259557Y-59343534D01*
X132259557Y-59343533D01*
X132343221Y-59187011D01*
X132343222Y-59187009D01*
X132372552Y-59151271D01*
X132455814Y-59049814D01*
X132557271Y-58966552D01*
X132593009Y-58937222D01*
X132610913Y-58927652D01*
X132749533Y-58853557D01*
X132806147Y-58836384D01*
X132919373Y-58802037D01*
X132985557Y-58795519D01*
X133051740Y-58789000D01*
X133140260Y-58789000D01*
X133206443Y-58795519D01*
X133206443Y-58795519D01*
G37*
M02*
