G04 #@! TF.GenerationSoftware,KiCad,Pcbnew,(5.0.1)-4*
G04 #@! TF.CreationDate,2020-05-04T20:53:33+02:00*
G04 #@! TF.ProjectId,freqcounter,66726571636F756E7465722E6B696361,1*
G04 #@! TF.SameCoordinates,Original*
G04 #@! TF.FileFunction,Copper,L1,Top,Signal*
G04 #@! TF.FilePolarity,Positive*
%FSLAX46Y46*%
G04 Gerber Fmt 4.6, Leading zero omitted, Abs format (unit mm)*
G04 Created by KiCad (PCBNEW (5.0.1)-4) date 04/05/2020 20:53:33*
%MOMM*%
%LPD*%
G01*
G04 APERTURE LIST*
G04 #@! TA.AperFunction,Conductor*
%ADD10C,0.100000*%
G04 #@! TD*
G04 #@! TA.AperFunction,SMDPad,CuDef*
%ADD11C,1.150000*%
G04 #@! TD*
G04 #@! TA.AperFunction,SMDPad,CuDef*
%ADD12R,1.200000X1.600000*%
G04 #@! TD*
G04 #@! TA.AperFunction,SMDPad,CuDef*
%ADD13R,1.100000X1.400000*%
G04 #@! TD*
G04 #@! TA.AperFunction,ComponentPad*
%ADD14O,1.700000X1.700000*%
G04 #@! TD*
G04 #@! TA.AperFunction,SMDPad,CuDef*
%ADD15R,1.950000X0.600000*%
G04 #@! TD*
G04 #@! TA.AperFunction,ComponentPad*
%ADD16R,1.700000X1.700000*%
G04 #@! TD*
G04 #@! TA.AperFunction,SMDPad,CuDef*
%ADD17R,2.032000X1.270000*%
G04 #@! TD*
G04 #@! TA.AperFunction,ViaPad*
%ADD18C,0.800000*%
G04 #@! TD*
G04 #@! TA.AperFunction,ViaPad*
%ADD19C,0.914400*%
G04 #@! TD*
G04 #@! TA.AperFunction,Conductor*
%ADD20C,1.016000*%
G04 #@! TD*
G04 #@! TA.AperFunction,Conductor*
%ADD21C,0.508000*%
G04 #@! TD*
G04 #@! TA.AperFunction,Conductor*
%ADD22C,0.635000*%
G04 #@! TD*
G04 APERTURE END LIST*
D10*
G04 #@! TO.N,GND*
G04 #@! TO.C,C5*
G36*
X150599505Y-99631204D02*
X150623773Y-99634804D01*
X150647572Y-99640765D01*
X150670671Y-99649030D01*
X150692850Y-99659520D01*
X150713893Y-99672132D01*
X150733599Y-99686747D01*
X150751777Y-99703223D01*
X150768253Y-99721401D01*
X150782868Y-99741107D01*
X150795480Y-99762150D01*
X150805970Y-99784329D01*
X150814235Y-99807428D01*
X150820196Y-99831227D01*
X150823796Y-99855495D01*
X150825000Y-99879999D01*
X150825000Y-100780001D01*
X150823796Y-100804505D01*
X150820196Y-100828773D01*
X150814235Y-100852572D01*
X150805970Y-100875671D01*
X150795480Y-100897850D01*
X150782868Y-100918893D01*
X150768253Y-100938599D01*
X150751777Y-100956777D01*
X150733599Y-100973253D01*
X150713893Y-100987868D01*
X150692850Y-101000480D01*
X150670671Y-101010970D01*
X150647572Y-101019235D01*
X150623773Y-101025196D01*
X150599505Y-101028796D01*
X150575001Y-101030000D01*
X149924999Y-101030000D01*
X149900495Y-101028796D01*
X149876227Y-101025196D01*
X149852428Y-101019235D01*
X149829329Y-101010970D01*
X149807150Y-101000480D01*
X149786107Y-100987868D01*
X149766401Y-100973253D01*
X149748223Y-100956777D01*
X149731747Y-100938599D01*
X149717132Y-100918893D01*
X149704520Y-100897850D01*
X149694030Y-100875671D01*
X149685765Y-100852572D01*
X149679804Y-100828773D01*
X149676204Y-100804505D01*
X149675000Y-100780001D01*
X149675000Y-99879999D01*
X149676204Y-99855495D01*
X149679804Y-99831227D01*
X149685765Y-99807428D01*
X149694030Y-99784329D01*
X149704520Y-99762150D01*
X149717132Y-99741107D01*
X149731747Y-99721401D01*
X149748223Y-99703223D01*
X149766401Y-99686747D01*
X149786107Y-99672132D01*
X149807150Y-99659520D01*
X149829329Y-99649030D01*
X149852428Y-99640765D01*
X149876227Y-99634804D01*
X149900495Y-99631204D01*
X149924999Y-99630000D01*
X150575001Y-99630000D01*
X150599505Y-99631204D01*
X150599505Y-99631204D01*
G37*
D11*
G04 #@! TD*
G04 #@! TO.P,C5,1*
G04 #@! TO.N,GND*
X150250000Y-100330000D03*
D10*
G04 #@! TO.N,3.3V*
G04 #@! TO.C,C5*
G36*
X148549505Y-99631204D02*
X148573773Y-99634804D01*
X148597572Y-99640765D01*
X148620671Y-99649030D01*
X148642850Y-99659520D01*
X148663893Y-99672132D01*
X148683599Y-99686747D01*
X148701777Y-99703223D01*
X148718253Y-99721401D01*
X148732868Y-99741107D01*
X148745480Y-99762150D01*
X148755970Y-99784329D01*
X148764235Y-99807428D01*
X148770196Y-99831227D01*
X148773796Y-99855495D01*
X148775000Y-99879999D01*
X148775000Y-100780001D01*
X148773796Y-100804505D01*
X148770196Y-100828773D01*
X148764235Y-100852572D01*
X148755970Y-100875671D01*
X148745480Y-100897850D01*
X148732868Y-100918893D01*
X148718253Y-100938599D01*
X148701777Y-100956777D01*
X148683599Y-100973253D01*
X148663893Y-100987868D01*
X148642850Y-101000480D01*
X148620671Y-101010970D01*
X148597572Y-101019235D01*
X148573773Y-101025196D01*
X148549505Y-101028796D01*
X148525001Y-101030000D01*
X147874999Y-101030000D01*
X147850495Y-101028796D01*
X147826227Y-101025196D01*
X147802428Y-101019235D01*
X147779329Y-101010970D01*
X147757150Y-101000480D01*
X147736107Y-100987868D01*
X147716401Y-100973253D01*
X147698223Y-100956777D01*
X147681747Y-100938599D01*
X147667132Y-100918893D01*
X147654520Y-100897850D01*
X147644030Y-100875671D01*
X147635765Y-100852572D01*
X147629804Y-100828773D01*
X147626204Y-100804505D01*
X147625000Y-100780001D01*
X147625000Y-99879999D01*
X147626204Y-99855495D01*
X147629804Y-99831227D01*
X147635765Y-99807428D01*
X147644030Y-99784329D01*
X147654520Y-99762150D01*
X147667132Y-99741107D01*
X147681747Y-99721401D01*
X147698223Y-99703223D01*
X147716401Y-99686747D01*
X147736107Y-99672132D01*
X147757150Y-99659520D01*
X147779329Y-99649030D01*
X147802428Y-99640765D01*
X147826227Y-99634804D01*
X147850495Y-99631204D01*
X147874999Y-99630000D01*
X148525001Y-99630000D01*
X148549505Y-99631204D01*
X148549505Y-99631204D01*
G37*
D11*
G04 #@! TD*
G04 #@! TO.P,C5,2*
G04 #@! TO.N,3.3V*
X148200000Y-100330000D03*
D12*
G04 #@! TO.P,U2,3*
G04 #@! TO.N,Net-(C4-Pad1)*
X147825000Y-93885000D03*
G04 #@! TO.P,U2,4*
G04 #@! TO.N,3.3V*
X147825000Y-97885000D03*
G04 #@! TO.P,U2,1*
G04 #@! TO.N,GND*
X150625000Y-97885000D03*
G04 #@! TO.P,U2,2*
X150625000Y-93885000D03*
D13*
G04 #@! TO.P,U2,4*
G04 #@! TO.N,3.3V*
X148375000Y-96985000D03*
G04 #@! TO.P,U2,3*
G04 #@! TO.N,Net-(C4-Pad1)*
X148375000Y-94785000D03*
G04 #@! TO.P,U2,2*
G04 #@! TO.N,GND*
X150075000Y-94785000D03*
G04 #@! TO.P,U2,1*
X150075000Y-96985000D03*
G04 #@! TD*
D10*
G04 #@! TO.N,Net-(C3-Pad1)*
G04 #@! TO.C,R4*
G36*
X152239505Y-80461204D02*
X152263773Y-80464804D01*
X152287572Y-80470765D01*
X152310671Y-80479030D01*
X152332850Y-80489520D01*
X152353893Y-80502132D01*
X152373599Y-80516747D01*
X152391777Y-80533223D01*
X152408253Y-80551401D01*
X152422868Y-80571107D01*
X152435480Y-80592150D01*
X152445970Y-80614329D01*
X152454235Y-80637428D01*
X152460196Y-80661227D01*
X152463796Y-80685495D01*
X152465000Y-80709999D01*
X152465000Y-81360001D01*
X152463796Y-81384505D01*
X152460196Y-81408773D01*
X152454235Y-81432572D01*
X152445970Y-81455671D01*
X152435480Y-81477850D01*
X152422868Y-81498893D01*
X152408253Y-81518599D01*
X152391777Y-81536777D01*
X152373599Y-81553253D01*
X152353893Y-81567868D01*
X152332850Y-81580480D01*
X152310671Y-81590970D01*
X152287572Y-81599235D01*
X152263773Y-81605196D01*
X152239505Y-81608796D01*
X152215001Y-81610000D01*
X151314999Y-81610000D01*
X151290495Y-81608796D01*
X151266227Y-81605196D01*
X151242428Y-81599235D01*
X151219329Y-81590970D01*
X151197150Y-81580480D01*
X151176107Y-81567868D01*
X151156401Y-81553253D01*
X151138223Y-81536777D01*
X151121747Y-81518599D01*
X151107132Y-81498893D01*
X151094520Y-81477850D01*
X151084030Y-81455671D01*
X151075765Y-81432572D01*
X151069804Y-81408773D01*
X151066204Y-81384505D01*
X151065000Y-81360001D01*
X151065000Y-80709999D01*
X151066204Y-80685495D01*
X151069804Y-80661227D01*
X151075765Y-80637428D01*
X151084030Y-80614329D01*
X151094520Y-80592150D01*
X151107132Y-80571107D01*
X151121747Y-80551401D01*
X151138223Y-80533223D01*
X151156401Y-80516747D01*
X151176107Y-80502132D01*
X151197150Y-80489520D01*
X151219329Y-80479030D01*
X151242428Y-80470765D01*
X151266227Y-80464804D01*
X151290495Y-80461204D01*
X151314999Y-80460000D01*
X152215001Y-80460000D01*
X152239505Y-80461204D01*
X152239505Y-80461204D01*
G37*
D11*
G04 #@! TD*
G04 #@! TO.P,R4,2*
G04 #@! TO.N,Net-(C3-Pad1)*
X151765000Y-81035000D03*
D10*
G04 #@! TO.N,Net-(D1-Pad2)*
G04 #@! TO.C,R4*
G36*
X152239505Y-78411204D02*
X152263773Y-78414804D01*
X152287572Y-78420765D01*
X152310671Y-78429030D01*
X152332850Y-78439520D01*
X152353893Y-78452132D01*
X152373599Y-78466747D01*
X152391777Y-78483223D01*
X152408253Y-78501401D01*
X152422868Y-78521107D01*
X152435480Y-78542150D01*
X152445970Y-78564329D01*
X152454235Y-78587428D01*
X152460196Y-78611227D01*
X152463796Y-78635495D01*
X152465000Y-78659999D01*
X152465000Y-79310001D01*
X152463796Y-79334505D01*
X152460196Y-79358773D01*
X152454235Y-79382572D01*
X152445970Y-79405671D01*
X152435480Y-79427850D01*
X152422868Y-79448893D01*
X152408253Y-79468599D01*
X152391777Y-79486777D01*
X152373599Y-79503253D01*
X152353893Y-79517868D01*
X152332850Y-79530480D01*
X152310671Y-79540970D01*
X152287572Y-79549235D01*
X152263773Y-79555196D01*
X152239505Y-79558796D01*
X152215001Y-79560000D01*
X151314999Y-79560000D01*
X151290495Y-79558796D01*
X151266227Y-79555196D01*
X151242428Y-79549235D01*
X151219329Y-79540970D01*
X151197150Y-79530480D01*
X151176107Y-79517868D01*
X151156401Y-79503253D01*
X151138223Y-79486777D01*
X151121747Y-79468599D01*
X151107132Y-79448893D01*
X151094520Y-79427850D01*
X151084030Y-79405671D01*
X151075765Y-79382572D01*
X151069804Y-79358773D01*
X151066204Y-79334505D01*
X151065000Y-79310001D01*
X151065000Y-78659999D01*
X151066204Y-78635495D01*
X151069804Y-78611227D01*
X151075765Y-78587428D01*
X151084030Y-78564329D01*
X151094520Y-78542150D01*
X151107132Y-78521107D01*
X151121747Y-78501401D01*
X151138223Y-78483223D01*
X151156401Y-78466747D01*
X151176107Y-78452132D01*
X151197150Y-78439520D01*
X151219329Y-78429030D01*
X151242428Y-78420765D01*
X151266227Y-78414804D01*
X151290495Y-78411204D01*
X151314999Y-78410000D01*
X152215001Y-78410000D01*
X152239505Y-78411204D01*
X152239505Y-78411204D01*
G37*
D11*
G04 #@! TD*
G04 #@! TO.P,R4,1*
G04 #@! TO.N,Net-(D1-Pad2)*
X151765000Y-78985000D03*
D14*
G04 #@! TO.P,J1,1*
G04 #@! TO.N,MCLR*
X124460000Y-90170000D03*
G04 #@! TO.P,J1,2*
G04 #@! TO.N,5V*
X124460000Y-92710000D03*
G04 #@! TO.P,J1,3*
G04 #@! TO.N,GND*
X124460000Y-95250000D03*
G04 #@! TO.P,J1,4*
G04 #@! TO.N,D7*
X124460000Y-97790000D03*
G04 #@! TO.P,J1,5*
G04 #@! TO.N,D6*
X124460000Y-100330000D03*
G04 #@! TD*
G04 #@! TO.P,J15,8*
G04 #@! TO.N,GND*
X124460000Y-67310000D03*
G04 #@! TO.P,J15,7*
G04 #@! TO.N,RS*
X124460000Y-69850000D03*
G04 #@! TO.P,J15,6*
G04 #@! TO.N,E*
X124460000Y-72390000D03*
G04 #@! TO.P,J15,5*
G04 #@! TO.N,D4*
X124460000Y-74930000D03*
G04 #@! TO.P,J15,4*
G04 #@! TO.N,D5*
X124460000Y-77470000D03*
G04 #@! TO.P,J15,3*
G04 #@! TO.N,D6*
X124460000Y-80010000D03*
G04 #@! TO.P,J15,2*
G04 #@! TO.N,D7*
X124460000Y-82550000D03*
G04 #@! TO.P,J15,1*
G04 #@! TO.N,5V*
X124460000Y-85090000D03*
G04 #@! TD*
G04 #@! TO.P,J3,6*
G04 #@! TO.N,Vin*
X144780000Y-105410000D03*
G04 #@! TO.P,J3,5*
G04 #@! TO.N,GND*
X142240000Y-105410000D03*
G04 #@! TO.P,J3,4*
X139700000Y-105410000D03*
G04 #@! TO.P,J3,3*
G04 #@! TO.N,5V*
X137160000Y-105410000D03*
G04 #@! TO.P,J3,2*
G04 #@! TO.N,3.3V*
X134620000Y-105410000D03*
G04 #@! TO.P,J3,1*
G04 #@! TO.N,Reset*
X132080000Y-105410000D03*
G04 #@! TD*
G04 #@! TO.P,J9,8*
G04 #@! TO.N,ARD_RX*
X162560000Y-59690000D03*
G04 #@! TO.P,J9,7*
G04 #@! TO.N,ARD_TX*
X160020000Y-59690000D03*
G04 #@! TO.P,J9,6*
G04 #@! TO.N,Net-(J8-Pad6)*
X157480000Y-59690000D03*
G04 #@! TO.P,J9,5*
G04 #@! TO.N,Net-(J8-Pad5)*
X154940000Y-59690000D03*
G04 #@! TO.P,J9,4*
G04 #@! TO.N,Net-(J8-Pad4)*
X152400000Y-59690000D03*
G04 #@! TO.P,J9,3*
G04 #@! TO.N,Net-(J8-Pad3)*
X149860000Y-59690000D03*
G04 #@! TO.P,J9,2*
G04 #@! TO.N,Net-(J8-Pad2)*
X147320000Y-59690000D03*
G04 #@! TO.P,J9,1*
G04 #@! TO.N,Net-(J8-Pad1)*
X144780000Y-59690000D03*
G04 #@! TD*
G04 #@! TO.P,J4,8*
G04 #@! TO.N,Net-(J4-Pad8)*
X140716000Y-59690000D03*
G04 #@! TO.P,J4,7*
G04 #@! TO.N,Net-(J4-Pad7)*
X138176000Y-59690000D03*
G04 #@! TO.P,J4,6*
G04 #@! TO.N,Net-(J4-Pad6)*
X135636000Y-59690000D03*
G04 #@! TO.P,J4,5*
G04 #@! TO.N,Net-(J4-Pad5)*
X133096000Y-59690000D03*
G04 #@! TO.P,J4,4*
G04 #@! TO.N,Net-(J4-Pad4)*
X130556000Y-59690000D03*
G04 #@! TO.P,J4,3*
G04 #@! TO.N,Net-(J4-Pad3)*
X128016000Y-59690000D03*
G04 #@! TO.P,J4,2*
G04 #@! TO.N,GND*
X125476000Y-59690000D03*
G04 #@! TO.P,J4,1*
G04 #@! TO.N,Net-(J4-Pad1)*
X122936000Y-59690000D03*
G04 #@! TD*
G04 #@! TO.P,J2,6*
G04 #@! TO.N,Vin*
X144780000Y-107950000D03*
G04 #@! TO.P,J2,5*
G04 #@! TO.N,GND*
X142240000Y-107950000D03*
G04 #@! TO.P,J2,4*
X139700000Y-107950000D03*
G04 #@! TO.P,J2,3*
G04 #@! TO.N,5V*
X137160000Y-107950000D03*
G04 #@! TO.P,J2,2*
G04 #@! TO.N,3.3V*
X134620000Y-107950000D03*
G04 #@! TO.P,J2,1*
G04 #@! TO.N,Reset*
X132080000Y-107950000D03*
G04 #@! TD*
G04 #@! TO.P,J7,1*
G04 #@! TO.N,Net-(J6-Pad1)*
X149860000Y-107950000D03*
G04 #@! TO.P,J7,2*
G04 #@! TO.N,Net-(J6-Pad2)*
X152400000Y-107950000D03*
G04 #@! TO.P,J7,3*
G04 #@! TO.N,Net-(J6-Pad3)*
X154940000Y-107950000D03*
G04 #@! TO.P,J7,4*
G04 #@! TO.N,Net-(J6-Pad4)*
X157480000Y-107950000D03*
G04 #@! TO.P,J7,5*
G04 #@! TO.N,SDA*
X160020000Y-107950000D03*
G04 #@! TO.P,J7,6*
G04 #@! TO.N,SCL*
X162560000Y-107950000D03*
G04 #@! TD*
D15*
G04 #@! TO.P,U1,1*
G04 #@! TO.N,5V*
X143130000Y-86995000D03*
G04 #@! TO.P,U1,2*
G04 #@! TO.N,32MHz*
X143130000Y-85725000D03*
G04 #@! TO.P,U1,3*
G04 #@! TO.N,Net-(U1-Pad3)*
X143130000Y-84455000D03*
G04 #@! TO.P,U1,4*
G04 #@! TO.N,MCLR*
X143130000Y-83185000D03*
G04 #@! TO.P,U1,5*
G04 #@! TO.N,Net-(R8-Pad1)*
X143130000Y-81915000D03*
G04 #@! TO.P,U1,6*
G04 #@! TO.N,Net-(R9-Pad1)*
X143130000Y-80645000D03*
G04 #@! TO.P,U1,7*
G04 #@! TO.N,Net-(C3-Pad1)*
X143130000Y-79375000D03*
G04 #@! TO.P,U1,8*
G04 #@! TO.N,Net-(R3-Pad1)*
X143130000Y-78105000D03*
G04 #@! TO.P,U1,9*
G04 #@! TO.N,SDA*
X143130000Y-76835000D03*
G04 #@! TO.P,U1,10*
G04 #@! TO.N,SCL*
X143130000Y-75565000D03*
G04 #@! TO.P,U1,11*
G04 #@! TO.N,Net-(R7-Pad2)*
X133730000Y-75565000D03*
G04 #@! TO.P,U1,12*
G04 #@! TO.N,Net-(R2-Pad2)*
X133730000Y-76835000D03*
G04 #@! TO.P,U1,13*
G04 #@! TO.N,RS*
X133730000Y-78105000D03*
G04 #@! TO.P,U1,14*
G04 #@! TO.N,E*
X133730000Y-79375000D03*
G04 #@! TO.P,U1,15*
G04 #@! TO.N,D4*
X133730000Y-80645000D03*
G04 #@! TO.P,U1,16*
G04 #@! TO.N,D5*
X133730000Y-81915000D03*
G04 #@! TO.P,U1,17*
G04 #@! TO.N,Net-(R1-Pad2)*
X133730000Y-83185000D03*
G04 #@! TO.P,U1,18*
G04 #@! TO.N,D6*
X133730000Y-84455000D03*
G04 #@! TO.P,U1,19*
G04 #@! TO.N,D7*
X133730000Y-85725000D03*
G04 #@! TO.P,U1,20*
G04 #@! TO.N,GND*
X133730000Y-86995000D03*
G04 #@! TD*
D10*
G04 #@! TO.N,GND*
G04 #@! TO.C,C1*
G36*
X137754505Y-90741204D02*
X137778773Y-90744804D01*
X137802572Y-90750765D01*
X137825671Y-90759030D01*
X137847850Y-90769520D01*
X137868893Y-90782132D01*
X137888599Y-90796747D01*
X137906777Y-90813223D01*
X137923253Y-90831401D01*
X137937868Y-90851107D01*
X137950480Y-90872150D01*
X137960970Y-90894329D01*
X137969235Y-90917428D01*
X137975196Y-90941227D01*
X137978796Y-90965495D01*
X137980000Y-90989999D01*
X137980000Y-91890001D01*
X137978796Y-91914505D01*
X137975196Y-91938773D01*
X137969235Y-91962572D01*
X137960970Y-91985671D01*
X137950480Y-92007850D01*
X137937868Y-92028893D01*
X137923253Y-92048599D01*
X137906777Y-92066777D01*
X137888599Y-92083253D01*
X137868893Y-92097868D01*
X137847850Y-92110480D01*
X137825671Y-92120970D01*
X137802572Y-92129235D01*
X137778773Y-92135196D01*
X137754505Y-92138796D01*
X137730001Y-92140000D01*
X137079999Y-92140000D01*
X137055495Y-92138796D01*
X137031227Y-92135196D01*
X137007428Y-92129235D01*
X136984329Y-92120970D01*
X136962150Y-92110480D01*
X136941107Y-92097868D01*
X136921401Y-92083253D01*
X136903223Y-92066777D01*
X136886747Y-92048599D01*
X136872132Y-92028893D01*
X136859520Y-92007850D01*
X136849030Y-91985671D01*
X136840765Y-91962572D01*
X136834804Y-91938773D01*
X136831204Y-91914505D01*
X136830000Y-91890001D01*
X136830000Y-90989999D01*
X136831204Y-90965495D01*
X136834804Y-90941227D01*
X136840765Y-90917428D01*
X136849030Y-90894329D01*
X136859520Y-90872150D01*
X136872132Y-90851107D01*
X136886747Y-90831401D01*
X136903223Y-90813223D01*
X136921401Y-90796747D01*
X136941107Y-90782132D01*
X136962150Y-90769520D01*
X136984329Y-90759030D01*
X137007428Y-90750765D01*
X137031227Y-90744804D01*
X137055495Y-90741204D01*
X137079999Y-90740000D01*
X137730001Y-90740000D01*
X137754505Y-90741204D01*
X137754505Y-90741204D01*
G37*
D11*
G04 #@! TD*
G04 #@! TO.P,C1,1*
G04 #@! TO.N,GND*
X137405000Y-91440000D03*
D10*
G04 #@! TO.N,5V*
G04 #@! TO.C,C1*
G36*
X139804505Y-90741204D02*
X139828773Y-90744804D01*
X139852572Y-90750765D01*
X139875671Y-90759030D01*
X139897850Y-90769520D01*
X139918893Y-90782132D01*
X139938599Y-90796747D01*
X139956777Y-90813223D01*
X139973253Y-90831401D01*
X139987868Y-90851107D01*
X140000480Y-90872150D01*
X140010970Y-90894329D01*
X140019235Y-90917428D01*
X140025196Y-90941227D01*
X140028796Y-90965495D01*
X140030000Y-90989999D01*
X140030000Y-91890001D01*
X140028796Y-91914505D01*
X140025196Y-91938773D01*
X140019235Y-91962572D01*
X140010970Y-91985671D01*
X140000480Y-92007850D01*
X139987868Y-92028893D01*
X139973253Y-92048599D01*
X139956777Y-92066777D01*
X139938599Y-92083253D01*
X139918893Y-92097868D01*
X139897850Y-92110480D01*
X139875671Y-92120970D01*
X139852572Y-92129235D01*
X139828773Y-92135196D01*
X139804505Y-92138796D01*
X139780001Y-92140000D01*
X139129999Y-92140000D01*
X139105495Y-92138796D01*
X139081227Y-92135196D01*
X139057428Y-92129235D01*
X139034329Y-92120970D01*
X139012150Y-92110480D01*
X138991107Y-92097868D01*
X138971401Y-92083253D01*
X138953223Y-92066777D01*
X138936747Y-92048599D01*
X138922132Y-92028893D01*
X138909520Y-92007850D01*
X138899030Y-91985671D01*
X138890765Y-91962572D01*
X138884804Y-91938773D01*
X138881204Y-91914505D01*
X138880000Y-91890001D01*
X138880000Y-90989999D01*
X138881204Y-90965495D01*
X138884804Y-90941227D01*
X138890765Y-90917428D01*
X138899030Y-90894329D01*
X138909520Y-90872150D01*
X138922132Y-90851107D01*
X138936747Y-90831401D01*
X138953223Y-90813223D01*
X138971401Y-90796747D01*
X138991107Y-90782132D01*
X139012150Y-90769520D01*
X139034329Y-90759030D01*
X139057428Y-90750765D01*
X139081227Y-90744804D01*
X139105495Y-90741204D01*
X139129999Y-90740000D01*
X139780001Y-90740000D01*
X139804505Y-90741204D01*
X139804505Y-90741204D01*
G37*
D11*
G04 #@! TD*
G04 #@! TO.P,C1,2*
G04 #@! TO.N,5V*
X139455000Y-91440000D03*
D10*
G04 #@! TO.N,GND*
G04 #@! TO.C,C2*
G36*
X137754505Y-88836204D02*
X137778773Y-88839804D01*
X137802572Y-88845765D01*
X137825671Y-88854030D01*
X137847850Y-88864520D01*
X137868893Y-88877132D01*
X137888599Y-88891747D01*
X137906777Y-88908223D01*
X137923253Y-88926401D01*
X137937868Y-88946107D01*
X137950480Y-88967150D01*
X137960970Y-88989329D01*
X137969235Y-89012428D01*
X137975196Y-89036227D01*
X137978796Y-89060495D01*
X137980000Y-89084999D01*
X137980000Y-89985001D01*
X137978796Y-90009505D01*
X137975196Y-90033773D01*
X137969235Y-90057572D01*
X137960970Y-90080671D01*
X137950480Y-90102850D01*
X137937868Y-90123893D01*
X137923253Y-90143599D01*
X137906777Y-90161777D01*
X137888599Y-90178253D01*
X137868893Y-90192868D01*
X137847850Y-90205480D01*
X137825671Y-90215970D01*
X137802572Y-90224235D01*
X137778773Y-90230196D01*
X137754505Y-90233796D01*
X137730001Y-90235000D01*
X137079999Y-90235000D01*
X137055495Y-90233796D01*
X137031227Y-90230196D01*
X137007428Y-90224235D01*
X136984329Y-90215970D01*
X136962150Y-90205480D01*
X136941107Y-90192868D01*
X136921401Y-90178253D01*
X136903223Y-90161777D01*
X136886747Y-90143599D01*
X136872132Y-90123893D01*
X136859520Y-90102850D01*
X136849030Y-90080671D01*
X136840765Y-90057572D01*
X136834804Y-90033773D01*
X136831204Y-90009505D01*
X136830000Y-89985001D01*
X136830000Y-89084999D01*
X136831204Y-89060495D01*
X136834804Y-89036227D01*
X136840765Y-89012428D01*
X136849030Y-88989329D01*
X136859520Y-88967150D01*
X136872132Y-88946107D01*
X136886747Y-88926401D01*
X136903223Y-88908223D01*
X136921401Y-88891747D01*
X136941107Y-88877132D01*
X136962150Y-88864520D01*
X136984329Y-88854030D01*
X137007428Y-88845765D01*
X137031227Y-88839804D01*
X137055495Y-88836204D01*
X137079999Y-88835000D01*
X137730001Y-88835000D01*
X137754505Y-88836204D01*
X137754505Y-88836204D01*
G37*
D11*
G04 #@! TD*
G04 #@! TO.P,C2,1*
G04 #@! TO.N,GND*
X137405000Y-89535000D03*
D10*
G04 #@! TO.N,5V*
G04 #@! TO.C,C2*
G36*
X139804505Y-88836204D02*
X139828773Y-88839804D01*
X139852572Y-88845765D01*
X139875671Y-88854030D01*
X139897850Y-88864520D01*
X139918893Y-88877132D01*
X139938599Y-88891747D01*
X139956777Y-88908223D01*
X139973253Y-88926401D01*
X139987868Y-88946107D01*
X140000480Y-88967150D01*
X140010970Y-88989329D01*
X140019235Y-89012428D01*
X140025196Y-89036227D01*
X140028796Y-89060495D01*
X140030000Y-89084999D01*
X140030000Y-89985001D01*
X140028796Y-90009505D01*
X140025196Y-90033773D01*
X140019235Y-90057572D01*
X140010970Y-90080671D01*
X140000480Y-90102850D01*
X139987868Y-90123893D01*
X139973253Y-90143599D01*
X139956777Y-90161777D01*
X139938599Y-90178253D01*
X139918893Y-90192868D01*
X139897850Y-90205480D01*
X139875671Y-90215970D01*
X139852572Y-90224235D01*
X139828773Y-90230196D01*
X139804505Y-90233796D01*
X139780001Y-90235000D01*
X139129999Y-90235000D01*
X139105495Y-90233796D01*
X139081227Y-90230196D01*
X139057428Y-90224235D01*
X139034329Y-90215970D01*
X139012150Y-90205480D01*
X138991107Y-90192868D01*
X138971401Y-90178253D01*
X138953223Y-90161777D01*
X138936747Y-90143599D01*
X138922132Y-90123893D01*
X138909520Y-90102850D01*
X138899030Y-90080671D01*
X138890765Y-90057572D01*
X138884804Y-90033773D01*
X138881204Y-90009505D01*
X138880000Y-89985001D01*
X138880000Y-89084999D01*
X138881204Y-89060495D01*
X138884804Y-89036227D01*
X138890765Y-89012428D01*
X138899030Y-88989329D01*
X138909520Y-88967150D01*
X138922132Y-88946107D01*
X138936747Y-88926401D01*
X138953223Y-88908223D01*
X138971401Y-88891747D01*
X138991107Y-88877132D01*
X139012150Y-88864520D01*
X139034329Y-88854030D01*
X139057428Y-88845765D01*
X139081227Y-88839804D01*
X139105495Y-88836204D01*
X139129999Y-88835000D01*
X139780001Y-88835000D01*
X139804505Y-88836204D01*
X139804505Y-88836204D01*
G37*
D11*
G04 #@! TD*
G04 #@! TO.P,C2,2*
G04 #@! TO.N,5V*
X139455000Y-89535000D03*
D10*
G04 #@! TO.N,GND*
G04 #@! TO.C,C3*
G36*
X154779505Y-80461204D02*
X154803773Y-80464804D01*
X154827572Y-80470765D01*
X154850671Y-80479030D01*
X154872850Y-80489520D01*
X154893893Y-80502132D01*
X154913599Y-80516747D01*
X154931777Y-80533223D01*
X154948253Y-80551401D01*
X154962868Y-80571107D01*
X154975480Y-80592150D01*
X154985970Y-80614329D01*
X154994235Y-80637428D01*
X155000196Y-80661227D01*
X155003796Y-80685495D01*
X155005000Y-80709999D01*
X155005000Y-81360001D01*
X155003796Y-81384505D01*
X155000196Y-81408773D01*
X154994235Y-81432572D01*
X154985970Y-81455671D01*
X154975480Y-81477850D01*
X154962868Y-81498893D01*
X154948253Y-81518599D01*
X154931777Y-81536777D01*
X154913599Y-81553253D01*
X154893893Y-81567868D01*
X154872850Y-81580480D01*
X154850671Y-81590970D01*
X154827572Y-81599235D01*
X154803773Y-81605196D01*
X154779505Y-81608796D01*
X154755001Y-81610000D01*
X153854999Y-81610000D01*
X153830495Y-81608796D01*
X153806227Y-81605196D01*
X153782428Y-81599235D01*
X153759329Y-81590970D01*
X153737150Y-81580480D01*
X153716107Y-81567868D01*
X153696401Y-81553253D01*
X153678223Y-81536777D01*
X153661747Y-81518599D01*
X153647132Y-81498893D01*
X153634520Y-81477850D01*
X153624030Y-81455671D01*
X153615765Y-81432572D01*
X153609804Y-81408773D01*
X153606204Y-81384505D01*
X153605000Y-81360001D01*
X153605000Y-80709999D01*
X153606204Y-80685495D01*
X153609804Y-80661227D01*
X153615765Y-80637428D01*
X153624030Y-80614329D01*
X153634520Y-80592150D01*
X153647132Y-80571107D01*
X153661747Y-80551401D01*
X153678223Y-80533223D01*
X153696401Y-80516747D01*
X153716107Y-80502132D01*
X153737150Y-80489520D01*
X153759329Y-80479030D01*
X153782428Y-80470765D01*
X153806227Y-80464804D01*
X153830495Y-80461204D01*
X153854999Y-80460000D01*
X154755001Y-80460000D01*
X154779505Y-80461204D01*
X154779505Y-80461204D01*
G37*
D11*
G04 #@! TD*
G04 #@! TO.P,C3,2*
G04 #@! TO.N,GND*
X154305000Y-81035000D03*
D10*
G04 #@! TO.N,Net-(C3-Pad1)*
G04 #@! TO.C,C3*
G36*
X154779505Y-78411204D02*
X154803773Y-78414804D01*
X154827572Y-78420765D01*
X154850671Y-78429030D01*
X154872850Y-78439520D01*
X154893893Y-78452132D01*
X154913599Y-78466747D01*
X154931777Y-78483223D01*
X154948253Y-78501401D01*
X154962868Y-78521107D01*
X154975480Y-78542150D01*
X154985970Y-78564329D01*
X154994235Y-78587428D01*
X155000196Y-78611227D01*
X155003796Y-78635495D01*
X155005000Y-78659999D01*
X155005000Y-79310001D01*
X155003796Y-79334505D01*
X155000196Y-79358773D01*
X154994235Y-79382572D01*
X154985970Y-79405671D01*
X154975480Y-79427850D01*
X154962868Y-79448893D01*
X154948253Y-79468599D01*
X154931777Y-79486777D01*
X154913599Y-79503253D01*
X154893893Y-79517868D01*
X154872850Y-79530480D01*
X154850671Y-79540970D01*
X154827572Y-79549235D01*
X154803773Y-79555196D01*
X154779505Y-79558796D01*
X154755001Y-79560000D01*
X153854999Y-79560000D01*
X153830495Y-79558796D01*
X153806227Y-79555196D01*
X153782428Y-79549235D01*
X153759329Y-79540970D01*
X153737150Y-79530480D01*
X153716107Y-79517868D01*
X153696401Y-79503253D01*
X153678223Y-79486777D01*
X153661747Y-79468599D01*
X153647132Y-79448893D01*
X153634520Y-79427850D01*
X153624030Y-79405671D01*
X153615765Y-79382572D01*
X153609804Y-79358773D01*
X153606204Y-79334505D01*
X153605000Y-79310001D01*
X153605000Y-78659999D01*
X153606204Y-78635495D01*
X153609804Y-78611227D01*
X153615765Y-78587428D01*
X153624030Y-78564329D01*
X153634520Y-78542150D01*
X153647132Y-78521107D01*
X153661747Y-78501401D01*
X153678223Y-78483223D01*
X153696401Y-78466747D01*
X153716107Y-78452132D01*
X153737150Y-78439520D01*
X153759329Y-78429030D01*
X153782428Y-78420765D01*
X153806227Y-78414804D01*
X153830495Y-78411204D01*
X153854999Y-78410000D01*
X154755001Y-78410000D01*
X154779505Y-78411204D01*
X154779505Y-78411204D01*
G37*
D11*
G04 #@! TD*
G04 #@! TO.P,C3,1*
G04 #@! TO.N,Net-(C3-Pad1)*
X154305000Y-78985000D03*
D10*
G04 #@! TO.N,Net-(C4-Pad2)*
G04 #@! TO.C,C4*
G36*
X145889505Y-93261204D02*
X145913773Y-93264804D01*
X145937572Y-93270765D01*
X145960671Y-93279030D01*
X145982850Y-93289520D01*
X146003893Y-93302132D01*
X146023599Y-93316747D01*
X146041777Y-93333223D01*
X146058253Y-93351401D01*
X146072868Y-93371107D01*
X146085480Y-93392150D01*
X146095970Y-93414329D01*
X146104235Y-93437428D01*
X146110196Y-93461227D01*
X146113796Y-93485495D01*
X146115000Y-93509999D01*
X146115000Y-94160001D01*
X146113796Y-94184505D01*
X146110196Y-94208773D01*
X146104235Y-94232572D01*
X146095970Y-94255671D01*
X146085480Y-94277850D01*
X146072868Y-94298893D01*
X146058253Y-94318599D01*
X146041777Y-94336777D01*
X146023599Y-94353253D01*
X146003893Y-94367868D01*
X145982850Y-94380480D01*
X145960671Y-94390970D01*
X145937572Y-94399235D01*
X145913773Y-94405196D01*
X145889505Y-94408796D01*
X145865001Y-94410000D01*
X144964999Y-94410000D01*
X144940495Y-94408796D01*
X144916227Y-94405196D01*
X144892428Y-94399235D01*
X144869329Y-94390970D01*
X144847150Y-94380480D01*
X144826107Y-94367868D01*
X144806401Y-94353253D01*
X144788223Y-94336777D01*
X144771747Y-94318599D01*
X144757132Y-94298893D01*
X144744520Y-94277850D01*
X144734030Y-94255671D01*
X144725765Y-94232572D01*
X144719804Y-94208773D01*
X144716204Y-94184505D01*
X144715000Y-94160001D01*
X144715000Y-93509999D01*
X144716204Y-93485495D01*
X144719804Y-93461227D01*
X144725765Y-93437428D01*
X144734030Y-93414329D01*
X144744520Y-93392150D01*
X144757132Y-93371107D01*
X144771747Y-93351401D01*
X144788223Y-93333223D01*
X144806401Y-93316747D01*
X144826107Y-93302132D01*
X144847150Y-93289520D01*
X144869329Y-93279030D01*
X144892428Y-93270765D01*
X144916227Y-93264804D01*
X144940495Y-93261204D01*
X144964999Y-93260000D01*
X145865001Y-93260000D01*
X145889505Y-93261204D01*
X145889505Y-93261204D01*
G37*
D11*
G04 #@! TD*
G04 #@! TO.P,C4,2*
G04 #@! TO.N,Net-(C4-Pad2)*
X145415000Y-93835000D03*
D10*
G04 #@! TO.N,Net-(C4-Pad1)*
G04 #@! TO.C,C4*
G36*
X145889505Y-95311204D02*
X145913773Y-95314804D01*
X145937572Y-95320765D01*
X145960671Y-95329030D01*
X145982850Y-95339520D01*
X146003893Y-95352132D01*
X146023599Y-95366747D01*
X146041777Y-95383223D01*
X146058253Y-95401401D01*
X146072868Y-95421107D01*
X146085480Y-95442150D01*
X146095970Y-95464329D01*
X146104235Y-95487428D01*
X146110196Y-95511227D01*
X146113796Y-95535495D01*
X146115000Y-95559999D01*
X146115000Y-96210001D01*
X146113796Y-96234505D01*
X146110196Y-96258773D01*
X146104235Y-96282572D01*
X146095970Y-96305671D01*
X146085480Y-96327850D01*
X146072868Y-96348893D01*
X146058253Y-96368599D01*
X146041777Y-96386777D01*
X146023599Y-96403253D01*
X146003893Y-96417868D01*
X145982850Y-96430480D01*
X145960671Y-96440970D01*
X145937572Y-96449235D01*
X145913773Y-96455196D01*
X145889505Y-96458796D01*
X145865001Y-96460000D01*
X144964999Y-96460000D01*
X144940495Y-96458796D01*
X144916227Y-96455196D01*
X144892428Y-96449235D01*
X144869329Y-96440970D01*
X144847150Y-96430480D01*
X144826107Y-96417868D01*
X144806401Y-96403253D01*
X144788223Y-96386777D01*
X144771747Y-96368599D01*
X144757132Y-96348893D01*
X144744520Y-96327850D01*
X144734030Y-96305671D01*
X144725765Y-96282572D01*
X144719804Y-96258773D01*
X144716204Y-96234505D01*
X144715000Y-96210001D01*
X144715000Y-95559999D01*
X144716204Y-95535495D01*
X144719804Y-95511227D01*
X144725765Y-95487428D01*
X144734030Y-95464329D01*
X144744520Y-95442150D01*
X144757132Y-95421107D01*
X144771747Y-95401401D01*
X144788223Y-95383223D01*
X144806401Y-95366747D01*
X144826107Y-95352132D01*
X144847150Y-95339520D01*
X144869329Y-95329030D01*
X144892428Y-95320765D01*
X144916227Y-95314804D01*
X144940495Y-95311204D01*
X144964999Y-95310000D01*
X145865001Y-95310000D01*
X145889505Y-95311204D01*
X145889505Y-95311204D01*
G37*
D11*
G04 #@! TD*
G04 #@! TO.P,C4,1*
G04 #@! TO.N,Net-(C4-Pad1)*
X145415000Y-95885000D03*
D16*
G04 #@! TO.P,J10,1*
G04 #@! TO.N,INPUT_A*
X160020000Y-97790000D03*
D14*
G04 #@! TO.P,J10,2*
G04 #@! TO.N,GND*
X160020000Y-100330000D03*
G04 #@! TD*
G04 #@! TO.P,J11,2*
G04 #@! TO.N,GND*
X160020000Y-92710000D03*
D16*
G04 #@! TO.P,J11,1*
G04 #@! TO.N,INPUT_B*
X160020000Y-90170000D03*
G04 #@! TD*
G04 #@! TO.P,J12,1*
G04 #@! TO.N,INPUT_ZCD*
X160020000Y-82550000D03*
D14*
G04 #@! TO.P,J12,2*
G04 #@! TO.N,GND*
X160020000Y-85090000D03*
G04 #@! TD*
D16*
G04 #@! TO.P,J13,1*
G04 #@! TO.N,SCL*
X160020000Y-67310000D03*
D14*
G04 #@! TO.P,J13,2*
G04 #@! TO.N,SDA*
X160020000Y-69850000D03*
G04 #@! TO.P,J13,3*
G04 #@! TO.N,5V*
X160020000Y-72390000D03*
G04 #@! TO.P,J13,4*
G04 #@! TO.N,GND*
X160020000Y-74930000D03*
G04 #@! TD*
G04 #@! TO.P,J14,4*
G04 #@! TO.N,GND*
X152400000Y-74930000D03*
G04 #@! TO.P,J14,3*
G04 #@! TO.N,5V*
X152400000Y-72390000D03*
G04 #@! TO.P,J14,2*
G04 #@! TO.N,SDA*
X152400000Y-69850000D03*
D16*
G04 #@! TO.P,J14,1*
G04 #@! TO.N,SCL*
X152400000Y-67310000D03*
G04 #@! TD*
D10*
G04 #@! TO.N,Net-(R1-Pad2)*
G04 #@! TO.C,R1*
G36*
X159344505Y-78041204D02*
X159368773Y-78044804D01*
X159392572Y-78050765D01*
X159415671Y-78059030D01*
X159437850Y-78069520D01*
X159458893Y-78082132D01*
X159478599Y-78096747D01*
X159496777Y-78113223D01*
X159513253Y-78131401D01*
X159527868Y-78151107D01*
X159540480Y-78172150D01*
X159550970Y-78194329D01*
X159559235Y-78217428D01*
X159565196Y-78241227D01*
X159568796Y-78265495D01*
X159570000Y-78289999D01*
X159570000Y-79190001D01*
X159568796Y-79214505D01*
X159565196Y-79238773D01*
X159559235Y-79262572D01*
X159550970Y-79285671D01*
X159540480Y-79307850D01*
X159527868Y-79328893D01*
X159513253Y-79348599D01*
X159496777Y-79366777D01*
X159478599Y-79383253D01*
X159458893Y-79397868D01*
X159437850Y-79410480D01*
X159415671Y-79420970D01*
X159392572Y-79429235D01*
X159368773Y-79435196D01*
X159344505Y-79438796D01*
X159320001Y-79440000D01*
X158669999Y-79440000D01*
X158645495Y-79438796D01*
X158621227Y-79435196D01*
X158597428Y-79429235D01*
X158574329Y-79420970D01*
X158552150Y-79410480D01*
X158531107Y-79397868D01*
X158511401Y-79383253D01*
X158493223Y-79366777D01*
X158476747Y-79348599D01*
X158462132Y-79328893D01*
X158449520Y-79307850D01*
X158439030Y-79285671D01*
X158430765Y-79262572D01*
X158424804Y-79238773D01*
X158421204Y-79214505D01*
X158420000Y-79190001D01*
X158420000Y-78289999D01*
X158421204Y-78265495D01*
X158424804Y-78241227D01*
X158430765Y-78217428D01*
X158439030Y-78194329D01*
X158449520Y-78172150D01*
X158462132Y-78151107D01*
X158476747Y-78131401D01*
X158493223Y-78113223D01*
X158511401Y-78096747D01*
X158531107Y-78082132D01*
X158552150Y-78069520D01*
X158574329Y-78059030D01*
X158597428Y-78050765D01*
X158621227Y-78044804D01*
X158645495Y-78041204D01*
X158669999Y-78040000D01*
X159320001Y-78040000D01*
X159344505Y-78041204D01*
X159344505Y-78041204D01*
G37*
D11*
G04 #@! TD*
G04 #@! TO.P,R1,2*
G04 #@! TO.N,Net-(R1-Pad2)*
X158995000Y-78740000D03*
D10*
G04 #@! TO.N,INPUT_ZCD*
G04 #@! TO.C,R1*
G36*
X161394505Y-78041204D02*
X161418773Y-78044804D01*
X161442572Y-78050765D01*
X161465671Y-78059030D01*
X161487850Y-78069520D01*
X161508893Y-78082132D01*
X161528599Y-78096747D01*
X161546777Y-78113223D01*
X161563253Y-78131401D01*
X161577868Y-78151107D01*
X161590480Y-78172150D01*
X161600970Y-78194329D01*
X161609235Y-78217428D01*
X161615196Y-78241227D01*
X161618796Y-78265495D01*
X161620000Y-78289999D01*
X161620000Y-79190001D01*
X161618796Y-79214505D01*
X161615196Y-79238773D01*
X161609235Y-79262572D01*
X161600970Y-79285671D01*
X161590480Y-79307850D01*
X161577868Y-79328893D01*
X161563253Y-79348599D01*
X161546777Y-79366777D01*
X161528599Y-79383253D01*
X161508893Y-79397868D01*
X161487850Y-79410480D01*
X161465671Y-79420970D01*
X161442572Y-79429235D01*
X161418773Y-79435196D01*
X161394505Y-79438796D01*
X161370001Y-79440000D01*
X160719999Y-79440000D01*
X160695495Y-79438796D01*
X160671227Y-79435196D01*
X160647428Y-79429235D01*
X160624329Y-79420970D01*
X160602150Y-79410480D01*
X160581107Y-79397868D01*
X160561401Y-79383253D01*
X160543223Y-79366777D01*
X160526747Y-79348599D01*
X160512132Y-79328893D01*
X160499520Y-79307850D01*
X160489030Y-79285671D01*
X160480765Y-79262572D01*
X160474804Y-79238773D01*
X160471204Y-79214505D01*
X160470000Y-79190001D01*
X160470000Y-78289999D01*
X160471204Y-78265495D01*
X160474804Y-78241227D01*
X160480765Y-78217428D01*
X160489030Y-78194329D01*
X160499520Y-78172150D01*
X160512132Y-78151107D01*
X160526747Y-78131401D01*
X160543223Y-78113223D01*
X160561401Y-78096747D01*
X160581107Y-78082132D01*
X160602150Y-78069520D01*
X160624329Y-78059030D01*
X160647428Y-78050765D01*
X160671227Y-78044804D01*
X160695495Y-78041204D01*
X160719999Y-78040000D01*
X161370001Y-78040000D01*
X161394505Y-78041204D01*
X161394505Y-78041204D01*
G37*
D11*
G04 #@! TD*
G04 #@! TO.P,R1,1*
G04 #@! TO.N,INPUT_ZCD*
X161045000Y-78740000D03*
D10*
G04 #@! TO.N,ARD_TX*
G04 #@! TO.C,R2*
G36*
X136629505Y-65976204D02*
X136653773Y-65979804D01*
X136677572Y-65985765D01*
X136700671Y-65994030D01*
X136722850Y-66004520D01*
X136743893Y-66017132D01*
X136763599Y-66031747D01*
X136781777Y-66048223D01*
X136798253Y-66066401D01*
X136812868Y-66086107D01*
X136825480Y-66107150D01*
X136835970Y-66129329D01*
X136844235Y-66152428D01*
X136850196Y-66176227D01*
X136853796Y-66200495D01*
X136855000Y-66224999D01*
X136855000Y-67125001D01*
X136853796Y-67149505D01*
X136850196Y-67173773D01*
X136844235Y-67197572D01*
X136835970Y-67220671D01*
X136825480Y-67242850D01*
X136812868Y-67263893D01*
X136798253Y-67283599D01*
X136781777Y-67301777D01*
X136763599Y-67318253D01*
X136743893Y-67332868D01*
X136722850Y-67345480D01*
X136700671Y-67355970D01*
X136677572Y-67364235D01*
X136653773Y-67370196D01*
X136629505Y-67373796D01*
X136605001Y-67375000D01*
X135954999Y-67375000D01*
X135930495Y-67373796D01*
X135906227Y-67370196D01*
X135882428Y-67364235D01*
X135859329Y-67355970D01*
X135837150Y-67345480D01*
X135816107Y-67332868D01*
X135796401Y-67318253D01*
X135778223Y-67301777D01*
X135761747Y-67283599D01*
X135747132Y-67263893D01*
X135734520Y-67242850D01*
X135724030Y-67220671D01*
X135715765Y-67197572D01*
X135709804Y-67173773D01*
X135706204Y-67149505D01*
X135705000Y-67125001D01*
X135705000Y-66224999D01*
X135706204Y-66200495D01*
X135709804Y-66176227D01*
X135715765Y-66152428D01*
X135724030Y-66129329D01*
X135734520Y-66107150D01*
X135747132Y-66086107D01*
X135761747Y-66066401D01*
X135778223Y-66048223D01*
X135796401Y-66031747D01*
X135816107Y-66017132D01*
X135837150Y-66004520D01*
X135859329Y-65994030D01*
X135882428Y-65985765D01*
X135906227Y-65979804D01*
X135930495Y-65976204D01*
X135954999Y-65975000D01*
X136605001Y-65975000D01*
X136629505Y-65976204D01*
X136629505Y-65976204D01*
G37*
D11*
G04 #@! TD*
G04 #@! TO.P,R2,1*
G04 #@! TO.N,ARD_TX*
X136280000Y-66675000D03*
D10*
G04 #@! TO.N,Net-(R2-Pad2)*
G04 #@! TO.C,R2*
G36*
X134579505Y-65976204D02*
X134603773Y-65979804D01*
X134627572Y-65985765D01*
X134650671Y-65994030D01*
X134672850Y-66004520D01*
X134693893Y-66017132D01*
X134713599Y-66031747D01*
X134731777Y-66048223D01*
X134748253Y-66066401D01*
X134762868Y-66086107D01*
X134775480Y-66107150D01*
X134785970Y-66129329D01*
X134794235Y-66152428D01*
X134800196Y-66176227D01*
X134803796Y-66200495D01*
X134805000Y-66224999D01*
X134805000Y-67125001D01*
X134803796Y-67149505D01*
X134800196Y-67173773D01*
X134794235Y-67197572D01*
X134785970Y-67220671D01*
X134775480Y-67242850D01*
X134762868Y-67263893D01*
X134748253Y-67283599D01*
X134731777Y-67301777D01*
X134713599Y-67318253D01*
X134693893Y-67332868D01*
X134672850Y-67345480D01*
X134650671Y-67355970D01*
X134627572Y-67364235D01*
X134603773Y-67370196D01*
X134579505Y-67373796D01*
X134555001Y-67375000D01*
X133904999Y-67375000D01*
X133880495Y-67373796D01*
X133856227Y-67370196D01*
X133832428Y-67364235D01*
X133809329Y-67355970D01*
X133787150Y-67345480D01*
X133766107Y-67332868D01*
X133746401Y-67318253D01*
X133728223Y-67301777D01*
X133711747Y-67283599D01*
X133697132Y-67263893D01*
X133684520Y-67242850D01*
X133674030Y-67220671D01*
X133665765Y-67197572D01*
X133659804Y-67173773D01*
X133656204Y-67149505D01*
X133655000Y-67125001D01*
X133655000Y-66224999D01*
X133656204Y-66200495D01*
X133659804Y-66176227D01*
X133665765Y-66152428D01*
X133674030Y-66129329D01*
X133684520Y-66107150D01*
X133697132Y-66086107D01*
X133711747Y-66066401D01*
X133728223Y-66048223D01*
X133746401Y-66031747D01*
X133766107Y-66017132D01*
X133787150Y-66004520D01*
X133809329Y-65994030D01*
X133832428Y-65985765D01*
X133856227Y-65979804D01*
X133880495Y-65976204D01*
X133904999Y-65975000D01*
X134555001Y-65975000D01*
X134579505Y-65976204D01*
X134579505Y-65976204D01*
G37*
D11*
G04 #@! TD*
G04 #@! TO.P,R2,2*
G04 #@! TO.N,Net-(R2-Pad2)*
X134230000Y-66675000D03*
D10*
G04 #@! TO.N,Net-(R3-Pad1)*
G04 #@! TO.C,R3*
G36*
X147159505Y-79191204D02*
X147183773Y-79194804D01*
X147207572Y-79200765D01*
X147230671Y-79209030D01*
X147252850Y-79219520D01*
X147273893Y-79232132D01*
X147293599Y-79246747D01*
X147311777Y-79263223D01*
X147328253Y-79281401D01*
X147342868Y-79301107D01*
X147355480Y-79322150D01*
X147365970Y-79344329D01*
X147374235Y-79367428D01*
X147380196Y-79391227D01*
X147383796Y-79415495D01*
X147385000Y-79439999D01*
X147385000Y-80090001D01*
X147383796Y-80114505D01*
X147380196Y-80138773D01*
X147374235Y-80162572D01*
X147365970Y-80185671D01*
X147355480Y-80207850D01*
X147342868Y-80228893D01*
X147328253Y-80248599D01*
X147311777Y-80266777D01*
X147293599Y-80283253D01*
X147273893Y-80297868D01*
X147252850Y-80310480D01*
X147230671Y-80320970D01*
X147207572Y-80329235D01*
X147183773Y-80335196D01*
X147159505Y-80338796D01*
X147135001Y-80340000D01*
X146234999Y-80340000D01*
X146210495Y-80338796D01*
X146186227Y-80335196D01*
X146162428Y-80329235D01*
X146139329Y-80320970D01*
X146117150Y-80310480D01*
X146096107Y-80297868D01*
X146076401Y-80283253D01*
X146058223Y-80266777D01*
X146041747Y-80248599D01*
X146027132Y-80228893D01*
X146014520Y-80207850D01*
X146004030Y-80185671D01*
X145995765Y-80162572D01*
X145989804Y-80138773D01*
X145986204Y-80114505D01*
X145985000Y-80090001D01*
X145985000Y-79439999D01*
X145986204Y-79415495D01*
X145989804Y-79391227D01*
X145995765Y-79367428D01*
X146004030Y-79344329D01*
X146014520Y-79322150D01*
X146027132Y-79301107D01*
X146041747Y-79281401D01*
X146058223Y-79263223D01*
X146076401Y-79246747D01*
X146096107Y-79232132D01*
X146117150Y-79219520D01*
X146139329Y-79209030D01*
X146162428Y-79200765D01*
X146186227Y-79194804D01*
X146210495Y-79191204D01*
X146234999Y-79190000D01*
X147135001Y-79190000D01*
X147159505Y-79191204D01*
X147159505Y-79191204D01*
G37*
D11*
G04 #@! TD*
G04 #@! TO.P,R3,1*
G04 #@! TO.N,Net-(R3-Pad1)*
X146685000Y-79765000D03*
D10*
G04 #@! TO.N,Net-(D1-Pad2)*
G04 #@! TO.C,R3*
G36*
X147159505Y-77141204D02*
X147183773Y-77144804D01*
X147207572Y-77150765D01*
X147230671Y-77159030D01*
X147252850Y-77169520D01*
X147273893Y-77182132D01*
X147293599Y-77196747D01*
X147311777Y-77213223D01*
X147328253Y-77231401D01*
X147342868Y-77251107D01*
X147355480Y-77272150D01*
X147365970Y-77294329D01*
X147374235Y-77317428D01*
X147380196Y-77341227D01*
X147383796Y-77365495D01*
X147385000Y-77389999D01*
X147385000Y-78040001D01*
X147383796Y-78064505D01*
X147380196Y-78088773D01*
X147374235Y-78112572D01*
X147365970Y-78135671D01*
X147355480Y-78157850D01*
X147342868Y-78178893D01*
X147328253Y-78198599D01*
X147311777Y-78216777D01*
X147293599Y-78233253D01*
X147273893Y-78247868D01*
X147252850Y-78260480D01*
X147230671Y-78270970D01*
X147207572Y-78279235D01*
X147183773Y-78285196D01*
X147159505Y-78288796D01*
X147135001Y-78290000D01*
X146234999Y-78290000D01*
X146210495Y-78288796D01*
X146186227Y-78285196D01*
X146162428Y-78279235D01*
X146139329Y-78270970D01*
X146117150Y-78260480D01*
X146096107Y-78247868D01*
X146076401Y-78233253D01*
X146058223Y-78216777D01*
X146041747Y-78198599D01*
X146027132Y-78178893D01*
X146014520Y-78157850D01*
X146004030Y-78135671D01*
X145995765Y-78112572D01*
X145989804Y-78088773D01*
X145986204Y-78064505D01*
X145985000Y-78040001D01*
X145985000Y-77389999D01*
X145986204Y-77365495D01*
X145989804Y-77341227D01*
X145995765Y-77317428D01*
X146004030Y-77294329D01*
X146014520Y-77272150D01*
X146027132Y-77251107D01*
X146041747Y-77231401D01*
X146058223Y-77213223D01*
X146076401Y-77196747D01*
X146096107Y-77182132D01*
X146117150Y-77169520D01*
X146139329Y-77159030D01*
X146162428Y-77150765D01*
X146186227Y-77144804D01*
X146210495Y-77141204D01*
X146234999Y-77140000D01*
X147135001Y-77140000D01*
X147159505Y-77141204D01*
X147159505Y-77141204D01*
G37*
D11*
G04 #@! TD*
G04 #@! TO.P,R3,2*
G04 #@! TO.N,Net-(D1-Pad2)*
X146685000Y-77715000D03*
D10*
G04 #@! TO.N,5V*
G04 #@! TO.C,R5*
G36*
X145254505Y-71326204D02*
X145278773Y-71329804D01*
X145302572Y-71335765D01*
X145325671Y-71344030D01*
X145347850Y-71354520D01*
X145368893Y-71367132D01*
X145388599Y-71381747D01*
X145406777Y-71398223D01*
X145423253Y-71416401D01*
X145437868Y-71436107D01*
X145450480Y-71457150D01*
X145460970Y-71479329D01*
X145469235Y-71502428D01*
X145475196Y-71526227D01*
X145478796Y-71550495D01*
X145480000Y-71574999D01*
X145480000Y-72225001D01*
X145478796Y-72249505D01*
X145475196Y-72273773D01*
X145469235Y-72297572D01*
X145460970Y-72320671D01*
X145450480Y-72342850D01*
X145437868Y-72363893D01*
X145423253Y-72383599D01*
X145406777Y-72401777D01*
X145388599Y-72418253D01*
X145368893Y-72432868D01*
X145347850Y-72445480D01*
X145325671Y-72455970D01*
X145302572Y-72464235D01*
X145278773Y-72470196D01*
X145254505Y-72473796D01*
X145230001Y-72475000D01*
X144329999Y-72475000D01*
X144305495Y-72473796D01*
X144281227Y-72470196D01*
X144257428Y-72464235D01*
X144234329Y-72455970D01*
X144212150Y-72445480D01*
X144191107Y-72432868D01*
X144171401Y-72418253D01*
X144153223Y-72401777D01*
X144136747Y-72383599D01*
X144122132Y-72363893D01*
X144109520Y-72342850D01*
X144099030Y-72320671D01*
X144090765Y-72297572D01*
X144084804Y-72273773D01*
X144081204Y-72249505D01*
X144080000Y-72225001D01*
X144080000Y-71574999D01*
X144081204Y-71550495D01*
X144084804Y-71526227D01*
X144090765Y-71502428D01*
X144099030Y-71479329D01*
X144109520Y-71457150D01*
X144122132Y-71436107D01*
X144136747Y-71416401D01*
X144153223Y-71398223D01*
X144171401Y-71381747D01*
X144191107Y-71367132D01*
X144212150Y-71354520D01*
X144234329Y-71344030D01*
X144257428Y-71335765D01*
X144281227Y-71329804D01*
X144305495Y-71326204D01*
X144329999Y-71325000D01*
X145230001Y-71325000D01*
X145254505Y-71326204D01*
X145254505Y-71326204D01*
G37*
D11*
G04 #@! TD*
G04 #@! TO.P,R5,1*
G04 #@! TO.N,5V*
X144780000Y-71900000D03*
D10*
G04 #@! TO.N,SCL*
G04 #@! TO.C,R5*
G36*
X145254505Y-69276204D02*
X145278773Y-69279804D01*
X145302572Y-69285765D01*
X145325671Y-69294030D01*
X145347850Y-69304520D01*
X145368893Y-69317132D01*
X145388599Y-69331747D01*
X145406777Y-69348223D01*
X145423253Y-69366401D01*
X145437868Y-69386107D01*
X145450480Y-69407150D01*
X145460970Y-69429329D01*
X145469235Y-69452428D01*
X145475196Y-69476227D01*
X145478796Y-69500495D01*
X145480000Y-69524999D01*
X145480000Y-70175001D01*
X145478796Y-70199505D01*
X145475196Y-70223773D01*
X145469235Y-70247572D01*
X145460970Y-70270671D01*
X145450480Y-70292850D01*
X145437868Y-70313893D01*
X145423253Y-70333599D01*
X145406777Y-70351777D01*
X145388599Y-70368253D01*
X145368893Y-70382868D01*
X145347850Y-70395480D01*
X145325671Y-70405970D01*
X145302572Y-70414235D01*
X145278773Y-70420196D01*
X145254505Y-70423796D01*
X145230001Y-70425000D01*
X144329999Y-70425000D01*
X144305495Y-70423796D01*
X144281227Y-70420196D01*
X144257428Y-70414235D01*
X144234329Y-70405970D01*
X144212150Y-70395480D01*
X144191107Y-70382868D01*
X144171401Y-70368253D01*
X144153223Y-70351777D01*
X144136747Y-70333599D01*
X144122132Y-70313893D01*
X144109520Y-70292850D01*
X144099030Y-70270671D01*
X144090765Y-70247572D01*
X144084804Y-70223773D01*
X144081204Y-70199505D01*
X144080000Y-70175001D01*
X144080000Y-69524999D01*
X144081204Y-69500495D01*
X144084804Y-69476227D01*
X144090765Y-69452428D01*
X144099030Y-69429329D01*
X144109520Y-69407150D01*
X144122132Y-69386107D01*
X144136747Y-69366401D01*
X144153223Y-69348223D01*
X144171401Y-69331747D01*
X144191107Y-69317132D01*
X144212150Y-69304520D01*
X144234329Y-69294030D01*
X144257428Y-69285765D01*
X144281227Y-69279804D01*
X144305495Y-69276204D01*
X144329999Y-69275000D01*
X145230001Y-69275000D01*
X145254505Y-69276204D01*
X145254505Y-69276204D01*
G37*
D11*
G04 #@! TD*
G04 #@! TO.P,R5,2*
G04 #@! TO.N,SCL*
X144780000Y-69850000D03*
D10*
G04 #@! TO.N,SDA*
G04 #@! TO.C,R6*
G36*
X147794505Y-69276204D02*
X147818773Y-69279804D01*
X147842572Y-69285765D01*
X147865671Y-69294030D01*
X147887850Y-69304520D01*
X147908893Y-69317132D01*
X147928599Y-69331747D01*
X147946777Y-69348223D01*
X147963253Y-69366401D01*
X147977868Y-69386107D01*
X147990480Y-69407150D01*
X148000970Y-69429329D01*
X148009235Y-69452428D01*
X148015196Y-69476227D01*
X148018796Y-69500495D01*
X148020000Y-69524999D01*
X148020000Y-70175001D01*
X148018796Y-70199505D01*
X148015196Y-70223773D01*
X148009235Y-70247572D01*
X148000970Y-70270671D01*
X147990480Y-70292850D01*
X147977868Y-70313893D01*
X147963253Y-70333599D01*
X147946777Y-70351777D01*
X147928599Y-70368253D01*
X147908893Y-70382868D01*
X147887850Y-70395480D01*
X147865671Y-70405970D01*
X147842572Y-70414235D01*
X147818773Y-70420196D01*
X147794505Y-70423796D01*
X147770001Y-70425000D01*
X146869999Y-70425000D01*
X146845495Y-70423796D01*
X146821227Y-70420196D01*
X146797428Y-70414235D01*
X146774329Y-70405970D01*
X146752150Y-70395480D01*
X146731107Y-70382868D01*
X146711401Y-70368253D01*
X146693223Y-70351777D01*
X146676747Y-70333599D01*
X146662132Y-70313893D01*
X146649520Y-70292850D01*
X146639030Y-70270671D01*
X146630765Y-70247572D01*
X146624804Y-70223773D01*
X146621204Y-70199505D01*
X146620000Y-70175001D01*
X146620000Y-69524999D01*
X146621204Y-69500495D01*
X146624804Y-69476227D01*
X146630765Y-69452428D01*
X146639030Y-69429329D01*
X146649520Y-69407150D01*
X146662132Y-69386107D01*
X146676747Y-69366401D01*
X146693223Y-69348223D01*
X146711401Y-69331747D01*
X146731107Y-69317132D01*
X146752150Y-69304520D01*
X146774329Y-69294030D01*
X146797428Y-69285765D01*
X146821227Y-69279804D01*
X146845495Y-69276204D01*
X146869999Y-69275000D01*
X147770001Y-69275000D01*
X147794505Y-69276204D01*
X147794505Y-69276204D01*
G37*
D11*
G04 #@! TD*
G04 #@! TO.P,R6,2*
G04 #@! TO.N,SDA*
X147320000Y-69850000D03*
D10*
G04 #@! TO.N,5V*
G04 #@! TO.C,R6*
G36*
X147794505Y-71326204D02*
X147818773Y-71329804D01*
X147842572Y-71335765D01*
X147865671Y-71344030D01*
X147887850Y-71354520D01*
X147908893Y-71367132D01*
X147928599Y-71381747D01*
X147946777Y-71398223D01*
X147963253Y-71416401D01*
X147977868Y-71436107D01*
X147990480Y-71457150D01*
X148000970Y-71479329D01*
X148009235Y-71502428D01*
X148015196Y-71526227D01*
X148018796Y-71550495D01*
X148020000Y-71574999D01*
X148020000Y-72225001D01*
X148018796Y-72249505D01*
X148015196Y-72273773D01*
X148009235Y-72297572D01*
X148000970Y-72320671D01*
X147990480Y-72342850D01*
X147977868Y-72363893D01*
X147963253Y-72383599D01*
X147946777Y-72401777D01*
X147928599Y-72418253D01*
X147908893Y-72432868D01*
X147887850Y-72445480D01*
X147865671Y-72455970D01*
X147842572Y-72464235D01*
X147818773Y-72470196D01*
X147794505Y-72473796D01*
X147770001Y-72475000D01*
X146869999Y-72475000D01*
X146845495Y-72473796D01*
X146821227Y-72470196D01*
X146797428Y-72464235D01*
X146774329Y-72455970D01*
X146752150Y-72445480D01*
X146731107Y-72432868D01*
X146711401Y-72418253D01*
X146693223Y-72401777D01*
X146676747Y-72383599D01*
X146662132Y-72363893D01*
X146649520Y-72342850D01*
X146639030Y-72320671D01*
X146630765Y-72297572D01*
X146624804Y-72273773D01*
X146621204Y-72249505D01*
X146620000Y-72225001D01*
X146620000Y-71574999D01*
X146621204Y-71550495D01*
X146624804Y-71526227D01*
X146630765Y-71502428D01*
X146639030Y-71479329D01*
X146649520Y-71457150D01*
X146662132Y-71436107D01*
X146676747Y-71416401D01*
X146693223Y-71398223D01*
X146711401Y-71381747D01*
X146731107Y-71367132D01*
X146752150Y-71354520D01*
X146774329Y-71344030D01*
X146797428Y-71335765D01*
X146821227Y-71329804D01*
X146845495Y-71326204D01*
X146869999Y-71325000D01*
X147770001Y-71325000D01*
X147794505Y-71326204D01*
X147794505Y-71326204D01*
G37*
D11*
G04 #@! TD*
G04 #@! TO.P,R6,1*
G04 #@! TO.N,5V*
X147320000Y-71900000D03*
D14*
G04 #@! TO.P,J5,1*
G04 #@! TO.N,Net-(J4-Pad1)*
X124460000Y-62230000D03*
G04 #@! TO.P,J5,2*
G04 #@! TO.N,GND*
X127000000Y-62230000D03*
G04 #@! TO.P,J5,3*
G04 #@! TO.N,Net-(J4-Pad3)*
X129540000Y-62230000D03*
G04 #@! TO.P,J5,4*
G04 #@! TO.N,Net-(J4-Pad4)*
X132080000Y-62230000D03*
G04 #@! TO.P,J5,5*
G04 #@! TO.N,Net-(J4-Pad5)*
X134620000Y-62230000D03*
G04 #@! TO.P,J5,6*
G04 #@! TO.N,Net-(J4-Pad6)*
X137160000Y-62230000D03*
G04 #@! TO.P,J5,7*
G04 #@! TO.N,Net-(J4-Pad7)*
X139700000Y-62230000D03*
G04 #@! TO.P,J5,8*
G04 #@! TO.N,Net-(J4-Pad8)*
X142240000Y-62230000D03*
G04 #@! TD*
G04 #@! TO.P,J6,1*
G04 #@! TO.N,Net-(J6-Pad1)*
X149860000Y-105410000D03*
G04 #@! TO.P,J6,2*
G04 #@! TO.N,Net-(J6-Pad2)*
X152400000Y-105410000D03*
G04 #@! TO.P,J6,3*
G04 #@! TO.N,Net-(J6-Pad3)*
X154940000Y-105410000D03*
G04 #@! TO.P,J6,4*
G04 #@! TO.N,Net-(J6-Pad4)*
X157480000Y-105410000D03*
G04 #@! TO.P,J6,5*
G04 #@! TO.N,SDA*
X160020000Y-105410000D03*
G04 #@! TO.P,J6,6*
G04 #@! TO.N,SCL*
X162560000Y-105410000D03*
G04 #@! TD*
G04 #@! TO.P,J8,8*
G04 #@! TO.N,ARD_RX*
X162560000Y-62230000D03*
G04 #@! TO.P,J8,7*
G04 #@! TO.N,ARD_TX*
X160020000Y-62230000D03*
G04 #@! TO.P,J8,6*
G04 #@! TO.N,Net-(J8-Pad6)*
X157480000Y-62230000D03*
G04 #@! TO.P,J8,5*
G04 #@! TO.N,Net-(J8-Pad5)*
X154940000Y-62230000D03*
G04 #@! TO.P,J8,4*
G04 #@! TO.N,Net-(J8-Pad4)*
X152400000Y-62230000D03*
G04 #@! TO.P,J8,3*
G04 #@! TO.N,Net-(J8-Pad3)*
X149860000Y-62230000D03*
G04 #@! TO.P,J8,2*
G04 #@! TO.N,Net-(J8-Pad2)*
X147320000Y-62230000D03*
G04 #@! TO.P,J8,1*
G04 #@! TO.N,Net-(J8-Pad1)*
X144780000Y-62230000D03*
G04 #@! TD*
D17*
G04 #@! TO.P,D1,2*
G04 #@! TO.N,Net-(D1-Pad2)*
X149225000Y-77470000D03*
G04 #@! TO.P,D1,1*
G04 #@! TO.N,Net-(C3-Pad1)*
X149225000Y-81280000D03*
G04 #@! TD*
D10*
G04 #@! TO.N,ARD_RX*
G04 #@! TO.C,R7*
G36*
X136629505Y-68516204D02*
X136653773Y-68519804D01*
X136677572Y-68525765D01*
X136700671Y-68534030D01*
X136722850Y-68544520D01*
X136743893Y-68557132D01*
X136763599Y-68571747D01*
X136781777Y-68588223D01*
X136798253Y-68606401D01*
X136812868Y-68626107D01*
X136825480Y-68647150D01*
X136835970Y-68669329D01*
X136844235Y-68692428D01*
X136850196Y-68716227D01*
X136853796Y-68740495D01*
X136855000Y-68764999D01*
X136855000Y-69665001D01*
X136853796Y-69689505D01*
X136850196Y-69713773D01*
X136844235Y-69737572D01*
X136835970Y-69760671D01*
X136825480Y-69782850D01*
X136812868Y-69803893D01*
X136798253Y-69823599D01*
X136781777Y-69841777D01*
X136763599Y-69858253D01*
X136743893Y-69872868D01*
X136722850Y-69885480D01*
X136700671Y-69895970D01*
X136677572Y-69904235D01*
X136653773Y-69910196D01*
X136629505Y-69913796D01*
X136605001Y-69915000D01*
X135954999Y-69915000D01*
X135930495Y-69913796D01*
X135906227Y-69910196D01*
X135882428Y-69904235D01*
X135859329Y-69895970D01*
X135837150Y-69885480D01*
X135816107Y-69872868D01*
X135796401Y-69858253D01*
X135778223Y-69841777D01*
X135761747Y-69823599D01*
X135747132Y-69803893D01*
X135734520Y-69782850D01*
X135724030Y-69760671D01*
X135715765Y-69737572D01*
X135709804Y-69713773D01*
X135706204Y-69689505D01*
X135705000Y-69665001D01*
X135705000Y-68764999D01*
X135706204Y-68740495D01*
X135709804Y-68716227D01*
X135715765Y-68692428D01*
X135724030Y-68669329D01*
X135734520Y-68647150D01*
X135747132Y-68626107D01*
X135761747Y-68606401D01*
X135778223Y-68588223D01*
X135796401Y-68571747D01*
X135816107Y-68557132D01*
X135837150Y-68544520D01*
X135859329Y-68534030D01*
X135882428Y-68525765D01*
X135906227Y-68519804D01*
X135930495Y-68516204D01*
X135954999Y-68515000D01*
X136605001Y-68515000D01*
X136629505Y-68516204D01*
X136629505Y-68516204D01*
G37*
D11*
G04 #@! TD*
G04 #@! TO.P,R7,1*
G04 #@! TO.N,ARD_RX*
X136280000Y-69215000D03*
D10*
G04 #@! TO.N,Net-(R7-Pad2)*
G04 #@! TO.C,R7*
G36*
X134579505Y-68516204D02*
X134603773Y-68519804D01*
X134627572Y-68525765D01*
X134650671Y-68534030D01*
X134672850Y-68544520D01*
X134693893Y-68557132D01*
X134713599Y-68571747D01*
X134731777Y-68588223D01*
X134748253Y-68606401D01*
X134762868Y-68626107D01*
X134775480Y-68647150D01*
X134785970Y-68669329D01*
X134794235Y-68692428D01*
X134800196Y-68716227D01*
X134803796Y-68740495D01*
X134805000Y-68764999D01*
X134805000Y-69665001D01*
X134803796Y-69689505D01*
X134800196Y-69713773D01*
X134794235Y-69737572D01*
X134785970Y-69760671D01*
X134775480Y-69782850D01*
X134762868Y-69803893D01*
X134748253Y-69823599D01*
X134731777Y-69841777D01*
X134713599Y-69858253D01*
X134693893Y-69872868D01*
X134672850Y-69885480D01*
X134650671Y-69895970D01*
X134627572Y-69904235D01*
X134603773Y-69910196D01*
X134579505Y-69913796D01*
X134555001Y-69915000D01*
X133904999Y-69915000D01*
X133880495Y-69913796D01*
X133856227Y-69910196D01*
X133832428Y-69904235D01*
X133809329Y-69895970D01*
X133787150Y-69885480D01*
X133766107Y-69872868D01*
X133746401Y-69858253D01*
X133728223Y-69841777D01*
X133711747Y-69823599D01*
X133697132Y-69803893D01*
X133684520Y-69782850D01*
X133674030Y-69760671D01*
X133665765Y-69737572D01*
X133659804Y-69713773D01*
X133656204Y-69689505D01*
X133655000Y-69665001D01*
X133655000Y-68764999D01*
X133656204Y-68740495D01*
X133659804Y-68716227D01*
X133665765Y-68692428D01*
X133674030Y-68669329D01*
X133684520Y-68647150D01*
X133697132Y-68626107D01*
X133711747Y-68606401D01*
X133728223Y-68588223D01*
X133746401Y-68571747D01*
X133766107Y-68557132D01*
X133787150Y-68544520D01*
X133809329Y-68534030D01*
X133832428Y-68525765D01*
X133856227Y-68519804D01*
X133880495Y-68516204D01*
X133904999Y-68515000D01*
X134555001Y-68515000D01*
X134579505Y-68516204D01*
X134579505Y-68516204D01*
G37*
D11*
G04 #@! TD*
G04 #@! TO.P,R7,2*
G04 #@! TO.N,Net-(R7-Pad2)*
X134230000Y-69215000D03*
D10*
G04 #@! TO.N,Net-(R8-Pad1)*
G04 #@! TO.C,R8*
G36*
X156049505Y-97461204D02*
X156073773Y-97464804D01*
X156097572Y-97470765D01*
X156120671Y-97479030D01*
X156142850Y-97489520D01*
X156163893Y-97502132D01*
X156183599Y-97516747D01*
X156201777Y-97533223D01*
X156218253Y-97551401D01*
X156232868Y-97571107D01*
X156245480Y-97592150D01*
X156255970Y-97614329D01*
X156264235Y-97637428D01*
X156270196Y-97661227D01*
X156273796Y-97685495D01*
X156275000Y-97709999D01*
X156275000Y-98360001D01*
X156273796Y-98384505D01*
X156270196Y-98408773D01*
X156264235Y-98432572D01*
X156255970Y-98455671D01*
X156245480Y-98477850D01*
X156232868Y-98498893D01*
X156218253Y-98518599D01*
X156201777Y-98536777D01*
X156183599Y-98553253D01*
X156163893Y-98567868D01*
X156142850Y-98580480D01*
X156120671Y-98590970D01*
X156097572Y-98599235D01*
X156073773Y-98605196D01*
X156049505Y-98608796D01*
X156025001Y-98610000D01*
X155124999Y-98610000D01*
X155100495Y-98608796D01*
X155076227Y-98605196D01*
X155052428Y-98599235D01*
X155029329Y-98590970D01*
X155007150Y-98580480D01*
X154986107Y-98567868D01*
X154966401Y-98553253D01*
X154948223Y-98536777D01*
X154931747Y-98518599D01*
X154917132Y-98498893D01*
X154904520Y-98477850D01*
X154894030Y-98455671D01*
X154885765Y-98432572D01*
X154879804Y-98408773D01*
X154876204Y-98384505D01*
X154875000Y-98360001D01*
X154875000Y-97709999D01*
X154876204Y-97685495D01*
X154879804Y-97661227D01*
X154885765Y-97637428D01*
X154894030Y-97614329D01*
X154904520Y-97592150D01*
X154917132Y-97571107D01*
X154931747Y-97551401D01*
X154948223Y-97533223D01*
X154966401Y-97516747D01*
X154986107Y-97502132D01*
X155007150Y-97489520D01*
X155029329Y-97479030D01*
X155052428Y-97470765D01*
X155076227Y-97464804D01*
X155100495Y-97461204D01*
X155124999Y-97460000D01*
X156025001Y-97460000D01*
X156049505Y-97461204D01*
X156049505Y-97461204D01*
G37*
D11*
G04 #@! TD*
G04 #@! TO.P,R8,1*
G04 #@! TO.N,Net-(R8-Pad1)*
X155575000Y-98035000D03*
D10*
G04 #@! TO.N,INPUT_A*
G04 #@! TO.C,R8*
G36*
X156049505Y-99511204D02*
X156073773Y-99514804D01*
X156097572Y-99520765D01*
X156120671Y-99529030D01*
X156142850Y-99539520D01*
X156163893Y-99552132D01*
X156183599Y-99566747D01*
X156201777Y-99583223D01*
X156218253Y-99601401D01*
X156232868Y-99621107D01*
X156245480Y-99642150D01*
X156255970Y-99664329D01*
X156264235Y-99687428D01*
X156270196Y-99711227D01*
X156273796Y-99735495D01*
X156275000Y-99759999D01*
X156275000Y-100410001D01*
X156273796Y-100434505D01*
X156270196Y-100458773D01*
X156264235Y-100482572D01*
X156255970Y-100505671D01*
X156245480Y-100527850D01*
X156232868Y-100548893D01*
X156218253Y-100568599D01*
X156201777Y-100586777D01*
X156183599Y-100603253D01*
X156163893Y-100617868D01*
X156142850Y-100630480D01*
X156120671Y-100640970D01*
X156097572Y-100649235D01*
X156073773Y-100655196D01*
X156049505Y-100658796D01*
X156025001Y-100660000D01*
X155124999Y-100660000D01*
X155100495Y-100658796D01*
X155076227Y-100655196D01*
X155052428Y-100649235D01*
X155029329Y-100640970D01*
X155007150Y-100630480D01*
X154986107Y-100617868D01*
X154966401Y-100603253D01*
X154948223Y-100586777D01*
X154931747Y-100568599D01*
X154917132Y-100548893D01*
X154904520Y-100527850D01*
X154894030Y-100505671D01*
X154885765Y-100482572D01*
X154879804Y-100458773D01*
X154876204Y-100434505D01*
X154875000Y-100410001D01*
X154875000Y-99759999D01*
X154876204Y-99735495D01*
X154879804Y-99711227D01*
X154885765Y-99687428D01*
X154894030Y-99664329D01*
X154904520Y-99642150D01*
X154917132Y-99621107D01*
X154931747Y-99601401D01*
X154948223Y-99583223D01*
X154966401Y-99566747D01*
X154986107Y-99552132D01*
X155007150Y-99539520D01*
X155029329Y-99529030D01*
X155052428Y-99520765D01*
X155076227Y-99514804D01*
X155100495Y-99511204D01*
X155124999Y-99510000D01*
X156025001Y-99510000D01*
X156049505Y-99511204D01*
X156049505Y-99511204D01*
G37*
D11*
G04 #@! TD*
G04 #@! TO.P,R8,2*
G04 #@! TO.N,INPUT_A*
X155575000Y-100085000D03*
D10*
G04 #@! TO.N,INPUT_B*
G04 #@! TO.C,R9*
G36*
X156049505Y-91891204D02*
X156073773Y-91894804D01*
X156097572Y-91900765D01*
X156120671Y-91909030D01*
X156142850Y-91919520D01*
X156163893Y-91932132D01*
X156183599Y-91946747D01*
X156201777Y-91963223D01*
X156218253Y-91981401D01*
X156232868Y-92001107D01*
X156245480Y-92022150D01*
X156255970Y-92044329D01*
X156264235Y-92067428D01*
X156270196Y-92091227D01*
X156273796Y-92115495D01*
X156275000Y-92139999D01*
X156275000Y-92790001D01*
X156273796Y-92814505D01*
X156270196Y-92838773D01*
X156264235Y-92862572D01*
X156255970Y-92885671D01*
X156245480Y-92907850D01*
X156232868Y-92928893D01*
X156218253Y-92948599D01*
X156201777Y-92966777D01*
X156183599Y-92983253D01*
X156163893Y-92997868D01*
X156142850Y-93010480D01*
X156120671Y-93020970D01*
X156097572Y-93029235D01*
X156073773Y-93035196D01*
X156049505Y-93038796D01*
X156025001Y-93040000D01*
X155124999Y-93040000D01*
X155100495Y-93038796D01*
X155076227Y-93035196D01*
X155052428Y-93029235D01*
X155029329Y-93020970D01*
X155007150Y-93010480D01*
X154986107Y-92997868D01*
X154966401Y-92983253D01*
X154948223Y-92966777D01*
X154931747Y-92948599D01*
X154917132Y-92928893D01*
X154904520Y-92907850D01*
X154894030Y-92885671D01*
X154885765Y-92862572D01*
X154879804Y-92838773D01*
X154876204Y-92814505D01*
X154875000Y-92790001D01*
X154875000Y-92139999D01*
X154876204Y-92115495D01*
X154879804Y-92091227D01*
X154885765Y-92067428D01*
X154894030Y-92044329D01*
X154904520Y-92022150D01*
X154917132Y-92001107D01*
X154931747Y-91981401D01*
X154948223Y-91963223D01*
X154966401Y-91946747D01*
X154986107Y-91932132D01*
X155007150Y-91919520D01*
X155029329Y-91909030D01*
X155052428Y-91900765D01*
X155076227Y-91894804D01*
X155100495Y-91891204D01*
X155124999Y-91890000D01*
X156025001Y-91890000D01*
X156049505Y-91891204D01*
X156049505Y-91891204D01*
G37*
D11*
G04 #@! TD*
G04 #@! TO.P,R9,2*
G04 #@! TO.N,INPUT_B*
X155575000Y-92465000D03*
D10*
G04 #@! TO.N,Net-(R9-Pad1)*
G04 #@! TO.C,R9*
G36*
X156049505Y-89841204D02*
X156073773Y-89844804D01*
X156097572Y-89850765D01*
X156120671Y-89859030D01*
X156142850Y-89869520D01*
X156163893Y-89882132D01*
X156183599Y-89896747D01*
X156201777Y-89913223D01*
X156218253Y-89931401D01*
X156232868Y-89951107D01*
X156245480Y-89972150D01*
X156255970Y-89994329D01*
X156264235Y-90017428D01*
X156270196Y-90041227D01*
X156273796Y-90065495D01*
X156275000Y-90089999D01*
X156275000Y-90740001D01*
X156273796Y-90764505D01*
X156270196Y-90788773D01*
X156264235Y-90812572D01*
X156255970Y-90835671D01*
X156245480Y-90857850D01*
X156232868Y-90878893D01*
X156218253Y-90898599D01*
X156201777Y-90916777D01*
X156183599Y-90933253D01*
X156163893Y-90947868D01*
X156142850Y-90960480D01*
X156120671Y-90970970D01*
X156097572Y-90979235D01*
X156073773Y-90985196D01*
X156049505Y-90988796D01*
X156025001Y-90990000D01*
X155124999Y-90990000D01*
X155100495Y-90988796D01*
X155076227Y-90985196D01*
X155052428Y-90979235D01*
X155029329Y-90970970D01*
X155007150Y-90960480D01*
X154986107Y-90947868D01*
X154966401Y-90933253D01*
X154948223Y-90916777D01*
X154931747Y-90898599D01*
X154917132Y-90878893D01*
X154904520Y-90857850D01*
X154894030Y-90835671D01*
X154885765Y-90812572D01*
X154879804Y-90788773D01*
X154876204Y-90764505D01*
X154875000Y-90740001D01*
X154875000Y-90089999D01*
X154876204Y-90065495D01*
X154879804Y-90041227D01*
X154885765Y-90017428D01*
X154894030Y-89994329D01*
X154904520Y-89972150D01*
X154917132Y-89951107D01*
X154931747Y-89931401D01*
X154948223Y-89913223D01*
X154966401Y-89896747D01*
X154986107Y-89882132D01*
X155007150Y-89869520D01*
X155029329Y-89859030D01*
X155052428Y-89850765D01*
X155076227Y-89844804D01*
X155100495Y-89841204D01*
X155124999Y-89840000D01*
X156025001Y-89840000D01*
X156049505Y-89841204D01*
X156049505Y-89841204D01*
G37*
D11*
G04 #@! TD*
G04 #@! TO.P,R9,1*
G04 #@! TO.N,Net-(R9-Pad1)*
X155575000Y-90415000D03*
D14*
G04 #@! TO.P,J16,1*
G04 #@! TO.N,GND*
X149860000Y-90170000D03*
G04 #@! TO.P,J16,2*
G04 #@! TO.N,32MHz*
X149860000Y-87630000D03*
G04 #@! TD*
G04 #@! TO.P,JP1,2*
G04 #@! TO.N,32MHz*
X147320000Y-87630000D03*
G04 #@! TO.P,JP1,1*
G04 #@! TO.N,Net-(C4-Pad2)*
X147320000Y-90170000D03*
G04 #@! TD*
D18*
G04 #@! TO.N,GND*
X136525000Y-92710000D03*
X137405000Y-87875000D03*
X136525000Y-86995000D03*
X155575000Y-82305000D03*
X153035000Y-82305000D03*
X154305000Y-82550000D03*
X149860000Y-101600000D03*
X151002992Y-101600000D03*
D19*
G04 #@! TO.N,MCLR*
X129540000Y-89535000D03*
X140970000Y-83185000D03*
G04 #@! TO.N,5V*
X139455000Y-72698000D03*
X139455000Y-71281570D03*
X143002000Y-72644000D03*
X143510022Y-71754996D03*
G04 #@! TO.N,3.3V*
X135890000Y-101600000D03*
X138430000Y-101600000D03*
G04 #@! TO.N,SCL*
X163830000Y-67310000D03*
G04 #@! TO.N,Net-(R1-Pad2)*
X145415012Y-74295000D03*
X137160000Y-74378432D03*
G04 #@! TD*
D20*
G04 #@! TO.N,GND*
X125476000Y-60706000D02*
X127000000Y-62230000D01*
X125476000Y-59690000D02*
X125476000Y-60706000D01*
X160020000Y-74930000D02*
X152400000Y-74930000D01*
X139700000Y-107950000D02*
X139700000Y-105410000D01*
X142240000Y-107950000D02*
X142240000Y-105410000D01*
X139700000Y-107950000D02*
X142240000Y-107950000D01*
X137405000Y-91440000D02*
X137405000Y-89535000D01*
X137405000Y-88510000D02*
X137405000Y-89535000D01*
X133730000Y-86995000D02*
X135890000Y-86995000D01*
X135890000Y-86995000D02*
X137405000Y-88510000D01*
X137405000Y-88510000D02*
X137405000Y-87875000D01*
X135890000Y-86995000D02*
X136525000Y-86995000D01*
X136525000Y-86995000D02*
X137405000Y-87875000D01*
X137405000Y-91830000D02*
X137405000Y-91440000D01*
X136525000Y-92710000D02*
X137405000Y-91830000D01*
D21*
X154305000Y-81035000D02*
X155575000Y-82305000D01*
X154305000Y-81035000D02*
X153035000Y-82305000D01*
X154305000Y-81035000D02*
X154305000Y-82550000D01*
X150625000Y-94235000D02*
X150075000Y-94785000D01*
X150625000Y-93885000D02*
X150625000Y-94235000D01*
D20*
X150625000Y-94085000D02*
X150625000Y-93885000D01*
D21*
X150625000Y-97535000D02*
X150075000Y-96985000D01*
X150625000Y-97885000D02*
X150625000Y-97535000D01*
D20*
X150250000Y-98260000D02*
X150625000Y-97885000D01*
X150250000Y-100330000D02*
X150250000Y-98260000D01*
X150625000Y-97885000D02*
X150625000Y-93885000D01*
X150625000Y-90935000D02*
X149860000Y-90170000D01*
X150625000Y-93885000D02*
X150625000Y-90935000D01*
X150250000Y-100330000D02*
X150250000Y-101210000D01*
X150250000Y-101210000D02*
X149860000Y-101600000D01*
X151002992Y-101082992D02*
X151002992Y-101600000D01*
X150250000Y-100330000D02*
X151002992Y-101082992D01*
X149460001Y-101999999D02*
X149860000Y-101600000D01*
X148643990Y-102816010D02*
X149460001Y-101999999D01*
X144833990Y-102816010D02*
X148643990Y-102816010D01*
X142240000Y-105410000D02*
X144833990Y-102816010D01*
X149860000Y-101600000D02*
X151002992Y-101600000D01*
D21*
G04 #@! TO.N,Net-(C3-Pad1)*
X147701000Y-81280000D02*
X149225000Y-81280000D01*
X146429378Y-81280000D02*
X147701000Y-81280000D01*
X144524378Y-79375000D02*
X146429378Y-81280000D01*
X143130000Y-79375000D02*
X144524378Y-79375000D01*
X151520000Y-81280000D02*
X151765000Y-81035000D01*
X149225000Y-81280000D02*
X151520000Y-81280000D01*
X152255000Y-81035000D02*
X154305000Y-78985000D01*
X151765000Y-81035000D02*
X152255000Y-81035000D01*
G04 #@! TO.N,MCLR*
X128905000Y-90170000D02*
X129032001Y-90042999D01*
X129032001Y-90042999D02*
X129540000Y-89535000D01*
X124460000Y-90170000D02*
X128905000Y-90170000D01*
X143130000Y-83185000D02*
X140970000Y-83185000D01*
D22*
G04 #@! TO.N,Net-(J4-Pad1)*
X122936000Y-60706000D02*
X124460000Y-62230000D01*
X122936000Y-59690000D02*
X122936000Y-60706000D01*
G04 #@! TO.N,Net-(J6-Pad1)*
X149860000Y-107950000D02*
X149860000Y-105410000D01*
D21*
G04 #@! TO.N,INPUT_A*
X155575000Y-100085000D02*
X156455000Y-100085000D01*
X156455000Y-100085000D02*
X158750000Y-97790000D01*
X158750000Y-97790000D02*
X160020000Y-97790000D01*
G04 #@! TO.N,INPUT_B*
X155575000Y-92465000D02*
X156455000Y-92465000D01*
X156455000Y-92465000D02*
X158750000Y-90170000D01*
X158750000Y-90170000D02*
X160020000Y-90170000D01*
D20*
G04 #@! TO.N,5V*
X160020000Y-72390000D02*
X152400000Y-72390000D01*
D21*
X123155999Y-86394001D02*
X123610001Y-85939999D01*
X123155999Y-91405999D02*
X123155999Y-86394001D01*
X123610001Y-85939999D02*
X124460000Y-85090000D01*
X124460000Y-92710000D02*
X123155999Y-91405999D01*
D20*
X137160000Y-107950000D02*
X137160000Y-105410000D01*
X139455000Y-90805000D02*
X139455000Y-88900000D01*
X143130000Y-86995000D02*
X141360000Y-86995000D01*
X127000000Y-87630000D02*
X124460000Y-85090000D01*
X129434682Y-87630000D02*
X127000000Y-87630000D01*
X137160000Y-105410000D02*
X137160000Y-95355318D01*
X139455000Y-93060318D02*
X139455000Y-90805000D01*
X138430000Y-94085318D02*
X135890000Y-94085318D01*
X135890000Y-94085318D02*
X129434682Y-87630000D01*
X138430000Y-94085318D02*
X139455000Y-93060318D01*
X137160000Y-95355318D02*
X135890000Y-94085318D01*
X137160000Y-95355318D02*
X138430000Y-94085318D01*
D21*
X144635000Y-71755000D02*
X144780000Y-71900000D01*
X139455000Y-73025000D02*
X139455000Y-72698000D01*
D20*
X139455000Y-73025000D02*
X139455000Y-71281570D01*
X143256000Y-72390000D02*
X143002000Y-72644000D01*
X152400000Y-72390000D02*
X143256000Y-72390000D01*
X140090000Y-87630000D02*
X139455000Y-86995000D01*
X139455000Y-86995000D02*
X139455000Y-73025000D01*
X139455000Y-88900000D02*
X139455000Y-86995000D01*
X140725000Y-87630000D02*
X139455000Y-88900000D01*
X140725000Y-87630000D02*
X140090000Y-87630000D01*
X141360000Y-86995000D02*
X140725000Y-87630000D01*
X143510022Y-72135978D02*
X143002000Y-72644000D01*
X143510022Y-71754996D02*
X143510022Y-72135978D01*
D21*
G04 #@! TO.N,32MHz*
X145415000Y-85725000D02*
X147320000Y-87630000D01*
X143130000Y-85725000D02*
X145415000Y-85725000D01*
X147320000Y-87630000D02*
X149860000Y-87630000D01*
G04 #@! TO.N,Net-(C4-Pad1)*
X145825000Y-95885000D02*
X147825000Y-93885000D01*
X145415000Y-95885000D02*
X145825000Y-95885000D01*
X147825000Y-94235000D02*
X148375000Y-94785000D01*
X147825000Y-93885000D02*
X147825000Y-94235000D01*
D20*
G04 #@! TO.N,3.3V*
X134620000Y-107950000D02*
X134620000Y-105410000D01*
X135432801Y-102057199D02*
X135890000Y-101600000D01*
X134620000Y-105410000D02*
X134620000Y-102870000D01*
X134620000Y-102870000D02*
X135432801Y-102057199D01*
D21*
X147825000Y-97535000D02*
X148375000Y-96985000D01*
X147825000Y-97885000D02*
X147825000Y-97535000D01*
D20*
X148200000Y-98260000D02*
X147825000Y-97885000D01*
X148200000Y-100330000D02*
X148200000Y-98260000D01*
X146930000Y-101600000D02*
X148200000Y-100330000D01*
X138430000Y-101600000D02*
X146930000Y-101600000D01*
D21*
G04 #@! TO.N,Net-(D1-Pad2)*
X150740000Y-78985000D02*
X149225000Y-77470000D01*
X151765000Y-78985000D02*
X150740000Y-78985000D01*
X146930000Y-77470000D02*
X146685000Y-77715000D01*
X149225000Y-77470000D02*
X146930000Y-77470000D01*
D22*
G04 #@! TO.N,Vin*
X144780000Y-107950000D02*
X144780000Y-105410000D01*
G04 #@! TO.N,Reset*
X132080000Y-107950000D02*
X132080000Y-105410000D01*
G04 #@! TO.N,Net-(J4-Pad3)*
X128016000Y-60706000D02*
X129540000Y-62230000D01*
X128016000Y-59690000D02*
X128016000Y-60706000D01*
G04 #@! TO.N,Net-(J4-Pad4)*
X130556000Y-60706000D02*
X132080000Y-62230000D01*
X130556000Y-59690000D02*
X130556000Y-60706000D01*
G04 #@! TO.N,Net-(J4-Pad5)*
X133096000Y-60706000D02*
X134620000Y-62230000D01*
X133096000Y-59690000D02*
X133096000Y-60706000D01*
G04 #@! TO.N,Net-(J4-Pad6)*
X135636000Y-60706000D02*
X137160000Y-62230000D01*
X135636000Y-59690000D02*
X135636000Y-60706000D01*
G04 #@! TO.N,Net-(J4-Pad7)*
X138176000Y-60706000D02*
X139700000Y-62230000D01*
X138176000Y-59690000D02*
X138176000Y-60706000D01*
G04 #@! TO.N,Net-(J4-Pad8)*
X140716000Y-60706000D02*
X142240000Y-62230000D01*
X140716000Y-59690000D02*
X140716000Y-60706000D01*
G04 #@! TO.N,Net-(J6-Pad2)*
X152400000Y-107950000D02*
X152400000Y-105410000D01*
G04 #@! TO.N,Net-(J6-Pad3)*
X154940000Y-107950000D02*
X154940000Y-105410000D01*
G04 #@! TO.N,Net-(J6-Pad4)*
X157480000Y-107950000D02*
X157480000Y-105410000D01*
G04 #@! TO.N,SDA*
X160020000Y-107950000D02*
X160020000Y-105410000D01*
D20*
X160020000Y-69850000D02*
X152400000Y-69850000D01*
D21*
X147320000Y-69850000D02*
X152400000Y-69850000D01*
X163195000Y-73025000D02*
X160020000Y-69850000D01*
X163195000Y-100965000D02*
X163195000Y-73025000D01*
X160020000Y-105410000D02*
X160020000Y-104140000D01*
X160020000Y-104140000D02*
X163195000Y-100965000D01*
X161255999Y-66005999D02*
X161925000Y-66675000D01*
X146084001Y-66005999D02*
X161255999Y-66005999D01*
X140970000Y-71120000D02*
X146084001Y-66005999D01*
X140970000Y-75350000D02*
X140970000Y-71120000D01*
X142455000Y-76835000D02*
X140970000Y-75350000D01*
X143130000Y-76835000D02*
X142455000Y-76835000D01*
X160869999Y-69000001D02*
X160020000Y-69850000D01*
X161925000Y-66675000D02*
X161925000Y-67945000D01*
X161925000Y-67945000D02*
X160869999Y-69000001D01*
D22*
G04 #@! TO.N,SCL*
X162560000Y-107950000D02*
X162560000Y-105410000D01*
D20*
X160020000Y-67310000D02*
X152400000Y-67310000D01*
D21*
X162560000Y-105410000D02*
X162560000Y-104140000D01*
X162560000Y-104140000D02*
X162560000Y-103505000D01*
X162560000Y-103505000D02*
X164465000Y-101600000D01*
X164465000Y-101600000D02*
X164465000Y-67945000D01*
X164465000Y-67945000D02*
X163830000Y-67310000D01*
X142039992Y-74729992D02*
X142875000Y-75565000D01*
X142039992Y-71320008D02*
X142039992Y-74729992D01*
X142875000Y-75565000D02*
X143130000Y-75565000D01*
X152400000Y-67310000D02*
X146050000Y-67310000D01*
X144780000Y-69850000D02*
X144780000Y-68580000D01*
X146050000Y-67310000D02*
X144780000Y-68580000D01*
X144780000Y-68580000D02*
X142039992Y-71320008D01*
D22*
G04 #@! TO.N,Net-(J8-Pad1)*
X144780000Y-62230000D02*
X144780000Y-59690000D01*
G04 #@! TO.N,Net-(J8-Pad2)*
X147320000Y-62230000D02*
X147320000Y-59690000D01*
G04 #@! TO.N,Net-(J8-Pad3)*
X149860000Y-62230000D02*
X149860000Y-59690000D01*
G04 #@! TO.N,Net-(J8-Pad4)*
X152400000Y-62230000D02*
X152400000Y-59690000D01*
G04 #@! TO.N,Net-(J8-Pad5)*
X154940000Y-62230000D02*
X154940000Y-59690000D01*
G04 #@! TO.N,Net-(J8-Pad6)*
X157480000Y-62230000D02*
X157480000Y-59690000D01*
G04 #@! TO.N,ARD_RX*
X162560000Y-59690000D02*
X162560000Y-62230000D01*
D21*
X159639000Y-65151000D02*
X162560000Y-62230000D01*
X136280000Y-69215000D02*
X140344000Y-65151000D01*
X140344000Y-65151000D02*
X159639000Y-65151000D01*
D22*
G04 #@! TO.N,ARD_TX*
X160020000Y-62230000D02*
X160020000Y-59690000D01*
D21*
X157988000Y-64262000D02*
X160020000Y-62230000D01*
X139758000Y-64262000D02*
X157988000Y-64262000D01*
X137345000Y-66675000D02*
X139758000Y-64262000D01*
X136280000Y-66675000D02*
X137345000Y-66675000D01*
G04 #@! TO.N,INPUT_ZCD*
X161045000Y-81525000D02*
X160020000Y-82550000D01*
X161045000Y-78740000D02*
X161045000Y-81525000D01*
G04 #@! TO.N,RS*
X128143000Y-73533000D02*
X124460000Y-69850000D01*
X133730000Y-78105000D02*
X132247000Y-78105000D01*
X128143000Y-74001000D02*
X128143000Y-73533000D01*
X132247000Y-78105000D02*
X128143000Y-74001000D01*
G04 #@! TO.N,E*
X131445000Y-79375000D02*
X124460000Y-72390000D01*
X133730000Y-79375000D02*
X131445000Y-79375000D01*
G04 #@! TO.N,D4*
X130175000Y-80645000D02*
X124460000Y-74930000D01*
X133730000Y-80645000D02*
X130175000Y-80645000D01*
G04 #@! TO.N,D5*
X128905000Y-81915000D02*
X124460000Y-77470000D01*
X133730000Y-81915000D02*
X128905000Y-81915000D01*
G04 #@! TO.N,Net-(R1-Pad2)*
X137160000Y-75096852D02*
X137160000Y-74378432D01*
X137160000Y-80430000D02*
X137160000Y-75096852D01*
X134405000Y-83185000D02*
X137160000Y-80430000D01*
X133730000Y-83185000D02*
X134405000Y-83185000D01*
X156489001Y-76234001D02*
X158995000Y-78740000D01*
X151164001Y-76234001D02*
X156489001Y-76234001D01*
X145415012Y-74295000D02*
X149225000Y-74295000D01*
X149225000Y-74295000D02*
X151164001Y-76234001D01*
G04 #@! TO.N,Net-(R2-Pad2)*
X131445000Y-69460000D02*
X134230000Y-66675000D01*
X131445000Y-75565000D02*
X131445000Y-69460000D01*
X133730000Y-76835000D02*
X132715000Y-76835000D01*
X132715000Y-76835000D02*
X131445000Y-75565000D01*
G04 #@! TO.N,Net-(R3-Pad1)*
X145025000Y-78105000D02*
X146685000Y-79765000D01*
X143130000Y-78105000D02*
X145025000Y-78105000D01*
G04 #@! TO.N,Net-(R7-Pad2)*
X133730000Y-75565000D02*
X133350000Y-75565000D01*
X133350000Y-75565000D02*
X132715000Y-74930000D01*
X132715000Y-70730000D02*
X134230000Y-69215000D01*
X132715000Y-74930000D02*
X132715000Y-70730000D01*
G04 #@! TO.N,Net-(R8-Pad1)*
X150495000Y-83820000D02*
X146518000Y-83820000D01*
X154060000Y-87385000D02*
X150495000Y-83820000D01*
X144613000Y-81915000D02*
X143130000Y-81915000D01*
X146518000Y-83820000D02*
X144613000Y-81915000D01*
X155575000Y-98035000D02*
X154060000Y-96520000D01*
X154060000Y-96520000D02*
X154060000Y-87385000D01*
G04 #@! TO.N,Net-(R9-Pad1)*
X155575000Y-86995000D02*
X155575000Y-90415000D01*
X151384000Y-82804000D02*
X155575000Y-86995000D01*
X146772000Y-82804000D02*
X151384000Y-82804000D01*
X143130000Y-80645000D02*
X144613000Y-80645000D01*
X144613000Y-80645000D02*
X146772000Y-82804000D01*
G04 #@! TO.N,Net-(C4-Pad2)*
X145415000Y-92075000D02*
X147320000Y-90170000D01*
X145415000Y-93835000D02*
X145415000Y-92075000D01*
G04 #@! TO.N,D7*
X127635000Y-85725000D02*
X124460000Y-82550000D01*
X133730000Y-85725000D02*
X127635000Y-85725000D01*
X123610001Y-83399999D02*
X124460000Y-82550000D01*
X122301000Y-84709000D02*
X123610001Y-83399999D01*
X124460000Y-97790000D02*
X122301000Y-95631000D01*
X122301000Y-95631000D02*
X122301000Y-84709000D01*
G04 #@! TO.N,D6*
X128905000Y-84455000D02*
X124460000Y-80010000D01*
X133730000Y-84455000D02*
X128905000Y-84455000D01*
X123610001Y-80859999D02*
X124460000Y-80010000D01*
X121539000Y-82931000D02*
X123610001Y-80859999D01*
X124460000Y-100330000D02*
X121539000Y-97409000D01*
X121539000Y-97409000D02*
X121539000Y-82931000D01*
G04 #@! TD*
M02*
