G04 #@! TF.GenerationSoftware,KiCad,Pcbnew,(5.0.1)-4*
G04 #@! TF.CreationDate,2020-04-19T23:52:33+02:00*
G04 #@! TF.ProjectId,Freqmeter_16F18446,467265716D657465725F313646313834,R2*
G04 #@! TF.SameCoordinates,Original*
G04 #@! TF.FileFunction,Copper,L1,Top,Signal*
G04 #@! TF.FilePolarity,Positive*
%FSLAX46Y46*%
G04 Gerber Fmt 4.6, Leading zero omitted, Abs format (unit mm)*
G04 Created by KiCad (PCBNEW (5.0.1)-4) date 19/04/2020 23:52:33*
%MOMM*%
%LPD*%
G01*
G04 APERTURE LIST*
G04 #@! TA.AperFunction,SMDPad,CuDef*
%ADD10R,0.900000X1.200000*%
G04 #@! TD*
G04 #@! TA.AperFunction,SMDPad,CuDef*
%ADD11R,2.100000X1.200000*%
G04 #@! TD*
G04 #@! TA.AperFunction,SMDPad,CuDef*
%ADD12R,2.500000X4.000000*%
G04 #@! TD*
G04 #@! TA.AperFunction,ComponentPad*
%ADD13C,6.096000*%
G04 #@! TD*
G04 #@! TA.AperFunction,ComponentPad*
%ADD14O,1.700000X1.700000*%
G04 #@! TD*
G04 #@! TA.AperFunction,ComponentPad*
%ADD15R,1.700000X1.700000*%
G04 #@! TD*
G04 #@! TA.AperFunction,Conductor*
%ADD16C,0.100000*%
G04 #@! TD*
G04 #@! TA.AperFunction,SMDPad,CuDef*
%ADD17C,1.150000*%
G04 #@! TD*
G04 #@! TA.AperFunction,SMDPad,CuDef*
%ADD18R,1.950000X0.600000*%
G04 #@! TD*
G04 #@! TA.AperFunction,ComponentPad*
%ADD19C,1.500000*%
G04 #@! TD*
G04 #@! TA.AperFunction,ComponentPad*
%ADD20C,1.400000*%
G04 #@! TD*
G04 #@! TA.AperFunction,SMDPad,CuDef*
%ADD21R,1.500000X0.600000*%
G04 #@! TD*
G04 #@! TA.AperFunction,ViaPad*
%ADD22C,0.800000*%
G04 #@! TD*
G04 #@! TA.AperFunction,ViaPad*
%ADD23C,0.889000*%
G04 #@! TD*
G04 #@! TA.AperFunction,Conductor*
%ADD24C,0.381000*%
G04 #@! TD*
G04 #@! TA.AperFunction,Conductor*
%ADD25C,0.635000*%
G04 #@! TD*
G04 #@! TA.AperFunction,Conductor*
%ADD26C,0.762000*%
G04 #@! TD*
G04 #@! TA.AperFunction,Conductor*
%ADD27C,0.254000*%
G04 #@! TD*
G04 APERTURE END LIST*
D10*
G04 #@! TO.P,D1,1*
G04 #@! TO.N,Net-(D1-Pad1)*
X107190000Y-48260000D03*
G04 #@! TO.P,D1,2*
G04 #@! TO.N,MCLR*
X110490000Y-48260000D03*
G04 #@! TD*
D11*
G04 #@! TO.P,U2,GND*
G04 #@! TO.N,GND*
X177292000Y-44196000D03*
G04 #@! TO.P,U2,VI*
G04 #@! TO.N,Net-(C8-Pad1)*
X177292000Y-39624000D03*
G04 #@! TO.P,U2,VO*
G04 #@! TO.N,VDD*
X177292000Y-41910000D03*
D12*
X170790000Y-41910000D03*
G04 #@! TD*
D13*
G04 #@! TO.P,M3,*
G04 #@! TO.N,*
X183515000Y-64135000D03*
G04 #@! TD*
G04 #@! TO.P,M3,*
G04 #@! TO.N,*
X183515000Y-33020000D03*
G04 #@! TD*
G04 #@! TO.P,M3,*
G04 #@! TO.N,*
X108585000Y-33020000D03*
G04 #@! TD*
D14*
G04 #@! TO.P,J1,5*
G04 #@! TO.N,PGC*
X101600000Y-54610000D03*
G04 #@! TO.P,J1,4*
G04 #@! TO.N,PGD*
X101600000Y-57150000D03*
G04 #@! TO.P,J1,3*
G04 #@! TO.N,GND*
X101600000Y-59690000D03*
G04 #@! TO.P,J1,2*
G04 #@! TO.N,VDD*
X101600000Y-62230000D03*
D15*
G04 #@! TO.P,J1,1*
G04 #@! TO.N,MCLR*
X101600000Y-64770000D03*
G04 #@! TD*
D16*
G04 #@! TO.N,CLKOUT*
G04 #@! TO.C,R8*
G36*
X139024505Y-55181204D02*
X139048773Y-55184804D01*
X139072572Y-55190765D01*
X139095671Y-55199030D01*
X139117850Y-55209520D01*
X139138893Y-55222132D01*
X139158599Y-55236747D01*
X139176777Y-55253223D01*
X139193253Y-55271401D01*
X139207868Y-55291107D01*
X139220480Y-55312150D01*
X139230970Y-55334329D01*
X139239235Y-55357428D01*
X139245196Y-55381227D01*
X139248796Y-55405495D01*
X139250000Y-55429999D01*
X139250000Y-56330001D01*
X139248796Y-56354505D01*
X139245196Y-56378773D01*
X139239235Y-56402572D01*
X139230970Y-56425671D01*
X139220480Y-56447850D01*
X139207868Y-56468893D01*
X139193253Y-56488599D01*
X139176777Y-56506777D01*
X139158599Y-56523253D01*
X139138893Y-56537868D01*
X139117850Y-56550480D01*
X139095671Y-56560970D01*
X139072572Y-56569235D01*
X139048773Y-56575196D01*
X139024505Y-56578796D01*
X139000001Y-56580000D01*
X138349999Y-56580000D01*
X138325495Y-56578796D01*
X138301227Y-56575196D01*
X138277428Y-56569235D01*
X138254329Y-56560970D01*
X138232150Y-56550480D01*
X138211107Y-56537868D01*
X138191401Y-56523253D01*
X138173223Y-56506777D01*
X138156747Y-56488599D01*
X138142132Y-56468893D01*
X138129520Y-56447850D01*
X138119030Y-56425671D01*
X138110765Y-56402572D01*
X138104804Y-56378773D01*
X138101204Y-56354505D01*
X138100000Y-56330001D01*
X138100000Y-55429999D01*
X138101204Y-55405495D01*
X138104804Y-55381227D01*
X138110765Y-55357428D01*
X138119030Y-55334329D01*
X138129520Y-55312150D01*
X138142132Y-55291107D01*
X138156747Y-55271401D01*
X138173223Y-55253223D01*
X138191401Y-55236747D01*
X138211107Y-55222132D01*
X138232150Y-55209520D01*
X138254329Y-55199030D01*
X138277428Y-55190765D01*
X138301227Y-55184804D01*
X138325495Y-55181204D01*
X138349999Y-55180000D01*
X139000001Y-55180000D01*
X139024505Y-55181204D01*
X139024505Y-55181204D01*
G37*
D17*
G04 #@! TD*
G04 #@! TO.P,R8,1*
G04 #@! TO.N,CLKOUT*
X138675000Y-55880000D03*
D16*
G04 #@! TO.N,Net-(C3-Pad1)*
G04 #@! TO.C,R8*
G36*
X141074505Y-55181204D02*
X141098773Y-55184804D01*
X141122572Y-55190765D01*
X141145671Y-55199030D01*
X141167850Y-55209520D01*
X141188893Y-55222132D01*
X141208599Y-55236747D01*
X141226777Y-55253223D01*
X141243253Y-55271401D01*
X141257868Y-55291107D01*
X141270480Y-55312150D01*
X141280970Y-55334329D01*
X141289235Y-55357428D01*
X141295196Y-55381227D01*
X141298796Y-55405495D01*
X141300000Y-55429999D01*
X141300000Y-56330001D01*
X141298796Y-56354505D01*
X141295196Y-56378773D01*
X141289235Y-56402572D01*
X141280970Y-56425671D01*
X141270480Y-56447850D01*
X141257868Y-56468893D01*
X141243253Y-56488599D01*
X141226777Y-56506777D01*
X141208599Y-56523253D01*
X141188893Y-56537868D01*
X141167850Y-56550480D01*
X141145671Y-56560970D01*
X141122572Y-56569235D01*
X141098773Y-56575196D01*
X141074505Y-56578796D01*
X141050001Y-56580000D01*
X140399999Y-56580000D01*
X140375495Y-56578796D01*
X140351227Y-56575196D01*
X140327428Y-56569235D01*
X140304329Y-56560970D01*
X140282150Y-56550480D01*
X140261107Y-56537868D01*
X140241401Y-56523253D01*
X140223223Y-56506777D01*
X140206747Y-56488599D01*
X140192132Y-56468893D01*
X140179520Y-56447850D01*
X140169030Y-56425671D01*
X140160765Y-56402572D01*
X140154804Y-56378773D01*
X140151204Y-56354505D01*
X140150000Y-56330001D01*
X140150000Y-55429999D01*
X140151204Y-55405495D01*
X140154804Y-55381227D01*
X140160765Y-55357428D01*
X140169030Y-55334329D01*
X140179520Y-55312150D01*
X140192132Y-55291107D01*
X140206747Y-55271401D01*
X140223223Y-55253223D01*
X140241401Y-55236747D01*
X140261107Y-55222132D01*
X140282150Y-55209520D01*
X140304329Y-55199030D01*
X140327428Y-55190765D01*
X140351227Y-55184804D01*
X140375495Y-55181204D01*
X140399999Y-55180000D01*
X141050001Y-55180000D01*
X141074505Y-55181204D01*
X141074505Y-55181204D01*
G37*
D17*
G04 #@! TD*
G04 #@! TO.P,R8,2*
G04 #@! TO.N,Net-(C3-Pad1)*
X140725000Y-55880000D03*
D16*
G04 #@! TO.N,GND*
G04 #@! TO.C,C1*
G36*
X137364505Y-46926204D02*
X137388773Y-46929804D01*
X137412572Y-46935765D01*
X137435671Y-46944030D01*
X137457850Y-46954520D01*
X137478893Y-46967132D01*
X137498599Y-46981747D01*
X137516777Y-46998223D01*
X137533253Y-47016401D01*
X137547868Y-47036107D01*
X137560480Y-47057150D01*
X137570970Y-47079329D01*
X137579235Y-47102428D01*
X137585196Y-47126227D01*
X137588796Y-47150495D01*
X137590000Y-47174999D01*
X137590000Y-48075001D01*
X137588796Y-48099505D01*
X137585196Y-48123773D01*
X137579235Y-48147572D01*
X137570970Y-48170671D01*
X137560480Y-48192850D01*
X137547868Y-48213893D01*
X137533253Y-48233599D01*
X137516777Y-48251777D01*
X137498599Y-48268253D01*
X137478893Y-48282868D01*
X137457850Y-48295480D01*
X137435671Y-48305970D01*
X137412572Y-48314235D01*
X137388773Y-48320196D01*
X137364505Y-48323796D01*
X137340001Y-48325000D01*
X136689999Y-48325000D01*
X136665495Y-48323796D01*
X136641227Y-48320196D01*
X136617428Y-48314235D01*
X136594329Y-48305970D01*
X136572150Y-48295480D01*
X136551107Y-48282868D01*
X136531401Y-48268253D01*
X136513223Y-48251777D01*
X136496747Y-48233599D01*
X136482132Y-48213893D01*
X136469520Y-48192850D01*
X136459030Y-48170671D01*
X136450765Y-48147572D01*
X136444804Y-48123773D01*
X136441204Y-48099505D01*
X136440000Y-48075001D01*
X136440000Y-47174999D01*
X136441204Y-47150495D01*
X136444804Y-47126227D01*
X136450765Y-47102428D01*
X136459030Y-47079329D01*
X136469520Y-47057150D01*
X136482132Y-47036107D01*
X136496747Y-47016401D01*
X136513223Y-46998223D01*
X136531401Y-46981747D01*
X136551107Y-46967132D01*
X136572150Y-46954520D01*
X136594329Y-46944030D01*
X136617428Y-46935765D01*
X136641227Y-46929804D01*
X136665495Y-46926204D01*
X136689999Y-46925000D01*
X137340001Y-46925000D01*
X137364505Y-46926204D01*
X137364505Y-46926204D01*
G37*
D17*
G04 #@! TD*
G04 #@! TO.P,C1,2*
G04 #@! TO.N,GND*
X137015000Y-47625000D03*
D16*
G04 #@! TO.N,DTIME*
G04 #@! TO.C,C1*
G36*
X139414505Y-46926204D02*
X139438773Y-46929804D01*
X139462572Y-46935765D01*
X139485671Y-46944030D01*
X139507850Y-46954520D01*
X139528893Y-46967132D01*
X139548599Y-46981747D01*
X139566777Y-46998223D01*
X139583253Y-47016401D01*
X139597868Y-47036107D01*
X139610480Y-47057150D01*
X139620970Y-47079329D01*
X139629235Y-47102428D01*
X139635196Y-47126227D01*
X139638796Y-47150495D01*
X139640000Y-47174999D01*
X139640000Y-48075001D01*
X139638796Y-48099505D01*
X139635196Y-48123773D01*
X139629235Y-48147572D01*
X139620970Y-48170671D01*
X139610480Y-48192850D01*
X139597868Y-48213893D01*
X139583253Y-48233599D01*
X139566777Y-48251777D01*
X139548599Y-48268253D01*
X139528893Y-48282868D01*
X139507850Y-48295480D01*
X139485671Y-48305970D01*
X139462572Y-48314235D01*
X139438773Y-48320196D01*
X139414505Y-48323796D01*
X139390001Y-48325000D01*
X138739999Y-48325000D01*
X138715495Y-48323796D01*
X138691227Y-48320196D01*
X138667428Y-48314235D01*
X138644329Y-48305970D01*
X138622150Y-48295480D01*
X138601107Y-48282868D01*
X138581401Y-48268253D01*
X138563223Y-48251777D01*
X138546747Y-48233599D01*
X138532132Y-48213893D01*
X138519520Y-48192850D01*
X138509030Y-48170671D01*
X138500765Y-48147572D01*
X138494804Y-48123773D01*
X138491204Y-48099505D01*
X138490000Y-48075001D01*
X138490000Y-47174999D01*
X138491204Y-47150495D01*
X138494804Y-47126227D01*
X138500765Y-47102428D01*
X138509030Y-47079329D01*
X138519520Y-47057150D01*
X138532132Y-47036107D01*
X138546747Y-47016401D01*
X138563223Y-46998223D01*
X138581401Y-46981747D01*
X138601107Y-46967132D01*
X138622150Y-46954520D01*
X138644329Y-46944030D01*
X138667428Y-46935765D01*
X138691227Y-46929804D01*
X138715495Y-46926204D01*
X138739999Y-46925000D01*
X139390001Y-46925000D01*
X139414505Y-46926204D01*
X139414505Y-46926204D01*
G37*
D17*
G04 #@! TD*
G04 #@! TO.P,C1,1*
G04 #@! TO.N,DTIME*
X139065000Y-47625000D03*
D16*
G04 #@! TO.N,GND*
G04 #@! TO.C,C2*
G36*
X136729505Y-63436204D02*
X136753773Y-63439804D01*
X136777572Y-63445765D01*
X136800671Y-63454030D01*
X136822850Y-63464520D01*
X136843893Y-63477132D01*
X136863599Y-63491747D01*
X136881777Y-63508223D01*
X136898253Y-63526401D01*
X136912868Y-63546107D01*
X136925480Y-63567150D01*
X136935970Y-63589329D01*
X136944235Y-63612428D01*
X136950196Y-63636227D01*
X136953796Y-63660495D01*
X136955000Y-63684999D01*
X136955000Y-64585001D01*
X136953796Y-64609505D01*
X136950196Y-64633773D01*
X136944235Y-64657572D01*
X136935970Y-64680671D01*
X136925480Y-64702850D01*
X136912868Y-64723893D01*
X136898253Y-64743599D01*
X136881777Y-64761777D01*
X136863599Y-64778253D01*
X136843893Y-64792868D01*
X136822850Y-64805480D01*
X136800671Y-64815970D01*
X136777572Y-64824235D01*
X136753773Y-64830196D01*
X136729505Y-64833796D01*
X136705001Y-64835000D01*
X136054999Y-64835000D01*
X136030495Y-64833796D01*
X136006227Y-64830196D01*
X135982428Y-64824235D01*
X135959329Y-64815970D01*
X135937150Y-64805480D01*
X135916107Y-64792868D01*
X135896401Y-64778253D01*
X135878223Y-64761777D01*
X135861747Y-64743599D01*
X135847132Y-64723893D01*
X135834520Y-64702850D01*
X135824030Y-64680671D01*
X135815765Y-64657572D01*
X135809804Y-64633773D01*
X135806204Y-64609505D01*
X135805000Y-64585001D01*
X135805000Y-63684999D01*
X135806204Y-63660495D01*
X135809804Y-63636227D01*
X135815765Y-63612428D01*
X135824030Y-63589329D01*
X135834520Y-63567150D01*
X135847132Y-63546107D01*
X135861747Y-63526401D01*
X135878223Y-63508223D01*
X135896401Y-63491747D01*
X135916107Y-63477132D01*
X135937150Y-63464520D01*
X135959329Y-63454030D01*
X135982428Y-63445765D01*
X136006227Y-63439804D01*
X136030495Y-63436204D01*
X136054999Y-63435000D01*
X136705001Y-63435000D01*
X136729505Y-63436204D01*
X136729505Y-63436204D01*
G37*
D17*
G04 #@! TD*
G04 #@! TO.P,C2,2*
G04 #@! TO.N,GND*
X136380000Y-64135000D03*
D16*
G04 #@! TO.N,CLKIN2*
G04 #@! TO.C,C2*
G36*
X138779505Y-63436204D02*
X138803773Y-63439804D01*
X138827572Y-63445765D01*
X138850671Y-63454030D01*
X138872850Y-63464520D01*
X138893893Y-63477132D01*
X138913599Y-63491747D01*
X138931777Y-63508223D01*
X138948253Y-63526401D01*
X138962868Y-63546107D01*
X138975480Y-63567150D01*
X138985970Y-63589329D01*
X138994235Y-63612428D01*
X139000196Y-63636227D01*
X139003796Y-63660495D01*
X139005000Y-63684999D01*
X139005000Y-64585001D01*
X139003796Y-64609505D01*
X139000196Y-64633773D01*
X138994235Y-64657572D01*
X138985970Y-64680671D01*
X138975480Y-64702850D01*
X138962868Y-64723893D01*
X138948253Y-64743599D01*
X138931777Y-64761777D01*
X138913599Y-64778253D01*
X138893893Y-64792868D01*
X138872850Y-64805480D01*
X138850671Y-64815970D01*
X138827572Y-64824235D01*
X138803773Y-64830196D01*
X138779505Y-64833796D01*
X138755001Y-64835000D01*
X138104999Y-64835000D01*
X138080495Y-64833796D01*
X138056227Y-64830196D01*
X138032428Y-64824235D01*
X138009329Y-64815970D01*
X137987150Y-64805480D01*
X137966107Y-64792868D01*
X137946401Y-64778253D01*
X137928223Y-64761777D01*
X137911747Y-64743599D01*
X137897132Y-64723893D01*
X137884520Y-64702850D01*
X137874030Y-64680671D01*
X137865765Y-64657572D01*
X137859804Y-64633773D01*
X137856204Y-64609505D01*
X137855000Y-64585001D01*
X137855000Y-63684999D01*
X137856204Y-63660495D01*
X137859804Y-63636227D01*
X137865765Y-63612428D01*
X137874030Y-63589329D01*
X137884520Y-63567150D01*
X137897132Y-63546107D01*
X137911747Y-63526401D01*
X137928223Y-63508223D01*
X137946401Y-63491747D01*
X137966107Y-63477132D01*
X137987150Y-63464520D01*
X138009329Y-63454030D01*
X138032428Y-63445765D01*
X138056227Y-63439804D01*
X138080495Y-63436204D01*
X138104999Y-63435000D01*
X138755001Y-63435000D01*
X138779505Y-63436204D01*
X138779505Y-63436204D01*
G37*
D17*
G04 #@! TD*
G04 #@! TO.P,C2,1*
G04 #@! TO.N,CLKIN2*
X138430000Y-64135000D03*
D16*
G04 #@! TO.N,Net-(C3-Pad1)*
G04 #@! TO.C,C3*
G36*
X141174505Y-63436204D02*
X141198773Y-63439804D01*
X141222572Y-63445765D01*
X141245671Y-63454030D01*
X141267850Y-63464520D01*
X141288893Y-63477132D01*
X141308599Y-63491747D01*
X141326777Y-63508223D01*
X141343253Y-63526401D01*
X141357868Y-63546107D01*
X141370480Y-63567150D01*
X141380970Y-63589329D01*
X141389235Y-63612428D01*
X141395196Y-63636227D01*
X141398796Y-63660495D01*
X141400000Y-63684999D01*
X141400000Y-64585001D01*
X141398796Y-64609505D01*
X141395196Y-64633773D01*
X141389235Y-64657572D01*
X141380970Y-64680671D01*
X141370480Y-64702850D01*
X141357868Y-64723893D01*
X141343253Y-64743599D01*
X141326777Y-64761777D01*
X141308599Y-64778253D01*
X141288893Y-64792868D01*
X141267850Y-64805480D01*
X141245671Y-64815970D01*
X141222572Y-64824235D01*
X141198773Y-64830196D01*
X141174505Y-64833796D01*
X141150001Y-64835000D01*
X140499999Y-64835000D01*
X140475495Y-64833796D01*
X140451227Y-64830196D01*
X140427428Y-64824235D01*
X140404329Y-64815970D01*
X140382150Y-64805480D01*
X140361107Y-64792868D01*
X140341401Y-64778253D01*
X140323223Y-64761777D01*
X140306747Y-64743599D01*
X140292132Y-64723893D01*
X140279520Y-64702850D01*
X140269030Y-64680671D01*
X140260765Y-64657572D01*
X140254804Y-64633773D01*
X140251204Y-64609505D01*
X140250000Y-64585001D01*
X140250000Y-63684999D01*
X140251204Y-63660495D01*
X140254804Y-63636227D01*
X140260765Y-63612428D01*
X140269030Y-63589329D01*
X140279520Y-63567150D01*
X140292132Y-63546107D01*
X140306747Y-63526401D01*
X140323223Y-63508223D01*
X140341401Y-63491747D01*
X140361107Y-63477132D01*
X140382150Y-63464520D01*
X140404329Y-63454030D01*
X140427428Y-63445765D01*
X140451227Y-63439804D01*
X140475495Y-63436204D01*
X140499999Y-63435000D01*
X141150001Y-63435000D01*
X141174505Y-63436204D01*
X141174505Y-63436204D01*
G37*
D17*
G04 #@! TD*
G04 #@! TO.P,C3,1*
G04 #@! TO.N,Net-(C3-Pad1)*
X140825000Y-64135000D03*
D16*
G04 #@! TO.N,GND*
G04 #@! TO.C,C3*
G36*
X143224505Y-63436204D02*
X143248773Y-63439804D01*
X143272572Y-63445765D01*
X143295671Y-63454030D01*
X143317850Y-63464520D01*
X143338893Y-63477132D01*
X143358599Y-63491747D01*
X143376777Y-63508223D01*
X143393253Y-63526401D01*
X143407868Y-63546107D01*
X143420480Y-63567150D01*
X143430970Y-63589329D01*
X143439235Y-63612428D01*
X143445196Y-63636227D01*
X143448796Y-63660495D01*
X143450000Y-63684999D01*
X143450000Y-64585001D01*
X143448796Y-64609505D01*
X143445196Y-64633773D01*
X143439235Y-64657572D01*
X143430970Y-64680671D01*
X143420480Y-64702850D01*
X143407868Y-64723893D01*
X143393253Y-64743599D01*
X143376777Y-64761777D01*
X143358599Y-64778253D01*
X143338893Y-64792868D01*
X143317850Y-64805480D01*
X143295671Y-64815970D01*
X143272572Y-64824235D01*
X143248773Y-64830196D01*
X143224505Y-64833796D01*
X143200001Y-64835000D01*
X142549999Y-64835000D01*
X142525495Y-64833796D01*
X142501227Y-64830196D01*
X142477428Y-64824235D01*
X142454329Y-64815970D01*
X142432150Y-64805480D01*
X142411107Y-64792868D01*
X142391401Y-64778253D01*
X142373223Y-64761777D01*
X142356747Y-64743599D01*
X142342132Y-64723893D01*
X142329520Y-64702850D01*
X142319030Y-64680671D01*
X142310765Y-64657572D01*
X142304804Y-64633773D01*
X142301204Y-64609505D01*
X142300000Y-64585001D01*
X142300000Y-63684999D01*
X142301204Y-63660495D01*
X142304804Y-63636227D01*
X142310765Y-63612428D01*
X142319030Y-63589329D01*
X142329520Y-63567150D01*
X142342132Y-63546107D01*
X142356747Y-63526401D01*
X142373223Y-63508223D01*
X142391401Y-63491747D01*
X142411107Y-63477132D01*
X142432150Y-63464520D01*
X142454329Y-63454030D01*
X142477428Y-63445765D01*
X142501227Y-63439804D01*
X142525495Y-63436204D01*
X142549999Y-63435000D01*
X143200001Y-63435000D01*
X143224505Y-63436204D01*
X143224505Y-63436204D01*
G37*
D17*
G04 #@! TD*
G04 #@! TO.P,C3,2*
G04 #@! TO.N,GND*
X142875000Y-64135000D03*
D16*
G04 #@! TO.N,MCLR*
G04 #@! TO.C,C4*
G36*
X110349505Y-52641204D02*
X110373773Y-52644804D01*
X110397572Y-52650765D01*
X110420671Y-52659030D01*
X110442850Y-52669520D01*
X110463893Y-52682132D01*
X110483599Y-52696747D01*
X110501777Y-52713223D01*
X110518253Y-52731401D01*
X110532868Y-52751107D01*
X110545480Y-52772150D01*
X110555970Y-52794329D01*
X110564235Y-52817428D01*
X110570196Y-52841227D01*
X110573796Y-52865495D01*
X110575000Y-52889999D01*
X110575000Y-53790001D01*
X110573796Y-53814505D01*
X110570196Y-53838773D01*
X110564235Y-53862572D01*
X110555970Y-53885671D01*
X110545480Y-53907850D01*
X110532868Y-53928893D01*
X110518253Y-53948599D01*
X110501777Y-53966777D01*
X110483599Y-53983253D01*
X110463893Y-53997868D01*
X110442850Y-54010480D01*
X110420671Y-54020970D01*
X110397572Y-54029235D01*
X110373773Y-54035196D01*
X110349505Y-54038796D01*
X110325001Y-54040000D01*
X109674999Y-54040000D01*
X109650495Y-54038796D01*
X109626227Y-54035196D01*
X109602428Y-54029235D01*
X109579329Y-54020970D01*
X109557150Y-54010480D01*
X109536107Y-53997868D01*
X109516401Y-53983253D01*
X109498223Y-53966777D01*
X109481747Y-53948599D01*
X109467132Y-53928893D01*
X109454520Y-53907850D01*
X109444030Y-53885671D01*
X109435765Y-53862572D01*
X109429804Y-53838773D01*
X109426204Y-53814505D01*
X109425000Y-53790001D01*
X109425000Y-52889999D01*
X109426204Y-52865495D01*
X109429804Y-52841227D01*
X109435765Y-52817428D01*
X109444030Y-52794329D01*
X109454520Y-52772150D01*
X109467132Y-52751107D01*
X109481747Y-52731401D01*
X109498223Y-52713223D01*
X109516401Y-52696747D01*
X109536107Y-52682132D01*
X109557150Y-52669520D01*
X109579329Y-52659030D01*
X109602428Y-52650765D01*
X109626227Y-52644804D01*
X109650495Y-52641204D01*
X109674999Y-52640000D01*
X110325001Y-52640000D01*
X110349505Y-52641204D01*
X110349505Y-52641204D01*
G37*
D17*
G04 #@! TD*
G04 #@! TO.P,C4,1*
G04 #@! TO.N,MCLR*
X110000000Y-53340000D03*
D16*
G04 #@! TO.N,GND*
G04 #@! TO.C,C4*
G36*
X108299505Y-52641204D02*
X108323773Y-52644804D01*
X108347572Y-52650765D01*
X108370671Y-52659030D01*
X108392850Y-52669520D01*
X108413893Y-52682132D01*
X108433599Y-52696747D01*
X108451777Y-52713223D01*
X108468253Y-52731401D01*
X108482868Y-52751107D01*
X108495480Y-52772150D01*
X108505970Y-52794329D01*
X108514235Y-52817428D01*
X108520196Y-52841227D01*
X108523796Y-52865495D01*
X108525000Y-52889999D01*
X108525000Y-53790001D01*
X108523796Y-53814505D01*
X108520196Y-53838773D01*
X108514235Y-53862572D01*
X108505970Y-53885671D01*
X108495480Y-53907850D01*
X108482868Y-53928893D01*
X108468253Y-53948599D01*
X108451777Y-53966777D01*
X108433599Y-53983253D01*
X108413893Y-53997868D01*
X108392850Y-54010480D01*
X108370671Y-54020970D01*
X108347572Y-54029235D01*
X108323773Y-54035196D01*
X108299505Y-54038796D01*
X108275001Y-54040000D01*
X107624999Y-54040000D01*
X107600495Y-54038796D01*
X107576227Y-54035196D01*
X107552428Y-54029235D01*
X107529329Y-54020970D01*
X107507150Y-54010480D01*
X107486107Y-53997868D01*
X107466401Y-53983253D01*
X107448223Y-53966777D01*
X107431747Y-53948599D01*
X107417132Y-53928893D01*
X107404520Y-53907850D01*
X107394030Y-53885671D01*
X107385765Y-53862572D01*
X107379804Y-53838773D01*
X107376204Y-53814505D01*
X107375000Y-53790001D01*
X107375000Y-52889999D01*
X107376204Y-52865495D01*
X107379804Y-52841227D01*
X107385765Y-52817428D01*
X107394030Y-52794329D01*
X107404520Y-52772150D01*
X107417132Y-52751107D01*
X107431747Y-52731401D01*
X107448223Y-52713223D01*
X107466401Y-52696747D01*
X107486107Y-52682132D01*
X107507150Y-52669520D01*
X107529329Y-52659030D01*
X107552428Y-52650765D01*
X107576227Y-52644804D01*
X107600495Y-52641204D01*
X107624999Y-52640000D01*
X108275001Y-52640000D01*
X108299505Y-52641204D01*
X108299505Y-52641204D01*
G37*
D17*
G04 #@! TD*
G04 #@! TO.P,C4,2*
G04 #@! TO.N,GND*
X107950000Y-53340000D03*
D16*
G04 #@! TO.N,VDD*
G04 #@! TO.C,C5*
G36*
X128619505Y-62166204D02*
X128643773Y-62169804D01*
X128667572Y-62175765D01*
X128690671Y-62184030D01*
X128712850Y-62194520D01*
X128733893Y-62207132D01*
X128753599Y-62221747D01*
X128771777Y-62238223D01*
X128788253Y-62256401D01*
X128802868Y-62276107D01*
X128815480Y-62297150D01*
X128825970Y-62319329D01*
X128834235Y-62342428D01*
X128840196Y-62366227D01*
X128843796Y-62390495D01*
X128845000Y-62414999D01*
X128845000Y-63315001D01*
X128843796Y-63339505D01*
X128840196Y-63363773D01*
X128834235Y-63387572D01*
X128825970Y-63410671D01*
X128815480Y-63432850D01*
X128802868Y-63453893D01*
X128788253Y-63473599D01*
X128771777Y-63491777D01*
X128753599Y-63508253D01*
X128733893Y-63522868D01*
X128712850Y-63535480D01*
X128690671Y-63545970D01*
X128667572Y-63554235D01*
X128643773Y-63560196D01*
X128619505Y-63563796D01*
X128595001Y-63565000D01*
X127944999Y-63565000D01*
X127920495Y-63563796D01*
X127896227Y-63560196D01*
X127872428Y-63554235D01*
X127849329Y-63545970D01*
X127827150Y-63535480D01*
X127806107Y-63522868D01*
X127786401Y-63508253D01*
X127768223Y-63491777D01*
X127751747Y-63473599D01*
X127737132Y-63453893D01*
X127724520Y-63432850D01*
X127714030Y-63410671D01*
X127705765Y-63387572D01*
X127699804Y-63363773D01*
X127696204Y-63339505D01*
X127695000Y-63315001D01*
X127695000Y-62414999D01*
X127696204Y-62390495D01*
X127699804Y-62366227D01*
X127705765Y-62342428D01*
X127714030Y-62319329D01*
X127724520Y-62297150D01*
X127737132Y-62276107D01*
X127751747Y-62256401D01*
X127768223Y-62238223D01*
X127786401Y-62221747D01*
X127806107Y-62207132D01*
X127827150Y-62194520D01*
X127849329Y-62184030D01*
X127872428Y-62175765D01*
X127896227Y-62169804D01*
X127920495Y-62166204D01*
X127944999Y-62165000D01*
X128595001Y-62165000D01*
X128619505Y-62166204D01*
X128619505Y-62166204D01*
G37*
D17*
G04 #@! TD*
G04 #@! TO.P,C5,2*
G04 #@! TO.N,VDD*
X128270000Y-62865000D03*
D16*
G04 #@! TO.N,GND*
G04 #@! TO.C,C5*
G36*
X126569505Y-62166204D02*
X126593773Y-62169804D01*
X126617572Y-62175765D01*
X126640671Y-62184030D01*
X126662850Y-62194520D01*
X126683893Y-62207132D01*
X126703599Y-62221747D01*
X126721777Y-62238223D01*
X126738253Y-62256401D01*
X126752868Y-62276107D01*
X126765480Y-62297150D01*
X126775970Y-62319329D01*
X126784235Y-62342428D01*
X126790196Y-62366227D01*
X126793796Y-62390495D01*
X126795000Y-62414999D01*
X126795000Y-63315001D01*
X126793796Y-63339505D01*
X126790196Y-63363773D01*
X126784235Y-63387572D01*
X126775970Y-63410671D01*
X126765480Y-63432850D01*
X126752868Y-63453893D01*
X126738253Y-63473599D01*
X126721777Y-63491777D01*
X126703599Y-63508253D01*
X126683893Y-63522868D01*
X126662850Y-63535480D01*
X126640671Y-63545970D01*
X126617572Y-63554235D01*
X126593773Y-63560196D01*
X126569505Y-63563796D01*
X126545001Y-63565000D01*
X125894999Y-63565000D01*
X125870495Y-63563796D01*
X125846227Y-63560196D01*
X125822428Y-63554235D01*
X125799329Y-63545970D01*
X125777150Y-63535480D01*
X125756107Y-63522868D01*
X125736401Y-63508253D01*
X125718223Y-63491777D01*
X125701747Y-63473599D01*
X125687132Y-63453893D01*
X125674520Y-63432850D01*
X125664030Y-63410671D01*
X125655765Y-63387572D01*
X125649804Y-63363773D01*
X125646204Y-63339505D01*
X125645000Y-63315001D01*
X125645000Y-62414999D01*
X125646204Y-62390495D01*
X125649804Y-62366227D01*
X125655765Y-62342428D01*
X125664030Y-62319329D01*
X125674520Y-62297150D01*
X125687132Y-62276107D01*
X125701747Y-62256401D01*
X125718223Y-62238223D01*
X125736401Y-62221747D01*
X125756107Y-62207132D01*
X125777150Y-62194520D01*
X125799329Y-62184030D01*
X125822428Y-62175765D01*
X125846227Y-62169804D01*
X125870495Y-62166204D01*
X125894999Y-62165000D01*
X126545001Y-62165000D01*
X126569505Y-62166204D01*
X126569505Y-62166204D01*
G37*
D17*
G04 #@! TD*
G04 #@! TO.P,C5,1*
G04 #@! TO.N,GND*
X126220000Y-62865000D03*
D16*
G04 #@! TO.N,Vee*
G04 #@! TO.C,C6*
G36*
X118584505Y-34986204D02*
X118608773Y-34989804D01*
X118632572Y-34995765D01*
X118655671Y-35004030D01*
X118677850Y-35014520D01*
X118698893Y-35027132D01*
X118718599Y-35041747D01*
X118736777Y-35058223D01*
X118753253Y-35076401D01*
X118767868Y-35096107D01*
X118780480Y-35117150D01*
X118790970Y-35139329D01*
X118799235Y-35162428D01*
X118805196Y-35186227D01*
X118808796Y-35210495D01*
X118810000Y-35234999D01*
X118810000Y-35885001D01*
X118808796Y-35909505D01*
X118805196Y-35933773D01*
X118799235Y-35957572D01*
X118790970Y-35980671D01*
X118780480Y-36002850D01*
X118767868Y-36023893D01*
X118753253Y-36043599D01*
X118736777Y-36061777D01*
X118718599Y-36078253D01*
X118698893Y-36092868D01*
X118677850Y-36105480D01*
X118655671Y-36115970D01*
X118632572Y-36124235D01*
X118608773Y-36130196D01*
X118584505Y-36133796D01*
X118560001Y-36135000D01*
X117659999Y-36135000D01*
X117635495Y-36133796D01*
X117611227Y-36130196D01*
X117587428Y-36124235D01*
X117564329Y-36115970D01*
X117542150Y-36105480D01*
X117521107Y-36092868D01*
X117501401Y-36078253D01*
X117483223Y-36061777D01*
X117466747Y-36043599D01*
X117452132Y-36023893D01*
X117439520Y-36002850D01*
X117429030Y-35980671D01*
X117420765Y-35957572D01*
X117414804Y-35933773D01*
X117411204Y-35909505D01*
X117410000Y-35885001D01*
X117410000Y-35234999D01*
X117411204Y-35210495D01*
X117414804Y-35186227D01*
X117420765Y-35162428D01*
X117429030Y-35139329D01*
X117439520Y-35117150D01*
X117452132Y-35096107D01*
X117466747Y-35076401D01*
X117483223Y-35058223D01*
X117501401Y-35041747D01*
X117521107Y-35027132D01*
X117542150Y-35014520D01*
X117564329Y-35004030D01*
X117587428Y-34995765D01*
X117611227Y-34989804D01*
X117635495Y-34986204D01*
X117659999Y-34985000D01*
X118560001Y-34985000D01*
X118584505Y-34986204D01*
X118584505Y-34986204D01*
G37*
D17*
G04 #@! TD*
G04 #@! TO.P,C6,1*
G04 #@! TO.N,Vee*
X118110000Y-35560000D03*
D16*
G04 #@! TO.N,GND*
G04 #@! TO.C,C6*
G36*
X118584505Y-37036204D02*
X118608773Y-37039804D01*
X118632572Y-37045765D01*
X118655671Y-37054030D01*
X118677850Y-37064520D01*
X118698893Y-37077132D01*
X118718599Y-37091747D01*
X118736777Y-37108223D01*
X118753253Y-37126401D01*
X118767868Y-37146107D01*
X118780480Y-37167150D01*
X118790970Y-37189329D01*
X118799235Y-37212428D01*
X118805196Y-37236227D01*
X118808796Y-37260495D01*
X118810000Y-37284999D01*
X118810000Y-37935001D01*
X118808796Y-37959505D01*
X118805196Y-37983773D01*
X118799235Y-38007572D01*
X118790970Y-38030671D01*
X118780480Y-38052850D01*
X118767868Y-38073893D01*
X118753253Y-38093599D01*
X118736777Y-38111777D01*
X118718599Y-38128253D01*
X118698893Y-38142868D01*
X118677850Y-38155480D01*
X118655671Y-38165970D01*
X118632572Y-38174235D01*
X118608773Y-38180196D01*
X118584505Y-38183796D01*
X118560001Y-38185000D01*
X117659999Y-38185000D01*
X117635495Y-38183796D01*
X117611227Y-38180196D01*
X117587428Y-38174235D01*
X117564329Y-38165970D01*
X117542150Y-38155480D01*
X117521107Y-38142868D01*
X117501401Y-38128253D01*
X117483223Y-38111777D01*
X117466747Y-38093599D01*
X117452132Y-38073893D01*
X117439520Y-38052850D01*
X117429030Y-38030671D01*
X117420765Y-38007572D01*
X117414804Y-37983773D01*
X117411204Y-37959505D01*
X117410000Y-37935001D01*
X117410000Y-37284999D01*
X117411204Y-37260495D01*
X117414804Y-37236227D01*
X117420765Y-37212428D01*
X117429030Y-37189329D01*
X117439520Y-37167150D01*
X117452132Y-37146107D01*
X117466747Y-37126401D01*
X117483223Y-37108223D01*
X117501401Y-37091747D01*
X117521107Y-37077132D01*
X117542150Y-37064520D01*
X117564329Y-37054030D01*
X117587428Y-37045765D01*
X117611227Y-37039804D01*
X117635495Y-37036204D01*
X117659999Y-37035000D01*
X118560001Y-37035000D01*
X118584505Y-37036204D01*
X118584505Y-37036204D01*
G37*
D17*
G04 #@! TD*
G04 #@! TO.P,C6,2*
G04 #@! TO.N,GND*
X118110000Y-37610000D03*
D16*
G04 #@! TO.N,GND*
G04 #@! TO.C,C7*
G36*
X126569505Y-64071204D02*
X126593773Y-64074804D01*
X126617572Y-64080765D01*
X126640671Y-64089030D01*
X126662850Y-64099520D01*
X126683893Y-64112132D01*
X126703599Y-64126747D01*
X126721777Y-64143223D01*
X126738253Y-64161401D01*
X126752868Y-64181107D01*
X126765480Y-64202150D01*
X126775970Y-64224329D01*
X126784235Y-64247428D01*
X126790196Y-64271227D01*
X126793796Y-64295495D01*
X126795000Y-64319999D01*
X126795000Y-65220001D01*
X126793796Y-65244505D01*
X126790196Y-65268773D01*
X126784235Y-65292572D01*
X126775970Y-65315671D01*
X126765480Y-65337850D01*
X126752868Y-65358893D01*
X126738253Y-65378599D01*
X126721777Y-65396777D01*
X126703599Y-65413253D01*
X126683893Y-65427868D01*
X126662850Y-65440480D01*
X126640671Y-65450970D01*
X126617572Y-65459235D01*
X126593773Y-65465196D01*
X126569505Y-65468796D01*
X126545001Y-65470000D01*
X125894999Y-65470000D01*
X125870495Y-65468796D01*
X125846227Y-65465196D01*
X125822428Y-65459235D01*
X125799329Y-65450970D01*
X125777150Y-65440480D01*
X125756107Y-65427868D01*
X125736401Y-65413253D01*
X125718223Y-65396777D01*
X125701747Y-65378599D01*
X125687132Y-65358893D01*
X125674520Y-65337850D01*
X125664030Y-65315671D01*
X125655765Y-65292572D01*
X125649804Y-65268773D01*
X125646204Y-65244505D01*
X125645000Y-65220001D01*
X125645000Y-64319999D01*
X125646204Y-64295495D01*
X125649804Y-64271227D01*
X125655765Y-64247428D01*
X125664030Y-64224329D01*
X125674520Y-64202150D01*
X125687132Y-64181107D01*
X125701747Y-64161401D01*
X125718223Y-64143223D01*
X125736401Y-64126747D01*
X125756107Y-64112132D01*
X125777150Y-64099520D01*
X125799329Y-64089030D01*
X125822428Y-64080765D01*
X125846227Y-64074804D01*
X125870495Y-64071204D01*
X125894999Y-64070000D01*
X126545001Y-64070000D01*
X126569505Y-64071204D01*
X126569505Y-64071204D01*
G37*
D17*
G04 #@! TD*
G04 #@! TO.P,C7,1*
G04 #@! TO.N,GND*
X126220000Y-64770000D03*
D16*
G04 #@! TO.N,VDD*
G04 #@! TO.C,C7*
G36*
X128619505Y-64071204D02*
X128643773Y-64074804D01*
X128667572Y-64080765D01*
X128690671Y-64089030D01*
X128712850Y-64099520D01*
X128733893Y-64112132D01*
X128753599Y-64126747D01*
X128771777Y-64143223D01*
X128788253Y-64161401D01*
X128802868Y-64181107D01*
X128815480Y-64202150D01*
X128825970Y-64224329D01*
X128834235Y-64247428D01*
X128840196Y-64271227D01*
X128843796Y-64295495D01*
X128845000Y-64319999D01*
X128845000Y-65220001D01*
X128843796Y-65244505D01*
X128840196Y-65268773D01*
X128834235Y-65292572D01*
X128825970Y-65315671D01*
X128815480Y-65337850D01*
X128802868Y-65358893D01*
X128788253Y-65378599D01*
X128771777Y-65396777D01*
X128753599Y-65413253D01*
X128733893Y-65427868D01*
X128712850Y-65440480D01*
X128690671Y-65450970D01*
X128667572Y-65459235D01*
X128643773Y-65465196D01*
X128619505Y-65468796D01*
X128595001Y-65470000D01*
X127944999Y-65470000D01*
X127920495Y-65468796D01*
X127896227Y-65465196D01*
X127872428Y-65459235D01*
X127849329Y-65450970D01*
X127827150Y-65440480D01*
X127806107Y-65427868D01*
X127786401Y-65413253D01*
X127768223Y-65396777D01*
X127751747Y-65378599D01*
X127737132Y-65358893D01*
X127724520Y-65337850D01*
X127714030Y-65315671D01*
X127705765Y-65292572D01*
X127699804Y-65268773D01*
X127696204Y-65244505D01*
X127695000Y-65220001D01*
X127695000Y-64319999D01*
X127696204Y-64295495D01*
X127699804Y-64271227D01*
X127705765Y-64247428D01*
X127714030Y-64224329D01*
X127724520Y-64202150D01*
X127737132Y-64181107D01*
X127751747Y-64161401D01*
X127768223Y-64143223D01*
X127786401Y-64126747D01*
X127806107Y-64112132D01*
X127827150Y-64099520D01*
X127849329Y-64089030D01*
X127872428Y-64080765D01*
X127896227Y-64074804D01*
X127920495Y-64071204D01*
X127944999Y-64070000D01*
X128595001Y-64070000D01*
X128619505Y-64071204D01*
X128619505Y-64071204D01*
G37*
D17*
G04 #@! TD*
G04 #@! TO.P,C7,2*
G04 #@! TO.N,VDD*
X128270000Y-64770000D03*
D15*
G04 #@! TO.P,J2,1*
G04 #@! TO.N,GND*
X101600000Y-45720000D03*
D14*
G04 #@! TO.P,J2,2*
G04 #@! TO.N,Net-(J2-Pad2)*
X101600000Y-43180000D03*
G04 #@! TO.P,J2,3*
G04 #@! TO.N,Net-(J2-Pad3)*
X101600000Y-40640000D03*
G04 #@! TO.P,J2,4*
G04 #@! TO.N,Net-(D1-Pad1)*
X101600000Y-38100000D03*
G04 #@! TO.P,J2,5*
G04 #@! TO.N,VDD*
X101600000Y-35560000D03*
G04 #@! TD*
D16*
G04 #@! TO.N,Net-(D2-Pad2)*
G04 #@! TO.C,R1*
G36*
X139414505Y-49466204D02*
X139438773Y-49469804D01*
X139462572Y-49475765D01*
X139485671Y-49484030D01*
X139507850Y-49494520D01*
X139528893Y-49507132D01*
X139548599Y-49521747D01*
X139566777Y-49538223D01*
X139583253Y-49556401D01*
X139597868Y-49576107D01*
X139610480Y-49597150D01*
X139620970Y-49619329D01*
X139629235Y-49642428D01*
X139635196Y-49666227D01*
X139638796Y-49690495D01*
X139640000Y-49714999D01*
X139640000Y-50615001D01*
X139638796Y-50639505D01*
X139635196Y-50663773D01*
X139629235Y-50687572D01*
X139620970Y-50710671D01*
X139610480Y-50732850D01*
X139597868Y-50753893D01*
X139583253Y-50773599D01*
X139566777Y-50791777D01*
X139548599Y-50808253D01*
X139528893Y-50822868D01*
X139507850Y-50835480D01*
X139485671Y-50845970D01*
X139462572Y-50854235D01*
X139438773Y-50860196D01*
X139414505Y-50863796D01*
X139390001Y-50865000D01*
X138739999Y-50865000D01*
X138715495Y-50863796D01*
X138691227Y-50860196D01*
X138667428Y-50854235D01*
X138644329Y-50845970D01*
X138622150Y-50835480D01*
X138601107Y-50822868D01*
X138581401Y-50808253D01*
X138563223Y-50791777D01*
X138546747Y-50773599D01*
X138532132Y-50753893D01*
X138519520Y-50732850D01*
X138509030Y-50710671D01*
X138500765Y-50687572D01*
X138494804Y-50663773D01*
X138491204Y-50639505D01*
X138490000Y-50615001D01*
X138490000Y-49714999D01*
X138491204Y-49690495D01*
X138494804Y-49666227D01*
X138500765Y-49642428D01*
X138509030Y-49619329D01*
X138519520Y-49597150D01*
X138532132Y-49576107D01*
X138546747Y-49556401D01*
X138563223Y-49538223D01*
X138581401Y-49521747D01*
X138601107Y-49507132D01*
X138622150Y-49494520D01*
X138644329Y-49484030D01*
X138667428Y-49475765D01*
X138691227Y-49469804D01*
X138715495Y-49466204D01*
X138739999Y-49465000D01*
X139390001Y-49465000D01*
X139414505Y-49466204D01*
X139414505Y-49466204D01*
G37*
D17*
G04 #@! TD*
G04 #@! TO.P,R1,2*
G04 #@! TO.N,Net-(D2-Pad2)*
X139065000Y-50165000D03*
D16*
G04 #@! TO.N,DISP*
G04 #@! TO.C,R1*
G36*
X137364505Y-49466204D02*
X137388773Y-49469804D01*
X137412572Y-49475765D01*
X137435671Y-49484030D01*
X137457850Y-49494520D01*
X137478893Y-49507132D01*
X137498599Y-49521747D01*
X137516777Y-49538223D01*
X137533253Y-49556401D01*
X137547868Y-49576107D01*
X137560480Y-49597150D01*
X137570970Y-49619329D01*
X137579235Y-49642428D01*
X137585196Y-49666227D01*
X137588796Y-49690495D01*
X137590000Y-49714999D01*
X137590000Y-50615001D01*
X137588796Y-50639505D01*
X137585196Y-50663773D01*
X137579235Y-50687572D01*
X137570970Y-50710671D01*
X137560480Y-50732850D01*
X137547868Y-50753893D01*
X137533253Y-50773599D01*
X137516777Y-50791777D01*
X137498599Y-50808253D01*
X137478893Y-50822868D01*
X137457850Y-50835480D01*
X137435671Y-50845970D01*
X137412572Y-50854235D01*
X137388773Y-50860196D01*
X137364505Y-50863796D01*
X137340001Y-50865000D01*
X136689999Y-50865000D01*
X136665495Y-50863796D01*
X136641227Y-50860196D01*
X136617428Y-50854235D01*
X136594329Y-50845970D01*
X136572150Y-50835480D01*
X136551107Y-50822868D01*
X136531401Y-50808253D01*
X136513223Y-50791777D01*
X136496747Y-50773599D01*
X136482132Y-50753893D01*
X136469520Y-50732850D01*
X136459030Y-50710671D01*
X136450765Y-50687572D01*
X136444804Y-50663773D01*
X136441204Y-50639505D01*
X136440000Y-50615001D01*
X136440000Y-49714999D01*
X136441204Y-49690495D01*
X136444804Y-49666227D01*
X136450765Y-49642428D01*
X136459030Y-49619329D01*
X136469520Y-49597150D01*
X136482132Y-49576107D01*
X136496747Y-49556401D01*
X136513223Y-49538223D01*
X136531401Y-49521747D01*
X136551107Y-49507132D01*
X136572150Y-49494520D01*
X136594329Y-49484030D01*
X136617428Y-49475765D01*
X136641227Y-49469804D01*
X136665495Y-49466204D01*
X136689999Y-49465000D01*
X137340001Y-49465000D01*
X137364505Y-49466204D01*
X137364505Y-49466204D01*
G37*
D17*
G04 #@! TD*
G04 #@! TO.P,R1,1*
G04 #@! TO.N,DISP*
X137015000Y-50165000D03*
D16*
G04 #@! TO.N,INPUT_A*
G04 #@! TO.C,R2*
G36*
X169384505Y-63416204D02*
X169408773Y-63419804D01*
X169432572Y-63425765D01*
X169455671Y-63434030D01*
X169477850Y-63444520D01*
X169498893Y-63457132D01*
X169518599Y-63471747D01*
X169536777Y-63488223D01*
X169553253Y-63506401D01*
X169567868Y-63526107D01*
X169580480Y-63547150D01*
X169590970Y-63569329D01*
X169599235Y-63592428D01*
X169605196Y-63616227D01*
X169608796Y-63640495D01*
X169610000Y-63664999D01*
X169610000Y-64315001D01*
X169608796Y-64339505D01*
X169605196Y-64363773D01*
X169599235Y-64387572D01*
X169590970Y-64410671D01*
X169580480Y-64432850D01*
X169567868Y-64453893D01*
X169553253Y-64473599D01*
X169536777Y-64491777D01*
X169518599Y-64508253D01*
X169498893Y-64522868D01*
X169477850Y-64535480D01*
X169455671Y-64545970D01*
X169432572Y-64554235D01*
X169408773Y-64560196D01*
X169384505Y-64563796D01*
X169360001Y-64565000D01*
X168459999Y-64565000D01*
X168435495Y-64563796D01*
X168411227Y-64560196D01*
X168387428Y-64554235D01*
X168364329Y-64545970D01*
X168342150Y-64535480D01*
X168321107Y-64522868D01*
X168301401Y-64508253D01*
X168283223Y-64491777D01*
X168266747Y-64473599D01*
X168252132Y-64453893D01*
X168239520Y-64432850D01*
X168229030Y-64410671D01*
X168220765Y-64387572D01*
X168214804Y-64363773D01*
X168211204Y-64339505D01*
X168210000Y-64315001D01*
X168210000Y-63664999D01*
X168211204Y-63640495D01*
X168214804Y-63616227D01*
X168220765Y-63592428D01*
X168229030Y-63569329D01*
X168239520Y-63547150D01*
X168252132Y-63526107D01*
X168266747Y-63506401D01*
X168283223Y-63488223D01*
X168301401Y-63471747D01*
X168321107Y-63457132D01*
X168342150Y-63444520D01*
X168364329Y-63434030D01*
X168387428Y-63425765D01*
X168411227Y-63419804D01*
X168435495Y-63416204D01*
X168459999Y-63415000D01*
X169360001Y-63415000D01*
X169384505Y-63416204D01*
X169384505Y-63416204D01*
G37*
D17*
G04 #@! TD*
G04 #@! TO.P,R2,1*
G04 #@! TO.N,INPUT_A*
X168910000Y-63990000D03*
D16*
G04 #@! TO.N,Net-(J4-Pad1)*
G04 #@! TO.C,R2*
G36*
X169384505Y-65466204D02*
X169408773Y-65469804D01*
X169432572Y-65475765D01*
X169455671Y-65484030D01*
X169477850Y-65494520D01*
X169498893Y-65507132D01*
X169518599Y-65521747D01*
X169536777Y-65538223D01*
X169553253Y-65556401D01*
X169567868Y-65576107D01*
X169580480Y-65597150D01*
X169590970Y-65619329D01*
X169599235Y-65642428D01*
X169605196Y-65666227D01*
X169608796Y-65690495D01*
X169610000Y-65714999D01*
X169610000Y-66365001D01*
X169608796Y-66389505D01*
X169605196Y-66413773D01*
X169599235Y-66437572D01*
X169590970Y-66460671D01*
X169580480Y-66482850D01*
X169567868Y-66503893D01*
X169553253Y-66523599D01*
X169536777Y-66541777D01*
X169518599Y-66558253D01*
X169498893Y-66572868D01*
X169477850Y-66585480D01*
X169455671Y-66595970D01*
X169432572Y-66604235D01*
X169408773Y-66610196D01*
X169384505Y-66613796D01*
X169360001Y-66615000D01*
X168459999Y-66615000D01*
X168435495Y-66613796D01*
X168411227Y-66610196D01*
X168387428Y-66604235D01*
X168364329Y-66595970D01*
X168342150Y-66585480D01*
X168321107Y-66572868D01*
X168301401Y-66558253D01*
X168283223Y-66541777D01*
X168266747Y-66523599D01*
X168252132Y-66503893D01*
X168239520Y-66482850D01*
X168229030Y-66460671D01*
X168220765Y-66437572D01*
X168214804Y-66413773D01*
X168211204Y-66389505D01*
X168210000Y-66365001D01*
X168210000Y-65714999D01*
X168211204Y-65690495D01*
X168214804Y-65666227D01*
X168220765Y-65642428D01*
X168229030Y-65619329D01*
X168239520Y-65597150D01*
X168252132Y-65576107D01*
X168266747Y-65556401D01*
X168283223Y-65538223D01*
X168301401Y-65521747D01*
X168321107Y-65507132D01*
X168342150Y-65494520D01*
X168364329Y-65484030D01*
X168387428Y-65475765D01*
X168411227Y-65469804D01*
X168435495Y-65466204D01*
X168459999Y-65465000D01*
X169360001Y-65465000D01*
X169384505Y-65466204D01*
X169384505Y-65466204D01*
G37*
D17*
G04 #@! TD*
G04 #@! TO.P,R2,2*
G04 #@! TO.N,Net-(J4-Pad1)*
X168910000Y-66040000D03*
D16*
G04 #@! TO.N,INPUT_B*
G04 #@! TO.C,R3*
G36*
X177004505Y-63416204D02*
X177028773Y-63419804D01*
X177052572Y-63425765D01*
X177075671Y-63434030D01*
X177097850Y-63444520D01*
X177118893Y-63457132D01*
X177138599Y-63471747D01*
X177156777Y-63488223D01*
X177173253Y-63506401D01*
X177187868Y-63526107D01*
X177200480Y-63547150D01*
X177210970Y-63569329D01*
X177219235Y-63592428D01*
X177225196Y-63616227D01*
X177228796Y-63640495D01*
X177230000Y-63664999D01*
X177230000Y-64315001D01*
X177228796Y-64339505D01*
X177225196Y-64363773D01*
X177219235Y-64387572D01*
X177210970Y-64410671D01*
X177200480Y-64432850D01*
X177187868Y-64453893D01*
X177173253Y-64473599D01*
X177156777Y-64491777D01*
X177138599Y-64508253D01*
X177118893Y-64522868D01*
X177097850Y-64535480D01*
X177075671Y-64545970D01*
X177052572Y-64554235D01*
X177028773Y-64560196D01*
X177004505Y-64563796D01*
X176980001Y-64565000D01*
X176079999Y-64565000D01*
X176055495Y-64563796D01*
X176031227Y-64560196D01*
X176007428Y-64554235D01*
X175984329Y-64545970D01*
X175962150Y-64535480D01*
X175941107Y-64522868D01*
X175921401Y-64508253D01*
X175903223Y-64491777D01*
X175886747Y-64473599D01*
X175872132Y-64453893D01*
X175859520Y-64432850D01*
X175849030Y-64410671D01*
X175840765Y-64387572D01*
X175834804Y-64363773D01*
X175831204Y-64339505D01*
X175830000Y-64315001D01*
X175830000Y-63664999D01*
X175831204Y-63640495D01*
X175834804Y-63616227D01*
X175840765Y-63592428D01*
X175849030Y-63569329D01*
X175859520Y-63547150D01*
X175872132Y-63526107D01*
X175886747Y-63506401D01*
X175903223Y-63488223D01*
X175921401Y-63471747D01*
X175941107Y-63457132D01*
X175962150Y-63444520D01*
X175984329Y-63434030D01*
X176007428Y-63425765D01*
X176031227Y-63419804D01*
X176055495Y-63416204D01*
X176079999Y-63415000D01*
X176980001Y-63415000D01*
X177004505Y-63416204D01*
X177004505Y-63416204D01*
G37*
D17*
G04 #@! TD*
G04 #@! TO.P,R3,1*
G04 #@! TO.N,INPUT_B*
X176530000Y-63990000D03*
D16*
G04 #@! TO.N,Net-(J5-Pad1)*
G04 #@! TO.C,R3*
G36*
X177004505Y-65466204D02*
X177028773Y-65469804D01*
X177052572Y-65475765D01*
X177075671Y-65484030D01*
X177097850Y-65494520D01*
X177118893Y-65507132D01*
X177138599Y-65521747D01*
X177156777Y-65538223D01*
X177173253Y-65556401D01*
X177187868Y-65576107D01*
X177200480Y-65597150D01*
X177210970Y-65619329D01*
X177219235Y-65642428D01*
X177225196Y-65666227D01*
X177228796Y-65690495D01*
X177230000Y-65714999D01*
X177230000Y-66365001D01*
X177228796Y-66389505D01*
X177225196Y-66413773D01*
X177219235Y-66437572D01*
X177210970Y-66460671D01*
X177200480Y-66482850D01*
X177187868Y-66503893D01*
X177173253Y-66523599D01*
X177156777Y-66541777D01*
X177138599Y-66558253D01*
X177118893Y-66572868D01*
X177097850Y-66585480D01*
X177075671Y-66595970D01*
X177052572Y-66604235D01*
X177028773Y-66610196D01*
X177004505Y-66613796D01*
X176980001Y-66615000D01*
X176079999Y-66615000D01*
X176055495Y-66613796D01*
X176031227Y-66610196D01*
X176007428Y-66604235D01*
X175984329Y-66595970D01*
X175962150Y-66585480D01*
X175941107Y-66572868D01*
X175921401Y-66558253D01*
X175903223Y-66541777D01*
X175886747Y-66523599D01*
X175872132Y-66503893D01*
X175859520Y-66482850D01*
X175849030Y-66460671D01*
X175840765Y-66437572D01*
X175834804Y-66413773D01*
X175831204Y-66389505D01*
X175830000Y-66365001D01*
X175830000Y-65714999D01*
X175831204Y-65690495D01*
X175834804Y-65666227D01*
X175840765Y-65642428D01*
X175849030Y-65619329D01*
X175859520Y-65597150D01*
X175872132Y-65576107D01*
X175886747Y-65556401D01*
X175903223Y-65538223D01*
X175921401Y-65521747D01*
X175941107Y-65507132D01*
X175962150Y-65494520D01*
X175984329Y-65484030D01*
X176007428Y-65475765D01*
X176031227Y-65469804D01*
X176055495Y-65466204D01*
X176079999Y-65465000D01*
X176980001Y-65465000D01*
X177004505Y-65466204D01*
X177004505Y-65466204D01*
G37*
D17*
G04 #@! TD*
G04 #@! TO.P,R3,2*
G04 #@! TO.N,Net-(J5-Pad1)*
X176530000Y-66040000D03*
D16*
G04 #@! TO.N,Net-(J6-Pad1)*
G04 #@! TO.C,R4*
G36*
X114774505Y-64831204D02*
X114798773Y-64834804D01*
X114822572Y-64840765D01*
X114845671Y-64849030D01*
X114867850Y-64859520D01*
X114888893Y-64872132D01*
X114908599Y-64886747D01*
X114926777Y-64903223D01*
X114943253Y-64921401D01*
X114957868Y-64941107D01*
X114970480Y-64962150D01*
X114980970Y-64984329D01*
X114989235Y-65007428D01*
X114995196Y-65031227D01*
X114998796Y-65055495D01*
X115000000Y-65079999D01*
X115000000Y-65730001D01*
X114998796Y-65754505D01*
X114995196Y-65778773D01*
X114989235Y-65802572D01*
X114980970Y-65825671D01*
X114970480Y-65847850D01*
X114957868Y-65868893D01*
X114943253Y-65888599D01*
X114926777Y-65906777D01*
X114908599Y-65923253D01*
X114888893Y-65937868D01*
X114867850Y-65950480D01*
X114845671Y-65960970D01*
X114822572Y-65969235D01*
X114798773Y-65975196D01*
X114774505Y-65978796D01*
X114750001Y-65980000D01*
X113849999Y-65980000D01*
X113825495Y-65978796D01*
X113801227Y-65975196D01*
X113777428Y-65969235D01*
X113754329Y-65960970D01*
X113732150Y-65950480D01*
X113711107Y-65937868D01*
X113691401Y-65923253D01*
X113673223Y-65906777D01*
X113656747Y-65888599D01*
X113642132Y-65868893D01*
X113629520Y-65847850D01*
X113619030Y-65825671D01*
X113610765Y-65802572D01*
X113604804Y-65778773D01*
X113601204Y-65754505D01*
X113600000Y-65730001D01*
X113600000Y-65079999D01*
X113601204Y-65055495D01*
X113604804Y-65031227D01*
X113610765Y-65007428D01*
X113619030Y-64984329D01*
X113629520Y-64962150D01*
X113642132Y-64941107D01*
X113656747Y-64921401D01*
X113673223Y-64903223D01*
X113691401Y-64886747D01*
X113711107Y-64872132D01*
X113732150Y-64859520D01*
X113754329Y-64849030D01*
X113777428Y-64840765D01*
X113801227Y-64834804D01*
X113825495Y-64831204D01*
X113849999Y-64830000D01*
X114750001Y-64830000D01*
X114774505Y-64831204D01*
X114774505Y-64831204D01*
G37*
D17*
G04 #@! TD*
G04 #@! TO.P,R4,2*
G04 #@! TO.N,Net-(J6-Pad1)*
X114300000Y-65405000D03*
D16*
G04 #@! TO.N,ZCD*
G04 #@! TO.C,R4*
G36*
X114774505Y-62781204D02*
X114798773Y-62784804D01*
X114822572Y-62790765D01*
X114845671Y-62799030D01*
X114867850Y-62809520D01*
X114888893Y-62822132D01*
X114908599Y-62836747D01*
X114926777Y-62853223D01*
X114943253Y-62871401D01*
X114957868Y-62891107D01*
X114970480Y-62912150D01*
X114980970Y-62934329D01*
X114989235Y-62957428D01*
X114995196Y-62981227D01*
X114998796Y-63005495D01*
X115000000Y-63029999D01*
X115000000Y-63680001D01*
X114998796Y-63704505D01*
X114995196Y-63728773D01*
X114989235Y-63752572D01*
X114980970Y-63775671D01*
X114970480Y-63797850D01*
X114957868Y-63818893D01*
X114943253Y-63838599D01*
X114926777Y-63856777D01*
X114908599Y-63873253D01*
X114888893Y-63887868D01*
X114867850Y-63900480D01*
X114845671Y-63910970D01*
X114822572Y-63919235D01*
X114798773Y-63925196D01*
X114774505Y-63928796D01*
X114750001Y-63930000D01*
X113849999Y-63930000D01*
X113825495Y-63928796D01*
X113801227Y-63925196D01*
X113777428Y-63919235D01*
X113754329Y-63910970D01*
X113732150Y-63900480D01*
X113711107Y-63887868D01*
X113691401Y-63873253D01*
X113673223Y-63856777D01*
X113656747Y-63838599D01*
X113642132Y-63818893D01*
X113629520Y-63797850D01*
X113619030Y-63775671D01*
X113610765Y-63752572D01*
X113604804Y-63728773D01*
X113601204Y-63704505D01*
X113600000Y-63680001D01*
X113600000Y-63029999D01*
X113601204Y-63005495D01*
X113604804Y-62981227D01*
X113610765Y-62957428D01*
X113619030Y-62934329D01*
X113629520Y-62912150D01*
X113642132Y-62891107D01*
X113656747Y-62871401D01*
X113673223Y-62853223D01*
X113691401Y-62836747D01*
X113711107Y-62822132D01*
X113732150Y-62809520D01*
X113754329Y-62799030D01*
X113777428Y-62790765D01*
X113801227Y-62784804D01*
X113825495Y-62781204D01*
X113849999Y-62780000D01*
X114750001Y-62780000D01*
X114774505Y-62781204D01*
X114774505Y-62781204D01*
G37*
D17*
G04 #@! TD*
G04 #@! TO.P,R4,1*
G04 #@! TO.N,ZCD*
X114300000Y-63355000D03*
D16*
G04 #@! TO.N,VDD*
G04 #@! TO.C,R5*
G36*
X108299505Y-50101204D02*
X108323773Y-50104804D01*
X108347572Y-50110765D01*
X108370671Y-50119030D01*
X108392850Y-50129520D01*
X108413893Y-50142132D01*
X108433599Y-50156747D01*
X108451777Y-50173223D01*
X108468253Y-50191401D01*
X108482868Y-50211107D01*
X108495480Y-50232150D01*
X108505970Y-50254329D01*
X108514235Y-50277428D01*
X108520196Y-50301227D01*
X108523796Y-50325495D01*
X108525000Y-50349999D01*
X108525000Y-51250001D01*
X108523796Y-51274505D01*
X108520196Y-51298773D01*
X108514235Y-51322572D01*
X108505970Y-51345671D01*
X108495480Y-51367850D01*
X108482868Y-51388893D01*
X108468253Y-51408599D01*
X108451777Y-51426777D01*
X108433599Y-51443253D01*
X108413893Y-51457868D01*
X108392850Y-51470480D01*
X108370671Y-51480970D01*
X108347572Y-51489235D01*
X108323773Y-51495196D01*
X108299505Y-51498796D01*
X108275001Y-51500000D01*
X107624999Y-51500000D01*
X107600495Y-51498796D01*
X107576227Y-51495196D01*
X107552428Y-51489235D01*
X107529329Y-51480970D01*
X107507150Y-51470480D01*
X107486107Y-51457868D01*
X107466401Y-51443253D01*
X107448223Y-51426777D01*
X107431747Y-51408599D01*
X107417132Y-51388893D01*
X107404520Y-51367850D01*
X107394030Y-51345671D01*
X107385765Y-51322572D01*
X107379804Y-51298773D01*
X107376204Y-51274505D01*
X107375000Y-51250001D01*
X107375000Y-50349999D01*
X107376204Y-50325495D01*
X107379804Y-50301227D01*
X107385765Y-50277428D01*
X107394030Y-50254329D01*
X107404520Y-50232150D01*
X107417132Y-50211107D01*
X107431747Y-50191401D01*
X107448223Y-50173223D01*
X107466401Y-50156747D01*
X107486107Y-50142132D01*
X107507150Y-50129520D01*
X107529329Y-50119030D01*
X107552428Y-50110765D01*
X107576227Y-50104804D01*
X107600495Y-50101204D01*
X107624999Y-50100000D01*
X108275001Y-50100000D01*
X108299505Y-50101204D01*
X108299505Y-50101204D01*
G37*
D17*
G04 #@! TD*
G04 #@! TO.P,R5,1*
G04 #@! TO.N,VDD*
X107950000Y-50800000D03*
D16*
G04 #@! TO.N,MCLR*
G04 #@! TO.C,R5*
G36*
X110349505Y-50101204D02*
X110373773Y-50104804D01*
X110397572Y-50110765D01*
X110420671Y-50119030D01*
X110442850Y-50129520D01*
X110463893Y-50142132D01*
X110483599Y-50156747D01*
X110501777Y-50173223D01*
X110518253Y-50191401D01*
X110532868Y-50211107D01*
X110545480Y-50232150D01*
X110555970Y-50254329D01*
X110564235Y-50277428D01*
X110570196Y-50301227D01*
X110573796Y-50325495D01*
X110575000Y-50349999D01*
X110575000Y-51250001D01*
X110573796Y-51274505D01*
X110570196Y-51298773D01*
X110564235Y-51322572D01*
X110555970Y-51345671D01*
X110545480Y-51367850D01*
X110532868Y-51388893D01*
X110518253Y-51408599D01*
X110501777Y-51426777D01*
X110483599Y-51443253D01*
X110463893Y-51457868D01*
X110442850Y-51470480D01*
X110420671Y-51480970D01*
X110397572Y-51489235D01*
X110373773Y-51495196D01*
X110349505Y-51498796D01*
X110325001Y-51500000D01*
X109674999Y-51500000D01*
X109650495Y-51498796D01*
X109626227Y-51495196D01*
X109602428Y-51489235D01*
X109579329Y-51480970D01*
X109557150Y-51470480D01*
X109536107Y-51457868D01*
X109516401Y-51443253D01*
X109498223Y-51426777D01*
X109481747Y-51408599D01*
X109467132Y-51388893D01*
X109454520Y-51367850D01*
X109444030Y-51345671D01*
X109435765Y-51322572D01*
X109429804Y-51298773D01*
X109426204Y-51274505D01*
X109425000Y-51250001D01*
X109425000Y-50349999D01*
X109426204Y-50325495D01*
X109429804Y-50301227D01*
X109435765Y-50277428D01*
X109444030Y-50254329D01*
X109454520Y-50232150D01*
X109467132Y-50211107D01*
X109481747Y-50191401D01*
X109498223Y-50173223D01*
X109516401Y-50156747D01*
X109536107Y-50142132D01*
X109557150Y-50129520D01*
X109579329Y-50119030D01*
X109602428Y-50110765D01*
X109626227Y-50104804D01*
X109650495Y-50101204D01*
X109674999Y-50100000D01*
X110325001Y-50100000D01*
X110349505Y-50101204D01*
X110349505Y-50101204D01*
G37*
D17*
G04 #@! TD*
G04 #@! TO.P,R5,2*
G04 #@! TO.N,MCLR*
X110000000Y-50800000D03*
D16*
G04 #@! TO.N,Net-(P1-Pad15)*
G04 #@! TO.C,R6*
G36*
X149819505Y-36766204D02*
X149843773Y-36769804D01*
X149867572Y-36775765D01*
X149890671Y-36784030D01*
X149912850Y-36794520D01*
X149933893Y-36807132D01*
X149953599Y-36821747D01*
X149971777Y-36838223D01*
X149988253Y-36856401D01*
X150002868Y-36876107D01*
X150015480Y-36897150D01*
X150025970Y-36919329D01*
X150034235Y-36942428D01*
X150040196Y-36966227D01*
X150043796Y-36990495D01*
X150045000Y-37014999D01*
X150045000Y-37915001D01*
X150043796Y-37939505D01*
X150040196Y-37963773D01*
X150034235Y-37987572D01*
X150025970Y-38010671D01*
X150015480Y-38032850D01*
X150002868Y-38053893D01*
X149988253Y-38073599D01*
X149971777Y-38091777D01*
X149953599Y-38108253D01*
X149933893Y-38122868D01*
X149912850Y-38135480D01*
X149890671Y-38145970D01*
X149867572Y-38154235D01*
X149843773Y-38160196D01*
X149819505Y-38163796D01*
X149795001Y-38165000D01*
X149144999Y-38165000D01*
X149120495Y-38163796D01*
X149096227Y-38160196D01*
X149072428Y-38154235D01*
X149049329Y-38145970D01*
X149027150Y-38135480D01*
X149006107Y-38122868D01*
X148986401Y-38108253D01*
X148968223Y-38091777D01*
X148951747Y-38073599D01*
X148937132Y-38053893D01*
X148924520Y-38032850D01*
X148914030Y-38010671D01*
X148905765Y-37987572D01*
X148899804Y-37963773D01*
X148896204Y-37939505D01*
X148895000Y-37915001D01*
X148895000Y-37014999D01*
X148896204Y-36990495D01*
X148899804Y-36966227D01*
X148905765Y-36942428D01*
X148914030Y-36919329D01*
X148924520Y-36897150D01*
X148937132Y-36876107D01*
X148951747Y-36856401D01*
X148968223Y-36838223D01*
X148986401Y-36821747D01*
X149006107Y-36807132D01*
X149027150Y-36794520D01*
X149049329Y-36784030D01*
X149072428Y-36775765D01*
X149096227Y-36769804D01*
X149120495Y-36766204D01*
X149144999Y-36765000D01*
X149795001Y-36765000D01*
X149819505Y-36766204D01*
X149819505Y-36766204D01*
G37*
D17*
G04 #@! TD*
G04 #@! TO.P,R6,2*
G04 #@! TO.N,Net-(P1-Pad15)*
X149470000Y-37465000D03*
D16*
G04 #@! TO.N,Net-(JP1-Pad1)*
G04 #@! TO.C,R6*
G36*
X151869505Y-36766204D02*
X151893773Y-36769804D01*
X151917572Y-36775765D01*
X151940671Y-36784030D01*
X151962850Y-36794520D01*
X151983893Y-36807132D01*
X152003599Y-36821747D01*
X152021777Y-36838223D01*
X152038253Y-36856401D01*
X152052868Y-36876107D01*
X152065480Y-36897150D01*
X152075970Y-36919329D01*
X152084235Y-36942428D01*
X152090196Y-36966227D01*
X152093796Y-36990495D01*
X152095000Y-37014999D01*
X152095000Y-37915001D01*
X152093796Y-37939505D01*
X152090196Y-37963773D01*
X152084235Y-37987572D01*
X152075970Y-38010671D01*
X152065480Y-38032850D01*
X152052868Y-38053893D01*
X152038253Y-38073599D01*
X152021777Y-38091777D01*
X152003599Y-38108253D01*
X151983893Y-38122868D01*
X151962850Y-38135480D01*
X151940671Y-38145970D01*
X151917572Y-38154235D01*
X151893773Y-38160196D01*
X151869505Y-38163796D01*
X151845001Y-38165000D01*
X151194999Y-38165000D01*
X151170495Y-38163796D01*
X151146227Y-38160196D01*
X151122428Y-38154235D01*
X151099329Y-38145970D01*
X151077150Y-38135480D01*
X151056107Y-38122868D01*
X151036401Y-38108253D01*
X151018223Y-38091777D01*
X151001747Y-38073599D01*
X150987132Y-38053893D01*
X150974520Y-38032850D01*
X150964030Y-38010671D01*
X150955765Y-37987572D01*
X150949804Y-37963773D01*
X150946204Y-37939505D01*
X150945000Y-37915001D01*
X150945000Y-37014999D01*
X150946204Y-36990495D01*
X150949804Y-36966227D01*
X150955765Y-36942428D01*
X150964030Y-36919329D01*
X150974520Y-36897150D01*
X150987132Y-36876107D01*
X151001747Y-36856401D01*
X151018223Y-36838223D01*
X151036401Y-36821747D01*
X151056107Y-36807132D01*
X151077150Y-36794520D01*
X151099329Y-36784030D01*
X151122428Y-36775765D01*
X151146227Y-36769804D01*
X151170495Y-36766204D01*
X151194999Y-36765000D01*
X151845001Y-36765000D01*
X151869505Y-36766204D01*
X151869505Y-36766204D01*
G37*
D17*
G04 #@! TD*
G04 #@! TO.P,R6,1*
G04 #@! TO.N,Net-(JP1-Pad1)*
X151520000Y-37465000D03*
D16*
G04 #@! TO.N,CLKIN*
G04 #@! TO.C,R7*
G36*
X161764505Y-63416204D02*
X161788773Y-63419804D01*
X161812572Y-63425765D01*
X161835671Y-63434030D01*
X161857850Y-63444520D01*
X161878893Y-63457132D01*
X161898599Y-63471747D01*
X161916777Y-63488223D01*
X161933253Y-63506401D01*
X161947868Y-63526107D01*
X161960480Y-63547150D01*
X161970970Y-63569329D01*
X161979235Y-63592428D01*
X161985196Y-63616227D01*
X161988796Y-63640495D01*
X161990000Y-63664999D01*
X161990000Y-64315001D01*
X161988796Y-64339505D01*
X161985196Y-64363773D01*
X161979235Y-64387572D01*
X161970970Y-64410671D01*
X161960480Y-64432850D01*
X161947868Y-64453893D01*
X161933253Y-64473599D01*
X161916777Y-64491777D01*
X161898599Y-64508253D01*
X161878893Y-64522868D01*
X161857850Y-64535480D01*
X161835671Y-64545970D01*
X161812572Y-64554235D01*
X161788773Y-64560196D01*
X161764505Y-64563796D01*
X161740001Y-64565000D01*
X160839999Y-64565000D01*
X160815495Y-64563796D01*
X160791227Y-64560196D01*
X160767428Y-64554235D01*
X160744329Y-64545970D01*
X160722150Y-64535480D01*
X160701107Y-64522868D01*
X160681401Y-64508253D01*
X160663223Y-64491777D01*
X160646747Y-64473599D01*
X160632132Y-64453893D01*
X160619520Y-64432850D01*
X160609030Y-64410671D01*
X160600765Y-64387572D01*
X160594804Y-64363773D01*
X160591204Y-64339505D01*
X160590000Y-64315001D01*
X160590000Y-63664999D01*
X160591204Y-63640495D01*
X160594804Y-63616227D01*
X160600765Y-63592428D01*
X160609030Y-63569329D01*
X160619520Y-63547150D01*
X160632132Y-63526107D01*
X160646747Y-63506401D01*
X160663223Y-63488223D01*
X160681401Y-63471747D01*
X160701107Y-63457132D01*
X160722150Y-63444520D01*
X160744329Y-63434030D01*
X160767428Y-63425765D01*
X160791227Y-63419804D01*
X160815495Y-63416204D01*
X160839999Y-63415000D01*
X161740001Y-63415000D01*
X161764505Y-63416204D01*
X161764505Y-63416204D01*
G37*
D17*
G04 #@! TD*
G04 #@! TO.P,R7,2*
G04 #@! TO.N,CLKIN*
X161290000Y-63990000D03*
D16*
G04 #@! TO.N,Net-(J3-Pad1)*
G04 #@! TO.C,R7*
G36*
X161764505Y-65466204D02*
X161788773Y-65469804D01*
X161812572Y-65475765D01*
X161835671Y-65484030D01*
X161857850Y-65494520D01*
X161878893Y-65507132D01*
X161898599Y-65521747D01*
X161916777Y-65538223D01*
X161933253Y-65556401D01*
X161947868Y-65576107D01*
X161960480Y-65597150D01*
X161970970Y-65619329D01*
X161979235Y-65642428D01*
X161985196Y-65666227D01*
X161988796Y-65690495D01*
X161990000Y-65714999D01*
X161990000Y-66365001D01*
X161988796Y-66389505D01*
X161985196Y-66413773D01*
X161979235Y-66437572D01*
X161970970Y-66460671D01*
X161960480Y-66482850D01*
X161947868Y-66503893D01*
X161933253Y-66523599D01*
X161916777Y-66541777D01*
X161898599Y-66558253D01*
X161878893Y-66572868D01*
X161857850Y-66585480D01*
X161835671Y-66595970D01*
X161812572Y-66604235D01*
X161788773Y-66610196D01*
X161764505Y-66613796D01*
X161740001Y-66615000D01*
X160839999Y-66615000D01*
X160815495Y-66613796D01*
X160791227Y-66610196D01*
X160767428Y-66604235D01*
X160744329Y-66595970D01*
X160722150Y-66585480D01*
X160701107Y-66572868D01*
X160681401Y-66558253D01*
X160663223Y-66541777D01*
X160646747Y-66523599D01*
X160632132Y-66503893D01*
X160619520Y-66482850D01*
X160609030Y-66460671D01*
X160600765Y-66437572D01*
X160594804Y-66413773D01*
X160591204Y-66389505D01*
X160590000Y-66365001D01*
X160590000Y-65714999D01*
X160591204Y-65690495D01*
X160594804Y-65666227D01*
X160600765Y-65642428D01*
X160609030Y-65619329D01*
X160619520Y-65597150D01*
X160632132Y-65576107D01*
X160646747Y-65556401D01*
X160663223Y-65538223D01*
X160681401Y-65521747D01*
X160701107Y-65507132D01*
X160722150Y-65494520D01*
X160744329Y-65484030D01*
X160767428Y-65475765D01*
X160791227Y-65469804D01*
X160815495Y-65466204D01*
X160839999Y-65465000D01*
X161740001Y-65465000D01*
X161764505Y-65466204D01*
X161764505Y-65466204D01*
G37*
D17*
G04 #@! TD*
G04 #@! TO.P,R7,1*
G04 #@! TO.N,Net-(J3-Pad1)*
X161290000Y-66040000D03*
D18*
G04 #@! TO.P,U1,1*
G04 #@! TO.N,VDD*
X131700000Y-60960000D03*
G04 #@! TO.P,U1,2*
G04 #@! TO.N,CLKIN2*
X131700000Y-59690000D03*
G04 #@! TO.P,U1,3*
G04 #@! TO.N,CLKOUT*
X131700000Y-58420000D03*
G04 #@! TO.P,U1,4*
G04 #@! TO.N,MCLR*
X131700000Y-57150000D03*
G04 #@! TO.P,U1,5*
G04 #@! TO.N,INPUT_A2*
X131700000Y-55880000D03*
G04 #@! TO.P,U1,6*
G04 #@! TO.N,INPUT_B2*
X131700000Y-54610000D03*
G04 #@! TO.P,U1,7*
G04 #@! TO.N,DTIME*
X131700000Y-53340000D03*
G04 #@! TO.P,U1,8*
G04 #@! TO.N,DISP*
X131700000Y-52070000D03*
G04 #@! TO.P,U1,9*
G04 #@! TO.N,LCD_D6*
X131700000Y-50800000D03*
G04 #@! TO.P,U1,10*
G04 #@! TO.N,LCD_D7*
X131700000Y-49530000D03*
G04 #@! TO.P,U1,11*
G04 #@! TO.N,LCD_D5*
X122300000Y-49530000D03*
G04 #@! TO.P,U1,12*
G04 #@! TO.N,LCD_D4*
X122300000Y-50800000D03*
G04 #@! TO.P,U1,13*
G04 #@! TO.N,LCD_E*
X122300000Y-52070000D03*
G04 #@! TO.P,U1,14*
G04 #@! TO.N,LCD_RS*
X122300000Y-53340000D03*
G04 #@! TO.P,U1,15*
G04 #@! TO.N,RX1*
X122300000Y-54610000D03*
G04 #@! TO.P,U1,16*
G04 #@! TO.N,TX1*
X122300000Y-55880000D03*
G04 #@! TO.P,U1,17*
G04 #@! TO.N,ZCD*
X122300000Y-57150000D03*
G04 #@! TO.P,U1,18*
G04 #@! TO.N,PGC*
X122300000Y-58420000D03*
G04 #@! TO.P,U1,19*
G04 #@! TO.N,PGD*
X122300000Y-59690000D03*
G04 #@! TO.P,U1,20*
G04 #@! TO.N,GND*
X122300000Y-60960000D03*
G04 #@! TD*
D19*
G04 #@! TO.P,Y1,1*
G04 #@! TO.N,CLKIN2*
X137160000Y-59690000D03*
G04 #@! TO.P,Y1,2*
G04 #@! TO.N,Net-(C3-Pad1)*
X142060000Y-59690000D03*
G04 #@! TD*
D15*
G04 #@! TO.P,JP1,1*
G04 #@! TO.N,Net-(JP1-Pad1)*
X154940000Y-38100000D03*
D14*
G04 #@! TO.P,JP1,2*
G04 #@! TO.N,VDD*
X157480000Y-38100000D03*
G04 #@! TD*
D15*
G04 #@! TO.P,P1,1*
G04 #@! TO.N,GND*
X114300000Y-33020000D03*
D14*
G04 #@! TO.P,P1,2*
G04 #@! TO.N,VDD*
X116840000Y-33020000D03*
G04 #@! TO.P,P1,3*
G04 #@! TO.N,Vee*
X119380000Y-33020000D03*
G04 #@! TO.P,P1,4*
G04 #@! TO.N,LCD_RS*
X121920000Y-33020000D03*
G04 #@! TO.P,P1,5*
G04 #@! TO.N,GND*
X124460000Y-33020000D03*
G04 #@! TO.P,P1,6*
G04 #@! TO.N,LCD_E*
X127000000Y-33020000D03*
G04 #@! TO.P,P1,7*
G04 #@! TO.N,GND*
X129540000Y-33020000D03*
G04 #@! TO.P,P1,8*
X132080000Y-33020000D03*
G04 #@! TO.P,P1,9*
X134620000Y-33020000D03*
G04 #@! TO.P,P1,10*
X137160000Y-33020000D03*
G04 #@! TO.P,P1,11*
G04 #@! TO.N,LCD_D4*
X139700000Y-33020000D03*
G04 #@! TO.P,P1,12*
G04 #@! TO.N,LCD_D5*
X142240000Y-33020000D03*
G04 #@! TO.P,P1,13*
G04 #@! TO.N,LCD_D6*
X144780000Y-33020000D03*
G04 #@! TO.P,P1,14*
G04 #@! TO.N,LCD_D7*
X147320000Y-33020000D03*
G04 #@! TO.P,P1,15*
G04 #@! TO.N,Net-(P1-Pad15)*
X149860000Y-33020000D03*
G04 #@! TO.P,P1,16*
G04 #@! TO.N,GND*
X152400000Y-33020000D03*
G04 #@! TD*
D15*
G04 #@! TO.P,J7,1*
G04 #@! TO.N,Net-(C8-Pad1)*
X188595000Y-43180000D03*
D14*
G04 #@! TO.P,J7,2*
G04 #@! TO.N,GND*
X188595000Y-40640000D03*
G04 #@! TD*
D16*
G04 #@! TO.N,LCD_D6*
G04 #@! TO.C,R9*
G36*
X147159505Y-49591204D02*
X147183773Y-49594804D01*
X147207572Y-49600765D01*
X147230671Y-49609030D01*
X147252850Y-49619520D01*
X147273893Y-49632132D01*
X147293599Y-49646747D01*
X147311777Y-49663223D01*
X147328253Y-49681401D01*
X147342868Y-49701107D01*
X147355480Y-49722150D01*
X147365970Y-49744329D01*
X147374235Y-49767428D01*
X147380196Y-49791227D01*
X147383796Y-49815495D01*
X147385000Y-49839999D01*
X147385000Y-50490001D01*
X147383796Y-50514505D01*
X147380196Y-50538773D01*
X147374235Y-50562572D01*
X147365970Y-50585671D01*
X147355480Y-50607850D01*
X147342868Y-50628893D01*
X147328253Y-50648599D01*
X147311777Y-50666777D01*
X147293599Y-50683253D01*
X147273893Y-50697868D01*
X147252850Y-50710480D01*
X147230671Y-50720970D01*
X147207572Y-50729235D01*
X147183773Y-50735196D01*
X147159505Y-50738796D01*
X147135001Y-50740000D01*
X146234999Y-50740000D01*
X146210495Y-50738796D01*
X146186227Y-50735196D01*
X146162428Y-50729235D01*
X146139329Y-50720970D01*
X146117150Y-50710480D01*
X146096107Y-50697868D01*
X146076401Y-50683253D01*
X146058223Y-50666777D01*
X146041747Y-50648599D01*
X146027132Y-50628893D01*
X146014520Y-50607850D01*
X146004030Y-50585671D01*
X145995765Y-50562572D01*
X145989804Y-50538773D01*
X145986204Y-50514505D01*
X145985000Y-50490001D01*
X145985000Y-49839999D01*
X145986204Y-49815495D01*
X145989804Y-49791227D01*
X145995765Y-49767428D01*
X146004030Y-49744329D01*
X146014520Y-49722150D01*
X146027132Y-49701107D01*
X146041747Y-49681401D01*
X146058223Y-49663223D01*
X146076401Y-49646747D01*
X146096107Y-49632132D01*
X146117150Y-49619520D01*
X146139329Y-49609030D01*
X146162428Y-49600765D01*
X146186227Y-49594804D01*
X146210495Y-49591204D01*
X146234999Y-49590000D01*
X147135001Y-49590000D01*
X147159505Y-49591204D01*
X147159505Y-49591204D01*
G37*
D17*
G04 #@! TD*
G04 #@! TO.P,R9,2*
G04 #@! TO.N,LCD_D6*
X146685000Y-50165000D03*
D16*
G04 #@! TO.N,VDD*
G04 #@! TO.C,R9*
G36*
X147159505Y-47541204D02*
X147183773Y-47544804D01*
X147207572Y-47550765D01*
X147230671Y-47559030D01*
X147252850Y-47569520D01*
X147273893Y-47582132D01*
X147293599Y-47596747D01*
X147311777Y-47613223D01*
X147328253Y-47631401D01*
X147342868Y-47651107D01*
X147355480Y-47672150D01*
X147365970Y-47694329D01*
X147374235Y-47717428D01*
X147380196Y-47741227D01*
X147383796Y-47765495D01*
X147385000Y-47789999D01*
X147385000Y-48440001D01*
X147383796Y-48464505D01*
X147380196Y-48488773D01*
X147374235Y-48512572D01*
X147365970Y-48535671D01*
X147355480Y-48557850D01*
X147342868Y-48578893D01*
X147328253Y-48598599D01*
X147311777Y-48616777D01*
X147293599Y-48633253D01*
X147273893Y-48647868D01*
X147252850Y-48660480D01*
X147230671Y-48670970D01*
X147207572Y-48679235D01*
X147183773Y-48685196D01*
X147159505Y-48688796D01*
X147135001Y-48690000D01*
X146234999Y-48690000D01*
X146210495Y-48688796D01*
X146186227Y-48685196D01*
X146162428Y-48679235D01*
X146139329Y-48670970D01*
X146117150Y-48660480D01*
X146096107Y-48647868D01*
X146076401Y-48633253D01*
X146058223Y-48616777D01*
X146041747Y-48598599D01*
X146027132Y-48578893D01*
X146014520Y-48557850D01*
X146004030Y-48535671D01*
X145995765Y-48512572D01*
X145989804Y-48488773D01*
X145986204Y-48464505D01*
X145985000Y-48440001D01*
X145985000Y-47789999D01*
X145986204Y-47765495D01*
X145989804Y-47741227D01*
X145995765Y-47717428D01*
X146004030Y-47694329D01*
X146014520Y-47672150D01*
X146027132Y-47651107D01*
X146041747Y-47631401D01*
X146058223Y-47613223D01*
X146076401Y-47596747D01*
X146096107Y-47582132D01*
X146117150Y-47569520D01*
X146139329Y-47559030D01*
X146162428Y-47550765D01*
X146186227Y-47544804D01*
X146210495Y-47541204D01*
X146234999Y-47540000D01*
X147135001Y-47540000D01*
X147159505Y-47541204D01*
X147159505Y-47541204D01*
G37*
D17*
G04 #@! TD*
G04 #@! TO.P,R9,1*
G04 #@! TO.N,VDD*
X146685000Y-48115000D03*
D16*
G04 #@! TO.N,LCD_D6*
G04 #@! TO.C,TH1*
G36*
X146905505Y-58345204D02*
X146929773Y-58348804D01*
X146953572Y-58354765D01*
X146976671Y-58363030D01*
X146998850Y-58373520D01*
X147019893Y-58386132D01*
X147039599Y-58400747D01*
X147057777Y-58417223D01*
X147074253Y-58435401D01*
X147088868Y-58455107D01*
X147101480Y-58476150D01*
X147111970Y-58498329D01*
X147120235Y-58521428D01*
X147126196Y-58545227D01*
X147129796Y-58569495D01*
X147131000Y-58593999D01*
X147131000Y-59244001D01*
X147129796Y-59268505D01*
X147126196Y-59292773D01*
X147120235Y-59316572D01*
X147111970Y-59339671D01*
X147101480Y-59361850D01*
X147088868Y-59382893D01*
X147074253Y-59402599D01*
X147057777Y-59420777D01*
X147039599Y-59437253D01*
X147019893Y-59451868D01*
X146998850Y-59464480D01*
X146976671Y-59474970D01*
X146953572Y-59483235D01*
X146929773Y-59489196D01*
X146905505Y-59492796D01*
X146881001Y-59494000D01*
X145980999Y-59494000D01*
X145956495Y-59492796D01*
X145932227Y-59489196D01*
X145908428Y-59483235D01*
X145885329Y-59474970D01*
X145863150Y-59464480D01*
X145842107Y-59451868D01*
X145822401Y-59437253D01*
X145804223Y-59420777D01*
X145787747Y-59402599D01*
X145773132Y-59382893D01*
X145760520Y-59361850D01*
X145750030Y-59339671D01*
X145741765Y-59316572D01*
X145735804Y-59292773D01*
X145732204Y-59268505D01*
X145731000Y-59244001D01*
X145731000Y-58593999D01*
X145732204Y-58569495D01*
X145735804Y-58545227D01*
X145741765Y-58521428D01*
X145750030Y-58498329D01*
X145760520Y-58476150D01*
X145773132Y-58455107D01*
X145787747Y-58435401D01*
X145804223Y-58417223D01*
X145822401Y-58400747D01*
X145842107Y-58386132D01*
X145863150Y-58373520D01*
X145885329Y-58363030D01*
X145908428Y-58354765D01*
X145932227Y-58348804D01*
X145956495Y-58345204D01*
X145980999Y-58344000D01*
X146881001Y-58344000D01*
X146905505Y-58345204D01*
X146905505Y-58345204D01*
G37*
D17*
G04 #@! TD*
G04 #@! TO.P,TH1,1*
G04 #@! TO.N,LCD_D6*
X146431000Y-58919000D03*
D16*
G04 #@! TO.N,GND*
G04 #@! TO.C,TH1*
G36*
X146905505Y-60395204D02*
X146929773Y-60398804D01*
X146953572Y-60404765D01*
X146976671Y-60413030D01*
X146998850Y-60423520D01*
X147019893Y-60436132D01*
X147039599Y-60450747D01*
X147057777Y-60467223D01*
X147074253Y-60485401D01*
X147088868Y-60505107D01*
X147101480Y-60526150D01*
X147111970Y-60548329D01*
X147120235Y-60571428D01*
X147126196Y-60595227D01*
X147129796Y-60619495D01*
X147131000Y-60643999D01*
X147131000Y-61294001D01*
X147129796Y-61318505D01*
X147126196Y-61342773D01*
X147120235Y-61366572D01*
X147111970Y-61389671D01*
X147101480Y-61411850D01*
X147088868Y-61432893D01*
X147074253Y-61452599D01*
X147057777Y-61470777D01*
X147039599Y-61487253D01*
X147019893Y-61501868D01*
X146998850Y-61514480D01*
X146976671Y-61524970D01*
X146953572Y-61533235D01*
X146929773Y-61539196D01*
X146905505Y-61542796D01*
X146881001Y-61544000D01*
X145980999Y-61544000D01*
X145956495Y-61542796D01*
X145932227Y-61539196D01*
X145908428Y-61533235D01*
X145885329Y-61524970D01*
X145863150Y-61514480D01*
X145842107Y-61501868D01*
X145822401Y-61487253D01*
X145804223Y-61470777D01*
X145787747Y-61452599D01*
X145773132Y-61432893D01*
X145760520Y-61411850D01*
X145750030Y-61389671D01*
X145741765Y-61366572D01*
X145735804Y-61342773D01*
X145732204Y-61318505D01*
X145731000Y-61294001D01*
X145731000Y-60643999D01*
X145732204Y-60619495D01*
X145735804Y-60595227D01*
X145741765Y-60571428D01*
X145750030Y-60548329D01*
X145760520Y-60526150D01*
X145773132Y-60505107D01*
X145787747Y-60485401D01*
X145804223Y-60467223D01*
X145822401Y-60450747D01*
X145842107Y-60436132D01*
X145863150Y-60423520D01*
X145885329Y-60413030D01*
X145908428Y-60404765D01*
X145932227Y-60398804D01*
X145956495Y-60395204D01*
X145980999Y-60394000D01*
X146881001Y-60394000D01*
X146905505Y-60395204D01*
X146905505Y-60395204D01*
G37*
D17*
G04 #@! TD*
G04 #@! TO.P,TH1,2*
G04 #@! TO.N,GND*
X146431000Y-60969000D03*
D20*
G04 #@! TO.P,C8,1*
G04 #@! TO.N,Net-(C8-Pad1)*
X181610000Y-46990000D03*
G04 #@! TO.P,C8,2*
G04 #@! TO.N,GND*
X184110000Y-46990000D03*
G04 #@! TD*
G04 #@! TO.P,C9,2*
G04 #@! TO.N,GND*
X166965000Y-43815000D03*
G04 #@! TO.P,C9,1*
G04 #@! TO.N,VDD*
X164465000Y-43815000D03*
G04 #@! TD*
D14*
G04 #@! TO.P,J3,2*
G04 #@! TO.N,GND*
X158750000Y-69215000D03*
D15*
G04 #@! TO.P,J3,1*
G04 #@! TO.N,Net-(J3-Pad1)*
X161290000Y-69215000D03*
G04 #@! TD*
G04 #@! TO.P,J4,1*
G04 #@! TO.N,Net-(J4-Pad1)*
X168910000Y-69215000D03*
D14*
G04 #@! TO.P,J4,2*
G04 #@! TO.N,GND*
X166370000Y-69215000D03*
G04 #@! TD*
G04 #@! TO.P,J5,2*
G04 #@! TO.N,GND*
X173990000Y-69215000D03*
D15*
G04 #@! TO.P,J5,1*
G04 #@! TO.N,Net-(J5-Pad1)*
X176530000Y-69215000D03*
G04 #@! TD*
G04 #@! TO.P,J6,1*
G04 #@! TO.N,Net-(J6-Pad1)*
X117475000Y-69215000D03*
D14*
G04 #@! TO.P,J6,2*
G04 #@! TO.N,GND*
X114935000Y-69215000D03*
G04 #@! TD*
D13*
G04 #@! TO.P,M3,*
G04 #@! TO.N,*
X108585000Y-64135000D03*
G04 #@! TD*
D16*
G04 #@! TO.N,VDD*
G04 #@! TO.C,C10*
G36*
X158609505Y-62166204D02*
X158633773Y-62169804D01*
X158657572Y-62175765D01*
X158680671Y-62184030D01*
X158702850Y-62194520D01*
X158723893Y-62207132D01*
X158743599Y-62221747D01*
X158761777Y-62238223D01*
X158778253Y-62256401D01*
X158792868Y-62276107D01*
X158805480Y-62297150D01*
X158815970Y-62319329D01*
X158824235Y-62342428D01*
X158830196Y-62366227D01*
X158833796Y-62390495D01*
X158835000Y-62414999D01*
X158835000Y-63315001D01*
X158833796Y-63339505D01*
X158830196Y-63363773D01*
X158824235Y-63387572D01*
X158815970Y-63410671D01*
X158805480Y-63432850D01*
X158792868Y-63453893D01*
X158778253Y-63473599D01*
X158761777Y-63491777D01*
X158743599Y-63508253D01*
X158723893Y-63522868D01*
X158702850Y-63535480D01*
X158680671Y-63545970D01*
X158657572Y-63554235D01*
X158633773Y-63560196D01*
X158609505Y-63563796D01*
X158585001Y-63565000D01*
X157934999Y-63565000D01*
X157910495Y-63563796D01*
X157886227Y-63560196D01*
X157862428Y-63554235D01*
X157839329Y-63545970D01*
X157817150Y-63535480D01*
X157796107Y-63522868D01*
X157776401Y-63508253D01*
X157758223Y-63491777D01*
X157741747Y-63473599D01*
X157727132Y-63453893D01*
X157714520Y-63432850D01*
X157704030Y-63410671D01*
X157695765Y-63387572D01*
X157689804Y-63363773D01*
X157686204Y-63339505D01*
X157685000Y-63315001D01*
X157685000Y-62414999D01*
X157686204Y-62390495D01*
X157689804Y-62366227D01*
X157695765Y-62342428D01*
X157704030Y-62319329D01*
X157714520Y-62297150D01*
X157727132Y-62276107D01*
X157741747Y-62256401D01*
X157758223Y-62238223D01*
X157776401Y-62221747D01*
X157796107Y-62207132D01*
X157817150Y-62194520D01*
X157839329Y-62184030D01*
X157862428Y-62175765D01*
X157886227Y-62169804D01*
X157910495Y-62166204D01*
X157934999Y-62165000D01*
X158585001Y-62165000D01*
X158609505Y-62166204D01*
X158609505Y-62166204D01*
G37*
D17*
G04 #@! TD*
G04 #@! TO.P,C10,2*
G04 #@! TO.N,VDD*
X158260000Y-62865000D03*
D16*
G04 #@! TO.N,GND*
G04 #@! TO.C,C10*
G36*
X156559505Y-62166204D02*
X156583773Y-62169804D01*
X156607572Y-62175765D01*
X156630671Y-62184030D01*
X156652850Y-62194520D01*
X156673893Y-62207132D01*
X156693599Y-62221747D01*
X156711777Y-62238223D01*
X156728253Y-62256401D01*
X156742868Y-62276107D01*
X156755480Y-62297150D01*
X156765970Y-62319329D01*
X156774235Y-62342428D01*
X156780196Y-62366227D01*
X156783796Y-62390495D01*
X156785000Y-62414999D01*
X156785000Y-63315001D01*
X156783796Y-63339505D01*
X156780196Y-63363773D01*
X156774235Y-63387572D01*
X156765970Y-63410671D01*
X156755480Y-63432850D01*
X156742868Y-63453893D01*
X156728253Y-63473599D01*
X156711777Y-63491777D01*
X156693599Y-63508253D01*
X156673893Y-63522868D01*
X156652850Y-63535480D01*
X156630671Y-63545970D01*
X156607572Y-63554235D01*
X156583773Y-63560196D01*
X156559505Y-63563796D01*
X156535001Y-63565000D01*
X155884999Y-63565000D01*
X155860495Y-63563796D01*
X155836227Y-63560196D01*
X155812428Y-63554235D01*
X155789329Y-63545970D01*
X155767150Y-63535480D01*
X155746107Y-63522868D01*
X155726401Y-63508253D01*
X155708223Y-63491777D01*
X155691747Y-63473599D01*
X155677132Y-63453893D01*
X155664520Y-63432850D01*
X155654030Y-63410671D01*
X155645765Y-63387572D01*
X155639804Y-63363773D01*
X155636204Y-63339505D01*
X155635000Y-63315001D01*
X155635000Y-62414999D01*
X155636204Y-62390495D01*
X155639804Y-62366227D01*
X155645765Y-62342428D01*
X155654030Y-62319329D01*
X155664520Y-62297150D01*
X155677132Y-62276107D01*
X155691747Y-62256401D01*
X155708223Y-62238223D01*
X155726401Y-62221747D01*
X155746107Y-62207132D01*
X155767150Y-62194520D01*
X155789329Y-62184030D01*
X155812428Y-62175765D01*
X155836227Y-62169804D01*
X155860495Y-62166204D01*
X155884999Y-62165000D01*
X156535001Y-62165000D01*
X156559505Y-62166204D01*
X156559505Y-62166204D01*
G37*
D17*
G04 #@! TD*
G04 #@! TO.P,C10,1*
G04 #@! TO.N,GND*
X156210000Y-62865000D03*
D16*
G04 #@! TO.N,GND*
G04 #@! TO.C,C11*
G36*
X156559505Y-64071204D02*
X156583773Y-64074804D01*
X156607572Y-64080765D01*
X156630671Y-64089030D01*
X156652850Y-64099520D01*
X156673893Y-64112132D01*
X156693599Y-64126747D01*
X156711777Y-64143223D01*
X156728253Y-64161401D01*
X156742868Y-64181107D01*
X156755480Y-64202150D01*
X156765970Y-64224329D01*
X156774235Y-64247428D01*
X156780196Y-64271227D01*
X156783796Y-64295495D01*
X156785000Y-64319999D01*
X156785000Y-65220001D01*
X156783796Y-65244505D01*
X156780196Y-65268773D01*
X156774235Y-65292572D01*
X156765970Y-65315671D01*
X156755480Y-65337850D01*
X156742868Y-65358893D01*
X156728253Y-65378599D01*
X156711777Y-65396777D01*
X156693599Y-65413253D01*
X156673893Y-65427868D01*
X156652850Y-65440480D01*
X156630671Y-65450970D01*
X156607572Y-65459235D01*
X156583773Y-65465196D01*
X156559505Y-65468796D01*
X156535001Y-65470000D01*
X155884999Y-65470000D01*
X155860495Y-65468796D01*
X155836227Y-65465196D01*
X155812428Y-65459235D01*
X155789329Y-65450970D01*
X155767150Y-65440480D01*
X155746107Y-65427868D01*
X155726401Y-65413253D01*
X155708223Y-65396777D01*
X155691747Y-65378599D01*
X155677132Y-65358893D01*
X155664520Y-65337850D01*
X155654030Y-65315671D01*
X155645765Y-65292572D01*
X155639804Y-65268773D01*
X155636204Y-65244505D01*
X155635000Y-65220001D01*
X155635000Y-64319999D01*
X155636204Y-64295495D01*
X155639804Y-64271227D01*
X155645765Y-64247428D01*
X155654030Y-64224329D01*
X155664520Y-64202150D01*
X155677132Y-64181107D01*
X155691747Y-64161401D01*
X155708223Y-64143223D01*
X155726401Y-64126747D01*
X155746107Y-64112132D01*
X155767150Y-64099520D01*
X155789329Y-64089030D01*
X155812428Y-64080765D01*
X155836227Y-64074804D01*
X155860495Y-64071204D01*
X155884999Y-64070000D01*
X156535001Y-64070000D01*
X156559505Y-64071204D01*
X156559505Y-64071204D01*
G37*
D17*
G04 #@! TD*
G04 #@! TO.P,C11,1*
G04 #@! TO.N,GND*
X156210000Y-64770000D03*
D16*
G04 #@! TO.N,VDD*
G04 #@! TO.C,C11*
G36*
X158609505Y-64071204D02*
X158633773Y-64074804D01*
X158657572Y-64080765D01*
X158680671Y-64089030D01*
X158702850Y-64099520D01*
X158723893Y-64112132D01*
X158743599Y-64126747D01*
X158761777Y-64143223D01*
X158778253Y-64161401D01*
X158792868Y-64181107D01*
X158805480Y-64202150D01*
X158815970Y-64224329D01*
X158824235Y-64247428D01*
X158830196Y-64271227D01*
X158833796Y-64295495D01*
X158835000Y-64319999D01*
X158835000Y-65220001D01*
X158833796Y-65244505D01*
X158830196Y-65268773D01*
X158824235Y-65292572D01*
X158815970Y-65315671D01*
X158805480Y-65337850D01*
X158792868Y-65358893D01*
X158778253Y-65378599D01*
X158761777Y-65396777D01*
X158743599Y-65413253D01*
X158723893Y-65427868D01*
X158702850Y-65440480D01*
X158680671Y-65450970D01*
X158657572Y-65459235D01*
X158633773Y-65465196D01*
X158609505Y-65468796D01*
X158585001Y-65470000D01*
X157934999Y-65470000D01*
X157910495Y-65468796D01*
X157886227Y-65465196D01*
X157862428Y-65459235D01*
X157839329Y-65450970D01*
X157817150Y-65440480D01*
X157796107Y-65427868D01*
X157776401Y-65413253D01*
X157758223Y-65396777D01*
X157741747Y-65378599D01*
X157727132Y-65358893D01*
X157714520Y-65337850D01*
X157704030Y-65315671D01*
X157695765Y-65292572D01*
X157689804Y-65268773D01*
X157686204Y-65244505D01*
X157685000Y-65220001D01*
X157685000Y-64319999D01*
X157686204Y-64295495D01*
X157689804Y-64271227D01*
X157695765Y-64247428D01*
X157704030Y-64224329D01*
X157714520Y-64202150D01*
X157727132Y-64181107D01*
X157741747Y-64161401D01*
X157758223Y-64143223D01*
X157776401Y-64126747D01*
X157796107Y-64112132D01*
X157817150Y-64099520D01*
X157839329Y-64089030D01*
X157862428Y-64080765D01*
X157886227Y-64074804D01*
X157910495Y-64071204D01*
X157934999Y-64070000D01*
X158585001Y-64070000D01*
X158609505Y-64071204D01*
X158609505Y-64071204D01*
G37*
D17*
G04 #@! TD*
G04 #@! TO.P,C11,2*
G04 #@! TO.N,VDD*
X158260000Y-64770000D03*
D15*
G04 #@! TO.P,J8,1*
G04 #@! TO.N,MCLR2*
X153670000Y-69215000D03*
D14*
G04 #@! TO.P,J8,2*
G04 #@! TO.N,VDD*
X151130000Y-69215000D03*
G04 #@! TO.P,J8,3*
G04 #@! TO.N,GND*
X148590000Y-69215000D03*
G04 #@! TO.P,J8,4*
G04 #@! TO.N,PGD*
X146050000Y-69215000D03*
G04 #@! TO.P,J8,5*
G04 #@! TO.N,PGC*
X143510000Y-69215000D03*
G04 #@! TD*
D21*
G04 #@! TO.P,U3,1*
G04 #@! TO.N,VDD*
X160180000Y-60960000D03*
G04 #@! TO.P,U3,2*
G04 #@! TO.N,Net-(U3-Pad2)*
X160180000Y-59690000D03*
G04 #@! TO.P,U3,3*
G04 #@! TO.N,Net-(U3-Pad3)*
X160180000Y-58420000D03*
G04 #@! TO.P,U3,4*
G04 #@! TO.N,MCLR2*
X160180000Y-57150000D03*
G04 #@! TO.P,U3,5*
G04 #@! TO.N,CLKIN*
X160180000Y-55880000D03*
G04 #@! TO.P,U3,6*
G04 #@! TO.N,INPUT_A*
X160180000Y-54610000D03*
G04 #@! TO.P,U3,7*
G04 #@! TO.N,INPUT_B*
X160180000Y-53340000D03*
G04 #@! TO.P,U3,8*
G04 #@! TO.N,INPUT_B2*
X154780000Y-53340000D03*
G04 #@! TO.P,U3,9*
G04 #@! TO.N,INPUT_A2*
X154780000Y-54610000D03*
G04 #@! TO.P,U3,10*
G04 #@! TO.N,Net-(R10-Pad1)*
X154780000Y-55880000D03*
G04 #@! TO.P,U3,11*
G04 #@! TO.N,Net-(U3-Pad11)*
X154780000Y-57150000D03*
G04 #@! TO.P,U3,12*
G04 #@! TO.N,PGC*
X154780000Y-58420000D03*
G04 #@! TO.P,U3,13*
G04 #@! TO.N,PGD*
X154780000Y-59690000D03*
G04 #@! TO.P,U3,14*
G04 #@! TO.N,GND*
X154780000Y-60960000D03*
G04 #@! TD*
D10*
G04 #@! TO.P,D2,2*
G04 #@! TO.N,Net-(D2-Pad2)*
X140970000Y-50165000D03*
G04 #@! TO.P,D2,1*
G04 #@! TO.N,DTIME*
X144270000Y-50165000D03*
G04 #@! TD*
D16*
G04 #@! TO.N,Net-(R10-Pad1)*
G04 #@! TO.C,R10*
G36*
X133189505Y-64586204D02*
X133213773Y-64589804D01*
X133237572Y-64595765D01*
X133260671Y-64604030D01*
X133282850Y-64614520D01*
X133303893Y-64627132D01*
X133323599Y-64641747D01*
X133341777Y-64658223D01*
X133358253Y-64676401D01*
X133372868Y-64696107D01*
X133385480Y-64717150D01*
X133395970Y-64739329D01*
X133404235Y-64762428D01*
X133410196Y-64786227D01*
X133413796Y-64810495D01*
X133415000Y-64834999D01*
X133415000Y-65485001D01*
X133413796Y-65509505D01*
X133410196Y-65533773D01*
X133404235Y-65557572D01*
X133395970Y-65580671D01*
X133385480Y-65602850D01*
X133372868Y-65623893D01*
X133358253Y-65643599D01*
X133341777Y-65661777D01*
X133323599Y-65678253D01*
X133303893Y-65692868D01*
X133282850Y-65705480D01*
X133260671Y-65715970D01*
X133237572Y-65724235D01*
X133213773Y-65730196D01*
X133189505Y-65733796D01*
X133165001Y-65735000D01*
X132264999Y-65735000D01*
X132240495Y-65733796D01*
X132216227Y-65730196D01*
X132192428Y-65724235D01*
X132169329Y-65715970D01*
X132147150Y-65705480D01*
X132126107Y-65692868D01*
X132106401Y-65678253D01*
X132088223Y-65661777D01*
X132071747Y-65643599D01*
X132057132Y-65623893D01*
X132044520Y-65602850D01*
X132034030Y-65580671D01*
X132025765Y-65557572D01*
X132019804Y-65533773D01*
X132016204Y-65509505D01*
X132015000Y-65485001D01*
X132015000Y-64834999D01*
X132016204Y-64810495D01*
X132019804Y-64786227D01*
X132025765Y-64762428D01*
X132034030Y-64739329D01*
X132044520Y-64717150D01*
X132057132Y-64696107D01*
X132071747Y-64676401D01*
X132088223Y-64658223D01*
X132106401Y-64641747D01*
X132126107Y-64627132D01*
X132147150Y-64614520D01*
X132169329Y-64604030D01*
X132192428Y-64595765D01*
X132216227Y-64589804D01*
X132240495Y-64586204D01*
X132264999Y-64585000D01*
X133165001Y-64585000D01*
X133189505Y-64586204D01*
X133189505Y-64586204D01*
G37*
D17*
G04 #@! TD*
G04 #@! TO.P,R10,1*
G04 #@! TO.N,Net-(R10-Pad1)*
X132715000Y-65160000D03*
D16*
G04 #@! TO.N,CLKIN2*
G04 #@! TO.C,R10*
G36*
X133189505Y-62536204D02*
X133213773Y-62539804D01*
X133237572Y-62545765D01*
X133260671Y-62554030D01*
X133282850Y-62564520D01*
X133303893Y-62577132D01*
X133323599Y-62591747D01*
X133341777Y-62608223D01*
X133358253Y-62626401D01*
X133372868Y-62646107D01*
X133385480Y-62667150D01*
X133395970Y-62689329D01*
X133404235Y-62712428D01*
X133410196Y-62736227D01*
X133413796Y-62760495D01*
X133415000Y-62784999D01*
X133415000Y-63435001D01*
X133413796Y-63459505D01*
X133410196Y-63483773D01*
X133404235Y-63507572D01*
X133395970Y-63530671D01*
X133385480Y-63552850D01*
X133372868Y-63573893D01*
X133358253Y-63593599D01*
X133341777Y-63611777D01*
X133323599Y-63628253D01*
X133303893Y-63642868D01*
X133282850Y-63655480D01*
X133260671Y-63665970D01*
X133237572Y-63674235D01*
X133213773Y-63680196D01*
X133189505Y-63683796D01*
X133165001Y-63685000D01*
X132264999Y-63685000D01*
X132240495Y-63683796D01*
X132216227Y-63680196D01*
X132192428Y-63674235D01*
X132169329Y-63665970D01*
X132147150Y-63655480D01*
X132126107Y-63642868D01*
X132106401Y-63628253D01*
X132088223Y-63611777D01*
X132071747Y-63593599D01*
X132057132Y-63573893D01*
X132044520Y-63552850D01*
X132034030Y-63530671D01*
X132025765Y-63507572D01*
X132019804Y-63483773D01*
X132016204Y-63459505D01*
X132015000Y-63435001D01*
X132015000Y-62784999D01*
X132016204Y-62760495D01*
X132019804Y-62736227D01*
X132025765Y-62712428D01*
X132034030Y-62689329D01*
X132044520Y-62667150D01*
X132057132Y-62646107D01*
X132071747Y-62626401D01*
X132088223Y-62608223D01*
X132106401Y-62591747D01*
X132126107Y-62577132D01*
X132147150Y-62564520D01*
X132169329Y-62554030D01*
X132192428Y-62545765D01*
X132216227Y-62539804D01*
X132240495Y-62536204D01*
X132264999Y-62535000D01*
X133165001Y-62535000D01*
X133189505Y-62536204D01*
X133189505Y-62536204D01*
G37*
D17*
G04 #@! TD*
G04 #@! TO.P,R10,2*
G04 #@! TO.N,CLKIN2*
X132715000Y-63110000D03*
D16*
G04 #@! TO.N,TX1*
G04 #@! TO.C,R11*
G36*
X110839505Y-42481204D02*
X110863773Y-42484804D01*
X110887572Y-42490765D01*
X110910671Y-42499030D01*
X110932850Y-42509520D01*
X110953893Y-42522132D01*
X110973599Y-42536747D01*
X110991777Y-42553223D01*
X111008253Y-42571401D01*
X111022868Y-42591107D01*
X111035480Y-42612150D01*
X111045970Y-42634329D01*
X111054235Y-42657428D01*
X111060196Y-42681227D01*
X111063796Y-42705495D01*
X111065000Y-42729999D01*
X111065000Y-43630001D01*
X111063796Y-43654505D01*
X111060196Y-43678773D01*
X111054235Y-43702572D01*
X111045970Y-43725671D01*
X111035480Y-43747850D01*
X111022868Y-43768893D01*
X111008253Y-43788599D01*
X110991777Y-43806777D01*
X110973599Y-43823253D01*
X110953893Y-43837868D01*
X110932850Y-43850480D01*
X110910671Y-43860970D01*
X110887572Y-43869235D01*
X110863773Y-43875196D01*
X110839505Y-43878796D01*
X110815001Y-43880000D01*
X110164999Y-43880000D01*
X110140495Y-43878796D01*
X110116227Y-43875196D01*
X110092428Y-43869235D01*
X110069329Y-43860970D01*
X110047150Y-43850480D01*
X110026107Y-43837868D01*
X110006401Y-43823253D01*
X109988223Y-43806777D01*
X109971747Y-43788599D01*
X109957132Y-43768893D01*
X109944520Y-43747850D01*
X109934030Y-43725671D01*
X109925765Y-43702572D01*
X109919804Y-43678773D01*
X109916204Y-43654505D01*
X109915000Y-43630001D01*
X109915000Y-42729999D01*
X109916204Y-42705495D01*
X109919804Y-42681227D01*
X109925765Y-42657428D01*
X109934030Y-42634329D01*
X109944520Y-42612150D01*
X109957132Y-42591107D01*
X109971747Y-42571401D01*
X109988223Y-42553223D01*
X110006401Y-42536747D01*
X110026107Y-42522132D01*
X110047150Y-42509520D01*
X110069329Y-42499030D01*
X110092428Y-42490765D01*
X110116227Y-42484804D01*
X110140495Y-42481204D01*
X110164999Y-42480000D01*
X110815001Y-42480000D01*
X110839505Y-42481204D01*
X110839505Y-42481204D01*
G37*
D17*
G04 #@! TD*
G04 #@! TO.P,R11,2*
G04 #@! TO.N,TX1*
X110490000Y-43180000D03*
D16*
G04 #@! TO.N,Net-(J2-Pad2)*
G04 #@! TO.C,R11*
G36*
X108789505Y-42481204D02*
X108813773Y-42484804D01*
X108837572Y-42490765D01*
X108860671Y-42499030D01*
X108882850Y-42509520D01*
X108903893Y-42522132D01*
X108923599Y-42536747D01*
X108941777Y-42553223D01*
X108958253Y-42571401D01*
X108972868Y-42591107D01*
X108985480Y-42612150D01*
X108995970Y-42634329D01*
X109004235Y-42657428D01*
X109010196Y-42681227D01*
X109013796Y-42705495D01*
X109015000Y-42729999D01*
X109015000Y-43630001D01*
X109013796Y-43654505D01*
X109010196Y-43678773D01*
X109004235Y-43702572D01*
X108995970Y-43725671D01*
X108985480Y-43747850D01*
X108972868Y-43768893D01*
X108958253Y-43788599D01*
X108941777Y-43806777D01*
X108923599Y-43823253D01*
X108903893Y-43837868D01*
X108882850Y-43850480D01*
X108860671Y-43860970D01*
X108837572Y-43869235D01*
X108813773Y-43875196D01*
X108789505Y-43878796D01*
X108765001Y-43880000D01*
X108114999Y-43880000D01*
X108090495Y-43878796D01*
X108066227Y-43875196D01*
X108042428Y-43869235D01*
X108019329Y-43860970D01*
X107997150Y-43850480D01*
X107976107Y-43837868D01*
X107956401Y-43823253D01*
X107938223Y-43806777D01*
X107921747Y-43788599D01*
X107907132Y-43768893D01*
X107894520Y-43747850D01*
X107884030Y-43725671D01*
X107875765Y-43702572D01*
X107869804Y-43678773D01*
X107866204Y-43654505D01*
X107865000Y-43630001D01*
X107865000Y-42729999D01*
X107866204Y-42705495D01*
X107869804Y-42681227D01*
X107875765Y-42657428D01*
X107884030Y-42634329D01*
X107894520Y-42612150D01*
X107907132Y-42591107D01*
X107921747Y-42571401D01*
X107938223Y-42553223D01*
X107956401Y-42536747D01*
X107976107Y-42522132D01*
X107997150Y-42509520D01*
X108019329Y-42499030D01*
X108042428Y-42490765D01*
X108066227Y-42484804D01*
X108090495Y-42481204D01*
X108114999Y-42480000D01*
X108765001Y-42480000D01*
X108789505Y-42481204D01*
X108789505Y-42481204D01*
G37*
D17*
G04 #@! TD*
G04 #@! TO.P,R11,1*
G04 #@! TO.N,Net-(J2-Pad2)*
X108440000Y-43180000D03*
D16*
G04 #@! TO.N,Net-(J2-Pad3)*
G04 #@! TO.C,R12*
G36*
X108789505Y-39941204D02*
X108813773Y-39944804D01*
X108837572Y-39950765D01*
X108860671Y-39959030D01*
X108882850Y-39969520D01*
X108903893Y-39982132D01*
X108923599Y-39996747D01*
X108941777Y-40013223D01*
X108958253Y-40031401D01*
X108972868Y-40051107D01*
X108985480Y-40072150D01*
X108995970Y-40094329D01*
X109004235Y-40117428D01*
X109010196Y-40141227D01*
X109013796Y-40165495D01*
X109015000Y-40189999D01*
X109015000Y-41090001D01*
X109013796Y-41114505D01*
X109010196Y-41138773D01*
X109004235Y-41162572D01*
X108995970Y-41185671D01*
X108985480Y-41207850D01*
X108972868Y-41228893D01*
X108958253Y-41248599D01*
X108941777Y-41266777D01*
X108923599Y-41283253D01*
X108903893Y-41297868D01*
X108882850Y-41310480D01*
X108860671Y-41320970D01*
X108837572Y-41329235D01*
X108813773Y-41335196D01*
X108789505Y-41338796D01*
X108765001Y-41340000D01*
X108114999Y-41340000D01*
X108090495Y-41338796D01*
X108066227Y-41335196D01*
X108042428Y-41329235D01*
X108019329Y-41320970D01*
X107997150Y-41310480D01*
X107976107Y-41297868D01*
X107956401Y-41283253D01*
X107938223Y-41266777D01*
X107921747Y-41248599D01*
X107907132Y-41228893D01*
X107894520Y-41207850D01*
X107884030Y-41185671D01*
X107875765Y-41162572D01*
X107869804Y-41138773D01*
X107866204Y-41114505D01*
X107865000Y-41090001D01*
X107865000Y-40189999D01*
X107866204Y-40165495D01*
X107869804Y-40141227D01*
X107875765Y-40117428D01*
X107884030Y-40094329D01*
X107894520Y-40072150D01*
X107907132Y-40051107D01*
X107921747Y-40031401D01*
X107938223Y-40013223D01*
X107956401Y-39996747D01*
X107976107Y-39982132D01*
X107997150Y-39969520D01*
X108019329Y-39959030D01*
X108042428Y-39950765D01*
X108066227Y-39944804D01*
X108090495Y-39941204D01*
X108114999Y-39940000D01*
X108765001Y-39940000D01*
X108789505Y-39941204D01*
X108789505Y-39941204D01*
G37*
D17*
G04 #@! TD*
G04 #@! TO.P,R12,1*
G04 #@! TO.N,Net-(J2-Pad3)*
X108440000Y-40640000D03*
D16*
G04 #@! TO.N,RX1*
G04 #@! TO.C,R12*
G36*
X110839505Y-39941204D02*
X110863773Y-39944804D01*
X110887572Y-39950765D01*
X110910671Y-39959030D01*
X110932850Y-39969520D01*
X110953893Y-39982132D01*
X110973599Y-39996747D01*
X110991777Y-40013223D01*
X111008253Y-40031401D01*
X111022868Y-40051107D01*
X111035480Y-40072150D01*
X111045970Y-40094329D01*
X111054235Y-40117428D01*
X111060196Y-40141227D01*
X111063796Y-40165495D01*
X111065000Y-40189999D01*
X111065000Y-41090001D01*
X111063796Y-41114505D01*
X111060196Y-41138773D01*
X111054235Y-41162572D01*
X111045970Y-41185671D01*
X111035480Y-41207850D01*
X111022868Y-41228893D01*
X111008253Y-41248599D01*
X110991777Y-41266777D01*
X110973599Y-41283253D01*
X110953893Y-41297868D01*
X110932850Y-41310480D01*
X110910671Y-41320970D01*
X110887572Y-41329235D01*
X110863773Y-41335196D01*
X110839505Y-41338796D01*
X110815001Y-41340000D01*
X110164999Y-41340000D01*
X110140495Y-41338796D01*
X110116227Y-41335196D01*
X110092428Y-41329235D01*
X110069329Y-41320970D01*
X110047150Y-41310480D01*
X110026107Y-41297868D01*
X110006401Y-41283253D01*
X109988223Y-41266777D01*
X109971747Y-41248599D01*
X109957132Y-41228893D01*
X109944520Y-41207850D01*
X109934030Y-41185671D01*
X109925765Y-41162572D01*
X109919804Y-41138773D01*
X109916204Y-41114505D01*
X109915000Y-41090001D01*
X109915000Y-40189999D01*
X109916204Y-40165495D01*
X109919804Y-40141227D01*
X109925765Y-40117428D01*
X109934030Y-40094329D01*
X109944520Y-40072150D01*
X109957132Y-40051107D01*
X109971747Y-40031401D01*
X109988223Y-40013223D01*
X110006401Y-39996747D01*
X110026107Y-39982132D01*
X110047150Y-39969520D01*
X110069329Y-39959030D01*
X110092428Y-39950765D01*
X110116227Y-39944804D01*
X110140495Y-39941204D01*
X110164999Y-39940000D01*
X110815001Y-39940000D01*
X110839505Y-39941204D01*
X110839505Y-39941204D01*
G37*
D17*
G04 #@! TD*
G04 #@! TO.P,R12,2*
G04 #@! TO.N,RX1*
X110490000Y-40640000D03*
D16*
G04 #@! TO.N,Net-(D2-Pad2)*
G04 #@! TO.C,R13*
G36*
X141564505Y-46926204D02*
X141588773Y-46929804D01*
X141612572Y-46935765D01*
X141635671Y-46944030D01*
X141657850Y-46954520D01*
X141678893Y-46967132D01*
X141698599Y-46981747D01*
X141716777Y-46998223D01*
X141733253Y-47016401D01*
X141747868Y-47036107D01*
X141760480Y-47057150D01*
X141770970Y-47079329D01*
X141779235Y-47102428D01*
X141785196Y-47126227D01*
X141788796Y-47150495D01*
X141790000Y-47174999D01*
X141790000Y-48075001D01*
X141788796Y-48099505D01*
X141785196Y-48123773D01*
X141779235Y-48147572D01*
X141770970Y-48170671D01*
X141760480Y-48192850D01*
X141747868Y-48213893D01*
X141733253Y-48233599D01*
X141716777Y-48251777D01*
X141698599Y-48268253D01*
X141678893Y-48282868D01*
X141657850Y-48295480D01*
X141635671Y-48305970D01*
X141612572Y-48314235D01*
X141588773Y-48320196D01*
X141564505Y-48323796D01*
X141540001Y-48325000D01*
X140889999Y-48325000D01*
X140865495Y-48323796D01*
X140841227Y-48320196D01*
X140817428Y-48314235D01*
X140794329Y-48305970D01*
X140772150Y-48295480D01*
X140751107Y-48282868D01*
X140731401Y-48268253D01*
X140713223Y-48251777D01*
X140696747Y-48233599D01*
X140682132Y-48213893D01*
X140669520Y-48192850D01*
X140659030Y-48170671D01*
X140650765Y-48147572D01*
X140644804Y-48123773D01*
X140641204Y-48099505D01*
X140640000Y-48075001D01*
X140640000Y-47174999D01*
X140641204Y-47150495D01*
X140644804Y-47126227D01*
X140650765Y-47102428D01*
X140659030Y-47079329D01*
X140669520Y-47057150D01*
X140682132Y-47036107D01*
X140696747Y-47016401D01*
X140713223Y-46998223D01*
X140731401Y-46981747D01*
X140751107Y-46967132D01*
X140772150Y-46954520D01*
X140794329Y-46944030D01*
X140817428Y-46935765D01*
X140841227Y-46929804D01*
X140865495Y-46926204D01*
X140889999Y-46925000D01*
X141540001Y-46925000D01*
X141564505Y-46926204D01*
X141564505Y-46926204D01*
G37*
D17*
G04 #@! TD*
G04 #@! TO.P,R13,1*
G04 #@! TO.N,Net-(D2-Pad2)*
X141215000Y-47625000D03*
D16*
G04 #@! TO.N,DTIME*
G04 #@! TO.C,R13*
G36*
X143614505Y-46926204D02*
X143638773Y-46929804D01*
X143662572Y-46935765D01*
X143685671Y-46944030D01*
X143707850Y-46954520D01*
X143728893Y-46967132D01*
X143748599Y-46981747D01*
X143766777Y-46998223D01*
X143783253Y-47016401D01*
X143797868Y-47036107D01*
X143810480Y-47057150D01*
X143820970Y-47079329D01*
X143829235Y-47102428D01*
X143835196Y-47126227D01*
X143838796Y-47150495D01*
X143840000Y-47174999D01*
X143840000Y-48075001D01*
X143838796Y-48099505D01*
X143835196Y-48123773D01*
X143829235Y-48147572D01*
X143820970Y-48170671D01*
X143810480Y-48192850D01*
X143797868Y-48213893D01*
X143783253Y-48233599D01*
X143766777Y-48251777D01*
X143748599Y-48268253D01*
X143728893Y-48282868D01*
X143707850Y-48295480D01*
X143685671Y-48305970D01*
X143662572Y-48314235D01*
X143638773Y-48320196D01*
X143614505Y-48323796D01*
X143590001Y-48325000D01*
X142939999Y-48325000D01*
X142915495Y-48323796D01*
X142891227Y-48320196D01*
X142867428Y-48314235D01*
X142844329Y-48305970D01*
X142822150Y-48295480D01*
X142801107Y-48282868D01*
X142781401Y-48268253D01*
X142763223Y-48251777D01*
X142746747Y-48233599D01*
X142732132Y-48213893D01*
X142719520Y-48192850D01*
X142709030Y-48170671D01*
X142700765Y-48147572D01*
X142694804Y-48123773D01*
X142691204Y-48099505D01*
X142690000Y-48075001D01*
X142690000Y-47174999D01*
X142691204Y-47150495D01*
X142694804Y-47126227D01*
X142700765Y-47102428D01*
X142709030Y-47079329D01*
X142719520Y-47057150D01*
X142732132Y-47036107D01*
X142746747Y-47016401D01*
X142763223Y-46998223D01*
X142781401Y-46981747D01*
X142801107Y-46967132D01*
X142822150Y-46954520D01*
X142844329Y-46944030D01*
X142867428Y-46935765D01*
X142891227Y-46929804D01*
X142915495Y-46926204D01*
X142939999Y-46925000D01*
X143590001Y-46925000D01*
X143614505Y-46926204D01*
X143614505Y-46926204D01*
G37*
D17*
G04 #@! TD*
G04 #@! TO.P,R13,2*
G04 #@! TO.N,DTIME*
X143265000Y-47625000D03*
D22*
G04 #@! TO.N,MCLR*
X118745000Y-55880000D03*
X125730000Y-55880000D03*
G04 #@! TO.N,VDD*
X100978495Y-51168212D03*
X100965000Y-48260000D03*
G04 #@! TO.N,GND*
X134620000Y-64135000D03*
X144780000Y-64135000D03*
X135255000Y-65260000D03*
X144145000Y-65405000D03*
X124315000Y-60960000D03*
X124950000Y-61595000D03*
X135255000Y-47625000D03*
X135255000Y-46355000D03*
X135255000Y-48895000D03*
D23*
X175480000Y-44196000D03*
X179324000Y-44196000D03*
X116205000Y-38735000D03*
X106680000Y-53340000D03*
X156210000Y-60960000D03*
X157421183Y-60923051D03*
X136144000Y-57150000D03*
X136017000Y-62230000D03*
X139700000Y-62230000D03*
X139700000Y-57531000D03*
X139700000Y-59690000D03*
X143637000Y-62103000D03*
X143256000Y-57277000D03*
X144145000Y-59690000D03*
G04 #@! TO.N,PGC*
X118745000Y-58420000D03*
X118745000Y-61595000D03*
G04 #@! TO.N,PGD*
X116840000Y-61595000D03*
X116840000Y-59563004D03*
D22*
G04 #@! TO.N,ZCD*
X114300000Y-61595000D03*
X114300000Y-57912000D03*
G04 #@! TO.N,LCD_D6*
X129540000Y-46990000D03*
X129540000Y-44450000D03*
X146698495Y-56222822D03*
X146685000Y-52705000D03*
G04 #@! TO.N,LCD_D7*
X131700000Y-44450000D03*
X131700000Y-46990000D03*
G04 #@! TD*
D24*
G04 #@! TO.N,DTIME*
X133056000Y-53340000D02*
X134961000Y-51435000D01*
X131700000Y-53340000D02*
X133056000Y-53340000D01*
X134961000Y-51435000D02*
X142169000Y-51435000D01*
X143439000Y-50165000D02*
X144270000Y-50165000D01*
X142169000Y-51435000D02*
X143439000Y-50165000D01*
X144270000Y-48630000D02*
X143265000Y-47625000D01*
X144270000Y-50165000D02*
X144270000Y-48630000D01*
X143265000Y-47625000D02*
X143265000Y-46745000D01*
X143265000Y-46745000D02*
X142875000Y-46355000D01*
X140335000Y-46355000D02*
X139065000Y-47625000D01*
X142875000Y-46355000D02*
X140335000Y-46355000D01*
G04 #@! TO.N,CLKIN*
X161925000Y-55880000D02*
X160180000Y-55880000D01*
X163195000Y-57150000D02*
X161925000Y-55880000D01*
X161290000Y-63990000D02*
X163195000Y-62085000D01*
X163195000Y-62085000D02*
X163195000Y-57150000D01*
G04 #@! TO.N,Net-(C3-Pad1)*
X140825000Y-60925000D02*
X142060000Y-59690000D01*
X140825000Y-64135000D02*
X140825000Y-60925000D01*
X140725000Y-58355000D02*
X140725000Y-55880000D01*
X142060000Y-59690000D02*
X140725000Y-58355000D01*
G04 #@! TO.N,MCLR*
X102235000Y-64135000D02*
X101600000Y-64770000D01*
X118745000Y-55880000D02*
X114300000Y-51435000D01*
X114300000Y-51435000D02*
X114300000Y-49530000D01*
X110000000Y-53340000D02*
X110000000Y-50800000D01*
X110000000Y-48750000D02*
X110490000Y-48260000D01*
X126129999Y-56279999D02*
X125730000Y-55880000D01*
X127000000Y-57150000D02*
X126129999Y-56279999D01*
X131700000Y-57150000D02*
X127000000Y-57150000D01*
X113030000Y-48260000D02*
X110490000Y-48260000D01*
X114300000Y-49530000D02*
X113030000Y-48260000D01*
X100369000Y-64770000D02*
X99721290Y-64122290D01*
X101600000Y-64770000D02*
X100369000Y-64770000D01*
X99721290Y-64122290D02*
X99721290Y-50773710D01*
X99721290Y-50773710D02*
X100330000Y-50165000D01*
X100330000Y-50165000D02*
X100330000Y-50138710D01*
X100330000Y-50165000D02*
X106680000Y-50165000D01*
X107315000Y-49530000D02*
X110000000Y-49530000D01*
X106680000Y-50165000D02*
X107315000Y-49530000D01*
X110000000Y-50800000D02*
X110000000Y-49530000D01*
X110000000Y-49530000D02*
X110000000Y-48750000D01*
D25*
G04 #@! TO.N,VDD*
X128270000Y-64770000D02*
X128270000Y-62865000D01*
X128270000Y-62865000D02*
X130175000Y-60960000D01*
X130175000Y-60960000D02*
X131700000Y-60960000D01*
X128270000Y-45720000D02*
X132080000Y-45720000D01*
X116840000Y-34290000D02*
X116840000Y-33020000D01*
X101600000Y-35560000D02*
X102870000Y-36830000D01*
X114300000Y-36830000D02*
X116840000Y-34290000D01*
X102870000Y-36830000D02*
X114300000Y-36830000D01*
D26*
X164465000Y-43815000D02*
X164465000Y-42545000D01*
X164465000Y-42545000D02*
X165100000Y-41910000D01*
X165100000Y-41910000D02*
X170790000Y-41910000D01*
X164465000Y-42545000D02*
X163830000Y-41910000D01*
X165100000Y-41910000D02*
X163830000Y-41910000D01*
X163830000Y-41910000D02*
X161925000Y-41910000D01*
D24*
X158260000Y-65895000D02*
X158260000Y-64770000D01*
X157480000Y-66675000D02*
X158260000Y-65895000D01*
X151130000Y-69215000D02*
X153670000Y-66675000D01*
X153670000Y-66675000D02*
X157480000Y-66675000D01*
D25*
X158260000Y-64770000D02*
X158260000Y-62865000D01*
X159385000Y-60960000D02*
X160180000Y-60960000D01*
X158260000Y-62865000D02*
X158260000Y-62085000D01*
D24*
X100330899Y-60960899D02*
X100330899Y-51815808D01*
X106906788Y-51168212D02*
X100978495Y-51168212D01*
X107950000Y-50800000D02*
X107275000Y-50800000D01*
X101600000Y-62230000D02*
X100330899Y-60960899D01*
X100578496Y-51568211D02*
X100978495Y-51168212D01*
X107275000Y-50800000D02*
X106906788Y-51168212D01*
X100330899Y-51815808D02*
X100578496Y-51568211D01*
D25*
X158750000Y-61595000D02*
X158750000Y-60325000D01*
X158750000Y-60325000D02*
X158115000Y-59690000D01*
X158750000Y-61595000D02*
X159385000Y-60960000D01*
X159385000Y-60960000D02*
X158750000Y-60325000D01*
X158260000Y-62085000D02*
X158750000Y-61595000D01*
D26*
X128270000Y-45720000D02*
X124460000Y-49530000D01*
X124460000Y-49530000D02*
X124460000Y-59055000D01*
X124460000Y-59055000D02*
X126365000Y-60960000D01*
D25*
X128270000Y-62865000D02*
X126365000Y-60960000D01*
X158115000Y-59055000D02*
X158115000Y-44450000D01*
X158115000Y-59690000D02*
X158115000Y-59055000D01*
D26*
X158115000Y-56515000D02*
X158115000Y-59055000D01*
X159385000Y-41910000D02*
X158115000Y-41910000D01*
X170790000Y-41910000D02*
X159385000Y-41910000D01*
X158115000Y-43180000D02*
X158115000Y-56515000D01*
X158115000Y-43180000D02*
X159385000Y-41910000D01*
X158115000Y-41910000D02*
X158115000Y-43180000D01*
X158115000Y-43180000D02*
X156845000Y-41910000D01*
X158115000Y-41910000D02*
X156845000Y-41910000D01*
X141605000Y-41910000D02*
X140970000Y-41910000D01*
X142240000Y-41910000D02*
X141605000Y-41910000D01*
D24*
X146685000Y-42545000D02*
X147320000Y-41910000D01*
X146685000Y-48115000D02*
X146685000Y-42545000D01*
D26*
X156845000Y-41910000D02*
X147320000Y-41910000D01*
D24*
X146685000Y-42545000D02*
X146050000Y-41910000D01*
D26*
X147320000Y-41910000D02*
X146050000Y-41910000D01*
X146050000Y-41910000D02*
X142240000Y-41910000D01*
D24*
X102869101Y-36829101D02*
X102869101Y-38666841D01*
X101600000Y-35560000D02*
X102869101Y-36829101D01*
X100330899Y-40004101D02*
X100330899Y-47625899D01*
X102165942Y-39370000D02*
X100965000Y-39370000D01*
X100965000Y-39370000D02*
X100330899Y-40004101D01*
X100330899Y-47625899D02*
X100565001Y-47860001D01*
X100565001Y-47860001D02*
X100965000Y-48260000D01*
X102869101Y-38666841D02*
X102165942Y-39370000D01*
X170790000Y-42660000D02*
X170790000Y-41910000D01*
X177292000Y-41910000D02*
X178723000Y-41910000D01*
X178723000Y-41910000D02*
X180340000Y-43527000D01*
X180340000Y-45085000D02*
X179705000Y-45720000D01*
X180340000Y-43527000D02*
X180340000Y-45085000D01*
X179705000Y-45720000D02*
X173850000Y-45720000D01*
X173850000Y-45720000D02*
X170790000Y-42660000D01*
D26*
X140970000Y-41910000D02*
X136525000Y-41910000D01*
X132715000Y-45720000D02*
X128270000Y-45720000D01*
X136525000Y-41910000D02*
X132715000Y-45720000D01*
D24*
X102449999Y-61380001D02*
X101600000Y-62230000D01*
X127000000Y-66040000D02*
X125095000Y-66040000D01*
X128270000Y-64770000D02*
X127000000Y-66040000D01*
X125095000Y-66040000D02*
X119634000Y-60579000D01*
X119634000Y-60579000D02*
X104521000Y-60579000D01*
X104521000Y-60579000D02*
X103719999Y-61380001D01*
X103719999Y-61380001D02*
X102449999Y-61380001D01*
X157480000Y-41275000D02*
X158115000Y-41910000D01*
X157480000Y-38100000D02*
X157480000Y-41275000D01*
X157480000Y-41275000D02*
X156845000Y-41910000D01*
G04 #@! TO.N,GND*
X142875000Y-64135000D02*
X144145000Y-64135000D01*
X144145000Y-64135000D02*
X144780000Y-64135000D01*
X136380000Y-64135000D02*
X134620000Y-64135000D01*
X136380000Y-64135000D02*
X135255000Y-65260000D01*
X142875000Y-64135000D02*
X144145000Y-65405000D01*
D25*
X126220000Y-64770000D02*
X126220000Y-62865000D01*
X124315000Y-60960000D02*
X124315000Y-60960000D01*
X124950000Y-61595000D02*
X124315000Y-60960000D01*
X126220000Y-62865000D02*
X125585000Y-62230000D01*
X125585000Y-62230000D02*
X124950000Y-61595000D01*
X124460000Y-62230000D02*
X123190000Y-60960000D01*
X124315000Y-60960000D02*
X123190000Y-60960000D01*
X123190000Y-60960000D02*
X122300000Y-60960000D01*
X125095000Y-62230000D02*
X124460000Y-61595000D01*
X125095000Y-62230000D02*
X124460000Y-62230000D01*
X125585000Y-62230000D02*
X125095000Y-62230000D01*
X123825000Y-61595000D02*
X123190000Y-60960000D01*
X124950000Y-61595000D02*
X123825000Y-61595000D01*
D24*
X137015000Y-47625000D02*
X135255000Y-47625000D01*
X137015000Y-47625000D02*
X135745000Y-46355000D01*
X135745000Y-46355000D02*
X135255000Y-46355000D01*
X137015000Y-47625000D02*
X135745000Y-48895000D01*
X135745000Y-48895000D02*
X135255000Y-48895000D01*
D26*
X145415000Y-60960000D02*
X144145000Y-59690000D01*
X146685000Y-60960000D02*
X145415000Y-60960000D01*
X146685000Y-60960000D02*
X145415000Y-62230000D01*
X146685000Y-60960000D02*
X146050000Y-60325000D01*
X146050000Y-60325000D02*
X145415000Y-60325000D01*
X146685000Y-60960000D02*
X146050000Y-61595000D01*
X146050000Y-61595000D02*
X145415000Y-61595000D01*
X183410001Y-47689999D02*
X184110000Y-46990000D01*
X182800399Y-48299601D02*
X183410001Y-47689999D01*
X171449601Y-48299601D02*
X182800399Y-48299601D01*
X166965000Y-43815000D02*
X171449601Y-48299601D01*
X175480000Y-44196000D02*
X175480000Y-44196000D01*
X177292000Y-44196000D02*
X175480000Y-44196000D01*
X177292000Y-44196000D02*
X179324000Y-44196000D01*
X179324000Y-44196000D02*
X179324000Y-44196000D01*
X179705000Y-38100000D02*
X182245000Y-40640000D01*
X173990000Y-40178718D02*
X176068718Y-38100000D01*
X182245000Y-40640000D02*
X188595000Y-40640000D01*
X176068718Y-38100000D02*
X179705000Y-38100000D01*
X175480000Y-44196000D02*
X173990000Y-42706000D01*
X173990000Y-42706000D02*
X173990000Y-40178718D01*
X118110000Y-37610000D02*
X116985000Y-38735000D01*
X116985000Y-38735000D02*
X116205000Y-38735000D01*
D24*
X107950000Y-53340000D02*
X106680000Y-53340000D01*
D25*
X156210000Y-64770000D02*
X156210000Y-62865000D01*
X156210000Y-61595000D02*
X155575000Y-60960000D01*
X156210000Y-62865000D02*
X156210000Y-61595000D01*
X155575000Y-60960000D02*
X154780000Y-60960000D01*
X156210000Y-61595000D02*
X156210000Y-60960000D01*
X156210000Y-60960000D02*
X154780000Y-60960000D01*
X156210000Y-62390000D02*
X154780000Y-60960000D01*
X156210000Y-62865000D02*
X156210000Y-62390000D01*
X156210000Y-62865000D02*
X156210000Y-60960000D01*
X157458132Y-60960000D02*
X157421183Y-60923051D01*
X157480000Y-60960000D02*
X157458132Y-60960000D01*
X156210000Y-60960000D02*
X157421183Y-60923051D01*
X156749234Y-61595000D02*
X156210000Y-61595000D01*
X157421183Y-60923051D02*
X156749234Y-61595000D01*
D26*
X144145000Y-59690000D02*
X144145000Y-59690000D01*
D24*
X145152000Y-59690000D02*
X144780000Y-59690000D01*
X145152000Y-59690000D02*
X146431000Y-60969000D01*
D26*
G04 #@! TO.N,Vee*
X118110000Y-35560000D02*
X119380000Y-34290000D01*
X119380000Y-34290000D02*
X119380000Y-33020000D01*
D24*
G04 #@! TO.N,Net-(D1-Pad1)*
X100397919Y-38100000D02*
X101600000Y-38100000D01*
X99721290Y-38776629D02*
X100397919Y-38100000D01*
X106359000Y-48260000D02*
X107190000Y-48260000D01*
X100540391Y-49079101D02*
X105539899Y-49079101D01*
X99721290Y-48260000D02*
X100540391Y-49079101D01*
X105539899Y-49079101D02*
X106359000Y-48260000D01*
X99721290Y-48260000D02*
X99721290Y-38776629D01*
G04 #@! TO.N,PGC*
X122300000Y-58420000D02*
X118745000Y-58420000D01*
X143510000Y-69215000D02*
X150495000Y-62230000D01*
X154330000Y-58420000D02*
X154780000Y-58420000D01*
X150520000Y-62230000D02*
X154330000Y-58420000D01*
X150495000Y-62230000D02*
X150520000Y-62230000D01*
X143510000Y-69215000D02*
X142240000Y-67945000D01*
X142240000Y-67945000D02*
X125095000Y-67945000D01*
X125095000Y-67945000D02*
X120650000Y-63500000D01*
X120650000Y-63500000D02*
X118745000Y-61595000D01*
X118745000Y-58420000D02*
X115258270Y-58420000D01*
X114566169Y-59112101D02*
X106102101Y-59112101D01*
X106102101Y-59112101D02*
X102449999Y-55459999D01*
X115258270Y-58420000D02*
X114566169Y-59112101D01*
X102449999Y-55459999D02*
X101600000Y-54610000D01*
G04 #@! TO.N,PGD*
X154330000Y-59690000D02*
X154780000Y-59690000D01*
X146050000Y-69215000D02*
X146050000Y-67970000D01*
X146050000Y-67970000D02*
X154330000Y-59690000D01*
X140335000Y-68580000D02*
X123825000Y-68580000D01*
X142380890Y-70625890D02*
X140335000Y-68580000D01*
X146050000Y-69215000D02*
X144639110Y-70625890D01*
X123825000Y-68580000D02*
X116840000Y-61595000D01*
X144639110Y-70625890D02*
X142380890Y-70625890D01*
X122300000Y-59690000D02*
X116966996Y-59690000D01*
X116966996Y-59690000D02*
X116840000Y-59563004D01*
X116052675Y-59721712D02*
X116211383Y-59563004D01*
X116211383Y-59563004D02*
X116840000Y-59563004D01*
X104171712Y-59721712D02*
X116052675Y-59721712D01*
X101600000Y-57150000D02*
X104171712Y-59721712D01*
G04 #@! TO.N,TX1*
X112395000Y-43180000D02*
X110490000Y-43180000D01*
X115469942Y-46254942D02*
X112395000Y-43180000D01*
X122300000Y-55880000D02*
X119914942Y-55880000D01*
X115469942Y-51435000D02*
X115469942Y-46254942D01*
X119914942Y-55880000D02*
X115469942Y-51435000D01*
G04 #@! TO.N,RX1*
X112395000Y-40640000D02*
X110490000Y-40640000D01*
X116840000Y-50165000D02*
X116840000Y-45085000D01*
X122300000Y-54610000D02*
X121285000Y-54610000D01*
X116840000Y-45085000D02*
X112395000Y-40640000D01*
X121285000Y-54610000D02*
X116840000Y-50165000D01*
G04 #@! TO.N,Net-(J3-Pad1)*
X161290000Y-69215000D02*
X161290000Y-66040000D01*
G04 #@! TO.N,Net-(J4-Pad1)*
X168910000Y-69215000D02*
X168910000Y-66040000D01*
G04 #@! TO.N,Net-(J5-Pad1)*
X176530000Y-69215000D02*
X176530000Y-66040000D01*
G04 #@! TO.N,Net-(J6-Pad1)*
X114935000Y-65405000D02*
X114300000Y-65405000D01*
X117475000Y-69215000D02*
X117475000Y-67945000D01*
X117475000Y-67945000D02*
X114935000Y-65405000D01*
G04 #@! TO.N,LCD_RS*
X122300000Y-53340000D02*
X121625000Y-53340000D01*
X120944000Y-53340000D02*
X119380000Y-51776000D01*
X122300000Y-53340000D02*
X120944000Y-53340000D01*
X119380000Y-51776000D02*
X119380000Y-43180000D01*
X121920000Y-40640000D02*
X121920000Y-33020000D01*
X119380000Y-43180000D02*
X121920000Y-40640000D01*
G04 #@! TO.N,LCD_E*
X122300000Y-52070000D02*
X121625000Y-52070000D01*
X120944000Y-52070000D02*
X120015000Y-51141000D01*
X122300000Y-52070000D02*
X120944000Y-52070000D01*
X120015000Y-51141000D02*
X120015000Y-47625000D01*
X127000000Y-40640000D02*
X127000000Y-33020000D01*
X120015000Y-47625000D02*
X127000000Y-40640000D01*
G04 #@! TO.N,Net-(P1-Pad15)*
X149370000Y-33510000D02*
X149860000Y-33020000D01*
X149370000Y-37465000D02*
X149370000Y-33510000D01*
G04 #@! TO.N,DISP*
X133056000Y-52070000D02*
X134961000Y-50165000D01*
X131700000Y-52070000D02*
X133056000Y-52070000D01*
X134961000Y-50165000D02*
X135255000Y-50165000D01*
X135255000Y-50165000D02*
X137015000Y-50165000D01*
G04 #@! TO.N,ZCD*
X114300000Y-62720000D02*
X114300000Y-61595000D01*
X114300000Y-62720000D02*
X114300000Y-63355000D01*
X115062000Y-57150000D02*
X114699999Y-57512001D01*
X114699999Y-57512001D02*
X114300000Y-57912000D01*
X122300000Y-57150000D02*
X115062000Y-57150000D01*
G04 #@! TO.N,CLKOUT*
X138675000Y-55880000D02*
X138675000Y-56905000D01*
X137160000Y-58420000D02*
X131700000Y-58420000D01*
X138675000Y-56905000D02*
X137160000Y-58420000D01*
G04 #@! TO.N,Net-(C8-Pad1)*
X177742000Y-39624000D02*
X177292000Y-39624000D01*
D26*
X179324000Y-39624000D02*
X177292000Y-39624000D01*
X181610000Y-41910000D02*
X179324000Y-39624000D01*
X188595000Y-43180000D02*
X187325000Y-41910000D01*
X187325000Y-41910000D02*
X186690000Y-41910000D01*
X185420000Y-43180000D02*
X185420000Y-41910000D01*
X185420000Y-41910000D02*
X181610000Y-41910000D01*
X186690000Y-41910000D02*
X185420000Y-41910000D01*
X185420000Y-43180000D02*
X186690000Y-41910000D01*
X181610000Y-46990000D02*
X185420000Y-43180000D01*
D24*
G04 #@! TO.N,INPUT_A*
X162560000Y-54610000D02*
X160180000Y-54610000D01*
X168910000Y-63990000D02*
X168910000Y-60960000D01*
X168910000Y-60960000D02*
X162560000Y-54610000D01*
G04 #@! TO.N,INPUT_B*
X166370000Y-53340000D02*
X160180000Y-53340000D01*
X176530000Y-63990000D02*
X176530000Y-63500000D01*
X176530000Y-63500000D02*
X166370000Y-53340000D01*
G04 #@! TO.N,MCLR2*
X161290000Y-57150000D02*
X160180000Y-57150000D01*
X156210000Y-69215000D02*
X159385000Y-66040000D01*
X153670000Y-69215000D02*
X156210000Y-69215000D01*
X159385000Y-66040000D02*
X159385000Y-63500000D01*
X161925000Y-60960000D02*
X161925000Y-57785000D01*
X159385000Y-63500000D02*
X161925000Y-60960000D01*
X161925000Y-57785000D02*
X161290000Y-57150000D01*
G04 #@! TO.N,CLKIN2*
X138430000Y-60960000D02*
X137160000Y-59690000D01*
X138430000Y-64135000D02*
X138430000Y-60960000D01*
X138575000Y-64280000D02*
X138430000Y-64135000D01*
X133056000Y-59690000D02*
X133350000Y-59984000D01*
X131700000Y-59690000D02*
X133056000Y-59690000D01*
X133350000Y-62475000D02*
X133350000Y-59984000D01*
X132715000Y-63110000D02*
X133350000Y-62475000D01*
X133350000Y-59690000D02*
X137160000Y-59690000D01*
X131700000Y-59690000D02*
X133350000Y-59690000D01*
X133644000Y-59690000D02*
X133350000Y-59984000D01*
X133350000Y-59690000D02*
X133644000Y-59690000D01*
G04 #@! TO.N,INPUT_A2*
X152241288Y-55403712D02*
X153035000Y-54610000D01*
X153035000Y-54610000D02*
X154780000Y-54610000D01*
X147330680Y-55403712D02*
X152241288Y-55403712D01*
X146039321Y-55403713D02*
X147330680Y-55403712D01*
X131700000Y-55880000D02*
X133985000Y-55880000D01*
X133985000Y-55880000D02*
X136525000Y-53340000D01*
X143975608Y-53340000D02*
X145245608Y-54610000D01*
X136525000Y-53340000D02*
X143975608Y-53340000D01*
X144610608Y-53975000D02*
X145245608Y-54610000D01*
X145245608Y-54610000D02*
X146039321Y-55403713D01*
G04 #@! TO.N,INPUT_B2*
X152400000Y-53340000D02*
X154780000Y-53340000D01*
X134212118Y-54610000D02*
X136117118Y-52705000D01*
X131700000Y-54610000D02*
X134212118Y-54610000D01*
X136117118Y-52705000D02*
X144780000Y-52705000D01*
X144780000Y-52705000D02*
X146050000Y-53975000D01*
X146050000Y-53975000D02*
X151765000Y-53975000D01*
X151765000Y-53975000D02*
X152400000Y-53340000D01*
G04 #@! TO.N,Net-(D2-Pad2)*
X139065000Y-50165000D02*
X140845000Y-50165000D01*
X141215000Y-49920000D02*
X140970000Y-50165000D01*
X141215000Y-47625000D02*
X141215000Y-49920000D01*
G04 #@! TO.N,Net-(R10-Pad1)*
X134112000Y-66675000D02*
X133985000Y-66675000D01*
X132715000Y-65160000D02*
X132715000Y-66040000D01*
X133350000Y-66675000D02*
X134112000Y-66675000D01*
X132715000Y-66040000D02*
X133350000Y-66675000D01*
X145187882Y-66675000D02*
X134112000Y-66675000D01*
X151892000Y-59970882D02*
X145187882Y-66675000D01*
X151892000Y-57658000D02*
X151892000Y-59970882D01*
X154780000Y-55880000D02*
X153670000Y-55880000D01*
X153670000Y-55880000D02*
X151892000Y-57658000D01*
G04 #@! TO.N,Net-(JP1-Pad1)*
X154305000Y-37465000D02*
X154940000Y-38100000D01*
X151520000Y-37465000D02*
X154305000Y-37465000D01*
G04 #@! TO.N,Net-(J2-Pad2)*
X102802081Y-43180000D02*
X101600000Y-43180000D01*
X108440000Y-43180000D02*
X101600000Y-43180000D01*
G04 #@! TO.N,Net-(J2-Pad3)*
X102802081Y-40640000D02*
X101600000Y-40640000D01*
X108440000Y-40640000D02*
X101600000Y-40640000D01*
G04 #@! TO.N,LCD_D4*
X122300000Y-50800000D02*
X121285000Y-50800000D01*
X121285000Y-50800000D02*
X120650000Y-50165000D01*
X120650000Y-50165000D02*
X120650000Y-48895000D01*
X120650000Y-48895000D02*
X133350000Y-36195000D01*
X133350000Y-36195000D02*
X138430000Y-36195000D01*
X139700000Y-34925000D02*
X139700000Y-33020000D01*
X138430000Y-36195000D02*
X139700000Y-34925000D01*
G04 #@! TO.N,LCD_D5*
X133684000Y-37465000D02*
X122300000Y-48849000D01*
X140335000Y-37465000D02*
X133684000Y-37465000D01*
X142240000Y-35560000D02*
X140335000Y-37465000D01*
X122300000Y-48849000D02*
X122300000Y-49530000D01*
X142240000Y-33020000D02*
X142240000Y-35560000D01*
G04 #@! TO.N,LCD_D6*
X129540000Y-50165000D02*
X129540000Y-46990000D01*
X131700000Y-50800000D02*
X130175000Y-50800000D01*
X130175000Y-50800000D02*
X129540000Y-50165000D01*
X146685000Y-58910000D02*
X146685000Y-56236317D01*
X146685000Y-56236317D02*
X146698495Y-56222822D01*
X146685000Y-50165000D02*
X146685000Y-52705000D01*
X131700000Y-50800000D02*
X132375000Y-50800000D01*
X133056000Y-50800000D02*
X133985000Y-49871000D01*
X131700000Y-50800000D02*
X133056000Y-50800000D01*
X133985000Y-49871000D02*
X133985000Y-46355000D01*
X133985000Y-46355000D02*
X135255000Y-45085000D01*
X135255000Y-45085000D02*
X140335000Y-45085000D01*
X135355058Y-45085000D02*
X140335000Y-45085000D01*
X129540000Y-44450000D02*
X129540000Y-43815000D01*
X129540000Y-43815000D02*
X134620000Y-38735000D01*
X134620000Y-38735000D02*
X140970000Y-38735000D01*
X144780000Y-34925000D02*
X144780000Y-33020000D01*
X140970000Y-38735000D02*
X144780000Y-34925000D01*
X145415000Y-46990000D02*
X143510000Y-45085000D01*
X141605000Y-45085000D02*
X140335000Y-45085000D01*
X143510000Y-45085000D02*
X141605000Y-45085000D01*
X146685000Y-50165000D02*
X145415000Y-48895000D01*
X145415000Y-48895000D02*
X145415000Y-46990000D01*
G04 #@! TO.N,LCD_D7*
X131700000Y-49530000D02*
X131700000Y-46990000D01*
X131700000Y-43884315D02*
X135579315Y-40005000D01*
X131700000Y-44450000D02*
X131700000Y-43884315D01*
X135579315Y-40005000D02*
X142240000Y-40005000D01*
X147320000Y-34925000D02*
X147320000Y-33020000D01*
X142240000Y-40005000D02*
X147320000Y-34925000D01*
G04 #@! TD*
D27*
G04 #@! TO.N,GND*
G36*
X145542000Y-56571180D02*
X145542000Y-58134210D01*
X145529537Y-58142537D01*
X145391136Y-58349670D01*
X145342536Y-58593999D01*
X145342536Y-59244001D01*
X145391136Y-59488330D01*
X145529537Y-59695463D01*
X145542000Y-59703790D01*
X145542000Y-60004910D01*
X145486405Y-60027938D01*
X145364937Y-60149405D01*
X145299200Y-60308110D01*
X145299200Y-60835650D01*
X145407150Y-60943600D01*
X145542000Y-60943600D01*
X145542000Y-60994400D01*
X145407150Y-60994400D01*
X145299200Y-61102350D01*
X145299200Y-61629890D01*
X145364937Y-61788595D01*
X145486405Y-61910062D01*
X145542000Y-61933090D01*
X145542000Y-65219587D01*
X144733019Y-65913000D01*
X134672606Y-65913000D01*
X134112000Y-65352394D01*
X134112000Y-64268350D01*
X135373200Y-64268350D01*
X135373200Y-64920891D01*
X135438938Y-65079595D01*
X135560405Y-65201063D01*
X135719110Y-65266800D01*
X136246650Y-65266800D01*
X136354600Y-65158850D01*
X136354600Y-64160400D01*
X136405400Y-64160400D01*
X136405400Y-65158850D01*
X136513350Y-65266800D01*
X137040890Y-65266800D01*
X137199595Y-65201063D01*
X137321062Y-65079595D01*
X137386800Y-64920891D01*
X137386800Y-64268350D01*
X137278850Y-64160400D01*
X136405400Y-64160400D01*
X136354600Y-64160400D01*
X135481150Y-64160400D01*
X135373200Y-64268350D01*
X134112000Y-64268350D01*
X134112000Y-63349109D01*
X135373200Y-63349109D01*
X135373200Y-64001650D01*
X135481150Y-64109600D01*
X136354600Y-64109600D01*
X136354600Y-63111150D01*
X136405400Y-63111150D01*
X136405400Y-64109600D01*
X137278850Y-64109600D01*
X137386800Y-64001650D01*
X137386800Y-63349109D01*
X137321062Y-63190405D01*
X137199595Y-63068937D01*
X137040890Y-63003200D01*
X136513350Y-63003200D01*
X136405400Y-63111150D01*
X136354600Y-63111150D01*
X136246650Y-63003200D01*
X135719110Y-63003200D01*
X135560405Y-63068937D01*
X135438938Y-63190405D01*
X135373200Y-63349109D01*
X134112000Y-63349109D01*
X134112000Y-61595000D01*
X134102333Y-61546399D01*
X134074803Y-61505197D01*
X133921500Y-61351894D01*
X133921500Y-60261500D01*
X136172537Y-60261500D01*
X136201184Y-60330660D01*
X136519340Y-60648816D01*
X136935030Y-60821000D01*
X137384970Y-60821000D01*
X137454130Y-60792353D01*
X137858501Y-61196724D01*
X137858500Y-63096586D01*
X137653537Y-63233537D01*
X137515136Y-63440670D01*
X137466536Y-63684999D01*
X137466536Y-64585001D01*
X137515136Y-64829330D01*
X137653537Y-65036463D01*
X137860670Y-65174864D01*
X138104999Y-65223464D01*
X138755001Y-65223464D01*
X138999330Y-65174864D01*
X139206463Y-65036463D01*
X139344864Y-64829330D01*
X139393464Y-64585001D01*
X139393464Y-63684999D01*
X139344864Y-63440670D01*
X139206463Y-63233537D01*
X139001500Y-63096586D01*
X139001500Y-61016280D01*
X139012695Y-60959999D01*
X139001500Y-60903718D01*
X139001500Y-60903714D01*
X138968341Y-60737012D01*
X138842028Y-60547972D01*
X138794312Y-60516089D01*
X138262353Y-59984130D01*
X138291000Y-59914970D01*
X138291000Y-59465030D01*
X138118816Y-59049340D01*
X137800660Y-58731184D01*
X137699104Y-58689118D01*
X139039312Y-57348911D01*
X139087028Y-57317028D01*
X139213341Y-57127988D01*
X139246500Y-56961286D01*
X139246500Y-56961282D01*
X139256334Y-56911843D01*
X139451463Y-56781463D01*
X139589864Y-56574330D01*
X139638464Y-56330001D01*
X139638464Y-55429999D01*
X139761536Y-55429999D01*
X139761536Y-56330001D01*
X139810136Y-56574330D01*
X139948537Y-56781463D01*
X140153501Y-56918414D01*
X140153500Y-58298719D01*
X140142305Y-58355000D01*
X140153500Y-58411281D01*
X140153500Y-58411285D01*
X140186659Y-58577987D01*
X140312972Y-58767028D01*
X140360691Y-58798913D01*
X140957647Y-59395870D01*
X140929000Y-59465030D01*
X140929000Y-59914970D01*
X140957647Y-59984130D01*
X140460689Y-60481089D01*
X140412973Y-60512972D01*
X140381090Y-60560688D01*
X140381089Y-60560689D01*
X140286660Y-60702012D01*
X140242305Y-60925000D01*
X140253501Y-60981286D01*
X140253500Y-63096586D01*
X140048537Y-63233537D01*
X139910136Y-63440670D01*
X139861536Y-63684999D01*
X139861536Y-64585001D01*
X139910136Y-64829330D01*
X140048537Y-65036463D01*
X140255670Y-65174864D01*
X140499999Y-65223464D01*
X141150001Y-65223464D01*
X141394330Y-65174864D01*
X141601463Y-65036463D01*
X141739864Y-64829330D01*
X141788464Y-64585001D01*
X141788464Y-64268350D01*
X141868200Y-64268350D01*
X141868200Y-64920891D01*
X141933938Y-65079595D01*
X142055405Y-65201063D01*
X142214110Y-65266800D01*
X142741650Y-65266800D01*
X142849600Y-65158850D01*
X142849600Y-64160400D01*
X142900400Y-64160400D01*
X142900400Y-65158850D01*
X143008350Y-65266800D01*
X143535890Y-65266800D01*
X143694595Y-65201063D01*
X143816062Y-65079595D01*
X143881800Y-64920891D01*
X143881800Y-64268350D01*
X143773850Y-64160400D01*
X142900400Y-64160400D01*
X142849600Y-64160400D01*
X141976150Y-64160400D01*
X141868200Y-64268350D01*
X141788464Y-64268350D01*
X141788464Y-63684999D01*
X141739864Y-63440670D01*
X141678686Y-63349109D01*
X141868200Y-63349109D01*
X141868200Y-64001650D01*
X141976150Y-64109600D01*
X142849600Y-64109600D01*
X142849600Y-63111150D01*
X142900400Y-63111150D01*
X142900400Y-64109600D01*
X143773850Y-64109600D01*
X143881800Y-64001650D01*
X143881800Y-63349109D01*
X143816062Y-63190405D01*
X143694595Y-63068937D01*
X143535890Y-63003200D01*
X143008350Y-63003200D01*
X142900400Y-63111150D01*
X142849600Y-63111150D01*
X142741650Y-63003200D01*
X142214110Y-63003200D01*
X142055405Y-63068937D01*
X141933938Y-63190405D01*
X141868200Y-63349109D01*
X141678686Y-63349109D01*
X141601463Y-63233537D01*
X141396500Y-63096586D01*
X141396500Y-61161722D01*
X141765870Y-60792353D01*
X141835030Y-60821000D01*
X142284970Y-60821000D01*
X142700660Y-60648816D01*
X143018816Y-60330660D01*
X143191000Y-59914970D01*
X143191000Y-59465030D01*
X143018816Y-59049340D01*
X142700660Y-58731184D01*
X142284970Y-58559000D01*
X141835030Y-58559000D01*
X141765870Y-58587647D01*
X141296500Y-58118278D01*
X141296500Y-56918414D01*
X141501463Y-56781463D01*
X141639864Y-56574330D01*
X141688464Y-56330001D01*
X141688464Y-55429999D01*
X141639864Y-55185670D01*
X141501463Y-54978537D01*
X141294330Y-54840136D01*
X141050001Y-54791536D01*
X140399999Y-54791536D01*
X140155670Y-54840136D01*
X139948537Y-54978537D01*
X139810136Y-55185670D01*
X139761536Y-55429999D01*
X139638464Y-55429999D01*
X139589864Y-55185670D01*
X139451463Y-54978537D01*
X139244330Y-54840136D01*
X139000001Y-54791536D01*
X138349999Y-54791536D01*
X138105670Y-54840136D01*
X137898537Y-54978537D01*
X137760136Y-55185670D01*
X137711536Y-55429999D01*
X137711536Y-56330001D01*
X137760136Y-56574330D01*
X137898537Y-56781463D01*
X137953554Y-56818224D01*
X136923278Y-57848500D01*
X132951815Y-57848500D01*
X132949686Y-57845314D01*
X132859419Y-57785000D01*
X132949686Y-57724686D01*
X133033894Y-57598659D01*
X133063464Y-57450000D01*
X133063464Y-57277000D01*
X133985000Y-57277000D01*
X134033601Y-57267333D01*
X134074803Y-57239803D01*
X137212606Y-54102000D01*
X142825902Y-54102000D01*
X145542000Y-56571180D01*
X145542000Y-56571180D01*
G37*
X145542000Y-56571180D02*
X145542000Y-58134210D01*
X145529537Y-58142537D01*
X145391136Y-58349670D01*
X145342536Y-58593999D01*
X145342536Y-59244001D01*
X145391136Y-59488330D01*
X145529537Y-59695463D01*
X145542000Y-59703790D01*
X145542000Y-60004910D01*
X145486405Y-60027938D01*
X145364937Y-60149405D01*
X145299200Y-60308110D01*
X145299200Y-60835650D01*
X145407150Y-60943600D01*
X145542000Y-60943600D01*
X145542000Y-60994400D01*
X145407150Y-60994400D01*
X145299200Y-61102350D01*
X145299200Y-61629890D01*
X145364937Y-61788595D01*
X145486405Y-61910062D01*
X145542000Y-61933090D01*
X145542000Y-65219587D01*
X144733019Y-65913000D01*
X134672606Y-65913000D01*
X134112000Y-65352394D01*
X134112000Y-64268350D01*
X135373200Y-64268350D01*
X135373200Y-64920891D01*
X135438938Y-65079595D01*
X135560405Y-65201063D01*
X135719110Y-65266800D01*
X136246650Y-65266800D01*
X136354600Y-65158850D01*
X136354600Y-64160400D01*
X136405400Y-64160400D01*
X136405400Y-65158850D01*
X136513350Y-65266800D01*
X137040890Y-65266800D01*
X137199595Y-65201063D01*
X137321062Y-65079595D01*
X137386800Y-64920891D01*
X137386800Y-64268350D01*
X137278850Y-64160400D01*
X136405400Y-64160400D01*
X136354600Y-64160400D01*
X135481150Y-64160400D01*
X135373200Y-64268350D01*
X134112000Y-64268350D01*
X134112000Y-63349109D01*
X135373200Y-63349109D01*
X135373200Y-64001650D01*
X135481150Y-64109600D01*
X136354600Y-64109600D01*
X136354600Y-63111150D01*
X136405400Y-63111150D01*
X136405400Y-64109600D01*
X137278850Y-64109600D01*
X137386800Y-64001650D01*
X137386800Y-63349109D01*
X137321062Y-63190405D01*
X137199595Y-63068937D01*
X137040890Y-63003200D01*
X136513350Y-63003200D01*
X136405400Y-63111150D01*
X136354600Y-63111150D01*
X136246650Y-63003200D01*
X135719110Y-63003200D01*
X135560405Y-63068937D01*
X135438938Y-63190405D01*
X135373200Y-63349109D01*
X134112000Y-63349109D01*
X134112000Y-61595000D01*
X134102333Y-61546399D01*
X134074803Y-61505197D01*
X133921500Y-61351894D01*
X133921500Y-60261500D01*
X136172537Y-60261500D01*
X136201184Y-60330660D01*
X136519340Y-60648816D01*
X136935030Y-60821000D01*
X137384970Y-60821000D01*
X137454130Y-60792353D01*
X137858501Y-61196724D01*
X137858500Y-63096586D01*
X137653537Y-63233537D01*
X137515136Y-63440670D01*
X137466536Y-63684999D01*
X137466536Y-64585001D01*
X137515136Y-64829330D01*
X137653537Y-65036463D01*
X137860670Y-65174864D01*
X138104999Y-65223464D01*
X138755001Y-65223464D01*
X138999330Y-65174864D01*
X139206463Y-65036463D01*
X139344864Y-64829330D01*
X139393464Y-64585001D01*
X139393464Y-63684999D01*
X139344864Y-63440670D01*
X139206463Y-63233537D01*
X139001500Y-63096586D01*
X139001500Y-61016280D01*
X139012695Y-60959999D01*
X139001500Y-60903718D01*
X139001500Y-60903714D01*
X138968341Y-60737012D01*
X138842028Y-60547972D01*
X138794312Y-60516089D01*
X138262353Y-59984130D01*
X138291000Y-59914970D01*
X138291000Y-59465030D01*
X138118816Y-59049340D01*
X137800660Y-58731184D01*
X137699104Y-58689118D01*
X139039312Y-57348911D01*
X139087028Y-57317028D01*
X139213341Y-57127988D01*
X139246500Y-56961286D01*
X139246500Y-56961282D01*
X139256334Y-56911843D01*
X139451463Y-56781463D01*
X139589864Y-56574330D01*
X139638464Y-56330001D01*
X139638464Y-55429999D01*
X139761536Y-55429999D01*
X139761536Y-56330001D01*
X139810136Y-56574330D01*
X139948537Y-56781463D01*
X140153501Y-56918414D01*
X140153500Y-58298719D01*
X140142305Y-58355000D01*
X140153500Y-58411281D01*
X140153500Y-58411285D01*
X140186659Y-58577987D01*
X140312972Y-58767028D01*
X140360691Y-58798913D01*
X140957647Y-59395870D01*
X140929000Y-59465030D01*
X140929000Y-59914970D01*
X140957647Y-59984130D01*
X140460689Y-60481089D01*
X140412973Y-60512972D01*
X140381090Y-60560688D01*
X140381089Y-60560689D01*
X140286660Y-60702012D01*
X140242305Y-60925000D01*
X140253501Y-60981286D01*
X140253500Y-63096586D01*
X140048537Y-63233537D01*
X139910136Y-63440670D01*
X139861536Y-63684999D01*
X139861536Y-64585001D01*
X139910136Y-64829330D01*
X140048537Y-65036463D01*
X140255670Y-65174864D01*
X140499999Y-65223464D01*
X141150001Y-65223464D01*
X141394330Y-65174864D01*
X141601463Y-65036463D01*
X141739864Y-64829330D01*
X141788464Y-64585001D01*
X141788464Y-64268350D01*
X141868200Y-64268350D01*
X141868200Y-64920891D01*
X141933938Y-65079595D01*
X142055405Y-65201063D01*
X142214110Y-65266800D01*
X142741650Y-65266800D01*
X142849600Y-65158850D01*
X142849600Y-64160400D01*
X142900400Y-64160400D01*
X142900400Y-65158850D01*
X143008350Y-65266800D01*
X143535890Y-65266800D01*
X143694595Y-65201063D01*
X143816062Y-65079595D01*
X143881800Y-64920891D01*
X143881800Y-64268350D01*
X143773850Y-64160400D01*
X142900400Y-64160400D01*
X142849600Y-64160400D01*
X141976150Y-64160400D01*
X141868200Y-64268350D01*
X141788464Y-64268350D01*
X141788464Y-63684999D01*
X141739864Y-63440670D01*
X141678686Y-63349109D01*
X141868200Y-63349109D01*
X141868200Y-64001650D01*
X141976150Y-64109600D01*
X142849600Y-64109600D01*
X142849600Y-63111150D01*
X142900400Y-63111150D01*
X142900400Y-64109600D01*
X143773850Y-64109600D01*
X143881800Y-64001650D01*
X143881800Y-63349109D01*
X143816062Y-63190405D01*
X143694595Y-63068937D01*
X143535890Y-63003200D01*
X143008350Y-63003200D01*
X142900400Y-63111150D01*
X142849600Y-63111150D01*
X142741650Y-63003200D01*
X142214110Y-63003200D01*
X142055405Y-63068937D01*
X141933938Y-63190405D01*
X141868200Y-63349109D01*
X141678686Y-63349109D01*
X141601463Y-63233537D01*
X141396500Y-63096586D01*
X141396500Y-61161722D01*
X141765870Y-60792353D01*
X141835030Y-60821000D01*
X142284970Y-60821000D01*
X142700660Y-60648816D01*
X143018816Y-60330660D01*
X143191000Y-59914970D01*
X143191000Y-59465030D01*
X143018816Y-59049340D01*
X142700660Y-58731184D01*
X142284970Y-58559000D01*
X141835030Y-58559000D01*
X141765870Y-58587647D01*
X141296500Y-58118278D01*
X141296500Y-56918414D01*
X141501463Y-56781463D01*
X141639864Y-56574330D01*
X141688464Y-56330001D01*
X141688464Y-55429999D01*
X141639864Y-55185670D01*
X141501463Y-54978537D01*
X141294330Y-54840136D01*
X141050001Y-54791536D01*
X140399999Y-54791536D01*
X140155670Y-54840136D01*
X139948537Y-54978537D01*
X139810136Y-55185670D01*
X139761536Y-55429999D01*
X139638464Y-55429999D01*
X139589864Y-55185670D01*
X139451463Y-54978537D01*
X139244330Y-54840136D01*
X139000001Y-54791536D01*
X138349999Y-54791536D01*
X138105670Y-54840136D01*
X137898537Y-54978537D01*
X137760136Y-55185670D01*
X137711536Y-55429999D01*
X137711536Y-56330001D01*
X137760136Y-56574330D01*
X137898537Y-56781463D01*
X137953554Y-56818224D01*
X136923278Y-57848500D01*
X132951815Y-57848500D01*
X132949686Y-57845314D01*
X132859419Y-57785000D01*
X132949686Y-57724686D01*
X133033894Y-57598659D01*
X133063464Y-57450000D01*
X133063464Y-57277000D01*
X133985000Y-57277000D01*
X134033601Y-57267333D01*
X134074803Y-57239803D01*
X137212606Y-54102000D01*
X142825902Y-54102000D01*
X145542000Y-56571180D01*
G04 #@! TD*
M02*
