G04 #@! TF.GenerationSoftware,KiCad,Pcbnew,(5.0.1)-4*
G04 #@! TF.CreationDate,2020-04-19T23:52:33+02:00*
G04 #@! TF.ProjectId,Freqmeter_16F18446,467265716D657465725F313646313834,R2*
G04 #@! TF.SameCoordinates,Original*
G04 #@! TF.FileFunction,Soldermask,Top*
G04 #@! TF.FilePolarity,Negative*
%FSLAX46Y46*%
G04 Gerber Fmt 4.6, Leading zero omitted, Abs format (unit mm)*
G04 Created by KiCad (PCBNEW (5.0.1)-4) date 19/04/2020 23:52:33*
%MOMM*%
%LPD*%
G01*
G04 APERTURE LIST*
%ADD10C,0.100000*%
G04 APERTURE END LIST*
D10*
G36*
X151240443Y-68320519D02*
X151306627Y-68327037D01*
X151419853Y-68361384D01*
X151476467Y-68378557D01*
X151615087Y-68452652D01*
X151632991Y-68462222D01*
X151668729Y-68491552D01*
X151770186Y-68574814D01*
X151853448Y-68676271D01*
X151882778Y-68712009D01*
X151882779Y-68712011D01*
X151966443Y-68868533D01*
X151966443Y-68868534D01*
X152017963Y-69038373D01*
X152035359Y-69215000D01*
X152017963Y-69391627D01*
X151983616Y-69504853D01*
X151966443Y-69561467D01*
X151892348Y-69700087D01*
X151882778Y-69717991D01*
X151853448Y-69753729D01*
X151770186Y-69855186D01*
X151668729Y-69938448D01*
X151632991Y-69967778D01*
X151632989Y-69967779D01*
X151476467Y-70051443D01*
X151419853Y-70068616D01*
X151306627Y-70102963D01*
X151240442Y-70109482D01*
X151174260Y-70116000D01*
X151085740Y-70116000D01*
X151019558Y-70109482D01*
X150953373Y-70102963D01*
X150840147Y-70068616D01*
X150783533Y-70051443D01*
X150627011Y-69967779D01*
X150627009Y-69967778D01*
X150591271Y-69938448D01*
X150489814Y-69855186D01*
X150406552Y-69753729D01*
X150377222Y-69717991D01*
X150367652Y-69700087D01*
X150293557Y-69561467D01*
X150276384Y-69504853D01*
X150242037Y-69391627D01*
X150224641Y-69215000D01*
X150242037Y-69038373D01*
X150293557Y-68868534D01*
X150293557Y-68868533D01*
X150377221Y-68712011D01*
X150377222Y-68712009D01*
X150406552Y-68676271D01*
X150489814Y-68574814D01*
X150591271Y-68491552D01*
X150627009Y-68462222D01*
X150644913Y-68452652D01*
X150783533Y-68378557D01*
X150840147Y-68361384D01*
X150953373Y-68327037D01*
X151019557Y-68320519D01*
X151085740Y-68314000D01*
X151174260Y-68314000D01*
X151240443Y-68320519D01*
X151240443Y-68320519D01*
G37*
G36*
X174100443Y-68320519D02*
X174166627Y-68327037D01*
X174279853Y-68361384D01*
X174336467Y-68378557D01*
X174475087Y-68452652D01*
X174492991Y-68462222D01*
X174528729Y-68491552D01*
X174630186Y-68574814D01*
X174713448Y-68676271D01*
X174742778Y-68712009D01*
X174742779Y-68712011D01*
X174826443Y-68868533D01*
X174826443Y-68868534D01*
X174877963Y-69038373D01*
X174895359Y-69215000D01*
X174877963Y-69391627D01*
X174843616Y-69504853D01*
X174826443Y-69561467D01*
X174752348Y-69700087D01*
X174742778Y-69717991D01*
X174713448Y-69753729D01*
X174630186Y-69855186D01*
X174528729Y-69938448D01*
X174492991Y-69967778D01*
X174492989Y-69967779D01*
X174336467Y-70051443D01*
X174279853Y-70068616D01*
X174166627Y-70102963D01*
X174100442Y-70109482D01*
X174034260Y-70116000D01*
X173945740Y-70116000D01*
X173879558Y-70109482D01*
X173813373Y-70102963D01*
X173700147Y-70068616D01*
X173643533Y-70051443D01*
X173487011Y-69967779D01*
X173487009Y-69967778D01*
X173451271Y-69938448D01*
X173349814Y-69855186D01*
X173266552Y-69753729D01*
X173237222Y-69717991D01*
X173227652Y-69700087D01*
X173153557Y-69561467D01*
X173136384Y-69504853D01*
X173102037Y-69391627D01*
X173084641Y-69215000D01*
X173102037Y-69038373D01*
X173153557Y-68868534D01*
X173153557Y-68868533D01*
X173237221Y-68712011D01*
X173237222Y-68712009D01*
X173266552Y-68676271D01*
X173349814Y-68574814D01*
X173451271Y-68491552D01*
X173487009Y-68462222D01*
X173504913Y-68452652D01*
X173643533Y-68378557D01*
X173700147Y-68361384D01*
X173813373Y-68327037D01*
X173879557Y-68320519D01*
X173945740Y-68314000D01*
X174034260Y-68314000D01*
X174100443Y-68320519D01*
X174100443Y-68320519D01*
G37*
G36*
X143620443Y-68320519D02*
X143686627Y-68327037D01*
X143799853Y-68361384D01*
X143856467Y-68378557D01*
X143995087Y-68452652D01*
X144012991Y-68462222D01*
X144048729Y-68491552D01*
X144150186Y-68574814D01*
X144233448Y-68676271D01*
X144262778Y-68712009D01*
X144262779Y-68712011D01*
X144346443Y-68868533D01*
X144346443Y-68868534D01*
X144397963Y-69038373D01*
X144415359Y-69215000D01*
X144397963Y-69391627D01*
X144363616Y-69504853D01*
X144346443Y-69561467D01*
X144272348Y-69700087D01*
X144262778Y-69717991D01*
X144233448Y-69753729D01*
X144150186Y-69855186D01*
X144048729Y-69938448D01*
X144012991Y-69967778D01*
X144012989Y-69967779D01*
X143856467Y-70051443D01*
X143799853Y-70068616D01*
X143686627Y-70102963D01*
X143620442Y-70109482D01*
X143554260Y-70116000D01*
X143465740Y-70116000D01*
X143399558Y-70109482D01*
X143333373Y-70102963D01*
X143220147Y-70068616D01*
X143163533Y-70051443D01*
X143007011Y-69967779D01*
X143007009Y-69967778D01*
X142971271Y-69938448D01*
X142869814Y-69855186D01*
X142786552Y-69753729D01*
X142757222Y-69717991D01*
X142747652Y-69700087D01*
X142673557Y-69561467D01*
X142656384Y-69504853D01*
X142622037Y-69391627D01*
X142604641Y-69215000D01*
X142622037Y-69038373D01*
X142673557Y-68868534D01*
X142673557Y-68868533D01*
X142757221Y-68712011D01*
X142757222Y-68712009D01*
X142786552Y-68676271D01*
X142869814Y-68574814D01*
X142971271Y-68491552D01*
X143007009Y-68462222D01*
X143024913Y-68452652D01*
X143163533Y-68378557D01*
X143220147Y-68361384D01*
X143333373Y-68327037D01*
X143399557Y-68320519D01*
X143465740Y-68314000D01*
X143554260Y-68314000D01*
X143620443Y-68320519D01*
X143620443Y-68320519D01*
G37*
G36*
X146160443Y-68320519D02*
X146226627Y-68327037D01*
X146339853Y-68361384D01*
X146396467Y-68378557D01*
X146535087Y-68452652D01*
X146552991Y-68462222D01*
X146588729Y-68491552D01*
X146690186Y-68574814D01*
X146773448Y-68676271D01*
X146802778Y-68712009D01*
X146802779Y-68712011D01*
X146886443Y-68868533D01*
X146886443Y-68868534D01*
X146937963Y-69038373D01*
X146955359Y-69215000D01*
X146937963Y-69391627D01*
X146903616Y-69504853D01*
X146886443Y-69561467D01*
X146812348Y-69700087D01*
X146802778Y-69717991D01*
X146773448Y-69753729D01*
X146690186Y-69855186D01*
X146588729Y-69938448D01*
X146552991Y-69967778D01*
X146552989Y-69967779D01*
X146396467Y-70051443D01*
X146339853Y-70068616D01*
X146226627Y-70102963D01*
X146160442Y-70109482D01*
X146094260Y-70116000D01*
X146005740Y-70116000D01*
X145939558Y-70109482D01*
X145873373Y-70102963D01*
X145760147Y-70068616D01*
X145703533Y-70051443D01*
X145547011Y-69967779D01*
X145547009Y-69967778D01*
X145511271Y-69938448D01*
X145409814Y-69855186D01*
X145326552Y-69753729D01*
X145297222Y-69717991D01*
X145287652Y-69700087D01*
X145213557Y-69561467D01*
X145196384Y-69504853D01*
X145162037Y-69391627D01*
X145144641Y-69215000D01*
X145162037Y-69038373D01*
X145213557Y-68868534D01*
X145213557Y-68868533D01*
X145297221Y-68712011D01*
X145297222Y-68712009D01*
X145326552Y-68676271D01*
X145409814Y-68574814D01*
X145511271Y-68491552D01*
X145547009Y-68462222D01*
X145564913Y-68452652D01*
X145703533Y-68378557D01*
X145760147Y-68361384D01*
X145873373Y-68327037D01*
X145939557Y-68320519D01*
X146005740Y-68314000D01*
X146094260Y-68314000D01*
X146160443Y-68320519D01*
X146160443Y-68320519D01*
G37*
G36*
X148700443Y-68320519D02*
X148766627Y-68327037D01*
X148879853Y-68361384D01*
X148936467Y-68378557D01*
X149075087Y-68452652D01*
X149092991Y-68462222D01*
X149128729Y-68491552D01*
X149230186Y-68574814D01*
X149313448Y-68676271D01*
X149342778Y-68712009D01*
X149342779Y-68712011D01*
X149426443Y-68868533D01*
X149426443Y-68868534D01*
X149477963Y-69038373D01*
X149495359Y-69215000D01*
X149477963Y-69391627D01*
X149443616Y-69504853D01*
X149426443Y-69561467D01*
X149352348Y-69700087D01*
X149342778Y-69717991D01*
X149313448Y-69753729D01*
X149230186Y-69855186D01*
X149128729Y-69938448D01*
X149092991Y-69967778D01*
X149092989Y-69967779D01*
X148936467Y-70051443D01*
X148879853Y-70068616D01*
X148766627Y-70102963D01*
X148700442Y-70109482D01*
X148634260Y-70116000D01*
X148545740Y-70116000D01*
X148479558Y-70109482D01*
X148413373Y-70102963D01*
X148300147Y-70068616D01*
X148243533Y-70051443D01*
X148087011Y-69967779D01*
X148087009Y-69967778D01*
X148051271Y-69938448D01*
X147949814Y-69855186D01*
X147866552Y-69753729D01*
X147837222Y-69717991D01*
X147827652Y-69700087D01*
X147753557Y-69561467D01*
X147736384Y-69504853D01*
X147702037Y-69391627D01*
X147684641Y-69215000D01*
X147702037Y-69038373D01*
X147753557Y-68868534D01*
X147753557Y-68868533D01*
X147837221Y-68712011D01*
X147837222Y-68712009D01*
X147866552Y-68676271D01*
X147949814Y-68574814D01*
X148051271Y-68491552D01*
X148087009Y-68462222D01*
X148104913Y-68452652D01*
X148243533Y-68378557D01*
X148300147Y-68361384D01*
X148413373Y-68327037D01*
X148479557Y-68320519D01*
X148545740Y-68314000D01*
X148634260Y-68314000D01*
X148700443Y-68320519D01*
X148700443Y-68320519D01*
G37*
G36*
X154571000Y-70116000D02*
X152769000Y-70116000D01*
X152769000Y-68314000D01*
X154571000Y-68314000D01*
X154571000Y-70116000D01*
X154571000Y-70116000D01*
G37*
G36*
X115045443Y-68320519D02*
X115111627Y-68327037D01*
X115224853Y-68361384D01*
X115281467Y-68378557D01*
X115420087Y-68452652D01*
X115437991Y-68462222D01*
X115473729Y-68491552D01*
X115575186Y-68574814D01*
X115658448Y-68676271D01*
X115687778Y-68712009D01*
X115687779Y-68712011D01*
X115771443Y-68868533D01*
X115771443Y-68868534D01*
X115822963Y-69038373D01*
X115840359Y-69215000D01*
X115822963Y-69391627D01*
X115788616Y-69504853D01*
X115771443Y-69561467D01*
X115697348Y-69700087D01*
X115687778Y-69717991D01*
X115658448Y-69753729D01*
X115575186Y-69855186D01*
X115473729Y-69938448D01*
X115437991Y-69967778D01*
X115437989Y-69967779D01*
X115281467Y-70051443D01*
X115224853Y-70068616D01*
X115111627Y-70102963D01*
X115045442Y-70109482D01*
X114979260Y-70116000D01*
X114890740Y-70116000D01*
X114824558Y-70109482D01*
X114758373Y-70102963D01*
X114645147Y-70068616D01*
X114588533Y-70051443D01*
X114432011Y-69967779D01*
X114432009Y-69967778D01*
X114396271Y-69938448D01*
X114294814Y-69855186D01*
X114211552Y-69753729D01*
X114182222Y-69717991D01*
X114172652Y-69700087D01*
X114098557Y-69561467D01*
X114081384Y-69504853D01*
X114047037Y-69391627D01*
X114029641Y-69215000D01*
X114047037Y-69038373D01*
X114098557Y-68868534D01*
X114098557Y-68868533D01*
X114182221Y-68712011D01*
X114182222Y-68712009D01*
X114211552Y-68676271D01*
X114294814Y-68574814D01*
X114396271Y-68491552D01*
X114432009Y-68462222D01*
X114449913Y-68452652D01*
X114588533Y-68378557D01*
X114645147Y-68361384D01*
X114758373Y-68327037D01*
X114824557Y-68320519D01*
X114890740Y-68314000D01*
X114979260Y-68314000D01*
X115045443Y-68320519D01*
X115045443Y-68320519D01*
G37*
G36*
X118376000Y-70116000D02*
X116574000Y-70116000D01*
X116574000Y-68314000D01*
X118376000Y-68314000D01*
X118376000Y-70116000D01*
X118376000Y-70116000D01*
G37*
G36*
X177431000Y-70116000D02*
X175629000Y-70116000D01*
X175629000Y-68314000D01*
X177431000Y-68314000D01*
X177431000Y-70116000D01*
X177431000Y-70116000D01*
G37*
G36*
X166480443Y-68320519D02*
X166546627Y-68327037D01*
X166659853Y-68361384D01*
X166716467Y-68378557D01*
X166855087Y-68452652D01*
X166872991Y-68462222D01*
X166908729Y-68491552D01*
X167010186Y-68574814D01*
X167093448Y-68676271D01*
X167122778Y-68712009D01*
X167122779Y-68712011D01*
X167206443Y-68868533D01*
X167206443Y-68868534D01*
X167257963Y-69038373D01*
X167275359Y-69215000D01*
X167257963Y-69391627D01*
X167223616Y-69504853D01*
X167206443Y-69561467D01*
X167132348Y-69700087D01*
X167122778Y-69717991D01*
X167093448Y-69753729D01*
X167010186Y-69855186D01*
X166908729Y-69938448D01*
X166872991Y-69967778D01*
X166872989Y-69967779D01*
X166716467Y-70051443D01*
X166659853Y-70068616D01*
X166546627Y-70102963D01*
X166480442Y-70109482D01*
X166414260Y-70116000D01*
X166325740Y-70116000D01*
X166259558Y-70109482D01*
X166193373Y-70102963D01*
X166080147Y-70068616D01*
X166023533Y-70051443D01*
X165867011Y-69967779D01*
X165867009Y-69967778D01*
X165831271Y-69938448D01*
X165729814Y-69855186D01*
X165646552Y-69753729D01*
X165617222Y-69717991D01*
X165607652Y-69700087D01*
X165533557Y-69561467D01*
X165516384Y-69504853D01*
X165482037Y-69391627D01*
X165464641Y-69215000D01*
X165482037Y-69038373D01*
X165533557Y-68868534D01*
X165533557Y-68868533D01*
X165617221Y-68712011D01*
X165617222Y-68712009D01*
X165646552Y-68676271D01*
X165729814Y-68574814D01*
X165831271Y-68491552D01*
X165867009Y-68462222D01*
X165884913Y-68452652D01*
X166023533Y-68378557D01*
X166080147Y-68361384D01*
X166193373Y-68327037D01*
X166259557Y-68320519D01*
X166325740Y-68314000D01*
X166414260Y-68314000D01*
X166480443Y-68320519D01*
X166480443Y-68320519D01*
G37*
G36*
X169811000Y-70116000D02*
X168009000Y-70116000D01*
X168009000Y-68314000D01*
X169811000Y-68314000D01*
X169811000Y-70116000D01*
X169811000Y-70116000D01*
G37*
G36*
X162191000Y-70116000D02*
X160389000Y-70116000D01*
X160389000Y-68314000D01*
X162191000Y-68314000D01*
X162191000Y-70116000D01*
X162191000Y-70116000D01*
G37*
G36*
X158860443Y-68320519D02*
X158926627Y-68327037D01*
X159039853Y-68361384D01*
X159096467Y-68378557D01*
X159235087Y-68452652D01*
X159252991Y-68462222D01*
X159288729Y-68491552D01*
X159390186Y-68574814D01*
X159473448Y-68676271D01*
X159502778Y-68712009D01*
X159502779Y-68712011D01*
X159586443Y-68868533D01*
X159586443Y-68868534D01*
X159637963Y-69038373D01*
X159655359Y-69215000D01*
X159637963Y-69391627D01*
X159603616Y-69504853D01*
X159586443Y-69561467D01*
X159512348Y-69700087D01*
X159502778Y-69717991D01*
X159473448Y-69753729D01*
X159390186Y-69855186D01*
X159288729Y-69938448D01*
X159252991Y-69967778D01*
X159252989Y-69967779D01*
X159096467Y-70051443D01*
X159039853Y-70068616D01*
X158926627Y-70102963D01*
X158860442Y-70109482D01*
X158794260Y-70116000D01*
X158705740Y-70116000D01*
X158639558Y-70109482D01*
X158573373Y-70102963D01*
X158460147Y-70068616D01*
X158403533Y-70051443D01*
X158247011Y-69967779D01*
X158247009Y-69967778D01*
X158211271Y-69938448D01*
X158109814Y-69855186D01*
X158026552Y-69753729D01*
X157997222Y-69717991D01*
X157987652Y-69700087D01*
X157913557Y-69561467D01*
X157896384Y-69504853D01*
X157862037Y-69391627D01*
X157844641Y-69215000D01*
X157862037Y-69038373D01*
X157913557Y-68868534D01*
X157913557Y-68868533D01*
X157997221Y-68712011D01*
X157997222Y-68712009D01*
X158026552Y-68676271D01*
X158109814Y-68574814D01*
X158211271Y-68491552D01*
X158247009Y-68462222D01*
X158264913Y-68452652D01*
X158403533Y-68378557D01*
X158460147Y-68361384D01*
X158573373Y-68327037D01*
X158639557Y-68320519D01*
X158705740Y-68314000D01*
X158794260Y-68314000D01*
X158860443Y-68320519D01*
X158860443Y-68320519D01*
G37*
G36*
X161878677Y-65418465D02*
X161916364Y-65429898D01*
X161951103Y-65448466D01*
X161981548Y-65473452D01*
X162006534Y-65503897D01*
X162025102Y-65538636D01*
X162036535Y-65576323D01*
X162041000Y-65621661D01*
X162041000Y-66458339D01*
X162036535Y-66503677D01*
X162025102Y-66541364D01*
X162006534Y-66576103D01*
X161981548Y-66606548D01*
X161951103Y-66631534D01*
X161916364Y-66650102D01*
X161878677Y-66661535D01*
X161833339Y-66666000D01*
X160746661Y-66666000D01*
X160701323Y-66661535D01*
X160663636Y-66650102D01*
X160628897Y-66631534D01*
X160598452Y-66606548D01*
X160573466Y-66576103D01*
X160554898Y-66541364D01*
X160543465Y-66503677D01*
X160539000Y-66458339D01*
X160539000Y-65621661D01*
X160543465Y-65576323D01*
X160554898Y-65538636D01*
X160573466Y-65503897D01*
X160598452Y-65473452D01*
X160628897Y-65448466D01*
X160663636Y-65429898D01*
X160701323Y-65418465D01*
X160746661Y-65414000D01*
X161833339Y-65414000D01*
X161878677Y-65418465D01*
X161878677Y-65418465D01*
G37*
G36*
X177118677Y-65418465D02*
X177156364Y-65429898D01*
X177191103Y-65448466D01*
X177221548Y-65473452D01*
X177246534Y-65503897D01*
X177265102Y-65538636D01*
X177276535Y-65576323D01*
X177281000Y-65621661D01*
X177281000Y-66458339D01*
X177276535Y-66503677D01*
X177265102Y-66541364D01*
X177246534Y-66576103D01*
X177221548Y-66606548D01*
X177191103Y-66631534D01*
X177156364Y-66650102D01*
X177118677Y-66661535D01*
X177073339Y-66666000D01*
X175986661Y-66666000D01*
X175941323Y-66661535D01*
X175903636Y-66650102D01*
X175868897Y-66631534D01*
X175838452Y-66606548D01*
X175813466Y-66576103D01*
X175794898Y-66541364D01*
X175783465Y-66503677D01*
X175779000Y-66458339D01*
X175779000Y-65621661D01*
X175783465Y-65576323D01*
X175794898Y-65538636D01*
X175813466Y-65503897D01*
X175838452Y-65473452D01*
X175868897Y-65448466D01*
X175903636Y-65429898D01*
X175941323Y-65418465D01*
X175986661Y-65414000D01*
X177073339Y-65414000D01*
X177118677Y-65418465D01*
X177118677Y-65418465D01*
G37*
G36*
X169498677Y-65418465D02*
X169536364Y-65429898D01*
X169571103Y-65448466D01*
X169601548Y-65473452D01*
X169626534Y-65503897D01*
X169645102Y-65538636D01*
X169656535Y-65576323D01*
X169661000Y-65621661D01*
X169661000Y-66458339D01*
X169656535Y-66503677D01*
X169645102Y-66541364D01*
X169626534Y-66576103D01*
X169601548Y-66606548D01*
X169571103Y-66631534D01*
X169536364Y-66650102D01*
X169498677Y-66661535D01*
X169453339Y-66666000D01*
X168366661Y-66666000D01*
X168321323Y-66661535D01*
X168283636Y-66650102D01*
X168248897Y-66631534D01*
X168218452Y-66606548D01*
X168193466Y-66576103D01*
X168174898Y-66541364D01*
X168163465Y-66503677D01*
X168159000Y-66458339D01*
X168159000Y-65621661D01*
X168163465Y-65576323D01*
X168174898Y-65538636D01*
X168193466Y-65503897D01*
X168218452Y-65473452D01*
X168248897Y-65448466D01*
X168283636Y-65429898D01*
X168321323Y-65418465D01*
X168366661Y-65414000D01*
X169453339Y-65414000D01*
X169498677Y-65418465D01*
X169498677Y-65418465D01*
G37*
G36*
X114888677Y-64783465D02*
X114926364Y-64794898D01*
X114961103Y-64813466D01*
X114991548Y-64838452D01*
X115016534Y-64868897D01*
X115035102Y-64903636D01*
X115046535Y-64941323D01*
X115051000Y-64986661D01*
X115051000Y-65823339D01*
X115046535Y-65868677D01*
X115035102Y-65906364D01*
X115016534Y-65941103D01*
X114991548Y-65971548D01*
X114961103Y-65996534D01*
X114926364Y-66015102D01*
X114888677Y-66026535D01*
X114843339Y-66031000D01*
X113756661Y-66031000D01*
X113711323Y-66026535D01*
X113673636Y-66015102D01*
X113638897Y-65996534D01*
X113608452Y-65971548D01*
X113583466Y-65941103D01*
X113564898Y-65906364D01*
X113553465Y-65868677D01*
X113549000Y-65823339D01*
X113549000Y-64986661D01*
X113553465Y-64941323D01*
X113564898Y-64903636D01*
X113583466Y-64868897D01*
X113608452Y-64838452D01*
X113638897Y-64813466D01*
X113673636Y-64794898D01*
X113711323Y-64783465D01*
X113756661Y-64779000D01*
X114843339Y-64779000D01*
X114888677Y-64783465D01*
X114888677Y-64783465D01*
G37*
G36*
X133303677Y-64538465D02*
X133341364Y-64549898D01*
X133376103Y-64568466D01*
X133406548Y-64593452D01*
X133431534Y-64623897D01*
X133450102Y-64658636D01*
X133461535Y-64696323D01*
X133466000Y-64741661D01*
X133466000Y-65578339D01*
X133461535Y-65623677D01*
X133450102Y-65661364D01*
X133431534Y-65696103D01*
X133406548Y-65726548D01*
X133376103Y-65751534D01*
X133341364Y-65770102D01*
X133303677Y-65781535D01*
X133258339Y-65786000D01*
X132171661Y-65786000D01*
X132126323Y-65781535D01*
X132088636Y-65770102D01*
X132053897Y-65751534D01*
X132023452Y-65726548D01*
X131998466Y-65696103D01*
X131979898Y-65661364D01*
X131968465Y-65623677D01*
X131964000Y-65578339D01*
X131964000Y-64741661D01*
X131968465Y-64696323D01*
X131979898Y-64658636D01*
X131998466Y-64623897D01*
X132023452Y-64593452D01*
X132053897Y-64568466D01*
X132088636Y-64549898D01*
X132126323Y-64538465D01*
X132171661Y-64534000D01*
X133258339Y-64534000D01*
X133303677Y-64538465D01*
X133303677Y-64538465D01*
G37*
G36*
X102501000Y-65671000D02*
X100699000Y-65671000D01*
X100699000Y-63869000D01*
X102501000Y-63869000D01*
X102501000Y-65671000D01*
X102501000Y-65671000D01*
G37*
G36*
X158723677Y-64023465D02*
X158761364Y-64034898D01*
X158796103Y-64053466D01*
X158826548Y-64078452D01*
X158851534Y-64108897D01*
X158870102Y-64143636D01*
X158881535Y-64181323D01*
X158886000Y-64226661D01*
X158886000Y-65313339D01*
X158881535Y-65358677D01*
X158870102Y-65396364D01*
X158851534Y-65431103D01*
X158826548Y-65461548D01*
X158796103Y-65486534D01*
X158761364Y-65505102D01*
X158723677Y-65516535D01*
X158678339Y-65521000D01*
X157841661Y-65521000D01*
X157796323Y-65516535D01*
X157758636Y-65505102D01*
X157723897Y-65486534D01*
X157693452Y-65461548D01*
X157668466Y-65431103D01*
X157649898Y-65396364D01*
X157638465Y-65358677D01*
X157634000Y-65313339D01*
X157634000Y-64226661D01*
X157638465Y-64181323D01*
X157649898Y-64143636D01*
X157668466Y-64108897D01*
X157693452Y-64078452D01*
X157723897Y-64053466D01*
X157758636Y-64034898D01*
X157796323Y-64023465D01*
X157841661Y-64019000D01*
X158678339Y-64019000D01*
X158723677Y-64023465D01*
X158723677Y-64023465D01*
G37*
G36*
X128733677Y-64023465D02*
X128771364Y-64034898D01*
X128806103Y-64053466D01*
X128836548Y-64078452D01*
X128861534Y-64108897D01*
X128880102Y-64143636D01*
X128891535Y-64181323D01*
X128896000Y-64226661D01*
X128896000Y-65313339D01*
X128891535Y-65358677D01*
X128880102Y-65396364D01*
X128861534Y-65431103D01*
X128836548Y-65461548D01*
X128806103Y-65486534D01*
X128771364Y-65505102D01*
X128733677Y-65516535D01*
X128688339Y-65521000D01*
X127851661Y-65521000D01*
X127806323Y-65516535D01*
X127768636Y-65505102D01*
X127733897Y-65486534D01*
X127703452Y-65461548D01*
X127678466Y-65431103D01*
X127659898Y-65396364D01*
X127648465Y-65358677D01*
X127644000Y-65313339D01*
X127644000Y-64226661D01*
X127648465Y-64181323D01*
X127659898Y-64143636D01*
X127678466Y-64108897D01*
X127703452Y-64078452D01*
X127733897Y-64053466D01*
X127768636Y-64034898D01*
X127806323Y-64023465D01*
X127851661Y-64019000D01*
X128688339Y-64019000D01*
X128733677Y-64023465D01*
X128733677Y-64023465D01*
G37*
G36*
X126683677Y-64023465D02*
X126721364Y-64034898D01*
X126756103Y-64053466D01*
X126786548Y-64078452D01*
X126811534Y-64108897D01*
X126830102Y-64143636D01*
X126841535Y-64181323D01*
X126846000Y-64226661D01*
X126846000Y-65313339D01*
X126841535Y-65358677D01*
X126830102Y-65396364D01*
X126811534Y-65431103D01*
X126786548Y-65461548D01*
X126756103Y-65486534D01*
X126721364Y-65505102D01*
X126683677Y-65516535D01*
X126638339Y-65521000D01*
X125801661Y-65521000D01*
X125756323Y-65516535D01*
X125718636Y-65505102D01*
X125683897Y-65486534D01*
X125653452Y-65461548D01*
X125628466Y-65431103D01*
X125609898Y-65396364D01*
X125598465Y-65358677D01*
X125594000Y-65313339D01*
X125594000Y-64226661D01*
X125598465Y-64181323D01*
X125609898Y-64143636D01*
X125628466Y-64108897D01*
X125653452Y-64078452D01*
X125683897Y-64053466D01*
X125718636Y-64034898D01*
X125756323Y-64023465D01*
X125801661Y-64019000D01*
X126638339Y-64019000D01*
X126683677Y-64023465D01*
X126683677Y-64023465D01*
G37*
G36*
X156673677Y-64023465D02*
X156711364Y-64034898D01*
X156746103Y-64053466D01*
X156776548Y-64078452D01*
X156801534Y-64108897D01*
X156820102Y-64143636D01*
X156831535Y-64181323D01*
X156836000Y-64226661D01*
X156836000Y-65313339D01*
X156831535Y-65358677D01*
X156820102Y-65396364D01*
X156801534Y-65431103D01*
X156776548Y-65461548D01*
X156746103Y-65486534D01*
X156711364Y-65505102D01*
X156673677Y-65516535D01*
X156628339Y-65521000D01*
X155791661Y-65521000D01*
X155746323Y-65516535D01*
X155708636Y-65505102D01*
X155673897Y-65486534D01*
X155643452Y-65461548D01*
X155618466Y-65431103D01*
X155599898Y-65396364D01*
X155588465Y-65358677D01*
X155584000Y-65313339D01*
X155584000Y-64226661D01*
X155588465Y-64181323D01*
X155599898Y-64143636D01*
X155618466Y-64108897D01*
X155643452Y-64078452D01*
X155673897Y-64053466D01*
X155708636Y-64034898D01*
X155746323Y-64023465D01*
X155791661Y-64019000D01*
X156628339Y-64019000D01*
X156673677Y-64023465D01*
X156673677Y-64023465D01*
G37*
G36*
X138893677Y-63388465D02*
X138931364Y-63399898D01*
X138966103Y-63418466D01*
X138996548Y-63443452D01*
X139021534Y-63473897D01*
X139040102Y-63508636D01*
X139051535Y-63546323D01*
X139056000Y-63591661D01*
X139056000Y-64678339D01*
X139051535Y-64723677D01*
X139040102Y-64761364D01*
X139021534Y-64796103D01*
X138996548Y-64826548D01*
X138966103Y-64851534D01*
X138931364Y-64870102D01*
X138893677Y-64881535D01*
X138848339Y-64886000D01*
X138011661Y-64886000D01*
X137966323Y-64881535D01*
X137928636Y-64870102D01*
X137893897Y-64851534D01*
X137863452Y-64826548D01*
X137838466Y-64796103D01*
X137819898Y-64761364D01*
X137808465Y-64723677D01*
X137804000Y-64678339D01*
X137804000Y-63591661D01*
X137808465Y-63546323D01*
X137819898Y-63508636D01*
X137838466Y-63473897D01*
X137863452Y-63443452D01*
X137893897Y-63418466D01*
X137928636Y-63399898D01*
X137966323Y-63388465D01*
X138011661Y-63384000D01*
X138848339Y-63384000D01*
X138893677Y-63388465D01*
X138893677Y-63388465D01*
G37*
G36*
X136843677Y-63388465D02*
X136881364Y-63399898D01*
X136916103Y-63418466D01*
X136946548Y-63443452D01*
X136971534Y-63473897D01*
X136990102Y-63508636D01*
X137001535Y-63546323D01*
X137006000Y-63591661D01*
X137006000Y-64678339D01*
X137001535Y-64723677D01*
X136990102Y-64761364D01*
X136971534Y-64796103D01*
X136946548Y-64826548D01*
X136916103Y-64851534D01*
X136881364Y-64870102D01*
X136843677Y-64881535D01*
X136798339Y-64886000D01*
X135961661Y-64886000D01*
X135916323Y-64881535D01*
X135878636Y-64870102D01*
X135843897Y-64851534D01*
X135813452Y-64826548D01*
X135788466Y-64796103D01*
X135769898Y-64761364D01*
X135758465Y-64723677D01*
X135754000Y-64678339D01*
X135754000Y-63591661D01*
X135758465Y-63546323D01*
X135769898Y-63508636D01*
X135788466Y-63473897D01*
X135813452Y-63443452D01*
X135843897Y-63418466D01*
X135878636Y-63399898D01*
X135916323Y-63388465D01*
X135961661Y-63384000D01*
X136798339Y-63384000D01*
X136843677Y-63388465D01*
X136843677Y-63388465D01*
G37*
G36*
X141288677Y-63388465D02*
X141326364Y-63399898D01*
X141361103Y-63418466D01*
X141391548Y-63443452D01*
X141416534Y-63473897D01*
X141435102Y-63508636D01*
X141446535Y-63546323D01*
X141451000Y-63591661D01*
X141451000Y-64678339D01*
X141446535Y-64723677D01*
X141435102Y-64761364D01*
X141416534Y-64796103D01*
X141391548Y-64826548D01*
X141361103Y-64851534D01*
X141326364Y-64870102D01*
X141288677Y-64881535D01*
X141243339Y-64886000D01*
X140406661Y-64886000D01*
X140361323Y-64881535D01*
X140323636Y-64870102D01*
X140288897Y-64851534D01*
X140258452Y-64826548D01*
X140233466Y-64796103D01*
X140214898Y-64761364D01*
X140203465Y-64723677D01*
X140199000Y-64678339D01*
X140199000Y-63591661D01*
X140203465Y-63546323D01*
X140214898Y-63508636D01*
X140233466Y-63473897D01*
X140258452Y-63443452D01*
X140288897Y-63418466D01*
X140323636Y-63399898D01*
X140361323Y-63388465D01*
X140406661Y-63384000D01*
X141243339Y-63384000D01*
X141288677Y-63388465D01*
X141288677Y-63388465D01*
G37*
G36*
X143338677Y-63388465D02*
X143376364Y-63399898D01*
X143411103Y-63418466D01*
X143441548Y-63443452D01*
X143466534Y-63473897D01*
X143485102Y-63508636D01*
X143496535Y-63546323D01*
X143501000Y-63591661D01*
X143501000Y-64678339D01*
X143496535Y-64723677D01*
X143485102Y-64761364D01*
X143466534Y-64796103D01*
X143441548Y-64826548D01*
X143411103Y-64851534D01*
X143376364Y-64870102D01*
X143338677Y-64881535D01*
X143293339Y-64886000D01*
X142456661Y-64886000D01*
X142411323Y-64881535D01*
X142373636Y-64870102D01*
X142338897Y-64851534D01*
X142308452Y-64826548D01*
X142283466Y-64796103D01*
X142264898Y-64761364D01*
X142253465Y-64723677D01*
X142249000Y-64678339D01*
X142249000Y-63591661D01*
X142253465Y-63546323D01*
X142264898Y-63508636D01*
X142283466Y-63473897D01*
X142308452Y-63443452D01*
X142338897Y-63418466D01*
X142373636Y-63399898D01*
X142411323Y-63388465D01*
X142456661Y-63384000D01*
X143293339Y-63384000D01*
X143338677Y-63388465D01*
X143338677Y-63388465D01*
G37*
G36*
X169498677Y-63368465D02*
X169536364Y-63379898D01*
X169571103Y-63398466D01*
X169601548Y-63423452D01*
X169626534Y-63453897D01*
X169645102Y-63488636D01*
X169656535Y-63526323D01*
X169661000Y-63571661D01*
X169661000Y-64408339D01*
X169656535Y-64453677D01*
X169645102Y-64491364D01*
X169626534Y-64526103D01*
X169601548Y-64556548D01*
X169571103Y-64581534D01*
X169536364Y-64600102D01*
X169498677Y-64611535D01*
X169453339Y-64616000D01*
X168366661Y-64616000D01*
X168321323Y-64611535D01*
X168283636Y-64600102D01*
X168248897Y-64581534D01*
X168218452Y-64556548D01*
X168193466Y-64526103D01*
X168174898Y-64491364D01*
X168163465Y-64453677D01*
X168159000Y-64408339D01*
X168159000Y-63571661D01*
X168163465Y-63526323D01*
X168174898Y-63488636D01*
X168193466Y-63453897D01*
X168218452Y-63423452D01*
X168248897Y-63398466D01*
X168283636Y-63379898D01*
X168321323Y-63368465D01*
X168366661Y-63364000D01*
X169453339Y-63364000D01*
X169498677Y-63368465D01*
X169498677Y-63368465D01*
G37*
G36*
X161878677Y-63368465D02*
X161916364Y-63379898D01*
X161951103Y-63398466D01*
X161981548Y-63423452D01*
X162006534Y-63453897D01*
X162025102Y-63488636D01*
X162036535Y-63526323D01*
X162041000Y-63571661D01*
X162041000Y-64408339D01*
X162036535Y-64453677D01*
X162025102Y-64491364D01*
X162006534Y-64526103D01*
X161981548Y-64556548D01*
X161951103Y-64581534D01*
X161916364Y-64600102D01*
X161878677Y-64611535D01*
X161833339Y-64616000D01*
X160746661Y-64616000D01*
X160701323Y-64611535D01*
X160663636Y-64600102D01*
X160628897Y-64581534D01*
X160598452Y-64556548D01*
X160573466Y-64526103D01*
X160554898Y-64491364D01*
X160543465Y-64453677D01*
X160539000Y-64408339D01*
X160539000Y-63571661D01*
X160543465Y-63526323D01*
X160554898Y-63488636D01*
X160573466Y-63453897D01*
X160598452Y-63423452D01*
X160628897Y-63398466D01*
X160663636Y-63379898D01*
X160701323Y-63368465D01*
X160746661Y-63364000D01*
X161833339Y-63364000D01*
X161878677Y-63368465D01*
X161878677Y-63368465D01*
G37*
G36*
X177118677Y-63368465D02*
X177156364Y-63379898D01*
X177191103Y-63398466D01*
X177221548Y-63423452D01*
X177246534Y-63453897D01*
X177265102Y-63488636D01*
X177276535Y-63526323D01*
X177281000Y-63571661D01*
X177281000Y-64408339D01*
X177276535Y-64453677D01*
X177265102Y-64491364D01*
X177246534Y-64526103D01*
X177221548Y-64556548D01*
X177191103Y-64581534D01*
X177156364Y-64600102D01*
X177118677Y-64611535D01*
X177073339Y-64616000D01*
X175986661Y-64616000D01*
X175941323Y-64611535D01*
X175903636Y-64600102D01*
X175868897Y-64581534D01*
X175838452Y-64556548D01*
X175813466Y-64526103D01*
X175794898Y-64491364D01*
X175783465Y-64453677D01*
X175779000Y-64408339D01*
X175779000Y-63571661D01*
X175783465Y-63526323D01*
X175794898Y-63488636D01*
X175813466Y-63453897D01*
X175838452Y-63423452D01*
X175868897Y-63398466D01*
X175903636Y-63379898D01*
X175941323Y-63368465D01*
X175986661Y-63364000D01*
X177073339Y-63364000D01*
X177118677Y-63368465D01*
X177118677Y-63368465D01*
G37*
G36*
X114888677Y-62733465D02*
X114926364Y-62744898D01*
X114961103Y-62763466D01*
X114991548Y-62788452D01*
X115016534Y-62818897D01*
X115035102Y-62853636D01*
X115046535Y-62891323D01*
X115051000Y-62936661D01*
X115051000Y-63773339D01*
X115046535Y-63818677D01*
X115035102Y-63856364D01*
X115016534Y-63891103D01*
X114991548Y-63921548D01*
X114961103Y-63946534D01*
X114926364Y-63965102D01*
X114888677Y-63976535D01*
X114843339Y-63981000D01*
X113756661Y-63981000D01*
X113711323Y-63976535D01*
X113673636Y-63965102D01*
X113638897Y-63946534D01*
X113608452Y-63921548D01*
X113583466Y-63891103D01*
X113564898Y-63856364D01*
X113553465Y-63818677D01*
X113549000Y-63773339D01*
X113549000Y-62936661D01*
X113553465Y-62891323D01*
X113564898Y-62853636D01*
X113583466Y-62818897D01*
X113608452Y-62788452D01*
X113638897Y-62763466D01*
X113673636Y-62744898D01*
X113711323Y-62733465D01*
X113756661Y-62729000D01*
X114843339Y-62729000D01*
X114888677Y-62733465D01*
X114888677Y-62733465D01*
G37*
G36*
X133303677Y-62488465D02*
X133341364Y-62499898D01*
X133376103Y-62518466D01*
X133406548Y-62543452D01*
X133431534Y-62573897D01*
X133450102Y-62608636D01*
X133461535Y-62646323D01*
X133466000Y-62691661D01*
X133466000Y-63528339D01*
X133461535Y-63573677D01*
X133450102Y-63611364D01*
X133431534Y-63646103D01*
X133406548Y-63676548D01*
X133376103Y-63701534D01*
X133341364Y-63720102D01*
X133303677Y-63731535D01*
X133258339Y-63736000D01*
X132171661Y-63736000D01*
X132126323Y-63731535D01*
X132088636Y-63720102D01*
X132053897Y-63701534D01*
X132023452Y-63676548D01*
X131998466Y-63646103D01*
X131979898Y-63611364D01*
X131968465Y-63573677D01*
X131964000Y-63528339D01*
X131964000Y-62691661D01*
X131968465Y-62646323D01*
X131979898Y-62608636D01*
X131998466Y-62573897D01*
X132023452Y-62543452D01*
X132053897Y-62518466D01*
X132088636Y-62499898D01*
X132126323Y-62488465D01*
X132171661Y-62484000D01*
X133258339Y-62484000D01*
X133303677Y-62488465D01*
X133303677Y-62488465D01*
G37*
G36*
X156673677Y-62118465D02*
X156711364Y-62129898D01*
X156746103Y-62148466D01*
X156776548Y-62173452D01*
X156801534Y-62203897D01*
X156820102Y-62238636D01*
X156831535Y-62276323D01*
X156836000Y-62321661D01*
X156836000Y-63408339D01*
X156831535Y-63453677D01*
X156820102Y-63491364D01*
X156801534Y-63526103D01*
X156776548Y-63556548D01*
X156746103Y-63581534D01*
X156711364Y-63600102D01*
X156673677Y-63611535D01*
X156628339Y-63616000D01*
X155791661Y-63616000D01*
X155746323Y-63611535D01*
X155708636Y-63600102D01*
X155673897Y-63581534D01*
X155643452Y-63556548D01*
X155618466Y-63526103D01*
X155599898Y-63491364D01*
X155588465Y-63453677D01*
X155584000Y-63408339D01*
X155584000Y-62321661D01*
X155588465Y-62276323D01*
X155599898Y-62238636D01*
X155618466Y-62203897D01*
X155643452Y-62173452D01*
X155673897Y-62148466D01*
X155708636Y-62129898D01*
X155746323Y-62118465D01*
X155791661Y-62114000D01*
X156628339Y-62114000D01*
X156673677Y-62118465D01*
X156673677Y-62118465D01*
G37*
G36*
X128733677Y-62118465D02*
X128771364Y-62129898D01*
X128806103Y-62148466D01*
X128836548Y-62173452D01*
X128861534Y-62203897D01*
X128880102Y-62238636D01*
X128891535Y-62276323D01*
X128896000Y-62321661D01*
X128896000Y-63408339D01*
X128891535Y-63453677D01*
X128880102Y-63491364D01*
X128861534Y-63526103D01*
X128836548Y-63556548D01*
X128806103Y-63581534D01*
X128771364Y-63600102D01*
X128733677Y-63611535D01*
X128688339Y-63616000D01*
X127851661Y-63616000D01*
X127806323Y-63611535D01*
X127768636Y-63600102D01*
X127733897Y-63581534D01*
X127703452Y-63556548D01*
X127678466Y-63526103D01*
X127659898Y-63491364D01*
X127648465Y-63453677D01*
X127644000Y-63408339D01*
X127644000Y-62321661D01*
X127648465Y-62276323D01*
X127659898Y-62238636D01*
X127678466Y-62203897D01*
X127703452Y-62173452D01*
X127733897Y-62148466D01*
X127768636Y-62129898D01*
X127806323Y-62118465D01*
X127851661Y-62114000D01*
X128688339Y-62114000D01*
X128733677Y-62118465D01*
X128733677Y-62118465D01*
G37*
G36*
X126683677Y-62118465D02*
X126721364Y-62129898D01*
X126756103Y-62148466D01*
X126786548Y-62173452D01*
X126811534Y-62203897D01*
X126830102Y-62238636D01*
X126841535Y-62276323D01*
X126846000Y-62321661D01*
X126846000Y-63408339D01*
X126841535Y-63453677D01*
X126830102Y-63491364D01*
X126811534Y-63526103D01*
X126786548Y-63556548D01*
X126756103Y-63581534D01*
X126721364Y-63600102D01*
X126683677Y-63611535D01*
X126638339Y-63616000D01*
X125801661Y-63616000D01*
X125756323Y-63611535D01*
X125718636Y-63600102D01*
X125683897Y-63581534D01*
X125653452Y-63556548D01*
X125628466Y-63526103D01*
X125609898Y-63491364D01*
X125598465Y-63453677D01*
X125594000Y-63408339D01*
X125594000Y-62321661D01*
X125598465Y-62276323D01*
X125609898Y-62238636D01*
X125628466Y-62203897D01*
X125653452Y-62173452D01*
X125683897Y-62148466D01*
X125718636Y-62129898D01*
X125756323Y-62118465D01*
X125801661Y-62114000D01*
X126638339Y-62114000D01*
X126683677Y-62118465D01*
X126683677Y-62118465D01*
G37*
G36*
X158723677Y-62118465D02*
X158761364Y-62129898D01*
X158796103Y-62148466D01*
X158826548Y-62173452D01*
X158851534Y-62203897D01*
X158870102Y-62238636D01*
X158881535Y-62276323D01*
X158886000Y-62321661D01*
X158886000Y-63408339D01*
X158881535Y-63453677D01*
X158870102Y-63491364D01*
X158851534Y-63526103D01*
X158826548Y-63556548D01*
X158796103Y-63581534D01*
X158761364Y-63600102D01*
X158723677Y-63611535D01*
X158678339Y-63616000D01*
X157841661Y-63616000D01*
X157796323Y-63611535D01*
X157758636Y-63600102D01*
X157723897Y-63581534D01*
X157693452Y-63556548D01*
X157668466Y-63526103D01*
X157649898Y-63491364D01*
X157638465Y-63453677D01*
X157634000Y-63408339D01*
X157634000Y-62321661D01*
X157638465Y-62276323D01*
X157649898Y-62238636D01*
X157668466Y-62203897D01*
X157693452Y-62173452D01*
X157723897Y-62148466D01*
X157758636Y-62129898D01*
X157796323Y-62118465D01*
X157841661Y-62114000D01*
X158678339Y-62114000D01*
X158723677Y-62118465D01*
X158723677Y-62118465D01*
G37*
G36*
X101710443Y-61335519D02*
X101776627Y-61342037D01*
X101888341Y-61375925D01*
X101946467Y-61393557D01*
X102019654Y-61432677D01*
X102102991Y-61477222D01*
X102136964Y-61505103D01*
X102240186Y-61589814D01*
X102323448Y-61691271D01*
X102352778Y-61727009D01*
X102352779Y-61727011D01*
X102436443Y-61883533D01*
X102436443Y-61883534D01*
X102487963Y-62053373D01*
X102505359Y-62230000D01*
X102487963Y-62406627D01*
X102458207Y-62504718D01*
X102436443Y-62576467D01*
X102396060Y-62652017D01*
X102352778Y-62732991D01*
X102351761Y-62734230D01*
X102240186Y-62870186D01*
X102138729Y-62953448D01*
X102102991Y-62982778D01*
X102102989Y-62982779D01*
X101946467Y-63066443D01*
X101889853Y-63083616D01*
X101776627Y-63117963D01*
X101710442Y-63124482D01*
X101644260Y-63131000D01*
X101555740Y-63131000D01*
X101489558Y-63124482D01*
X101423373Y-63117963D01*
X101310147Y-63083616D01*
X101253533Y-63066443D01*
X101097011Y-62982779D01*
X101097009Y-62982778D01*
X101061271Y-62953448D01*
X100959814Y-62870186D01*
X100848239Y-62734230D01*
X100847222Y-62732991D01*
X100803940Y-62652017D01*
X100763557Y-62576467D01*
X100741793Y-62504718D01*
X100712037Y-62406627D01*
X100694641Y-62230000D01*
X100712037Y-62053373D01*
X100763557Y-61883534D01*
X100763557Y-61883533D01*
X100847221Y-61727011D01*
X100847222Y-61727009D01*
X100876552Y-61691271D01*
X100959814Y-61589814D01*
X101063036Y-61505103D01*
X101097009Y-61477222D01*
X101180346Y-61432677D01*
X101253533Y-61393557D01*
X101311659Y-61375925D01*
X101423373Y-61342037D01*
X101489557Y-61335519D01*
X101555740Y-61329000D01*
X101644260Y-61329000D01*
X101710443Y-61335519D01*
X101710443Y-61335519D01*
G37*
G36*
X145162019Y-57158490D02*
X145162019Y-57158491D01*
X145261373Y-57986443D01*
X145433885Y-59424038D01*
X145528787Y-60214893D01*
X145534078Y-60238820D01*
X145543934Y-60261254D01*
X145557978Y-60281335D01*
X145575669Y-60298290D01*
X145596329Y-60311468D01*
X145619162Y-60320362D01*
X145652897Y-60325000D01*
X147066000Y-60325000D01*
X147066000Y-60329915D01*
X147068842Y-60339284D01*
X147080394Y-60360895D01*
X147105026Y-60388071D01*
X147122547Y-60402451D01*
X147147534Y-60432897D01*
X147166102Y-60467636D01*
X147177535Y-60505323D01*
X147182000Y-60550661D01*
X147182000Y-61387339D01*
X147177535Y-61432677D01*
X147166102Y-61470364D01*
X147147534Y-61505103D01*
X147122548Y-61535548D01*
X147093235Y-61559605D01*
X147068601Y-61586784D01*
X147066000Y-61590677D01*
X147066000Y-61595000D01*
X145593776Y-61595000D01*
X145569390Y-61597402D01*
X145545941Y-61604515D01*
X145524330Y-61616066D01*
X145505388Y-61631612D01*
X144907000Y-62230000D01*
X141224000Y-62230000D01*
X141224000Y-57150000D01*
X145161000Y-57150000D01*
X145162019Y-57158490D01*
X145162019Y-57158490D01*
G37*
G36*
X160981000Y-61311000D02*
X159379000Y-61311000D01*
X159379000Y-60609000D01*
X160981000Y-60609000D01*
X160981000Y-61311000D01*
X160981000Y-61311000D01*
G37*
G36*
X155581000Y-61311000D02*
X153979000Y-61311000D01*
X153979000Y-60609000D01*
X155581000Y-60609000D01*
X155581000Y-61311000D01*
X155581000Y-61311000D01*
G37*
G36*
X132726000Y-61311000D02*
X130674000Y-61311000D01*
X130674000Y-60609000D01*
X132726000Y-60609000D01*
X132726000Y-61311000D01*
X132726000Y-61311000D01*
G37*
G36*
X123326000Y-61311000D02*
X121274000Y-61311000D01*
X121274000Y-60609000D01*
X123326000Y-60609000D01*
X123326000Y-61311000D01*
X123326000Y-61311000D01*
G37*
G36*
X101710443Y-58795519D02*
X101776627Y-58802037D01*
X101889853Y-58836384D01*
X101946467Y-58853557D01*
X102070363Y-58919782D01*
X102102991Y-58937222D01*
X102138729Y-58966552D01*
X102240186Y-59049814D01*
X102323448Y-59151271D01*
X102352778Y-59187009D01*
X102352779Y-59187011D01*
X102436443Y-59343533D01*
X102436443Y-59343534D01*
X102487963Y-59513373D01*
X102505359Y-59690000D01*
X102487963Y-59866627D01*
X102470667Y-59923643D01*
X102436443Y-60036467D01*
X102418831Y-60069416D01*
X102352778Y-60192991D01*
X102346524Y-60200611D01*
X102240186Y-60330186D01*
X102138729Y-60413448D01*
X102102991Y-60442778D01*
X102102989Y-60442779D01*
X101946467Y-60526443D01*
X101889853Y-60543616D01*
X101776627Y-60577963D01*
X101710443Y-60584481D01*
X101644260Y-60591000D01*
X101555740Y-60591000D01*
X101489557Y-60584481D01*
X101423373Y-60577963D01*
X101310147Y-60543616D01*
X101253533Y-60526443D01*
X101097011Y-60442779D01*
X101097009Y-60442778D01*
X101061271Y-60413448D01*
X100959814Y-60330186D01*
X100853476Y-60200611D01*
X100847222Y-60192991D01*
X100781169Y-60069416D01*
X100763557Y-60036467D01*
X100729333Y-59923643D01*
X100712037Y-59866627D01*
X100694641Y-59690000D01*
X100712037Y-59513373D01*
X100763557Y-59343534D01*
X100763557Y-59343533D01*
X100847221Y-59187011D01*
X100847222Y-59187009D01*
X100876552Y-59151271D01*
X100959814Y-59049814D01*
X101061271Y-58966552D01*
X101097009Y-58937222D01*
X101129637Y-58919782D01*
X101253533Y-58853557D01*
X101310147Y-58836384D01*
X101423373Y-58802037D01*
X101489557Y-58795519D01*
X101555740Y-58789000D01*
X101644260Y-58789000D01*
X101710443Y-58795519D01*
X101710443Y-58795519D01*
G37*
G36*
X137393643Y-58919781D02*
X137539415Y-58980162D01*
X137670611Y-59067824D01*
X137782176Y-59179389D01*
X137869838Y-59310585D01*
X137930219Y-59456357D01*
X137961000Y-59611107D01*
X137961000Y-59768893D01*
X137930219Y-59923643D01*
X137869838Y-60069415D01*
X137782176Y-60200611D01*
X137670611Y-60312176D01*
X137539415Y-60399838D01*
X137393643Y-60460219D01*
X137238893Y-60491000D01*
X137081107Y-60491000D01*
X136926357Y-60460219D01*
X136780585Y-60399838D01*
X136649389Y-60312176D01*
X136537824Y-60200611D01*
X136450162Y-60069415D01*
X136389781Y-59923643D01*
X136359000Y-59768893D01*
X136359000Y-59611107D01*
X136389781Y-59456357D01*
X136450162Y-59310585D01*
X136537824Y-59179389D01*
X136649389Y-59067824D01*
X136780585Y-58980162D01*
X136926357Y-58919781D01*
X137081107Y-58889000D01*
X137238893Y-58889000D01*
X137393643Y-58919781D01*
X137393643Y-58919781D01*
G37*
G36*
X160981000Y-60041000D02*
X159379000Y-60041000D01*
X159379000Y-59339000D01*
X160981000Y-59339000D01*
X160981000Y-60041000D01*
X160981000Y-60041000D01*
G37*
G36*
X155581000Y-60041000D02*
X153979000Y-60041000D01*
X153979000Y-59339000D01*
X155581000Y-59339000D01*
X155581000Y-60041000D01*
X155581000Y-60041000D01*
G37*
G36*
X132726000Y-60041000D02*
X130674000Y-60041000D01*
X130674000Y-59339000D01*
X132726000Y-59339000D01*
X132726000Y-60041000D01*
X132726000Y-60041000D01*
G37*
G36*
X123326000Y-60041000D02*
X121274000Y-60041000D01*
X121274000Y-59339000D01*
X123326000Y-59339000D01*
X123326000Y-60041000D01*
X123326000Y-60041000D01*
G37*
G36*
X147019677Y-58297465D02*
X147057364Y-58308898D01*
X147092103Y-58327466D01*
X147122548Y-58352452D01*
X147147534Y-58382897D01*
X147166102Y-58417636D01*
X147177535Y-58455323D01*
X147182000Y-58500661D01*
X147182000Y-59337339D01*
X147177535Y-59382677D01*
X147166102Y-59420364D01*
X147147534Y-59455103D01*
X147122548Y-59485548D01*
X147092103Y-59510534D01*
X147057364Y-59529102D01*
X147019677Y-59540535D01*
X146974339Y-59545000D01*
X145887661Y-59545000D01*
X145842323Y-59540535D01*
X145804636Y-59529102D01*
X145769897Y-59510534D01*
X145739452Y-59485548D01*
X145714466Y-59455103D01*
X145695898Y-59420364D01*
X145684465Y-59382677D01*
X145680000Y-59337339D01*
X145680000Y-58500661D01*
X145684465Y-58455323D01*
X145695898Y-58417636D01*
X145714466Y-58382897D01*
X145739452Y-58352452D01*
X145769897Y-58327466D01*
X145804636Y-58308898D01*
X145842323Y-58297465D01*
X145887661Y-58293000D01*
X146974339Y-58293000D01*
X147019677Y-58297465D01*
X147019677Y-58297465D01*
G37*
G36*
X123326000Y-58771000D02*
X121274000Y-58771000D01*
X121274000Y-58069000D01*
X123326000Y-58069000D01*
X123326000Y-58771000D01*
X123326000Y-58771000D01*
G37*
G36*
X132726000Y-58771000D02*
X130674000Y-58771000D01*
X130674000Y-58069000D01*
X132726000Y-58069000D01*
X132726000Y-58771000D01*
X132726000Y-58771000D01*
G37*
G36*
X155581000Y-58771000D02*
X153979000Y-58771000D01*
X153979000Y-58069000D01*
X155581000Y-58069000D01*
X155581000Y-58771000D01*
X155581000Y-58771000D01*
G37*
G36*
X160981000Y-58771000D02*
X159379000Y-58771000D01*
X159379000Y-58069000D01*
X160981000Y-58069000D01*
X160981000Y-58771000D01*
X160981000Y-58771000D01*
G37*
G36*
X101710443Y-56255519D02*
X101776627Y-56262037D01*
X101889853Y-56296384D01*
X101946467Y-56313557D01*
X102031160Y-56358827D01*
X102102991Y-56397222D01*
X102134814Y-56423339D01*
X102240186Y-56509814D01*
X102301996Y-56585131D01*
X102352778Y-56647009D01*
X102352779Y-56647011D01*
X102436443Y-56803533D01*
X102436443Y-56803534D01*
X102487963Y-56973373D01*
X102505359Y-57150000D01*
X102487963Y-57326627D01*
X102453616Y-57439853D01*
X102436443Y-57496467D01*
X102434020Y-57501000D01*
X102352778Y-57652991D01*
X102323448Y-57688729D01*
X102240186Y-57790186D01*
X102138729Y-57873448D01*
X102102991Y-57902778D01*
X102102989Y-57902779D01*
X101946467Y-57986443D01*
X101889853Y-58003616D01*
X101776627Y-58037963D01*
X101710443Y-58044481D01*
X101644260Y-58051000D01*
X101555740Y-58051000D01*
X101489557Y-58044481D01*
X101423373Y-58037963D01*
X101310147Y-58003616D01*
X101253533Y-57986443D01*
X101097011Y-57902779D01*
X101097009Y-57902778D01*
X101061271Y-57873448D01*
X100959814Y-57790186D01*
X100876552Y-57688729D01*
X100847222Y-57652991D01*
X100765980Y-57501000D01*
X100763557Y-57496467D01*
X100746384Y-57439853D01*
X100712037Y-57326627D01*
X100694641Y-57150000D01*
X100712037Y-56973373D01*
X100763557Y-56803534D01*
X100763557Y-56803533D01*
X100847221Y-56647011D01*
X100847222Y-56647009D01*
X100898004Y-56585131D01*
X100959814Y-56509814D01*
X101065186Y-56423339D01*
X101097009Y-56397222D01*
X101168840Y-56358827D01*
X101253533Y-56313557D01*
X101310147Y-56296384D01*
X101423373Y-56262037D01*
X101489557Y-56255519D01*
X101555740Y-56249000D01*
X101644260Y-56249000D01*
X101710443Y-56255519D01*
X101710443Y-56255519D01*
G37*
G36*
X155581000Y-57501000D02*
X153979000Y-57501000D01*
X153979000Y-56799000D01*
X155581000Y-56799000D01*
X155581000Y-57501000D01*
X155581000Y-57501000D01*
G37*
G36*
X160981000Y-57501000D02*
X159379000Y-57501000D01*
X159379000Y-56799000D01*
X160981000Y-56799000D01*
X160981000Y-57501000D01*
X160981000Y-57501000D01*
G37*
G36*
X123326000Y-57501000D02*
X121274000Y-57501000D01*
X121274000Y-56799000D01*
X123326000Y-56799000D01*
X123326000Y-57501000D01*
X123326000Y-57501000D01*
G37*
G36*
X132726000Y-57501000D02*
X130674000Y-57501000D01*
X130674000Y-56799000D01*
X132726000Y-56799000D01*
X132726000Y-57501000D01*
X132726000Y-57501000D01*
G37*
G36*
X139138677Y-55133465D02*
X139176364Y-55144898D01*
X139211103Y-55163466D01*
X139241548Y-55188452D01*
X139266534Y-55218897D01*
X139285102Y-55253636D01*
X139296535Y-55291323D01*
X139301000Y-55336661D01*
X139301000Y-56423339D01*
X139296535Y-56468677D01*
X139285102Y-56506364D01*
X139266534Y-56541103D01*
X139241548Y-56571548D01*
X139211103Y-56596534D01*
X139176364Y-56615102D01*
X139138677Y-56626535D01*
X139093339Y-56631000D01*
X138256661Y-56631000D01*
X138211323Y-56626535D01*
X138173636Y-56615102D01*
X138138897Y-56596534D01*
X138108452Y-56571548D01*
X138083466Y-56541103D01*
X138064898Y-56506364D01*
X138053465Y-56468677D01*
X138049000Y-56423339D01*
X138049000Y-55336661D01*
X138053465Y-55291323D01*
X138064898Y-55253636D01*
X138083466Y-55218897D01*
X138108452Y-55188452D01*
X138138897Y-55163466D01*
X138173636Y-55144898D01*
X138211323Y-55133465D01*
X138256661Y-55129000D01*
X139093339Y-55129000D01*
X139138677Y-55133465D01*
X139138677Y-55133465D01*
G37*
G36*
X141188677Y-55133465D02*
X141226364Y-55144898D01*
X141261103Y-55163466D01*
X141291548Y-55188452D01*
X141316534Y-55218897D01*
X141335102Y-55253636D01*
X141346535Y-55291323D01*
X141351000Y-55336661D01*
X141351000Y-56423339D01*
X141346535Y-56468677D01*
X141335102Y-56506364D01*
X141316534Y-56541103D01*
X141291548Y-56571548D01*
X141261103Y-56596534D01*
X141226364Y-56615102D01*
X141188677Y-56626535D01*
X141143339Y-56631000D01*
X140306661Y-56631000D01*
X140261323Y-56626535D01*
X140223636Y-56615102D01*
X140188897Y-56596534D01*
X140158452Y-56571548D01*
X140133466Y-56541103D01*
X140114898Y-56506364D01*
X140103465Y-56468677D01*
X140099000Y-56423339D01*
X140099000Y-55336661D01*
X140103465Y-55291323D01*
X140114898Y-55253636D01*
X140133466Y-55218897D01*
X140158452Y-55188452D01*
X140188897Y-55163466D01*
X140223636Y-55144898D01*
X140261323Y-55133465D01*
X140306661Y-55129000D01*
X141143339Y-55129000D01*
X141188677Y-55133465D01*
X141188677Y-55133465D01*
G37*
G36*
X160981000Y-56231000D02*
X159379000Y-56231000D01*
X159379000Y-55529000D01*
X160981000Y-55529000D01*
X160981000Y-56231000D01*
X160981000Y-56231000D01*
G37*
G36*
X123326000Y-56231000D02*
X121274000Y-56231000D01*
X121274000Y-55529000D01*
X123326000Y-55529000D01*
X123326000Y-56231000D01*
X123326000Y-56231000D01*
G37*
G36*
X132726000Y-56231000D02*
X130674000Y-56231000D01*
X130674000Y-55529000D01*
X132726000Y-55529000D01*
X132726000Y-56231000D01*
X132726000Y-56231000D01*
G37*
G36*
X155581000Y-56231000D02*
X153979000Y-56231000D01*
X153979000Y-55529000D01*
X155581000Y-55529000D01*
X155581000Y-56231000D01*
X155581000Y-56231000D01*
G37*
G36*
X101710442Y-53715518D02*
X101776627Y-53722037D01*
X101889853Y-53756384D01*
X101946467Y-53773557D01*
X102031160Y-53818827D01*
X102102991Y-53857222D01*
X102134814Y-53883339D01*
X102240186Y-53969814D01*
X102301996Y-54045131D01*
X102352778Y-54107009D01*
X102352779Y-54107011D01*
X102436443Y-54263533D01*
X102436443Y-54263534D01*
X102487963Y-54433373D01*
X102505359Y-54610000D01*
X102487963Y-54786627D01*
X102453616Y-54899853D01*
X102436443Y-54956467D01*
X102434020Y-54961000D01*
X102352778Y-55112991D01*
X102335975Y-55133465D01*
X102240186Y-55250186D01*
X102138729Y-55333448D01*
X102102991Y-55362778D01*
X102102989Y-55362779D01*
X101946467Y-55446443D01*
X101889853Y-55463616D01*
X101776627Y-55497963D01*
X101710443Y-55504481D01*
X101644260Y-55511000D01*
X101555740Y-55511000D01*
X101489557Y-55504481D01*
X101423373Y-55497963D01*
X101310147Y-55463616D01*
X101253533Y-55446443D01*
X101097011Y-55362779D01*
X101097009Y-55362778D01*
X101061271Y-55333448D01*
X100959814Y-55250186D01*
X100864025Y-55133465D01*
X100847222Y-55112991D01*
X100765980Y-54961000D01*
X100763557Y-54956467D01*
X100746384Y-54899853D01*
X100712037Y-54786627D01*
X100694641Y-54610000D01*
X100712037Y-54433373D01*
X100763557Y-54263534D01*
X100763557Y-54263533D01*
X100847221Y-54107011D01*
X100847222Y-54107009D01*
X100898004Y-54045131D01*
X100959814Y-53969814D01*
X101065186Y-53883339D01*
X101097009Y-53857222D01*
X101168840Y-53818827D01*
X101253533Y-53773557D01*
X101310147Y-53756384D01*
X101423373Y-53722037D01*
X101489558Y-53715518D01*
X101555740Y-53709000D01*
X101644260Y-53709000D01*
X101710442Y-53715518D01*
X101710442Y-53715518D01*
G37*
G36*
X132726000Y-54961000D02*
X130674000Y-54961000D01*
X130674000Y-54259000D01*
X132726000Y-54259000D01*
X132726000Y-54961000D01*
X132726000Y-54961000D01*
G37*
G36*
X160981000Y-54961000D02*
X159379000Y-54961000D01*
X159379000Y-54259000D01*
X160981000Y-54259000D01*
X160981000Y-54961000D01*
X160981000Y-54961000D01*
G37*
G36*
X155581000Y-54961000D02*
X153979000Y-54961000D01*
X153979000Y-54259000D01*
X155581000Y-54259000D01*
X155581000Y-54961000D01*
X155581000Y-54961000D01*
G37*
G36*
X123326000Y-54961000D02*
X121274000Y-54961000D01*
X121274000Y-54259000D01*
X123326000Y-54259000D01*
X123326000Y-54961000D01*
X123326000Y-54961000D01*
G37*
G36*
X110463677Y-52593465D02*
X110501364Y-52604898D01*
X110536103Y-52623466D01*
X110566548Y-52648452D01*
X110591534Y-52678897D01*
X110610102Y-52713636D01*
X110621535Y-52751323D01*
X110626000Y-52796661D01*
X110626000Y-53883339D01*
X110621535Y-53928677D01*
X110610102Y-53966364D01*
X110591534Y-54001103D01*
X110566548Y-54031548D01*
X110536103Y-54056534D01*
X110501364Y-54075102D01*
X110463677Y-54086535D01*
X110418339Y-54091000D01*
X109581661Y-54091000D01*
X109536323Y-54086535D01*
X109498636Y-54075102D01*
X109463897Y-54056534D01*
X109433452Y-54031548D01*
X109408466Y-54001103D01*
X109389898Y-53966364D01*
X109378465Y-53928677D01*
X109374000Y-53883339D01*
X109374000Y-52796661D01*
X109378465Y-52751323D01*
X109389898Y-52713636D01*
X109408466Y-52678897D01*
X109433452Y-52648452D01*
X109463897Y-52623466D01*
X109498636Y-52604898D01*
X109536323Y-52593465D01*
X109581661Y-52589000D01*
X110418339Y-52589000D01*
X110463677Y-52593465D01*
X110463677Y-52593465D01*
G37*
G36*
X108413677Y-52593465D02*
X108451364Y-52604898D01*
X108486103Y-52623466D01*
X108516548Y-52648452D01*
X108541534Y-52678897D01*
X108560102Y-52713636D01*
X108571535Y-52751323D01*
X108576000Y-52796661D01*
X108576000Y-53883339D01*
X108571535Y-53928677D01*
X108560102Y-53966364D01*
X108541534Y-54001103D01*
X108516548Y-54031548D01*
X108486103Y-54056534D01*
X108451364Y-54075102D01*
X108413677Y-54086535D01*
X108368339Y-54091000D01*
X107531661Y-54091000D01*
X107486323Y-54086535D01*
X107448636Y-54075102D01*
X107413897Y-54056534D01*
X107383452Y-54031548D01*
X107358466Y-54001103D01*
X107339898Y-53966364D01*
X107328465Y-53928677D01*
X107324000Y-53883339D01*
X107324000Y-52796661D01*
X107328465Y-52751323D01*
X107339898Y-52713636D01*
X107358466Y-52678897D01*
X107383452Y-52648452D01*
X107413897Y-52623466D01*
X107448636Y-52604898D01*
X107486323Y-52593465D01*
X107531661Y-52589000D01*
X108368339Y-52589000D01*
X108413677Y-52593465D01*
X108413677Y-52593465D01*
G37*
G36*
X160981000Y-53691000D02*
X159379000Y-53691000D01*
X159379000Y-52989000D01*
X160981000Y-52989000D01*
X160981000Y-53691000D01*
X160981000Y-53691000D01*
G37*
G36*
X155581000Y-53691000D02*
X153979000Y-53691000D01*
X153979000Y-52989000D01*
X155581000Y-52989000D01*
X155581000Y-53691000D01*
X155581000Y-53691000D01*
G37*
G36*
X132726000Y-53691000D02*
X130674000Y-53691000D01*
X130674000Y-52989000D01*
X132726000Y-52989000D01*
X132726000Y-53691000D01*
X132726000Y-53691000D01*
G37*
G36*
X123326000Y-53691000D02*
X121274000Y-53691000D01*
X121274000Y-52989000D01*
X123326000Y-52989000D01*
X123326000Y-53691000D01*
X123326000Y-53691000D01*
G37*
G36*
X123326000Y-52421000D02*
X121274000Y-52421000D01*
X121274000Y-51719000D01*
X123326000Y-51719000D01*
X123326000Y-52421000D01*
X123326000Y-52421000D01*
G37*
G36*
X132726000Y-52421000D02*
X130674000Y-52421000D01*
X130674000Y-51719000D01*
X132726000Y-51719000D01*
X132726000Y-52421000D01*
X132726000Y-52421000D01*
G37*
G36*
X108413677Y-50053465D02*
X108451364Y-50064898D01*
X108486103Y-50083466D01*
X108516548Y-50108452D01*
X108541534Y-50138897D01*
X108560102Y-50173636D01*
X108571535Y-50211323D01*
X108576000Y-50256661D01*
X108576000Y-51343339D01*
X108571535Y-51388677D01*
X108560102Y-51426364D01*
X108541534Y-51461103D01*
X108516548Y-51491548D01*
X108486103Y-51516534D01*
X108451364Y-51535102D01*
X108413677Y-51546535D01*
X108368339Y-51551000D01*
X107531661Y-51551000D01*
X107486323Y-51546535D01*
X107448636Y-51535102D01*
X107413897Y-51516534D01*
X107383452Y-51491548D01*
X107358466Y-51461103D01*
X107339898Y-51426364D01*
X107328465Y-51388677D01*
X107324000Y-51343339D01*
X107324000Y-50256661D01*
X107328465Y-50211323D01*
X107339898Y-50173636D01*
X107358466Y-50138897D01*
X107383452Y-50108452D01*
X107413897Y-50083466D01*
X107448636Y-50064898D01*
X107486323Y-50053465D01*
X107531661Y-50049000D01*
X108368339Y-50049000D01*
X108413677Y-50053465D01*
X108413677Y-50053465D01*
G37*
G36*
X110463677Y-50053465D02*
X110501364Y-50064898D01*
X110536103Y-50083466D01*
X110566548Y-50108452D01*
X110591534Y-50138897D01*
X110610102Y-50173636D01*
X110621535Y-50211323D01*
X110626000Y-50256661D01*
X110626000Y-51343339D01*
X110621535Y-51388677D01*
X110610102Y-51426364D01*
X110591534Y-51461103D01*
X110566548Y-51491548D01*
X110536103Y-51516534D01*
X110501364Y-51535102D01*
X110463677Y-51546535D01*
X110418339Y-51551000D01*
X109581661Y-51551000D01*
X109536323Y-51546535D01*
X109498636Y-51535102D01*
X109463897Y-51516534D01*
X109433452Y-51491548D01*
X109408466Y-51461103D01*
X109389898Y-51426364D01*
X109378465Y-51388677D01*
X109374000Y-51343339D01*
X109374000Y-50256661D01*
X109378465Y-50211323D01*
X109389898Y-50173636D01*
X109408466Y-50138897D01*
X109433452Y-50108452D01*
X109463897Y-50083466D01*
X109498636Y-50064898D01*
X109536323Y-50053465D01*
X109581661Y-50049000D01*
X110418339Y-50049000D01*
X110463677Y-50053465D01*
X110463677Y-50053465D01*
G37*
G36*
X123326000Y-51151000D02*
X121274000Y-51151000D01*
X121274000Y-50449000D01*
X123326000Y-50449000D01*
X123326000Y-51151000D01*
X123326000Y-51151000D01*
G37*
G36*
X132726000Y-51151000D02*
X130674000Y-51151000D01*
X130674000Y-50449000D01*
X132726000Y-50449000D01*
X132726000Y-51151000D01*
X132726000Y-51151000D01*
G37*
G36*
X137478677Y-49418465D02*
X137516364Y-49429898D01*
X137551103Y-49448466D01*
X137581548Y-49473452D01*
X137606534Y-49503897D01*
X137625102Y-49538636D01*
X137636535Y-49576323D01*
X137641000Y-49621661D01*
X137641000Y-50708339D01*
X137636535Y-50753677D01*
X137625102Y-50791364D01*
X137606534Y-50826103D01*
X137581548Y-50856548D01*
X137551103Y-50881534D01*
X137516364Y-50900102D01*
X137478677Y-50911535D01*
X137433339Y-50916000D01*
X136596661Y-50916000D01*
X136551323Y-50911535D01*
X136513636Y-50900102D01*
X136478897Y-50881534D01*
X136448452Y-50856548D01*
X136423466Y-50826103D01*
X136404898Y-50791364D01*
X136393465Y-50753677D01*
X136389000Y-50708339D01*
X136389000Y-49621661D01*
X136393465Y-49576323D01*
X136404898Y-49538636D01*
X136423466Y-49503897D01*
X136448452Y-49473452D01*
X136478897Y-49448466D01*
X136513636Y-49429898D01*
X136551323Y-49418465D01*
X136596661Y-49414000D01*
X137433339Y-49414000D01*
X137478677Y-49418465D01*
X137478677Y-49418465D01*
G37*
G36*
X139528677Y-49418465D02*
X139566364Y-49429898D01*
X139601103Y-49448466D01*
X139631548Y-49473452D01*
X139656534Y-49503897D01*
X139675102Y-49538636D01*
X139686535Y-49576323D01*
X139691000Y-49621661D01*
X139691000Y-50708339D01*
X139686535Y-50753677D01*
X139675102Y-50791364D01*
X139656534Y-50826103D01*
X139631548Y-50856548D01*
X139601103Y-50881534D01*
X139566364Y-50900102D01*
X139528677Y-50911535D01*
X139483339Y-50916000D01*
X138646661Y-50916000D01*
X138601323Y-50911535D01*
X138563636Y-50900102D01*
X138528897Y-50881534D01*
X138498452Y-50856548D01*
X138473466Y-50826103D01*
X138454898Y-50791364D01*
X138443465Y-50753677D01*
X138439000Y-50708339D01*
X138439000Y-49621661D01*
X138443465Y-49576323D01*
X138454898Y-49538636D01*
X138473466Y-49503897D01*
X138498452Y-49473452D01*
X138528897Y-49448466D01*
X138563636Y-49429898D01*
X138601323Y-49418465D01*
X138646661Y-49414000D01*
X139483339Y-49414000D01*
X139528677Y-49418465D01*
X139528677Y-49418465D01*
G37*
G36*
X141471000Y-50816000D02*
X140469000Y-50816000D01*
X140469000Y-49514000D01*
X141471000Y-49514000D01*
X141471000Y-50816000D01*
X141471000Y-50816000D01*
G37*
G36*
X144771000Y-50816000D02*
X143769000Y-50816000D01*
X143769000Y-49514000D01*
X144771000Y-49514000D01*
X144771000Y-50816000D01*
X144771000Y-50816000D01*
G37*
G36*
X147273677Y-49543465D02*
X147311364Y-49554898D01*
X147346103Y-49573466D01*
X147376548Y-49598452D01*
X147401534Y-49628897D01*
X147420102Y-49663636D01*
X147431535Y-49701323D01*
X147436000Y-49746661D01*
X147436000Y-50583339D01*
X147431535Y-50628677D01*
X147420102Y-50666364D01*
X147401534Y-50701103D01*
X147376548Y-50731548D01*
X147346103Y-50756534D01*
X147311364Y-50775102D01*
X147273677Y-50786535D01*
X147228339Y-50791000D01*
X146141661Y-50791000D01*
X146096323Y-50786535D01*
X146058636Y-50775102D01*
X146023897Y-50756534D01*
X145993452Y-50731548D01*
X145968466Y-50701103D01*
X145949898Y-50666364D01*
X145938465Y-50628677D01*
X145934000Y-50583339D01*
X145934000Y-49746661D01*
X145938465Y-49701323D01*
X145949898Y-49663636D01*
X145968466Y-49628897D01*
X145993452Y-49598452D01*
X146023897Y-49573466D01*
X146058636Y-49554898D01*
X146096323Y-49543465D01*
X146141661Y-49539000D01*
X147228339Y-49539000D01*
X147273677Y-49543465D01*
X147273677Y-49543465D01*
G37*
G36*
X123326000Y-49881000D02*
X121274000Y-49881000D01*
X121274000Y-49179000D01*
X123326000Y-49179000D01*
X123326000Y-49881000D01*
X123326000Y-49881000D01*
G37*
G36*
X132726000Y-49881000D02*
X130674000Y-49881000D01*
X130674000Y-49179000D01*
X132726000Y-49179000D01*
X132726000Y-49881000D01*
X132726000Y-49881000D01*
G37*
G36*
X107691000Y-48911000D02*
X106689000Y-48911000D01*
X106689000Y-47609000D01*
X107691000Y-47609000D01*
X107691000Y-48911000D01*
X107691000Y-48911000D01*
G37*
G36*
X110991000Y-48911000D02*
X109989000Y-48911000D01*
X109989000Y-47609000D01*
X110991000Y-47609000D01*
X110991000Y-48911000D01*
X110991000Y-48911000D01*
G37*
G36*
X147273677Y-47493465D02*
X147311364Y-47504898D01*
X147346103Y-47523466D01*
X147376548Y-47548452D01*
X147401534Y-47578897D01*
X147420102Y-47613636D01*
X147431535Y-47651323D01*
X147436000Y-47696661D01*
X147436000Y-48533339D01*
X147431535Y-48578677D01*
X147420102Y-48616364D01*
X147401534Y-48651103D01*
X147376548Y-48681548D01*
X147346103Y-48706534D01*
X147311364Y-48725102D01*
X147273677Y-48736535D01*
X147228339Y-48741000D01*
X146141661Y-48741000D01*
X146096323Y-48736535D01*
X146058636Y-48725102D01*
X146023897Y-48706534D01*
X145993452Y-48681548D01*
X145968466Y-48651103D01*
X145949898Y-48616364D01*
X145938465Y-48578677D01*
X145934000Y-48533339D01*
X145934000Y-47696661D01*
X145938465Y-47651323D01*
X145949898Y-47613636D01*
X145968466Y-47578897D01*
X145993452Y-47548452D01*
X146023897Y-47523466D01*
X146058636Y-47504898D01*
X146096323Y-47493465D01*
X146141661Y-47489000D01*
X147228339Y-47489000D01*
X147273677Y-47493465D01*
X147273677Y-47493465D01*
G37*
G36*
X137478677Y-46878465D02*
X137516364Y-46889898D01*
X137551103Y-46908466D01*
X137581548Y-46933452D01*
X137606534Y-46963897D01*
X137625102Y-46998636D01*
X137636535Y-47036323D01*
X137641000Y-47081661D01*
X137641000Y-48168339D01*
X137636535Y-48213677D01*
X137625102Y-48251364D01*
X137606534Y-48286103D01*
X137581548Y-48316548D01*
X137551103Y-48341534D01*
X137516364Y-48360102D01*
X137478677Y-48371535D01*
X137433339Y-48376000D01*
X136596661Y-48376000D01*
X136551323Y-48371535D01*
X136513636Y-48360102D01*
X136478897Y-48341534D01*
X136448452Y-48316548D01*
X136423466Y-48286103D01*
X136404898Y-48251364D01*
X136393465Y-48213677D01*
X136389000Y-48168339D01*
X136389000Y-47081661D01*
X136393465Y-47036323D01*
X136404898Y-46998636D01*
X136423466Y-46963897D01*
X136448452Y-46933452D01*
X136478897Y-46908466D01*
X136513636Y-46889898D01*
X136551323Y-46878465D01*
X136596661Y-46874000D01*
X137433339Y-46874000D01*
X137478677Y-46878465D01*
X137478677Y-46878465D01*
G37*
G36*
X139528677Y-46878465D02*
X139566364Y-46889898D01*
X139601103Y-46908466D01*
X139631548Y-46933452D01*
X139656534Y-46963897D01*
X139675102Y-46998636D01*
X139686535Y-47036323D01*
X139691000Y-47081661D01*
X139691000Y-48168339D01*
X139686535Y-48213677D01*
X139675102Y-48251364D01*
X139656534Y-48286103D01*
X139631548Y-48316548D01*
X139601103Y-48341534D01*
X139566364Y-48360102D01*
X139528677Y-48371535D01*
X139483339Y-48376000D01*
X138646661Y-48376000D01*
X138601323Y-48371535D01*
X138563636Y-48360102D01*
X138528897Y-48341534D01*
X138498452Y-48316548D01*
X138473466Y-48286103D01*
X138454898Y-48251364D01*
X138443465Y-48213677D01*
X138439000Y-48168339D01*
X138439000Y-47081661D01*
X138443465Y-47036323D01*
X138454898Y-46998636D01*
X138473466Y-46963897D01*
X138498452Y-46933452D01*
X138528897Y-46908466D01*
X138563636Y-46889898D01*
X138601323Y-46878465D01*
X138646661Y-46874000D01*
X139483339Y-46874000D01*
X139528677Y-46878465D01*
X139528677Y-46878465D01*
G37*
G36*
X141678677Y-46878465D02*
X141716364Y-46889898D01*
X141751103Y-46908466D01*
X141781548Y-46933452D01*
X141806534Y-46963897D01*
X141825102Y-46998636D01*
X141836535Y-47036323D01*
X141841000Y-47081661D01*
X141841000Y-48168339D01*
X141836535Y-48213677D01*
X141825102Y-48251364D01*
X141806534Y-48286103D01*
X141781548Y-48316548D01*
X141751103Y-48341534D01*
X141716364Y-48360102D01*
X141678677Y-48371535D01*
X141633339Y-48376000D01*
X140796661Y-48376000D01*
X140751323Y-48371535D01*
X140713636Y-48360102D01*
X140678897Y-48341534D01*
X140648452Y-48316548D01*
X140623466Y-48286103D01*
X140604898Y-48251364D01*
X140593465Y-48213677D01*
X140589000Y-48168339D01*
X140589000Y-47081661D01*
X140593465Y-47036323D01*
X140604898Y-46998636D01*
X140623466Y-46963897D01*
X140648452Y-46933452D01*
X140678897Y-46908466D01*
X140713636Y-46889898D01*
X140751323Y-46878465D01*
X140796661Y-46874000D01*
X141633339Y-46874000D01*
X141678677Y-46878465D01*
X141678677Y-46878465D01*
G37*
G36*
X143728677Y-46878465D02*
X143766364Y-46889898D01*
X143801103Y-46908466D01*
X143831548Y-46933452D01*
X143856534Y-46963897D01*
X143875102Y-46998636D01*
X143886535Y-47036323D01*
X143891000Y-47081661D01*
X143891000Y-48168339D01*
X143886535Y-48213677D01*
X143875102Y-48251364D01*
X143856534Y-48286103D01*
X143831548Y-48316548D01*
X143801103Y-48341534D01*
X143766364Y-48360102D01*
X143728677Y-48371535D01*
X143683339Y-48376000D01*
X142846661Y-48376000D01*
X142801323Y-48371535D01*
X142763636Y-48360102D01*
X142728897Y-48341534D01*
X142698452Y-48316548D01*
X142673466Y-48286103D01*
X142654898Y-48251364D01*
X142643465Y-48213677D01*
X142639000Y-48168339D01*
X142639000Y-47081661D01*
X142643465Y-47036323D01*
X142654898Y-46998636D01*
X142673466Y-46963897D01*
X142698452Y-46933452D01*
X142728897Y-46908466D01*
X142763636Y-46889898D01*
X142801323Y-46878465D01*
X142846661Y-46874000D01*
X143683339Y-46874000D01*
X143728677Y-46878465D01*
X143728677Y-46878465D01*
G37*
G36*
X184242004Y-46250544D02*
X184329059Y-46267860D01*
X184465732Y-46324472D01*
X184465733Y-46324473D01*
X184588738Y-46406662D01*
X184693338Y-46511262D01*
X184693340Y-46511265D01*
X184775528Y-46634268D01*
X184832140Y-46770941D01*
X184849456Y-46857996D01*
X184856761Y-46894718D01*
X184861000Y-46916033D01*
X184861000Y-47063967D01*
X184832140Y-47209059D01*
X184775528Y-47345732D01*
X184775527Y-47345733D01*
X184693338Y-47468738D01*
X184588738Y-47573338D01*
X184588735Y-47573340D01*
X184465732Y-47655528D01*
X184329059Y-47712140D01*
X184242004Y-47729456D01*
X184183969Y-47741000D01*
X184036031Y-47741000D01*
X183977996Y-47729456D01*
X183890941Y-47712140D01*
X183754268Y-47655528D01*
X183631265Y-47573340D01*
X183631262Y-47573338D01*
X183526662Y-47468738D01*
X183444473Y-47345733D01*
X183444472Y-47345732D01*
X183387860Y-47209059D01*
X183359000Y-47063967D01*
X183359000Y-46916033D01*
X183363240Y-46894718D01*
X183370544Y-46857996D01*
X183387860Y-46770941D01*
X183444472Y-46634268D01*
X183526660Y-46511265D01*
X183526662Y-46511262D01*
X183631262Y-46406662D01*
X183754267Y-46324473D01*
X183754268Y-46324472D01*
X183890941Y-46267860D01*
X183977996Y-46250544D01*
X184036031Y-46239000D01*
X184183969Y-46239000D01*
X184242004Y-46250544D01*
X184242004Y-46250544D01*
G37*
G36*
X181742004Y-46250544D02*
X181829059Y-46267860D01*
X181965732Y-46324472D01*
X181965733Y-46324473D01*
X182088738Y-46406662D01*
X182193338Y-46511262D01*
X182193340Y-46511265D01*
X182275528Y-46634268D01*
X182332140Y-46770941D01*
X182349456Y-46857996D01*
X182356761Y-46894718D01*
X182361000Y-46916033D01*
X182361000Y-47063967D01*
X182332140Y-47209059D01*
X182275528Y-47345732D01*
X182275527Y-47345733D01*
X182193338Y-47468738D01*
X182088738Y-47573338D01*
X182088735Y-47573340D01*
X181965732Y-47655528D01*
X181829059Y-47712140D01*
X181742004Y-47729456D01*
X181683969Y-47741000D01*
X181536031Y-47741000D01*
X181477996Y-47729456D01*
X181390941Y-47712140D01*
X181254268Y-47655528D01*
X181131265Y-47573340D01*
X181131262Y-47573338D01*
X181026662Y-47468738D01*
X180944473Y-47345733D01*
X180944472Y-47345732D01*
X180887860Y-47209059D01*
X180859000Y-47063967D01*
X180859000Y-46916033D01*
X180863240Y-46894718D01*
X180870544Y-46857996D01*
X180887860Y-46770941D01*
X180944472Y-46634268D01*
X181026660Y-46511265D01*
X181026662Y-46511262D01*
X181131262Y-46406662D01*
X181254267Y-46324473D01*
X181254268Y-46324472D01*
X181390941Y-46267860D01*
X181477996Y-46250544D01*
X181536031Y-46239000D01*
X181683969Y-46239000D01*
X181742004Y-46250544D01*
X181742004Y-46250544D01*
G37*
G36*
X102501000Y-46621000D02*
X100699000Y-46621000D01*
X100699000Y-44819000D01*
X102501000Y-44819000D01*
X102501000Y-46621000D01*
X102501000Y-46621000D01*
G37*
G36*
X178393000Y-44847000D02*
X176191000Y-44847000D01*
X176191000Y-43545000D01*
X178393000Y-43545000D01*
X178393000Y-44847000D01*
X178393000Y-44847000D01*
G37*
G36*
X164597004Y-43075544D02*
X164684059Y-43092860D01*
X164820732Y-43149472D01*
X164820733Y-43149473D01*
X164943738Y-43231662D01*
X165048338Y-43336262D01*
X165048340Y-43336265D01*
X165130528Y-43459268D01*
X165187140Y-43595941D01*
X165204455Y-43682989D01*
X165216000Y-43741031D01*
X165216000Y-43888969D01*
X165204456Y-43947004D01*
X165187140Y-44034059D01*
X165130528Y-44170732D01*
X165130527Y-44170733D01*
X165048338Y-44293738D01*
X164943738Y-44398338D01*
X164943735Y-44398340D01*
X164820732Y-44480528D01*
X164684059Y-44537140D01*
X164597004Y-44554456D01*
X164538969Y-44566000D01*
X164391031Y-44566000D01*
X164332996Y-44554456D01*
X164245941Y-44537140D01*
X164109268Y-44480528D01*
X163986265Y-44398340D01*
X163986262Y-44398338D01*
X163881662Y-44293738D01*
X163799473Y-44170733D01*
X163799472Y-44170732D01*
X163742860Y-44034059D01*
X163725544Y-43947004D01*
X163714000Y-43888969D01*
X163714000Y-43741031D01*
X163725545Y-43682989D01*
X163742860Y-43595941D01*
X163799472Y-43459268D01*
X163881660Y-43336265D01*
X163881662Y-43336262D01*
X163986262Y-43231662D01*
X164109267Y-43149473D01*
X164109268Y-43149472D01*
X164245941Y-43092860D01*
X164332996Y-43075544D01*
X164391031Y-43064000D01*
X164538969Y-43064000D01*
X164597004Y-43075544D01*
X164597004Y-43075544D01*
G37*
G36*
X167097004Y-43075544D02*
X167184059Y-43092860D01*
X167320732Y-43149472D01*
X167320733Y-43149473D01*
X167443738Y-43231662D01*
X167548338Y-43336262D01*
X167548340Y-43336265D01*
X167630528Y-43459268D01*
X167687140Y-43595941D01*
X167704455Y-43682989D01*
X167716000Y-43741031D01*
X167716000Y-43888969D01*
X167704456Y-43947004D01*
X167687140Y-44034059D01*
X167630528Y-44170732D01*
X167630527Y-44170733D01*
X167548338Y-44293738D01*
X167443738Y-44398338D01*
X167443735Y-44398340D01*
X167320732Y-44480528D01*
X167184059Y-44537140D01*
X167097004Y-44554456D01*
X167038969Y-44566000D01*
X166891031Y-44566000D01*
X166832996Y-44554456D01*
X166745941Y-44537140D01*
X166609268Y-44480528D01*
X166486265Y-44398340D01*
X166486262Y-44398338D01*
X166381662Y-44293738D01*
X166299473Y-44170733D01*
X166299472Y-44170732D01*
X166242860Y-44034059D01*
X166225544Y-43947004D01*
X166214000Y-43888969D01*
X166214000Y-43741031D01*
X166225545Y-43682989D01*
X166242860Y-43595941D01*
X166299472Y-43459268D01*
X166381660Y-43336265D01*
X166381662Y-43336262D01*
X166486262Y-43231662D01*
X166609267Y-43149473D01*
X166609268Y-43149472D01*
X166745941Y-43092860D01*
X166832996Y-43075544D01*
X166891031Y-43064000D01*
X167038969Y-43064000D01*
X167097004Y-43075544D01*
X167097004Y-43075544D01*
G37*
G36*
X189496000Y-44081000D02*
X187694000Y-44081000D01*
X187694000Y-42279000D01*
X189496000Y-42279000D01*
X189496000Y-44081000D01*
X189496000Y-44081000D01*
G37*
G36*
X101710442Y-42285518D02*
X101776627Y-42292037D01*
X101889853Y-42326384D01*
X101946467Y-42343557D01*
X102085087Y-42417652D01*
X102102991Y-42427222D01*
X102111530Y-42434230D01*
X102240186Y-42539814D01*
X102319665Y-42636661D01*
X102352778Y-42677009D01*
X102352779Y-42677011D01*
X102436443Y-42833533D01*
X102436443Y-42833534D01*
X102487963Y-43003373D01*
X102505359Y-43180000D01*
X102487963Y-43356627D01*
X102456827Y-43459268D01*
X102436443Y-43526467D01*
X102399308Y-43595941D01*
X102352778Y-43682991D01*
X102329032Y-43711925D01*
X102240186Y-43820186D01*
X102156372Y-43888969D01*
X102102991Y-43932778D01*
X102102989Y-43932779D01*
X101946467Y-44016443D01*
X101889853Y-44033616D01*
X101776627Y-44067963D01*
X101710443Y-44074481D01*
X101644260Y-44081000D01*
X101555740Y-44081000D01*
X101489557Y-44074481D01*
X101423373Y-44067963D01*
X101310147Y-44033616D01*
X101253533Y-44016443D01*
X101097011Y-43932779D01*
X101097009Y-43932778D01*
X101043628Y-43888969D01*
X100959814Y-43820186D01*
X100870968Y-43711925D01*
X100847222Y-43682991D01*
X100800692Y-43595941D01*
X100763557Y-43526467D01*
X100743173Y-43459268D01*
X100712037Y-43356627D01*
X100694641Y-43180000D01*
X100712037Y-43003373D01*
X100763557Y-42833534D01*
X100763557Y-42833533D01*
X100847221Y-42677011D01*
X100847222Y-42677009D01*
X100880335Y-42636661D01*
X100959814Y-42539814D01*
X101088470Y-42434230D01*
X101097009Y-42427222D01*
X101114913Y-42417652D01*
X101253533Y-42343557D01*
X101310147Y-42326384D01*
X101423373Y-42292037D01*
X101489558Y-42285518D01*
X101555740Y-42279000D01*
X101644260Y-42279000D01*
X101710442Y-42285518D01*
X101710442Y-42285518D01*
G37*
G36*
X172091000Y-43961000D02*
X169489000Y-43961000D01*
X169489000Y-39859000D01*
X172091000Y-39859000D01*
X172091000Y-43961000D01*
X172091000Y-43961000D01*
G37*
G36*
X110953677Y-42433465D02*
X110991364Y-42444898D01*
X111026103Y-42463466D01*
X111056548Y-42488452D01*
X111081534Y-42518897D01*
X111100102Y-42553636D01*
X111111535Y-42591323D01*
X111116000Y-42636661D01*
X111116000Y-43723339D01*
X111111535Y-43768677D01*
X111100102Y-43806364D01*
X111081534Y-43841103D01*
X111056548Y-43871548D01*
X111026103Y-43896534D01*
X110991364Y-43915102D01*
X110953677Y-43926535D01*
X110908339Y-43931000D01*
X110071661Y-43931000D01*
X110026323Y-43926535D01*
X109988636Y-43915102D01*
X109953897Y-43896534D01*
X109923452Y-43871548D01*
X109898466Y-43841103D01*
X109879898Y-43806364D01*
X109868465Y-43768677D01*
X109864000Y-43723339D01*
X109864000Y-42636661D01*
X109868465Y-42591323D01*
X109879898Y-42553636D01*
X109898466Y-42518897D01*
X109923452Y-42488452D01*
X109953897Y-42463466D01*
X109988636Y-42444898D01*
X110026323Y-42433465D01*
X110071661Y-42429000D01*
X110908339Y-42429000D01*
X110953677Y-42433465D01*
X110953677Y-42433465D01*
G37*
G36*
X108903677Y-42433465D02*
X108941364Y-42444898D01*
X108976103Y-42463466D01*
X109006548Y-42488452D01*
X109031534Y-42518897D01*
X109050102Y-42553636D01*
X109061535Y-42591323D01*
X109066000Y-42636661D01*
X109066000Y-43723339D01*
X109061535Y-43768677D01*
X109050102Y-43806364D01*
X109031534Y-43841103D01*
X109006548Y-43871548D01*
X108976103Y-43896534D01*
X108941364Y-43915102D01*
X108903677Y-43926535D01*
X108858339Y-43931000D01*
X108021661Y-43931000D01*
X107976323Y-43926535D01*
X107938636Y-43915102D01*
X107903897Y-43896534D01*
X107873452Y-43871548D01*
X107848466Y-43841103D01*
X107829898Y-43806364D01*
X107818465Y-43768677D01*
X107814000Y-43723339D01*
X107814000Y-42636661D01*
X107818465Y-42591323D01*
X107829898Y-42553636D01*
X107848466Y-42518897D01*
X107873452Y-42488452D01*
X107903897Y-42463466D01*
X107938636Y-42444898D01*
X107976323Y-42433465D01*
X108021661Y-42429000D01*
X108858339Y-42429000D01*
X108903677Y-42433465D01*
X108903677Y-42433465D01*
G37*
G36*
X178393000Y-42561000D02*
X176191000Y-42561000D01*
X176191000Y-41259000D01*
X178393000Y-41259000D01*
X178393000Y-42561000D01*
X178393000Y-42561000D01*
G37*
G36*
X101710442Y-39745518D02*
X101776627Y-39752037D01*
X101889853Y-39786384D01*
X101946467Y-39803557D01*
X102050192Y-39859000D01*
X102102991Y-39887222D01*
X102111530Y-39894230D01*
X102240186Y-39999814D01*
X102319665Y-40096661D01*
X102352778Y-40137009D01*
X102352779Y-40137011D01*
X102436443Y-40293533D01*
X102436443Y-40293534D01*
X102487963Y-40463373D01*
X102505359Y-40640000D01*
X102487963Y-40816627D01*
X102453616Y-40929853D01*
X102436443Y-40986467D01*
X102365694Y-41118827D01*
X102352778Y-41142991D01*
X102329032Y-41171925D01*
X102240186Y-41280186D01*
X102161049Y-41345131D01*
X102102991Y-41392778D01*
X102102989Y-41392779D01*
X101946467Y-41476443D01*
X101889853Y-41493616D01*
X101776627Y-41527963D01*
X101710442Y-41534482D01*
X101644260Y-41541000D01*
X101555740Y-41541000D01*
X101489558Y-41534482D01*
X101423373Y-41527963D01*
X101310147Y-41493616D01*
X101253533Y-41476443D01*
X101097011Y-41392779D01*
X101097009Y-41392778D01*
X101038951Y-41345131D01*
X100959814Y-41280186D01*
X100870968Y-41171925D01*
X100847222Y-41142991D01*
X100834306Y-41118827D01*
X100763557Y-40986467D01*
X100746384Y-40929853D01*
X100712037Y-40816627D01*
X100694641Y-40640000D01*
X100712037Y-40463373D01*
X100763557Y-40293534D01*
X100763557Y-40293533D01*
X100847221Y-40137011D01*
X100847222Y-40137009D01*
X100880335Y-40096661D01*
X100959814Y-39999814D01*
X101088470Y-39894230D01*
X101097009Y-39887222D01*
X101149808Y-39859000D01*
X101253533Y-39803557D01*
X101310147Y-39786384D01*
X101423373Y-39752037D01*
X101489558Y-39745518D01*
X101555740Y-39739000D01*
X101644260Y-39739000D01*
X101710442Y-39745518D01*
X101710442Y-39745518D01*
G37*
G36*
X188705442Y-39745518D02*
X188771627Y-39752037D01*
X188884853Y-39786384D01*
X188941467Y-39803557D01*
X189045192Y-39859000D01*
X189097991Y-39887222D01*
X189106530Y-39894230D01*
X189235186Y-39999814D01*
X189314665Y-40096661D01*
X189347778Y-40137009D01*
X189347779Y-40137011D01*
X189431443Y-40293533D01*
X189431443Y-40293534D01*
X189482963Y-40463373D01*
X189500359Y-40640000D01*
X189482963Y-40816627D01*
X189448616Y-40929853D01*
X189431443Y-40986467D01*
X189360694Y-41118827D01*
X189347778Y-41142991D01*
X189324032Y-41171925D01*
X189235186Y-41280186D01*
X189156049Y-41345131D01*
X189097991Y-41392778D01*
X189097989Y-41392779D01*
X188941467Y-41476443D01*
X188884853Y-41493616D01*
X188771627Y-41527963D01*
X188705442Y-41534482D01*
X188639260Y-41541000D01*
X188550740Y-41541000D01*
X188484558Y-41534482D01*
X188418373Y-41527963D01*
X188305147Y-41493616D01*
X188248533Y-41476443D01*
X188092011Y-41392779D01*
X188092009Y-41392778D01*
X188033951Y-41345131D01*
X187954814Y-41280186D01*
X187865968Y-41171925D01*
X187842222Y-41142991D01*
X187829306Y-41118827D01*
X187758557Y-40986467D01*
X187741384Y-40929853D01*
X187707037Y-40816627D01*
X187689641Y-40640000D01*
X187707037Y-40463373D01*
X187758557Y-40293534D01*
X187758557Y-40293533D01*
X187842221Y-40137011D01*
X187842222Y-40137009D01*
X187875335Y-40096661D01*
X187954814Y-39999814D01*
X188083470Y-39894230D01*
X188092009Y-39887222D01*
X188144808Y-39859000D01*
X188248533Y-39803557D01*
X188305147Y-39786384D01*
X188418373Y-39752037D01*
X188484558Y-39745518D01*
X188550740Y-39739000D01*
X188639260Y-39739000D01*
X188705442Y-39745518D01*
X188705442Y-39745518D01*
G37*
G36*
X110953677Y-39893465D02*
X110991364Y-39904898D01*
X111026103Y-39923466D01*
X111056548Y-39948452D01*
X111081534Y-39978897D01*
X111100102Y-40013636D01*
X111111535Y-40051323D01*
X111116000Y-40096661D01*
X111116000Y-41183339D01*
X111111535Y-41228677D01*
X111100102Y-41266364D01*
X111081534Y-41301103D01*
X111056548Y-41331548D01*
X111026103Y-41356534D01*
X110991364Y-41375102D01*
X110953677Y-41386535D01*
X110908339Y-41391000D01*
X110071661Y-41391000D01*
X110026323Y-41386535D01*
X109988636Y-41375102D01*
X109953897Y-41356534D01*
X109923452Y-41331548D01*
X109898466Y-41301103D01*
X109879898Y-41266364D01*
X109868465Y-41228677D01*
X109864000Y-41183339D01*
X109864000Y-40096661D01*
X109868465Y-40051323D01*
X109879898Y-40013636D01*
X109898466Y-39978897D01*
X109923452Y-39948452D01*
X109953897Y-39923466D01*
X109988636Y-39904898D01*
X110026323Y-39893465D01*
X110071661Y-39889000D01*
X110908339Y-39889000D01*
X110953677Y-39893465D01*
X110953677Y-39893465D01*
G37*
G36*
X108903677Y-39893465D02*
X108941364Y-39904898D01*
X108976103Y-39923466D01*
X109006548Y-39948452D01*
X109031534Y-39978897D01*
X109050102Y-40013636D01*
X109061535Y-40051323D01*
X109066000Y-40096661D01*
X109066000Y-41183339D01*
X109061535Y-41228677D01*
X109050102Y-41266364D01*
X109031534Y-41301103D01*
X109006548Y-41331548D01*
X108976103Y-41356534D01*
X108941364Y-41375102D01*
X108903677Y-41386535D01*
X108858339Y-41391000D01*
X108021661Y-41391000D01*
X107976323Y-41386535D01*
X107938636Y-41375102D01*
X107903897Y-41356534D01*
X107873452Y-41331548D01*
X107848466Y-41301103D01*
X107829898Y-41266364D01*
X107818465Y-41228677D01*
X107814000Y-41183339D01*
X107814000Y-40096661D01*
X107818465Y-40051323D01*
X107829898Y-40013636D01*
X107848466Y-39978897D01*
X107873452Y-39948452D01*
X107903897Y-39923466D01*
X107938636Y-39904898D01*
X107976323Y-39893465D01*
X108021661Y-39889000D01*
X108858339Y-39889000D01*
X108903677Y-39893465D01*
X108903677Y-39893465D01*
G37*
G36*
X178393000Y-40275000D02*
X176191000Y-40275000D01*
X176191000Y-38973000D01*
X178393000Y-38973000D01*
X178393000Y-40275000D01*
X178393000Y-40275000D01*
G37*
G36*
X101710442Y-37205518D02*
X101776627Y-37212037D01*
X101889853Y-37246384D01*
X101946467Y-37263557D01*
X102085087Y-37337652D01*
X102102991Y-37347222D01*
X102138729Y-37376552D01*
X102240186Y-37459814D01*
X102323448Y-37561271D01*
X102352778Y-37597009D01*
X102352779Y-37597011D01*
X102436443Y-37753533D01*
X102436443Y-37753534D01*
X102487963Y-37923373D01*
X102505359Y-38100000D01*
X102487963Y-38276627D01*
X102453616Y-38389853D01*
X102436443Y-38446467D01*
X102362348Y-38585087D01*
X102352778Y-38602991D01*
X102323448Y-38638729D01*
X102240186Y-38740186D01*
X102138729Y-38823448D01*
X102102991Y-38852778D01*
X102102989Y-38852779D01*
X101946467Y-38936443D01*
X101889853Y-38953616D01*
X101776627Y-38987963D01*
X101710443Y-38994481D01*
X101644260Y-39001000D01*
X101555740Y-39001000D01*
X101489557Y-38994481D01*
X101423373Y-38987963D01*
X101310147Y-38953616D01*
X101253533Y-38936443D01*
X101097011Y-38852779D01*
X101097009Y-38852778D01*
X101061271Y-38823448D01*
X100959814Y-38740186D01*
X100876552Y-38638729D01*
X100847222Y-38602991D01*
X100837652Y-38585087D01*
X100763557Y-38446467D01*
X100746384Y-38389853D01*
X100712037Y-38276627D01*
X100694641Y-38100000D01*
X100712037Y-37923373D01*
X100763557Y-37753534D01*
X100763557Y-37753533D01*
X100847221Y-37597011D01*
X100847222Y-37597009D01*
X100876552Y-37561271D01*
X100959814Y-37459814D01*
X101061271Y-37376552D01*
X101097009Y-37347222D01*
X101114913Y-37337652D01*
X101253533Y-37263557D01*
X101310147Y-37246384D01*
X101423373Y-37212037D01*
X101489558Y-37205518D01*
X101555740Y-37199000D01*
X101644260Y-37199000D01*
X101710442Y-37205518D01*
X101710442Y-37205518D01*
G37*
G36*
X155841000Y-39001000D02*
X154039000Y-39001000D01*
X154039000Y-37199000D01*
X155841000Y-37199000D01*
X155841000Y-39001000D01*
X155841000Y-39001000D01*
G37*
G36*
X157590442Y-37205518D02*
X157656627Y-37212037D01*
X157769853Y-37246384D01*
X157826467Y-37263557D01*
X157965087Y-37337652D01*
X157982991Y-37347222D01*
X158018729Y-37376552D01*
X158120186Y-37459814D01*
X158203448Y-37561271D01*
X158232778Y-37597009D01*
X158232779Y-37597011D01*
X158316443Y-37753533D01*
X158316443Y-37753534D01*
X158367963Y-37923373D01*
X158385359Y-38100000D01*
X158367963Y-38276627D01*
X158333616Y-38389853D01*
X158316443Y-38446467D01*
X158242348Y-38585087D01*
X158232778Y-38602991D01*
X158203448Y-38638729D01*
X158120186Y-38740186D01*
X158018729Y-38823448D01*
X157982991Y-38852778D01*
X157982989Y-38852779D01*
X157826467Y-38936443D01*
X157769853Y-38953616D01*
X157656627Y-38987963D01*
X157590442Y-38994482D01*
X157524260Y-39001000D01*
X157435740Y-39001000D01*
X157369557Y-38994481D01*
X157303373Y-38987963D01*
X157190147Y-38953616D01*
X157133533Y-38936443D01*
X156977011Y-38852779D01*
X156977009Y-38852778D01*
X156941271Y-38823448D01*
X156839814Y-38740186D01*
X156756552Y-38638729D01*
X156727222Y-38602991D01*
X156717652Y-38585087D01*
X156643557Y-38446467D01*
X156626384Y-38389853D01*
X156592037Y-38276627D01*
X156574641Y-38100000D01*
X156592037Y-37923373D01*
X156643557Y-37753534D01*
X156643557Y-37753533D01*
X156727221Y-37597011D01*
X156727222Y-37597009D01*
X156756552Y-37561271D01*
X156839814Y-37459814D01*
X156941271Y-37376552D01*
X156977009Y-37347222D01*
X156994913Y-37337652D01*
X157133533Y-37263557D01*
X157190147Y-37246384D01*
X157303373Y-37212037D01*
X157369558Y-37205518D01*
X157435740Y-37199000D01*
X157524260Y-37199000D01*
X157590442Y-37205518D01*
X157590442Y-37205518D01*
G37*
G36*
X118698677Y-36988465D02*
X118736364Y-36999898D01*
X118771103Y-37018466D01*
X118801548Y-37043452D01*
X118826534Y-37073897D01*
X118845102Y-37108636D01*
X118856535Y-37146323D01*
X118861000Y-37191661D01*
X118861000Y-38028339D01*
X118856535Y-38073677D01*
X118845102Y-38111364D01*
X118826534Y-38146103D01*
X118801548Y-38176548D01*
X118771103Y-38201534D01*
X118736364Y-38220102D01*
X118698677Y-38231535D01*
X118653339Y-38236000D01*
X117566661Y-38236000D01*
X117521323Y-38231535D01*
X117483636Y-38220102D01*
X117448897Y-38201534D01*
X117418452Y-38176548D01*
X117393466Y-38146103D01*
X117374898Y-38111364D01*
X117363465Y-38073677D01*
X117359000Y-38028339D01*
X117359000Y-37191661D01*
X117363465Y-37146323D01*
X117374898Y-37108636D01*
X117393466Y-37073897D01*
X117418452Y-37043452D01*
X117448897Y-37018466D01*
X117483636Y-36999898D01*
X117521323Y-36988465D01*
X117566661Y-36984000D01*
X118653339Y-36984000D01*
X118698677Y-36988465D01*
X118698677Y-36988465D01*
G37*
G36*
X149933677Y-36718465D02*
X149971364Y-36729898D01*
X150006103Y-36748466D01*
X150036548Y-36773452D01*
X150061534Y-36803897D01*
X150080102Y-36838636D01*
X150091535Y-36876323D01*
X150096000Y-36921661D01*
X150096000Y-38008339D01*
X150091535Y-38053677D01*
X150080102Y-38091364D01*
X150061534Y-38126103D01*
X150036548Y-38156548D01*
X150006103Y-38181534D01*
X149971364Y-38200102D01*
X149933677Y-38211535D01*
X149888339Y-38216000D01*
X149051661Y-38216000D01*
X149006323Y-38211535D01*
X148968636Y-38200102D01*
X148933897Y-38181534D01*
X148903452Y-38156548D01*
X148878466Y-38126103D01*
X148859898Y-38091364D01*
X148848465Y-38053677D01*
X148844000Y-38008339D01*
X148844000Y-36921661D01*
X148848465Y-36876323D01*
X148859898Y-36838636D01*
X148878466Y-36803897D01*
X148903452Y-36773452D01*
X148933897Y-36748466D01*
X148968636Y-36729898D01*
X149006323Y-36718465D01*
X149051661Y-36714000D01*
X149888339Y-36714000D01*
X149933677Y-36718465D01*
X149933677Y-36718465D01*
G37*
G36*
X151983677Y-36718465D02*
X152021364Y-36729898D01*
X152056103Y-36748466D01*
X152086548Y-36773452D01*
X152111534Y-36803897D01*
X152130102Y-36838636D01*
X152141535Y-36876323D01*
X152146000Y-36921661D01*
X152146000Y-38008339D01*
X152141535Y-38053677D01*
X152130102Y-38091364D01*
X152111534Y-38126103D01*
X152086548Y-38156548D01*
X152056103Y-38181534D01*
X152021364Y-38200102D01*
X151983677Y-38211535D01*
X151938339Y-38216000D01*
X151101661Y-38216000D01*
X151056323Y-38211535D01*
X151018636Y-38200102D01*
X150983897Y-38181534D01*
X150953452Y-38156548D01*
X150928466Y-38126103D01*
X150909898Y-38091364D01*
X150898465Y-38053677D01*
X150894000Y-38008339D01*
X150894000Y-36921661D01*
X150898465Y-36876323D01*
X150909898Y-36838636D01*
X150928466Y-36803897D01*
X150953452Y-36773452D01*
X150983897Y-36748466D01*
X151018636Y-36729898D01*
X151056323Y-36718465D01*
X151101661Y-36714000D01*
X151938339Y-36714000D01*
X151983677Y-36718465D01*
X151983677Y-36718465D01*
G37*
G36*
X101710443Y-34665519D02*
X101776627Y-34672037D01*
X101889853Y-34706384D01*
X101946467Y-34723557D01*
X102085087Y-34797652D01*
X102102991Y-34807222D01*
X102138729Y-34836552D01*
X102240186Y-34919814D01*
X102300618Y-34993452D01*
X102352778Y-35057009D01*
X102352779Y-35057011D01*
X102436443Y-35213533D01*
X102436443Y-35213534D01*
X102487963Y-35383373D01*
X102505359Y-35560000D01*
X102487963Y-35736627D01*
X102453616Y-35849853D01*
X102436443Y-35906467D01*
X102373792Y-36023677D01*
X102352778Y-36062991D01*
X102325603Y-36096103D01*
X102240186Y-36200186D01*
X102138729Y-36283448D01*
X102102991Y-36312778D01*
X102102989Y-36312779D01*
X101946467Y-36396443D01*
X101889853Y-36413616D01*
X101776627Y-36447963D01*
X101710443Y-36454481D01*
X101644260Y-36461000D01*
X101555740Y-36461000D01*
X101489557Y-36454481D01*
X101423373Y-36447963D01*
X101310147Y-36413616D01*
X101253533Y-36396443D01*
X101097011Y-36312779D01*
X101097009Y-36312778D01*
X101061271Y-36283448D01*
X100959814Y-36200186D01*
X100874397Y-36096103D01*
X100847222Y-36062991D01*
X100826208Y-36023677D01*
X100763557Y-35906467D01*
X100746384Y-35849853D01*
X100712037Y-35736627D01*
X100694641Y-35560000D01*
X100712037Y-35383373D01*
X100763557Y-35213534D01*
X100763557Y-35213533D01*
X100847221Y-35057011D01*
X100847222Y-35057009D01*
X100899382Y-34993452D01*
X100959814Y-34919814D01*
X101061271Y-34836552D01*
X101097009Y-34807222D01*
X101114913Y-34797652D01*
X101253533Y-34723557D01*
X101310147Y-34706384D01*
X101423373Y-34672037D01*
X101489557Y-34665519D01*
X101555740Y-34659000D01*
X101644260Y-34659000D01*
X101710443Y-34665519D01*
X101710443Y-34665519D01*
G37*
G36*
X118698677Y-34938465D02*
X118736364Y-34949898D01*
X118771103Y-34968466D01*
X118801548Y-34993452D01*
X118826534Y-35023897D01*
X118845102Y-35058636D01*
X118856535Y-35096323D01*
X118861000Y-35141661D01*
X118861000Y-35978339D01*
X118856535Y-36023677D01*
X118845102Y-36061364D01*
X118826534Y-36096103D01*
X118801548Y-36126548D01*
X118771103Y-36151534D01*
X118736364Y-36170102D01*
X118698677Y-36181535D01*
X118653339Y-36186000D01*
X117566661Y-36186000D01*
X117521323Y-36181535D01*
X117483636Y-36170102D01*
X117448897Y-36151534D01*
X117418452Y-36126548D01*
X117393466Y-36096103D01*
X117374898Y-36061364D01*
X117363465Y-36023677D01*
X117359000Y-35978339D01*
X117359000Y-35141661D01*
X117363465Y-35096323D01*
X117374898Y-35058636D01*
X117393466Y-35023897D01*
X117418452Y-34993452D01*
X117448897Y-34968466D01*
X117483636Y-34949898D01*
X117521323Y-34938465D01*
X117566661Y-34934000D01*
X118653339Y-34934000D01*
X118698677Y-34938465D01*
X118698677Y-34938465D01*
G37*
G36*
X124570442Y-32125518D02*
X124636627Y-32132037D01*
X124749853Y-32166384D01*
X124806467Y-32183557D01*
X124945087Y-32257652D01*
X124962991Y-32267222D01*
X124998729Y-32296552D01*
X125100186Y-32379814D01*
X125183448Y-32481271D01*
X125212778Y-32517009D01*
X125212779Y-32517011D01*
X125296443Y-32673533D01*
X125296443Y-32673534D01*
X125347963Y-32843373D01*
X125365359Y-33020000D01*
X125347963Y-33196627D01*
X125313616Y-33309853D01*
X125296443Y-33366467D01*
X125222348Y-33505087D01*
X125212778Y-33522991D01*
X125183448Y-33558729D01*
X125100186Y-33660186D01*
X124998729Y-33743448D01*
X124962991Y-33772778D01*
X124962989Y-33772779D01*
X124806467Y-33856443D01*
X124749853Y-33873616D01*
X124636627Y-33907963D01*
X124570443Y-33914481D01*
X124504260Y-33921000D01*
X124415740Y-33921000D01*
X124349557Y-33914481D01*
X124283373Y-33907963D01*
X124170147Y-33873616D01*
X124113533Y-33856443D01*
X123957011Y-33772779D01*
X123957009Y-33772778D01*
X123921271Y-33743448D01*
X123819814Y-33660186D01*
X123736552Y-33558729D01*
X123707222Y-33522991D01*
X123697652Y-33505087D01*
X123623557Y-33366467D01*
X123606384Y-33309853D01*
X123572037Y-33196627D01*
X123554641Y-33020000D01*
X123572037Y-32843373D01*
X123623557Y-32673534D01*
X123623557Y-32673533D01*
X123707221Y-32517011D01*
X123707222Y-32517009D01*
X123736552Y-32481271D01*
X123819814Y-32379814D01*
X123921271Y-32296552D01*
X123957009Y-32267222D01*
X123974913Y-32257652D01*
X124113533Y-32183557D01*
X124170147Y-32166384D01*
X124283373Y-32132037D01*
X124349558Y-32125518D01*
X124415740Y-32119000D01*
X124504260Y-32119000D01*
X124570442Y-32125518D01*
X124570442Y-32125518D01*
G37*
G36*
X139810442Y-32125518D02*
X139876627Y-32132037D01*
X139989853Y-32166384D01*
X140046467Y-32183557D01*
X140185087Y-32257652D01*
X140202991Y-32267222D01*
X140238729Y-32296552D01*
X140340186Y-32379814D01*
X140423448Y-32481271D01*
X140452778Y-32517009D01*
X140452779Y-32517011D01*
X140536443Y-32673533D01*
X140536443Y-32673534D01*
X140587963Y-32843373D01*
X140605359Y-33020000D01*
X140587963Y-33196627D01*
X140553616Y-33309853D01*
X140536443Y-33366467D01*
X140462348Y-33505087D01*
X140452778Y-33522991D01*
X140423448Y-33558729D01*
X140340186Y-33660186D01*
X140238729Y-33743448D01*
X140202991Y-33772778D01*
X140202989Y-33772779D01*
X140046467Y-33856443D01*
X139989853Y-33873616D01*
X139876627Y-33907963D01*
X139810443Y-33914481D01*
X139744260Y-33921000D01*
X139655740Y-33921000D01*
X139589557Y-33914481D01*
X139523373Y-33907963D01*
X139410147Y-33873616D01*
X139353533Y-33856443D01*
X139197011Y-33772779D01*
X139197009Y-33772778D01*
X139161271Y-33743448D01*
X139059814Y-33660186D01*
X138976552Y-33558729D01*
X138947222Y-33522991D01*
X138937652Y-33505087D01*
X138863557Y-33366467D01*
X138846384Y-33309853D01*
X138812037Y-33196627D01*
X138794641Y-33020000D01*
X138812037Y-32843373D01*
X138863557Y-32673534D01*
X138863557Y-32673533D01*
X138947221Y-32517011D01*
X138947222Y-32517009D01*
X138976552Y-32481271D01*
X139059814Y-32379814D01*
X139161271Y-32296552D01*
X139197009Y-32267222D01*
X139214913Y-32257652D01*
X139353533Y-32183557D01*
X139410147Y-32166384D01*
X139523373Y-32132037D01*
X139589558Y-32125518D01*
X139655740Y-32119000D01*
X139744260Y-32119000D01*
X139810442Y-32125518D01*
X139810442Y-32125518D01*
G37*
G36*
X152510442Y-32125518D02*
X152576627Y-32132037D01*
X152689853Y-32166384D01*
X152746467Y-32183557D01*
X152885087Y-32257652D01*
X152902991Y-32267222D01*
X152938729Y-32296552D01*
X153040186Y-32379814D01*
X153123448Y-32481271D01*
X153152778Y-32517009D01*
X153152779Y-32517011D01*
X153236443Y-32673533D01*
X153236443Y-32673534D01*
X153287963Y-32843373D01*
X153305359Y-33020000D01*
X153287963Y-33196627D01*
X153253616Y-33309853D01*
X153236443Y-33366467D01*
X153162348Y-33505087D01*
X153152778Y-33522991D01*
X153123448Y-33558729D01*
X153040186Y-33660186D01*
X152938729Y-33743448D01*
X152902991Y-33772778D01*
X152902989Y-33772779D01*
X152746467Y-33856443D01*
X152689853Y-33873616D01*
X152576627Y-33907963D01*
X152510443Y-33914481D01*
X152444260Y-33921000D01*
X152355740Y-33921000D01*
X152289557Y-33914481D01*
X152223373Y-33907963D01*
X152110147Y-33873616D01*
X152053533Y-33856443D01*
X151897011Y-33772779D01*
X151897009Y-33772778D01*
X151861271Y-33743448D01*
X151759814Y-33660186D01*
X151676552Y-33558729D01*
X151647222Y-33522991D01*
X151637652Y-33505087D01*
X151563557Y-33366467D01*
X151546384Y-33309853D01*
X151512037Y-33196627D01*
X151494641Y-33020000D01*
X151512037Y-32843373D01*
X151563557Y-32673534D01*
X151563557Y-32673533D01*
X151647221Y-32517011D01*
X151647222Y-32517009D01*
X151676552Y-32481271D01*
X151759814Y-32379814D01*
X151861271Y-32296552D01*
X151897009Y-32267222D01*
X151914913Y-32257652D01*
X152053533Y-32183557D01*
X152110147Y-32166384D01*
X152223373Y-32132037D01*
X152289558Y-32125518D01*
X152355740Y-32119000D01*
X152444260Y-32119000D01*
X152510442Y-32125518D01*
X152510442Y-32125518D01*
G37*
G36*
X147430442Y-32125518D02*
X147496627Y-32132037D01*
X147609853Y-32166384D01*
X147666467Y-32183557D01*
X147805087Y-32257652D01*
X147822991Y-32267222D01*
X147858729Y-32296552D01*
X147960186Y-32379814D01*
X148043448Y-32481271D01*
X148072778Y-32517009D01*
X148072779Y-32517011D01*
X148156443Y-32673533D01*
X148156443Y-32673534D01*
X148207963Y-32843373D01*
X148225359Y-33020000D01*
X148207963Y-33196627D01*
X148173616Y-33309853D01*
X148156443Y-33366467D01*
X148082348Y-33505087D01*
X148072778Y-33522991D01*
X148043448Y-33558729D01*
X147960186Y-33660186D01*
X147858729Y-33743448D01*
X147822991Y-33772778D01*
X147822989Y-33772779D01*
X147666467Y-33856443D01*
X147609853Y-33873616D01*
X147496627Y-33907963D01*
X147430443Y-33914481D01*
X147364260Y-33921000D01*
X147275740Y-33921000D01*
X147209557Y-33914481D01*
X147143373Y-33907963D01*
X147030147Y-33873616D01*
X146973533Y-33856443D01*
X146817011Y-33772779D01*
X146817009Y-33772778D01*
X146781271Y-33743448D01*
X146679814Y-33660186D01*
X146596552Y-33558729D01*
X146567222Y-33522991D01*
X146557652Y-33505087D01*
X146483557Y-33366467D01*
X146466384Y-33309853D01*
X146432037Y-33196627D01*
X146414641Y-33020000D01*
X146432037Y-32843373D01*
X146483557Y-32673534D01*
X146483557Y-32673533D01*
X146567221Y-32517011D01*
X146567222Y-32517009D01*
X146596552Y-32481271D01*
X146679814Y-32379814D01*
X146781271Y-32296552D01*
X146817009Y-32267222D01*
X146834913Y-32257652D01*
X146973533Y-32183557D01*
X147030147Y-32166384D01*
X147143373Y-32132037D01*
X147209558Y-32125518D01*
X147275740Y-32119000D01*
X147364260Y-32119000D01*
X147430442Y-32125518D01*
X147430442Y-32125518D01*
G37*
G36*
X144890442Y-32125518D02*
X144956627Y-32132037D01*
X145069853Y-32166384D01*
X145126467Y-32183557D01*
X145265087Y-32257652D01*
X145282991Y-32267222D01*
X145318729Y-32296552D01*
X145420186Y-32379814D01*
X145503448Y-32481271D01*
X145532778Y-32517009D01*
X145532779Y-32517011D01*
X145616443Y-32673533D01*
X145616443Y-32673534D01*
X145667963Y-32843373D01*
X145685359Y-33020000D01*
X145667963Y-33196627D01*
X145633616Y-33309853D01*
X145616443Y-33366467D01*
X145542348Y-33505087D01*
X145532778Y-33522991D01*
X145503448Y-33558729D01*
X145420186Y-33660186D01*
X145318729Y-33743448D01*
X145282991Y-33772778D01*
X145282989Y-33772779D01*
X145126467Y-33856443D01*
X145069853Y-33873616D01*
X144956627Y-33907963D01*
X144890443Y-33914481D01*
X144824260Y-33921000D01*
X144735740Y-33921000D01*
X144669557Y-33914481D01*
X144603373Y-33907963D01*
X144490147Y-33873616D01*
X144433533Y-33856443D01*
X144277011Y-33772779D01*
X144277009Y-33772778D01*
X144241271Y-33743448D01*
X144139814Y-33660186D01*
X144056552Y-33558729D01*
X144027222Y-33522991D01*
X144017652Y-33505087D01*
X143943557Y-33366467D01*
X143926384Y-33309853D01*
X143892037Y-33196627D01*
X143874641Y-33020000D01*
X143892037Y-32843373D01*
X143943557Y-32673534D01*
X143943557Y-32673533D01*
X144027221Y-32517011D01*
X144027222Y-32517009D01*
X144056552Y-32481271D01*
X144139814Y-32379814D01*
X144241271Y-32296552D01*
X144277009Y-32267222D01*
X144294913Y-32257652D01*
X144433533Y-32183557D01*
X144490147Y-32166384D01*
X144603373Y-32132037D01*
X144669558Y-32125518D01*
X144735740Y-32119000D01*
X144824260Y-32119000D01*
X144890442Y-32125518D01*
X144890442Y-32125518D01*
G37*
G36*
X122030442Y-32125518D02*
X122096627Y-32132037D01*
X122209853Y-32166384D01*
X122266467Y-32183557D01*
X122405087Y-32257652D01*
X122422991Y-32267222D01*
X122458729Y-32296552D01*
X122560186Y-32379814D01*
X122643448Y-32481271D01*
X122672778Y-32517009D01*
X122672779Y-32517011D01*
X122756443Y-32673533D01*
X122756443Y-32673534D01*
X122807963Y-32843373D01*
X122825359Y-33020000D01*
X122807963Y-33196627D01*
X122773616Y-33309853D01*
X122756443Y-33366467D01*
X122682348Y-33505087D01*
X122672778Y-33522991D01*
X122643448Y-33558729D01*
X122560186Y-33660186D01*
X122458729Y-33743448D01*
X122422991Y-33772778D01*
X122422989Y-33772779D01*
X122266467Y-33856443D01*
X122209853Y-33873616D01*
X122096627Y-33907963D01*
X122030443Y-33914481D01*
X121964260Y-33921000D01*
X121875740Y-33921000D01*
X121809557Y-33914481D01*
X121743373Y-33907963D01*
X121630147Y-33873616D01*
X121573533Y-33856443D01*
X121417011Y-33772779D01*
X121417009Y-33772778D01*
X121381271Y-33743448D01*
X121279814Y-33660186D01*
X121196552Y-33558729D01*
X121167222Y-33522991D01*
X121157652Y-33505087D01*
X121083557Y-33366467D01*
X121066384Y-33309853D01*
X121032037Y-33196627D01*
X121014641Y-33020000D01*
X121032037Y-32843373D01*
X121083557Y-32673534D01*
X121083557Y-32673533D01*
X121167221Y-32517011D01*
X121167222Y-32517009D01*
X121196552Y-32481271D01*
X121279814Y-32379814D01*
X121381271Y-32296552D01*
X121417009Y-32267222D01*
X121434913Y-32257652D01*
X121573533Y-32183557D01*
X121630147Y-32166384D01*
X121743373Y-32132037D01*
X121809558Y-32125518D01*
X121875740Y-32119000D01*
X121964260Y-32119000D01*
X122030442Y-32125518D01*
X122030442Y-32125518D01*
G37*
G36*
X119490442Y-32125518D02*
X119556627Y-32132037D01*
X119669853Y-32166384D01*
X119726467Y-32183557D01*
X119865087Y-32257652D01*
X119882991Y-32267222D01*
X119918729Y-32296552D01*
X120020186Y-32379814D01*
X120103448Y-32481271D01*
X120132778Y-32517009D01*
X120132779Y-32517011D01*
X120216443Y-32673533D01*
X120216443Y-32673534D01*
X120267963Y-32843373D01*
X120285359Y-33020000D01*
X120267963Y-33196627D01*
X120233616Y-33309853D01*
X120216443Y-33366467D01*
X120142348Y-33505087D01*
X120132778Y-33522991D01*
X120103448Y-33558729D01*
X120020186Y-33660186D01*
X119918729Y-33743448D01*
X119882991Y-33772778D01*
X119882989Y-33772779D01*
X119726467Y-33856443D01*
X119669853Y-33873616D01*
X119556627Y-33907963D01*
X119490443Y-33914481D01*
X119424260Y-33921000D01*
X119335740Y-33921000D01*
X119269557Y-33914481D01*
X119203373Y-33907963D01*
X119090147Y-33873616D01*
X119033533Y-33856443D01*
X118877011Y-33772779D01*
X118877009Y-33772778D01*
X118841271Y-33743448D01*
X118739814Y-33660186D01*
X118656552Y-33558729D01*
X118627222Y-33522991D01*
X118617652Y-33505087D01*
X118543557Y-33366467D01*
X118526384Y-33309853D01*
X118492037Y-33196627D01*
X118474641Y-33020000D01*
X118492037Y-32843373D01*
X118543557Y-32673534D01*
X118543557Y-32673533D01*
X118627221Y-32517011D01*
X118627222Y-32517009D01*
X118656552Y-32481271D01*
X118739814Y-32379814D01*
X118841271Y-32296552D01*
X118877009Y-32267222D01*
X118894913Y-32257652D01*
X119033533Y-32183557D01*
X119090147Y-32166384D01*
X119203373Y-32132037D01*
X119269558Y-32125518D01*
X119335740Y-32119000D01*
X119424260Y-32119000D01*
X119490442Y-32125518D01*
X119490442Y-32125518D01*
G37*
G36*
X116950442Y-32125518D02*
X117016627Y-32132037D01*
X117129853Y-32166384D01*
X117186467Y-32183557D01*
X117325087Y-32257652D01*
X117342991Y-32267222D01*
X117378729Y-32296552D01*
X117480186Y-32379814D01*
X117563448Y-32481271D01*
X117592778Y-32517009D01*
X117592779Y-32517011D01*
X117676443Y-32673533D01*
X117676443Y-32673534D01*
X117727963Y-32843373D01*
X117745359Y-33020000D01*
X117727963Y-33196627D01*
X117693616Y-33309853D01*
X117676443Y-33366467D01*
X117602348Y-33505087D01*
X117592778Y-33522991D01*
X117563448Y-33558729D01*
X117480186Y-33660186D01*
X117378729Y-33743448D01*
X117342991Y-33772778D01*
X117342989Y-33772779D01*
X117186467Y-33856443D01*
X117129853Y-33873616D01*
X117016627Y-33907963D01*
X116950443Y-33914481D01*
X116884260Y-33921000D01*
X116795740Y-33921000D01*
X116729557Y-33914481D01*
X116663373Y-33907963D01*
X116550147Y-33873616D01*
X116493533Y-33856443D01*
X116337011Y-33772779D01*
X116337009Y-33772778D01*
X116301271Y-33743448D01*
X116199814Y-33660186D01*
X116116552Y-33558729D01*
X116087222Y-33522991D01*
X116077652Y-33505087D01*
X116003557Y-33366467D01*
X115986384Y-33309853D01*
X115952037Y-33196627D01*
X115934641Y-33020000D01*
X115952037Y-32843373D01*
X116003557Y-32673534D01*
X116003557Y-32673533D01*
X116087221Y-32517011D01*
X116087222Y-32517009D01*
X116116552Y-32481271D01*
X116199814Y-32379814D01*
X116301271Y-32296552D01*
X116337009Y-32267222D01*
X116354913Y-32257652D01*
X116493533Y-32183557D01*
X116550147Y-32166384D01*
X116663373Y-32132037D01*
X116729558Y-32125518D01*
X116795740Y-32119000D01*
X116884260Y-32119000D01*
X116950442Y-32125518D01*
X116950442Y-32125518D01*
G37*
G36*
X115201000Y-33921000D02*
X113399000Y-33921000D01*
X113399000Y-32119000D01*
X115201000Y-32119000D01*
X115201000Y-33921000D01*
X115201000Y-33921000D01*
G37*
G36*
X129650442Y-32125518D02*
X129716627Y-32132037D01*
X129829853Y-32166384D01*
X129886467Y-32183557D01*
X130025087Y-32257652D01*
X130042991Y-32267222D01*
X130078729Y-32296552D01*
X130180186Y-32379814D01*
X130263448Y-32481271D01*
X130292778Y-32517009D01*
X130292779Y-32517011D01*
X130376443Y-32673533D01*
X130376443Y-32673534D01*
X130427963Y-32843373D01*
X130445359Y-33020000D01*
X130427963Y-33196627D01*
X130393616Y-33309853D01*
X130376443Y-33366467D01*
X130302348Y-33505087D01*
X130292778Y-33522991D01*
X130263448Y-33558729D01*
X130180186Y-33660186D01*
X130078729Y-33743448D01*
X130042991Y-33772778D01*
X130042989Y-33772779D01*
X129886467Y-33856443D01*
X129829853Y-33873616D01*
X129716627Y-33907963D01*
X129650443Y-33914481D01*
X129584260Y-33921000D01*
X129495740Y-33921000D01*
X129429557Y-33914481D01*
X129363373Y-33907963D01*
X129250147Y-33873616D01*
X129193533Y-33856443D01*
X129037011Y-33772779D01*
X129037009Y-33772778D01*
X129001271Y-33743448D01*
X128899814Y-33660186D01*
X128816552Y-33558729D01*
X128787222Y-33522991D01*
X128777652Y-33505087D01*
X128703557Y-33366467D01*
X128686384Y-33309853D01*
X128652037Y-33196627D01*
X128634641Y-33020000D01*
X128652037Y-32843373D01*
X128703557Y-32673534D01*
X128703557Y-32673533D01*
X128787221Y-32517011D01*
X128787222Y-32517009D01*
X128816552Y-32481271D01*
X128899814Y-32379814D01*
X129001271Y-32296552D01*
X129037009Y-32267222D01*
X129054913Y-32257652D01*
X129193533Y-32183557D01*
X129250147Y-32166384D01*
X129363373Y-32132037D01*
X129429558Y-32125518D01*
X129495740Y-32119000D01*
X129584260Y-32119000D01*
X129650442Y-32125518D01*
X129650442Y-32125518D01*
G37*
G36*
X132190442Y-32125518D02*
X132256627Y-32132037D01*
X132369853Y-32166384D01*
X132426467Y-32183557D01*
X132565087Y-32257652D01*
X132582991Y-32267222D01*
X132618729Y-32296552D01*
X132720186Y-32379814D01*
X132803448Y-32481271D01*
X132832778Y-32517009D01*
X132832779Y-32517011D01*
X132916443Y-32673533D01*
X132916443Y-32673534D01*
X132967963Y-32843373D01*
X132985359Y-33020000D01*
X132967963Y-33196627D01*
X132933616Y-33309853D01*
X132916443Y-33366467D01*
X132842348Y-33505087D01*
X132832778Y-33522991D01*
X132803448Y-33558729D01*
X132720186Y-33660186D01*
X132618729Y-33743448D01*
X132582991Y-33772778D01*
X132582989Y-33772779D01*
X132426467Y-33856443D01*
X132369853Y-33873616D01*
X132256627Y-33907963D01*
X132190443Y-33914481D01*
X132124260Y-33921000D01*
X132035740Y-33921000D01*
X131969557Y-33914481D01*
X131903373Y-33907963D01*
X131790147Y-33873616D01*
X131733533Y-33856443D01*
X131577011Y-33772779D01*
X131577009Y-33772778D01*
X131541271Y-33743448D01*
X131439814Y-33660186D01*
X131356552Y-33558729D01*
X131327222Y-33522991D01*
X131317652Y-33505087D01*
X131243557Y-33366467D01*
X131226384Y-33309853D01*
X131192037Y-33196627D01*
X131174641Y-33020000D01*
X131192037Y-32843373D01*
X131243557Y-32673534D01*
X131243557Y-32673533D01*
X131327221Y-32517011D01*
X131327222Y-32517009D01*
X131356552Y-32481271D01*
X131439814Y-32379814D01*
X131541271Y-32296552D01*
X131577009Y-32267222D01*
X131594913Y-32257652D01*
X131733533Y-32183557D01*
X131790147Y-32166384D01*
X131903373Y-32132037D01*
X131969558Y-32125518D01*
X132035740Y-32119000D01*
X132124260Y-32119000D01*
X132190442Y-32125518D01*
X132190442Y-32125518D01*
G37*
G36*
X134730442Y-32125518D02*
X134796627Y-32132037D01*
X134909853Y-32166384D01*
X134966467Y-32183557D01*
X135105087Y-32257652D01*
X135122991Y-32267222D01*
X135158729Y-32296552D01*
X135260186Y-32379814D01*
X135343448Y-32481271D01*
X135372778Y-32517009D01*
X135372779Y-32517011D01*
X135456443Y-32673533D01*
X135456443Y-32673534D01*
X135507963Y-32843373D01*
X135525359Y-33020000D01*
X135507963Y-33196627D01*
X135473616Y-33309853D01*
X135456443Y-33366467D01*
X135382348Y-33505087D01*
X135372778Y-33522991D01*
X135343448Y-33558729D01*
X135260186Y-33660186D01*
X135158729Y-33743448D01*
X135122991Y-33772778D01*
X135122989Y-33772779D01*
X134966467Y-33856443D01*
X134909853Y-33873616D01*
X134796627Y-33907963D01*
X134730443Y-33914481D01*
X134664260Y-33921000D01*
X134575740Y-33921000D01*
X134509557Y-33914481D01*
X134443373Y-33907963D01*
X134330147Y-33873616D01*
X134273533Y-33856443D01*
X134117011Y-33772779D01*
X134117009Y-33772778D01*
X134081271Y-33743448D01*
X133979814Y-33660186D01*
X133896552Y-33558729D01*
X133867222Y-33522991D01*
X133857652Y-33505087D01*
X133783557Y-33366467D01*
X133766384Y-33309853D01*
X133732037Y-33196627D01*
X133714641Y-33020000D01*
X133732037Y-32843373D01*
X133783557Y-32673534D01*
X133783557Y-32673533D01*
X133867221Y-32517011D01*
X133867222Y-32517009D01*
X133896552Y-32481271D01*
X133979814Y-32379814D01*
X134081271Y-32296552D01*
X134117009Y-32267222D01*
X134134913Y-32257652D01*
X134273533Y-32183557D01*
X134330147Y-32166384D01*
X134443373Y-32132037D01*
X134509558Y-32125518D01*
X134575740Y-32119000D01*
X134664260Y-32119000D01*
X134730442Y-32125518D01*
X134730442Y-32125518D01*
G37*
G36*
X137270442Y-32125518D02*
X137336627Y-32132037D01*
X137449853Y-32166384D01*
X137506467Y-32183557D01*
X137645087Y-32257652D01*
X137662991Y-32267222D01*
X137698729Y-32296552D01*
X137800186Y-32379814D01*
X137883448Y-32481271D01*
X137912778Y-32517009D01*
X137912779Y-32517011D01*
X137996443Y-32673533D01*
X137996443Y-32673534D01*
X138047963Y-32843373D01*
X138065359Y-33020000D01*
X138047963Y-33196627D01*
X138013616Y-33309853D01*
X137996443Y-33366467D01*
X137922348Y-33505087D01*
X137912778Y-33522991D01*
X137883448Y-33558729D01*
X137800186Y-33660186D01*
X137698729Y-33743448D01*
X137662991Y-33772778D01*
X137662989Y-33772779D01*
X137506467Y-33856443D01*
X137449853Y-33873616D01*
X137336627Y-33907963D01*
X137270443Y-33914481D01*
X137204260Y-33921000D01*
X137115740Y-33921000D01*
X137049557Y-33914481D01*
X136983373Y-33907963D01*
X136870147Y-33873616D01*
X136813533Y-33856443D01*
X136657011Y-33772779D01*
X136657009Y-33772778D01*
X136621271Y-33743448D01*
X136519814Y-33660186D01*
X136436552Y-33558729D01*
X136407222Y-33522991D01*
X136397652Y-33505087D01*
X136323557Y-33366467D01*
X136306384Y-33309853D01*
X136272037Y-33196627D01*
X136254641Y-33020000D01*
X136272037Y-32843373D01*
X136323557Y-32673534D01*
X136323557Y-32673533D01*
X136407221Y-32517011D01*
X136407222Y-32517009D01*
X136436552Y-32481271D01*
X136519814Y-32379814D01*
X136621271Y-32296552D01*
X136657009Y-32267222D01*
X136674913Y-32257652D01*
X136813533Y-32183557D01*
X136870147Y-32166384D01*
X136983373Y-32132037D01*
X137049558Y-32125518D01*
X137115740Y-32119000D01*
X137204260Y-32119000D01*
X137270442Y-32125518D01*
X137270442Y-32125518D01*
G37*
G36*
X142350442Y-32125518D02*
X142416627Y-32132037D01*
X142529853Y-32166384D01*
X142586467Y-32183557D01*
X142725087Y-32257652D01*
X142742991Y-32267222D01*
X142778729Y-32296552D01*
X142880186Y-32379814D01*
X142963448Y-32481271D01*
X142992778Y-32517009D01*
X142992779Y-32517011D01*
X143076443Y-32673533D01*
X143076443Y-32673534D01*
X143127963Y-32843373D01*
X143145359Y-33020000D01*
X143127963Y-33196627D01*
X143093616Y-33309853D01*
X143076443Y-33366467D01*
X143002348Y-33505087D01*
X142992778Y-33522991D01*
X142963448Y-33558729D01*
X142880186Y-33660186D01*
X142778729Y-33743448D01*
X142742991Y-33772778D01*
X142742989Y-33772779D01*
X142586467Y-33856443D01*
X142529853Y-33873616D01*
X142416627Y-33907963D01*
X142350443Y-33914481D01*
X142284260Y-33921000D01*
X142195740Y-33921000D01*
X142129557Y-33914481D01*
X142063373Y-33907963D01*
X141950147Y-33873616D01*
X141893533Y-33856443D01*
X141737011Y-33772779D01*
X141737009Y-33772778D01*
X141701271Y-33743448D01*
X141599814Y-33660186D01*
X141516552Y-33558729D01*
X141487222Y-33522991D01*
X141477652Y-33505087D01*
X141403557Y-33366467D01*
X141386384Y-33309853D01*
X141352037Y-33196627D01*
X141334641Y-33020000D01*
X141352037Y-32843373D01*
X141403557Y-32673534D01*
X141403557Y-32673533D01*
X141487221Y-32517011D01*
X141487222Y-32517009D01*
X141516552Y-32481271D01*
X141599814Y-32379814D01*
X141701271Y-32296552D01*
X141737009Y-32267222D01*
X141754913Y-32257652D01*
X141893533Y-32183557D01*
X141950147Y-32166384D01*
X142063373Y-32132037D01*
X142129558Y-32125518D01*
X142195740Y-32119000D01*
X142284260Y-32119000D01*
X142350442Y-32125518D01*
X142350442Y-32125518D01*
G37*
G36*
X149970442Y-32125518D02*
X150036627Y-32132037D01*
X150149853Y-32166384D01*
X150206467Y-32183557D01*
X150345087Y-32257652D01*
X150362991Y-32267222D01*
X150398729Y-32296552D01*
X150500186Y-32379814D01*
X150583448Y-32481271D01*
X150612778Y-32517009D01*
X150612779Y-32517011D01*
X150696443Y-32673533D01*
X150696443Y-32673534D01*
X150747963Y-32843373D01*
X150765359Y-33020000D01*
X150747963Y-33196627D01*
X150713616Y-33309853D01*
X150696443Y-33366467D01*
X150622348Y-33505087D01*
X150612778Y-33522991D01*
X150583448Y-33558729D01*
X150500186Y-33660186D01*
X150398729Y-33743448D01*
X150362991Y-33772778D01*
X150362989Y-33772779D01*
X150206467Y-33856443D01*
X150149853Y-33873616D01*
X150036627Y-33907963D01*
X149970443Y-33914481D01*
X149904260Y-33921000D01*
X149815740Y-33921000D01*
X149749557Y-33914481D01*
X149683373Y-33907963D01*
X149570147Y-33873616D01*
X149513533Y-33856443D01*
X149357011Y-33772779D01*
X149357009Y-33772778D01*
X149321271Y-33743448D01*
X149219814Y-33660186D01*
X149136552Y-33558729D01*
X149107222Y-33522991D01*
X149097652Y-33505087D01*
X149023557Y-33366467D01*
X149006384Y-33309853D01*
X148972037Y-33196627D01*
X148954641Y-33020000D01*
X148972037Y-32843373D01*
X149023557Y-32673534D01*
X149023557Y-32673533D01*
X149107221Y-32517011D01*
X149107222Y-32517009D01*
X149136552Y-32481271D01*
X149219814Y-32379814D01*
X149321271Y-32296552D01*
X149357009Y-32267222D01*
X149374913Y-32257652D01*
X149513533Y-32183557D01*
X149570147Y-32166384D01*
X149683373Y-32132037D01*
X149749558Y-32125518D01*
X149815740Y-32119000D01*
X149904260Y-32119000D01*
X149970442Y-32125518D01*
X149970442Y-32125518D01*
G37*
G36*
X127110442Y-32125518D02*
X127176627Y-32132037D01*
X127289853Y-32166384D01*
X127346467Y-32183557D01*
X127485087Y-32257652D01*
X127502991Y-32267222D01*
X127538729Y-32296552D01*
X127640186Y-32379814D01*
X127723448Y-32481271D01*
X127752778Y-32517009D01*
X127752779Y-32517011D01*
X127836443Y-32673533D01*
X127836443Y-32673534D01*
X127887963Y-32843373D01*
X127905359Y-33020000D01*
X127887963Y-33196627D01*
X127853616Y-33309853D01*
X127836443Y-33366467D01*
X127762348Y-33505087D01*
X127752778Y-33522991D01*
X127723448Y-33558729D01*
X127640186Y-33660186D01*
X127538729Y-33743448D01*
X127502991Y-33772778D01*
X127502989Y-33772779D01*
X127346467Y-33856443D01*
X127289853Y-33873616D01*
X127176627Y-33907963D01*
X127110443Y-33914481D01*
X127044260Y-33921000D01*
X126955740Y-33921000D01*
X126889557Y-33914481D01*
X126823373Y-33907963D01*
X126710147Y-33873616D01*
X126653533Y-33856443D01*
X126497011Y-33772779D01*
X126497009Y-33772778D01*
X126461271Y-33743448D01*
X126359814Y-33660186D01*
X126276552Y-33558729D01*
X126247222Y-33522991D01*
X126237652Y-33505087D01*
X126163557Y-33366467D01*
X126146384Y-33309853D01*
X126112037Y-33196627D01*
X126094641Y-33020000D01*
X126112037Y-32843373D01*
X126163557Y-32673534D01*
X126163557Y-32673533D01*
X126247221Y-32517011D01*
X126247222Y-32517009D01*
X126276552Y-32481271D01*
X126359814Y-32379814D01*
X126461271Y-32296552D01*
X126497009Y-32267222D01*
X126514913Y-32257652D01*
X126653533Y-32183557D01*
X126710147Y-32166384D01*
X126823373Y-32132037D01*
X126889558Y-32125518D01*
X126955740Y-32119000D01*
X127044260Y-32119000D01*
X127110442Y-32125518D01*
X127110442Y-32125518D01*
G37*
M02*
