G04 #@! TF.GenerationSoftware,KiCad,Pcbnew,(5.0.1)-4*
G04 #@! TF.CreationDate,2020-04-19T23:52:34+02:00*
G04 #@! TF.ProjectId,Freqmeter_16F18446,467265716D657465725F313646313834,R2*
G04 #@! TF.SameCoordinates,Original*
G04 #@! TF.FileFunction,Soldermask,Bot*
G04 #@! TF.FilePolarity,Negative*
%FSLAX46Y46*%
G04 Gerber Fmt 4.6, Leading zero omitted, Abs format (unit mm)*
G04 Created by KiCad (PCBNEW (5.0.1)-4) date 19/04/2020 23:52:34*
%MOMM*%
%LPD*%
G01*
G04 APERTURE LIST*
%ADD10C,0.100000*%
G04 APERTURE END LIST*
D10*
G36*
X158860443Y-68320519D02*
X158926627Y-68327037D01*
X159039853Y-68361384D01*
X159096467Y-68378557D01*
X159235087Y-68452652D01*
X159252991Y-68462222D01*
X159288729Y-68491552D01*
X159390186Y-68574814D01*
X159473448Y-68676271D01*
X159502778Y-68712009D01*
X159502779Y-68712011D01*
X159586443Y-68868533D01*
X159586443Y-68868534D01*
X159637963Y-69038373D01*
X159655359Y-69215000D01*
X159637963Y-69391627D01*
X159603616Y-69504853D01*
X159586443Y-69561467D01*
X159512348Y-69700087D01*
X159502778Y-69717991D01*
X159473448Y-69753729D01*
X159390186Y-69855186D01*
X159288729Y-69938448D01*
X159252991Y-69967778D01*
X159252989Y-69967779D01*
X159096467Y-70051443D01*
X159039853Y-70068616D01*
X158926627Y-70102963D01*
X158860442Y-70109482D01*
X158794260Y-70116000D01*
X158705740Y-70116000D01*
X158639558Y-70109482D01*
X158573373Y-70102963D01*
X158460147Y-70068616D01*
X158403533Y-70051443D01*
X158247011Y-69967779D01*
X158247009Y-69967778D01*
X158211271Y-69938448D01*
X158109814Y-69855186D01*
X158026552Y-69753729D01*
X157997222Y-69717991D01*
X157987652Y-69700087D01*
X157913557Y-69561467D01*
X157896384Y-69504853D01*
X157862037Y-69391627D01*
X157844641Y-69215000D01*
X157862037Y-69038373D01*
X157913557Y-68868534D01*
X157913557Y-68868533D01*
X157997221Y-68712011D01*
X157997222Y-68712009D01*
X158026552Y-68676271D01*
X158109814Y-68574814D01*
X158211271Y-68491552D01*
X158247009Y-68462222D01*
X158264913Y-68452652D01*
X158403533Y-68378557D01*
X158460147Y-68361384D01*
X158573373Y-68327037D01*
X158639557Y-68320519D01*
X158705740Y-68314000D01*
X158794260Y-68314000D01*
X158860443Y-68320519D01*
X158860443Y-68320519D01*
G37*
G36*
X174100443Y-68320519D02*
X174166627Y-68327037D01*
X174279853Y-68361384D01*
X174336467Y-68378557D01*
X174475087Y-68452652D01*
X174492991Y-68462222D01*
X174528729Y-68491552D01*
X174630186Y-68574814D01*
X174713448Y-68676271D01*
X174742778Y-68712009D01*
X174742779Y-68712011D01*
X174826443Y-68868533D01*
X174826443Y-68868534D01*
X174877963Y-69038373D01*
X174895359Y-69215000D01*
X174877963Y-69391627D01*
X174843616Y-69504853D01*
X174826443Y-69561467D01*
X174752348Y-69700087D01*
X174742778Y-69717991D01*
X174713448Y-69753729D01*
X174630186Y-69855186D01*
X174528729Y-69938448D01*
X174492991Y-69967778D01*
X174492989Y-69967779D01*
X174336467Y-70051443D01*
X174279853Y-70068616D01*
X174166627Y-70102963D01*
X174100442Y-70109482D01*
X174034260Y-70116000D01*
X173945740Y-70116000D01*
X173879558Y-70109482D01*
X173813373Y-70102963D01*
X173700147Y-70068616D01*
X173643533Y-70051443D01*
X173487011Y-69967779D01*
X173487009Y-69967778D01*
X173451271Y-69938448D01*
X173349814Y-69855186D01*
X173266552Y-69753729D01*
X173237222Y-69717991D01*
X173227652Y-69700087D01*
X173153557Y-69561467D01*
X173136384Y-69504853D01*
X173102037Y-69391627D01*
X173084641Y-69215000D01*
X173102037Y-69038373D01*
X173153557Y-68868534D01*
X173153557Y-68868533D01*
X173237221Y-68712011D01*
X173237222Y-68712009D01*
X173266552Y-68676271D01*
X173349814Y-68574814D01*
X173451271Y-68491552D01*
X173487009Y-68462222D01*
X173504913Y-68452652D01*
X173643533Y-68378557D01*
X173700147Y-68361384D01*
X173813373Y-68327037D01*
X173879557Y-68320519D01*
X173945740Y-68314000D01*
X174034260Y-68314000D01*
X174100443Y-68320519D01*
X174100443Y-68320519D01*
G37*
G36*
X162191000Y-70116000D02*
X160389000Y-70116000D01*
X160389000Y-68314000D01*
X162191000Y-68314000D01*
X162191000Y-70116000D01*
X162191000Y-70116000D01*
G37*
G36*
X169811000Y-70116000D02*
X168009000Y-70116000D01*
X168009000Y-68314000D01*
X169811000Y-68314000D01*
X169811000Y-70116000D01*
X169811000Y-70116000D01*
G37*
G36*
X166480443Y-68320519D02*
X166546627Y-68327037D01*
X166659853Y-68361384D01*
X166716467Y-68378557D01*
X166855087Y-68452652D01*
X166872991Y-68462222D01*
X166908729Y-68491552D01*
X167010186Y-68574814D01*
X167093448Y-68676271D01*
X167122778Y-68712009D01*
X167122779Y-68712011D01*
X167206443Y-68868533D01*
X167206443Y-68868534D01*
X167257963Y-69038373D01*
X167275359Y-69215000D01*
X167257963Y-69391627D01*
X167223616Y-69504853D01*
X167206443Y-69561467D01*
X167132348Y-69700087D01*
X167122778Y-69717991D01*
X167093448Y-69753729D01*
X167010186Y-69855186D01*
X166908729Y-69938448D01*
X166872991Y-69967778D01*
X166872989Y-69967779D01*
X166716467Y-70051443D01*
X166659853Y-70068616D01*
X166546627Y-70102963D01*
X166480442Y-70109482D01*
X166414260Y-70116000D01*
X166325740Y-70116000D01*
X166259558Y-70109482D01*
X166193373Y-70102963D01*
X166080147Y-70068616D01*
X166023533Y-70051443D01*
X165867011Y-69967779D01*
X165867009Y-69967778D01*
X165831271Y-69938448D01*
X165729814Y-69855186D01*
X165646552Y-69753729D01*
X165617222Y-69717991D01*
X165607652Y-69700087D01*
X165533557Y-69561467D01*
X165516384Y-69504853D01*
X165482037Y-69391627D01*
X165464641Y-69215000D01*
X165482037Y-69038373D01*
X165533557Y-68868534D01*
X165533557Y-68868533D01*
X165617221Y-68712011D01*
X165617222Y-68712009D01*
X165646552Y-68676271D01*
X165729814Y-68574814D01*
X165831271Y-68491552D01*
X165867009Y-68462222D01*
X165884913Y-68452652D01*
X166023533Y-68378557D01*
X166080147Y-68361384D01*
X166193373Y-68327037D01*
X166259557Y-68320519D01*
X166325740Y-68314000D01*
X166414260Y-68314000D01*
X166480443Y-68320519D01*
X166480443Y-68320519D01*
G37*
G36*
X177431000Y-70116000D02*
X175629000Y-70116000D01*
X175629000Y-68314000D01*
X177431000Y-68314000D01*
X177431000Y-70116000D01*
X177431000Y-70116000D01*
G37*
G36*
X118376000Y-70116000D02*
X116574000Y-70116000D01*
X116574000Y-68314000D01*
X118376000Y-68314000D01*
X118376000Y-70116000D01*
X118376000Y-70116000D01*
G37*
G36*
X154571000Y-70116000D02*
X152769000Y-70116000D01*
X152769000Y-68314000D01*
X154571000Y-68314000D01*
X154571000Y-70116000D01*
X154571000Y-70116000D01*
G37*
G36*
X143620443Y-68320519D02*
X143686627Y-68327037D01*
X143799853Y-68361384D01*
X143856467Y-68378557D01*
X143995087Y-68452652D01*
X144012991Y-68462222D01*
X144048729Y-68491552D01*
X144150186Y-68574814D01*
X144233448Y-68676271D01*
X144262778Y-68712009D01*
X144262779Y-68712011D01*
X144346443Y-68868533D01*
X144346443Y-68868534D01*
X144397963Y-69038373D01*
X144415359Y-69215000D01*
X144397963Y-69391627D01*
X144363616Y-69504853D01*
X144346443Y-69561467D01*
X144272348Y-69700087D01*
X144262778Y-69717991D01*
X144233448Y-69753729D01*
X144150186Y-69855186D01*
X144048729Y-69938448D01*
X144012991Y-69967778D01*
X144012989Y-69967779D01*
X143856467Y-70051443D01*
X143799853Y-70068616D01*
X143686627Y-70102963D01*
X143620442Y-70109482D01*
X143554260Y-70116000D01*
X143465740Y-70116000D01*
X143399558Y-70109482D01*
X143333373Y-70102963D01*
X143220147Y-70068616D01*
X143163533Y-70051443D01*
X143007011Y-69967779D01*
X143007009Y-69967778D01*
X142971271Y-69938448D01*
X142869814Y-69855186D01*
X142786552Y-69753729D01*
X142757222Y-69717991D01*
X142747652Y-69700087D01*
X142673557Y-69561467D01*
X142656384Y-69504853D01*
X142622037Y-69391627D01*
X142604641Y-69215000D01*
X142622037Y-69038373D01*
X142673557Y-68868534D01*
X142673557Y-68868533D01*
X142757221Y-68712011D01*
X142757222Y-68712009D01*
X142786552Y-68676271D01*
X142869814Y-68574814D01*
X142971271Y-68491552D01*
X143007009Y-68462222D01*
X143024913Y-68452652D01*
X143163533Y-68378557D01*
X143220147Y-68361384D01*
X143333373Y-68327037D01*
X143399557Y-68320519D01*
X143465740Y-68314000D01*
X143554260Y-68314000D01*
X143620443Y-68320519D01*
X143620443Y-68320519D01*
G37*
G36*
X146160443Y-68320519D02*
X146226627Y-68327037D01*
X146339853Y-68361384D01*
X146396467Y-68378557D01*
X146535087Y-68452652D01*
X146552991Y-68462222D01*
X146588729Y-68491552D01*
X146690186Y-68574814D01*
X146773448Y-68676271D01*
X146802778Y-68712009D01*
X146802779Y-68712011D01*
X146886443Y-68868533D01*
X146886443Y-68868534D01*
X146937963Y-69038373D01*
X146955359Y-69215000D01*
X146937963Y-69391627D01*
X146903616Y-69504853D01*
X146886443Y-69561467D01*
X146812348Y-69700087D01*
X146802778Y-69717991D01*
X146773448Y-69753729D01*
X146690186Y-69855186D01*
X146588729Y-69938448D01*
X146552991Y-69967778D01*
X146552989Y-69967779D01*
X146396467Y-70051443D01*
X146339853Y-70068616D01*
X146226627Y-70102963D01*
X146160442Y-70109482D01*
X146094260Y-70116000D01*
X146005740Y-70116000D01*
X145939558Y-70109482D01*
X145873373Y-70102963D01*
X145760147Y-70068616D01*
X145703533Y-70051443D01*
X145547011Y-69967779D01*
X145547009Y-69967778D01*
X145511271Y-69938448D01*
X145409814Y-69855186D01*
X145326552Y-69753729D01*
X145297222Y-69717991D01*
X145287652Y-69700087D01*
X145213557Y-69561467D01*
X145196384Y-69504853D01*
X145162037Y-69391627D01*
X145144641Y-69215000D01*
X145162037Y-69038373D01*
X145213557Y-68868534D01*
X145213557Y-68868533D01*
X145297221Y-68712011D01*
X145297222Y-68712009D01*
X145326552Y-68676271D01*
X145409814Y-68574814D01*
X145511271Y-68491552D01*
X145547009Y-68462222D01*
X145564913Y-68452652D01*
X145703533Y-68378557D01*
X145760147Y-68361384D01*
X145873373Y-68327037D01*
X145939557Y-68320519D01*
X146005740Y-68314000D01*
X146094260Y-68314000D01*
X146160443Y-68320519D01*
X146160443Y-68320519D01*
G37*
G36*
X148700443Y-68320519D02*
X148766627Y-68327037D01*
X148879853Y-68361384D01*
X148936467Y-68378557D01*
X149075087Y-68452652D01*
X149092991Y-68462222D01*
X149128729Y-68491552D01*
X149230186Y-68574814D01*
X149313448Y-68676271D01*
X149342778Y-68712009D01*
X149342779Y-68712011D01*
X149426443Y-68868533D01*
X149426443Y-68868534D01*
X149477963Y-69038373D01*
X149495359Y-69215000D01*
X149477963Y-69391627D01*
X149443616Y-69504853D01*
X149426443Y-69561467D01*
X149352348Y-69700087D01*
X149342778Y-69717991D01*
X149313448Y-69753729D01*
X149230186Y-69855186D01*
X149128729Y-69938448D01*
X149092991Y-69967778D01*
X149092989Y-69967779D01*
X148936467Y-70051443D01*
X148879853Y-70068616D01*
X148766627Y-70102963D01*
X148700442Y-70109482D01*
X148634260Y-70116000D01*
X148545740Y-70116000D01*
X148479558Y-70109482D01*
X148413373Y-70102963D01*
X148300147Y-70068616D01*
X148243533Y-70051443D01*
X148087011Y-69967779D01*
X148087009Y-69967778D01*
X148051271Y-69938448D01*
X147949814Y-69855186D01*
X147866552Y-69753729D01*
X147837222Y-69717991D01*
X147827652Y-69700087D01*
X147753557Y-69561467D01*
X147736384Y-69504853D01*
X147702037Y-69391627D01*
X147684641Y-69215000D01*
X147702037Y-69038373D01*
X147753557Y-68868534D01*
X147753557Y-68868533D01*
X147837221Y-68712011D01*
X147837222Y-68712009D01*
X147866552Y-68676271D01*
X147949814Y-68574814D01*
X148051271Y-68491552D01*
X148087009Y-68462222D01*
X148104913Y-68452652D01*
X148243533Y-68378557D01*
X148300147Y-68361384D01*
X148413373Y-68327037D01*
X148479557Y-68320519D01*
X148545740Y-68314000D01*
X148634260Y-68314000D01*
X148700443Y-68320519D01*
X148700443Y-68320519D01*
G37*
G36*
X151240443Y-68320519D02*
X151306627Y-68327037D01*
X151419853Y-68361384D01*
X151476467Y-68378557D01*
X151615087Y-68452652D01*
X151632991Y-68462222D01*
X151668729Y-68491552D01*
X151770186Y-68574814D01*
X151853448Y-68676271D01*
X151882778Y-68712009D01*
X151882779Y-68712011D01*
X151966443Y-68868533D01*
X151966443Y-68868534D01*
X152017963Y-69038373D01*
X152035359Y-69215000D01*
X152017963Y-69391627D01*
X151983616Y-69504853D01*
X151966443Y-69561467D01*
X151892348Y-69700087D01*
X151882778Y-69717991D01*
X151853448Y-69753729D01*
X151770186Y-69855186D01*
X151668729Y-69938448D01*
X151632991Y-69967778D01*
X151632989Y-69967779D01*
X151476467Y-70051443D01*
X151419853Y-70068616D01*
X151306627Y-70102963D01*
X151240442Y-70109482D01*
X151174260Y-70116000D01*
X151085740Y-70116000D01*
X151019558Y-70109482D01*
X150953373Y-70102963D01*
X150840147Y-70068616D01*
X150783533Y-70051443D01*
X150627011Y-69967779D01*
X150627009Y-69967778D01*
X150591271Y-69938448D01*
X150489814Y-69855186D01*
X150406552Y-69753729D01*
X150377222Y-69717991D01*
X150367652Y-69700087D01*
X150293557Y-69561467D01*
X150276384Y-69504853D01*
X150242037Y-69391627D01*
X150224641Y-69215000D01*
X150242037Y-69038373D01*
X150293557Y-68868534D01*
X150293557Y-68868533D01*
X150377221Y-68712011D01*
X150377222Y-68712009D01*
X150406552Y-68676271D01*
X150489814Y-68574814D01*
X150591271Y-68491552D01*
X150627009Y-68462222D01*
X150644913Y-68452652D01*
X150783533Y-68378557D01*
X150840147Y-68361384D01*
X150953373Y-68327037D01*
X151019557Y-68320519D01*
X151085740Y-68314000D01*
X151174260Y-68314000D01*
X151240443Y-68320519D01*
X151240443Y-68320519D01*
G37*
G36*
X115045443Y-68320519D02*
X115111627Y-68327037D01*
X115224853Y-68361384D01*
X115281467Y-68378557D01*
X115420087Y-68452652D01*
X115437991Y-68462222D01*
X115473729Y-68491552D01*
X115575186Y-68574814D01*
X115658448Y-68676271D01*
X115687778Y-68712009D01*
X115687779Y-68712011D01*
X115771443Y-68868533D01*
X115771443Y-68868534D01*
X115822963Y-69038373D01*
X115840359Y-69215000D01*
X115822963Y-69391627D01*
X115788616Y-69504853D01*
X115771443Y-69561467D01*
X115697348Y-69700087D01*
X115687778Y-69717991D01*
X115658448Y-69753729D01*
X115575186Y-69855186D01*
X115473729Y-69938448D01*
X115437991Y-69967778D01*
X115437989Y-69967779D01*
X115281467Y-70051443D01*
X115224853Y-70068616D01*
X115111627Y-70102963D01*
X115045442Y-70109482D01*
X114979260Y-70116000D01*
X114890740Y-70116000D01*
X114824558Y-70109482D01*
X114758373Y-70102963D01*
X114645147Y-70068616D01*
X114588533Y-70051443D01*
X114432011Y-69967779D01*
X114432009Y-69967778D01*
X114396271Y-69938448D01*
X114294814Y-69855186D01*
X114211552Y-69753729D01*
X114182222Y-69717991D01*
X114172652Y-69700087D01*
X114098557Y-69561467D01*
X114081384Y-69504853D01*
X114047037Y-69391627D01*
X114029641Y-69215000D01*
X114047037Y-69038373D01*
X114098557Y-68868534D01*
X114098557Y-68868533D01*
X114182221Y-68712011D01*
X114182222Y-68712009D01*
X114211552Y-68676271D01*
X114294814Y-68574814D01*
X114396271Y-68491552D01*
X114432009Y-68462222D01*
X114449913Y-68452652D01*
X114588533Y-68378557D01*
X114645147Y-68361384D01*
X114758373Y-68327037D01*
X114824557Y-68320519D01*
X114890740Y-68314000D01*
X114979260Y-68314000D01*
X115045443Y-68320519D01*
X115045443Y-68320519D01*
G37*
G36*
X102501000Y-65671000D02*
X100699000Y-65671000D01*
X100699000Y-63869000D01*
X102501000Y-63869000D01*
X102501000Y-65671000D01*
X102501000Y-65671000D01*
G37*
G36*
X101710443Y-61335519D02*
X101776627Y-61342037D01*
X101889853Y-61376384D01*
X101946467Y-61393557D01*
X102085087Y-61467652D01*
X102102991Y-61477222D01*
X102138729Y-61506552D01*
X102240186Y-61589814D01*
X102323448Y-61691271D01*
X102352778Y-61727009D01*
X102352779Y-61727011D01*
X102436443Y-61883533D01*
X102436443Y-61883534D01*
X102487963Y-62053373D01*
X102505359Y-62230000D01*
X102487963Y-62406627D01*
X102453616Y-62519853D01*
X102436443Y-62576467D01*
X102362348Y-62715087D01*
X102352778Y-62732991D01*
X102323448Y-62768729D01*
X102240186Y-62870186D01*
X102138729Y-62953448D01*
X102102991Y-62982778D01*
X102102989Y-62982779D01*
X101946467Y-63066443D01*
X101889853Y-63083616D01*
X101776627Y-63117963D01*
X101710442Y-63124482D01*
X101644260Y-63131000D01*
X101555740Y-63131000D01*
X101489558Y-63124482D01*
X101423373Y-63117963D01*
X101310147Y-63083616D01*
X101253533Y-63066443D01*
X101097011Y-62982779D01*
X101097009Y-62982778D01*
X101061271Y-62953448D01*
X100959814Y-62870186D01*
X100876552Y-62768729D01*
X100847222Y-62732991D01*
X100837652Y-62715087D01*
X100763557Y-62576467D01*
X100746384Y-62519853D01*
X100712037Y-62406627D01*
X100694641Y-62230000D01*
X100712037Y-62053373D01*
X100763557Y-61883534D01*
X100763557Y-61883533D01*
X100847221Y-61727011D01*
X100847222Y-61727009D01*
X100876552Y-61691271D01*
X100959814Y-61589814D01*
X101061271Y-61506552D01*
X101097009Y-61477222D01*
X101114913Y-61467652D01*
X101253533Y-61393557D01*
X101310147Y-61376384D01*
X101423373Y-61342037D01*
X101489557Y-61335519D01*
X101555740Y-61329000D01*
X101644260Y-61329000D01*
X101710443Y-61335519D01*
X101710443Y-61335519D01*
G37*
G36*
X101710443Y-58795519D02*
X101776627Y-58802037D01*
X101889853Y-58836384D01*
X101946467Y-58853557D01*
X102070363Y-58919782D01*
X102102991Y-58937222D01*
X102138729Y-58966552D01*
X102240186Y-59049814D01*
X102323448Y-59151271D01*
X102352778Y-59187009D01*
X102352779Y-59187011D01*
X102436443Y-59343533D01*
X102436443Y-59343534D01*
X102487963Y-59513373D01*
X102505359Y-59690000D01*
X102487963Y-59866627D01*
X102470667Y-59923643D01*
X102436443Y-60036467D01*
X102418831Y-60069416D01*
X102352778Y-60192991D01*
X102346524Y-60200611D01*
X102240186Y-60330186D01*
X102138729Y-60413448D01*
X102102991Y-60442778D01*
X102102989Y-60442779D01*
X101946467Y-60526443D01*
X101889853Y-60543616D01*
X101776627Y-60577963D01*
X101710443Y-60584481D01*
X101644260Y-60591000D01*
X101555740Y-60591000D01*
X101489557Y-60584481D01*
X101423373Y-60577963D01*
X101310147Y-60543616D01*
X101253533Y-60526443D01*
X101097011Y-60442779D01*
X101097009Y-60442778D01*
X101061271Y-60413448D01*
X100959814Y-60330186D01*
X100853476Y-60200611D01*
X100847222Y-60192991D01*
X100781169Y-60069416D01*
X100763557Y-60036467D01*
X100729333Y-59923643D01*
X100712037Y-59866627D01*
X100694641Y-59690000D01*
X100712037Y-59513373D01*
X100763557Y-59343534D01*
X100763557Y-59343533D01*
X100847221Y-59187011D01*
X100847222Y-59187009D01*
X100876552Y-59151271D01*
X100959814Y-59049814D01*
X101061271Y-58966552D01*
X101097009Y-58937222D01*
X101129637Y-58919782D01*
X101253533Y-58853557D01*
X101310147Y-58836384D01*
X101423373Y-58802037D01*
X101489557Y-58795519D01*
X101555740Y-58789000D01*
X101644260Y-58789000D01*
X101710443Y-58795519D01*
X101710443Y-58795519D01*
G37*
G36*
X142293643Y-58919781D02*
X142439415Y-58980162D01*
X142570611Y-59067824D01*
X142682176Y-59179389D01*
X142769838Y-59310585D01*
X142830219Y-59456357D01*
X142861000Y-59611107D01*
X142861000Y-59768893D01*
X142830219Y-59923643D01*
X142769838Y-60069415D01*
X142682176Y-60200611D01*
X142570611Y-60312176D01*
X142439415Y-60399838D01*
X142293643Y-60460219D01*
X142138893Y-60491000D01*
X141981107Y-60491000D01*
X141826357Y-60460219D01*
X141680585Y-60399838D01*
X141549389Y-60312176D01*
X141437824Y-60200611D01*
X141350162Y-60069415D01*
X141289781Y-59923643D01*
X141259000Y-59768893D01*
X141259000Y-59611107D01*
X141289781Y-59456357D01*
X141350162Y-59310585D01*
X141437824Y-59179389D01*
X141549389Y-59067824D01*
X141680585Y-58980162D01*
X141826357Y-58919781D01*
X141981107Y-58889000D01*
X142138893Y-58889000D01*
X142293643Y-58919781D01*
X142293643Y-58919781D01*
G37*
G36*
X137393643Y-58919781D02*
X137539415Y-58980162D01*
X137670611Y-59067824D01*
X137782176Y-59179389D01*
X137869838Y-59310585D01*
X137930219Y-59456357D01*
X137961000Y-59611107D01*
X137961000Y-59768893D01*
X137930219Y-59923643D01*
X137869838Y-60069415D01*
X137782176Y-60200611D01*
X137670611Y-60312176D01*
X137539415Y-60399838D01*
X137393643Y-60460219D01*
X137238893Y-60491000D01*
X137081107Y-60491000D01*
X136926357Y-60460219D01*
X136780585Y-60399838D01*
X136649389Y-60312176D01*
X136537824Y-60200611D01*
X136450162Y-60069415D01*
X136389781Y-59923643D01*
X136359000Y-59768893D01*
X136359000Y-59611107D01*
X136389781Y-59456357D01*
X136450162Y-59310585D01*
X136537824Y-59179389D01*
X136649389Y-59067824D01*
X136780585Y-58980162D01*
X136926357Y-58919781D01*
X137081107Y-58889000D01*
X137238893Y-58889000D01*
X137393643Y-58919781D01*
X137393643Y-58919781D01*
G37*
G36*
X101710443Y-56255519D02*
X101776627Y-56262037D01*
X101889853Y-56296384D01*
X101946467Y-56313557D01*
X102085087Y-56387652D01*
X102102991Y-56397222D01*
X102138729Y-56426552D01*
X102240186Y-56509814D01*
X102323448Y-56611271D01*
X102352778Y-56647009D01*
X102352779Y-56647011D01*
X102436443Y-56803533D01*
X102436443Y-56803534D01*
X102487963Y-56973373D01*
X102505359Y-57150000D01*
X102487963Y-57326627D01*
X102453616Y-57439853D01*
X102436443Y-57496467D01*
X102362348Y-57635087D01*
X102352778Y-57652991D01*
X102323448Y-57688729D01*
X102240186Y-57790186D01*
X102138729Y-57873448D01*
X102102991Y-57902778D01*
X102102989Y-57902779D01*
X101946467Y-57986443D01*
X101889853Y-58003616D01*
X101776627Y-58037963D01*
X101710443Y-58044481D01*
X101644260Y-58051000D01*
X101555740Y-58051000D01*
X101489557Y-58044481D01*
X101423373Y-58037963D01*
X101310147Y-58003616D01*
X101253533Y-57986443D01*
X101097011Y-57902779D01*
X101097009Y-57902778D01*
X101061271Y-57873448D01*
X100959814Y-57790186D01*
X100876552Y-57688729D01*
X100847222Y-57652991D01*
X100837652Y-57635087D01*
X100763557Y-57496467D01*
X100746384Y-57439853D01*
X100712037Y-57326627D01*
X100694641Y-57150000D01*
X100712037Y-56973373D01*
X100763557Y-56803534D01*
X100763557Y-56803533D01*
X100847221Y-56647011D01*
X100847222Y-56647009D01*
X100876552Y-56611271D01*
X100959814Y-56509814D01*
X101061271Y-56426552D01*
X101097009Y-56397222D01*
X101114913Y-56387652D01*
X101253533Y-56313557D01*
X101310147Y-56296384D01*
X101423373Y-56262037D01*
X101489557Y-56255519D01*
X101555740Y-56249000D01*
X101644260Y-56249000D01*
X101710443Y-56255519D01*
X101710443Y-56255519D01*
G37*
G36*
X101710442Y-53715518D02*
X101776627Y-53722037D01*
X101889853Y-53756384D01*
X101946467Y-53773557D01*
X102085087Y-53847652D01*
X102102991Y-53857222D01*
X102138729Y-53886552D01*
X102240186Y-53969814D01*
X102323448Y-54071271D01*
X102352778Y-54107009D01*
X102352779Y-54107011D01*
X102436443Y-54263533D01*
X102436443Y-54263534D01*
X102487963Y-54433373D01*
X102505359Y-54610000D01*
X102487963Y-54786627D01*
X102453616Y-54899853D01*
X102436443Y-54956467D01*
X102362348Y-55095087D01*
X102352778Y-55112991D01*
X102323448Y-55148729D01*
X102240186Y-55250186D01*
X102138729Y-55333448D01*
X102102991Y-55362778D01*
X102102989Y-55362779D01*
X101946467Y-55446443D01*
X101889853Y-55463616D01*
X101776627Y-55497963D01*
X101710443Y-55504481D01*
X101644260Y-55511000D01*
X101555740Y-55511000D01*
X101489557Y-55504481D01*
X101423373Y-55497963D01*
X101310147Y-55463616D01*
X101253533Y-55446443D01*
X101097011Y-55362779D01*
X101097009Y-55362778D01*
X101061271Y-55333448D01*
X100959814Y-55250186D01*
X100876552Y-55148729D01*
X100847222Y-55112991D01*
X100837652Y-55095087D01*
X100763557Y-54956467D01*
X100746384Y-54899853D01*
X100712037Y-54786627D01*
X100694641Y-54610000D01*
X100712037Y-54433373D01*
X100763557Y-54263534D01*
X100763557Y-54263533D01*
X100847221Y-54107011D01*
X100847222Y-54107009D01*
X100876552Y-54071271D01*
X100959814Y-53969814D01*
X101061271Y-53886552D01*
X101097009Y-53857222D01*
X101114913Y-53847652D01*
X101253533Y-53773557D01*
X101310147Y-53756384D01*
X101423373Y-53722037D01*
X101489558Y-53715518D01*
X101555740Y-53709000D01*
X101644260Y-53709000D01*
X101710442Y-53715518D01*
X101710442Y-53715518D01*
G37*
G36*
X184242004Y-46250544D02*
X184329059Y-46267860D01*
X184465732Y-46324472D01*
X184465733Y-46324473D01*
X184588738Y-46406662D01*
X184693338Y-46511262D01*
X184693340Y-46511265D01*
X184775528Y-46634268D01*
X184832140Y-46770941D01*
X184861000Y-46916033D01*
X184861000Y-47063967D01*
X184832140Y-47209059D01*
X184775528Y-47345732D01*
X184775527Y-47345733D01*
X184693338Y-47468738D01*
X184588738Y-47573338D01*
X184588735Y-47573340D01*
X184465732Y-47655528D01*
X184329059Y-47712140D01*
X184242004Y-47729456D01*
X184183969Y-47741000D01*
X184036031Y-47741000D01*
X183977996Y-47729456D01*
X183890941Y-47712140D01*
X183754268Y-47655528D01*
X183631265Y-47573340D01*
X183631262Y-47573338D01*
X183526662Y-47468738D01*
X183444473Y-47345733D01*
X183444472Y-47345732D01*
X183387860Y-47209059D01*
X183359000Y-47063967D01*
X183359000Y-46916033D01*
X183387860Y-46770941D01*
X183444472Y-46634268D01*
X183526660Y-46511265D01*
X183526662Y-46511262D01*
X183631262Y-46406662D01*
X183754267Y-46324473D01*
X183754268Y-46324472D01*
X183890941Y-46267860D01*
X183977996Y-46250544D01*
X184036031Y-46239000D01*
X184183969Y-46239000D01*
X184242004Y-46250544D01*
X184242004Y-46250544D01*
G37*
G36*
X181742004Y-46250544D02*
X181829059Y-46267860D01*
X181965732Y-46324472D01*
X181965733Y-46324473D01*
X182088738Y-46406662D01*
X182193338Y-46511262D01*
X182193340Y-46511265D01*
X182275528Y-46634268D01*
X182332140Y-46770941D01*
X182361000Y-46916033D01*
X182361000Y-47063967D01*
X182332140Y-47209059D01*
X182275528Y-47345732D01*
X182275527Y-47345733D01*
X182193338Y-47468738D01*
X182088738Y-47573338D01*
X182088735Y-47573340D01*
X181965732Y-47655528D01*
X181829059Y-47712140D01*
X181742004Y-47729456D01*
X181683969Y-47741000D01*
X181536031Y-47741000D01*
X181477996Y-47729456D01*
X181390941Y-47712140D01*
X181254268Y-47655528D01*
X181131265Y-47573340D01*
X181131262Y-47573338D01*
X181026662Y-47468738D01*
X180944473Y-47345733D01*
X180944472Y-47345732D01*
X180887860Y-47209059D01*
X180859000Y-47063967D01*
X180859000Y-46916033D01*
X180887860Y-46770941D01*
X180944472Y-46634268D01*
X181026660Y-46511265D01*
X181026662Y-46511262D01*
X181131262Y-46406662D01*
X181254267Y-46324473D01*
X181254268Y-46324472D01*
X181390941Y-46267860D01*
X181477996Y-46250544D01*
X181536031Y-46239000D01*
X181683969Y-46239000D01*
X181742004Y-46250544D01*
X181742004Y-46250544D01*
G37*
G36*
X102501000Y-46621000D02*
X100699000Y-46621000D01*
X100699000Y-44819000D01*
X102501000Y-44819000D01*
X102501000Y-46621000D01*
X102501000Y-46621000D01*
G37*
G36*
X167097004Y-43075544D02*
X167184059Y-43092860D01*
X167320732Y-43149472D01*
X167320733Y-43149473D01*
X167443738Y-43231662D01*
X167548338Y-43336262D01*
X167548340Y-43336265D01*
X167630528Y-43459268D01*
X167687140Y-43595941D01*
X167704455Y-43682989D01*
X167716000Y-43741031D01*
X167716000Y-43888969D01*
X167704456Y-43947004D01*
X167687140Y-44034059D01*
X167630528Y-44170732D01*
X167630527Y-44170733D01*
X167548338Y-44293738D01*
X167443738Y-44398338D01*
X167443735Y-44398340D01*
X167320732Y-44480528D01*
X167184059Y-44537140D01*
X167097004Y-44554456D01*
X167038969Y-44566000D01*
X166891031Y-44566000D01*
X166832996Y-44554456D01*
X166745941Y-44537140D01*
X166609268Y-44480528D01*
X166486265Y-44398340D01*
X166486262Y-44398338D01*
X166381662Y-44293738D01*
X166299473Y-44170733D01*
X166299472Y-44170732D01*
X166242860Y-44034059D01*
X166225544Y-43947004D01*
X166214000Y-43888969D01*
X166214000Y-43741031D01*
X166225545Y-43682989D01*
X166242860Y-43595941D01*
X166299472Y-43459268D01*
X166381660Y-43336265D01*
X166381662Y-43336262D01*
X166486262Y-43231662D01*
X166609267Y-43149473D01*
X166609268Y-43149472D01*
X166745941Y-43092860D01*
X166832996Y-43075544D01*
X166891031Y-43064000D01*
X167038969Y-43064000D01*
X167097004Y-43075544D01*
X167097004Y-43075544D01*
G37*
G36*
X164597004Y-43075544D02*
X164684059Y-43092860D01*
X164820732Y-43149472D01*
X164820733Y-43149473D01*
X164943738Y-43231662D01*
X165048338Y-43336262D01*
X165048340Y-43336265D01*
X165130528Y-43459268D01*
X165187140Y-43595941D01*
X165204455Y-43682989D01*
X165216000Y-43741031D01*
X165216000Y-43888969D01*
X165204456Y-43947004D01*
X165187140Y-44034059D01*
X165130528Y-44170732D01*
X165130527Y-44170733D01*
X165048338Y-44293738D01*
X164943738Y-44398338D01*
X164943735Y-44398340D01*
X164820732Y-44480528D01*
X164684059Y-44537140D01*
X164597004Y-44554456D01*
X164538969Y-44566000D01*
X164391031Y-44566000D01*
X164332996Y-44554456D01*
X164245941Y-44537140D01*
X164109268Y-44480528D01*
X163986265Y-44398340D01*
X163986262Y-44398338D01*
X163881662Y-44293738D01*
X163799473Y-44170733D01*
X163799472Y-44170732D01*
X163742860Y-44034059D01*
X163725544Y-43947004D01*
X163714000Y-43888969D01*
X163714000Y-43741031D01*
X163725545Y-43682989D01*
X163742860Y-43595941D01*
X163799472Y-43459268D01*
X163881660Y-43336265D01*
X163881662Y-43336262D01*
X163986262Y-43231662D01*
X164109267Y-43149473D01*
X164109268Y-43149472D01*
X164245941Y-43092860D01*
X164332996Y-43075544D01*
X164391031Y-43064000D01*
X164538969Y-43064000D01*
X164597004Y-43075544D01*
X164597004Y-43075544D01*
G37*
G36*
X101710442Y-42285518D02*
X101776627Y-42292037D01*
X101889853Y-42326384D01*
X101946467Y-42343557D01*
X102085087Y-42417652D01*
X102102991Y-42427222D01*
X102138729Y-42456552D01*
X102240186Y-42539814D01*
X102323448Y-42641271D01*
X102352778Y-42677009D01*
X102352779Y-42677011D01*
X102436443Y-42833533D01*
X102436443Y-42833534D01*
X102487963Y-43003373D01*
X102505359Y-43180000D01*
X102487963Y-43356627D01*
X102456827Y-43459268D01*
X102436443Y-43526467D01*
X102399308Y-43595941D01*
X102352778Y-43682991D01*
X102323448Y-43718729D01*
X102240186Y-43820186D01*
X102156372Y-43888969D01*
X102102991Y-43932778D01*
X102102989Y-43932779D01*
X101946467Y-44016443D01*
X101889853Y-44033616D01*
X101776627Y-44067963D01*
X101710443Y-44074481D01*
X101644260Y-44081000D01*
X101555740Y-44081000D01*
X101489557Y-44074481D01*
X101423373Y-44067963D01*
X101310147Y-44033616D01*
X101253533Y-44016443D01*
X101097011Y-43932779D01*
X101097009Y-43932778D01*
X101043628Y-43888969D01*
X100959814Y-43820186D01*
X100876552Y-43718729D01*
X100847222Y-43682991D01*
X100800692Y-43595941D01*
X100763557Y-43526467D01*
X100743173Y-43459268D01*
X100712037Y-43356627D01*
X100694641Y-43180000D01*
X100712037Y-43003373D01*
X100763557Y-42833534D01*
X100763557Y-42833533D01*
X100847221Y-42677011D01*
X100847222Y-42677009D01*
X100876552Y-42641271D01*
X100959814Y-42539814D01*
X101061271Y-42456552D01*
X101097009Y-42427222D01*
X101114913Y-42417652D01*
X101253533Y-42343557D01*
X101310147Y-42326384D01*
X101423373Y-42292037D01*
X101489558Y-42285518D01*
X101555740Y-42279000D01*
X101644260Y-42279000D01*
X101710442Y-42285518D01*
X101710442Y-42285518D01*
G37*
G36*
X189496000Y-44081000D02*
X187694000Y-44081000D01*
X187694000Y-42279000D01*
X189496000Y-42279000D01*
X189496000Y-44081000D01*
X189496000Y-44081000D01*
G37*
G36*
X188705442Y-39745518D02*
X188771627Y-39752037D01*
X188884853Y-39786384D01*
X188941467Y-39803557D01*
X189080087Y-39877652D01*
X189097991Y-39887222D01*
X189133729Y-39916552D01*
X189235186Y-39999814D01*
X189318448Y-40101271D01*
X189347778Y-40137009D01*
X189347779Y-40137011D01*
X189431443Y-40293533D01*
X189431443Y-40293534D01*
X189482963Y-40463373D01*
X189500359Y-40640000D01*
X189482963Y-40816627D01*
X189448616Y-40929853D01*
X189431443Y-40986467D01*
X189357348Y-41125087D01*
X189347778Y-41142991D01*
X189318448Y-41178729D01*
X189235186Y-41280186D01*
X189133729Y-41363448D01*
X189097991Y-41392778D01*
X189097989Y-41392779D01*
X188941467Y-41476443D01*
X188884853Y-41493616D01*
X188771627Y-41527963D01*
X188705442Y-41534482D01*
X188639260Y-41541000D01*
X188550740Y-41541000D01*
X188484558Y-41534482D01*
X188418373Y-41527963D01*
X188305147Y-41493616D01*
X188248533Y-41476443D01*
X188092011Y-41392779D01*
X188092009Y-41392778D01*
X188056271Y-41363448D01*
X187954814Y-41280186D01*
X187871552Y-41178729D01*
X187842222Y-41142991D01*
X187832652Y-41125087D01*
X187758557Y-40986467D01*
X187741384Y-40929853D01*
X187707037Y-40816627D01*
X187689641Y-40640000D01*
X187707037Y-40463373D01*
X187758557Y-40293534D01*
X187758557Y-40293533D01*
X187842221Y-40137011D01*
X187842222Y-40137009D01*
X187871552Y-40101271D01*
X187954814Y-39999814D01*
X188056271Y-39916552D01*
X188092009Y-39887222D01*
X188109913Y-39877652D01*
X188248533Y-39803557D01*
X188305147Y-39786384D01*
X188418373Y-39752037D01*
X188484558Y-39745518D01*
X188550740Y-39739000D01*
X188639260Y-39739000D01*
X188705442Y-39745518D01*
X188705442Y-39745518D01*
G37*
G36*
X101710442Y-39745518D02*
X101776627Y-39752037D01*
X101889853Y-39786384D01*
X101946467Y-39803557D01*
X102085087Y-39877652D01*
X102102991Y-39887222D01*
X102138729Y-39916552D01*
X102240186Y-39999814D01*
X102323448Y-40101271D01*
X102352778Y-40137009D01*
X102352779Y-40137011D01*
X102436443Y-40293533D01*
X102436443Y-40293534D01*
X102487963Y-40463373D01*
X102505359Y-40640000D01*
X102487963Y-40816627D01*
X102453616Y-40929853D01*
X102436443Y-40986467D01*
X102362348Y-41125087D01*
X102352778Y-41142991D01*
X102323448Y-41178729D01*
X102240186Y-41280186D01*
X102138729Y-41363448D01*
X102102991Y-41392778D01*
X102102989Y-41392779D01*
X101946467Y-41476443D01*
X101889853Y-41493616D01*
X101776627Y-41527963D01*
X101710442Y-41534482D01*
X101644260Y-41541000D01*
X101555740Y-41541000D01*
X101489558Y-41534482D01*
X101423373Y-41527963D01*
X101310147Y-41493616D01*
X101253533Y-41476443D01*
X101097011Y-41392779D01*
X101097009Y-41392778D01*
X101061271Y-41363448D01*
X100959814Y-41280186D01*
X100876552Y-41178729D01*
X100847222Y-41142991D01*
X100837652Y-41125087D01*
X100763557Y-40986467D01*
X100746384Y-40929853D01*
X100712037Y-40816627D01*
X100694641Y-40640000D01*
X100712037Y-40463373D01*
X100763557Y-40293534D01*
X100763557Y-40293533D01*
X100847221Y-40137011D01*
X100847222Y-40137009D01*
X100876552Y-40101271D01*
X100959814Y-39999814D01*
X101061271Y-39916552D01*
X101097009Y-39887222D01*
X101114913Y-39877652D01*
X101253533Y-39803557D01*
X101310147Y-39786384D01*
X101423373Y-39752037D01*
X101489558Y-39745518D01*
X101555740Y-39739000D01*
X101644260Y-39739000D01*
X101710442Y-39745518D01*
X101710442Y-39745518D01*
G37*
G36*
X157590442Y-37205518D02*
X157656627Y-37212037D01*
X157769853Y-37246384D01*
X157826467Y-37263557D01*
X157965087Y-37337652D01*
X157982991Y-37347222D01*
X158018729Y-37376552D01*
X158120186Y-37459814D01*
X158203448Y-37561271D01*
X158232778Y-37597009D01*
X158232779Y-37597011D01*
X158316443Y-37753533D01*
X158316443Y-37753534D01*
X158367963Y-37923373D01*
X158385359Y-38100000D01*
X158367963Y-38276627D01*
X158333616Y-38389853D01*
X158316443Y-38446467D01*
X158242348Y-38585087D01*
X158232778Y-38602991D01*
X158203448Y-38638729D01*
X158120186Y-38740186D01*
X158018729Y-38823448D01*
X157982991Y-38852778D01*
X157982989Y-38852779D01*
X157826467Y-38936443D01*
X157769853Y-38953616D01*
X157656627Y-38987963D01*
X157590442Y-38994482D01*
X157524260Y-39001000D01*
X157435740Y-39001000D01*
X157369557Y-38994481D01*
X157303373Y-38987963D01*
X157190147Y-38953616D01*
X157133533Y-38936443D01*
X156977011Y-38852779D01*
X156977009Y-38852778D01*
X156941271Y-38823448D01*
X156839814Y-38740186D01*
X156756552Y-38638729D01*
X156727222Y-38602991D01*
X156717652Y-38585087D01*
X156643557Y-38446467D01*
X156626384Y-38389853D01*
X156592037Y-38276627D01*
X156574641Y-38100000D01*
X156592037Y-37923373D01*
X156643557Y-37753534D01*
X156643557Y-37753533D01*
X156727221Y-37597011D01*
X156727222Y-37597009D01*
X156756552Y-37561271D01*
X156839814Y-37459814D01*
X156941271Y-37376552D01*
X156977009Y-37347222D01*
X156994913Y-37337652D01*
X157133533Y-37263557D01*
X157190147Y-37246384D01*
X157303373Y-37212037D01*
X157369558Y-37205518D01*
X157435740Y-37199000D01*
X157524260Y-37199000D01*
X157590442Y-37205518D01*
X157590442Y-37205518D01*
G37*
G36*
X155841000Y-39001000D02*
X154039000Y-39001000D01*
X154039000Y-37199000D01*
X155841000Y-37199000D01*
X155841000Y-39001000D01*
X155841000Y-39001000D01*
G37*
G36*
X101710442Y-37205518D02*
X101776627Y-37212037D01*
X101889853Y-37246384D01*
X101946467Y-37263557D01*
X102085087Y-37337652D01*
X102102991Y-37347222D01*
X102138729Y-37376552D01*
X102240186Y-37459814D01*
X102323448Y-37561271D01*
X102352778Y-37597009D01*
X102352779Y-37597011D01*
X102436443Y-37753533D01*
X102436443Y-37753534D01*
X102487963Y-37923373D01*
X102505359Y-38100000D01*
X102487963Y-38276627D01*
X102453616Y-38389853D01*
X102436443Y-38446467D01*
X102362348Y-38585087D01*
X102352778Y-38602991D01*
X102323448Y-38638729D01*
X102240186Y-38740186D01*
X102138729Y-38823448D01*
X102102991Y-38852778D01*
X102102989Y-38852779D01*
X101946467Y-38936443D01*
X101889853Y-38953616D01*
X101776627Y-38987963D01*
X101710443Y-38994481D01*
X101644260Y-39001000D01*
X101555740Y-39001000D01*
X101489557Y-38994481D01*
X101423373Y-38987963D01*
X101310147Y-38953616D01*
X101253533Y-38936443D01*
X101097011Y-38852779D01*
X101097009Y-38852778D01*
X101061271Y-38823448D01*
X100959814Y-38740186D01*
X100876552Y-38638729D01*
X100847222Y-38602991D01*
X100837652Y-38585087D01*
X100763557Y-38446467D01*
X100746384Y-38389853D01*
X100712037Y-38276627D01*
X100694641Y-38100000D01*
X100712037Y-37923373D01*
X100763557Y-37753534D01*
X100763557Y-37753533D01*
X100847221Y-37597011D01*
X100847222Y-37597009D01*
X100876552Y-37561271D01*
X100959814Y-37459814D01*
X101061271Y-37376552D01*
X101097009Y-37347222D01*
X101114913Y-37337652D01*
X101253533Y-37263557D01*
X101310147Y-37246384D01*
X101423373Y-37212037D01*
X101489558Y-37205518D01*
X101555740Y-37199000D01*
X101644260Y-37199000D01*
X101710442Y-37205518D01*
X101710442Y-37205518D01*
G37*
G36*
X101710443Y-34665519D02*
X101776627Y-34672037D01*
X101889853Y-34706384D01*
X101946467Y-34723557D01*
X102085087Y-34797652D01*
X102102991Y-34807222D01*
X102138729Y-34836552D01*
X102240186Y-34919814D01*
X102323448Y-35021271D01*
X102352778Y-35057009D01*
X102352779Y-35057011D01*
X102436443Y-35213533D01*
X102436443Y-35213534D01*
X102487963Y-35383373D01*
X102505359Y-35560000D01*
X102487963Y-35736627D01*
X102453616Y-35849853D01*
X102436443Y-35906467D01*
X102362348Y-36045087D01*
X102352778Y-36062991D01*
X102323448Y-36098729D01*
X102240186Y-36200186D01*
X102138729Y-36283448D01*
X102102991Y-36312778D01*
X102102989Y-36312779D01*
X101946467Y-36396443D01*
X101889853Y-36413616D01*
X101776627Y-36447963D01*
X101710443Y-36454481D01*
X101644260Y-36461000D01*
X101555740Y-36461000D01*
X101489557Y-36454481D01*
X101423373Y-36447963D01*
X101310147Y-36413616D01*
X101253533Y-36396443D01*
X101097011Y-36312779D01*
X101097009Y-36312778D01*
X101061271Y-36283448D01*
X100959814Y-36200186D01*
X100876552Y-36098729D01*
X100847222Y-36062991D01*
X100837652Y-36045087D01*
X100763557Y-35906467D01*
X100746384Y-35849853D01*
X100712037Y-35736627D01*
X100694641Y-35560000D01*
X100712037Y-35383373D01*
X100763557Y-35213534D01*
X100763557Y-35213533D01*
X100847221Y-35057011D01*
X100847222Y-35057009D01*
X100876552Y-35021271D01*
X100959814Y-34919814D01*
X101061271Y-34836552D01*
X101097009Y-34807222D01*
X101114913Y-34797652D01*
X101253533Y-34723557D01*
X101310147Y-34706384D01*
X101423373Y-34672037D01*
X101489557Y-34665519D01*
X101555740Y-34659000D01*
X101644260Y-34659000D01*
X101710443Y-34665519D01*
X101710443Y-34665519D01*
G37*
G36*
X115201000Y-33921000D02*
X113399000Y-33921000D01*
X113399000Y-32119000D01*
X115201000Y-32119000D01*
X115201000Y-33921000D01*
X115201000Y-33921000D01*
G37*
G36*
X116950442Y-32125518D02*
X117016627Y-32132037D01*
X117129853Y-32166384D01*
X117186467Y-32183557D01*
X117325087Y-32257652D01*
X117342991Y-32267222D01*
X117378729Y-32296552D01*
X117480186Y-32379814D01*
X117563448Y-32481271D01*
X117592778Y-32517009D01*
X117592779Y-32517011D01*
X117676443Y-32673533D01*
X117676443Y-32673534D01*
X117727963Y-32843373D01*
X117745359Y-33020000D01*
X117727963Y-33196627D01*
X117693616Y-33309853D01*
X117676443Y-33366467D01*
X117602348Y-33505087D01*
X117592778Y-33522991D01*
X117563448Y-33558729D01*
X117480186Y-33660186D01*
X117378729Y-33743448D01*
X117342991Y-33772778D01*
X117342989Y-33772779D01*
X117186467Y-33856443D01*
X117129853Y-33873616D01*
X117016627Y-33907963D01*
X116950443Y-33914481D01*
X116884260Y-33921000D01*
X116795740Y-33921000D01*
X116729557Y-33914481D01*
X116663373Y-33907963D01*
X116550147Y-33873616D01*
X116493533Y-33856443D01*
X116337011Y-33772779D01*
X116337009Y-33772778D01*
X116301271Y-33743448D01*
X116199814Y-33660186D01*
X116116552Y-33558729D01*
X116087222Y-33522991D01*
X116077652Y-33505087D01*
X116003557Y-33366467D01*
X115986384Y-33309853D01*
X115952037Y-33196627D01*
X115934641Y-33020000D01*
X115952037Y-32843373D01*
X116003557Y-32673534D01*
X116003557Y-32673533D01*
X116087221Y-32517011D01*
X116087222Y-32517009D01*
X116116552Y-32481271D01*
X116199814Y-32379814D01*
X116301271Y-32296552D01*
X116337009Y-32267222D01*
X116354913Y-32257652D01*
X116493533Y-32183557D01*
X116550147Y-32166384D01*
X116663373Y-32132037D01*
X116729558Y-32125518D01*
X116795740Y-32119000D01*
X116884260Y-32119000D01*
X116950442Y-32125518D01*
X116950442Y-32125518D01*
G37*
G36*
X124570442Y-32125518D02*
X124636627Y-32132037D01*
X124749853Y-32166384D01*
X124806467Y-32183557D01*
X124945087Y-32257652D01*
X124962991Y-32267222D01*
X124998729Y-32296552D01*
X125100186Y-32379814D01*
X125183448Y-32481271D01*
X125212778Y-32517009D01*
X125212779Y-32517011D01*
X125296443Y-32673533D01*
X125296443Y-32673534D01*
X125347963Y-32843373D01*
X125365359Y-33020000D01*
X125347963Y-33196627D01*
X125313616Y-33309853D01*
X125296443Y-33366467D01*
X125222348Y-33505087D01*
X125212778Y-33522991D01*
X125183448Y-33558729D01*
X125100186Y-33660186D01*
X124998729Y-33743448D01*
X124962991Y-33772778D01*
X124962989Y-33772779D01*
X124806467Y-33856443D01*
X124749853Y-33873616D01*
X124636627Y-33907963D01*
X124570443Y-33914481D01*
X124504260Y-33921000D01*
X124415740Y-33921000D01*
X124349557Y-33914481D01*
X124283373Y-33907963D01*
X124170147Y-33873616D01*
X124113533Y-33856443D01*
X123957011Y-33772779D01*
X123957009Y-33772778D01*
X123921271Y-33743448D01*
X123819814Y-33660186D01*
X123736552Y-33558729D01*
X123707222Y-33522991D01*
X123697652Y-33505087D01*
X123623557Y-33366467D01*
X123606384Y-33309853D01*
X123572037Y-33196627D01*
X123554641Y-33020000D01*
X123572037Y-32843373D01*
X123623557Y-32673534D01*
X123623557Y-32673533D01*
X123707221Y-32517011D01*
X123707222Y-32517009D01*
X123736552Y-32481271D01*
X123819814Y-32379814D01*
X123921271Y-32296552D01*
X123957009Y-32267222D01*
X123974913Y-32257652D01*
X124113533Y-32183557D01*
X124170147Y-32166384D01*
X124283373Y-32132037D01*
X124349558Y-32125518D01*
X124415740Y-32119000D01*
X124504260Y-32119000D01*
X124570442Y-32125518D01*
X124570442Y-32125518D01*
G37*
G36*
X127110442Y-32125518D02*
X127176627Y-32132037D01*
X127289853Y-32166384D01*
X127346467Y-32183557D01*
X127485087Y-32257652D01*
X127502991Y-32267222D01*
X127538729Y-32296552D01*
X127640186Y-32379814D01*
X127723448Y-32481271D01*
X127752778Y-32517009D01*
X127752779Y-32517011D01*
X127836443Y-32673533D01*
X127836443Y-32673534D01*
X127887963Y-32843373D01*
X127905359Y-33020000D01*
X127887963Y-33196627D01*
X127853616Y-33309853D01*
X127836443Y-33366467D01*
X127762348Y-33505087D01*
X127752778Y-33522991D01*
X127723448Y-33558729D01*
X127640186Y-33660186D01*
X127538729Y-33743448D01*
X127502991Y-33772778D01*
X127502989Y-33772779D01*
X127346467Y-33856443D01*
X127289853Y-33873616D01*
X127176627Y-33907963D01*
X127110443Y-33914481D01*
X127044260Y-33921000D01*
X126955740Y-33921000D01*
X126889557Y-33914481D01*
X126823373Y-33907963D01*
X126710147Y-33873616D01*
X126653533Y-33856443D01*
X126497011Y-33772779D01*
X126497009Y-33772778D01*
X126461271Y-33743448D01*
X126359814Y-33660186D01*
X126276552Y-33558729D01*
X126247222Y-33522991D01*
X126237652Y-33505087D01*
X126163557Y-33366467D01*
X126146384Y-33309853D01*
X126112037Y-33196627D01*
X126094641Y-33020000D01*
X126112037Y-32843373D01*
X126163557Y-32673534D01*
X126163557Y-32673533D01*
X126247221Y-32517011D01*
X126247222Y-32517009D01*
X126276552Y-32481271D01*
X126359814Y-32379814D01*
X126461271Y-32296552D01*
X126497009Y-32267222D01*
X126514913Y-32257652D01*
X126653533Y-32183557D01*
X126710147Y-32166384D01*
X126823373Y-32132037D01*
X126889558Y-32125518D01*
X126955740Y-32119000D01*
X127044260Y-32119000D01*
X127110442Y-32125518D01*
X127110442Y-32125518D01*
G37*
G36*
X129650442Y-32125518D02*
X129716627Y-32132037D01*
X129829853Y-32166384D01*
X129886467Y-32183557D01*
X130025087Y-32257652D01*
X130042991Y-32267222D01*
X130078729Y-32296552D01*
X130180186Y-32379814D01*
X130263448Y-32481271D01*
X130292778Y-32517009D01*
X130292779Y-32517011D01*
X130376443Y-32673533D01*
X130376443Y-32673534D01*
X130427963Y-32843373D01*
X130445359Y-33020000D01*
X130427963Y-33196627D01*
X130393616Y-33309853D01*
X130376443Y-33366467D01*
X130302348Y-33505087D01*
X130292778Y-33522991D01*
X130263448Y-33558729D01*
X130180186Y-33660186D01*
X130078729Y-33743448D01*
X130042991Y-33772778D01*
X130042989Y-33772779D01*
X129886467Y-33856443D01*
X129829853Y-33873616D01*
X129716627Y-33907963D01*
X129650443Y-33914481D01*
X129584260Y-33921000D01*
X129495740Y-33921000D01*
X129429557Y-33914481D01*
X129363373Y-33907963D01*
X129250147Y-33873616D01*
X129193533Y-33856443D01*
X129037011Y-33772779D01*
X129037009Y-33772778D01*
X129001271Y-33743448D01*
X128899814Y-33660186D01*
X128816552Y-33558729D01*
X128787222Y-33522991D01*
X128777652Y-33505087D01*
X128703557Y-33366467D01*
X128686384Y-33309853D01*
X128652037Y-33196627D01*
X128634641Y-33020000D01*
X128652037Y-32843373D01*
X128703557Y-32673534D01*
X128703557Y-32673533D01*
X128787221Y-32517011D01*
X128787222Y-32517009D01*
X128816552Y-32481271D01*
X128899814Y-32379814D01*
X129001271Y-32296552D01*
X129037009Y-32267222D01*
X129054913Y-32257652D01*
X129193533Y-32183557D01*
X129250147Y-32166384D01*
X129363373Y-32132037D01*
X129429558Y-32125518D01*
X129495740Y-32119000D01*
X129584260Y-32119000D01*
X129650442Y-32125518D01*
X129650442Y-32125518D01*
G37*
G36*
X132190442Y-32125518D02*
X132256627Y-32132037D01*
X132369853Y-32166384D01*
X132426467Y-32183557D01*
X132565087Y-32257652D01*
X132582991Y-32267222D01*
X132618729Y-32296552D01*
X132720186Y-32379814D01*
X132803448Y-32481271D01*
X132832778Y-32517009D01*
X132832779Y-32517011D01*
X132916443Y-32673533D01*
X132916443Y-32673534D01*
X132967963Y-32843373D01*
X132985359Y-33020000D01*
X132967963Y-33196627D01*
X132933616Y-33309853D01*
X132916443Y-33366467D01*
X132842348Y-33505087D01*
X132832778Y-33522991D01*
X132803448Y-33558729D01*
X132720186Y-33660186D01*
X132618729Y-33743448D01*
X132582991Y-33772778D01*
X132582989Y-33772779D01*
X132426467Y-33856443D01*
X132369853Y-33873616D01*
X132256627Y-33907963D01*
X132190443Y-33914481D01*
X132124260Y-33921000D01*
X132035740Y-33921000D01*
X131969557Y-33914481D01*
X131903373Y-33907963D01*
X131790147Y-33873616D01*
X131733533Y-33856443D01*
X131577011Y-33772779D01*
X131577009Y-33772778D01*
X131541271Y-33743448D01*
X131439814Y-33660186D01*
X131356552Y-33558729D01*
X131327222Y-33522991D01*
X131317652Y-33505087D01*
X131243557Y-33366467D01*
X131226384Y-33309853D01*
X131192037Y-33196627D01*
X131174641Y-33020000D01*
X131192037Y-32843373D01*
X131243557Y-32673534D01*
X131243557Y-32673533D01*
X131327221Y-32517011D01*
X131327222Y-32517009D01*
X131356552Y-32481271D01*
X131439814Y-32379814D01*
X131541271Y-32296552D01*
X131577009Y-32267222D01*
X131594913Y-32257652D01*
X131733533Y-32183557D01*
X131790147Y-32166384D01*
X131903373Y-32132037D01*
X131969558Y-32125518D01*
X132035740Y-32119000D01*
X132124260Y-32119000D01*
X132190442Y-32125518D01*
X132190442Y-32125518D01*
G37*
G36*
X134730442Y-32125518D02*
X134796627Y-32132037D01*
X134909853Y-32166384D01*
X134966467Y-32183557D01*
X135105087Y-32257652D01*
X135122991Y-32267222D01*
X135158729Y-32296552D01*
X135260186Y-32379814D01*
X135343448Y-32481271D01*
X135372778Y-32517009D01*
X135372779Y-32517011D01*
X135456443Y-32673533D01*
X135456443Y-32673534D01*
X135507963Y-32843373D01*
X135525359Y-33020000D01*
X135507963Y-33196627D01*
X135473616Y-33309853D01*
X135456443Y-33366467D01*
X135382348Y-33505087D01*
X135372778Y-33522991D01*
X135343448Y-33558729D01*
X135260186Y-33660186D01*
X135158729Y-33743448D01*
X135122991Y-33772778D01*
X135122989Y-33772779D01*
X134966467Y-33856443D01*
X134909853Y-33873616D01*
X134796627Y-33907963D01*
X134730443Y-33914481D01*
X134664260Y-33921000D01*
X134575740Y-33921000D01*
X134509557Y-33914481D01*
X134443373Y-33907963D01*
X134330147Y-33873616D01*
X134273533Y-33856443D01*
X134117011Y-33772779D01*
X134117009Y-33772778D01*
X134081271Y-33743448D01*
X133979814Y-33660186D01*
X133896552Y-33558729D01*
X133867222Y-33522991D01*
X133857652Y-33505087D01*
X133783557Y-33366467D01*
X133766384Y-33309853D01*
X133732037Y-33196627D01*
X133714641Y-33020000D01*
X133732037Y-32843373D01*
X133783557Y-32673534D01*
X133783557Y-32673533D01*
X133867221Y-32517011D01*
X133867222Y-32517009D01*
X133896552Y-32481271D01*
X133979814Y-32379814D01*
X134081271Y-32296552D01*
X134117009Y-32267222D01*
X134134913Y-32257652D01*
X134273533Y-32183557D01*
X134330147Y-32166384D01*
X134443373Y-32132037D01*
X134509558Y-32125518D01*
X134575740Y-32119000D01*
X134664260Y-32119000D01*
X134730442Y-32125518D01*
X134730442Y-32125518D01*
G37*
G36*
X137270442Y-32125518D02*
X137336627Y-32132037D01*
X137449853Y-32166384D01*
X137506467Y-32183557D01*
X137645087Y-32257652D01*
X137662991Y-32267222D01*
X137698729Y-32296552D01*
X137800186Y-32379814D01*
X137883448Y-32481271D01*
X137912778Y-32517009D01*
X137912779Y-32517011D01*
X137996443Y-32673533D01*
X137996443Y-32673534D01*
X138047963Y-32843373D01*
X138065359Y-33020000D01*
X138047963Y-33196627D01*
X138013616Y-33309853D01*
X137996443Y-33366467D01*
X137922348Y-33505087D01*
X137912778Y-33522991D01*
X137883448Y-33558729D01*
X137800186Y-33660186D01*
X137698729Y-33743448D01*
X137662991Y-33772778D01*
X137662989Y-33772779D01*
X137506467Y-33856443D01*
X137449853Y-33873616D01*
X137336627Y-33907963D01*
X137270443Y-33914481D01*
X137204260Y-33921000D01*
X137115740Y-33921000D01*
X137049557Y-33914481D01*
X136983373Y-33907963D01*
X136870147Y-33873616D01*
X136813533Y-33856443D01*
X136657011Y-33772779D01*
X136657009Y-33772778D01*
X136621271Y-33743448D01*
X136519814Y-33660186D01*
X136436552Y-33558729D01*
X136407222Y-33522991D01*
X136397652Y-33505087D01*
X136323557Y-33366467D01*
X136306384Y-33309853D01*
X136272037Y-33196627D01*
X136254641Y-33020000D01*
X136272037Y-32843373D01*
X136323557Y-32673534D01*
X136323557Y-32673533D01*
X136407221Y-32517011D01*
X136407222Y-32517009D01*
X136436552Y-32481271D01*
X136519814Y-32379814D01*
X136621271Y-32296552D01*
X136657009Y-32267222D01*
X136674913Y-32257652D01*
X136813533Y-32183557D01*
X136870147Y-32166384D01*
X136983373Y-32132037D01*
X137049558Y-32125518D01*
X137115740Y-32119000D01*
X137204260Y-32119000D01*
X137270442Y-32125518D01*
X137270442Y-32125518D01*
G37*
G36*
X122030442Y-32125518D02*
X122096627Y-32132037D01*
X122209853Y-32166384D01*
X122266467Y-32183557D01*
X122405087Y-32257652D01*
X122422991Y-32267222D01*
X122458729Y-32296552D01*
X122560186Y-32379814D01*
X122643448Y-32481271D01*
X122672778Y-32517009D01*
X122672779Y-32517011D01*
X122756443Y-32673533D01*
X122756443Y-32673534D01*
X122807963Y-32843373D01*
X122825359Y-33020000D01*
X122807963Y-33196627D01*
X122773616Y-33309853D01*
X122756443Y-33366467D01*
X122682348Y-33505087D01*
X122672778Y-33522991D01*
X122643448Y-33558729D01*
X122560186Y-33660186D01*
X122458729Y-33743448D01*
X122422991Y-33772778D01*
X122422989Y-33772779D01*
X122266467Y-33856443D01*
X122209853Y-33873616D01*
X122096627Y-33907963D01*
X122030443Y-33914481D01*
X121964260Y-33921000D01*
X121875740Y-33921000D01*
X121809557Y-33914481D01*
X121743373Y-33907963D01*
X121630147Y-33873616D01*
X121573533Y-33856443D01*
X121417011Y-33772779D01*
X121417009Y-33772778D01*
X121381271Y-33743448D01*
X121279814Y-33660186D01*
X121196552Y-33558729D01*
X121167222Y-33522991D01*
X121157652Y-33505087D01*
X121083557Y-33366467D01*
X121066384Y-33309853D01*
X121032037Y-33196627D01*
X121014641Y-33020000D01*
X121032037Y-32843373D01*
X121083557Y-32673534D01*
X121083557Y-32673533D01*
X121167221Y-32517011D01*
X121167222Y-32517009D01*
X121196552Y-32481271D01*
X121279814Y-32379814D01*
X121381271Y-32296552D01*
X121417009Y-32267222D01*
X121434913Y-32257652D01*
X121573533Y-32183557D01*
X121630147Y-32166384D01*
X121743373Y-32132037D01*
X121809558Y-32125518D01*
X121875740Y-32119000D01*
X121964260Y-32119000D01*
X122030442Y-32125518D01*
X122030442Y-32125518D01*
G37*
G36*
X139810442Y-32125518D02*
X139876627Y-32132037D01*
X139989853Y-32166384D01*
X140046467Y-32183557D01*
X140185087Y-32257652D01*
X140202991Y-32267222D01*
X140238729Y-32296552D01*
X140340186Y-32379814D01*
X140423448Y-32481271D01*
X140452778Y-32517009D01*
X140452779Y-32517011D01*
X140536443Y-32673533D01*
X140536443Y-32673534D01*
X140587963Y-32843373D01*
X140605359Y-33020000D01*
X140587963Y-33196627D01*
X140553616Y-33309853D01*
X140536443Y-33366467D01*
X140462348Y-33505087D01*
X140452778Y-33522991D01*
X140423448Y-33558729D01*
X140340186Y-33660186D01*
X140238729Y-33743448D01*
X140202991Y-33772778D01*
X140202989Y-33772779D01*
X140046467Y-33856443D01*
X139989853Y-33873616D01*
X139876627Y-33907963D01*
X139810443Y-33914481D01*
X139744260Y-33921000D01*
X139655740Y-33921000D01*
X139589557Y-33914481D01*
X139523373Y-33907963D01*
X139410147Y-33873616D01*
X139353533Y-33856443D01*
X139197011Y-33772779D01*
X139197009Y-33772778D01*
X139161271Y-33743448D01*
X139059814Y-33660186D01*
X138976552Y-33558729D01*
X138947222Y-33522991D01*
X138937652Y-33505087D01*
X138863557Y-33366467D01*
X138846384Y-33309853D01*
X138812037Y-33196627D01*
X138794641Y-33020000D01*
X138812037Y-32843373D01*
X138863557Y-32673534D01*
X138863557Y-32673533D01*
X138947221Y-32517011D01*
X138947222Y-32517009D01*
X138976552Y-32481271D01*
X139059814Y-32379814D01*
X139161271Y-32296552D01*
X139197009Y-32267222D01*
X139214913Y-32257652D01*
X139353533Y-32183557D01*
X139410147Y-32166384D01*
X139523373Y-32132037D01*
X139589558Y-32125518D01*
X139655740Y-32119000D01*
X139744260Y-32119000D01*
X139810442Y-32125518D01*
X139810442Y-32125518D01*
G37*
G36*
X142350442Y-32125518D02*
X142416627Y-32132037D01*
X142529853Y-32166384D01*
X142586467Y-32183557D01*
X142725087Y-32257652D01*
X142742991Y-32267222D01*
X142778729Y-32296552D01*
X142880186Y-32379814D01*
X142963448Y-32481271D01*
X142992778Y-32517009D01*
X142992779Y-32517011D01*
X143076443Y-32673533D01*
X143076443Y-32673534D01*
X143127963Y-32843373D01*
X143145359Y-33020000D01*
X143127963Y-33196627D01*
X143093616Y-33309853D01*
X143076443Y-33366467D01*
X143002348Y-33505087D01*
X142992778Y-33522991D01*
X142963448Y-33558729D01*
X142880186Y-33660186D01*
X142778729Y-33743448D01*
X142742991Y-33772778D01*
X142742989Y-33772779D01*
X142586467Y-33856443D01*
X142529853Y-33873616D01*
X142416627Y-33907963D01*
X142350443Y-33914481D01*
X142284260Y-33921000D01*
X142195740Y-33921000D01*
X142129557Y-33914481D01*
X142063373Y-33907963D01*
X141950147Y-33873616D01*
X141893533Y-33856443D01*
X141737011Y-33772779D01*
X141737009Y-33772778D01*
X141701271Y-33743448D01*
X141599814Y-33660186D01*
X141516552Y-33558729D01*
X141487222Y-33522991D01*
X141477652Y-33505087D01*
X141403557Y-33366467D01*
X141386384Y-33309853D01*
X141352037Y-33196627D01*
X141334641Y-33020000D01*
X141352037Y-32843373D01*
X141403557Y-32673534D01*
X141403557Y-32673533D01*
X141487221Y-32517011D01*
X141487222Y-32517009D01*
X141516552Y-32481271D01*
X141599814Y-32379814D01*
X141701271Y-32296552D01*
X141737009Y-32267222D01*
X141754913Y-32257652D01*
X141893533Y-32183557D01*
X141950147Y-32166384D01*
X142063373Y-32132037D01*
X142129558Y-32125518D01*
X142195740Y-32119000D01*
X142284260Y-32119000D01*
X142350442Y-32125518D01*
X142350442Y-32125518D01*
G37*
G36*
X144890442Y-32125518D02*
X144956627Y-32132037D01*
X145069853Y-32166384D01*
X145126467Y-32183557D01*
X145265087Y-32257652D01*
X145282991Y-32267222D01*
X145318729Y-32296552D01*
X145420186Y-32379814D01*
X145503448Y-32481271D01*
X145532778Y-32517009D01*
X145532779Y-32517011D01*
X145616443Y-32673533D01*
X145616443Y-32673534D01*
X145667963Y-32843373D01*
X145685359Y-33020000D01*
X145667963Y-33196627D01*
X145633616Y-33309853D01*
X145616443Y-33366467D01*
X145542348Y-33505087D01*
X145532778Y-33522991D01*
X145503448Y-33558729D01*
X145420186Y-33660186D01*
X145318729Y-33743448D01*
X145282991Y-33772778D01*
X145282989Y-33772779D01*
X145126467Y-33856443D01*
X145069853Y-33873616D01*
X144956627Y-33907963D01*
X144890443Y-33914481D01*
X144824260Y-33921000D01*
X144735740Y-33921000D01*
X144669557Y-33914481D01*
X144603373Y-33907963D01*
X144490147Y-33873616D01*
X144433533Y-33856443D01*
X144277011Y-33772779D01*
X144277009Y-33772778D01*
X144241271Y-33743448D01*
X144139814Y-33660186D01*
X144056552Y-33558729D01*
X144027222Y-33522991D01*
X144017652Y-33505087D01*
X143943557Y-33366467D01*
X143926384Y-33309853D01*
X143892037Y-33196627D01*
X143874641Y-33020000D01*
X143892037Y-32843373D01*
X143943557Y-32673534D01*
X143943557Y-32673533D01*
X144027221Y-32517011D01*
X144027222Y-32517009D01*
X144056552Y-32481271D01*
X144139814Y-32379814D01*
X144241271Y-32296552D01*
X144277009Y-32267222D01*
X144294913Y-32257652D01*
X144433533Y-32183557D01*
X144490147Y-32166384D01*
X144603373Y-32132037D01*
X144669558Y-32125518D01*
X144735740Y-32119000D01*
X144824260Y-32119000D01*
X144890442Y-32125518D01*
X144890442Y-32125518D01*
G37*
G36*
X147430442Y-32125518D02*
X147496627Y-32132037D01*
X147609853Y-32166384D01*
X147666467Y-32183557D01*
X147805087Y-32257652D01*
X147822991Y-32267222D01*
X147858729Y-32296552D01*
X147960186Y-32379814D01*
X148043448Y-32481271D01*
X148072778Y-32517009D01*
X148072779Y-32517011D01*
X148156443Y-32673533D01*
X148156443Y-32673534D01*
X148207963Y-32843373D01*
X148225359Y-33020000D01*
X148207963Y-33196627D01*
X148173616Y-33309853D01*
X148156443Y-33366467D01*
X148082348Y-33505087D01*
X148072778Y-33522991D01*
X148043448Y-33558729D01*
X147960186Y-33660186D01*
X147858729Y-33743448D01*
X147822991Y-33772778D01*
X147822989Y-33772779D01*
X147666467Y-33856443D01*
X147609853Y-33873616D01*
X147496627Y-33907963D01*
X147430443Y-33914481D01*
X147364260Y-33921000D01*
X147275740Y-33921000D01*
X147209557Y-33914481D01*
X147143373Y-33907963D01*
X147030147Y-33873616D01*
X146973533Y-33856443D01*
X146817011Y-33772779D01*
X146817009Y-33772778D01*
X146781271Y-33743448D01*
X146679814Y-33660186D01*
X146596552Y-33558729D01*
X146567222Y-33522991D01*
X146557652Y-33505087D01*
X146483557Y-33366467D01*
X146466384Y-33309853D01*
X146432037Y-33196627D01*
X146414641Y-33020000D01*
X146432037Y-32843373D01*
X146483557Y-32673534D01*
X146483557Y-32673533D01*
X146567221Y-32517011D01*
X146567222Y-32517009D01*
X146596552Y-32481271D01*
X146679814Y-32379814D01*
X146781271Y-32296552D01*
X146817009Y-32267222D01*
X146834913Y-32257652D01*
X146973533Y-32183557D01*
X147030147Y-32166384D01*
X147143373Y-32132037D01*
X147209558Y-32125518D01*
X147275740Y-32119000D01*
X147364260Y-32119000D01*
X147430442Y-32125518D01*
X147430442Y-32125518D01*
G37*
G36*
X149970442Y-32125518D02*
X150036627Y-32132037D01*
X150149853Y-32166384D01*
X150206467Y-32183557D01*
X150345087Y-32257652D01*
X150362991Y-32267222D01*
X150398729Y-32296552D01*
X150500186Y-32379814D01*
X150583448Y-32481271D01*
X150612778Y-32517009D01*
X150612779Y-32517011D01*
X150696443Y-32673533D01*
X150696443Y-32673534D01*
X150747963Y-32843373D01*
X150765359Y-33020000D01*
X150747963Y-33196627D01*
X150713616Y-33309853D01*
X150696443Y-33366467D01*
X150622348Y-33505087D01*
X150612778Y-33522991D01*
X150583448Y-33558729D01*
X150500186Y-33660186D01*
X150398729Y-33743448D01*
X150362991Y-33772778D01*
X150362989Y-33772779D01*
X150206467Y-33856443D01*
X150149853Y-33873616D01*
X150036627Y-33907963D01*
X149970443Y-33914481D01*
X149904260Y-33921000D01*
X149815740Y-33921000D01*
X149749557Y-33914481D01*
X149683373Y-33907963D01*
X149570147Y-33873616D01*
X149513533Y-33856443D01*
X149357011Y-33772779D01*
X149357009Y-33772778D01*
X149321271Y-33743448D01*
X149219814Y-33660186D01*
X149136552Y-33558729D01*
X149107222Y-33522991D01*
X149097652Y-33505087D01*
X149023557Y-33366467D01*
X149006384Y-33309853D01*
X148972037Y-33196627D01*
X148954641Y-33020000D01*
X148972037Y-32843373D01*
X149023557Y-32673534D01*
X149023557Y-32673533D01*
X149107221Y-32517011D01*
X149107222Y-32517009D01*
X149136552Y-32481271D01*
X149219814Y-32379814D01*
X149321271Y-32296552D01*
X149357009Y-32267222D01*
X149374913Y-32257652D01*
X149513533Y-32183557D01*
X149570147Y-32166384D01*
X149683373Y-32132037D01*
X149749558Y-32125518D01*
X149815740Y-32119000D01*
X149904260Y-32119000D01*
X149970442Y-32125518D01*
X149970442Y-32125518D01*
G37*
G36*
X152510442Y-32125518D02*
X152576627Y-32132037D01*
X152689853Y-32166384D01*
X152746467Y-32183557D01*
X152885087Y-32257652D01*
X152902991Y-32267222D01*
X152938729Y-32296552D01*
X153040186Y-32379814D01*
X153123448Y-32481271D01*
X153152778Y-32517009D01*
X153152779Y-32517011D01*
X153236443Y-32673533D01*
X153236443Y-32673534D01*
X153287963Y-32843373D01*
X153305359Y-33020000D01*
X153287963Y-33196627D01*
X153253616Y-33309853D01*
X153236443Y-33366467D01*
X153162348Y-33505087D01*
X153152778Y-33522991D01*
X153123448Y-33558729D01*
X153040186Y-33660186D01*
X152938729Y-33743448D01*
X152902991Y-33772778D01*
X152902989Y-33772779D01*
X152746467Y-33856443D01*
X152689853Y-33873616D01*
X152576627Y-33907963D01*
X152510443Y-33914481D01*
X152444260Y-33921000D01*
X152355740Y-33921000D01*
X152289557Y-33914481D01*
X152223373Y-33907963D01*
X152110147Y-33873616D01*
X152053533Y-33856443D01*
X151897011Y-33772779D01*
X151897009Y-33772778D01*
X151861271Y-33743448D01*
X151759814Y-33660186D01*
X151676552Y-33558729D01*
X151647222Y-33522991D01*
X151637652Y-33505087D01*
X151563557Y-33366467D01*
X151546384Y-33309853D01*
X151512037Y-33196627D01*
X151494641Y-33020000D01*
X151512037Y-32843373D01*
X151563557Y-32673534D01*
X151563557Y-32673533D01*
X151647221Y-32517011D01*
X151647222Y-32517009D01*
X151676552Y-32481271D01*
X151759814Y-32379814D01*
X151861271Y-32296552D01*
X151897009Y-32267222D01*
X151914913Y-32257652D01*
X152053533Y-32183557D01*
X152110147Y-32166384D01*
X152223373Y-32132037D01*
X152289558Y-32125518D01*
X152355740Y-32119000D01*
X152444260Y-32119000D01*
X152510442Y-32125518D01*
X152510442Y-32125518D01*
G37*
G36*
X119490442Y-32125518D02*
X119556627Y-32132037D01*
X119669853Y-32166384D01*
X119726467Y-32183557D01*
X119865087Y-32257652D01*
X119882991Y-32267222D01*
X119918729Y-32296552D01*
X120020186Y-32379814D01*
X120103448Y-32481271D01*
X120132778Y-32517009D01*
X120132779Y-32517011D01*
X120216443Y-32673533D01*
X120216443Y-32673534D01*
X120267963Y-32843373D01*
X120285359Y-33020000D01*
X120267963Y-33196627D01*
X120233616Y-33309853D01*
X120216443Y-33366467D01*
X120142348Y-33505087D01*
X120132778Y-33522991D01*
X120103448Y-33558729D01*
X120020186Y-33660186D01*
X119918729Y-33743448D01*
X119882991Y-33772778D01*
X119882989Y-33772779D01*
X119726467Y-33856443D01*
X119669853Y-33873616D01*
X119556627Y-33907963D01*
X119490443Y-33914481D01*
X119424260Y-33921000D01*
X119335740Y-33921000D01*
X119269557Y-33914481D01*
X119203373Y-33907963D01*
X119090147Y-33873616D01*
X119033533Y-33856443D01*
X118877011Y-33772779D01*
X118877009Y-33772778D01*
X118841271Y-33743448D01*
X118739814Y-33660186D01*
X118656552Y-33558729D01*
X118627222Y-33522991D01*
X118617652Y-33505087D01*
X118543557Y-33366467D01*
X118526384Y-33309853D01*
X118492037Y-33196627D01*
X118474641Y-33020000D01*
X118492037Y-32843373D01*
X118543557Y-32673534D01*
X118543557Y-32673533D01*
X118627221Y-32517011D01*
X118627222Y-32517009D01*
X118656552Y-32481271D01*
X118739814Y-32379814D01*
X118841271Y-32296552D01*
X118877009Y-32267222D01*
X118894913Y-32257652D01*
X119033533Y-32183557D01*
X119090147Y-32166384D01*
X119203373Y-32132037D01*
X119269558Y-32125518D01*
X119335740Y-32119000D01*
X119424260Y-32119000D01*
X119490442Y-32125518D01*
X119490442Y-32125518D01*
G37*
M02*
