M48
;DRILL file {KiCad (5.0.1)-4} date 07/04/2020 21:43:11
;FORMAT={-:-/ absolute / inch / decimal}
FMAT,2
INCH,TZ
T1C0.0157
T2C0.0160
T3C0.0276
T4C0.0315
T5C0.0394
T6C0.1150
%
G90
G05
M72
T1
X3.975Y-1.9
X3.9755Y-2.0145
X4.5Y-2.28
X4.5Y-2.425
X4.675Y-2.2
X4.8943Y-2.4
X4.9193Y-2.425
X4.95Y-2.2
X5.1Y-1.75
X5.1Y-1.85
X5.185Y-1.75
X5.185Y-1.85
X5.3Y-2.525
X5.325Y-1.825
X5.325Y-1.875
X5.325Y-1.925
X5.325Y-2.5693
X5.675Y-2.575
X5.7Y-2.525
X5.775Y-2.075
X5.7755Y-2.2135
T2
X4.2Y-2.1
X4.575Y-1.525
X4.6Y-2.345
X4.6Y-2.425
X4.675Y-2.3
X4.675Y-2.425
X5.355Y-2.45
X5.36Y-2.25
X5.5Y-2.265
X5.5Y-2.35
X5.5Y-2.45
X5.64Y-2.255
X5.655Y-2.445
X5.675Y-2.35
X6.15Y-2.4
X6.1977Y-2.3985
X6.9087Y-1.74
X7.06Y-1.74
T3
X6.475Y-1.725
X6.5734Y-1.725
X7.15Y-1.85
X7.2484Y-1.85
T4
X5.4Y-2.35
X5.5929Y-2.35
T5
X4.Y-1.4
X4.Y-1.5
X4.Y-1.6
X4.Y-1.7
X4.Y-1.8
X4.Y-2.15
X4.Y-2.25
X4.Y-2.35
X4.Y-2.45
X4.Y-2.55
X5.65Y-2.725
X5.75Y-2.725
X5.85Y-2.725
X5.95Y-2.725
X6.05Y-2.725
X6.1Y-1.5
X6.2Y-1.5
X6.25Y-2.725
X6.35Y-2.725
X4.525Y-2.725
X4.625Y-2.725
X4.5Y-1.3
X4.6Y-1.3
X4.7Y-1.3
X4.8Y-1.3
X4.9Y-1.3
X5.Y-1.3
X5.1Y-1.3
X5.2Y-1.3
X5.3Y-1.3
X5.4Y-1.3
X5.5Y-1.3
X5.6Y-1.3
X5.7Y-1.3
X5.8Y-1.3
X5.9Y-1.3
X6.Y-1.3
X6.55Y-2.725
X6.65Y-2.725
X7.425Y-1.6
X7.425Y-1.7
X6.85Y-2.725
X6.95Y-2.725
T6
X7.225Y-1.3
X4.275Y-1.3
X7.225Y-2.525
X4.275Y-2.525
T0
M30
