G04 #@! TF.GenerationSoftware,KiCad,Pcbnew,(5.0.1)-4*
G04 #@! TF.CreationDate,2020-04-19T23:52:33+02:00*
G04 #@! TF.ProjectId,Freqmeter_16F18446,467265716D657465725F313646313834,R2*
G04 #@! TF.SameCoordinates,Original*
G04 #@! TF.FileFunction,Copper,L2,Bot,Signal*
G04 #@! TF.FilePolarity,Positive*
%FSLAX46Y46*%
G04 Gerber Fmt 4.6, Leading zero omitted, Abs format (unit mm)*
G04 Created by KiCad (PCBNEW (5.0.1)-4) date 19/04/2020 23:52:33*
%MOMM*%
%LPD*%
G01*
G04 APERTURE LIST*
G04 #@! TA.AperFunction,ComponentPad*
%ADD10C,6.096000*%
G04 #@! TD*
G04 #@! TA.AperFunction,ComponentPad*
%ADD11O,1.700000X1.700000*%
G04 #@! TD*
G04 #@! TA.AperFunction,ComponentPad*
%ADD12R,1.700000X1.700000*%
G04 #@! TD*
G04 #@! TA.AperFunction,ComponentPad*
%ADD13C,1.500000*%
G04 #@! TD*
G04 #@! TA.AperFunction,ComponentPad*
%ADD14C,1.400000*%
G04 #@! TD*
G04 #@! TA.AperFunction,ViaPad*
%ADD15C,0.800000*%
G04 #@! TD*
G04 #@! TA.AperFunction,ViaPad*
%ADD16C,0.889000*%
G04 #@! TD*
G04 #@! TA.AperFunction,Conductor*
%ADD17C,0.381000*%
G04 #@! TD*
G04 #@! TA.AperFunction,Conductor*
%ADD18C,0.762000*%
G04 #@! TD*
G04 #@! TA.AperFunction,Conductor*
%ADD19C,0.635000*%
G04 #@! TD*
G04 #@! TA.AperFunction,Conductor*
%ADD20C,0.254000*%
G04 #@! TD*
G04 APERTURE END LIST*
D10*
G04 #@! TO.P,M3,*
G04 #@! TO.N,*
X183515000Y-64135000D03*
G04 #@! TD*
G04 #@! TO.P,M3,*
G04 #@! TO.N,*
X183515000Y-33020000D03*
G04 #@! TD*
G04 #@! TO.P,M3,*
G04 #@! TO.N,*
X108585000Y-33020000D03*
G04 #@! TD*
D11*
G04 #@! TO.P,J1,5*
G04 #@! TO.N,PGC*
X101600000Y-54610000D03*
G04 #@! TO.P,J1,4*
G04 #@! TO.N,PGD*
X101600000Y-57150000D03*
G04 #@! TO.P,J1,3*
G04 #@! TO.N,GND*
X101600000Y-59690000D03*
G04 #@! TO.P,J1,2*
G04 #@! TO.N,VDD*
X101600000Y-62230000D03*
D12*
G04 #@! TO.P,J1,1*
G04 #@! TO.N,MCLR*
X101600000Y-64770000D03*
G04 #@! TD*
G04 #@! TO.P,J2,1*
G04 #@! TO.N,GND*
X101600000Y-45720000D03*
D11*
G04 #@! TO.P,J2,2*
G04 #@! TO.N,Net-(J2-Pad2)*
X101600000Y-43180000D03*
G04 #@! TO.P,J2,3*
G04 #@! TO.N,Net-(J2-Pad3)*
X101600000Y-40640000D03*
G04 #@! TO.P,J2,4*
G04 #@! TO.N,Net-(D1-Pad1)*
X101600000Y-38100000D03*
G04 #@! TO.P,J2,5*
G04 #@! TO.N,VDD*
X101600000Y-35560000D03*
G04 #@! TD*
D13*
G04 #@! TO.P,Y1,1*
G04 #@! TO.N,CLKIN2*
X137160000Y-59690000D03*
G04 #@! TO.P,Y1,2*
G04 #@! TO.N,Net-(C3-Pad1)*
X142060000Y-59690000D03*
G04 #@! TD*
D12*
G04 #@! TO.P,JP1,1*
G04 #@! TO.N,Net-(JP1-Pad1)*
X154940000Y-38100000D03*
D11*
G04 #@! TO.P,JP1,2*
G04 #@! TO.N,VDD*
X157480000Y-38100000D03*
G04 #@! TD*
D12*
G04 #@! TO.P,P1,1*
G04 #@! TO.N,GND*
X114300000Y-33020000D03*
D11*
G04 #@! TO.P,P1,2*
G04 #@! TO.N,VDD*
X116840000Y-33020000D03*
G04 #@! TO.P,P1,3*
G04 #@! TO.N,Vee*
X119380000Y-33020000D03*
G04 #@! TO.P,P1,4*
G04 #@! TO.N,LCD_RS*
X121920000Y-33020000D03*
G04 #@! TO.P,P1,5*
G04 #@! TO.N,GND*
X124460000Y-33020000D03*
G04 #@! TO.P,P1,6*
G04 #@! TO.N,LCD_E*
X127000000Y-33020000D03*
G04 #@! TO.P,P1,7*
G04 #@! TO.N,GND*
X129540000Y-33020000D03*
G04 #@! TO.P,P1,8*
X132080000Y-33020000D03*
G04 #@! TO.P,P1,9*
X134620000Y-33020000D03*
G04 #@! TO.P,P1,10*
X137160000Y-33020000D03*
G04 #@! TO.P,P1,11*
G04 #@! TO.N,LCD_D4*
X139700000Y-33020000D03*
G04 #@! TO.P,P1,12*
G04 #@! TO.N,LCD_D5*
X142240000Y-33020000D03*
G04 #@! TO.P,P1,13*
G04 #@! TO.N,LCD_D6*
X144780000Y-33020000D03*
G04 #@! TO.P,P1,14*
G04 #@! TO.N,LCD_D7*
X147320000Y-33020000D03*
G04 #@! TO.P,P1,15*
G04 #@! TO.N,Net-(P1-Pad15)*
X149860000Y-33020000D03*
G04 #@! TO.P,P1,16*
G04 #@! TO.N,GND*
X152400000Y-33020000D03*
G04 #@! TD*
D12*
G04 #@! TO.P,J7,1*
G04 #@! TO.N,Net-(C8-Pad1)*
X188595000Y-43180000D03*
D11*
G04 #@! TO.P,J7,2*
G04 #@! TO.N,GND*
X188595000Y-40640000D03*
G04 #@! TD*
D14*
G04 #@! TO.P,C8,1*
G04 #@! TO.N,Net-(C8-Pad1)*
X181610000Y-46990000D03*
G04 #@! TO.P,C8,2*
G04 #@! TO.N,GND*
X184110000Y-46990000D03*
G04 #@! TD*
G04 #@! TO.P,C9,2*
G04 #@! TO.N,GND*
X166965000Y-43815000D03*
G04 #@! TO.P,C9,1*
G04 #@! TO.N,VDD*
X164465000Y-43815000D03*
G04 #@! TD*
D11*
G04 #@! TO.P,J3,2*
G04 #@! TO.N,GND*
X158750000Y-69215000D03*
D12*
G04 #@! TO.P,J3,1*
G04 #@! TO.N,Net-(J3-Pad1)*
X161290000Y-69215000D03*
G04 #@! TD*
G04 #@! TO.P,J4,1*
G04 #@! TO.N,Net-(J4-Pad1)*
X168910000Y-69215000D03*
D11*
G04 #@! TO.P,J4,2*
G04 #@! TO.N,GND*
X166370000Y-69215000D03*
G04 #@! TD*
G04 #@! TO.P,J5,2*
G04 #@! TO.N,GND*
X173990000Y-69215000D03*
D12*
G04 #@! TO.P,J5,1*
G04 #@! TO.N,Net-(J5-Pad1)*
X176530000Y-69215000D03*
G04 #@! TD*
G04 #@! TO.P,J6,1*
G04 #@! TO.N,Net-(J6-Pad1)*
X117475000Y-69215000D03*
D11*
G04 #@! TO.P,J6,2*
G04 #@! TO.N,GND*
X114935000Y-69215000D03*
G04 #@! TD*
D10*
G04 #@! TO.P,M3,*
G04 #@! TO.N,*
X108585000Y-64135000D03*
G04 #@! TD*
D12*
G04 #@! TO.P,J8,1*
G04 #@! TO.N,MCLR2*
X153670000Y-69215000D03*
D11*
G04 #@! TO.P,J8,2*
G04 #@! TO.N,VDD*
X151130000Y-69215000D03*
G04 #@! TO.P,J8,3*
G04 #@! TO.N,GND*
X148590000Y-69215000D03*
G04 #@! TO.P,J8,4*
G04 #@! TO.N,PGD*
X146050000Y-69215000D03*
G04 #@! TO.P,J8,5*
G04 #@! TO.N,PGC*
X143510000Y-69215000D03*
G04 #@! TD*
D15*
G04 #@! TO.N,MCLR*
X118745000Y-55880000D03*
X125730000Y-55880000D03*
G04 #@! TO.N,VDD*
X100978495Y-51168212D03*
X100965000Y-48260000D03*
G04 #@! TO.N,GND*
X134620000Y-64135000D03*
X144780000Y-64135000D03*
X135255000Y-65260000D03*
X144145000Y-65405000D03*
X124315000Y-60960000D03*
X124950000Y-61595000D03*
X135255000Y-47625000D03*
X135255000Y-46355000D03*
X135255000Y-48895000D03*
D16*
X175480000Y-44196000D03*
X179324000Y-44196000D03*
X116205000Y-38735000D03*
X106680000Y-53340000D03*
X156210000Y-60960000D03*
X157421183Y-60923051D03*
X136144000Y-57150000D03*
X136017000Y-62230000D03*
X139700000Y-62230000D03*
X139700000Y-57531000D03*
X139700000Y-59690000D03*
X143637000Y-62103000D03*
X143256000Y-57277000D03*
X144145000Y-59690000D03*
G04 #@! TO.N,PGC*
X118745000Y-58420000D03*
X118745000Y-61595000D03*
G04 #@! TO.N,PGD*
X116840000Y-61595000D03*
X116840000Y-59563004D03*
D15*
G04 #@! TO.N,ZCD*
X114300000Y-61595000D03*
X114300000Y-57912000D03*
G04 #@! TO.N,LCD_D6*
X129540000Y-46990000D03*
X129540000Y-44450000D03*
X146698495Y-56222822D03*
X146685000Y-52705000D03*
G04 #@! TO.N,LCD_D7*
X131700000Y-44450000D03*
X131700000Y-46990000D03*
G04 #@! TD*
D17*
G04 #@! TO.N,MCLR*
X119310685Y-55880000D02*
X125730000Y-55880000D01*
X118745000Y-55880000D02*
X119310685Y-55880000D01*
G04 #@! TO.N,VDD*
X100978495Y-48273495D02*
X100965000Y-48260000D01*
X100978495Y-51168212D02*
X100978495Y-48273495D01*
D18*
G04 #@! TO.N,GND*
X184110000Y-46000051D02*
X184150000Y-45960051D01*
X184110000Y-46990000D02*
X184110000Y-46000051D01*
X187392919Y-40640000D02*
X188595000Y-40640000D01*
X184150000Y-43882919D02*
X187392919Y-40640000D01*
X184150000Y-45960051D02*
X184150000Y-43882919D01*
D17*
G04 #@! TO.N,PGC*
X118745000Y-61595000D02*
X118745000Y-58420000D01*
G04 #@! TO.N,PGD*
X116840000Y-61595000D02*
X116840000Y-59563000D01*
X116840000Y-59690000D02*
X116840000Y-59563000D01*
X116840000Y-59563000D02*
X116840000Y-59563004D01*
G04 #@! TO.N,ZCD*
X114300000Y-61595000D02*
X114300000Y-57912000D01*
D19*
G04 #@! TO.N,LCD_D6*
X129540000Y-46990000D02*
X129540000Y-44450000D01*
D17*
X146698495Y-56222822D02*
X146698495Y-53988495D01*
X146698495Y-52718495D02*
X146685000Y-52705000D01*
X146685000Y-53975000D02*
X146685000Y-52705000D01*
X146698495Y-53988495D02*
X146685000Y-53975000D01*
D19*
G04 #@! TO.N,LCD_D7*
X131700000Y-46990000D02*
X131700000Y-44450000D01*
G04 #@! TD*
D20*
G04 #@! TO.N,GND*
G36*
X106642628Y-30113034D02*
X105678034Y-31077628D01*
X105156000Y-32337930D01*
X105156000Y-33702070D01*
X105678034Y-34962372D01*
X106642628Y-35926966D01*
X107902930Y-36449000D01*
X109267070Y-36449000D01*
X110527372Y-35926966D01*
X111491966Y-34962372D01*
X112014000Y-33702070D01*
X112014000Y-33305750D01*
X112815000Y-33305750D01*
X112815000Y-33996309D01*
X112911673Y-34229698D01*
X113090301Y-34408327D01*
X113323690Y-34505000D01*
X114014250Y-34505000D01*
X114173000Y-34346250D01*
X114173000Y-33147000D01*
X112973750Y-33147000D01*
X112815000Y-33305750D01*
X112014000Y-33305750D01*
X112014000Y-32337930D01*
X111892123Y-32043691D01*
X112815000Y-32043691D01*
X112815000Y-32734250D01*
X112973750Y-32893000D01*
X114173000Y-32893000D01*
X114173000Y-31693750D01*
X114427000Y-31693750D01*
X114427000Y-32893000D01*
X114447000Y-32893000D01*
X114447000Y-33147000D01*
X114427000Y-33147000D01*
X114427000Y-34346250D01*
X114585750Y-34505000D01*
X115276310Y-34505000D01*
X115509699Y-34408327D01*
X115688327Y-34229698D01*
X115785000Y-33996309D01*
X115785000Y-33656821D01*
X115952499Y-33907501D01*
X116359688Y-34179576D01*
X116718761Y-34251000D01*
X116961239Y-34251000D01*
X117320312Y-34179576D01*
X117727501Y-33907501D01*
X117999576Y-33500312D01*
X118095116Y-33020000D01*
X118124884Y-33020000D01*
X118220424Y-33500312D01*
X118492499Y-33907501D01*
X118899688Y-34179576D01*
X119258761Y-34251000D01*
X119501239Y-34251000D01*
X119860312Y-34179576D01*
X120267501Y-33907501D01*
X120539576Y-33500312D01*
X120635116Y-33020000D01*
X120664884Y-33020000D01*
X120760424Y-33500312D01*
X121032499Y-33907501D01*
X121439688Y-34179576D01*
X121798761Y-34251000D01*
X122041239Y-34251000D01*
X122400312Y-34179576D01*
X122807501Y-33907501D01*
X123077755Y-33503037D01*
X123264817Y-33901358D01*
X123693076Y-34291645D01*
X124103110Y-34461476D01*
X124333000Y-34340155D01*
X124333000Y-33147000D01*
X124313000Y-33147000D01*
X124313000Y-32893000D01*
X124333000Y-32893000D01*
X124333000Y-31699845D01*
X124587000Y-31699845D01*
X124587000Y-32893000D01*
X124607000Y-32893000D01*
X124607000Y-33147000D01*
X124587000Y-33147000D01*
X124587000Y-34340155D01*
X124816890Y-34461476D01*
X125226924Y-34291645D01*
X125655183Y-33901358D01*
X125842245Y-33503037D01*
X126112499Y-33907501D01*
X126519688Y-34179576D01*
X126878761Y-34251000D01*
X127121239Y-34251000D01*
X127480312Y-34179576D01*
X127887501Y-33907501D01*
X128157755Y-33503037D01*
X128344817Y-33901358D01*
X128773076Y-34291645D01*
X129183110Y-34461476D01*
X129413000Y-34340155D01*
X129413000Y-33147000D01*
X129667000Y-33147000D01*
X129667000Y-34340155D01*
X129896890Y-34461476D01*
X130306924Y-34291645D01*
X130735183Y-33901358D01*
X130810000Y-33742046D01*
X130884817Y-33901358D01*
X131313076Y-34291645D01*
X131723110Y-34461476D01*
X131953000Y-34340155D01*
X131953000Y-33147000D01*
X132207000Y-33147000D01*
X132207000Y-34340155D01*
X132436890Y-34461476D01*
X132846924Y-34291645D01*
X133275183Y-33901358D01*
X133350000Y-33742046D01*
X133424817Y-33901358D01*
X133853076Y-34291645D01*
X134263110Y-34461476D01*
X134493000Y-34340155D01*
X134493000Y-33147000D01*
X134747000Y-33147000D01*
X134747000Y-34340155D01*
X134976890Y-34461476D01*
X135386924Y-34291645D01*
X135815183Y-33901358D01*
X135890000Y-33742046D01*
X135964817Y-33901358D01*
X136393076Y-34291645D01*
X136803110Y-34461476D01*
X137033000Y-34340155D01*
X137033000Y-33147000D01*
X134747000Y-33147000D01*
X134493000Y-33147000D01*
X132207000Y-33147000D01*
X131953000Y-33147000D01*
X129667000Y-33147000D01*
X129413000Y-33147000D01*
X129393000Y-33147000D01*
X129393000Y-32893000D01*
X129413000Y-32893000D01*
X129413000Y-31699845D01*
X129667000Y-31699845D01*
X129667000Y-32893000D01*
X131953000Y-32893000D01*
X131953000Y-31699845D01*
X132207000Y-31699845D01*
X132207000Y-32893000D01*
X134493000Y-32893000D01*
X134493000Y-31699845D01*
X134747000Y-31699845D01*
X134747000Y-32893000D01*
X137033000Y-32893000D01*
X137033000Y-31699845D01*
X137287000Y-31699845D01*
X137287000Y-32893000D01*
X137307000Y-32893000D01*
X137307000Y-33147000D01*
X137287000Y-33147000D01*
X137287000Y-34340155D01*
X137516890Y-34461476D01*
X137926924Y-34291645D01*
X138355183Y-33901358D01*
X138542245Y-33503037D01*
X138812499Y-33907501D01*
X139219688Y-34179576D01*
X139578761Y-34251000D01*
X139821239Y-34251000D01*
X140180312Y-34179576D01*
X140587501Y-33907501D01*
X140859576Y-33500312D01*
X140955116Y-33020000D01*
X140984884Y-33020000D01*
X141080424Y-33500312D01*
X141352499Y-33907501D01*
X141759688Y-34179576D01*
X142118761Y-34251000D01*
X142361239Y-34251000D01*
X142720312Y-34179576D01*
X143127501Y-33907501D01*
X143399576Y-33500312D01*
X143495116Y-33020000D01*
X143524884Y-33020000D01*
X143620424Y-33500312D01*
X143892499Y-33907501D01*
X144299688Y-34179576D01*
X144658761Y-34251000D01*
X144901239Y-34251000D01*
X145260312Y-34179576D01*
X145667501Y-33907501D01*
X145939576Y-33500312D01*
X146035116Y-33020000D01*
X146064884Y-33020000D01*
X146160424Y-33500312D01*
X146432499Y-33907501D01*
X146839688Y-34179576D01*
X147198761Y-34251000D01*
X147441239Y-34251000D01*
X147800312Y-34179576D01*
X148207501Y-33907501D01*
X148479576Y-33500312D01*
X148575116Y-33020000D01*
X148604884Y-33020000D01*
X148700424Y-33500312D01*
X148972499Y-33907501D01*
X149379688Y-34179576D01*
X149738761Y-34251000D01*
X149981239Y-34251000D01*
X150340312Y-34179576D01*
X150747501Y-33907501D01*
X151017755Y-33503037D01*
X151204817Y-33901358D01*
X151633076Y-34291645D01*
X152043110Y-34461476D01*
X152273000Y-34340155D01*
X152273000Y-33147000D01*
X152527000Y-33147000D01*
X152527000Y-34340155D01*
X152756890Y-34461476D01*
X153166924Y-34291645D01*
X153595183Y-33901358D01*
X153841486Y-33376892D01*
X153720819Y-33147000D01*
X152527000Y-33147000D01*
X152273000Y-33147000D01*
X152253000Y-33147000D01*
X152253000Y-32893000D01*
X152273000Y-32893000D01*
X152273000Y-31699845D01*
X152527000Y-31699845D01*
X152527000Y-32893000D01*
X153720819Y-32893000D01*
X153841486Y-32663108D01*
X153595183Y-32138642D01*
X153166924Y-31748355D01*
X152756890Y-31578524D01*
X152527000Y-31699845D01*
X152273000Y-31699845D01*
X152043110Y-31578524D01*
X151633076Y-31748355D01*
X151204817Y-32138642D01*
X151017755Y-32536963D01*
X150747501Y-32132499D01*
X150340312Y-31860424D01*
X149981239Y-31789000D01*
X149738761Y-31789000D01*
X149379688Y-31860424D01*
X148972499Y-32132499D01*
X148700424Y-32539688D01*
X148604884Y-33020000D01*
X148575116Y-33020000D01*
X148479576Y-32539688D01*
X148207501Y-32132499D01*
X147800312Y-31860424D01*
X147441239Y-31789000D01*
X147198761Y-31789000D01*
X146839688Y-31860424D01*
X146432499Y-32132499D01*
X146160424Y-32539688D01*
X146064884Y-33020000D01*
X146035116Y-33020000D01*
X145939576Y-32539688D01*
X145667501Y-32132499D01*
X145260312Y-31860424D01*
X144901239Y-31789000D01*
X144658761Y-31789000D01*
X144299688Y-31860424D01*
X143892499Y-32132499D01*
X143620424Y-32539688D01*
X143524884Y-33020000D01*
X143495116Y-33020000D01*
X143399576Y-32539688D01*
X143127501Y-32132499D01*
X142720312Y-31860424D01*
X142361239Y-31789000D01*
X142118761Y-31789000D01*
X141759688Y-31860424D01*
X141352499Y-32132499D01*
X141080424Y-32539688D01*
X140984884Y-33020000D01*
X140955116Y-33020000D01*
X140859576Y-32539688D01*
X140587501Y-32132499D01*
X140180312Y-31860424D01*
X139821239Y-31789000D01*
X139578761Y-31789000D01*
X139219688Y-31860424D01*
X138812499Y-32132499D01*
X138542245Y-32536963D01*
X138355183Y-32138642D01*
X137926924Y-31748355D01*
X137516890Y-31578524D01*
X137287000Y-31699845D01*
X137033000Y-31699845D01*
X136803110Y-31578524D01*
X136393076Y-31748355D01*
X135964817Y-32138642D01*
X135890000Y-32297954D01*
X135815183Y-32138642D01*
X135386924Y-31748355D01*
X134976890Y-31578524D01*
X134747000Y-31699845D01*
X134493000Y-31699845D01*
X134263110Y-31578524D01*
X133853076Y-31748355D01*
X133424817Y-32138642D01*
X133350000Y-32297954D01*
X133275183Y-32138642D01*
X132846924Y-31748355D01*
X132436890Y-31578524D01*
X132207000Y-31699845D01*
X131953000Y-31699845D01*
X131723110Y-31578524D01*
X131313076Y-31748355D01*
X130884817Y-32138642D01*
X130810000Y-32297954D01*
X130735183Y-32138642D01*
X130306924Y-31748355D01*
X129896890Y-31578524D01*
X129667000Y-31699845D01*
X129413000Y-31699845D01*
X129183110Y-31578524D01*
X128773076Y-31748355D01*
X128344817Y-32138642D01*
X128157755Y-32536963D01*
X127887501Y-32132499D01*
X127480312Y-31860424D01*
X127121239Y-31789000D01*
X126878761Y-31789000D01*
X126519688Y-31860424D01*
X126112499Y-32132499D01*
X125842245Y-32536963D01*
X125655183Y-32138642D01*
X125226924Y-31748355D01*
X124816890Y-31578524D01*
X124587000Y-31699845D01*
X124333000Y-31699845D01*
X124103110Y-31578524D01*
X123693076Y-31748355D01*
X123264817Y-32138642D01*
X123077755Y-32536963D01*
X122807501Y-32132499D01*
X122400312Y-31860424D01*
X122041239Y-31789000D01*
X121798761Y-31789000D01*
X121439688Y-31860424D01*
X121032499Y-32132499D01*
X120760424Y-32539688D01*
X120664884Y-33020000D01*
X120635116Y-33020000D01*
X120539576Y-32539688D01*
X120267501Y-32132499D01*
X119860312Y-31860424D01*
X119501239Y-31789000D01*
X119258761Y-31789000D01*
X118899688Y-31860424D01*
X118492499Y-32132499D01*
X118220424Y-32539688D01*
X118124884Y-33020000D01*
X118095116Y-33020000D01*
X117999576Y-32539688D01*
X117727501Y-32132499D01*
X117320312Y-31860424D01*
X116961239Y-31789000D01*
X116718761Y-31789000D01*
X116359688Y-31860424D01*
X115952499Y-32132499D01*
X115785000Y-32383179D01*
X115785000Y-32043691D01*
X115688327Y-31810302D01*
X115509699Y-31631673D01*
X115276310Y-31535000D01*
X114585750Y-31535000D01*
X114427000Y-31693750D01*
X114173000Y-31693750D01*
X114014250Y-31535000D01*
X113323690Y-31535000D01*
X113090301Y-31631673D01*
X112911673Y-31810302D01*
X112815000Y-32043691D01*
X111892123Y-32043691D01*
X111491966Y-31077628D01*
X110527372Y-30113034D01*
X110186886Y-29972000D01*
X181913114Y-29972000D01*
X181572628Y-30113034D01*
X180608034Y-31077628D01*
X180086000Y-32337930D01*
X180086000Y-33702070D01*
X180608034Y-34962372D01*
X181572628Y-35926966D01*
X182832930Y-36449000D01*
X184197070Y-36449000D01*
X185457372Y-35926966D01*
X186421966Y-34962372D01*
X186944000Y-33702070D01*
X186944000Y-32337930D01*
X186421966Y-31077628D01*
X185457372Y-30113034D01*
X185116886Y-29972000D01*
X188542394Y-29972000D01*
X189738000Y-31167606D01*
X189738000Y-39731915D01*
X189476358Y-39444817D01*
X188951892Y-39198514D01*
X188722000Y-39319181D01*
X188722000Y-40513000D01*
X188742000Y-40513000D01*
X188742000Y-40767000D01*
X188722000Y-40767000D01*
X188722000Y-40787000D01*
X188468000Y-40787000D01*
X188468000Y-40767000D01*
X187274845Y-40767000D01*
X187153524Y-40996890D01*
X187323355Y-41406924D01*
X187713642Y-41835183D01*
X187940105Y-41941536D01*
X187745000Y-41941536D01*
X187596341Y-41971106D01*
X187470314Y-42055314D01*
X187386106Y-42181341D01*
X187356536Y-42330000D01*
X187356536Y-44030000D01*
X187386106Y-44178659D01*
X187470314Y-44304686D01*
X187596341Y-44388894D01*
X187745000Y-44418464D01*
X189445000Y-44418464D01*
X189593659Y-44388894D01*
X189719686Y-44304686D01*
X189738000Y-44277277D01*
X189738000Y-69162394D01*
X188542394Y-70358000D01*
X177627277Y-70358000D01*
X177654686Y-70339686D01*
X177738894Y-70213659D01*
X177768464Y-70065000D01*
X177768464Y-68365000D01*
X177738894Y-68216341D01*
X177654686Y-68090314D01*
X177528659Y-68006106D01*
X177380000Y-67976536D01*
X175680000Y-67976536D01*
X175531341Y-68006106D01*
X175405314Y-68090314D01*
X175321106Y-68216341D01*
X175291536Y-68365000D01*
X175291536Y-68560105D01*
X175185183Y-68333642D01*
X174756924Y-67943355D01*
X174346890Y-67773524D01*
X174117000Y-67894845D01*
X174117000Y-69088000D01*
X174137000Y-69088000D01*
X174137000Y-69342000D01*
X174117000Y-69342000D01*
X174117000Y-69362000D01*
X173863000Y-69362000D01*
X173863000Y-69342000D01*
X172669181Y-69342000D01*
X172548514Y-69571892D01*
X172794817Y-70096358D01*
X173081915Y-70358000D01*
X170007277Y-70358000D01*
X170034686Y-70339686D01*
X170118894Y-70213659D01*
X170148464Y-70065000D01*
X170148464Y-68858108D01*
X172548514Y-68858108D01*
X172669181Y-69088000D01*
X173863000Y-69088000D01*
X173863000Y-67894845D01*
X173633110Y-67773524D01*
X173223076Y-67943355D01*
X172794817Y-68333642D01*
X172548514Y-68858108D01*
X170148464Y-68858108D01*
X170148464Y-68365000D01*
X170118894Y-68216341D01*
X170034686Y-68090314D01*
X169908659Y-68006106D01*
X169760000Y-67976536D01*
X168060000Y-67976536D01*
X167911341Y-68006106D01*
X167785314Y-68090314D01*
X167701106Y-68216341D01*
X167671536Y-68365000D01*
X167671536Y-68560105D01*
X167565183Y-68333642D01*
X167136924Y-67943355D01*
X166726890Y-67773524D01*
X166497000Y-67894845D01*
X166497000Y-69088000D01*
X166517000Y-69088000D01*
X166517000Y-69342000D01*
X166497000Y-69342000D01*
X166497000Y-69362000D01*
X166243000Y-69362000D01*
X166243000Y-69342000D01*
X165049181Y-69342000D01*
X164928514Y-69571892D01*
X165174817Y-70096358D01*
X165461915Y-70358000D01*
X162387277Y-70358000D01*
X162414686Y-70339686D01*
X162498894Y-70213659D01*
X162528464Y-70065000D01*
X162528464Y-68858108D01*
X164928514Y-68858108D01*
X165049181Y-69088000D01*
X166243000Y-69088000D01*
X166243000Y-67894845D01*
X166013110Y-67773524D01*
X165603076Y-67943355D01*
X165174817Y-68333642D01*
X164928514Y-68858108D01*
X162528464Y-68858108D01*
X162528464Y-68365000D01*
X162498894Y-68216341D01*
X162414686Y-68090314D01*
X162288659Y-68006106D01*
X162140000Y-67976536D01*
X160440000Y-67976536D01*
X160291341Y-68006106D01*
X160165314Y-68090314D01*
X160081106Y-68216341D01*
X160051536Y-68365000D01*
X160051536Y-68560105D01*
X159945183Y-68333642D01*
X159516924Y-67943355D01*
X159106890Y-67773524D01*
X158877000Y-67894845D01*
X158877000Y-69088000D01*
X158897000Y-69088000D01*
X158897000Y-69342000D01*
X158877000Y-69342000D01*
X158877000Y-69362000D01*
X158623000Y-69362000D01*
X158623000Y-69342000D01*
X157429181Y-69342000D01*
X157308514Y-69571892D01*
X157554817Y-70096358D01*
X157841915Y-70358000D01*
X154767277Y-70358000D01*
X154794686Y-70339686D01*
X154878894Y-70213659D01*
X154908464Y-70065000D01*
X154908464Y-68858108D01*
X157308514Y-68858108D01*
X157429181Y-69088000D01*
X158623000Y-69088000D01*
X158623000Y-67894845D01*
X158393110Y-67773524D01*
X157983076Y-67943355D01*
X157554817Y-68333642D01*
X157308514Y-68858108D01*
X154908464Y-68858108D01*
X154908464Y-68365000D01*
X154878894Y-68216341D01*
X154794686Y-68090314D01*
X154668659Y-68006106D01*
X154520000Y-67976536D01*
X152820000Y-67976536D01*
X152671341Y-68006106D01*
X152545314Y-68090314D01*
X152461106Y-68216341D01*
X152431536Y-68365000D01*
X152431536Y-70065000D01*
X152461106Y-70213659D01*
X152545314Y-70339686D01*
X152572723Y-70358000D01*
X151635120Y-70358000D01*
X152017501Y-70102501D01*
X152289576Y-69695312D01*
X152385116Y-69215000D01*
X152289576Y-68734688D01*
X152017501Y-68327499D01*
X151610312Y-68055424D01*
X151251239Y-67984000D01*
X151008761Y-67984000D01*
X150649688Y-68055424D01*
X150242499Y-68327499D01*
X149972245Y-68731963D01*
X149785183Y-68333642D01*
X149356924Y-67943355D01*
X148946890Y-67773524D01*
X148717000Y-67894845D01*
X148717000Y-69088000D01*
X148737000Y-69088000D01*
X148737000Y-69342000D01*
X148717000Y-69342000D01*
X148717000Y-69362000D01*
X148463000Y-69362000D01*
X148463000Y-69342000D01*
X148443000Y-69342000D01*
X148443000Y-69088000D01*
X148463000Y-69088000D01*
X148463000Y-67894845D01*
X148233110Y-67773524D01*
X147823076Y-67943355D01*
X147394817Y-68333642D01*
X147207755Y-68731963D01*
X146937501Y-68327499D01*
X146530312Y-68055424D01*
X146171239Y-67984000D01*
X145928761Y-67984000D01*
X145569688Y-68055424D01*
X145162499Y-68327499D01*
X144890424Y-68734688D01*
X144794884Y-69215000D01*
X144890424Y-69695312D01*
X145162499Y-70102501D01*
X145544880Y-70358000D01*
X144015120Y-70358000D01*
X144397501Y-70102501D01*
X144669576Y-69695312D01*
X144765116Y-69215000D01*
X144669576Y-68734688D01*
X144397501Y-68327499D01*
X143990312Y-68055424D01*
X143631239Y-67984000D01*
X143388761Y-67984000D01*
X143029688Y-68055424D01*
X142622499Y-68327499D01*
X142350424Y-68734688D01*
X142254884Y-69215000D01*
X142350424Y-69695312D01*
X142622499Y-70102501D01*
X143004880Y-70358000D01*
X118572277Y-70358000D01*
X118599686Y-70339686D01*
X118683894Y-70213659D01*
X118713464Y-70065000D01*
X118713464Y-68365000D01*
X118683894Y-68216341D01*
X118599686Y-68090314D01*
X118473659Y-68006106D01*
X118325000Y-67976536D01*
X116625000Y-67976536D01*
X116476341Y-68006106D01*
X116350314Y-68090314D01*
X116266106Y-68216341D01*
X116236536Y-68365000D01*
X116236536Y-68560105D01*
X116130183Y-68333642D01*
X115701924Y-67943355D01*
X115291890Y-67773524D01*
X115062000Y-67894845D01*
X115062000Y-69088000D01*
X115082000Y-69088000D01*
X115082000Y-69342000D01*
X115062000Y-69342000D01*
X115062000Y-69362000D01*
X114808000Y-69362000D01*
X114808000Y-69342000D01*
X113614181Y-69342000D01*
X113493514Y-69571892D01*
X113739817Y-70096358D01*
X114026915Y-70358000D01*
X101017606Y-70358000D01*
X99822000Y-69162394D01*
X99822000Y-68858108D01*
X113493514Y-68858108D01*
X113614181Y-69088000D01*
X114808000Y-69088000D01*
X114808000Y-67894845D01*
X114578110Y-67773524D01*
X114168076Y-67943355D01*
X113739817Y-68333642D01*
X113493514Y-68858108D01*
X99822000Y-68858108D01*
X99822000Y-63920000D01*
X100361536Y-63920000D01*
X100361536Y-65620000D01*
X100391106Y-65768659D01*
X100475314Y-65894686D01*
X100601341Y-65978894D01*
X100750000Y-66008464D01*
X102450000Y-66008464D01*
X102598659Y-65978894D01*
X102724686Y-65894686D01*
X102808894Y-65768659D01*
X102838464Y-65620000D01*
X102838464Y-63920000D01*
X102808894Y-63771341D01*
X102724686Y-63645314D01*
X102598659Y-63561106D01*
X102450000Y-63531536D01*
X100750000Y-63531536D01*
X100601341Y-63561106D01*
X100475314Y-63645314D01*
X100391106Y-63771341D01*
X100361536Y-63920000D01*
X99822000Y-63920000D01*
X99822000Y-60046890D01*
X100158524Y-60046890D01*
X100328355Y-60456924D01*
X100718642Y-60885183D01*
X101116963Y-61072245D01*
X100712499Y-61342499D01*
X100440424Y-61749688D01*
X100344884Y-62230000D01*
X100440424Y-62710312D01*
X100712499Y-63117501D01*
X101119688Y-63389576D01*
X101478761Y-63461000D01*
X101721239Y-63461000D01*
X101761809Y-63452930D01*
X105156000Y-63452930D01*
X105156000Y-64817070D01*
X105678034Y-66077372D01*
X106642628Y-67041966D01*
X107902930Y-67564000D01*
X109267070Y-67564000D01*
X110527372Y-67041966D01*
X111491966Y-66077372D01*
X112014000Y-64817070D01*
X112014000Y-63452930D01*
X180086000Y-63452930D01*
X180086000Y-64817070D01*
X180608034Y-66077372D01*
X181572628Y-67041966D01*
X182832930Y-67564000D01*
X184197070Y-67564000D01*
X185457372Y-67041966D01*
X186421966Y-66077372D01*
X186944000Y-64817070D01*
X186944000Y-63452930D01*
X186421966Y-62192628D01*
X185457372Y-61228034D01*
X184197070Y-60706000D01*
X182832930Y-60706000D01*
X181572628Y-61228034D01*
X180608034Y-62192628D01*
X180086000Y-63452930D01*
X112014000Y-63452930D01*
X111491966Y-62192628D01*
X110527372Y-61228034D01*
X109267070Y-60706000D01*
X107902930Y-60706000D01*
X106642628Y-61228034D01*
X105678034Y-62192628D01*
X105156000Y-63452930D01*
X101761809Y-63452930D01*
X102080312Y-63389576D01*
X102487501Y-63117501D01*
X102759576Y-62710312D01*
X102855116Y-62230000D01*
X102759576Y-61749688D01*
X102487501Y-61342499D01*
X102083037Y-61072245D01*
X102481358Y-60885183D01*
X102871645Y-60456924D01*
X103041476Y-60046890D01*
X102920155Y-59817000D01*
X101727000Y-59817000D01*
X101727000Y-59837000D01*
X101473000Y-59837000D01*
X101473000Y-59817000D01*
X100279845Y-59817000D01*
X100158524Y-60046890D01*
X99822000Y-60046890D01*
X99822000Y-59333110D01*
X100158524Y-59333110D01*
X100279845Y-59563000D01*
X101473000Y-59563000D01*
X101473000Y-59543000D01*
X101727000Y-59543000D01*
X101727000Y-59563000D01*
X102920155Y-59563000D01*
X103041476Y-59333110D01*
X102871645Y-58923076D01*
X102481358Y-58494817D01*
X102083037Y-58307755D01*
X102487501Y-58037501D01*
X102675160Y-57756649D01*
X113519000Y-57756649D01*
X113519000Y-58067351D01*
X113637900Y-58354401D01*
X113728501Y-58445002D01*
X113728500Y-61061999D01*
X113637900Y-61152599D01*
X113519000Y-61439649D01*
X113519000Y-61750351D01*
X113637900Y-62037401D01*
X113857599Y-62257100D01*
X114144649Y-62376000D01*
X114455351Y-62376000D01*
X114742401Y-62257100D01*
X114962100Y-62037401D01*
X115081000Y-61750351D01*
X115081000Y-61439649D01*
X114962100Y-61152599D01*
X114871500Y-61061999D01*
X114871500Y-59398802D01*
X116014500Y-59398802D01*
X116014500Y-59727206D01*
X116140174Y-60030612D01*
X116268501Y-60158939D01*
X116268500Y-60999066D01*
X116140174Y-61127392D01*
X116014500Y-61430798D01*
X116014500Y-61759202D01*
X116140174Y-62062608D01*
X116372392Y-62294826D01*
X116675798Y-62420500D01*
X117004202Y-62420500D01*
X117307608Y-62294826D01*
X117539826Y-62062608D01*
X117665500Y-61759202D01*
X117665500Y-61430798D01*
X117539826Y-61127392D01*
X117411500Y-60999066D01*
X117411500Y-60158938D01*
X117539826Y-60030612D01*
X117665500Y-59727206D01*
X117665500Y-59398802D01*
X117539826Y-59095396D01*
X117307608Y-58863178D01*
X117004202Y-58737504D01*
X116675798Y-58737504D01*
X116372392Y-58863178D01*
X116140174Y-59095396D01*
X116014500Y-59398802D01*
X114871500Y-59398802D01*
X114871500Y-58445001D01*
X114962100Y-58354401D01*
X115002942Y-58255798D01*
X117919500Y-58255798D01*
X117919500Y-58584202D01*
X118045174Y-58887608D01*
X118173501Y-59015935D01*
X118173500Y-60999066D01*
X118045174Y-61127392D01*
X117919500Y-61430798D01*
X117919500Y-61759202D01*
X118045174Y-62062608D01*
X118277392Y-62294826D01*
X118580798Y-62420500D01*
X118909202Y-62420500D01*
X119212608Y-62294826D01*
X119444826Y-62062608D01*
X119570500Y-61759202D01*
X119570500Y-61430798D01*
X119444826Y-61127392D01*
X119316500Y-60999066D01*
X119316500Y-59465030D01*
X136029000Y-59465030D01*
X136029000Y-59914970D01*
X136201184Y-60330660D01*
X136519340Y-60648816D01*
X136935030Y-60821000D01*
X137384970Y-60821000D01*
X137800660Y-60648816D01*
X138118816Y-60330660D01*
X138291000Y-59914970D01*
X138291000Y-59465030D01*
X140929000Y-59465030D01*
X140929000Y-59914970D01*
X141101184Y-60330660D01*
X141419340Y-60648816D01*
X141835030Y-60821000D01*
X142284970Y-60821000D01*
X142700660Y-60648816D01*
X143018816Y-60330660D01*
X143191000Y-59914970D01*
X143191000Y-59465030D01*
X143018816Y-59049340D01*
X142700660Y-58731184D01*
X142284970Y-58559000D01*
X141835030Y-58559000D01*
X141419340Y-58731184D01*
X141101184Y-59049340D01*
X140929000Y-59465030D01*
X138291000Y-59465030D01*
X138118816Y-59049340D01*
X137800660Y-58731184D01*
X137384970Y-58559000D01*
X136935030Y-58559000D01*
X136519340Y-58731184D01*
X136201184Y-59049340D01*
X136029000Y-59465030D01*
X119316500Y-59465030D01*
X119316500Y-59015934D01*
X119444826Y-58887608D01*
X119570500Y-58584202D01*
X119570500Y-58255798D01*
X119444826Y-57952392D01*
X119212608Y-57720174D01*
X118909202Y-57594500D01*
X118580798Y-57594500D01*
X118277392Y-57720174D01*
X118045174Y-57952392D01*
X117919500Y-58255798D01*
X115002942Y-58255798D01*
X115081000Y-58067351D01*
X115081000Y-57756649D01*
X114962100Y-57469599D01*
X114742401Y-57249900D01*
X114455351Y-57131000D01*
X114144649Y-57131000D01*
X113857599Y-57249900D01*
X113637900Y-57469599D01*
X113519000Y-57756649D01*
X102675160Y-57756649D01*
X102759576Y-57630312D01*
X102855116Y-57150000D01*
X102759576Y-56669688D01*
X102487501Y-56262499D01*
X102080312Y-55990424D01*
X101721239Y-55919000D01*
X101478761Y-55919000D01*
X101119688Y-55990424D01*
X100712499Y-56262499D01*
X100440424Y-56669688D01*
X100344884Y-57150000D01*
X100440424Y-57630312D01*
X100712499Y-58037501D01*
X101116963Y-58307755D01*
X100718642Y-58494817D01*
X100328355Y-58923076D01*
X100158524Y-59333110D01*
X99822000Y-59333110D01*
X99822000Y-54610000D01*
X100344884Y-54610000D01*
X100440424Y-55090312D01*
X100712499Y-55497501D01*
X101119688Y-55769576D01*
X101478761Y-55841000D01*
X101721239Y-55841000D01*
X102080312Y-55769576D01*
X102147550Y-55724649D01*
X117964000Y-55724649D01*
X117964000Y-56035351D01*
X118082900Y-56322401D01*
X118302599Y-56542100D01*
X118589649Y-56661000D01*
X118900351Y-56661000D01*
X119187401Y-56542100D01*
X119278001Y-56451500D01*
X125196999Y-56451500D01*
X125287599Y-56542100D01*
X125574649Y-56661000D01*
X125885351Y-56661000D01*
X126172401Y-56542100D01*
X126392100Y-56322401D01*
X126511000Y-56035351D01*
X126511000Y-55724649D01*
X126392100Y-55437599D01*
X126172401Y-55217900D01*
X125885351Y-55099000D01*
X125574649Y-55099000D01*
X125287599Y-55217900D01*
X125196999Y-55308500D01*
X119278001Y-55308500D01*
X119187401Y-55217900D01*
X118900351Y-55099000D01*
X118589649Y-55099000D01*
X118302599Y-55217900D01*
X118082900Y-55437599D01*
X117964000Y-55724649D01*
X102147550Y-55724649D01*
X102487501Y-55497501D01*
X102759576Y-55090312D01*
X102855116Y-54610000D01*
X102759576Y-54129688D01*
X102487501Y-53722499D01*
X102080312Y-53450424D01*
X101721239Y-53379000D01*
X101478761Y-53379000D01*
X101119688Y-53450424D01*
X100712499Y-53722499D01*
X100440424Y-54129688D01*
X100344884Y-54610000D01*
X99822000Y-54610000D01*
X99822000Y-52549649D01*
X145904000Y-52549649D01*
X145904000Y-52860351D01*
X146022900Y-53147401D01*
X146113501Y-53238002D01*
X146113500Y-53918718D01*
X146102305Y-53975000D01*
X146113500Y-54031281D01*
X146113500Y-54031285D01*
X146126996Y-54099134D01*
X146126995Y-55689821D01*
X146036395Y-55780421D01*
X145917495Y-56067471D01*
X145917495Y-56378173D01*
X146036395Y-56665223D01*
X146256094Y-56884922D01*
X146543144Y-57003822D01*
X146853846Y-57003822D01*
X147140896Y-56884922D01*
X147360595Y-56665223D01*
X147479495Y-56378173D01*
X147479495Y-56067471D01*
X147360595Y-55780421D01*
X147269995Y-55689821D01*
X147269995Y-54044777D01*
X147281190Y-53988495D01*
X147269995Y-53932213D01*
X147269995Y-53932209D01*
X147256500Y-53864365D01*
X147256500Y-53238001D01*
X147347100Y-53147401D01*
X147466000Y-52860351D01*
X147466000Y-52549649D01*
X147347100Y-52262599D01*
X147127401Y-52042900D01*
X146840351Y-51924000D01*
X146529649Y-51924000D01*
X146242599Y-52042900D01*
X146022900Y-52262599D01*
X145904000Y-52549649D01*
X99822000Y-52549649D01*
X99822000Y-48104649D01*
X100184000Y-48104649D01*
X100184000Y-48415351D01*
X100302900Y-48702401D01*
X100406996Y-48806497D01*
X100406995Y-50635211D01*
X100316395Y-50725811D01*
X100197495Y-51012861D01*
X100197495Y-51323563D01*
X100316395Y-51610613D01*
X100536094Y-51830312D01*
X100823144Y-51949212D01*
X101133846Y-51949212D01*
X101420896Y-51830312D01*
X101640595Y-51610613D01*
X101759495Y-51323563D01*
X101759495Y-51012861D01*
X101640595Y-50725811D01*
X101549995Y-50635211D01*
X101549995Y-48779506D01*
X101627100Y-48702401D01*
X101746000Y-48415351D01*
X101746000Y-48104649D01*
X101627100Y-47817599D01*
X101407401Y-47597900D01*
X101120351Y-47479000D01*
X100809649Y-47479000D01*
X100522599Y-47597900D01*
X100302900Y-47817599D01*
X100184000Y-48104649D01*
X99822000Y-48104649D01*
X99822000Y-46005750D01*
X100115000Y-46005750D01*
X100115000Y-46696310D01*
X100211673Y-46929699D01*
X100390302Y-47108327D01*
X100623691Y-47205000D01*
X101314250Y-47205000D01*
X101473000Y-47046250D01*
X101473000Y-45847000D01*
X101727000Y-45847000D01*
X101727000Y-47046250D01*
X101885750Y-47205000D01*
X102576309Y-47205000D01*
X102809698Y-47108327D01*
X102988327Y-46929699D01*
X103085000Y-46696310D01*
X103085000Y-46005750D01*
X102926250Y-45847000D01*
X101727000Y-45847000D01*
X101473000Y-45847000D01*
X100273750Y-45847000D01*
X100115000Y-46005750D01*
X99822000Y-46005750D01*
X99822000Y-44743690D01*
X100115000Y-44743690D01*
X100115000Y-45434250D01*
X100273750Y-45593000D01*
X101473000Y-45593000D01*
X101473000Y-45573000D01*
X101727000Y-45573000D01*
X101727000Y-45593000D01*
X102926250Y-45593000D01*
X103085000Y-45434250D01*
X103085000Y-44743690D01*
X102988327Y-44510301D01*
X102809698Y-44331673D01*
X102720315Y-44294649D01*
X128759000Y-44294649D01*
X128759000Y-44605351D01*
X128841501Y-44804526D01*
X128841500Y-46635476D01*
X128759000Y-46834649D01*
X128759000Y-47145351D01*
X128877900Y-47432401D01*
X129097599Y-47652100D01*
X129384649Y-47771000D01*
X129695351Y-47771000D01*
X129982401Y-47652100D01*
X130202100Y-47432401D01*
X130321000Y-47145351D01*
X130321000Y-46834649D01*
X130238500Y-46635476D01*
X130238500Y-44804524D01*
X130321000Y-44605351D01*
X130321000Y-44294649D01*
X130919000Y-44294649D01*
X130919000Y-44605351D01*
X131001501Y-44804526D01*
X131001500Y-46635476D01*
X130919000Y-46834649D01*
X130919000Y-47145351D01*
X131037900Y-47432401D01*
X131257599Y-47652100D01*
X131544649Y-47771000D01*
X131855351Y-47771000D01*
X132142401Y-47652100D01*
X132362100Y-47432401D01*
X132481000Y-47145351D01*
X132481000Y-46834649D01*
X132456283Y-46774976D01*
X180529000Y-46774976D01*
X180529000Y-47205024D01*
X180693572Y-47602337D01*
X180997663Y-47906428D01*
X181394976Y-48071000D01*
X181825024Y-48071000D01*
X182176836Y-47925275D01*
X183354331Y-47925275D01*
X183416169Y-48161042D01*
X183917122Y-48337419D01*
X184447440Y-48308664D01*
X184803831Y-48161042D01*
X184865669Y-47925275D01*
X184110000Y-47169605D01*
X183354331Y-47925275D01*
X182176836Y-47925275D01*
X182222337Y-47906428D01*
X182526428Y-47602337D01*
X182691000Y-47205024D01*
X182691000Y-46797122D01*
X182762581Y-46797122D01*
X182791336Y-47327440D01*
X182938958Y-47683831D01*
X183174725Y-47745669D01*
X183930395Y-46990000D01*
X184289605Y-46990000D01*
X185045275Y-47745669D01*
X185281042Y-47683831D01*
X185457419Y-47182878D01*
X185428664Y-46652560D01*
X185281042Y-46296169D01*
X185045275Y-46234331D01*
X184289605Y-46990000D01*
X183930395Y-46990000D01*
X183174725Y-46234331D01*
X182938958Y-46296169D01*
X182762581Y-46797122D01*
X182691000Y-46797122D01*
X182691000Y-46774976D01*
X182526428Y-46377663D01*
X182222337Y-46073572D01*
X182176837Y-46054725D01*
X183354331Y-46054725D01*
X184110000Y-46810395D01*
X184865669Y-46054725D01*
X184803831Y-45818958D01*
X184302878Y-45642581D01*
X183772560Y-45671336D01*
X183416169Y-45818958D01*
X183354331Y-46054725D01*
X182176837Y-46054725D01*
X181825024Y-45909000D01*
X181394976Y-45909000D01*
X180997663Y-46073572D01*
X180693572Y-46377663D01*
X180529000Y-46774976D01*
X132456283Y-46774976D01*
X132398500Y-46635476D01*
X132398500Y-44804524D01*
X132481000Y-44605351D01*
X132481000Y-44294649D01*
X132362100Y-44007599D01*
X132142401Y-43787900D01*
X131855351Y-43669000D01*
X131544649Y-43669000D01*
X131257599Y-43787900D01*
X131037900Y-44007599D01*
X130919000Y-44294649D01*
X130321000Y-44294649D01*
X130202100Y-44007599D01*
X129982401Y-43787900D01*
X129695351Y-43669000D01*
X129384649Y-43669000D01*
X129097599Y-43787900D01*
X128877900Y-44007599D01*
X128759000Y-44294649D01*
X102720315Y-44294649D01*
X102576309Y-44235000D01*
X102236821Y-44235000D01*
X102487501Y-44067501D01*
X102759576Y-43660312D01*
X102771577Y-43599976D01*
X163384000Y-43599976D01*
X163384000Y-44030024D01*
X163548572Y-44427337D01*
X163852663Y-44731428D01*
X164249976Y-44896000D01*
X164680024Y-44896000D01*
X165031836Y-44750275D01*
X166209331Y-44750275D01*
X166271169Y-44986042D01*
X166772122Y-45162419D01*
X167302440Y-45133664D01*
X167658831Y-44986042D01*
X167720669Y-44750275D01*
X166965000Y-43994605D01*
X166209331Y-44750275D01*
X165031836Y-44750275D01*
X165077337Y-44731428D01*
X165381428Y-44427337D01*
X165546000Y-44030024D01*
X165546000Y-43622122D01*
X165617581Y-43622122D01*
X165646336Y-44152440D01*
X165793958Y-44508831D01*
X166029725Y-44570669D01*
X166785395Y-43815000D01*
X167144605Y-43815000D01*
X167900275Y-44570669D01*
X168136042Y-44508831D01*
X168312419Y-44007878D01*
X168283664Y-43477560D01*
X168136042Y-43121169D01*
X167900275Y-43059331D01*
X167144605Y-43815000D01*
X166785395Y-43815000D01*
X166029725Y-43059331D01*
X165793958Y-43121169D01*
X165617581Y-43622122D01*
X165546000Y-43622122D01*
X165546000Y-43599976D01*
X165381428Y-43202663D01*
X165077337Y-42898572D01*
X165031837Y-42879725D01*
X166209331Y-42879725D01*
X166965000Y-43635395D01*
X167720669Y-42879725D01*
X167658831Y-42643958D01*
X167157878Y-42467581D01*
X166627560Y-42496336D01*
X166271169Y-42643958D01*
X166209331Y-42879725D01*
X165031837Y-42879725D01*
X164680024Y-42734000D01*
X164249976Y-42734000D01*
X163852663Y-42898572D01*
X163548572Y-43202663D01*
X163384000Y-43599976D01*
X102771577Y-43599976D01*
X102855116Y-43180000D01*
X102759576Y-42699688D01*
X102487501Y-42292499D01*
X102080312Y-42020424D01*
X101721239Y-41949000D01*
X101478761Y-41949000D01*
X101119688Y-42020424D01*
X100712499Y-42292499D01*
X100440424Y-42699688D01*
X100344884Y-43180000D01*
X100440424Y-43660312D01*
X100712499Y-44067501D01*
X100963179Y-44235000D01*
X100623691Y-44235000D01*
X100390302Y-44331673D01*
X100211673Y-44510301D01*
X100115000Y-44743690D01*
X99822000Y-44743690D01*
X99822000Y-40640000D01*
X100344884Y-40640000D01*
X100440424Y-41120312D01*
X100712499Y-41527501D01*
X101119688Y-41799576D01*
X101478761Y-41871000D01*
X101721239Y-41871000D01*
X102080312Y-41799576D01*
X102487501Y-41527501D01*
X102759576Y-41120312D01*
X102855116Y-40640000D01*
X102784127Y-40283110D01*
X187153524Y-40283110D01*
X187274845Y-40513000D01*
X188468000Y-40513000D01*
X188468000Y-39319181D01*
X188238108Y-39198514D01*
X187713642Y-39444817D01*
X187323355Y-39873076D01*
X187153524Y-40283110D01*
X102784127Y-40283110D01*
X102759576Y-40159688D01*
X102487501Y-39752499D01*
X102080312Y-39480424D01*
X101721239Y-39409000D01*
X101478761Y-39409000D01*
X101119688Y-39480424D01*
X100712499Y-39752499D01*
X100440424Y-40159688D01*
X100344884Y-40640000D01*
X99822000Y-40640000D01*
X99822000Y-38100000D01*
X100344884Y-38100000D01*
X100440424Y-38580312D01*
X100712499Y-38987501D01*
X101119688Y-39259576D01*
X101478761Y-39331000D01*
X101721239Y-39331000D01*
X102080312Y-39259576D01*
X102487501Y-38987501D01*
X102759576Y-38580312D01*
X102855116Y-38100000D01*
X102759576Y-37619688D01*
X102512559Y-37250000D01*
X153701536Y-37250000D01*
X153701536Y-38950000D01*
X153731106Y-39098659D01*
X153815314Y-39224686D01*
X153941341Y-39308894D01*
X154090000Y-39338464D01*
X155790000Y-39338464D01*
X155938659Y-39308894D01*
X156064686Y-39224686D01*
X156148894Y-39098659D01*
X156178464Y-38950000D01*
X156178464Y-38100000D01*
X156224884Y-38100000D01*
X156320424Y-38580312D01*
X156592499Y-38987501D01*
X156999688Y-39259576D01*
X157358761Y-39331000D01*
X157601239Y-39331000D01*
X157960312Y-39259576D01*
X158367501Y-38987501D01*
X158639576Y-38580312D01*
X158735116Y-38100000D01*
X158639576Y-37619688D01*
X158367501Y-37212499D01*
X157960312Y-36940424D01*
X157601239Y-36869000D01*
X157358761Y-36869000D01*
X156999688Y-36940424D01*
X156592499Y-37212499D01*
X156320424Y-37619688D01*
X156224884Y-38100000D01*
X156178464Y-38100000D01*
X156178464Y-37250000D01*
X156148894Y-37101341D01*
X156064686Y-36975314D01*
X155938659Y-36891106D01*
X155790000Y-36861536D01*
X154090000Y-36861536D01*
X153941341Y-36891106D01*
X153815314Y-36975314D01*
X153731106Y-37101341D01*
X153701536Y-37250000D01*
X102512559Y-37250000D01*
X102487501Y-37212499D01*
X102080312Y-36940424D01*
X101721239Y-36869000D01*
X101478761Y-36869000D01*
X101119688Y-36940424D01*
X100712499Y-37212499D01*
X100440424Y-37619688D01*
X100344884Y-38100000D01*
X99822000Y-38100000D01*
X99822000Y-35560000D01*
X100344884Y-35560000D01*
X100440424Y-36040312D01*
X100712499Y-36447501D01*
X101119688Y-36719576D01*
X101478761Y-36791000D01*
X101721239Y-36791000D01*
X102080312Y-36719576D01*
X102487501Y-36447501D01*
X102759576Y-36040312D01*
X102855116Y-35560000D01*
X102759576Y-35079688D01*
X102487501Y-34672499D01*
X102080312Y-34400424D01*
X101721239Y-34329000D01*
X101478761Y-34329000D01*
X101119688Y-34400424D01*
X100712499Y-34672499D01*
X100440424Y-35079688D01*
X100344884Y-35560000D01*
X99822000Y-35560000D01*
X99822000Y-31167606D01*
X101017606Y-29972000D01*
X106983114Y-29972000D01*
X106642628Y-30113034D01*
X106642628Y-30113034D01*
G37*
X106642628Y-30113034D02*
X105678034Y-31077628D01*
X105156000Y-32337930D01*
X105156000Y-33702070D01*
X105678034Y-34962372D01*
X106642628Y-35926966D01*
X107902930Y-36449000D01*
X109267070Y-36449000D01*
X110527372Y-35926966D01*
X111491966Y-34962372D01*
X112014000Y-33702070D01*
X112014000Y-33305750D01*
X112815000Y-33305750D01*
X112815000Y-33996309D01*
X112911673Y-34229698D01*
X113090301Y-34408327D01*
X113323690Y-34505000D01*
X114014250Y-34505000D01*
X114173000Y-34346250D01*
X114173000Y-33147000D01*
X112973750Y-33147000D01*
X112815000Y-33305750D01*
X112014000Y-33305750D01*
X112014000Y-32337930D01*
X111892123Y-32043691D01*
X112815000Y-32043691D01*
X112815000Y-32734250D01*
X112973750Y-32893000D01*
X114173000Y-32893000D01*
X114173000Y-31693750D01*
X114427000Y-31693750D01*
X114427000Y-32893000D01*
X114447000Y-32893000D01*
X114447000Y-33147000D01*
X114427000Y-33147000D01*
X114427000Y-34346250D01*
X114585750Y-34505000D01*
X115276310Y-34505000D01*
X115509699Y-34408327D01*
X115688327Y-34229698D01*
X115785000Y-33996309D01*
X115785000Y-33656821D01*
X115952499Y-33907501D01*
X116359688Y-34179576D01*
X116718761Y-34251000D01*
X116961239Y-34251000D01*
X117320312Y-34179576D01*
X117727501Y-33907501D01*
X117999576Y-33500312D01*
X118095116Y-33020000D01*
X118124884Y-33020000D01*
X118220424Y-33500312D01*
X118492499Y-33907501D01*
X118899688Y-34179576D01*
X119258761Y-34251000D01*
X119501239Y-34251000D01*
X119860312Y-34179576D01*
X120267501Y-33907501D01*
X120539576Y-33500312D01*
X120635116Y-33020000D01*
X120664884Y-33020000D01*
X120760424Y-33500312D01*
X121032499Y-33907501D01*
X121439688Y-34179576D01*
X121798761Y-34251000D01*
X122041239Y-34251000D01*
X122400312Y-34179576D01*
X122807501Y-33907501D01*
X123077755Y-33503037D01*
X123264817Y-33901358D01*
X123693076Y-34291645D01*
X124103110Y-34461476D01*
X124333000Y-34340155D01*
X124333000Y-33147000D01*
X124313000Y-33147000D01*
X124313000Y-32893000D01*
X124333000Y-32893000D01*
X124333000Y-31699845D01*
X124587000Y-31699845D01*
X124587000Y-32893000D01*
X124607000Y-32893000D01*
X124607000Y-33147000D01*
X124587000Y-33147000D01*
X124587000Y-34340155D01*
X124816890Y-34461476D01*
X125226924Y-34291645D01*
X125655183Y-33901358D01*
X125842245Y-33503037D01*
X126112499Y-33907501D01*
X126519688Y-34179576D01*
X126878761Y-34251000D01*
X127121239Y-34251000D01*
X127480312Y-34179576D01*
X127887501Y-33907501D01*
X128157755Y-33503037D01*
X128344817Y-33901358D01*
X128773076Y-34291645D01*
X129183110Y-34461476D01*
X129413000Y-34340155D01*
X129413000Y-33147000D01*
X129667000Y-33147000D01*
X129667000Y-34340155D01*
X129896890Y-34461476D01*
X130306924Y-34291645D01*
X130735183Y-33901358D01*
X130810000Y-33742046D01*
X130884817Y-33901358D01*
X131313076Y-34291645D01*
X131723110Y-34461476D01*
X131953000Y-34340155D01*
X131953000Y-33147000D01*
X132207000Y-33147000D01*
X132207000Y-34340155D01*
X132436890Y-34461476D01*
X132846924Y-34291645D01*
X133275183Y-33901358D01*
X133350000Y-33742046D01*
X133424817Y-33901358D01*
X133853076Y-34291645D01*
X134263110Y-34461476D01*
X134493000Y-34340155D01*
X134493000Y-33147000D01*
X134747000Y-33147000D01*
X134747000Y-34340155D01*
X134976890Y-34461476D01*
X135386924Y-34291645D01*
X135815183Y-33901358D01*
X135890000Y-33742046D01*
X135964817Y-33901358D01*
X136393076Y-34291645D01*
X136803110Y-34461476D01*
X137033000Y-34340155D01*
X137033000Y-33147000D01*
X134747000Y-33147000D01*
X134493000Y-33147000D01*
X132207000Y-33147000D01*
X131953000Y-33147000D01*
X129667000Y-33147000D01*
X129413000Y-33147000D01*
X129393000Y-33147000D01*
X129393000Y-32893000D01*
X129413000Y-32893000D01*
X129413000Y-31699845D01*
X129667000Y-31699845D01*
X129667000Y-32893000D01*
X131953000Y-32893000D01*
X131953000Y-31699845D01*
X132207000Y-31699845D01*
X132207000Y-32893000D01*
X134493000Y-32893000D01*
X134493000Y-31699845D01*
X134747000Y-31699845D01*
X134747000Y-32893000D01*
X137033000Y-32893000D01*
X137033000Y-31699845D01*
X137287000Y-31699845D01*
X137287000Y-32893000D01*
X137307000Y-32893000D01*
X137307000Y-33147000D01*
X137287000Y-33147000D01*
X137287000Y-34340155D01*
X137516890Y-34461476D01*
X137926924Y-34291645D01*
X138355183Y-33901358D01*
X138542245Y-33503037D01*
X138812499Y-33907501D01*
X139219688Y-34179576D01*
X139578761Y-34251000D01*
X139821239Y-34251000D01*
X140180312Y-34179576D01*
X140587501Y-33907501D01*
X140859576Y-33500312D01*
X140955116Y-33020000D01*
X140984884Y-33020000D01*
X141080424Y-33500312D01*
X141352499Y-33907501D01*
X141759688Y-34179576D01*
X142118761Y-34251000D01*
X142361239Y-34251000D01*
X142720312Y-34179576D01*
X143127501Y-33907501D01*
X143399576Y-33500312D01*
X143495116Y-33020000D01*
X143524884Y-33020000D01*
X143620424Y-33500312D01*
X143892499Y-33907501D01*
X144299688Y-34179576D01*
X144658761Y-34251000D01*
X144901239Y-34251000D01*
X145260312Y-34179576D01*
X145667501Y-33907501D01*
X145939576Y-33500312D01*
X146035116Y-33020000D01*
X146064884Y-33020000D01*
X146160424Y-33500312D01*
X146432499Y-33907501D01*
X146839688Y-34179576D01*
X147198761Y-34251000D01*
X147441239Y-34251000D01*
X147800312Y-34179576D01*
X148207501Y-33907501D01*
X148479576Y-33500312D01*
X148575116Y-33020000D01*
X148604884Y-33020000D01*
X148700424Y-33500312D01*
X148972499Y-33907501D01*
X149379688Y-34179576D01*
X149738761Y-34251000D01*
X149981239Y-34251000D01*
X150340312Y-34179576D01*
X150747501Y-33907501D01*
X151017755Y-33503037D01*
X151204817Y-33901358D01*
X151633076Y-34291645D01*
X152043110Y-34461476D01*
X152273000Y-34340155D01*
X152273000Y-33147000D01*
X152527000Y-33147000D01*
X152527000Y-34340155D01*
X152756890Y-34461476D01*
X153166924Y-34291645D01*
X153595183Y-33901358D01*
X153841486Y-33376892D01*
X153720819Y-33147000D01*
X152527000Y-33147000D01*
X152273000Y-33147000D01*
X152253000Y-33147000D01*
X152253000Y-32893000D01*
X152273000Y-32893000D01*
X152273000Y-31699845D01*
X152527000Y-31699845D01*
X152527000Y-32893000D01*
X153720819Y-32893000D01*
X153841486Y-32663108D01*
X153595183Y-32138642D01*
X153166924Y-31748355D01*
X152756890Y-31578524D01*
X152527000Y-31699845D01*
X152273000Y-31699845D01*
X152043110Y-31578524D01*
X151633076Y-31748355D01*
X151204817Y-32138642D01*
X151017755Y-32536963D01*
X150747501Y-32132499D01*
X150340312Y-31860424D01*
X149981239Y-31789000D01*
X149738761Y-31789000D01*
X149379688Y-31860424D01*
X148972499Y-32132499D01*
X148700424Y-32539688D01*
X148604884Y-33020000D01*
X148575116Y-33020000D01*
X148479576Y-32539688D01*
X148207501Y-32132499D01*
X147800312Y-31860424D01*
X147441239Y-31789000D01*
X147198761Y-31789000D01*
X146839688Y-31860424D01*
X146432499Y-32132499D01*
X146160424Y-32539688D01*
X146064884Y-33020000D01*
X146035116Y-33020000D01*
X145939576Y-32539688D01*
X145667501Y-32132499D01*
X145260312Y-31860424D01*
X144901239Y-31789000D01*
X144658761Y-31789000D01*
X144299688Y-31860424D01*
X143892499Y-32132499D01*
X143620424Y-32539688D01*
X143524884Y-33020000D01*
X143495116Y-33020000D01*
X143399576Y-32539688D01*
X143127501Y-32132499D01*
X142720312Y-31860424D01*
X142361239Y-31789000D01*
X142118761Y-31789000D01*
X141759688Y-31860424D01*
X141352499Y-32132499D01*
X141080424Y-32539688D01*
X140984884Y-33020000D01*
X140955116Y-33020000D01*
X140859576Y-32539688D01*
X140587501Y-32132499D01*
X140180312Y-31860424D01*
X139821239Y-31789000D01*
X139578761Y-31789000D01*
X139219688Y-31860424D01*
X138812499Y-32132499D01*
X138542245Y-32536963D01*
X138355183Y-32138642D01*
X137926924Y-31748355D01*
X137516890Y-31578524D01*
X137287000Y-31699845D01*
X137033000Y-31699845D01*
X136803110Y-31578524D01*
X136393076Y-31748355D01*
X135964817Y-32138642D01*
X135890000Y-32297954D01*
X135815183Y-32138642D01*
X135386924Y-31748355D01*
X134976890Y-31578524D01*
X134747000Y-31699845D01*
X134493000Y-31699845D01*
X134263110Y-31578524D01*
X133853076Y-31748355D01*
X133424817Y-32138642D01*
X133350000Y-32297954D01*
X133275183Y-32138642D01*
X132846924Y-31748355D01*
X132436890Y-31578524D01*
X132207000Y-31699845D01*
X131953000Y-31699845D01*
X131723110Y-31578524D01*
X131313076Y-31748355D01*
X130884817Y-32138642D01*
X130810000Y-32297954D01*
X130735183Y-32138642D01*
X130306924Y-31748355D01*
X129896890Y-31578524D01*
X129667000Y-31699845D01*
X129413000Y-31699845D01*
X129183110Y-31578524D01*
X128773076Y-31748355D01*
X128344817Y-32138642D01*
X128157755Y-32536963D01*
X127887501Y-32132499D01*
X127480312Y-31860424D01*
X127121239Y-31789000D01*
X126878761Y-31789000D01*
X126519688Y-31860424D01*
X126112499Y-32132499D01*
X125842245Y-32536963D01*
X125655183Y-32138642D01*
X125226924Y-31748355D01*
X124816890Y-31578524D01*
X124587000Y-31699845D01*
X124333000Y-31699845D01*
X124103110Y-31578524D01*
X123693076Y-31748355D01*
X123264817Y-32138642D01*
X123077755Y-32536963D01*
X122807501Y-32132499D01*
X122400312Y-31860424D01*
X122041239Y-31789000D01*
X121798761Y-31789000D01*
X121439688Y-31860424D01*
X121032499Y-32132499D01*
X120760424Y-32539688D01*
X120664884Y-33020000D01*
X120635116Y-33020000D01*
X120539576Y-32539688D01*
X120267501Y-32132499D01*
X119860312Y-31860424D01*
X119501239Y-31789000D01*
X119258761Y-31789000D01*
X118899688Y-31860424D01*
X118492499Y-32132499D01*
X118220424Y-32539688D01*
X118124884Y-33020000D01*
X118095116Y-33020000D01*
X117999576Y-32539688D01*
X117727501Y-32132499D01*
X117320312Y-31860424D01*
X116961239Y-31789000D01*
X116718761Y-31789000D01*
X116359688Y-31860424D01*
X115952499Y-32132499D01*
X115785000Y-32383179D01*
X115785000Y-32043691D01*
X115688327Y-31810302D01*
X115509699Y-31631673D01*
X115276310Y-31535000D01*
X114585750Y-31535000D01*
X114427000Y-31693750D01*
X114173000Y-31693750D01*
X114014250Y-31535000D01*
X113323690Y-31535000D01*
X113090301Y-31631673D01*
X112911673Y-31810302D01*
X112815000Y-32043691D01*
X111892123Y-32043691D01*
X111491966Y-31077628D01*
X110527372Y-30113034D01*
X110186886Y-29972000D01*
X181913114Y-29972000D01*
X181572628Y-30113034D01*
X180608034Y-31077628D01*
X180086000Y-32337930D01*
X180086000Y-33702070D01*
X180608034Y-34962372D01*
X181572628Y-35926966D01*
X182832930Y-36449000D01*
X184197070Y-36449000D01*
X185457372Y-35926966D01*
X186421966Y-34962372D01*
X186944000Y-33702070D01*
X186944000Y-32337930D01*
X186421966Y-31077628D01*
X185457372Y-30113034D01*
X185116886Y-29972000D01*
X188542394Y-29972000D01*
X189738000Y-31167606D01*
X189738000Y-39731915D01*
X189476358Y-39444817D01*
X188951892Y-39198514D01*
X188722000Y-39319181D01*
X188722000Y-40513000D01*
X188742000Y-40513000D01*
X188742000Y-40767000D01*
X188722000Y-40767000D01*
X188722000Y-40787000D01*
X188468000Y-40787000D01*
X188468000Y-40767000D01*
X187274845Y-40767000D01*
X187153524Y-40996890D01*
X187323355Y-41406924D01*
X187713642Y-41835183D01*
X187940105Y-41941536D01*
X187745000Y-41941536D01*
X187596341Y-41971106D01*
X187470314Y-42055314D01*
X187386106Y-42181341D01*
X187356536Y-42330000D01*
X187356536Y-44030000D01*
X187386106Y-44178659D01*
X187470314Y-44304686D01*
X187596341Y-44388894D01*
X187745000Y-44418464D01*
X189445000Y-44418464D01*
X189593659Y-44388894D01*
X189719686Y-44304686D01*
X189738000Y-44277277D01*
X189738000Y-69162394D01*
X188542394Y-70358000D01*
X177627277Y-70358000D01*
X177654686Y-70339686D01*
X177738894Y-70213659D01*
X177768464Y-70065000D01*
X177768464Y-68365000D01*
X177738894Y-68216341D01*
X177654686Y-68090314D01*
X177528659Y-68006106D01*
X177380000Y-67976536D01*
X175680000Y-67976536D01*
X175531341Y-68006106D01*
X175405314Y-68090314D01*
X175321106Y-68216341D01*
X175291536Y-68365000D01*
X175291536Y-68560105D01*
X175185183Y-68333642D01*
X174756924Y-67943355D01*
X174346890Y-67773524D01*
X174117000Y-67894845D01*
X174117000Y-69088000D01*
X174137000Y-69088000D01*
X174137000Y-69342000D01*
X174117000Y-69342000D01*
X174117000Y-69362000D01*
X173863000Y-69362000D01*
X173863000Y-69342000D01*
X172669181Y-69342000D01*
X172548514Y-69571892D01*
X172794817Y-70096358D01*
X173081915Y-70358000D01*
X170007277Y-70358000D01*
X170034686Y-70339686D01*
X170118894Y-70213659D01*
X170148464Y-70065000D01*
X170148464Y-68858108D01*
X172548514Y-68858108D01*
X172669181Y-69088000D01*
X173863000Y-69088000D01*
X173863000Y-67894845D01*
X173633110Y-67773524D01*
X173223076Y-67943355D01*
X172794817Y-68333642D01*
X172548514Y-68858108D01*
X170148464Y-68858108D01*
X170148464Y-68365000D01*
X170118894Y-68216341D01*
X170034686Y-68090314D01*
X169908659Y-68006106D01*
X169760000Y-67976536D01*
X168060000Y-67976536D01*
X167911341Y-68006106D01*
X167785314Y-68090314D01*
X167701106Y-68216341D01*
X167671536Y-68365000D01*
X167671536Y-68560105D01*
X167565183Y-68333642D01*
X167136924Y-67943355D01*
X166726890Y-67773524D01*
X166497000Y-67894845D01*
X166497000Y-69088000D01*
X166517000Y-69088000D01*
X166517000Y-69342000D01*
X166497000Y-69342000D01*
X166497000Y-69362000D01*
X166243000Y-69362000D01*
X166243000Y-69342000D01*
X165049181Y-69342000D01*
X164928514Y-69571892D01*
X165174817Y-70096358D01*
X165461915Y-70358000D01*
X162387277Y-70358000D01*
X162414686Y-70339686D01*
X162498894Y-70213659D01*
X162528464Y-70065000D01*
X162528464Y-68858108D01*
X164928514Y-68858108D01*
X165049181Y-69088000D01*
X166243000Y-69088000D01*
X166243000Y-67894845D01*
X166013110Y-67773524D01*
X165603076Y-67943355D01*
X165174817Y-68333642D01*
X164928514Y-68858108D01*
X162528464Y-68858108D01*
X162528464Y-68365000D01*
X162498894Y-68216341D01*
X162414686Y-68090314D01*
X162288659Y-68006106D01*
X162140000Y-67976536D01*
X160440000Y-67976536D01*
X160291341Y-68006106D01*
X160165314Y-68090314D01*
X160081106Y-68216341D01*
X160051536Y-68365000D01*
X160051536Y-68560105D01*
X159945183Y-68333642D01*
X159516924Y-67943355D01*
X159106890Y-67773524D01*
X158877000Y-67894845D01*
X158877000Y-69088000D01*
X158897000Y-69088000D01*
X158897000Y-69342000D01*
X158877000Y-69342000D01*
X158877000Y-69362000D01*
X158623000Y-69362000D01*
X158623000Y-69342000D01*
X157429181Y-69342000D01*
X157308514Y-69571892D01*
X157554817Y-70096358D01*
X157841915Y-70358000D01*
X154767277Y-70358000D01*
X154794686Y-70339686D01*
X154878894Y-70213659D01*
X154908464Y-70065000D01*
X154908464Y-68858108D01*
X157308514Y-68858108D01*
X157429181Y-69088000D01*
X158623000Y-69088000D01*
X158623000Y-67894845D01*
X158393110Y-67773524D01*
X157983076Y-67943355D01*
X157554817Y-68333642D01*
X157308514Y-68858108D01*
X154908464Y-68858108D01*
X154908464Y-68365000D01*
X154878894Y-68216341D01*
X154794686Y-68090314D01*
X154668659Y-68006106D01*
X154520000Y-67976536D01*
X152820000Y-67976536D01*
X152671341Y-68006106D01*
X152545314Y-68090314D01*
X152461106Y-68216341D01*
X152431536Y-68365000D01*
X152431536Y-70065000D01*
X152461106Y-70213659D01*
X152545314Y-70339686D01*
X152572723Y-70358000D01*
X151635120Y-70358000D01*
X152017501Y-70102501D01*
X152289576Y-69695312D01*
X152385116Y-69215000D01*
X152289576Y-68734688D01*
X152017501Y-68327499D01*
X151610312Y-68055424D01*
X151251239Y-67984000D01*
X151008761Y-67984000D01*
X150649688Y-68055424D01*
X150242499Y-68327499D01*
X149972245Y-68731963D01*
X149785183Y-68333642D01*
X149356924Y-67943355D01*
X148946890Y-67773524D01*
X148717000Y-67894845D01*
X148717000Y-69088000D01*
X148737000Y-69088000D01*
X148737000Y-69342000D01*
X148717000Y-69342000D01*
X148717000Y-69362000D01*
X148463000Y-69362000D01*
X148463000Y-69342000D01*
X148443000Y-69342000D01*
X148443000Y-69088000D01*
X148463000Y-69088000D01*
X148463000Y-67894845D01*
X148233110Y-67773524D01*
X147823076Y-67943355D01*
X147394817Y-68333642D01*
X147207755Y-68731963D01*
X146937501Y-68327499D01*
X146530312Y-68055424D01*
X146171239Y-67984000D01*
X145928761Y-67984000D01*
X145569688Y-68055424D01*
X145162499Y-68327499D01*
X144890424Y-68734688D01*
X144794884Y-69215000D01*
X144890424Y-69695312D01*
X145162499Y-70102501D01*
X145544880Y-70358000D01*
X144015120Y-70358000D01*
X144397501Y-70102501D01*
X144669576Y-69695312D01*
X144765116Y-69215000D01*
X144669576Y-68734688D01*
X144397501Y-68327499D01*
X143990312Y-68055424D01*
X143631239Y-67984000D01*
X143388761Y-67984000D01*
X143029688Y-68055424D01*
X142622499Y-68327499D01*
X142350424Y-68734688D01*
X142254884Y-69215000D01*
X142350424Y-69695312D01*
X142622499Y-70102501D01*
X143004880Y-70358000D01*
X118572277Y-70358000D01*
X118599686Y-70339686D01*
X118683894Y-70213659D01*
X118713464Y-70065000D01*
X118713464Y-68365000D01*
X118683894Y-68216341D01*
X118599686Y-68090314D01*
X118473659Y-68006106D01*
X118325000Y-67976536D01*
X116625000Y-67976536D01*
X116476341Y-68006106D01*
X116350314Y-68090314D01*
X116266106Y-68216341D01*
X116236536Y-68365000D01*
X116236536Y-68560105D01*
X116130183Y-68333642D01*
X115701924Y-67943355D01*
X115291890Y-67773524D01*
X115062000Y-67894845D01*
X115062000Y-69088000D01*
X115082000Y-69088000D01*
X115082000Y-69342000D01*
X115062000Y-69342000D01*
X115062000Y-69362000D01*
X114808000Y-69362000D01*
X114808000Y-69342000D01*
X113614181Y-69342000D01*
X113493514Y-69571892D01*
X113739817Y-70096358D01*
X114026915Y-70358000D01*
X101017606Y-70358000D01*
X99822000Y-69162394D01*
X99822000Y-68858108D01*
X113493514Y-68858108D01*
X113614181Y-69088000D01*
X114808000Y-69088000D01*
X114808000Y-67894845D01*
X114578110Y-67773524D01*
X114168076Y-67943355D01*
X113739817Y-68333642D01*
X113493514Y-68858108D01*
X99822000Y-68858108D01*
X99822000Y-63920000D01*
X100361536Y-63920000D01*
X100361536Y-65620000D01*
X100391106Y-65768659D01*
X100475314Y-65894686D01*
X100601341Y-65978894D01*
X100750000Y-66008464D01*
X102450000Y-66008464D01*
X102598659Y-65978894D01*
X102724686Y-65894686D01*
X102808894Y-65768659D01*
X102838464Y-65620000D01*
X102838464Y-63920000D01*
X102808894Y-63771341D01*
X102724686Y-63645314D01*
X102598659Y-63561106D01*
X102450000Y-63531536D01*
X100750000Y-63531536D01*
X100601341Y-63561106D01*
X100475314Y-63645314D01*
X100391106Y-63771341D01*
X100361536Y-63920000D01*
X99822000Y-63920000D01*
X99822000Y-60046890D01*
X100158524Y-60046890D01*
X100328355Y-60456924D01*
X100718642Y-60885183D01*
X101116963Y-61072245D01*
X100712499Y-61342499D01*
X100440424Y-61749688D01*
X100344884Y-62230000D01*
X100440424Y-62710312D01*
X100712499Y-63117501D01*
X101119688Y-63389576D01*
X101478761Y-63461000D01*
X101721239Y-63461000D01*
X101761809Y-63452930D01*
X105156000Y-63452930D01*
X105156000Y-64817070D01*
X105678034Y-66077372D01*
X106642628Y-67041966D01*
X107902930Y-67564000D01*
X109267070Y-67564000D01*
X110527372Y-67041966D01*
X111491966Y-66077372D01*
X112014000Y-64817070D01*
X112014000Y-63452930D01*
X180086000Y-63452930D01*
X180086000Y-64817070D01*
X180608034Y-66077372D01*
X181572628Y-67041966D01*
X182832930Y-67564000D01*
X184197070Y-67564000D01*
X185457372Y-67041966D01*
X186421966Y-66077372D01*
X186944000Y-64817070D01*
X186944000Y-63452930D01*
X186421966Y-62192628D01*
X185457372Y-61228034D01*
X184197070Y-60706000D01*
X182832930Y-60706000D01*
X181572628Y-61228034D01*
X180608034Y-62192628D01*
X180086000Y-63452930D01*
X112014000Y-63452930D01*
X111491966Y-62192628D01*
X110527372Y-61228034D01*
X109267070Y-60706000D01*
X107902930Y-60706000D01*
X106642628Y-61228034D01*
X105678034Y-62192628D01*
X105156000Y-63452930D01*
X101761809Y-63452930D01*
X102080312Y-63389576D01*
X102487501Y-63117501D01*
X102759576Y-62710312D01*
X102855116Y-62230000D01*
X102759576Y-61749688D01*
X102487501Y-61342499D01*
X102083037Y-61072245D01*
X102481358Y-60885183D01*
X102871645Y-60456924D01*
X103041476Y-60046890D01*
X102920155Y-59817000D01*
X101727000Y-59817000D01*
X101727000Y-59837000D01*
X101473000Y-59837000D01*
X101473000Y-59817000D01*
X100279845Y-59817000D01*
X100158524Y-60046890D01*
X99822000Y-60046890D01*
X99822000Y-59333110D01*
X100158524Y-59333110D01*
X100279845Y-59563000D01*
X101473000Y-59563000D01*
X101473000Y-59543000D01*
X101727000Y-59543000D01*
X101727000Y-59563000D01*
X102920155Y-59563000D01*
X103041476Y-59333110D01*
X102871645Y-58923076D01*
X102481358Y-58494817D01*
X102083037Y-58307755D01*
X102487501Y-58037501D01*
X102675160Y-57756649D01*
X113519000Y-57756649D01*
X113519000Y-58067351D01*
X113637900Y-58354401D01*
X113728501Y-58445002D01*
X113728500Y-61061999D01*
X113637900Y-61152599D01*
X113519000Y-61439649D01*
X113519000Y-61750351D01*
X113637900Y-62037401D01*
X113857599Y-62257100D01*
X114144649Y-62376000D01*
X114455351Y-62376000D01*
X114742401Y-62257100D01*
X114962100Y-62037401D01*
X115081000Y-61750351D01*
X115081000Y-61439649D01*
X114962100Y-61152599D01*
X114871500Y-61061999D01*
X114871500Y-59398802D01*
X116014500Y-59398802D01*
X116014500Y-59727206D01*
X116140174Y-60030612D01*
X116268501Y-60158939D01*
X116268500Y-60999066D01*
X116140174Y-61127392D01*
X116014500Y-61430798D01*
X116014500Y-61759202D01*
X116140174Y-62062608D01*
X116372392Y-62294826D01*
X116675798Y-62420500D01*
X117004202Y-62420500D01*
X117307608Y-62294826D01*
X117539826Y-62062608D01*
X117665500Y-61759202D01*
X117665500Y-61430798D01*
X117539826Y-61127392D01*
X117411500Y-60999066D01*
X117411500Y-60158938D01*
X117539826Y-60030612D01*
X117665500Y-59727206D01*
X117665500Y-59398802D01*
X117539826Y-59095396D01*
X117307608Y-58863178D01*
X117004202Y-58737504D01*
X116675798Y-58737504D01*
X116372392Y-58863178D01*
X116140174Y-59095396D01*
X116014500Y-59398802D01*
X114871500Y-59398802D01*
X114871500Y-58445001D01*
X114962100Y-58354401D01*
X115002942Y-58255798D01*
X117919500Y-58255798D01*
X117919500Y-58584202D01*
X118045174Y-58887608D01*
X118173501Y-59015935D01*
X118173500Y-60999066D01*
X118045174Y-61127392D01*
X117919500Y-61430798D01*
X117919500Y-61759202D01*
X118045174Y-62062608D01*
X118277392Y-62294826D01*
X118580798Y-62420500D01*
X118909202Y-62420500D01*
X119212608Y-62294826D01*
X119444826Y-62062608D01*
X119570500Y-61759202D01*
X119570500Y-61430798D01*
X119444826Y-61127392D01*
X119316500Y-60999066D01*
X119316500Y-59465030D01*
X136029000Y-59465030D01*
X136029000Y-59914970D01*
X136201184Y-60330660D01*
X136519340Y-60648816D01*
X136935030Y-60821000D01*
X137384970Y-60821000D01*
X137800660Y-60648816D01*
X138118816Y-60330660D01*
X138291000Y-59914970D01*
X138291000Y-59465030D01*
X140929000Y-59465030D01*
X140929000Y-59914970D01*
X141101184Y-60330660D01*
X141419340Y-60648816D01*
X141835030Y-60821000D01*
X142284970Y-60821000D01*
X142700660Y-60648816D01*
X143018816Y-60330660D01*
X143191000Y-59914970D01*
X143191000Y-59465030D01*
X143018816Y-59049340D01*
X142700660Y-58731184D01*
X142284970Y-58559000D01*
X141835030Y-58559000D01*
X141419340Y-58731184D01*
X141101184Y-59049340D01*
X140929000Y-59465030D01*
X138291000Y-59465030D01*
X138118816Y-59049340D01*
X137800660Y-58731184D01*
X137384970Y-58559000D01*
X136935030Y-58559000D01*
X136519340Y-58731184D01*
X136201184Y-59049340D01*
X136029000Y-59465030D01*
X119316500Y-59465030D01*
X119316500Y-59015934D01*
X119444826Y-58887608D01*
X119570500Y-58584202D01*
X119570500Y-58255798D01*
X119444826Y-57952392D01*
X119212608Y-57720174D01*
X118909202Y-57594500D01*
X118580798Y-57594500D01*
X118277392Y-57720174D01*
X118045174Y-57952392D01*
X117919500Y-58255798D01*
X115002942Y-58255798D01*
X115081000Y-58067351D01*
X115081000Y-57756649D01*
X114962100Y-57469599D01*
X114742401Y-57249900D01*
X114455351Y-57131000D01*
X114144649Y-57131000D01*
X113857599Y-57249900D01*
X113637900Y-57469599D01*
X113519000Y-57756649D01*
X102675160Y-57756649D01*
X102759576Y-57630312D01*
X102855116Y-57150000D01*
X102759576Y-56669688D01*
X102487501Y-56262499D01*
X102080312Y-55990424D01*
X101721239Y-55919000D01*
X101478761Y-55919000D01*
X101119688Y-55990424D01*
X100712499Y-56262499D01*
X100440424Y-56669688D01*
X100344884Y-57150000D01*
X100440424Y-57630312D01*
X100712499Y-58037501D01*
X101116963Y-58307755D01*
X100718642Y-58494817D01*
X100328355Y-58923076D01*
X100158524Y-59333110D01*
X99822000Y-59333110D01*
X99822000Y-54610000D01*
X100344884Y-54610000D01*
X100440424Y-55090312D01*
X100712499Y-55497501D01*
X101119688Y-55769576D01*
X101478761Y-55841000D01*
X101721239Y-55841000D01*
X102080312Y-55769576D01*
X102147550Y-55724649D01*
X117964000Y-55724649D01*
X117964000Y-56035351D01*
X118082900Y-56322401D01*
X118302599Y-56542100D01*
X118589649Y-56661000D01*
X118900351Y-56661000D01*
X119187401Y-56542100D01*
X119278001Y-56451500D01*
X125196999Y-56451500D01*
X125287599Y-56542100D01*
X125574649Y-56661000D01*
X125885351Y-56661000D01*
X126172401Y-56542100D01*
X126392100Y-56322401D01*
X126511000Y-56035351D01*
X126511000Y-55724649D01*
X126392100Y-55437599D01*
X126172401Y-55217900D01*
X125885351Y-55099000D01*
X125574649Y-55099000D01*
X125287599Y-55217900D01*
X125196999Y-55308500D01*
X119278001Y-55308500D01*
X119187401Y-55217900D01*
X118900351Y-55099000D01*
X118589649Y-55099000D01*
X118302599Y-55217900D01*
X118082900Y-55437599D01*
X117964000Y-55724649D01*
X102147550Y-55724649D01*
X102487501Y-55497501D01*
X102759576Y-55090312D01*
X102855116Y-54610000D01*
X102759576Y-54129688D01*
X102487501Y-53722499D01*
X102080312Y-53450424D01*
X101721239Y-53379000D01*
X101478761Y-53379000D01*
X101119688Y-53450424D01*
X100712499Y-53722499D01*
X100440424Y-54129688D01*
X100344884Y-54610000D01*
X99822000Y-54610000D01*
X99822000Y-52549649D01*
X145904000Y-52549649D01*
X145904000Y-52860351D01*
X146022900Y-53147401D01*
X146113501Y-53238002D01*
X146113500Y-53918718D01*
X146102305Y-53975000D01*
X146113500Y-54031281D01*
X146113500Y-54031285D01*
X146126996Y-54099134D01*
X146126995Y-55689821D01*
X146036395Y-55780421D01*
X145917495Y-56067471D01*
X145917495Y-56378173D01*
X146036395Y-56665223D01*
X146256094Y-56884922D01*
X146543144Y-57003822D01*
X146853846Y-57003822D01*
X147140896Y-56884922D01*
X147360595Y-56665223D01*
X147479495Y-56378173D01*
X147479495Y-56067471D01*
X147360595Y-55780421D01*
X147269995Y-55689821D01*
X147269995Y-54044777D01*
X147281190Y-53988495D01*
X147269995Y-53932213D01*
X147269995Y-53932209D01*
X147256500Y-53864365D01*
X147256500Y-53238001D01*
X147347100Y-53147401D01*
X147466000Y-52860351D01*
X147466000Y-52549649D01*
X147347100Y-52262599D01*
X147127401Y-52042900D01*
X146840351Y-51924000D01*
X146529649Y-51924000D01*
X146242599Y-52042900D01*
X146022900Y-52262599D01*
X145904000Y-52549649D01*
X99822000Y-52549649D01*
X99822000Y-48104649D01*
X100184000Y-48104649D01*
X100184000Y-48415351D01*
X100302900Y-48702401D01*
X100406996Y-48806497D01*
X100406995Y-50635211D01*
X100316395Y-50725811D01*
X100197495Y-51012861D01*
X100197495Y-51323563D01*
X100316395Y-51610613D01*
X100536094Y-51830312D01*
X100823144Y-51949212D01*
X101133846Y-51949212D01*
X101420896Y-51830312D01*
X101640595Y-51610613D01*
X101759495Y-51323563D01*
X101759495Y-51012861D01*
X101640595Y-50725811D01*
X101549995Y-50635211D01*
X101549995Y-48779506D01*
X101627100Y-48702401D01*
X101746000Y-48415351D01*
X101746000Y-48104649D01*
X101627100Y-47817599D01*
X101407401Y-47597900D01*
X101120351Y-47479000D01*
X100809649Y-47479000D01*
X100522599Y-47597900D01*
X100302900Y-47817599D01*
X100184000Y-48104649D01*
X99822000Y-48104649D01*
X99822000Y-46005750D01*
X100115000Y-46005750D01*
X100115000Y-46696310D01*
X100211673Y-46929699D01*
X100390302Y-47108327D01*
X100623691Y-47205000D01*
X101314250Y-47205000D01*
X101473000Y-47046250D01*
X101473000Y-45847000D01*
X101727000Y-45847000D01*
X101727000Y-47046250D01*
X101885750Y-47205000D01*
X102576309Y-47205000D01*
X102809698Y-47108327D01*
X102988327Y-46929699D01*
X103085000Y-46696310D01*
X103085000Y-46005750D01*
X102926250Y-45847000D01*
X101727000Y-45847000D01*
X101473000Y-45847000D01*
X100273750Y-45847000D01*
X100115000Y-46005750D01*
X99822000Y-46005750D01*
X99822000Y-44743690D01*
X100115000Y-44743690D01*
X100115000Y-45434250D01*
X100273750Y-45593000D01*
X101473000Y-45593000D01*
X101473000Y-45573000D01*
X101727000Y-45573000D01*
X101727000Y-45593000D01*
X102926250Y-45593000D01*
X103085000Y-45434250D01*
X103085000Y-44743690D01*
X102988327Y-44510301D01*
X102809698Y-44331673D01*
X102720315Y-44294649D01*
X128759000Y-44294649D01*
X128759000Y-44605351D01*
X128841501Y-44804526D01*
X128841500Y-46635476D01*
X128759000Y-46834649D01*
X128759000Y-47145351D01*
X128877900Y-47432401D01*
X129097599Y-47652100D01*
X129384649Y-47771000D01*
X129695351Y-47771000D01*
X129982401Y-47652100D01*
X130202100Y-47432401D01*
X130321000Y-47145351D01*
X130321000Y-46834649D01*
X130238500Y-46635476D01*
X130238500Y-44804524D01*
X130321000Y-44605351D01*
X130321000Y-44294649D01*
X130919000Y-44294649D01*
X130919000Y-44605351D01*
X131001501Y-44804526D01*
X131001500Y-46635476D01*
X130919000Y-46834649D01*
X130919000Y-47145351D01*
X131037900Y-47432401D01*
X131257599Y-47652100D01*
X131544649Y-47771000D01*
X131855351Y-47771000D01*
X132142401Y-47652100D01*
X132362100Y-47432401D01*
X132481000Y-47145351D01*
X132481000Y-46834649D01*
X132456283Y-46774976D01*
X180529000Y-46774976D01*
X180529000Y-47205024D01*
X180693572Y-47602337D01*
X180997663Y-47906428D01*
X181394976Y-48071000D01*
X181825024Y-48071000D01*
X182176836Y-47925275D01*
X183354331Y-47925275D01*
X183416169Y-48161042D01*
X183917122Y-48337419D01*
X184447440Y-48308664D01*
X184803831Y-48161042D01*
X184865669Y-47925275D01*
X184110000Y-47169605D01*
X183354331Y-47925275D01*
X182176836Y-47925275D01*
X182222337Y-47906428D01*
X182526428Y-47602337D01*
X182691000Y-47205024D01*
X182691000Y-46797122D01*
X182762581Y-46797122D01*
X182791336Y-47327440D01*
X182938958Y-47683831D01*
X183174725Y-47745669D01*
X183930395Y-46990000D01*
X184289605Y-46990000D01*
X185045275Y-47745669D01*
X185281042Y-47683831D01*
X185457419Y-47182878D01*
X185428664Y-46652560D01*
X185281042Y-46296169D01*
X185045275Y-46234331D01*
X184289605Y-46990000D01*
X183930395Y-46990000D01*
X183174725Y-46234331D01*
X182938958Y-46296169D01*
X182762581Y-46797122D01*
X182691000Y-46797122D01*
X182691000Y-46774976D01*
X182526428Y-46377663D01*
X182222337Y-46073572D01*
X182176837Y-46054725D01*
X183354331Y-46054725D01*
X184110000Y-46810395D01*
X184865669Y-46054725D01*
X184803831Y-45818958D01*
X184302878Y-45642581D01*
X183772560Y-45671336D01*
X183416169Y-45818958D01*
X183354331Y-46054725D01*
X182176837Y-46054725D01*
X181825024Y-45909000D01*
X181394976Y-45909000D01*
X180997663Y-46073572D01*
X180693572Y-46377663D01*
X180529000Y-46774976D01*
X132456283Y-46774976D01*
X132398500Y-46635476D01*
X132398500Y-44804524D01*
X132481000Y-44605351D01*
X132481000Y-44294649D01*
X132362100Y-44007599D01*
X132142401Y-43787900D01*
X131855351Y-43669000D01*
X131544649Y-43669000D01*
X131257599Y-43787900D01*
X131037900Y-44007599D01*
X130919000Y-44294649D01*
X130321000Y-44294649D01*
X130202100Y-44007599D01*
X129982401Y-43787900D01*
X129695351Y-43669000D01*
X129384649Y-43669000D01*
X129097599Y-43787900D01*
X128877900Y-44007599D01*
X128759000Y-44294649D01*
X102720315Y-44294649D01*
X102576309Y-44235000D01*
X102236821Y-44235000D01*
X102487501Y-44067501D01*
X102759576Y-43660312D01*
X102771577Y-43599976D01*
X163384000Y-43599976D01*
X163384000Y-44030024D01*
X163548572Y-44427337D01*
X163852663Y-44731428D01*
X164249976Y-44896000D01*
X164680024Y-44896000D01*
X165031836Y-44750275D01*
X166209331Y-44750275D01*
X166271169Y-44986042D01*
X166772122Y-45162419D01*
X167302440Y-45133664D01*
X167658831Y-44986042D01*
X167720669Y-44750275D01*
X166965000Y-43994605D01*
X166209331Y-44750275D01*
X165031836Y-44750275D01*
X165077337Y-44731428D01*
X165381428Y-44427337D01*
X165546000Y-44030024D01*
X165546000Y-43622122D01*
X165617581Y-43622122D01*
X165646336Y-44152440D01*
X165793958Y-44508831D01*
X166029725Y-44570669D01*
X166785395Y-43815000D01*
X167144605Y-43815000D01*
X167900275Y-44570669D01*
X168136042Y-44508831D01*
X168312419Y-44007878D01*
X168283664Y-43477560D01*
X168136042Y-43121169D01*
X167900275Y-43059331D01*
X167144605Y-43815000D01*
X166785395Y-43815000D01*
X166029725Y-43059331D01*
X165793958Y-43121169D01*
X165617581Y-43622122D01*
X165546000Y-43622122D01*
X165546000Y-43599976D01*
X165381428Y-43202663D01*
X165077337Y-42898572D01*
X165031837Y-42879725D01*
X166209331Y-42879725D01*
X166965000Y-43635395D01*
X167720669Y-42879725D01*
X167658831Y-42643958D01*
X167157878Y-42467581D01*
X166627560Y-42496336D01*
X166271169Y-42643958D01*
X166209331Y-42879725D01*
X165031837Y-42879725D01*
X164680024Y-42734000D01*
X164249976Y-42734000D01*
X163852663Y-42898572D01*
X163548572Y-43202663D01*
X163384000Y-43599976D01*
X102771577Y-43599976D01*
X102855116Y-43180000D01*
X102759576Y-42699688D01*
X102487501Y-42292499D01*
X102080312Y-42020424D01*
X101721239Y-41949000D01*
X101478761Y-41949000D01*
X101119688Y-42020424D01*
X100712499Y-42292499D01*
X100440424Y-42699688D01*
X100344884Y-43180000D01*
X100440424Y-43660312D01*
X100712499Y-44067501D01*
X100963179Y-44235000D01*
X100623691Y-44235000D01*
X100390302Y-44331673D01*
X100211673Y-44510301D01*
X100115000Y-44743690D01*
X99822000Y-44743690D01*
X99822000Y-40640000D01*
X100344884Y-40640000D01*
X100440424Y-41120312D01*
X100712499Y-41527501D01*
X101119688Y-41799576D01*
X101478761Y-41871000D01*
X101721239Y-41871000D01*
X102080312Y-41799576D01*
X102487501Y-41527501D01*
X102759576Y-41120312D01*
X102855116Y-40640000D01*
X102784127Y-40283110D01*
X187153524Y-40283110D01*
X187274845Y-40513000D01*
X188468000Y-40513000D01*
X188468000Y-39319181D01*
X188238108Y-39198514D01*
X187713642Y-39444817D01*
X187323355Y-39873076D01*
X187153524Y-40283110D01*
X102784127Y-40283110D01*
X102759576Y-40159688D01*
X102487501Y-39752499D01*
X102080312Y-39480424D01*
X101721239Y-39409000D01*
X101478761Y-39409000D01*
X101119688Y-39480424D01*
X100712499Y-39752499D01*
X100440424Y-40159688D01*
X100344884Y-40640000D01*
X99822000Y-40640000D01*
X99822000Y-38100000D01*
X100344884Y-38100000D01*
X100440424Y-38580312D01*
X100712499Y-38987501D01*
X101119688Y-39259576D01*
X101478761Y-39331000D01*
X101721239Y-39331000D01*
X102080312Y-39259576D01*
X102487501Y-38987501D01*
X102759576Y-38580312D01*
X102855116Y-38100000D01*
X102759576Y-37619688D01*
X102512559Y-37250000D01*
X153701536Y-37250000D01*
X153701536Y-38950000D01*
X153731106Y-39098659D01*
X153815314Y-39224686D01*
X153941341Y-39308894D01*
X154090000Y-39338464D01*
X155790000Y-39338464D01*
X155938659Y-39308894D01*
X156064686Y-39224686D01*
X156148894Y-39098659D01*
X156178464Y-38950000D01*
X156178464Y-38100000D01*
X156224884Y-38100000D01*
X156320424Y-38580312D01*
X156592499Y-38987501D01*
X156999688Y-39259576D01*
X157358761Y-39331000D01*
X157601239Y-39331000D01*
X157960312Y-39259576D01*
X158367501Y-38987501D01*
X158639576Y-38580312D01*
X158735116Y-38100000D01*
X158639576Y-37619688D01*
X158367501Y-37212499D01*
X157960312Y-36940424D01*
X157601239Y-36869000D01*
X157358761Y-36869000D01*
X156999688Y-36940424D01*
X156592499Y-37212499D01*
X156320424Y-37619688D01*
X156224884Y-38100000D01*
X156178464Y-38100000D01*
X156178464Y-37250000D01*
X156148894Y-37101341D01*
X156064686Y-36975314D01*
X155938659Y-36891106D01*
X155790000Y-36861536D01*
X154090000Y-36861536D01*
X153941341Y-36891106D01*
X153815314Y-36975314D01*
X153731106Y-37101341D01*
X153701536Y-37250000D01*
X102512559Y-37250000D01*
X102487501Y-37212499D01*
X102080312Y-36940424D01*
X101721239Y-36869000D01*
X101478761Y-36869000D01*
X101119688Y-36940424D01*
X100712499Y-37212499D01*
X100440424Y-37619688D01*
X100344884Y-38100000D01*
X99822000Y-38100000D01*
X99822000Y-35560000D01*
X100344884Y-35560000D01*
X100440424Y-36040312D01*
X100712499Y-36447501D01*
X101119688Y-36719576D01*
X101478761Y-36791000D01*
X101721239Y-36791000D01*
X102080312Y-36719576D01*
X102487501Y-36447501D01*
X102759576Y-36040312D01*
X102855116Y-35560000D01*
X102759576Y-35079688D01*
X102487501Y-34672499D01*
X102080312Y-34400424D01*
X101721239Y-34329000D01*
X101478761Y-34329000D01*
X101119688Y-34400424D01*
X100712499Y-34672499D01*
X100440424Y-35079688D01*
X100344884Y-35560000D01*
X99822000Y-35560000D01*
X99822000Y-31167606D01*
X101017606Y-29972000D01*
X106983114Y-29972000D01*
X106642628Y-30113034D01*
G04 #@! TD*
M02*
