G04 #@! TF.GenerationSoftware,KiCad,Pcbnew,(5.0.1)-4*
G04 #@! TF.CreationDate,2020-04-19T23:52:33+02:00*
G04 #@! TF.ProjectId,Freqmeter_16F18446,467265716D657465725F313646313834,R2*
G04 #@! TF.SameCoordinates,Original*
G04 #@! TF.FileFunction,Legend,Top*
G04 #@! TF.FilePolarity,Positive*
%FSLAX46Y46*%
G04 Gerber Fmt 4.6, Leading zero omitted, Abs format (unit mm)*
G04 Created by KiCad (PCBNEW (5.0.1)-4) date 19/04/2020 23:52:33*
%MOMM*%
%LPD*%
G01*
G04 APERTURE LIST*
%ADD10C,0.304800*%
%ADD11C,0.120000*%
%ADD12C,0.177800*%
%ADD13C,0.127000*%
%ADD14C,0.150000*%
G04 APERTURE END LIST*
D10*
X184742666Y-43307000D02*
X186097333Y-43307000D01*
X185420000Y-43984333D02*
X185420000Y-42629666D01*
X184742666Y-40767000D02*
X186097333Y-40767000D01*
X104266999Y-66729428D02*
X104266999Y-65205428D01*
X104774999Y-66294000D01*
X105282999Y-65205428D01*
X105282999Y-66729428D01*
X104097666Y-62357000D02*
X105452333Y-62357000D01*
X104774999Y-63034333D02*
X104774999Y-61679666D01*
X104097666Y-59817000D02*
X105452333Y-59817000D01*
X103795285Y-57839428D02*
X103795285Y-56315428D01*
X104158142Y-56315428D01*
X104375857Y-56388000D01*
X104520999Y-56533142D01*
X104593571Y-56678285D01*
X104666142Y-56968571D01*
X104666142Y-57186285D01*
X104593571Y-57476571D01*
X104520999Y-57621714D01*
X104375857Y-57766857D01*
X104158142Y-57839428D01*
X103795285Y-57839428D01*
X105101571Y-56315428D02*
X105972428Y-56315428D01*
X105536999Y-57839428D02*
X105536999Y-56315428D01*
X104484714Y-55154285D02*
X104412142Y-55226857D01*
X104194428Y-55299428D01*
X104049285Y-55299428D01*
X103831571Y-55226857D01*
X103686428Y-55081714D01*
X103613857Y-54936571D01*
X103541285Y-54646285D01*
X103541285Y-54428571D01*
X103613857Y-54138285D01*
X103686428Y-53993142D01*
X103831571Y-53848000D01*
X104049285Y-53775428D01*
X104194428Y-53775428D01*
X104412142Y-53848000D01*
X104484714Y-53920571D01*
X105137857Y-55299428D02*
X105137857Y-53775428D01*
X106008714Y-55299428D02*
X105355571Y-54428571D01*
X106008714Y-53775428D02*
X105137857Y-54646285D01*
X104097666Y-35687000D02*
X105452333Y-35687000D01*
X104774999Y-36364333D02*
X104774999Y-35009666D01*
X104266999Y-38789428D02*
X104266999Y-37265428D01*
X104774999Y-38354000D01*
X105282999Y-37265428D01*
X105282999Y-38789428D01*
X104629857Y-41329428D02*
X104121857Y-40603714D01*
X103758999Y-41329428D02*
X103758999Y-39805428D01*
X104339571Y-39805428D01*
X104484714Y-39878000D01*
X104557285Y-39950571D01*
X104629857Y-40095714D01*
X104629857Y-40313428D01*
X104557285Y-40458571D01*
X104484714Y-40531142D01*
X104339571Y-40603714D01*
X103758999Y-40603714D01*
X105137857Y-41329428D02*
X105936142Y-40313428D01*
X105137857Y-40313428D02*
X105936142Y-41329428D01*
X103722714Y-42345428D02*
X104593571Y-42345428D01*
X104158142Y-43869428D02*
X104158142Y-42345428D01*
X104956428Y-43869428D02*
X105754714Y-42853428D01*
X104956428Y-42853428D02*
X105754714Y-43869428D01*
X104097666Y-45847000D02*
X105452333Y-45847000D01*
D11*
G04 #@! TO.C,D1*
X106590000Y-47260000D02*
X106590000Y-49260000D01*
X106590000Y-49260000D02*
X110490000Y-49260000D01*
X106590000Y-47260000D02*
X110490000Y-47260000D01*
D12*
G04 #@! TO.C,U2*
X171704000Y-38354000D02*
X172466000Y-38354000D01*
X169418000Y-39878000D02*
X171704000Y-38354000D01*
X169418000Y-43942000D02*
X169418000Y-39878000D01*
X171704000Y-45466000D02*
X169418000Y-43942000D01*
X172466000Y-45466000D02*
X171704000Y-45466000D01*
X178562000Y-38354000D02*
X175514000Y-38354000D01*
X178562000Y-45466000D02*
X178562000Y-38354000D01*
X175514000Y-45466000D02*
X178562000Y-45466000D01*
D13*
G04 #@! TO.C,M3*
X185039000Y-64135000D02*
G75*
G03X185039000Y-64135000I-1524000J0D01*
G01*
X186086554Y-64135000D02*
G75*
G03X186086554Y-64135000I-2571554J0D01*
G01*
X185039000Y-61468000D02*
X181991000Y-61468000D01*
X181991000Y-61468000D02*
X180467000Y-64135000D01*
X180467000Y-64135000D02*
X181991000Y-66802000D01*
X181991000Y-66802000D02*
X185039000Y-66802000D01*
X185039000Y-66802000D02*
X186563000Y-64135000D01*
X186563000Y-64135000D02*
X185039000Y-61468000D01*
X186563000Y-64135000D02*
G75*
G03X186563000Y-64135000I-3048000J0D01*
G01*
X186563000Y-33020000D02*
G75*
G03X186563000Y-33020000I-3048000J0D01*
G01*
X186563000Y-33020000D02*
X185039000Y-30353000D01*
X185039000Y-35687000D02*
X186563000Y-33020000D01*
X181991000Y-35687000D02*
X185039000Y-35687000D01*
X180467000Y-33020000D02*
X181991000Y-35687000D01*
X181991000Y-30353000D02*
X180467000Y-33020000D01*
X185039000Y-30353000D02*
X181991000Y-30353000D01*
X186086554Y-33020000D02*
G75*
G03X186086554Y-33020000I-2571554J0D01*
G01*
X185039000Y-33020000D02*
G75*
G03X185039000Y-33020000I-1524000J0D01*
G01*
X110109000Y-33020000D02*
G75*
G03X110109000Y-33020000I-1524000J0D01*
G01*
X111156554Y-33020000D02*
G75*
G03X111156554Y-33020000I-2571554J0D01*
G01*
X110109000Y-30353000D02*
X107061000Y-30353000D01*
X107061000Y-30353000D02*
X105537000Y-33020000D01*
X105537000Y-33020000D02*
X107061000Y-35687000D01*
X107061000Y-35687000D02*
X110109000Y-35687000D01*
X110109000Y-35687000D02*
X111633000Y-33020000D01*
X111633000Y-33020000D02*
X110109000Y-30353000D01*
X111633000Y-33020000D02*
G75*
G03X111633000Y-33020000I-3048000J0D01*
G01*
D11*
G04 #@! TO.C,J1*
X102930000Y-66100000D02*
X101600000Y-66100000D01*
X102930000Y-64770000D02*
X102930000Y-66100000D01*
X102930000Y-63500000D02*
X100270000Y-63500000D01*
X100270000Y-63500000D02*
X100270000Y-53280000D01*
X102930000Y-63500000D02*
X102930000Y-53280000D01*
X102930000Y-53280000D02*
X100270000Y-53280000D01*
G04 #@! TO.C,R8*
X139438748Y-55170000D02*
X139961252Y-55170000D01*
X139438748Y-56590000D02*
X139961252Y-56590000D01*
G04 #@! TO.C,C1*
X138301252Y-46915000D02*
X137778748Y-46915000D01*
X138301252Y-48335000D02*
X137778748Y-48335000D01*
G04 #@! TO.C,C2*
X137666252Y-63425000D02*
X137143748Y-63425000D01*
X137666252Y-64845000D02*
X137143748Y-64845000D01*
G04 #@! TO.C,C3*
X141588748Y-63425000D02*
X142111252Y-63425000D01*
X141588748Y-64845000D02*
X142111252Y-64845000D01*
G04 #@! TO.C,C4*
X109236252Y-54050000D02*
X108713748Y-54050000D01*
X109236252Y-52630000D02*
X108713748Y-52630000D01*
G04 #@! TO.C,C5*
X126983748Y-63575000D02*
X127506252Y-63575000D01*
X126983748Y-62155000D02*
X127506252Y-62155000D01*
G04 #@! TO.C,C6*
X118820000Y-36323748D02*
X118820000Y-36846252D01*
X117400000Y-36323748D02*
X117400000Y-36846252D01*
G04 #@! TO.C,C7*
X126983748Y-64060000D02*
X127506252Y-64060000D01*
X126983748Y-65480000D02*
X127506252Y-65480000D01*
G04 #@! TO.C,J2*
X102930000Y-34230000D02*
X100270000Y-34230000D01*
X102930000Y-44450000D02*
X102930000Y-34230000D01*
X100270000Y-44450000D02*
X100270000Y-34230000D01*
X102930000Y-44450000D02*
X100270000Y-44450000D01*
X102930000Y-45720000D02*
X102930000Y-47050000D01*
X102930000Y-47050000D02*
X101600000Y-47050000D01*
G04 #@! TO.C,R1*
X137778748Y-50875000D02*
X138301252Y-50875000D01*
X137778748Y-49455000D02*
X138301252Y-49455000D01*
G04 #@! TO.C,R2*
X169620000Y-64753748D02*
X169620000Y-65276252D01*
X168200000Y-64753748D02*
X168200000Y-65276252D01*
G04 #@! TO.C,R3*
X177240000Y-64753748D02*
X177240000Y-65276252D01*
X175820000Y-64753748D02*
X175820000Y-65276252D01*
G04 #@! TO.C,R4*
X113590000Y-64118748D02*
X113590000Y-64641252D01*
X115010000Y-64118748D02*
X115010000Y-64641252D01*
G04 #@! TO.C,R5*
X108713748Y-50090000D02*
X109236252Y-50090000D01*
X108713748Y-51510000D02*
X109236252Y-51510000D01*
G04 #@! TO.C,R6*
X150756252Y-36755000D02*
X150233748Y-36755000D01*
X150756252Y-38175000D02*
X150233748Y-38175000D01*
G04 #@! TO.C,R7*
X162000000Y-65276252D02*
X162000000Y-64753748D01*
X160580000Y-65276252D02*
X160580000Y-64753748D01*
D14*
G04 #@! TO.C,U1*
X130875000Y-61820000D02*
X130875000Y-61570000D01*
X123125000Y-61820000D02*
X123125000Y-61485000D01*
X123125000Y-48670000D02*
X123125000Y-49005000D01*
X130875000Y-48670000D02*
X130875000Y-49005000D01*
X130875000Y-61820000D02*
X123125000Y-61820000D01*
X130875000Y-48670000D02*
X123125000Y-48670000D01*
X130875000Y-61570000D02*
X132675000Y-61570000D01*
D11*
G04 #@! TO.C,Y1*
X136485000Y-57165000D02*
X142735000Y-57165000D01*
X136485000Y-62215000D02*
X142735000Y-62215000D01*
X136485000Y-62215000D02*
G75*
G02X136485000Y-57165000I0J2525000D01*
G01*
X142735000Y-62215000D02*
G75*
G03X142735000Y-57165000I0J2525000D01*
G01*
G04 #@! TO.C,JP1*
X158810000Y-39430000D02*
X158810000Y-36770000D01*
X156210000Y-39430000D02*
X158810000Y-39430000D01*
X156210000Y-36770000D02*
X158810000Y-36770000D01*
X156210000Y-39430000D02*
X156210000Y-36770000D01*
X154940000Y-39430000D02*
X153610000Y-39430000D01*
X153610000Y-39430000D02*
X153610000Y-38100000D01*
G04 #@! TO.C,P1*
X153730000Y-34350000D02*
X153730000Y-31690000D01*
X115570000Y-34350000D02*
X153730000Y-34350000D01*
X115570000Y-31690000D02*
X153730000Y-31690000D01*
X115570000Y-34350000D02*
X115570000Y-31690000D01*
X114300000Y-34350000D02*
X112970000Y-34350000D01*
X112970000Y-34350000D02*
X112970000Y-33020000D01*
G04 #@! TO.C,J7*
X189925000Y-39310000D02*
X187265000Y-39310000D01*
X189925000Y-41910000D02*
X189925000Y-39310000D01*
X187265000Y-41910000D02*
X187265000Y-39310000D01*
X189925000Y-41910000D02*
X187265000Y-41910000D01*
X189925000Y-43180000D02*
X189925000Y-44510000D01*
X189925000Y-44510000D02*
X188595000Y-44510000D01*
G04 #@! TO.C,R9*
X145975000Y-48878748D02*
X145975000Y-49401252D01*
X147395000Y-48878748D02*
X147395000Y-49401252D01*
G04 #@! TO.C,TH1*
X147141000Y-59682748D02*
X147141000Y-60205252D01*
X145721000Y-59682748D02*
X145721000Y-60205252D01*
G04 #@! TO.C,C8*
X180440000Y-44120000D02*
X185280000Y-44120000D01*
X180440000Y-49860000D02*
X185280000Y-49860000D01*
X180440000Y-44120000D02*
X180440000Y-49860000D01*
X185280000Y-44120000D02*
X185280000Y-49860000D01*
G04 #@! TO.C,C9*
X168135000Y-40945000D02*
X168135000Y-46685000D01*
X163295000Y-40945000D02*
X163295000Y-46685000D01*
X163295000Y-46685000D02*
X168135000Y-46685000D01*
X163295000Y-40945000D02*
X168135000Y-40945000D01*
G04 #@! TO.C,J3*
X162620000Y-67885000D02*
X162620000Y-69215000D01*
X161290000Y-67885000D02*
X162620000Y-67885000D01*
X160020000Y-67885000D02*
X160020000Y-70545000D01*
X160020000Y-70545000D02*
X157420000Y-70545000D01*
X160020000Y-67885000D02*
X157420000Y-67885000D01*
X157420000Y-67885000D02*
X157420000Y-70545000D01*
G04 #@! TO.C,J4*
X165040000Y-67885000D02*
X165040000Y-70545000D01*
X167640000Y-67885000D02*
X165040000Y-67885000D01*
X167640000Y-70545000D02*
X165040000Y-70545000D01*
X167640000Y-67885000D02*
X167640000Y-70545000D01*
X168910000Y-67885000D02*
X170240000Y-67885000D01*
X170240000Y-67885000D02*
X170240000Y-69215000D01*
G04 #@! TO.C,J5*
X177860000Y-67885000D02*
X177860000Y-69215000D01*
X176530000Y-67885000D02*
X177860000Y-67885000D01*
X175260000Y-67885000D02*
X175260000Y-70545000D01*
X175260000Y-70545000D02*
X172660000Y-70545000D01*
X175260000Y-67885000D02*
X172660000Y-67885000D01*
X172660000Y-67885000D02*
X172660000Y-70545000D01*
G04 #@! TO.C,J6*
X113605000Y-67885000D02*
X113605000Y-70545000D01*
X116205000Y-67885000D02*
X113605000Y-67885000D01*
X116205000Y-70545000D02*
X113605000Y-70545000D01*
X116205000Y-67885000D02*
X116205000Y-70545000D01*
X117475000Y-67885000D02*
X118805000Y-67885000D01*
X118805000Y-67885000D02*
X118805000Y-69215000D01*
D13*
G04 #@! TO.C,M3*
X111633000Y-64135000D02*
G75*
G03X111633000Y-64135000I-3048000J0D01*
G01*
X111633000Y-64135000D02*
X110109000Y-61468000D01*
X110109000Y-66802000D02*
X111633000Y-64135000D01*
X107061000Y-66802000D02*
X110109000Y-66802000D01*
X105537000Y-64135000D02*
X107061000Y-66802000D01*
X107061000Y-61468000D02*
X105537000Y-64135000D01*
X110109000Y-61468000D02*
X107061000Y-61468000D01*
X111156554Y-64135000D02*
G75*
G03X111156554Y-64135000I-2571554J0D01*
G01*
X110109000Y-64135000D02*
G75*
G03X110109000Y-64135000I-1524000J0D01*
G01*
D11*
G04 #@! TO.C,C10*
X156973748Y-63575000D02*
X157496252Y-63575000D01*
X156973748Y-62155000D02*
X157496252Y-62155000D01*
G04 #@! TO.C,C11*
X156973748Y-64060000D02*
X157496252Y-64060000D01*
X156973748Y-65480000D02*
X157496252Y-65480000D01*
G04 #@! TO.C,J8*
X142180000Y-67885000D02*
X142180000Y-70545000D01*
X152400000Y-67885000D02*
X142180000Y-67885000D01*
X152400000Y-70545000D02*
X142180000Y-70545000D01*
X152400000Y-67885000D02*
X152400000Y-70545000D01*
X153670000Y-67885000D02*
X155000000Y-67885000D01*
X155000000Y-67885000D02*
X155000000Y-69215000D01*
D14*
G04 #@! TO.C,U3*
X159555000Y-61600000D02*
X159555000Y-61575000D01*
X155405000Y-61600000D02*
X155405000Y-61485000D01*
X155405000Y-52700000D02*
X155405000Y-52815000D01*
X159555000Y-52700000D02*
X159555000Y-52815000D01*
X159555000Y-61600000D02*
X155405000Y-61600000D01*
X159555000Y-52700000D02*
X155405000Y-52700000D01*
X159555000Y-61575000D02*
X160930000Y-61575000D01*
D11*
G04 #@! TO.C,D2*
X144870000Y-51165000D02*
X140970000Y-51165000D01*
X144870000Y-49165000D02*
X140970000Y-49165000D01*
X144870000Y-51165000D02*
X144870000Y-49165000D01*
G04 #@! TO.C,R10*
X132005000Y-64396252D02*
X132005000Y-63873748D01*
X133425000Y-64396252D02*
X133425000Y-63873748D01*
G04 #@! TO.C,R11*
X109203748Y-43890000D02*
X109726252Y-43890000D01*
X109203748Y-42470000D02*
X109726252Y-42470000D01*
G04 #@! TO.C,R12*
X109203748Y-39930000D02*
X109726252Y-39930000D01*
X109203748Y-41350000D02*
X109726252Y-41350000D01*
G04 #@! TO.C,R13*
X141978748Y-46915000D02*
X142501252Y-46915000D01*
X141978748Y-48335000D02*
X142501252Y-48335000D01*
G04 #@! TO.C,D1*
D14*
X111656904Y-48712380D02*
X111656904Y-47712380D01*
X111894999Y-47712380D01*
X112037857Y-47760000D01*
X112133095Y-47855238D01*
X112180714Y-47950476D01*
X112228333Y-48140952D01*
X112228333Y-48283809D01*
X112180714Y-48474285D01*
X112133095Y-48569523D01*
X112037857Y-48664761D01*
X111894999Y-48712380D01*
X111656904Y-48712380D01*
X113180714Y-48712380D02*
X112609285Y-48712380D01*
X112894999Y-48712380D02*
X112894999Y-47712380D01*
X112799761Y-47855238D01*
X112704523Y-47950476D01*
X112609285Y-47998095D01*
G04 #@! TO.C,U2*
D12*
X168203166Y-42687333D02*
X168922833Y-42687333D01*
X169007499Y-42645000D01*
X169049833Y-42602666D01*
X169092166Y-42518000D01*
X169092166Y-42348666D01*
X169049833Y-42264000D01*
X169007499Y-42221666D01*
X168922833Y-42179333D01*
X168203166Y-42179333D01*
X168287833Y-41798333D02*
X168245500Y-41756000D01*
X168203166Y-41671333D01*
X168203166Y-41459666D01*
X168245500Y-41375000D01*
X168287833Y-41332666D01*
X168372500Y-41290333D01*
X168457166Y-41290333D01*
X168584166Y-41332666D01*
X169092166Y-41840666D01*
X169092166Y-41290333D01*
G04 #@! TO.C,J1*
D14*
X101266666Y-66552380D02*
X101266666Y-67266666D01*
X101219047Y-67409523D01*
X101123809Y-67504761D01*
X100980952Y-67552380D01*
X100885714Y-67552380D01*
X102266666Y-67552380D02*
X101695238Y-67552380D01*
X101980952Y-67552380D02*
X101980952Y-66552380D01*
X101885714Y-66695238D01*
X101790476Y-66790476D01*
X101695238Y-66838095D01*
G04 #@! TO.C,R8*
X142708333Y-56332380D02*
X142374999Y-55856190D01*
X142136904Y-56332380D02*
X142136904Y-55332380D01*
X142517857Y-55332380D01*
X142613095Y-55380000D01*
X142660714Y-55427619D01*
X142708333Y-55522857D01*
X142708333Y-55665714D01*
X142660714Y-55760952D01*
X142613095Y-55808571D01*
X142517857Y-55856190D01*
X142136904Y-55856190D01*
X143279761Y-55760952D02*
X143184523Y-55713333D01*
X143136904Y-55665714D01*
X143089285Y-55570476D01*
X143089285Y-55522857D01*
X143136904Y-55427619D01*
X143184523Y-55380000D01*
X143279761Y-55332380D01*
X143470238Y-55332380D01*
X143565476Y-55380000D01*
X143613095Y-55427619D01*
X143660714Y-55522857D01*
X143660714Y-55570476D01*
X143613095Y-55665714D01*
X143565476Y-55713333D01*
X143470238Y-55760952D01*
X143279761Y-55760952D01*
X143184523Y-55808571D01*
X143136904Y-55856190D01*
X143089285Y-55951428D01*
X143089285Y-56141904D01*
X143136904Y-56237142D01*
X143184523Y-56284761D01*
X143279761Y-56332380D01*
X143470238Y-56332380D01*
X143565476Y-56284761D01*
X143613095Y-56237142D01*
X143660714Y-56141904D01*
X143660714Y-55951428D01*
X143613095Y-55856190D01*
X143565476Y-55808571D01*
X143470238Y-55760952D01*
G04 #@! TO.C,C1*
X137628333Y-46077142D02*
X137580714Y-46124761D01*
X137437857Y-46172380D01*
X137342619Y-46172380D01*
X137199761Y-46124761D01*
X137104523Y-46029523D01*
X137056904Y-45934285D01*
X137009285Y-45743809D01*
X137009285Y-45600952D01*
X137056904Y-45410476D01*
X137104523Y-45315238D01*
X137199761Y-45220000D01*
X137342619Y-45172380D01*
X137437857Y-45172380D01*
X137580714Y-45220000D01*
X137628333Y-45267619D01*
X138580714Y-46172380D02*
X138009285Y-46172380D01*
X138294999Y-46172380D02*
X138294999Y-45172380D01*
X138199761Y-45315238D01*
X138104523Y-45410476D01*
X138009285Y-45458095D01*
G04 #@! TO.C,C2*
X137238333Y-66397142D02*
X137190714Y-66444761D01*
X137047857Y-66492380D01*
X136952619Y-66492380D01*
X136809761Y-66444761D01*
X136714523Y-66349523D01*
X136666904Y-66254285D01*
X136619285Y-66063809D01*
X136619285Y-65920952D01*
X136666904Y-65730476D01*
X136714523Y-65635238D01*
X136809761Y-65540000D01*
X136952619Y-65492380D01*
X137047857Y-65492380D01*
X137190714Y-65540000D01*
X137238333Y-65587619D01*
X137619285Y-65587619D02*
X137666904Y-65540000D01*
X137762142Y-65492380D01*
X138000238Y-65492380D01*
X138095476Y-65540000D01*
X138143095Y-65587619D01*
X138190714Y-65682857D01*
X138190714Y-65778095D01*
X138143095Y-65920952D01*
X137571666Y-66492380D01*
X138190714Y-66492380D01*
G04 #@! TO.C,C3*
X141683333Y-66397142D02*
X141635714Y-66444761D01*
X141492857Y-66492380D01*
X141397619Y-66492380D01*
X141254761Y-66444761D01*
X141159523Y-66349523D01*
X141111904Y-66254285D01*
X141064285Y-66063809D01*
X141064285Y-65920952D01*
X141111904Y-65730476D01*
X141159523Y-65635238D01*
X141254761Y-65540000D01*
X141397619Y-65492380D01*
X141492857Y-65492380D01*
X141635714Y-65540000D01*
X141683333Y-65587619D01*
X142016666Y-65492380D02*
X142635714Y-65492380D01*
X142302380Y-65873333D01*
X142445238Y-65873333D01*
X142540476Y-65920952D01*
X142588095Y-65968571D01*
X142635714Y-66063809D01*
X142635714Y-66301904D01*
X142588095Y-66397142D01*
X142540476Y-66444761D01*
X142445238Y-66492380D01*
X142159523Y-66492380D01*
X142064285Y-66444761D01*
X142016666Y-66397142D01*
G04 #@! TO.C,C4*
X111593333Y-53697142D02*
X111545714Y-53744761D01*
X111402857Y-53792380D01*
X111307619Y-53792380D01*
X111164761Y-53744761D01*
X111069523Y-53649523D01*
X111021904Y-53554285D01*
X110974285Y-53363809D01*
X110974285Y-53220952D01*
X111021904Y-53030476D01*
X111069523Y-52935238D01*
X111164761Y-52840000D01*
X111307619Y-52792380D01*
X111402857Y-52792380D01*
X111545714Y-52840000D01*
X111593333Y-52887619D01*
X112450476Y-53125714D02*
X112450476Y-53792380D01*
X112212380Y-52744761D02*
X111974285Y-53459047D01*
X112593333Y-53459047D01*
G04 #@! TO.C,C5*
X123658333Y-63222142D02*
X123610714Y-63269761D01*
X123467857Y-63317380D01*
X123372619Y-63317380D01*
X123229761Y-63269761D01*
X123134523Y-63174523D01*
X123086904Y-63079285D01*
X123039285Y-62888809D01*
X123039285Y-62745952D01*
X123086904Y-62555476D01*
X123134523Y-62460238D01*
X123229761Y-62365000D01*
X123372619Y-62317380D01*
X123467857Y-62317380D01*
X123610714Y-62365000D01*
X123658333Y-62412619D01*
X124563095Y-62317380D02*
X124086904Y-62317380D01*
X124039285Y-62793571D01*
X124086904Y-62745952D01*
X124182142Y-62698333D01*
X124420238Y-62698333D01*
X124515476Y-62745952D01*
X124563095Y-62793571D01*
X124610714Y-62888809D01*
X124610714Y-63126904D01*
X124563095Y-63222142D01*
X124515476Y-63269761D01*
X124420238Y-63317380D01*
X124182142Y-63317380D01*
X124086904Y-63269761D01*
X124039285Y-63222142D01*
G04 #@! TO.C,C6*
X120117142Y-36751666D02*
X120164761Y-36799285D01*
X120212380Y-36942142D01*
X120212380Y-37037380D01*
X120164761Y-37180238D01*
X120069523Y-37275476D01*
X119974285Y-37323095D01*
X119783809Y-37370714D01*
X119640952Y-37370714D01*
X119450476Y-37323095D01*
X119355238Y-37275476D01*
X119259999Y-37180238D01*
X119212380Y-37037380D01*
X119212380Y-36942142D01*
X119259999Y-36799285D01*
X119307619Y-36751666D01*
X119212380Y-35894523D02*
X119212380Y-36085000D01*
X119260000Y-36180238D01*
X119307619Y-36227857D01*
X119450476Y-36323095D01*
X119640952Y-36370714D01*
X120021904Y-36370714D01*
X120117142Y-36323095D01*
X120164761Y-36275476D01*
X120212380Y-36180238D01*
X120212380Y-35989761D01*
X120164761Y-35894523D01*
X120117142Y-35846904D01*
X120021904Y-35799285D01*
X119783809Y-35799285D01*
X119688571Y-35846904D01*
X119640952Y-35894523D01*
X119593333Y-35989761D01*
X119593333Y-36180238D01*
X119640952Y-36275476D01*
X119688571Y-36323095D01*
X119783809Y-36370714D01*
G04 #@! TO.C,C7*
X123658333Y-65127142D02*
X123610714Y-65174761D01*
X123467857Y-65222380D01*
X123372619Y-65222380D01*
X123229761Y-65174761D01*
X123134523Y-65079523D01*
X123086904Y-64984285D01*
X123039285Y-64793809D01*
X123039285Y-64650952D01*
X123086904Y-64460476D01*
X123134523Y-64365238D01*
X123229761Y-64270000D01*
X123372619Y-64222380D01*
X123467857Y-64222380D01*
X123610714Y-64270000D01*
X123658333Y-64317619D01*
X123991666Y-64222380D02*
X124658333Y-64222380D01*
X124229761Y-65222380D01*
G04 #@! TO.C,J2*
X101266666Y-47502380D02*
X101266666Y-48216666D01*
X101219047Y-48359523D01*
X101123809Y-48454761D01*
X100980952Y-48502380D01*
X100885714Y-48502380D01*
X101695238Y-47597619D02*
X101742857Y-47550000D01*
X101838095Y-47502380D01*
X102076190Y-47502380D01*
X102171428Y-47550000D01*
X102219047Y-47597619D01*
X102266666Y-47692857D01*
X102266666Y-47788095D01*
X102219047Y-47930952D01*
X101647619Y-48502380D01*
X102266666Y-48502380D01*
G04 #@! TO.C,R1*
X137628333Y-52522380D02*
X137294999Y-52046190D01*
X137056904Y-52522380D02*
X137056904Y-51522380D01*
X137437857Y-51522380D01*
X137533095Y-51570000D01*
X137580714Y-51617619D01*
X137628333Y-51712857D01*
X137628333Y-51855714D01*
X137580714Y-51950952D01*
X137533095Y-51998571D01*
X137437857Y-52046190D01*
X137056904Y-52046190D01*
X138580714Y-52522380D02*
X138009285Y-52522380D01*
X138294999Y-52522380D02*
X138294999Y-51522380D01*
X138199761Y-51665238D01*
X138104523Y-51760476D01*
X138009285Y-51808095D01*
G04 #@! TO.C,R2*
X167457380Y-65426666D02*
X166981190Y-65760000D01*
X167457380Y-65998095D02*
X166457380Y-65998095D01*
X166457380Y-65617142D01*
X166504999Y-65521904D01*
X166552619Y-65474285D01*
X166647857Y-65426666D01*
X166790714Y-65426666D01*
X166885952Y-65474285D01*
X166933571Y-65521904D01*
X166981190Y-65617142D01*
X166981190Y-65998095D01*
X166552619Y-65045714D02*
X166505000Y-64998095D01*
X166457380Y-64902857D01*
X166457380Y-64664761D01*
X166505000Y-64569523D01*
X166552619Y-64521904D01*
X166647857Y-64474285D01*
X166743095Y-64474285D01*
X166885952Y-64521904D01*
X167457380Y-65093333D01*
X167457380Y-64474285D01*
G04 #@! TO.C,R3*
X175077380Y-65181666D02*
X174601190Y-65515000D01*
X175077380Y-65753095D02*
X174077380Y-65753095D01*
X174077380Y-65372142D01*
X174124999Y-65276904D01*
X174172619Y-65229285D01*
X174267857Y-65181666D01*
X174410714Y-65181666D01*
X174505952Y-65229285D01*
X174553571Y-65276904D01*
X174601190Y-65372142D01*
X174601190Y-65753095D01*
X174077380Y-64848333D02*
X174077380Y-64229285D01*
X174458333Y-64562619D01*
X174458333Y-64419761D01*
X174505952Y-64324523D01*
X174553571Y-64276904D01*
X174648809Y-64229285D01*
X174886904Y-64229285D01*
X174982142Y-64276904D01*
X175029761Y-64324523D01*
X175077380Y-64419761D01*
X175077380Y-64705476D01*
X175029761Y-64800714D01*
X174982142Y-64848333D01*
G04 #@! TO.C,R4*
X116657380Y-64301666D02*
X116181190Y-64635000D01*
X116657380Y-64873095D02*
X115657380Y-64873095D01*
X115657380Y-64492142D01*
X115704999Y-64396904D01*
X115752619Y-64349285D01*
X115847857Y-64301666D01*
X115990714Y-64301666D01*
X116085952Y-64349285D01*
X116133571Y-64396904D01*
X116181190Y-64492142D01*
X116181190Y-64873095D01*
X115990714Y-63444523D02*
X116657380Y-63444523D01*
X115609761Y-63682619D02*
X116324047Y-63920714D01*
X116324047Y-63301666D01*
G04 #@! TO.C,R5*
X111593333Y-51252380D02*
X111259999Y-50776190D01*
X111021904Y-51252380D02*
X111021904Y-50252380D01*
X111402857Y-50252380D01*
X111498095Y-50300000D01*
X111545714Y-50347619D01*
X111593333Y-50442857D01*
X111593333Y-50585714D01*
X111545714Y-50680952D01*
X111498095Y-50728571D01*
X111402857Y-50776190D01*
X111021904Y-50776190D01*
X112498095Y-50252380D02*
X112021904Y-50252380D01*
X111974285Y-50728571D01*
X112021904Y-50680952D01*
X112117142Y-50633333D01*
X112355238Y-50633333D01*
X112450476Y-50680952D01*
X112498095Y-50728571D01*
X112545714Y-50823809D01*
X112545714Y-51061904D01*
X112498095Y-51157142D01*
X112450476Y-51204761D01*
X112355238Y-51252380D01*
X112117142Y-51252380D01*
X112021904Y-51204761D01*
X111974285Y-51157142D01*
G04 #@! TO.C,R6*
X150328333Y-39567380D02*
X149994999Y-39091190D01*
X149756904Y-39567380D02*
X149756904Y-38567380D01*
X150137857Y-38567380D01*
X150233095Y-38615000D01*
X150280714Y-38662619D01*
X150328333Y-38757857D01*
X150328333Y-38900714D01*
X150280714Y-38995952D01*
X150233095Y-39043571D01*
X150137857Y-39091190D01*
X149756904Y-39091190D01*
X151185476Y-38567380D02*
X150994999Y-38567380D01*
X150899761Y-38615000D01*
X150852142Y-38662619D01*
X150756904Y-38805476D01*
X150709285Y-38995952D01*
X150709285Y-39376904D01*
X150756904Y-39472142D01*
X150804523Y-39519761D01*
X150899761Y-39567380D01*
X151090238Y-39567380D01*
X151185476Y-39519761D01*
X151233095Y-39472142D01*
X151280714Y-39376904D01*
X151280714Y-39138809D01*
X151233095Y-39043571D01*
X151185476Y-38995952D01*
X151090238Y-38948333D01*
X150899761Y-38948333D01*
X150804523Y-38995952D01*
X150756904Y-39043571D01*
X150709285Y-39138809D01*
G04 #@! TO.C,R7*
X160092380Y-65181666D02*
X159616190Y-65515000D01*
X160092380Y-65753095D02*
X159092380Y-65753095D01*
X159092380Y-65372142D01*
X159139999Y-65276904D01*
X159187619Y-65229285D01*
X159282857Y-65181666D01*
X159425714Y-65181666D01*
X159520952Y-65229285D01*
X159568571Y-65276904D01*
X159616190Y-65372142D01*
X159616190Y-65753095D01*
X159092380Y-64848333D02*
X159092380Y-64181666D01*
X160092380Y-64610238D01*
G04 #@! TO.C,U1*
X126238095Y-47077380D02*
X126238095Y-47886904D01*
X126285714Y-47982142D01*
X126333333Y-48029761D01*
X126428571Y-48077380D01*
X126619047Y-48077380D01*
X126714285Y-48029761D01*
X126761904Y-47982142D01*
X126809523Y-47886904D01*
X126809523Y-47077380D01*
X127809523Y-48077380D02*
X127238095Y-48077380D01*
X127523809Y-48077380D02*
X127523809Y-47077380D01*
X127428571Y-47220238D01*
X127333333Y-47315476D01*
X127238095Y-47363095D01*
G04 #@! TO.C,Y1*
X136048809Y-56491190D02*
X136048809Y-56967380D01*
X135715476Y-55967380D02*
X136048809Y-56491190D01*
X136382142Y-55967380D01*
X137239285Y-56967380D02*
X136667857Y-56967380D01*
X136953571Y-56967380D02*
X136953571Y-55967380D01*
X136858333Y-56110238D01*
X136763095Y-56205476D01*
X136667857Y-56253095D01*
G04 #@! TO.C,JP1*
X159472380Y-38933333D02*
X160186666Y-38933333D01*
X160329523Y-38980952D01*
X160424761Y-39076190D01*
X160472380Y-39219047D01*
X160472380Y-39314285D01*
X160472380Y-38457142D02*
X159472380Y-38457142D01*
X159472380Y-38076190D01*
X159520000Y-37980952D01*
X159567619Y-37933333D01*
X159662857Y-37885714D01*
X159805714Y-37885714D01*
X159900952Y-37933333D01*
X159948571Y-37980952D01*
X159996190Y-38076190D01*
X159996190Y-38457142D01*
X160472380Y-36933333D02*
X160472380Y-37504761D01*
X160472380Y-37219047D02*
X159472380Y-37219047D01*
X159615238Y-37314285D01*
X159710476Y-37409523D01*
X159758095Y-37504761D01*
G04 #@! TO.C,P1*
X155392380Y-33758095D02*
X154392380Y-33758095D01*
X154392380Y-33377142D01*
X154439999Y-33281904D01*
X154487619Y-33234285D01*
X154582857Y-33186666D01*
X154725714Y-33186666D01*
X154820952Y-33234285D01*
X154868571Y-33281904D01*
X154916190Y-33377142D01*
X154916190Y-33758095D01*
X155392380Y-32234285D02*
X155392380Y-32805714D01*
X155392380Y-32520000D02*
X154392380Y-32520000D01*
X154535238Y-32615238D01*
X154630476Y-32710476D01*
X154678095Y-32805714D01*
G04 #@! TO.C,J7*
X188261666Y-44962380D02*
X188261666Y-45676666D01*
X188214047Y-45819523D01*
X188118809Y-45914761D01*
X187975952Y-45962380D01*
X187880714Y-45962380D01*
X188642619Y-44962380D02*
X189309285Y-44962380D01*
X188880714Y-45962380D01*
G04 #@! TO.C,R9*
X148787380Y-49306666D02*
X148311190Y-49640000D01*
X148787380Y-49878095D02*
X147787380Y-49878095D01*
X147787380Y-49497142D01*
X147834999Y-49401904D01*
X147882619Y-49354285D01*
X147977857Y-49306666D01*
X148120714Y-49306666D01*
X148215952Y-49354285D01*
X148263571Y-49401904D01*
X148311190Y-49497142D01*
X148311190Y-49878095D01*
X148787380Y-48830476D02*
X148787380Y-48640000D01*
X148739761Y-48544761D01*
X148692142Y-48497142D01*
X148549285Y-48401904D01*
X148358809Y-48354285D01*
X147977857Y-48354285D01*
X147882619Y-48401904D01*
X147835000Y-48449523D01*
X147787380Y-48544761D01*
X147787380Y-48735238D01*
X147835000Y-48830476D01*
X147882619Y-48878095D01*
X147977857Y-48925714D01*
X148215952Y-48925714D01*
X148311190Y-48878095D01*
X148358809Y-48830476D01*
X148406428Y-48735238D01*
X148406428Y-48544761D01*
X148358809Y-48449523D01*
X148311190Y-48401904D01*
X148215952Y-48354285D01*
G04 #@! TO.C,TH1*
X147533380Y-61229714D02*
X147533380Y-60658285D01*
X148533380Y-60944000D02*
X147533380Y-60944000D01*
X148533380Y-60324952D02*
X147533380Y-60324952D01*
X148009571Y-60324952D02*
X148009571Y-59753523D01*
X148533380Y-59753523D02*
X147533380Y-59753523D01*
X148533380Y-58753523D02*
X148533380Y-59324952D01*
X148533380Y-59039238D02*
X147533380Y-59039238D01*
X147676238Y-59134476D01*
X147771476Y-59229714D01*
X147819095Y-59324952D01*
G04 #@! TO.C,C8*
X182713333Y-45442142D02*
X182665714Y-45489761D01*
X182522857Y-45537380D01*
X182427619Y-45537380D01*
X182284761Y-45489761D01*
X182189523Y-45394523D01*
X182141904Y-45299285D01*
X182094285Y-45108809D01*
X182094285Y-44965952D01*
X182141904Y-44775476D01*
X182189523Y-44680238D01*
X182284761Y-44585000D01*
X182427619Y-44537380D01*
X182522857Y-44537380D01*
X182665714Y-44585000D01*
X182713333Y-44632619D01*
X183284761Y-44965952D02*
X183189523Y-44918333D01*
X183141904Y-44870714D01*
X183094285Y-44775476D01*
X183094285Y-44727857D01*
X183141904Y-44632619D01*
X183189523Y-44585000D01*
X183284761Y-44537380D01*
X183475238Y-44537380D01*
X183570476Y-44585000D01*
X183618095Y-44632619D01*
X183665714Y-44727857D01*
X183665714Y-44775476D01*
X183618095Y-44870714D01*
X183570476Y-44918333D01*
X183475238Y-44965952D01*
X183284761Y-44965952D01*
X183189523Y-45013571D01*
X183141904Y-45061190D01*
X183094285Y-45156428D01*
X183094285Y-45346904D01*
X183141904Y-45442142D01*
X183189523Y-45489761D01*
X183284761Y-45537380D01*
X183475238Y-45537380D01*
X183570476Y-45489761D01*
X183618095Y-45442142D01*
X183665714Y-45346904D01*
X183665714Y-45156428D01*
X183618095Y-45061190D01*
X183570476Y-45013571D01*
X183475238Y-44965952D01*
G04 #@! TO.C,C9*
X165568333Y-42267142D02*
X165520714Y-42314761D01*
X165377857Y-42362380D01*
X165282619Y-42362380D01*
X165139761Y-42314761D01*
X165044523Y-42219523D01*
X164996904Y-42124285D01*
X164949285Y-41933809D01*
X164949285Y-41790952D01*
X164996904Y-41600476D01*
X165044523Y-41505238D01*
X165139761Y-41410000D01*
X165282619Y-41362380D01*
X165377857Y-41362380D01*
X165520714Y-41410000D01*
X165568333Y-41457619D01*
X166044523Y-42362380D02*
X166234999Y-42362380D01*
X166330238Y-42314761D01*
X166377857Y-42267142D01*
X166473095Y-42124285D01*
X166520714Y-41933809D01*
X166520714Y-41552857D01*
X166473095Y-41457619D01*
X166425476Y-41410000D01*
X166330238Y-41362380D01*
X166139761Y-41362380D01*
X166044523Y-41410000D01*
X165996904Y-41457619D01*
X165949285Y-41552857D01*
X165949285Y-41790952D01*
X165996904Y-41886190D01*
X166044523Y-41933809D01*
X166139761Y-41981428D01*
X166330238Y-41981428D01*
X166425476Y-41933809D01*
X166473095Y-41886190D01*
X166520714Y-41790952D01*
G04 #@! TO.C,J3*
X163286666Y-68667380D02*
X163286666Y-69381666D01*
X163239047Y-69524523D01*
X163143809Y-69619761D01*
X163000952Y-69667380D01*
X162905714Y-69667380D01*
X163667619Y-68667380D02*
X164286666Y-68667380D01*
X163953333Y-69048333D01*
X164096190Y-69048333D01*
X164191428Y-69095952D01*
X164239047Y-69143571D01*
X164286666Y-69238809D01*
X164286666Y-69476904D01*
X164239047Y-69572142D01*
X164191428Y-69619761D01*
X164096190Y-69667380D01*
X163810476Y-69667380D01*
X163715238Y-69619761D01*
X163667619Y-69572142D01*
G04 #@! TO.C,J4*
X170906666Y-68667380D02*
X170906666Y-69381666D01*
X170859047Y-69524523D01*
X170763809Y-69619761D01*
X170620952Y-69667380D01*
X170525714Y-69667380D01*
X171811428Y-69000714D02*
X171811428Y-69667380D01*
X171573333Y-68619761D02*
X171335238Y-69334047D01*
X171954285Y-69334047D01*
G04 #@! TO.C,J5*
X178526666Y-68667380D02*
X178526666Y-69381666D01*
X178479047Y-69524523D01*
X178383809Y-69619761D01*
X178240952Y-69667380D01*
X178145714Y-69667380D01*
X179479047Y-68667380D02*
X179002857Y-68667380D01*
X178955238Y-69143571D01*
X179002857Y-69095952D01*
X179098095Y-69048333D01*
X179336190Y-69048333D01*
X179431428Y-69095952D01*
X179479047Y-69143571D01*
X179526666Y-69238809D01*
X179526666Y-69476904D01*
X179479047Y-69572142D01*
X179431428Y-69619761D01*
X179336190Y-69667380D01*
X179098095Y-69667380D01*
X179002857Y-69619761D01*
X178955238Y-69572142D01*
G04 #@! TO.C,J6*
X119471666Y-68667380D02*
X119471666Y-69381666D01*
X119424047Y-69524523D01*
X119328809Y-69619761D01*
X119185952Y-69667380D01*
X119090714Y-69667380D01*
X120376428Y-68667380D02*
X120185952Y-68667380D01*
X120090714Y-68715000D01*
X120043095Y-68762619D01*
X119947857Y-68905476D01*
X119900238Y-69095952D01*
X119900238Y-69476904D01*
X119947857Y-69572142D01*
X119995476Y-69619761D01*
X120090714Y-69667380D01*
X120281190Y-69667380D01*
X120376428Y-69619761D01*
X120424047Y-69572142D01*
X120471666Y-69476904D01*
X120471666Y-69238809D01*
X120424047Y-69143571D01*
X120376428Y-69095952D01*
X120281190Y-69048333D01*
X120090714Y-69048333D01*
X119995476Y-69095952D01*
X119947857Y-69143571D01*
X119900238Y-69238809D01*
G04 #@! TO.C,C10*
X153172142Y-63222142D02*
X153124523Y-63269761D01*
X152981666Y-63317380D01*
X152886428Y-63317380D01*
X152743571Y-63269761D01*
X152648333Y-63174523D01*
X152600714Y-63079285D01*
X152553095Y-62888809D01*
X152553095Y-62745952D01*
X152600714Y-62555476D01*
X152648333Y-62460238D01*
X152743571Y-62365000D01*
X152886428Y-62317380D01*
X152981666Y-62317380D01*
X153124523Y-62365000D01*
X153172142Y-62412619D01*
X154124523Y-63317380D02*
X153553095Y-63317380D01*
X153838809Y-63317380D02*
X153838809Y-62317380D01*
X153743571Y-62460238D01*
X153648333Y-62555476D01*
X153553095Y-62603095D01*
X154743571Y-62317380D02*
X154838809Y-62317380D01*
X154934047Y-62365000D01*
X154981666Y-62412619D01*
X155029285Y-62507857D01*
X155076904Y-62698333D01*
X155076904Y-62936428D01*
X155029285Y-63126904D01*
X154981666Y-63222142D01*
X154934047Y-63269761D01*
X154838809Y-63317380D01*
X154743571Y-63317380D01*
X154648333Y-63269761D01*
X154600714Y-63222142D01*
X154553095Y-63126904D01*
X154505476Y-62936428D01*
X154505476Y-62698333D01*
X154553095Y-62507857D01*
X154600714Y-62412619D01*
X154648333Y-62365000D01*
X154743571Y-62317380D01*
G04 #@! TO.C,C11*
X153172142Y-65127142D02*
X153124523Y-65174761D01*
X152981666Y-65222380D01*
X152886428Y-65222380D01*
X152743571Y-65174761D01*
X152648333Y-65079523D01*
X152600714Y-64984285D01*
X152553095Y-64793809D01*
X152553095Y-64650952D01*
X152600714Y-64460476D01*
X152648333Y-64365238D01*
X152743571Y-64270000D01*
X152886428Y-64222380D01*
X152981666Y-64222380D01*
X153124523Y-64270000D01*
X153172142Y-64317619D01*
X154124523Y-65222380D02*
X153553095Y-65222380D01*
X153838809Y-65222380D02*
X153838809Y-64222380D01*
X153743571Y-64365238D01*
X153648333Y-64460476D01*
X153553095Y-64508095D01*
X155076904Y-65222380D02*
X154505476Y-65222380D01*
X154791190Y-65222380D02*
X154791190Y-64222380D01*
X154695952Y-64365238D01*
X154600714Y-64460476D01*
X154505476Y-64508095D01*
G04 #@! TO.C,J8*
X155666666Y-68667380D02*
X155666666Y-69381666D01*
X155619047Y-69524523D01*
X155523809Y-69619761D01*
X155380952Y-69667380D01*
X155285714Y-69667380D01*
X156285714Y-69095952D02*
X156190476Y-69048333D01*
X156142857Y-69000714D01*
X156095238Y-68905476D01*
X156095238Y-68857857D01*
X156142857Y-68762619D01*
X156190476Y-68715000D01*
X156285714Y-68667380D01*
X156476190Y-68667380D01*
X156571428Y-68715000D01*
X156619047Y-68762619D01*
X156666666Y-68857857D01*
X156666666Y-68905476D01*
X156619047Y-69000714D01*
X156571428Y-69048333D01*
X156476190Y-69095952D01*
X156285714Y-69095952D01*
X156190476Y-69143571D01*
X156142857Y-69191190D01*
X156095238Y-69286428D01*
X156095238Y-69476904D01*
X156142857Y-69572142D01*
X156190476Y-69619761D01*
X156285714Y-69667380D01*
X156476190Y-69667380D01*
X156571428Y-69619761D01*
X156619047Y-69572142D01*
X156666666Y-69476904D01*
X156666666Y-69286428D01*
X156619047Y-69191190D01*
X156571428Y-69143571D01*
X156476190Y-69095952D01*
G04 #@! TO.C,U3*
X156718095Y-51522380D02*
X156718095Y-52331904D01*
X156765714Y-52427142D01*
X156813333Y-52474761D01*
X156908571Y-52522380D01*
X157099047Y-52522380D01*
X157194285Y-52474761D01*
X157241904Y-52427142D01*
X157289523Y-52331904D01*
X157289523Y-51522380D01*
X157670476Y-51522380D02*
X158289523Y-51522380D01*
X157956190Y-51903333D01*
X158099047Y-51903333D01*
X158194285Y-51950952D01*
X158241904Y-51998571D01*
X158289523Y-52093809D01*
X158289523Y-52331904D01*
X158241904Y-52427142D01*
X158194285Y-52474761D01*
X158099047Y-52522380D01*
X157813333Y-52522380D01*
X157718095Y-52474761D01*
X157670476Y-52427142D01*
G04 #@! TO.C,D2*
X141881904Y-52617380D02*
X141881904Y-51617380D01*
X142119999Y-51617380D01*
X142262857Y-51665000D01*
X142358095Y-51760238D01*
X142405714Y-51855476D01*
X142453333Y-52045952D01*
X142453333Y-52188809D01*
X142405714Y-52379285D01*
X142358095Y-52474523D01*
X142262857Y-52569761D01*
X142119999Y-52617380D01*
X141881904Y-52617380D01*
X142834285Y-51712619D02*
X142881904Y-51665000D01*
X142977142Y-51617380D01*
X143215238Y-51617380D01*
X143310476Y-51665000D01*
X143358095Y-51712619D01*
X143405714Y-51807857D01*
X143405714Y-51903095D01*
X143358095Y-52045952D01*
X142786666Y-52617380D01*
X143405714Y-52617380D01*
G04 #@! TO.C,R10*
X131262380Y-64777857D02*
X130786190Y-65111190D01*
X131262380Y-65349285D02*
X130262380Y-65349285D01*
X130262380Y-64968333D01*
X130309999Y-64873095D01*
X130357619Y-64825476D01*
X130452857Y-64777857D01*
X130595714Y-64777857D01*
X130690952Y-64825476D01*
X130738571Y-64873095D01*
X130786190Y-64968333D01*
X130786190Y-65349285D01*
X131262380Y-63825476D02*
X131262380Y-64396904D01*
X131262380Y-64111190D02*
X130262380Y-64111190D01*
X130405238Y-64206428D01*
X130500476Y-64301666D01*
X130548095Y-64396904D01*
X130262380Y-63206428D02*
X130262380Y-63111190D01*
X130310000Y-63015952D01*
X130357619Y-62968333D01*
X130452857Y-62920714D01*
X130643333Y-62873095D01*
X130881428Y-62873095D01*
X131071904Y-62920714D01*
X131167142Y-62968333D01*
X131214761Y-63015952D01*
X131262380Y-63111190D01*
X131262380Y-63206428D01*
X131214761Y-63301666D01*
X131167142Y-63349285D01*
X131071904Y-63396904D01*
X130881428Y-63444523D01*
X130643333Y-63444523D01*
X130452857Y-63396904D01*
X130357619Y-63349285D01*
X130310000Y-63301666D01*
X130262380Y-63206428D01*
G04 #@! TO.C,R11*
X112387142Y-43632380D02*
X112053809Y-43156190D01*
X111815714Y-43632380D02*
X111815714Y-42632380D01*
X112196666Y-42632380D01*
X112291904Y-42680000D01*
X112339523Y-42727619D01*
X112387142Y-42822857D01*
X112387142Y-42965714D01*
X112339523Y-43060952D01*
X112291904Y-43108571D01*
X112196666Y-43156190D01*
X111815714Y-43156190D01*
X113339523Y-43632380D02*
X112768095Y-43632380D01*
X113053809Y-43632380D02*
X113053809Y-42632380D01*
X112958571Y-42775238D01*
X112863333Y-42870476D01*
X112768095Y-42918095D01*
X114291904Y-43632380D02*
X113720476Y-43632380D01*
X114006190Y-43632380D02*
X114006190Y-42632380D01*
X113910952Y-42775238D01*
X113815714Y-42870476D01*
X113720476Y-42918095D01*
G04 #@! TO.C,R12*
X112387142Y-41092380D02*
X112053809Y-40616190D01*
X111815714Y-41092380D02*
X111815714Y-40092380D01*
X112196666Y-40092380D01*
X112291904Y-40140000D01*
X112339523Y-40187619D01*
X112387142Y-40282857D01*
X112387142Y-40425714D01*
X112339523Y-40520952D01*
X112291904Y-40568571D01*
X112196666Y-40616190D01*
X111815714Y-40616190D01*
X113339523Y-41092380D02*
X112768095Y-41092380D01*
X113053809Y-41092380D02*
X113053809Y-40092380D01*
X112958571Y-40235238D01*
X112863333Y-40330476D01*
X112768095Y-40378095D01*
X113720476Y-40187619D02*
X113768095Y-40140000D01*
X113863333Y-40092380D01*
X114101428Y-40092380D01*
X114196666Y-40140000D01*
X114244285Y-40187619D01*
X114291904Y-40282857D01*
X114291904Y-40378095D01*
X114244285Y-40520952D01*
X113672857Y-41092380D01*
X114291904Y-41092380D01*
G04 #@! TO.C,R13*
X141597142Y-46427380D02*
X141263809Y-45951190D01*
X141025714Y-46427380D02*
X141025714Y-45427380D01*
X141406666Y-45427380D01*
X141501904Y-45475000D01*
X141549523Y-45522619D01*
X141597142Y-45617857D01*
X141597142Y-45760714D01*
X141549523Y-45855952D01*
X141501904Y-45903571D01*
X141406666Y-45951190D01*
X141025714Y-45951190D01*
X142549523Y-46427380D02*
X141978095Y-46427380D01*
X142263809Y-46427380D02*
X142263809Y-45427380D01*
X142168571Y-45570238D01*
X142073333Y-45665476D01*
X141978095Y-45713095D01*
X142882857Y-45427380D02*
X143501904Y-45427380D01*
X143168571Y-45808333D01*
X143311428Y-45808333D01*
X143406666Y-45855952D01*
X143454285Y-45903571D01*
X143501904Y-45998809D01*
X143501904Y-46236904D01*
X143454285Y-46332142D01*
X143406666Y-46379761D01*
X143311428Y-46427380D01*
X143025714Y-46427380D01*
X142930476Y-46379761D01*
X142882857Y-46332142D01*
G04 #@! TD*
M02*
